<svg width="22" height="22" viewBox="0 0 22 22" fill="none" xmlns="http://www.w3.org/2000/svg">

<path fill-rule="evenodd" clip-rule="evenodd" d="M16.5 19.25H5.5C3.98122 19.25 2.75 18.0188 2.75 16.5V5.5C2.75 3.98122 3.98122 2.75 5.5 2.75H16.5C18.0188 2.75 19.25 3.98122 19.25 5.5V16.5C19.25 18.0188 18.0188 19.25 16.5 19.25Z" stroke="currentColor" stroke-width="1.2" stroke-linecap="round" stroke-linejoin="round"/>
<path d="M10.0835 15.5833H11.9168" stroke="currentColor" stroke-width="1.2" stroke-linecap="round" stroke-linejoin="round"/>
<path d="M6.4165 11L8.24984 12.8333L6.4165 14.6667" stroke="currentColor" stroke-width="1.2" stroke-linecap="round" stroke-linejoin="round"/>
<path d="M2.75 7.33333H19.25" stroke="currentColor" stroke-width="1.2" stroke-linecap="round" stroke-linejoin="round"/>
<path d="M9.96029 5.03712L9.9557 5.04171L9.96029 5.04629L9.96487 5.04171L9.96029 5.03712" stroke="currentColor" stroke-width="1.2" stroke-linecap="round" stroke-linejoin="round"/>
<path d="M7.63314 5.03712L7.62855 5.04171L7.63314 5.04629L7.63772 5.04171L7.63314 5.03712" stroke="currentColor" stroke-width="1.2" stroke-linecap="round" stroke-linejoin="round"/>
<path d="M5.2972 5.03249L5.29262 5.03707L5.2972 5.04165L5.30178 5.03707L5.2972 5.03249" stroke="currentColor" stroke-width="1.2" stroke-linecap="round" stroke-linejoin="round"/>

</svg>
