<svg width="22" height="22" viewBox="0 0 22 22" fill="none" xmlns="http://www.w3.org/2000/svg">

<path d="M12.8332 15.5834L13.2915 19.25" stroke="currentColor" stroke-width="1.2" stroke-linecap="round" stroke-linejoin="round"/>
<path d="M9.1665 15.5834L8.70817 19.25" stroke="currentColor" stroke-width="1.2" stroke-linecap="round" stroke-linejoin="round"/>
<path d="M7.46436 19.25H14.5355" stroke="currentColor" stroke-width="1.2" stroke-linecap="round" stroke-linejoin="round"/>
<path d="M12.8335 9.16671H17.8752" stroke="currentColor" stroke-width="1.2" stroke-linecap="round" stroke-linejoin="round"/>
<path d="M17.875 9.16667C19.1407 9.16667 20.1667 8.14065 20.1667 6.875" stroke="currentColor" stroke-width="1.2" stroke-linecap="round" stroke-linejoin="round"/>
<path d="M12.8333 5.5C11.8208 5.5 11 6.32081 11 7.33333C11 8.34586 11.8208 9.16667 12.8333 9.16667" stroke="currentColor" stroke-width="1.2" stroke-linecap="round" stroke-linejoin="round"/>
<path d="M15.5835 2.75C14.0647 2.75 12.8335 3.98122 12.8335 5.5" stroke="currentColor" stroke-width="1.2" stroke-linecap="round" stroke-linejoin="round"/>
<path d="M18.1743 4.61353C19.3121 4.76018 20.1646 5.72787 20.1667 6.87503" stroke="currentColor" stroke-width="1.2" stroke-linecap="round" stroke-linejoin="round"/>
<path d="M15.5835 2.75C16.757 2.75253 17.7987 3.50177 18.1744 4.61349" stroke="currentColor" stroke-width="1.2" stroke-linecap="round" stroke-linejoin="round"/>
<path d="M19.25 11.9167V12.8333C19.25 14.3521 18.0188 15.5833 16.5 15.5833H5.5C3.98122 15.5833 2.75 14.3521 2.75 12.8333V5.5C2.75 3.98122 3.98122 2.75 5.5 2.75H10.0833" stroke="currentColor" stroke-width="1.2" stroke-linecap="round" stroke-linejoin="round"/>

</svg>
