<svg width="22" height="22" viewBox="0 0 22 22" fill="none" xmlns="http://www.w3.org/2000/svg">

<path d="M4.58108 5.49768V14.6682" stroke="currentColor" stroke-width="1.2" stroke-linecap="round" stroke-linejoin="round"/>
<path fill-rule="evenodd" clip-rule="evenodd" d="M5.49773 18.3363H3.66363C3.15723 18.3361 2.74676 17.9256 2.74658 17.4192V15.5851C2.74676 15.0787 3.15723 14.6683 3.66363 14.6681H5.49773C6.00412 14.6683 6.41459 15.0787 6.41478 15.5851V17.4192C6.41459 17.9256 6.00412 18.3361 5.49773 18.3363V18.3363Z" stroke="currentColor" stroke-width="1.2" stroke-linecap="round" stroke-linejoin="round"/>
<path fill-rule="evenodd" clip-rule="evenodd" d="M5.49773 18.3363H3.66363C3.15723 18.3361 2.74676 17.9256 2.74658 17.4192V15.5851C2.74676 15.0787 3.15723 14.6683 3.66363 14.6681H5.49773C6.00412 14.6683 6.41459 15.0787 6.41478 15.5851V17.4192C6.41459 17.9256 6.00412 18.3361 5.49773 18.3363V18.3363Z" stroke="currentColor" stroke-width="1.2" stroke-linecap="round" stroke-linejoin="round"/>
<path fill-rule="evenodd" clip-rule="evenodd" d="M18.3366 5.49766H16.5025C15.9961 5.49748 15.5856 5.08701 15.5854 4.58061V2.74652C15.5856 2.24012 15.9961 1.82965 16.5025 1.82947H18.3366C18.843 1.82965 19.2535 2.24012 19.2536 2.74652V4.58061C19.2535 5.08701 18.843 5.49748 18.3366 5.49766Z" stroke="currentColor" stroke-width="1.2" stroke-linecap="round" stroke-linejoin="round"/>
<path fill-rule="evenodd" clip-rule="evenodd" d="M5.49773 5.49766H3.66363C3.15723 5.49748 2.74676 5.08701 2.74658 4.58061V2.74652C2.74676 2.24012 3.15723 1.82965 3.66363 1.82947H5.49773C6.00412 1.82965 6.41459 2.24012 6.41478 2.74652V4.58061C6.41459 5.08701 6.00412 5.49748 5.49773 5.49766Z" stroke="currentColor" stroke-width="1.2" stroke-linecap="round" stroke-linejoin="round"/>
<path fill-rule="evenodd" clip-rule="evenodd" d="M5.49773 5.49766H3.66363C3.15723 5.49748 2.74676 5.08701 2.74658 4.58061V2.74652C2.74676 2.24012 3.15723 1.82965 3.66363 1.82947H5.49773C6.00412 1.82965 6.41459 2.24012 6.41478 2.74652V4.58061C6.41459 5.08701 6.00412 5.49748 5.49773 5.49766Z" stroke="currentColor" stroke-width="1.2" stroke-linecap="round" stroke-linejoin="round"/>
<path d="M6.41504 16.5022H8.24914" stroke="currentColor" stroke-width="1.2" stroke-linecap="round" stroke-linejoin="round"/>
<path d="M15.1266 17.832C15.1016 17.8319 15.0812 17.8521 15.0811 17.8771V17.8778C15.0811 17.9032 15.1017 17.9237 15.127 17.9237C15.1523 17.9237 15.1728 17.9032 15.1728 17.8778C15.1728 17.8525 15.1523 17.832 15.127 17.832H15.1266" stroke="currentColor" stroke-width="1.2" stroke-linecap="round" stroke-linejoin="round"/>
<rect x="11" y="10.0829" width="8.25344" height="10.0875" rx="2" stroke="currentColor" stroke-width="1.2" stroke-linecap="round" stroke-linejoin="round"/>
<path d="M16.5026 15.1266H13.7515" stroke="currentColor" stroke-width="1.2" stroke-linecap="round" stroke-linejoin="round"/>
<path d="M13.7515 12.834H16.5026" stroke="currentColor" stroke-width="1.2" stroke-linecap="round" stroke-linejoin="round"/>
<path d="M15.5855 3.6636H6.41504" stroke="currentColor" stroke-width="1.2" stroke-linecap="round" stroke-linejoin="round"/>
<path d="M17.4195 5.49768V7.33178" stroke="currentColor" stroke-width="1.2" stroke-linecap="round" stroke-linejoin="round"/>

</svg>
