<svg width="715" height="722" viewBox="0 0 715 722" fill="none" xmlns="http://www.w3.org/2000/svg">
<g filter="url(#filter0_f_87_5)">
<path d="M235.122 80.5496C19.0102 -3.21899 75.6357 147.806 163.085 176.199C250.534 204.591 163.085 185.26 163.085 185.26C163.085 185.26 259.539 285.541 195.121 349.777C130.703 414.013 16.4127 412.603 11.2177 488.921C6.02274 565.239 94.857 640.148 163.085 611.554C231.313 582.96 247.763 629.475 269.755 680.421C291.747 731.367 350.797 715.056 412.618 658.07C474.438 601.083 614.703 658.07 664.748 611.554C714.794 565.038 734.362 548.526 671.329 458.918C608.296 369.309 598.079 370.719 614.703 310.913C631.327 251.107 681.546 279.5 690.55 221.104C699.555 162.707 664.748 150.827 622.323 96.8603C579.897 42.894 456.429 1.0097 393.396 13.0916C330.364 25.1735 451.234 164.318 235.122 80.5496Z" fill="#22FFCA"/>
<path d="M235.122 80.5496C19.0102 -3.21899 75.6357 147.806 163.085 176.199C250.534 204.591 163.085 185.26 163.085 185.26C163.085 185.26 259.539 285.541 195.121 349.777C130.703 414.013 16.4127 412.603 11.2177 488.921C6.02274 565.239 94.857 640.148 163.085 611.554C231.313 582.96 247.763 629.475 269.755 680.421C291.747 731.367 350.797 715.056 412.618 658.07C474.438 601.083 614.703 658.07 664.748 611.554C714.794 565.038 734.362 548.526 671.329 458.918C608.296 369.309 598.079 370.719 614.703 310.913C631.327 251.107 681.546 279.5 690.55 221.104C699.555 162.707 664.748 150.827 622.323 96.8603C579.897 42.894 456.429 1.0097 393.396 13.0916C330.364 25.1735 451.234 164.318 235.122 80.5496Z" stroke="#22FFCA"/>
</g>
<defs>
<filter id="filter0_f_87_5" x="0.499939" y="0.500061" width="721" height="721" filterUnits="userSpaceOnUse" color-interpolation-filters="sRGB">
<feFlood flood-opacity="0" result="BackgroundImageFix"/>
<feBlend mode="normal" in="SourceGraphic" in2="BackgroundImageFix" result="shape"/>
<feGaussianBlur stdDeviation="5" result="effect1_foregroundBlur_87_5"/>
</filter>
</defs>
</svg>
