<svg width="22" height="22" viewBox="0 0 22 22" fill="none" xmlns="http://www.w3.org/2000/svg">
<g opacity="0.5">
<path d="M11 2.75C15.5668 2.75 19.25 6.43317 19.25 11C19.25 15.5668 15.5668 19.25 11 19.25" stroke="white" stroke-width="1.5" stroke-linecap="round" stroke-linejoin="round"/>
<path d="M11 19.25C6.43317 19.25 2.75 15.5668 2.75 11C2.75 6.43317 6.43317 2.75 11 2.75" stroke="white" stroke-width="1.5" stroke-linecap="round" stroke-linejoin="round"/>
<path fill-rule="evenodd" clip-rule="evenodd" d="M9.32062 3.72168C6.67145 8.1446 6.67145 13.8563 9.32062 18.2793C10.0961 19.5745 11.9047 19.5745 12.6802 18.2793C15.3294 13.8563 15.3294 8.1446 12.6802 3.72168C11.9038 2.42643 10.0961 2.42643 9.32062 3.72168Z" stroke="white" stroke-width="1.5" stroke-linecap="round" stroke-linejoin="round"/>
<path d="M3.67578 7.20312C8.16011 8.58821 13.8398 8.58821 18.3232 7.20312" stroke="white" stroke-width="1.5" stroke-linecap="round" stroke-linejoin="round"/>
<path d="M18.3242 14.7969C13.8398 13.4118 8.16017 13.4118 3.67676 14.7969" stroke="white" stroke-width="1.5" stroke-linecap="round" stroke-linejoin="round"/>
</g>
</svg>
