<svg width="16" height="16" viewBox="0 0 16 16" fill="none" xmlns="http://www.w3.org/2000/svg">
<path d="M6.66602 8.66703L7.30161 9.30263C7.80192 9.80297 8.4805 10.0841 9.18807 10.0841C9.89563 10.0841 10.5742 9.80297 11.0745 9.30263L13.096 7.28112C14.3046 6.07236 14.3046 4.11272 13.096 2.90397V2.90397C11.8873 1.69534 9.92763 1.69534 8.71887 2.90397L8.12729 3.49621" stroke="currentColor" stroke-width="1.5" stroke-linecap="round" stroke-linejoin="round"/>
<path d="M9.33404 6.66623L8.69844 6.03063C8.19813 5.53029 7.51955 5.24921 6.81199 5.24921C6.10442 5.24921 5.42584 5.53029 4.92553 6.03063L2.90403 8.05214C1.6954 9.2609 1.6954 11.2205 2.90403 12.4293V12.4293C4.11278 13.6379 6.07243 13.6379 7.28118 12.4293L7.87276 11.837" stroke="currentColor" stroke-width="1.5" stroke-linecap="round" stroke-linejoin="round"/>
</svg>
