<svg width="48" height="20" viewBox="0 0 48 20" fill="none" xmlns="http://www.w3.org/2000/svg">
<g clip-path="url(#clip0_54_3263)">
<path d="M3.34776 7.80245C3.34776 7.28417 3.77118 7.08475 4.47261 7.08475C5.47818 7.08475 6.74845 7.39052 7.75412 7.93543V4.81202C6.65588 4.37346 5.57085 4.20067 4.47261 4.20067C1.78636 4.20067 0 5.60953 0 7.96207C0 11.6302 5.02824 11.0455 5.02824 12.6271C5.02824 13.2384 4.49903 13.4378 3.75797 13.4378C2.65973 13.4378 1.25706 12.9859 0.145514 12.3745V15.5378C1.37615 16.0694 2.62 16.2953 3.75797 16.2953C6.51027 16.2953 8.40251 14.9264 8.40251 12.5473C8.3893 8.58669 3.34776 9.29103 3.34776 7.80245ZM12.2928 1.54255L9.06412 2.23362L9.05091 12.8795C9.05091 14.8467 10.5197 16.2953 12.4781 16.2953C13.5632 16.2953 14.3571 16.0959 14.7937 15.8567V13.1587C14.3704 13.3315 12.2796 13.9428 12.2796 11.9758V7.25754H14.7937V4.42663H12.2796L12.2928 1.54255ZM18.909 5.41011L18.6973 4.42663H15.8391V16.056H19.1472V8.17467C19.9278 7.15129 21.2511 7.33735 21.6613 7.4835V4.42663C21.2379 4.26711 19.6897 3.9747 18.909 5.41011ZM22.4685 4.42663H25.7898V16.056H22.4685V4.42663ZM22.4685 3.41652L25.7898 2.69882V0.000793457L22.4685 0.705227V3.41643V3.41652ZM32.6971 4.20067C31.4003 4.20067 30.5666 4.81202 30.1036 5.23741L29.9315 4.41336H27.0204V19.9103L30.3285 19.206L30.3418 15.4447C30.8181 15.7903 31.5194 16.282 32.6838 16.282C35.0525 16.282 37.2093 14.3681 37.2093 10.155C37.1961 6.3006 35.0127 4.20067 32.6971 4.20067ZM31.9032 13.358C31.1225 13.358 30.6592 13.079 30.3418 12.7334L30.3285 7.80245C30.6725 7.41706 31.1489 7.15129 31.9032 7.15129C33.1073 7.15129 33.9409 8.50689 33.9409 10.248C33.9409 12.029 33.1205 13.358 31.9032 13.358ZM47.6364 10.2879C47.6364 6.88542 45.9955 4.20067 42.8595 4.20067C39.7101 4.20067 37.8047 6.88551 37.8047 10.2613C37.8047 14.2618 40.0543 16.282 43.2828 16.282C44.8575 16.282 46.0485 15.9232 46.9482 15.4181V12.7599C46.0485 13.2119 45.0164 13.491 43.7064 13.491C42.4228 13.491 41.2848 13.0391 41.1393 11.4708H47.6099C47.6099 11.2979 47.6364 10.6068 47.6364 10.2879ZM41.0996 9.02526C41.0996 7.52341 42.0127 6.89869 42.8463 6.89869C43.6534 6.89869 44.5136 7.52341 44.5136 9.02526H41.0996Z" fill="currentColor"/>
</g>
<defs>
<clipPath id="clip0_54_3263">
<rect width="47.6364" height="20" fill="white"/>
</clipPath>
</defs>
</svg>
