<svg width="26" height="26" viewBox="0 0 26 26" fill="none" xmlns="http://www.w3.org/2000/svg">
<path d="M10.509 19.0025V19.5147C10.509 20.1752 10.7715 20.8086 11.2388 21.2754C11.706 21.7423 12.3396 22.0043 13.0001 22.0038V22.0038C13.6606 22.004 14.2943 21.7418 14.7614 21.2748C15.2286 20.8078 15.4911 20.1743 15.4911 19.5137V19.0025" stroke="currentColor" stroke-width="1.5" stroke-linecap="round" stroke-linejoin="round"/>
<path fill-rule="evenodd" clip-rule="evenodd" d="M18.9496 19.0025C20.084 19.0025 21.0035 18.0829 21.0035 16.9486V16.9486C21.003 16.3724 20.7742 15.8198 20.3672 15.412L19.0027 14.0484V9.99872C19.0027 6.68363 16.3152 3.99622 13.0002 3.99622V3.99622C9.68507 3.99622 6.99766 6.68363 6.99766 9.99872V14.0484L5.63309 15.412C5.22608 15.8198 4.99729 16.3724 4.99683 16.9486V16.9486C4.99683 17.4933 5.21321 18.0157 5.59839 18.4009C5.98356 18.7861 6.50597 19.0025 7.05068 19.0025H18.9496Z" stroke="currentColor" stroke-width="1.5" stroke-linecap="round" stroke-linejoin="round"/>
</svg>
