<svg width="22" height="22" viewBox="0 0 22 22" fill="none" xmlns="http://www.w3.org/2000/svg">
<path d="M18.3333 13.2917V16.0417C18.3333 17.3074 17.3073 18.3334 16.0417 18.3334H5.04167C3.77601 18.3334 2.75 17.3074 2.75 16.0417V5.95841C2.75 4.69276 3.77601 3.66675 5.04167 3.66675H16.0417C17.3073 3.66675 18.3333 4.69276 18.3333 5.95841V8.70842" stroke="currentColor" stroke-width="1.2" stroke-linecap="round" stroke-linejoin="round"/>
<path fill-rule="evenodd" clip-rule="evenodd" d="M16.9582 8.70825H18.3332C18.8394 8.70825 19.2498 9.11866 19.2498 9.62492V12.3749C19.2498 12.8812 18.8394 13.2916 18.3332 13.2916H16.9582C15.6925 13.2916 14.6665 12.2656 14.6665 10.9999V10.9999C14.6665 9.73427 15.6925 8.70825 16.9582 8.70825V8.70825Z" stroke="currentColor" stroke-width="1.2" stroke-linecap="round" stroke-linejoin="round"/>
<path d="M6.41683 7.33325V14.6666" stroke="currentColor" stroke-width="1.2" stroke-linecap="round" stroke-linejoin="round"/>
</svg>
