<svg width="58" height="20" viewBox="0 0 58 20" fill="none" xmlns="http://www.w3.org/2000/svg">
<path d="M57.2222 4.73546H54.2455L52.5228 11.9603L52.2812 12.9517C52.115 12.9968 51.9488 13.0417 51.7826 13.072C51.4803 13.1319 51.1631 13.162 50.8308 13.162C50.4529 13.162 50.1509 13.102 49.9242 12.9968C49.7125 12.8917 49.5463 12.7416 49.4557 12.5311C49.3649 12.3358 49.3347 12.0955 49.3498 11.8252C49.3649 11.5549 49.4253 11.2543 49.5009 10.9542L50.4075 7.19882L50.9967 4.70554H47.9595L46.5846 10.4732C46.4183 11.164 46.3277 11.8251 46.2975 12.456C46.2671 13.0868 46.373 13.6276 46.5846 14.1233C46.7962 14.6039 47.1738 14.9794 47.6876 15.2647C48.2014 15.5501 48.9418 15.6851 49.8788 15.6851C50.5286 15.6851 51.1026 15.6253 51.5863 15.52C51.6014 15.52 51.6316 15.5051 51.6467 15.5051C51.5108 16.1058 51.2387 16.5863 50.8155 16.9621C50.3773 17.3376 49.7426 17.5328 48.8964 17.5328C48.5337 17.5328 48.2014 17.5178 47.8991 17.473L47.3098 19.9214C47.7029 19.9664 48.1411 19.9964 48.6245 19.9964C49.5311 19.9964 50.3168 19.8913 50.9967 19.6959C51.6767 19.4855 52.2511 19.1853 52.7495 18.7646C53.233 18.344 53.641 17.8183 53.9734 17.2026C54.3057 16.5717 54.5625 15.8355 54.759 14.9644L56.814 6.37266L57.2222 4.73546ZM44.7564 10.9087C44.575 11.6598 44.5145 12.4258 44.5901 13.1769C44.6656 13.9429 44.9679 15.0994 45.255 15.6852H42.384C42.0366 15.0996 42.0518 14.8142 41.9763 14.634C41.5984 14.9344 41.1906 15.1897 40.7373 15.3851C40.284 15.5804 39.7852 15.6855 39.2111 15.6855C38.5461 15.6855 37.9721 15.5653 37.5037 15.34C37.0353 15.1149 36.6424 14.7994 36.3401 14.4087C36.0378 14.018 35.8265 13.5674 35.6902 13.0417C35.5542 12.516 35.4938 11.9603 35.4938 11.3596C35.4938 10.4431 35.6601 9.58711 35.9776 8.77607C36.3098 7.96492 36.7631 7.25878 37.3375 6.65809C37.9117 6.0573 39.3169 4.72055 41.6136 4.72055H46.2223L44.7564 10.9087ZM42.6561 7.22874C41.266 7.22874 41.009 7.22874 40.4351 7.5143C40.0271 7.72453 39.6945 8.04001 39.4075 8.40042C39.1204 8.76083 38.8786 9.18142 38.7124 9.66219C38.5463 10.1429 38.4555 10.6384 38.4555 11.1492C38.4555 11.7801 38.5615 12.2906 38.7729 12.6662C38.9842 13.0417 39.3772 13.2219 39.9514 13.2219C40.2538 13.2219 40.5406 13.162 40.7826 13.0417C41.0242 12.9215 41.2961 12.7265 41.5683 12.441C41.5986 12.1107 41.6438 11.765 41.7042 11.4049C41.7646 11.0441 41.8402 10.6987 41.9007 10.3983L42.6561 7.22874ZM34.6779 9.0763C34.6779 10.0526 34.5116 10.9388 34.1943 11.7499C33.877 12.5609 33.4237 13.252 32.8494 13.8378C32.2752 14.4237 31.5954 14.8743 30.7945 15.2049C29.9937 15.535 29.1324 15.7003 28.1956 15.7003C27.7422 15.7003 27.2889 15.6552 26.8204 15.5802L25.914 19.2001H22.9371L26.3973 4.75024H30.3713C31.1271 4.75024 31.7765 4.87049 32.3054 5.09552C32.8493 5.32078 33.2875 5.63637 33.6502 6.02704C33.9978 6.41759 34.2545 6.88312 34.4207 7.40883C34.6024 7.91964 34.6779 8.4755 34.6779 9.0763ZM27.3796 13.1769C27.6061 13.2368 27.8933 13.252 28.2258 13.252C28.7546 13.252 29.2232 13.1617 29.6611 12.9664C30.0841 12.7712 30.462 12.5008 30.7642 12.1555C31.0665 11.81 31.293 11.3894 31.4744 10.9087C31.6406 10.4278 31.7313 9.88722 31.7313 9.30155C31.7313 8.73056 31.6104 8.235 31.3535 7.84433C31.0966 7.43898 30.6586 7.22863 30.024 7.22863H28.8453L27.3796 13.1769ZM21.124 13.1769C20.7461 13.1769 20.4442 13.1168 20.2174 13.0117C20.0058 12.9066 19.8395 12.7564 19.749 12.5459C19.6582 12.3507 19.628 12.1104 19.6432 11.84C19.6582 11.5696 19.7187 11.2691 19.7942 10.9688L20.7007 7.21373H24.0854L24.705 4.72032H21.3051L22.0908 1.56594L18.9176 2.06139L16.9079 10.503C16.7416 11.1938 16.651 11.855 16.6208 12.4856C16.5904 13.1165 16.6963 13.6575 16.9079 14.153C17.1194 14.6336 17.4972 15.0091 18.0109 15.2945C18.5247 15.5799 19.2651 15.715 20.202 15.715C20.8518 15.715 21.4258 15.655 21.9095 15.5498C21.9548 15.5345 22.0303 15.5196 22.0755 15.5047L22.6951 12.9361C22.4835 13.0112 22.272 13.0565 22.0755 13.0862C21.7737 13.1467 21.4563 13.1769 21.124 13.1769ZM13.5539 4.73546L10.9246 15.7002H13.9013L16.5154 4.73546H13.5539ZM16.8327 3.47357L17.286 1.56594H14.3093L13.856 3.47357H16.8327ZM6.96578 4.75024C7.60037 4.75024 8.15943 4.87049 8.62785 5.09552C9.09627 5.32078 9.47405 5.62124 9.79129 6.01191C10.0935 6.40258 10.3201 6.8532 10.4712 7.3639C10.6223 7.87436 10.6978 8.43034 10.6978 9.03113C10.6978 9.9474 10.5316 10.8036 10.1841 11.6297C9.8365 12.4408 9.38319 13.1617 8.79403 13.7624C8.20475 14.3632 7.50962 14.8441 6.70885 15.1895C5.90797 15.5349 5.04666 15.7151 4.10993 15.7151C3.98896 15.7151 3.77747 15.7151 3.47533 15.7002C3.17309 15.7002 2.82563 15.67 2.44785 15.61C2.05497 15.55 1.64697 15.4748 1.22387 15.3698C0.801651 15.2678 0.391429 15.1217 0 14.9342L3.46011 0.484487L6.55778 0.00360107L5.3338 5.12544C5.60572 5.00542 5.84754 4.91521 6.11957 4.85525C6.37639 4.78039 6.66353 4.75024 6.96578 4.75024ZM4.36674 13.252C4.83516 13.252 5.27337 13.1467 5.68137 12.9066C6.0948 12.6787 6.45928 12.3726 6.75417 12.0053C7.05642 11.6297 7.29812 11.194 7.46441 10.7283C7.63058 10.2476 7.72122 9.75218 7.72122 9.24148C7.72122 8.61054 7.61548 8.11509 7.40387 7.75445C7.19238 7.39393 6.75417 7.22874 6.18 7.22874C5.99861 7.22874 5.80222 7.24387 5.49997 7.31896C5.19772 7.37891 4.94091 7.52931 4.6992 7.73944L3.39969 13.1919C3.79257 13.252 3.91343 13.2669 4.01929 13.2669C4.09482 13.252 4.21568 13.252 4.36674 13.252Z" fill="currentColor"/>
</svg>
