<svg width="26" height="26" viewBox="0 0 26 26" fill="none" xmlns="http://www.w3.org/2000/svg">
<path fill-rule="evenodd" clip-rule="evenodd" d="M13.8005 3.99625C14.2226 3.99625 14.5992 4.26128 14.7419 4.65852L15.2501 6.07411C15.3308 6.29672 15.4874 6.48375 15.6923 6.60233L17.1999 7.47269C17.4046 7.59082 17.6446 7.63264 17.8772 7.59074L19.3578 7.32363C19.7736 7.24803 20.192 7.44183 20.4033 7.80783L21.2036 9.18841C21.4154 9.55342 21.3754 10.0121 21.1035 10.3349L20.1321 11.4834C19.9791 11.664 19.8951 11.8929 19.895 12.1296V13.8704C19.8951 14.107 19.9791 14.336 20.1321 14.5166L21.1035 15.6651C21.3754 15.9879 21.4154 16.4466 21.2036 16.8116L20.4033 18.1922C20.1922 18.5578 19.7743 18.7515 19.3588 18.6764L17.8782 18.4092C17.6456 18.3674 17.4056 18.4092 17.2009 18.5273L15.6933 19.3977C15.4884 19.5162 15.3318 19.7033 15.2511 19.9259L14.7429 21.3415C14.6001 21.7391 14.223 22.0041 13.8005 22.0037H12.1998C11.7777 22.0037 11.4011 21.7387 11.2584 21.3415L10.7502 19.9259C10.6696 19.7036 10.5134 19.5166 10.309 19.3977L8.80042 18.5273C8.59569 18.4092 8.35576 18.3674 8.12314 18.4092L6.64252 18.6764C6.22675 18.752 5.80832 18.5582 5.59709 18.1922L4.79675 16.8116C4.58495 16.4466 4.62498 15.9879 4.8968 15.6651L5.8682 14.5166C6.02119 14.336 6.1052 14.107 6.1053 13.8704V12.1296C6.1052 11.8929 6.02119 11.664 5.8682 11.4834L4.9068 10.3349C4.63498 10.0121 4.59496 9.55342 4.80676 9.18841L5.60709 7.80783C5.81819 7.44222 6.23609 7.24849 6.65153 7.32363L8.13214 7.59074C8.36476 7.63264 8.6047 7.59082 8.80942 7.47269L10.3181 6.60233C10.5225 6.48338 10.6786 6.29643 10.7592 6.07411L11.2674 4.65852C11.409 4.26436 11.7811 4.00008 12.1998 3.99625H13.8005Z" stroke="currentColor" stroke-width="1.5" stroke-linecap="round" stroke-linejoin="round"/>
<circle cx="13.0002" cy="13" r="2.75115" stroke="currentColor" stroke-width="1.5" stroke-linecap="round" stroke-linejoin="round"/>
</svg>
