<svg width="26" height="26" viewBox="0 0 26 26" fill="none" xmlns="http://www.w3.org/2000/svg">
<path d="M10.6848 10.6847C10.9218 9.66314 11.8523 8.95484 12.9001 8.99832C14.0727 8.93337 15.078 9.82697 15.151 10.9992C15.151 12.5037 13.0001 13 13.0001 14.0004" stroke="currentColor" stroke-width="1.5" stroke-linecap="round" stroke-linejoin="round"/>
<path d="M13.1253 16.7517C13.1252 16.8207 13.0692 16.8766 13.0002 16.8766C12.9311 16.8766 12.8752 16.8206 12.8752 16.7516C12.8751 16.6826 12.931 16.6266 13 16.6265C13.0333 16.6265 13.0651 16.6396 13.0886 16.6631C13.1121 16.6866 13.1253 16.7185 13.1253 16.7517" stroke="currentColor" stroke-width="1.5" stroke-linecap="round" stroke-linejoin="round"/>
<path fill-rule="evenodd" clip-rule="evenodd" d="M5.62861 18.1604C2.94551 14.3307 3.63502 9.08534 7.21672 6.07913C10.7984 3.07293 16.0839 3.30335 19.3903 6.60985C22.6968 9.91634 22.9273 15.2018 19.9211 18.7835C16.9149 22.3652 11.6695 23.0547 7.8398 20.3716L4.99688 21.0033L5.62861 18.1604Z" stroke="currentColor" stroke-width="1.5" stroke-linecap="round" stroke-linejoin="round"/>
</svg>
