<svg width="17" height="16" viewBox="0 0 17 16" fill="none" xmlns="http://www.w3.org/2000/svg">
<path d="M12.5152 8.01252L13.669 6.85871C14.4066 6.14309 14.7014 5.08556 14.4405 4.09153C14.1795 3.09751 13.4032 2.3212 12.4092 2.06022C11.4151 1.79924 10.3576 2.09408 9.64198 2.8317L7.17428 5.29939C6.64002 5.83328 6.33984 6.5576 6.33984 7.3129C6.33984 8.06819 6.64002 8.79252 7.17428 9.3264L7.16695 9.33374C7.3968 9.55921 7.66368 9.74353 7.95594 9.87863" stroke="white" stroke-linecap="round" stroke-linejoin="round"/>
<path d="M9.0379 6.12793C9.33019 6.26327 9.59706 6.44781 9.82689 6.67349C10.3612 7.20737 10.6613 7.9317 10.6613 8.687C10.6613 9.44229 10.3612 10.1666 9.82689 10.7005L7.3592 13.1682C6.2424 14.2517 4.46271 14.2382 3.36244 13.1379C2.26217 12.0377 2.2487 10.258 3.33219 9.14118L4.486 7.98737" stroke="white" stroke-linecap="round" stroke-linejoin="round"/>
</svg>
