<svg width="48" height="20" viewBox="0 0 48 20" fill="none" xmlns="http://www.w3.org/2000/svg">
<path d="M3.34776 7.80251C3.34776 7.28423 3.77118 7.08481 4.47261 7.08481C5.47818 7.08481 6.74845 7.39058 7.75412 7.93549V4.81208C6.65588 4.37352 5.57085 4.20073 4.47261 4.20073C1.78636 4.20073 0 5.60959 0 7.96213C0 11.6303 5.02824 11.0455 5.02824 12.6272C5.02824 13.2385 4.49903 13.4379 3.75797 13.4379C2.65973 13.4379 1.25706 12.986 0.145514 12.3746V15.5378C1.37615 16.0695 2.62 16.2953 3.75797 16.2953C6.51027 16.2953 8.40251 14.9265 8.40251 12.5474C8.3893 8.58675 3.34776 9.29109 3.34776 7.80251ZM12.2928 1.54261L9.06412 2.23368L9.05091 12.8796C9.05091 14.8468 10.5197 16.2953 12.4781 16.2953C13.5632 16.2953 14.3571 16.096 14.7937 15.8568V13.1587C14.3704 13.3315 12.2796 13.9429 12.2796 11.9758V7.2576H14.7937V4.42669H12.2796L12.2928 1.54261ZM18.909 5.41017L18.6973 4.42669H15.8391V16.0561H19.1472V8.17473C19.9278 7.15135 21.2511 7.33741 21.6613 7.48357V4.42669C21.2379 4.26717 19.6897 3.97476 18.909 5.41017ZM22.4685 4.42669H25.7898V16.0561H22.4685V4.42669ZM22.4685 3.41658L25.7898 2.69888V0.000854492L22.4685 0.705288V3.41649V3.41658ZM32.6971 4.20073C31.4003 4.20073 30.5666 4.81208 30.1036 5.23747L29.9315 4.41342H27.0204V19.9104L30.3285 19.2061L30.3418 15.4447C30.8181 15.7903 31.5194 16.2821 32.6838 16.2821C35.0525 16.2821 37.2093 14.3682 37.2093 10.155C37.1961 6.30066 35.0127 4.20073 32.6971 4.20073ZM31.9032 13.3581C31.1225 13.3581 30.6592 13.079 30.3418 12.7335L30.3285 7.80251C30.6725 7.41712 31.1489 7.15135 31.9032 7.15135C33.1073 7.15135 33.9409 8.50695 33.9409 10.248C33.9409 12.029 33.1205 13.3581 31.9032 13.3581ZM47.6364 10.2879C47.6364 6.88548 45.9955 4.20073 42.8595 4.20073C39.7101 4.20073 37.8047 6.88557 37.8047 10.2614C37.8047 14.2618 40.0543 16.2821 43.2828 16.2821C44.8575 16.2821 46.0485 15.9232 46.9482 15.4182V12.76C46.0485 13.2119 45.0164 13.4911 43.7064 13.4911C42.4228 13.4911 41.2848 13.0391 41.1393 11.4708H47.6099C47.6099 11.298 47.6364 10.6069 47.6364 10.2879ZM41.0996 9.02532C41.0996 7.52347 42.0127 6.89875 42.8463 6.89875C43.6534 6.89875 44.5136 7.52347 44.5136 9.02532H41.0996Z" fill="currentColor"/>
</svg>
