<svg width="24" height="24" viewBox="0 0 24 24" fill="none" xmlns="http://www.w3.org/2000/svg">
    <path d="M22.0041 17.0021V14.0008C22.0041 13.1712 20.3234 12.5002 18.2525 12.5002C16.1817 12.5002 14.502 13.1723 14.501 14.0008V20.0033C14.502 20.8319 16.1806 21.504 18.2525 21.504C20.3245 21.504 22.003 20.8319 22.0041 20.0033V14.0008" stroke="currentColor" stroke-width="1.5" stroke-linecap="round" stroke-linejoin="round"/>
    <path d="M7.62842 13.8668L11.2859 11.6369V6.98392" stroke="currentColor" stroke-width="1.5" stroke-linecap="round" stroke-linejoin="round"/>
    <path d="M19.7726 8.99874C18.7242 4.40632 14.3124 1.39892 9.65452 2.10157C4.99665 2.80421 1.66829 6.97924 2.02125 11.6766C2.37422 16.3739 6.28913 20.0046 10.9997 20.0033" stroke="currentColor" stroke-width="1.5" stroke-linecap="round" stroke-linejoin="round"/>
    <path d="M14.5024 14.0008C14.5024 14.8294 16.1821 15.5014 18.254 15.5014C20.3259 15.5014 22.0045 14.8294 22.0045 14.0008" stroke="currentColor" stroke-width="1.5" stroke-linecap="round" stroke-linejoin="round"/>
    <path d="M14.5024 17.0021C14.5024 17.8306 16.1821 18.5027 18.254 18.5027C20.3259 18.5027 22.0056 17.8306 22.0056 17.0021" stroke="currentColor" stroke-width="1.5" stroke-linecap="round" stroke-linejoin="round"/>
</svg>
