<svg width="26" height="26" viewBox="0 0 26 26" fill="none" xmlns="http://www.w3.org/2000/svg">
<path d="M20.0029 7.99792V19.9783C20.0029 21.0969 19.0961 22.0038 17.9775 22.0038H8.02249C6.90389 22.0038 5.99707 21.0969 5.99707 19.9783V7.99792" stroke="currentColor" stroke-width="1.5" stroke-linecap="round" stroke-linejoin="round"/>
<path d="M8.99854 11.9996H17.0019" stroke="currentColor" stroke-width="1.5" stroke-linecap="round" stroke-linejoin="round"/>
<path fill-rule="evenodd" clip-rule="evenodd" d="M6.99944 8.99833H19.0008C19.3799 8.99833 19.7264 8.78404 19.8958 8.44487C20.0652 8.10569 20.0283 7.69992 19.8005 7.39686L17.845 4.79498C17.4671 4.2921 16.8747 3.99625 16.2456 3.99625H9.75848C9.13007 3.99625 8.53818 4.29148 8.16015 4.79347L6.20028 7.39611C5.97212 7.69909 5.93492 8.10504 6.10421 8.44444C6.2735 8.78384 6.62015 8.99833 6.99944 8.99833Z" stroke="currentColor" stroke-width="1.5" stroke-linecap="round" stroke-linejoin="round"/>
<path d="M8.99854 15.0008H17.0019" stroke="currentColor" stroke-width="1.5" stroke-linecap="round" stroke-linejoin="round"/>
<path d="M8.99854 18.6023H11.9998" stroke="currentColor" stroke-width="1.5" stroke-linecap="round" stroke-linejoin="round"/>
<path d="M16.5517 18.5523C16.5517 18.5799 16.5293 18.6023 16.5017 18.6023C16.474 18.6023 16.4517 18.5799 16.4517 18.5523C16.4517 18.5247 16.474 18.5023 16.5017 18.5023" stroke="currentColor" stroke-width="1.5" stroke-linecap="round" stroke-linejoin="round"/>
<path d="M16.5016 18.5023C16.5292 18.5023 16.5516 18.5247 16.5516 18.5523" stroke="currentColor" stroke-width="1.5" stroke-linecap="round" stroke-linejoin="round"/>
</svg>
