<svg width="26" height="26" viewBox="0 0 26 26" fill="none" xmlns="http://www.w3.org/2000/svg">
<path d="M20.0029 7.99791V19.9783C20.0029 21.0969 19.0961 22.0037 17.9775 22.0037H8.02249C6.90389 22.0037 5.99707 21.0969 5.99707 19.9783V7.99791" stroke="currentColor" stroke-width="1.5" stroke-linecap="round" stroke-linejoin="round"/>
<path d="M8.99832 11.9996H17.0017" stroke="currentColor" stroke-width="1.5" stroke-linecap="round" stroke-linejoin="round"/>
<path fill-rule="evenodd" clip-rule="evenodd" d="M6.99932 8.99833H19.0007C19.3798 8.99833 19.7263 8.78404 19.8957 8.44487C20.0651 8.10569 20.0282 7.69992 19.8004 7.39686L17.8449 4.79498C17.467 4.2921 16.8745 3.99625 16.2455 3.99625H9.75836C9.12995 3.99625 8.53805 4.29148 8.16003 4.79347L6.20016 7.39611C5.972 7.69909 5.9348 8.10504 6.10409 8.44444C6.27337 8.78384 6.62003 8.99833 6.99932 8.99833Z" stroke="currentColor" stroke-width="1.5" stroke-linecap="round" stroke-linejoin="round"/>
<path d="M8.99832 15.0008H17.0017" stroke="currentColor" stroke-width="1.5" stroke-linecap="round" stroke-linejoin="round"/>
<path d="M8.99832 18.6023H11.9996" stroke="currentColor" stroke-width="1.5" stroke-linecap="round" stroke-linejoin="round"/>
<path d="M16.5515 18.5523C16.5515 18.5799 16.5291 18.6023 16.5015 18.6023C16.4738 18.6023 16.4514 18.5799 16.4514 18.5523C16.4514 18.5247 16.4738 18.5023 16.5015 18.5023" stroke="currentColor" stroke-width="1.5" stroke-linecap="round" stroke-linejoin="round"/>
<path d="M16.5014 18.5023C16.5291 18.5023 16.5515 18.5247 16.5515 18.5523" stroke="currentColor" stroke-width="1.5" stroke-linecap="round" stroke-linejoin="round"/>
</svg>
