<svg width="42" height="14" viewBox="0 0 42 14" fill="none" xmlns="http://www.w3.org/2000/svg">
<path d="M15.946 0.458542L10.4475 13.5765H6.86L4.1545 3.10629C3.99 2.46229 3.84825 2.22604 3.34775 1.95479C2.53225 1.51204 1.18475 1.09729 0 0.838292L0.0805 0.458542H5.8555C6.23288 0.458163 6.59797 0.592705 6.88486 0.83788C7.17176 1.08305 7.36156 1.42271 7.42 1.79554L8.84975 9.38704L12.3812 0.458542H15.946ZM30.0037 9.29429C30.0178 5.83104 25.2158 5.64029 25.249 4.09329C25.2595 3.62254 25.7075 3.12204 26.6875 2.99429C27.836 2.88522 28.9927 3.08837 30.0352 3.58229L30.6303 0.799791C29.6152 0.418195 28.5402 0.22085 27.4557 0.217041C24.101 0.217041 21.7402 2.00204 21.7192 4.55529C21.6982 6.44354 23.4045 7.49529 24.6908 8.12529C26.0138 8.76754 26.4583 9.18054 26.4513 9.75454C26.4425 10.6365 25.3978 11.0233 24.4212 11.039C22.715 11.0653 21.7262 10.5788 20.9353 10.2113L20.321 13.0848C21.1138 13.4488 22.5767 13.7673 24.094 13.7813C27.6587 13.7813 29.9915 12.0208 30.0037 9.29429ZM38.8605 13.5765H42L39.2612 0.458542H36.3633C36.0536 0.455672 35.7502 0.545899 35.4925 0.717521C35.2348 0.889144 35.0345 1.13424 34.9177 1.42104L29.827 13.5765H33.39L34.0988 11.6165H38.4528L38.8605 13.5765ZM35.0752 8.92854L36.8602 4.00229L37.8892 8.92854H35.0752ZM20.7952 0.458542L17.99 13.5765H14.595L17.4037 0.458542H20.7952Z" fill="white"/>
</svg>
