<svg width="33" height="20" viewBox="0 0 33 20" fill="none" xmlns="http://www.w3.org/2000/svg">
<path d="M12.0269 2.12622H20.9407V17.7553H12.0269V2.12622Z" fill="#FF5F00"/>
<path d="M12.5927 9.94075C12.5927 6.76528 14.1208 3.94868 16.4694 2.12616C14.7434 0.800755 12.5645 0 10.1875 0C4.55593 0 0 4.44566 0 9.94075C0 15.4357 4.55593 19.8815 10.1873 19.8815C12.5644 19.8815 14.7433 19.0808 16.4694 17.7552C14.1208 15.9604 12.5927 13.1162 12.5927 9.94075Z" fill="#EB001B"/>
<path d="M32.9675 9.94075C32.9675 15.4357 28.4116 19.8815 22.7802 19.8815C20.4031 19.8815 18.2242 19.0808 16.498 17.7552C18.8751 15.9328 20.3749 13.1162 20.3749 9.94075C20.3749 6.76528 18.8467 3.94868 16.498 2.12616C18.2241 0.800755 20.4031 0 22.7802 0C28.4116 0 32.9676 4.47333 32.9676 9.94075H32.9675Z" fill="#F79E1B"/>
</svg>
