<svg width="22" height="22" viewBox="0 0 22 22" fill="none" xmlns="http://www.w3.org/2000/svg">

<path d="M17.4197 6.41467V17.3967C17.4197 18.4221 16.5885 19.2534 15.5631 19.2534H6.43769C5.4123 19.2534 4.58105 18.4221 4.58105 17.3967V6.41467" stroke="currentColor" stroke-width="1.2" stroke-linecap="round" stroke-linejoin="round"/>
<path d="M7.33203 10.0829H14.6684" stroke="currentColor" stroke-width="1.2" stroke-linecap="round" stroke-linejoin="round"/>
<path fill-rule="evenodd" clip-rule="evenodd" d="M5.49957 7.3317H16.5008C16.8483 7.3317 17.166 7.13527 17.3212 6.82436C17.4765 6.51345 17.4427 6.1415 17.2339 5.86369L15.4414 3.47863C15.0949 3.01766 14.5518 2.74646 13.9752 2.74646H8.02869C7.45265 2.74646 6.91008 3.01709 6.56356 3.47725L4.767 5.863C4.55786 6.14074 4.52376 6.51285 4.67894 6.82397C4.83412 7.13509 5.15189 7.3317 5.49957 7.3317Z" stroke="currentColor" stroke-width="1.2" stroke-linecap="round" stroke-linejoin="round"/>
<path d="M7.33203 12.834H14.6684" stroke="currentColor" stroke-width="1.2" stroke-linecap="round" stroke-linejoin="round"/>
<path d="M7.33203 16.1354H10.0832" stroke="currentColor" stroke-width="1.2" stroke-linecap="round" stroke-linejoin="round"/>
<path d="M14.2558 16.0895C14.2558 16.1148 14.2353 16.1354 14.21 16.1354C14.1847 16.1354 14.1641 16.1148 14.1641 16.0895C14.1641 16.0642 14.1847 16.0437 14.21 16.0437" stroke="currentColor" stroke-width="1.2" stroke-linecap="round" stroke-linejoin="round"/>
<path d="M14.21 16.0438C14.2353 16.0438 14.2559 16.0643 14.2559 16.0896" stroke="currentColor" stroke-width="1.2" stroke-linecap="round" stroke-linejoin="round"/>

</svg>
