<svg width="22" height="22" viewBox="0 0 22 22" fill="none" xmlns="http://www.w3.org/2000/svg">

<path d="M2.74658 11.9169V5.49761C2.74658 3.97806 3.97818 2.74646 5.49773 2.74646H16.5023C18.0219 2.74646 19.2535 3.97806 19.2535 5.49761V16.5022C19.2535 18.0217 18.0219 19.2533 16.5023 19.2533H11" stroke="currentColor" stroke-width="1.2" stroke-linecap="round" stroke-linejoin="round"/>
<path fill-rule="evenodd" clip-rule="evenodd" d="M9.79574 10.3412L11.6124 12.1579L14.2095 9.62131C14.2434 9.5883 14.3003 9.5993 14.3205 9.64149C14.9926 11.0785 14.6781 12.8484 13.4905 14.0351C12.3405 15.185 10.7054 15.4877 9.31245 14.9429L5.48744 18.768C4.86018 19.3943 3.84317 19.3943 3.21683 18.768C2.59048 18.1407 2.59048 17.1237 3.21683 16.4973L7.01158 12.7026C6.46593 11.3105 6.76947 9.67542 7.91945 8.52452C9.10428 7.33969 10.8705 7.082 12.3084 7.69734C12.3516 7.7166 12.3626 7.77529 12.3295 7.80922L9.79574 10.3412Z" stroke="currentColor" stroke-width="1.2" stroke-linecap="round" stroke-linejoin="round"/>

</svg>
