<svg width="702" height="574" viewBox="0 0 702 574" fill="none" xmlns="http://www.w3.org/2000/svg">
<path d="M59.7175 77L29.7175 89.5V137.229V217.5C29.7175 217.5 15.6814 266.009 29.7175 278.5C43.7536 290.991 -46.5309 571.497 36.7175 567.5C119.966 563.503 195.218 567.5 294.218 567.5C393.218 567.5 498.164 594.912 577.056 525.96C655.949 457.007 635.621 454.105 666.113 392.052C696.605 330 709.189 321.101 696.605 264.641C684.021 208.18 668.049 187.694 627.876 137.229C587.704 86.7636 547.048 80.7676 494.292 43.2937C441.536 5.81975 360.707 -0.675955 300.207 1.32266C239.707 3.32128 59.7175 77 59.7175 77Z" fill="#22FFCA" fill-opacity="0.3" stroke="#22FFCA" stroke-opacity="0.3"/>
</svg>
