<?xml version="1.0" standalone="no"?>
<!DOCTYPE svg PUBLIC "-//W3C//DTD SVG 1.1//EN" "http://www.w3.org/Graphics/SVG/1.1/DTD/svg11.dtd" >
<svg xmlns="http://www.w3.org/2000/svg" xmlns:xlink="http://www.w3.org/1999/xlink" version="1.1">
<metadata>
Created by FontForge 20170731 at Thu Mar 26 16:23:31 2020
 By Aleksey,,,
Copyright (c) 2020 by TypeType. Designers Yulia Gonina, Ksenia Ushakova, Antonina Zhulkova. Technical designers Ivan Gladkikh, Marina Khodak, Yuri Nako, Viktor Rubenko. All rights reserved.
</metadata>
<defs>
<font id="TTOctosquares-Regular" horiz-adv-x="0" >
  <font-face 
    font-family="TTOctosquares-Regular"
    font-weight="400"
    font-stretch="normal"
    units-per-em="1000"
    panose-1="2 1 0 1 4 0 0 8 3 7"
    ascent="800"
    descent="-200"
    x-height="500"
    cap-height="700"
    bbox="-395 -245 1615 940"
    underline-thickness="50"
    underline-position="-250"
    unicode-range="U+000D-FB04"
  />
<missing-glyph horiz-adv-x="900" 
d="M100 0v284h45v-139h33v139h50v31h-128v126l19 -61h23l34 106l33 -106h23l54 170h-32l-34 -110l-35 110h-19l-35 -110l-31 103v157h700v-150h-110v-170h110v-91q-13 27 -50 27q-27 0 -43.5 -14.5t-16.5 -34.5t14 -32t30 -15t30 -9.5t14 -16.5q0 -21 -28 -21t-28 25h-33
q0 -24 17 -39.5t44 -15.5q33 0 50 20v-163h-700zM311 380h33v62h24l35 -62h37l-40 67q36 17 36 50q0 22 -16 37.5t-41 15.5h-68v-170zM469 380h33v170h-33v-170zM580 380h32v139h50v31h-132v-31h50v-139zM344 473v46h35q10 0 17 -6.5t7 -16.5q0 -23 -24 -23h-35zM722 483v36
h78v-36h-78zM722 411v41h78v-41h-78zM328 143q37 0 59.5 24.5t22.5 61.5t-23 62t-59 25t-59 -25t-23 -62t22.5 -61.5t59.5 -24.5zM585 143q29 0 48 19t19 47v106h-32v-106q0 -15 -9.5 -25t-25.5 -10q-17 0 -26.5 10.5t-9.5 24.5v106h-32v-106q0 -28 19.5 -47t48.5 -19z
M800 224q-9 9 -23.5 15t-25.5 8.5t-19 7.5t-8 12q0 9 7.5 14.5t18.5 5.5q10 0 18 -7t8 -18h24v-38zM328 174q-22 0 -36.5 16t-14.5 39q0 25 13.5 40.5t37.5 15.5t37.5 -15.5t13.5 -40.5q0 -23 -14.5 -39t-36.5 -16z" />
    <glyph glyph-name="f_f" unicode="ff" horiz-adv-x="720" 
d="M115 0v415h-100v85h100v135l65 65h207v-85h-167l-15 -15v-100h250v135l65 65h210v-85h-170l-15 -15v-100h180v-85h-180v-415h-90v415h-250v-415h-90z" />
    <glyph glyph-name="fi" unicode="fi" horiz-adv-x="600" 
d="M115 0v415h-100v85h100v135l65 65h265v-85h-225l-15 -15v-100h320v-500h-90v415h-230v-415h-90z" />
    <glyph glyph-name="fl" unicode="fl" horiz-adv-x="635" 
d="M115 0v415h-100v85h100v135l65 65h375v-700h-90v615h-245l-15 -15v-100h180v-85h-180v-415h-90z" />
    <glyph glyph-name="f_f_i" unicode="ffi" horiz-adv-x="940" 
d="M115 0v415h-100v85h100v135l65 65h210v-85h-170l-15 -15v-100h250v135l65 65h265v-85h-225l-15 -15v-100h320v-500h-90v415h-230v-415h-90v415h-250v-415h-90z" />
    <glyph glyph-name="f_f_l" unicode="ffl" horiz-adv-x="975" 
d="M115 0v415h-100v85h100v135l65 65h210v-85h-170l-15 -15v-100h250v135l65 65h375v-700h-90v615h-245l-15 -15v-100h180v-85h-180v-415h-90v415h-250v-415h-90z" />
    <glyph glyph-name="f_j" unicode="fj" horiz-adv-x="600" 
d="M195 -200v85h225l15 15v515h-230v-415h-90v415h-100v85h100v135l65 65h265v-85h-225l-15 -15v-100h320v-635l-65 -65h-265z" />
    <glyph glyph-name="f_t" unicode="ft" horiz-adv-x="775" 
d="M115 0v415h-100v85h100v135l65 65h208v-85h-168l-15 -15v-100h270v130h90v-130h180v-85h-180v-315l15 -15h170v-85h-210l-65 65v350h-270v-415h-90z" />
    <glyph glyph-name="f_f_j" unicode="ffj" horiz-adv-x="940" 
d="M535 -200v85h225l15 15v515h-230v-415h-90v415h-250v-415h-90v415h-100v85h100v135l65 65h210v-85h-170l-15 -15v-100h250v135l65 65h265v-85h-225l-15 -15v-100h320v-635l-65 -65h-265z" />
    <glyph glyph-name="r_t" unicode="rt" horiz-adv-x="765" 
d="M75 0v500h70v-40h18l48 40h254v130h90v-130h180v-82h-180v-318l15 -15h170v-85h-210l-65 65v353h-225l-75 -62v-356h-90z" />
    <glyph glyph-name=".notdef" horiz-adv-x="900" 
d="M100 0v284h45v-139h33v139h50v31h-128v126l19 -61h23l34 106l33 -106h23l54 170h-32l-34 -110l-35 110h-19l-35 -110l-31 103v157h700v-150h-110v-170h110v-91q-13 27 -50 27q-27 0 -43.5 -14.5t-16.5 -34.5t14 -32t30 -15t30 -9.5t14 -16.5q0 -21 -28 -21t-28 25h-33
q0 -24 17 -39.5t44 -15.5q33 0 50 20v-163h-700zM311 380h33v62h24l35 -62h37l-40 67q36 17 36 50q0 22 -16 37.5t-41 15.5h-68v-170zM469 380h33v170h-33v-170zM580 380h32v139h50v31h-132v-31h50v-139zM344 473v46h35q10 0 17 -6.5t7 -16.5q0 -23 -24 -23h-35zM722 483v36
h78v-36h-78zM722 411v41h78v-41h-78zM328 143q37 0 59.5 24.5t22.5 61.5t-23 62t-59 25t-59 -25t-23 -62t22.5 -61.5t59.5 -24.5zM585 143q29 0 48 19t19 47v106h-32v-106q0 -15 -9.5 -25t-25.5 -10q-17 0 -26.5 10.5t-9.5 24.5v106h-32v-106q0 -28 19.5 -47t48.5 -19z
M800 224q-9 9 -23.5 15t-25.5 8.5t-19 7.5t-8 12q0 9 7.5 14.5t18.5 5.5q10 0 18 -7t8 -18h24v-38zM328 174q-22 0 -36.5 16t-14.5 39q0 25 13.5 40.5t37.5 15.5t37.5 -15.5t13.5 -40.5q0 -23 -14.5 -39t-36.5 -16z" />
    <glyph glyph-name=".null" 
 />
    <glyph glyph-name=".null" 
 />
    <glyph glyph-name="nonmarkingreturn" horiz-adv-x="333" 
 />
    <glyph glyph-name="CR" unicode="&#xd;" horiz-adv-x="340" 
 />
    <glyph glyph-name="space" unicode=" " horiz-adv-x="340" 
 />
    <glyph glyph-name="exclam" unicode="!" horiz-adv-x="335" 
d="M135 200l-15 160v340h95v-340l-15 -160h-65zM110 0v115h115v-115h-115z" />
    <glyph glyph-name="quotedbl" unicode="&#x22;" horiz-adv-x="360" 
d="M75 425l-20 140v135h85v-135l-20 -140h-45zM240 425l-20 140v135h85v-135l-20 -140h-45z" />
    <glyph glyph-name="numbersign" unicode="#" horiz-adv-x="855" 
d="M805 430h-169l-42 -160h161v-80h-181l-49 -190h-85v20l44 170h-195l-49 -190h-85v20l44 170h-149v80h169l42 160h-161v80h181l49 190h85v-20l-44 -170h195l49 190h85v-20l-44 -170h149v-80zM504 270l42 160h-195l-42 -160h195z" />
    <glyph glyph-name="dollar" unicode="$" horiz-adv-x="710" 
d="M320 -100v100h-245v85h430l60 60v110l-60 60h-330l-110 110v165l110 110h145v100h80v-100h225v-85h-405l-60 -60v-95l60 -60h330l110 -110v-180l-110 -110h-150v-100h-80z" />
    <glyph glyph-name="percent" unicode="%" horiz-adv-x="960" 
d="M145 370l-75 75v180l75 75h170l75 -75v-180l-75 -75h-170zM230 0v30l434 670h66v-30l-434 -670h-66zM180 440h100l35 35v120l-35 35h-100l-35 -35v-120zM645 0l-75 75v180l75 75h170l75 -75v-180l-75 -75h-170zM680 70h100l35 35v120l-35 35h-100l-35 -35v-120z" />
    <glyph glyph-name="ampersand" unicode="&#x26;" horiz-adv-x="815" 
d="M185 0l-120 120v155l98 98l-78 77v140l110 110h355v-85h-310l-60 -60v-80l70 -70h215v-85h-235l-70 -70v-95l70 -70h275l70 70v400h90v-150h130v-85h-130v-200l-120 -120h-360z" />
    <glyph glyph-name="quotesingle" unicode="'" horiz-adv-x="195" 
d="M75 425l-20 140v135h85v-135l-20 -140h-45z" />
    <glyph glyph-name="parenleft" unicode="(" horiz-adv-x="385" 
d="M205 -200l-105 105v750l105 105h120v-85h-75l-55 -55v-680l55 -55h75v-85h-120z" />
    <glyph glyph-name="parenright" unicode=")" horiz-adv-x="385" 
d="M60 -200v85h75l55 55v680l-55 55h-75v85h120l105 -105v-750l-105 -105h-120z" />
    <glyph glyph-name="asterisk" unicode="*" horiz-adv-x="495" 
d="M210 340v125l-105 -65l-35 65l110 60l-110 60l35 65l105 -65v125h75v-125l105 65l35 -65l-110 -60l110 -60l-35 -65l-105 65v-125h-75z" />
    <glyph glyph-name="plus" unicode="+" horiz-adv-x="580" 
d="M250 100v210h-210v80h210v210h80v-210h210v-80h-210v-210h-80z" />
    <glyph glyph-name="comma" unicode="," horiz-adv-x="290" 
d="M95 -160l32 150h-42v125h120v-105l-55 -170h-55z" />
    <glyph glyph-name="hyphen" unicode="-" horiz-adv-x="440" 
d="M70 230v90h300v-90h-300z" />
    <glyph glyph-name="period" unicode="." horiz-adv-x="285" 
d="M85 0v115h115v-115h-115z" />
    <glyph glyph-name="slash" unicode="/" horiz-adv-x="421" 
d="M10 -200v20l313 910h88v-20l-313 -910h-88z" />
    <glyph glyph-name="zero" unicode="0" horiz-adv-x="785" 
d="M220 0l-140 140v420l140 140h345l140 -140v-420l-140 -140h-345zM265 85h255l90 90v350l-90 90h-255l-90 -90v-350z" />
    <glyph glyph-name="one" unicode="1" horiz-adv-x="545" 
d="M40 0v85h205v530h-185v85h280v-615h185v-85h-485z" />
    <glyph glyph-name="two" unicode="2" horiz-adv-x="705" 
d="M60 0v250l130 130h300l60 60v115l-60 60h-405v85h450l110 -110v-185l-110 -110h-300l-80 -80v-125h485v-90h-580z" />
    <glyph glyph-name="three" unicode="3" horiz-adv-x="690" 
d="M45 0v85h420l70 70v95l-70 70h-275v85h255l70 70v80l-60 60h-400v85h445l110 -110v-140l-75 -75l95 -95v-160l-120 -120h-465z" />
    <glyph glyph-name="four" unicode="4" horiz-adv-x="730" 
d="M505 0v145h-460v122l411 433h144v-470h95v-85h-95v-145h-95zM145 230h360v380h-18l-342 -361v-19z" />
    <glyph glyph-name="five" unicode="5" horiz-adv-x="730" 
d="M75 0v85h420l70 70v125l-70 70h-395v350h530v-85h-435v-180h345l120 -120v-195l-120 -120h-465z" />
    <glyph glyph-name="six" unicode="6" horiz-adv-x="760" 
d="M200 0l-120 120v435l145 145h415v-85h-370l-95 -95v-85h395l120 -120v-195l-120 -120h-370zM245 85h280l70 70v125l-70 70h-350v-195z" />
    <glyph glyph-name="seven" unicode="7" horiz-adv-x="650" 
d="M205 0v240l310 280v90h-490v90h585v-215l-310 -280v-205h-95z" />
    <glyph glyph-name="eight" unicode="8" horiz-adv-x="750" 
d="M185 0l-120 120v160l95 95l-75 75v140l110 110h360l110 -110v-140l-75 -75l95 -95v-160l-120 -120h-380zM250 405h250l70 70v80l-60 60h-270l-60 -60v-80zM230 85h290l70 70v95l-70 70h-290l-70 -70v-95z" />
    <glyph glyph-name="nine" unicode="9" horiz-adv-x="760" 
d="M120 0v85h370l95 95v85h-395l-120 120v195l120 120h370l120 -120v-435l-145 -145h-415zM235 350h350v195l-70 70h-280l-70 -70v-125z" />
    <glyph glyph-name="colon" unicode=":" horiz-adv-x="285" 
d="M85 385v115h115v-115h-115zM85 0v115h115v-115h-115z" />
    <glyph glyph-name="semicolon" unicode=";" horiz-adv-x="287" 
d="M87 385v115h115v-115h-115zM95 -160l32 150h-42v125h120v-105l-55 -170h-55z" />
    <glyph glyph-name="less" unicode="&#x3c;" horiz-adv-x="448" 
d="M330 45l-290 290l290 290l58 -58l-233 -232l233 -232z" />
    <glyph glyph-name="equal" unicode="=" horiz-adv-x="580" 
d="M55 405v80h470v-80h-470zM55 215v80h470v-80h-470z" />
    <glyph glyph-name="greater" unicode="&#x3e;" horiz-adv-x="448" 
d="M118 45l-58 58l233 232l-233 232l58 58l290 -290z" />
    <glyph glyph-name="question" unicode="?" horiz-adv-x="670" 
d="M217 200v115l60 60h148l70 70v100l-70 70h-355v85h400l120 -120v-170l-120 -120h-139l-14 -14v-76h-100zM210 0v115h115v-115h-115z" />
    <glyph glyph-name="at" unicode="@" horiz-adv-x="985" 
d="M240 -145l-160 160v480l160 160h515l160 -160v-335l-100 -100h-140l-55 55l-55 -55h-165l-95 95v200l95 95h265v-265l45 -45h60l50 50v270l-110 110h-425l-110 -110v-410l110 -110h535v-85h-580zM445 140h85l45 45v185h-130l-50 -50v-130z" />
    <glyph glyph-name="A" unicode="A" horiz-adv-x="770" 
d="M455 700l290 -665v-35h-90l-81 190h-381l-81 -190h-87v35l285 665h145zM229 275h308l-145 340h-18z" />
    <glyph glyph-name="B" unicode="B" horiz-adv-x="800" 
d="M100 0v700h490l110 -110v-145l-65 -65l100 -100v-160l-120 -120h-515zM195 405h345l65 65v85l-60 60h-350v-210zM195 85h375l70 70v95l-70 70h-375v-235z" />
    <glyph glyph-name="C" unicode="C" horiz-adv-x="710" 
d="M220 0l-140 140v420l140 140h440v-85h-395l-90 -90v-350l90 -90h395v-85h-440z" />
    <glyph glyph-name="D" unicode="D" horiz-adv-x="815" 
d="M100 0v700h495l140 -140v-420l-140 -140h-495zM195 85h355l90 90v350l-90 90h-355v-530z" />
    <glyph glyph-name="E" unicode="E" horiz-adv-x="730" 
d="M100 0v700h580v-85h-485v-220h375v-85h-375v-225h495v-85h-590z" />
    <glyph glyph-name="F" unicode="F" horiz-adv-x="680" 
d="M100 0v700h560v-85h-465v-245h365v-85h-365v-285h-95z" />
    <glyph glyph-name="G" unicode="G" horiz-adv-x="815" 
d="M220 0l-140 140v420l140 140h475v-85h-430l-90 -90v-350l90 -90h300l90 90v140h-265v85h360v-260l-140 -140h-390z" />
    <glyph glyph-name="H" unicode="H" horiz-adv-x="825" 
d="M100 0v700h95v-305h435v305h95v-700h-95v310h-435v-310h-95z" />
    <glyph glyph-name="I" unicode="I" horiz-adv-x="495" 
d="M60 0v80h140v540h-140v80h375v-80h-140v-540h140v-80h-375z" />
    <glyph glyph-name="J" unicode="J" horiz-adv-x="555" 
d="M30 0v85h265l75 75v455h-295v85h390v-575l-125 -125h-310z" />
    <glyph glyph-name="K" unicode="K" horiz-adv-x="735" 
d="M100 0v700h95v-305h182l220 305h88v-35l-225 -310l245 -320v-35h-92l-236 310h-182v-310h-95z" />
    <glyph glyph-name="L" unicode="L" horiz-adv-x="630" 
d="M100 0v700h95v-615h415v-85h-510z" />
    <glyph glyph-name="M" unicode="M" horiz-adv-x="985" 
d="M100 0v700h170l213 -470h19l213 470h170v-700h-95v610h-17l-213 -470h-135l-213 470h-17v-610h-95z" />
    <glyph glyph-name="N" unicode="N" horiz-adv-x="825" 
d="M100 0v700h170l345 -610h18v610h92v-700h-170l-345 610h-18v-610h-92z" />
    <glyph glyph-name="O" unicode="O" horiz-adv-x="830" 
d="M220 0l-140 140v420l140 140h390l140 -140v-420l-140 -140h-390zM265 85h300l90 90v350l-90 90h-300l-90 -90v-350z" />
    <glyph glyph-name="P" unicode="P" horiz-adv-x="755" 
d="M100 0v700h470l130 -130v-215l-130 -130h-375v-225h-95zM195 310h330l80 80v145l-80 80h-330v-305z" />
    <glyph glyph-name="Q" unicode="Q" horiz-adv-x="830" 
d="M610 700l140 -140v-420l-140 -140h-150v-145h-90v145h-150l-140 140v420l140 140h390zM655 175v350l-90 90h-300l-90 -90v-350l90 -90h105v140h90v-140h105z" />
    <glyph glyph-name="R" unicode="R" horiz-adv-x="788" 
d="M100 0v700h475l130 -130v-190l-130 -130l153 -215v-35h-92l-176 250h-265v-250h-95zM195 335h335l80 80v120l-80 80h-335v-280z" />
    <glyph glyph-name="S" unicode="S" horiz-adv-x="720" 
d="M75 0v85h440l60 60v110l-60 60h-340l-110 110v165l110 110h460v-85h-415l-60 -60v-95l60 -60h340l110 -110v-180l-110 -110h-485z" />
    <glyph glyph-name="T" unicode="T" horiz-adv-x="665" 
d="M285 0v615h-275v85h645v-85h-275v-615h-95z" />
    <glyph glyph-name="U" unicode="U" horiz-adv-x="785" 
d="M230 0l-140 140v560h95v-525l90 -90h235l90 90v525h95v-560l-140 -140h-325z" />
    <glyph glyph-name="V" unicode="V" horiz-adv-x="745" 
d="M294 0l-269 665v35h91l245 -610h26l247 610h86v-35l-271 -665h-155z" />
    <glyph glyph-name="W" unicode="W" horiz-adv-x="1043" 
d="M247 0l-217 665v35h89l196 -610h20l143 437l-43 138v35h89l188 -610h19l196 610h86v-35l-214 -665h-157l-116 369h-8l-123 -369h-148z" />
    <glyph glyph-name="X" unicode="X" horiz-adv-x="714" 
d="M35 0v35l253 328l-233 302v35h93l203 -268h17l203 268h88v-35l-233 -302l253 -328v-35h-93l-222 293h-19l-222 -293h-88z" />
    <glyph glyph-name="Y" unicode="Y" horiz-adv-x="710" 
d="M308 0v245l-288 420v35h91l236 -345h22l235 345h86v-35l-287 -420v-245h-95z" />
    <glyph glyph-name="Z" unicode="Z" horiz-adv-x="685" 
d="M45 0v135l485 450v25h-470v90h580v-135l-485 -450v-25h485v-90h-595z" />
    <glyph glyph-name="bracketleft" unicode="[" horiz-adv-x="390" 
d="M100 -200v960h230v-85h-135v-790h135v-85h-230z" />
    <glyph glyph-name="backslash" unicode="\" horiz-adv-x="421" 
d="M323 -200l-313 910v20h88l313 -910v-20h-88z" />
    <glyph glyph-name="bracketright" unicode="]" horiz-adv-x="390" 
d="M60 -200v85h135v790h-135v85h230v-960h-230z" />
    <glyph glyph-name="asciicircum" unicode="^" horiz-adv-x="545" 
d="M117 475l-57 57l167 168h90l168 -168l-57 -57l-148 150h-15z" />
    <glyph glyph-name="underscore" unicode="_" horiz-adv-x="460" 
d="M-20 -200v80h500v-80h-500z" />
    <glyph glyph-name="grave" unicode="`" horiz-adv-x="215" 
d="M119 560l-89 165v10h99l56 -165v-10h-66z" />
    <glyph glyph-name="a" unicode="a" horiz-adv-x="595" 
d="M135 0l-85 85v135l95 95h290v50l-50 50h-270v85h310l100 -100v-400h-70v50h-18l-62 -50h-240zM175 85h175l85 69v76h-250l-45 -45v-65z" />
    <glyph glyph-name="b" unicode="b" horiz-adv-x="630" 
d="M80 0v700h90v-235h18l42 35h220l115 -115v-270l-115 -115h-370zM170 85h240l65 65v200l-65 65h-155l-85 -70v-260z" />
    <glyph glyph-name="c" unicode="c" horiz-adv-x="550" 
d="M180 0l-115 115v270l115 115h320v-85h-280l-65 -65v-200l65 -65h280v-85h-320z" />
    <glyph glyph-name="d" unicode="d" horiz-adv-x="630" 
d="M180 0l-115 115v270l115 115h280v200h90v-700h-70v50h-20l-60 -50h-220zM220 85h155l85 70v260h-240l-65 -65v-200z" />
    <glyph glyph-name="e" unicode="e" horiz-adv-x="615" 
d="M180 0l-115 115v270l115 115h265l115 -115v-185h-405v-50l65 -65h305v-85h-345zM155 285h315v65l-65 65h-185l-65 -65v-65z" />
    <glyph glyph-name="f" unicode="f" horiz-adv-x="380" 
d="M115 0v415h-100v85h100v135l65 65h210v-85h-170l-15 -15v-100h180v-85h-180v-415h-90z" />
    <glyph glyph-name="g" unicode="g" horiz-adv-x="625" 
d="M100 -200v85h325l35 35v115h-18l-42 -35h-220l-115 115v270l115 115h370v-615l-85 -85h-365zM220 85h155l85 70v260h-240l-65 -65v-200z" />
    <glyph glyph-name="h" unicode="h" horiz-adv-x="625" 
d="M80 0v700h90v-232h17l39 32h224l105 -105v-395h-90v360l-55 55h-159l-81 -67v-348h-90z" />
    <glyph glyph-name="i" unicode="i" horiz-adv-x="240" 
d="M70 600v100h100v-100h-100zM75 0v500h90v-500h-90z" />
    <glyph glyph-name="j" unicode="j" horiz-adv-x="240" 
d="M70 600v100h100v-100h-100zM-80 -200v85h140l15 15v600h90v-635l-65 -65h-180z" />
    <glyph glyph-name="k" unicode="k" horiz-adv-x="574" 
d="M80 0v700h90v-400h132l142 200h85v-30l-149 -210l169 -230v-30h-90l-157 215h-132v-215h-90z" />
    <glyph glyph-name="l" unicode="l" horiz-adv-x="265" 
d="M95 0v615h-100v85h190v-700h-90z" />
    <glyph glyph-name="m" unicode="m" horiz-adv-x="905" 
d="M75 0v500h70v-40h18l48 40h184l59 -59h21l71 59h184l105 -105v-395h-90v360l-55 55h-119l-71 -58v-357h-90v360l-55 55h-119l-71 -58v-357h-90z" />
    <glyph glyph-name="n" unicode="n" horiz-adv-x="620" 
d="M75 0v500h70v-40h18l48 40h234l105 -105v-395h-90v360l-55 55h-169l-71 -59v-356h-90z" />
    <glyph glyph-name="o" unicode="o" horiz-adv-x="635" 
d="M180 0l-115 115v270l115 115h275l115 -115v-270l-115 -115h-275zM220 85h195l65 65v200l-65 65h-195l-65 -65v-200z" />
    <glyph glyph-name="p" unicode="p" horiz-adv-x="625" 
d="M75 -200v700h70v-50h20l60 50h220l115 -115v-270l-115 -115h-280v-200h-90zM165 85h240l65 65v200l-65 65h-155l-85 -70v-260z" />
    <glyph glyph-name="q" unicode="q" horiz-adv-x="625" 
d="M460 -200v235h-18l-42 -35h-220l-115 115v270l115 115h370v-700h-90zM220 85h155l85 70v260h-240l-65 -65v-200z" />
    <glyph glyph-name="r" unicode="r" horiz-adv-x="405" 
d="M75 0v500h70v-40h18l48 40h199v-85h-174l-71 -59v-356h-90z" />
    <glyph glyph-name="s" unicode="s" horiz-adv-x="565" 
d="M65 0v85h325l35 35v55l-35 35h-245l-85 85v120l85 85h345v-85h-305l-35 -35v-50l35 -35h245l85 -85v-125l-85 -85h-365z" />
    <glyph glyph-name="t" unicode="t" horiz-adv-x="415" 
d="M180 0l-65 65v350h-100v85h100v130h90v-130h180v-85h-180v-315l15 -15h170v-85h-210z" />
    <glyph glyph-name="u" unicode="u" horiz-adv-x="605" 
d="M175 0l-105 105v395h90v-360l55 -55h154l71 59v356h90v-500h-70v40h-18l-48 -40h-219z" />
    <glyph glyph-name="v" unicode="v" horiz-adv-x="543" 
d="M203 0l-188 470v30h86l164 -415h17l164 415h82v-30l-187 -470h-138z" />
    <glyph glyph-name="w" unicode="w" horiz-adv-x="782" 
d="M177 0l-157 470v30h86l134 -415h15l100 292l-27 93v30h81l120 -415h16l134 415h83v-30l-157 -470h-138l-69 235h-12l-80 -235h-129z" />
    <glyph glyph-name="x" unicode="x" horiz-adv-x="551" 
d="M30 0v30l180 223l-171 217v30h90l139 -181h16l142 181h84v-30l-170 -211l181 -229v-30h-90l-150 195h-14l-153 -195h-84z" />
    <glyph glyph-name="y" unicode="y" horiz-adv-x="605" 
d="M95 -200v85h310l35 35v105h-16l-30 -25h-219l-105 105v395h90v-360l55 -55h154l71 59v356h90v-615l-85 -85h-350z" />
    <glyph glyph-name="z" unicode="z" horiz-adv-x="525" 
d="M45 0v125l335 274v16h-325v85h425v-125l-335 -274v-16h345v-85h-445z" />
    <glyph glyph-name="braceleft" unicode="{" horiz-adv-x="415" 
d="M240 -200l-105 105v333h-80v84h80v333l105 105h115v-85h-70l-55 -55v-680l55 -55h70v-85h-115z" />
    <glyph glyph-name="bar" unicode="|" horiz-adv-x="330" 
d="M120 -200v960h90v-960h-90z" />
    <glyph glyph-name="braceright" unicode="}" horiz-adv-x="415" 
d="M60 -200v85h70l55 55v680l-55 55h-70v85h115l105 -105v-333h80v-84h-80v-333l-105 -105h-115z" />
    <glyph glyph-name="asciitilde" unicode="~" horiz-adv-x="580" 
d="M63 280v75l65 65h145l70 -70h75l25 25v45h75v-75l-65 -65h-140l-70 70h-80l-25 -25v-45h-75z" />
    <glyph glyph-name="uni00A0" unicode="&#xa0;" horiz-adv-x="340" 
 />
    <glyph glyph-name="exclamdown" unicode="&#xa1;" horiz-adv-x="335" 
d="M110 385v115h115v-115h-115zM120 -200v340l15 160h65l15 -160v-340h-95z" />
    <glyph glyph-name="cent" unicode="&#xa2;" horiz-adv-x="580" 
d="M290 -90v90h-110l-115 115v270l115 115h110v90h85v-90h155v-85h-155v-330h155v-85h-155v-90h-85zM220 85h70v330h-70l-65 -65v-200z" />
    <glyph glyph-name="sterling" unicode="&#xa3;" horiz-adv-x="665" 
d="M40 0v85h135v232h-95v80h95v188l115 115h305v-85h-265l-60 -60v-158h265v-80h-265v-232h365v-85h-595z" />
    <glyph glyph-name="currency" unicode="&#xa4;" horiz-adv-x="606" 
d="M133 107l-53 53l68 68l-17 17v170l16 16l-67 67l53 53l67 -67l16 16h170l18 -18l69 69l53 -53l-69 -69l14 -14v-170l-15 -15l70 -70l-53 -53l-70 70l-17 -17h-170l-15 15zM251 235h100l40 40v110l-40 40h-100l-40 -40v-110z" />
    <glyph glyph-name="yen" unicode="&#xa5;" horiz-adv-x="710" 
d="M690 700v-35l-232 -340h170v-80h-225v-75h225v-80h-225v-90h-95v90h-225v80h225v75h-225v80h170l-233 340v35h91l236 -345h22l235 345h86z" />
    <glyph glyph-name="brokenbar" unicode="&#xa6;" horiz-adv-x="330" 
d="M120 360v400h90v-400h-90zM120 -200v400h90v-400h-90z" />
    <glyph glyph-name="section" unicode="&#xa7;" horiz-adv-x="625" 
d="M110 -200v85h285l50 50v45l-75 75h-190l-110 110v170l85 85l-70 70v115l95 95h320v-85h-275l-45 -45v-50l75 -75h190l110 -110v-170l-85 -85l70 -70v-110l-100 -100h-330zM225 140h175l60 60v100l-60 60h-175l-60 -60v-100z" />
    <glyph glyph-name="dieresis" unicode="&#xa8;" horiz-adv-x="355" 
d="M30 600v100h100v-100h-100zM225 600v100h100v-100h-100z" />
    <glyph glyph-name="copyright" unicode="&#xa9;" horiz-adv-x="1050" 
d="M270 -40l-160 160v450l160 160h510l160 -160v-450l-160 -160h-510zM315 40h420l115 115v380l-115 115h-420l-115 -115v-380zM435 150l-95 95v200l95 95h255v-80h-215l-50 -50v-130l50 -50h215v-80h-255z" />
    <glyph glyph-name="ordfeminine" unicode="&#xaa;" horiz-adv-x="455" 
d="M115 330l-70 70v95l70 70h215v35l-35 35h-215v65h250l70 -70v-300h-55v40h-10l-40 -40h-180zM150 395h135l45 45v60h-180l-35 -35v-35z" />
    <glyph glyph-name="guillemotleft" unicode="&#xab;" horiz-adv-x="609" 
d="M259 -10l-219 260l219 260l65 -50l-177 -210l177 -210zM494 -10l-219 260l219 260l65 -50l-177 -210l177 -210z" />
    <glyph glyph-name="logicalnot" unicode="&#xac;" horiz-adv-x="580" 
d="M445 245v90h-390v80h470v-170h-80z" />
    <glyph glyph-name="uni00AD" unicode="&#xad;" horiz-adv-x="440" 
d="M70 230v90h300v-90h-300z" />
    <glyph glyph-name="registered" unicode="&#xae;" horiz-adv-x="1050" 
d="M270 -40l-160 160v450l160 160h510l160 -160v-450l-160 -160h-510zM315 40h420l115 115v380l-115 115h-420l-115 -115v-380zM360 150v390h275l75 -75v-110l-70 -70l90 -121v-14h-90l-95 130h-100v-130h-85zM445 360h150l30 30v40l-30 30h-150v-100z" />
    <glyph glyph-name="macron" unicode="&#xaf;" horiz-adv-x="365" 
d="M30 613v75h305v-75h-305z" />
    <glyph glyph-name="degree" unicode="&#xb0;" horiz-adv-x="450" 
d="M135 370l-75 75v180l75 75h180l75 -75v-180l-75 -75h-180zM170 440h110l35 35v120l-35 35h-110l-35 -35v-120z" />
    <glyph glyph-name="plusminus" unicode="&#xb1;" horiz-adv-x="580" 
d="M250 150v210h-210v80h210v210h80v-210h210v-80h-210v-210h-80zM40 0v80h500v-80h-500z" />
    <glyph glyph-name="uni00B2" unicode="&#xb2;" horiz-adv-x="400" 
d="M45 470v130l65 65h155l25 25v20l-25 25h-210v65h245l60 -60v-80l-60 -60h-155l-30 -30v-35h235v-65h-305z" />
    <glyph glyph-name="uni00B3" unicode="&#xb3;" horiz-adv-x="395" 
d="M45 470v65h225l20 20v25l-25 25h-140v65h130l25 25v20l-20 20h-210v65h245l55 -55v-70l-31 -31l41 -41v-78l-55 -55h-260z" />
    <glyph glyph-name="acute" unicode="&#xb4;" horiz-adv-x="215" 
d="M30 560v10l61 165h94v-10l-89 -165h-66z" />
    <glyph glyph-name="uni00B5" unicode="&#xb5;" horiz-adv-x="625" 
d="M75 -200v700h90v-355l60 -60h175l60 60v355h90v-500h-70v40h-10l-40 -40h-227l-30 30h-8v-230h-90z" />
    <glyph glyph-name="paragraph" unicode="&#xb6;" horiz-adv-x="645" 
d="M245 -200v470h-85l-100 100v230l100 100h175v-900h-90zM445 -200v900h90v-900h-90z" />
    <glyph glyph-name="periodcentered" unicode="&#xb7;" horiz-adv-x="340" 
d="M113 230v115h115v-115h-115z" />
    <glyph glyph-name="cedilla" unicode="&#xb8;" horiz-adv-x="260" 
d="M30 -200v60h120l10 10v25l-10 10h-90v30l22 71l70 6v-6l-12 -33v-8h40l50 -50v-65l-50 -50h-150z" />
    <glyph glyph-name="uni00B9" unicode="&#xb9;" horiz-adv-x="380" 
d="M70 470v65h90v200h-85v65h155v-265h85v-65h-245z" />
    <glyph glyph-name="ordmasculine" unicode="&#xba;" horiz-adv-x="465" 
d="M125 330l-70 70v230l70 70h215l70 -70v-230l-70 -70h-215zM160 395h145l35 35v170l-35 35h-145l-35 -35v-170z" />
    <glyph glyph-name="guillemotright" unicode="&#xbb;" horiz-adv-x="609" 
d="M115 -10l-65 50l177 210l-177 210l65 50l219 -260zM350 -10l-65 50l177 210l-177 210l65 50l219 -260z" />
    <glyph glyph-name="onequarter" unicode="&#xbc;" horiz-adv-x="820" 
d="M70 370v65h90v200h-85v65h155v-265h85v-65h-245zM170 0v30l434 670h66v-30l-434 -670h-66zM660 0v60h-210v60l195 210h85v-210h45v-60h-45v-60h-70zM530 120h130v140h-5l-125 -135v-5z" />
    <glyph glyph-name="onehalf" unicode="&#xbd;" horiz-adv-x="860" 
d="M70 370v65h90v200h-85v65h155v-265h85v-65h-245zM170 0v30l434 670h66v-30l-434 -670h-66zM505 0v130l65 65h155l25 25v20l-25 25h-210v65h245l60 -60v-80l-60 -60h-155l-30 -30v-35h235v-65h-305z" />
    <glyph glyph-name="threequarters" unicode="&#xbe;" horiz-adv-x="835" 
d="M45 370v65h225l20 20v25l-25 25h-140v65h130l25 25v20l-20 20h-210v65h245l55 -55v-70l-31 -31l41 -41v-78l-55 -55h-260zM185 0v30l434 670h66v-30l-434 -670h-66zM675 0v60h-210v60l195 210h85v-210h45v-60h-45v-60h-70zM545 120h130v140h-5l-125 -135v-5z" />
    <glyph glyph-name="questiondown" unicode="&#xbf;" horiz-adv-x="670" 
d="M345 385v115h115v-115h-115zM200 -200l-120 120v170l120 120h139l14 14v76h100v-115l-60 -60h-148l-70 -70v-100l70 -70h355v-85h-400z" />
    <glyph glyph-name="Agrave" unicode="&#xc0;" horiz-adv-x="770" 
d="M419 755h-76l-69 125v10h94l51 -125v-10zM455 700l290 -665v-35h-90l-81 190h-381l-81 -190h-87v35l285 665h145zM229 275h308l-145 340h-18z" />
    <glyph glyph-name="Aacute" unicode="&#xc1;" horiz-adv-x="770" 
d="M492 880l-69 -125h-76v10l51 125h94v-10zM455 700l290 -665v-35h-90l-81 190h-381l-81 -190h-87v35l285 665h145zM229 275h308l-145 340h-18z" />
    <glyph glyph-name="Acircumflex" unicode="&#xc2;" horiz-adv-x="770" 
d="M378 825l-75 -70h-87v24l121 106h94l119 -104v-26h-86l-75 70h-11zM455 700l290 -665v-35h-90l-81 190h-381l-81 -190h-87v35l285 665h145zM229 275h308l-145 340h-18z" />
    <glyph glyph-name="Atilde" unicode="&#xc3;" horiz-adv-x="770" 
d="M280 795v-40h-75v65l55 55h100l60 -55h50l15 15v40h75v-65l-55 -55h-110l-60 55h-40zM455 700l290 -665v-35h-90l-81 190h-381l-81 -190h-87v35l285 665h145zM229 275h308l-145 340h-18z" />
    <glyph glyph-name="Adieresis" unicode="&#xc4;" horiz-adv-x="770" 
d="M335 870v-100h-100v100h100zM530 870v-100h-100v100h100zM455 700l290 -665v-35h-90l-81 190h-381l-81 -190h-87v35l285 665h145zM229 275h308l-145 340h-18z" />
    <glyph glyph-name="Aring" unicode="&#xc5;" horiz-adv-x="770" 
d="M448 730h-130l-55 55v100l55 55h130l55 -55v-100zM328 860v-50l20 -20h70l20 20v50l-20 20h-70zM455 700l290 -665v-35h-90l-81 190h-381l-81 -190h-87v35l285 665h145zM229 275h308l-145 340h-18z" />
    <glyph glyph-name="AE" unicode="&#xc6;" horiz-adv-x="1127" 
d="M617 85h470v-85h-565v200h-314l-100 -200h-88v35l337 665h720v-85h-460v-220h355v-85h-355v-225zM522 285v330h-105l-166 -330h271z" />
    <glyph glyph-name="Ccedilla" unicode="&#xc7;" horiz-adv-x="710" 
d="M265 615l-90 -90v-350l90 -90h395v-85h-215l-10 -27v-8h40l50 -50v-65l-50 -50h-150v60h120l10 10v25l-10 10h-90v30l20 65h-155l-140 140v420l140 140h440v-85h-395z" />
    <glyph glyph-name="Egrave" unicode="&#xc8;" horiz-adv-x="730" 
d="M350 755l-69 125v10h94l51 -125v-10h-76zM100 0v700h580v-85h-485v-220h375v-85h-375v-225h495v-85h-590z" />
    <glyph glyph-name="Eacute" unicode="&#xc9;" horiz-adv-x="730" 
d="M354 755v10l51 125h94v-10l-69 -125h-76zM100 0v700h580v-85h-485v-220h375v-85h-375v-225h495v-85h-590z" />
    <glyph glyph-name="Ecircumflex" unicode="&#xca;" horiz-adv-x="730" 
d="M223 755v24l121 106h94l119 -104v-26h-86l-75 70h-11l-75 -70h-87zM100 0v700h580v-85h-485v-220h375v-85h-375v-225h495v-85h-590z" />
    <glyph glyph-name="Edieresis" unicode="&#xcb;" horiz-adv-x="730" 
d="M242 770v100h100v-100h-100zM437 770v100h100v-100h-100zM100 0v700h580v-85h-485v-220h375v-85h-375v-225h495v-85h-590z" />
    <glyph glyph-name="Igrave" unicode="&#xcc;" horiz-adv-x="495" 
d="M208 755l-69 125v10h94l51 -125v-10h-76zM60 0v80h140v540h-140v80h375v-80h-140v-540h140v-80h-375z" />
    <glyph glyph-name="Iacute" unicode="&#xcd;" horiz-adv-x="495" 
d="M212 755v10l51 125h94v-10l-69 -125h-76zM60 0v80h140v540h-140v80h375v-80h-140v-540h140v-80h-375z" />
    <glyph glyph-name="Icircumflex" unicode="&#xce;" horiz-adv-x="495" 
d="M81 755v24l121 106h94l119 -104v-26h-86l-75 70h-11l-75 -70h-87zM60 0v80h140v540h-140v80h375v-80h-140v-540h140v-80h-375z" />
    <glyph glyph-name="Idieresis" unicode="&#xcf;" horiz-adv-x="495" 
d="M100 770v100h100v-100h-100zM295 770v100h100v-100h-100zM60 0v80h140v540h-140v80h375v-80h-140v-540h140v-80h-375z" />
    <glyph glyph-name="Eth" unicode="&#xd0;" horiz-adv-x="840" 
d="M620 700l140 -140v-420l-140 -140h-495v310h-100v80h100v310h495zM665 175v350l-90 90h-355v-225h250v-80h-250v-225h355z" />
    <glyph glyph-name="Ntilde" unicode="&#xd1;" horiz-adv-x="825" 
d="M235 755v65l55 55h100l60 -55h50l15 15v40h75v-65l-55 -55h-110l-60 55h-40l-15 -15v-40h-75zM100 0v700h170l345 -610h18v610h92v-700h-170l-345 610h-18v-610h-92z" />
    <glyph glyph-name="Ograve" unicode="&#xd2;" horiz-adv-x="830" 
d="M375 755l-69 125v10h94l51 -125v-10h-76zM220 0l-140 140v420l140 140h390l140 -140v-420l-140 -140h-390zM265 85h300l90 90v350l-90 90h-300l-90 -90v-350z" />
    <glyph glyph-name="Oacute" unicode="&#xd3;" horiz-adv-x="830" 
d="M379 755v10l51 125h94v-10l-69 -125h-76zM220 0l-140 140v420l140 140h390l140 -140v-420l-140 -140h-390zM265 85h300l90 90v350l-90 90h-300l-90 -90v-350z" />
    <glyph glyph-name="Ocircumflex" unicode="&#xd4;" horiz-adv-x="830" 
d="M248 755v24l121 106h94l119 -104v-26h-86l-75 70h-11l-75 -70h-87zM220 0l-140 140v420l140 140h390l140 -140v-420l-140 -140h-390zM265 85h300l90 90v350l-90 90h-300l-90 -90v-350z" />
    <glyph glyph-name="Otilde" unicode="&#xd5;" horiz-adv-x="830" 
d="M237 755v65l55 55h100l60 -55h50l15 15v40h75v-65l-55 -55h-110l-60 55h-40l-15 -15v-40h-75zM220 0l-140 140v420l140 140h390l140 -140v-420l-140 -140h-390zM265 85h300l90 90v350l-90 90h-300l-90 -90v-350z" />
    <glyph glyph-name="Odieresis" unicode="&#xd6;" horiz-adv-x="830" 
d="M267 770v100h100v-100h-100zM462 770v100h100v-100h-100zM220 0l-140 140v420l140 140h390l140 -140v-420l-140 -140h-390zM265 85h300l90 90v350l-90 90h-300l-90 -90v-350z" />
    <glyph glyph-name="multiply" unicode="&#xd7;" horiz-adv-x="580" 
d="M110 115l-54 54l179 180l-179 180l54 54l180 -179l180 180l54 -55l-179 -180l179 -180l-54 -54l-180 179z" />
    <glyph glyph-name="Oslash" unicode="&#xd8;" horiz-adv-x="837" 
d="M757 662l-50 -55l47 -47v-420l-140 -140h-390l-36 36l-51 -56l-57 57l51 56l-47 47v420l140 140h390l36 -36l50 55zM179 525v-350l14 -14l395 435l-19 19h-300zM659 175v350l-14 14l-395 -435l19 -19h300z" />
    <glyph glyph-name="Ugrave" unicode="&#xd9;" horiz-adv-x="785" 
d="M353 755l-69 125v10h94l51 -125v-10h-76zM230 0l-140 140v560h95v-525l90 -90h235l90 90v525h95v-560l-140 -140h-325z" />
    <glyph glyph-name="Uacute" unicode="&#xda;" horiz-adv-x="785" 
d="M357 755v10l51 125h94v-10l-69 -125h-76zM230 0l-140 140v560h95v-525l90 -90h235l90 90v525h95v-560l-140 -140h-325z" />
    <glyph glyph-name="Ucircumflex" unicode="&#xdb;" horiz-adv-x="785" 
d="M226 755v24l121 106h94l119 -104v-26h-86l-75 70h-11l-75 -70h-87zM230 0l-140 140v560h95v-525l90 -90h235l90 90v525h95v-560l-140 -140h-325z" />
    <glyph glyph-name="Udieresis" unicode="&#xdc;" horiz-adv-x="785" 
d="M245 770v100h100v-100h-100zM440 770v100h100v-100h-100zM230 0l-140 140v560h95v-525l90 -90h235l90 90v525h95v-560l-140 -140h-325z" />
    <glyph glyph-name="Yacute" unicode="&#xdd;" horiz-adv-x="710" 
d="M320 755v10l51 125h94v-10l-69 -125h-76zM308 0v245l-288 420v35h91l236 -345h22l235 345h86v-35l-287 -420v-245h-95z" />
    <glyph glyph-name="Thorn" unicode="&#xde;" horiz-adv-x="780" 
d="M100 0v700h95v-120h395l130 -130v-185l-130 -130h-395v-135h-95zM195 220h350l80 80v115l-80 80h-350v-275z" />
    <glyph glyph-name="germandbls" unicode="&#xdf;" horiz-adv-x="620" 
d="M80 0v585l115 115h225l110 -110v-145l-50 -50l90 -90v-190l-115 -115h-200v85h160l65 65v120l-65 65h-125v85h95l55 55v80l-60 60h-145l-65 -65v-550h-90z" />
    <glyph glyph-name="agrave" unicode="&#xe0;" horiz-adv-x="595" 
d="M275 560l-89 165v10h99l56 -165v-10h-66zM135 0l-85 85v135l95 95h290v50l-50 50h-270v85h310l100 -100v-400h-70v50h-18l-62 -50h-240zM175 85h175l85 69v76h-250l-45 -45v-65z" />
    <glyph glyph-name="aacute" unicode="&#xe1;" horiz-adv-x="595" 
d="M274 560v10l61 165h94v-10l-89 -165h-66zM135 0l-85 85v135l95 95h290v50l-50 50h-270v85h310l100 -100v-400h-70v50h-18l-62 -50h-240zM175 85h175l85 69v76h-250l-45 -45v-65z" />
    <glyph glyph-name="acircumflex" unicode="&#xe2;" horiz-adv-x="595" 
d="M143 560v24l121 146h94l119 -144v-26h-79l-82 105h-11l-82 -105h-80zM135 0l-85 85v135l95 95h290v50l-50 50h-270v85h310l100 -100v-400h-70v50h-18l-62 -50h-240zM175 85h175l85 69v76h-250l-45 -45v-65z" />
    <glyph glyph-name="atilde" unicode="&#xe3;" horiz-adv-x="595" 
d="M127 565v95l55 55h110l71 -85h39l15 15v70h75v-95l-55 -55h-110l-71 85h-39l-15 -15v-70h-75zM135 0l-85 85v135l95 95h290v50l-50 50h-270v85h310l100 -100v-400h-70v50h-18l-62 -50h-240zM175 85h175l85 69v76h-250l-45 -45v-65z" />
    <glyph glyph-name="adieresis" unicode="&#xe4;" horiz-adv-x="595" 
d="M162 600v100h100v-100h-100zM357 600v100h100v-100h-100zM135 0l-85 85v135l95 95h290v50l-50 50h-270v85h310l100 -100v-400h-70v50h-18l-62 -50h-240zM175 85h175l85 69v76h-250l-45 -45v-65z" />
    <glyph glyph-name="aring" unicode="&#xe5;" horiz-adv-x="595" 
d="M245 550l-55 55v120l55 55h130l55 -55v-120l-55 -55h-130zM275 610h70l20 20v70l-20 20h-70l-20 -20v-70zM135 0l-85 85v135l95 95h290v50l-50 50h-270v85h310l100 -100v-400h-70v50h-18l-62 -50h-240zM175 85h175l85 69v76h-250l-45 -45v-65z" />
    <glyph glyph-name="ae" unicode="&#xe6;" horiz-adv-x="935" 
d="M135 0l-85 85v135l95 95h270v40l-60 60h-245v85h280l70 -70l70 70h235l115 -115v-180h-375v-55l65 -65h270v-85h-309l-78 78l-97 -78h-221zM505 290h285v60l-65 65h-160l-60 -60v-65zM175 85h158l82 65v80h-230l-45 -45v-65z" />
    <glyph glyph-name="ccedilla" unicode="&#xe7;" horiz-adv-x="550" 
d="M220 415l-65 -65v-200l65 -65h280v-85h-150l-10 -27v-8h40l50 -50v-65l-50 -50h-150v60h120l10 10v25l-10 10h-90v30l20 65h-100l-115 115v270l115 115h320v-85h-280z" />
    <glyph glyph-name="egrave" unicode="&#xe8;" horiz-adv-x="615" 
d="M277 560l-89 165v10h99l56 -165v-10h-66zM180 0l-115 115v270l115 115h265l115 -115v-185h-405v-50l65 -65h305v-85h-345zM155 285h315v65l-65 65h-185l-65 -65v-65z" />
    <glyph glyph-name="eacute" unicode="&#xe9;" horiz-adv-x="615" 
d="M276 560v10l61 165h94v-10l-89 -165h-66zM180 0l-115 115v270l115 115h265l115 -115v-185h-405v-50l65 -65h305v-85h-345zM155 285h315v65l-65 65h-185l-65 -65v-65z" />
    <glyph glyph-name="ecircumflex" unicode="&#xea;" horiz-adv-x="615" 
d="M145 560v24l121 146h94l119 -144v-26h-79l-82 105h-11l-82 -105h-80zM180 0l-115 115v270l115 115h265l115 -115v-185h-405v-50l65 -65h305v-85h-345zM155 285h315v65l-65 65h-185l-65 -65v-65z" />
    <glyph glyph-name="edieresis" unicode="&#xeb;" horiz-adv-x="615" 
d="M164 600v100h100v-100h-100zM359 600v100h100v-100h-100zM180 0l-115 115v270l115 115h265l115 -115v-185h-405v-50l65 -65h305v-85h-345zM155 285h315v65l-65 65h-185l-65 -65v-65z" />
    <glyph glyph-name="igrave" unicode="&#xec;" horiz-adv-x="240" 
d="M85 560l-89 165v10h99l56 -165v-10h-66zM75 0v500h90v-500h-90z" />
    <glyph glyph-name="iacute" unicode="&#xed;" horiz-adv-x="240" 
d="M84 560v10l61 165h94v-10l-89 -165h-66zM75 0v500h90v-500h-90z" />
    <glyph glyph-name="icircumflex" unicode="&#xee;" horiz-adv-x="240" 
d="M-47 560v24l121 146h94l119 -144v-26h-79l-82 105h-11l-82 -105h-80zM75 0v500h90v-500h-90z" />
    <glyph glyph-name="idieresis" unicode="&#xef;" horiz-adv-x="240" 
d="M-8 600v100h100v-100h-100zM147 600v100h100v-100h-100zM75 0v500h90v-500h-90z" />
    <glyph glyph-name="eth" unicode="&#xf0;" horiz-adv-x="610" 
d="M380 567l185 -234v-218l-115 -115h-280l-115 115v230l115 115h178v12l-55 69l-156 -45h-12v73l118 34l-58 74v23h89l57 -71l152 44h12v-73zM475 150v162l-50 63h-215l-65 -65v-160l65 -65h200z" />
    <glyph glyph-name="ntilde" unicode="&#xf1;" horiz-adv-x="620" 
d="M129 565v95l55 55h110l71 -85h39l15 15v70h75v-95l-55 -55h-110l-71 85h-39l-15 -15v-70h-75zM75 0v500h70v-40h18l48 40h234l105 -105v-395h-90v360l-55 55h-169l-71 -59v-356h-90z" />
    <glyph glyph-name="ograve" unicode="&#xf2;" horiz-adv-x="635" 
d="M283 560l-89 165v10h99l56 -165v-10h-66zM180 0l-115 115v270l115 115h275l115 -115v-270l-115 -115h-275zM220 85h195l65 65v200l-65 65h-195l-65 -65v-200z" />
    <glyph glyph-name="oacute" unicode="&#xf3;" horiz-adv-x="635" 
d="M282 560v10l61 165h94v-10l-89 -165h-66zM180 0l-115 115v270l115 115h275l115 -115v-270l-115 -115h-275zM220 85h195l65 65v200l-65 65h-195l-65 -65v-200z" />
    <glyph glyph-name="ocircumflex" unicode="&#xf4;" horiz-adv-x="635" 
d="M151 560v24l121 146h94l119 -144v-26h-79l-82 105h-11l-82 -105h-80zM180 0l-115 115v270l115 115h275l115 -115v-270l-115 -115h-275zM220 85h195l65 65v200l-65 65h-195l-65 -65v-200z" />
    <glyph glyph-name="otilde" unicode="&#xf5;" horiz-adv-x="635" 
d="M135 565v95l55 55h110l71 -85h39l15 15v70h75v-95l-55 -55h-110l-71 85h-39l-15 -15v-70h-75zM180 0l-115 115v270l115 115h275l115 -115v-270l-115 -115h-275zM220 85h195l65 65v200l-65 65h-195l-65 -65v-200z" />
    <glyph glyph-name="odieresis" unicode="&#xf6;" horiz-adv-x="635" 
d="M170 600v100h100v-100h-100zM365 600v100h100v-100h-100zM180 0l-115 115v270l115 115h275l115 -115v-270l-115 -115h-275zM220 85h195l65 65v200l-65 65h-195l-65 -65v-200z" />
    <glyph glyph-name="divide" unicode="&#xf7;" horiz-adv-x="580" 
d="M240 495v105h100v-105h-100zM45 310v80h490v-80h-490zM240 100v105h100v-105h-100z" />
    <glyph glyph-name="oslash" unicode="&#xf8;" horiz-adv-x="635" 
d="M575 465l-42 -43l37 -37v-270l-115 -115h-275l-28 28l-42 -43l-50 50l42 43l-37 37v270l115 115h275l28 -28l42 43zM155 350v-200l8 -8l258 267l-6 6h-195zM480 150v200l-8 8l-258 -267l6 -6h195z" />
    <glyph glyph-name="ugrave" unicode="&#xf9;" horiz-adv-x="605" 
d="M265 560l-89 165v10h99l56 -165v-10h-66zM175 0l-105 105v395h90v-360l55 -55h154l71 59v356h90v-500h-70v40h-18l-48 -40h-219z" />
    <glyph glyph-name="uacute" unicode="&#xfa;" horiz-adv-x="605" 
d="M264 560v10l61 165h94v-10l-89 -165h-66zM175 0l-105 105v395h90v-360l55 -55h154l71 59v356h90v-500h-70v40h-18l-48 -40h-219z" />
    <glyph glyph-name="ucircumflex" unicode="&#xfb;" horiz-adv-x="605" 
d="M133 560v24l121 146h94l119 -144v-26h-79l-82 105h-11l-82 -105h-80zM175 0l-105 105v395h90v-360l55 -55h154l71 59v356h90v-500h-70v40h-18l-48 -40h-219z" />
    <glyph glyph-name="udieresis" unicode="&#xfc;" horiz-adv-x="605" 
d="M152 600v100h100v-100h-100zM347 600v100h100v-100h-100zM175 0l-105 105v395h90v-360l55 -55h154l71 59v356h90v-500h-70v40h-18l-48 -40h-219z" />
    <glyph glyph-name="yacute" unicode="&#xfd;" horiz-adv-x="605" 
d="M264 560v10l61 165h94v-10l-89 -165h-66zM95 -200v85h310l35 35v105h-16l-30 -25h-219l-105 105v395h90v-360l55 -55h154l71 59v356h90v-615l-85 -85h-350z" />
    <glyph glyph-name="thorn" unicode="&#xfe;" horiz-adv-x="630" 
d="M80 -200v900h90v-240h12l48 40h220l115 -115v-270l-115 -115h-280v-200h-90zM170 85h240l65 65v200l-65 65h-155l-85 -70v-260z" />
    <glyph glyph-name="ydieresis" unicode="&#xff;" horiz-adv-x="605" 
d="M152 600v100h100v-100h-100zM347 600v100h100v-100h-100zM95 -200v85h310l35 35v105h-16l-30 -25h-219l-105 105v395h90v-360l55 -55h154l71 59v356h90v-615l-85 -85h-350z" />
    <glyph glyph-name="Amacron" unicode="&#x100;" horiz-adv-x="770" 
d="M535 858v-75h-305v75h305zM455 700l290 -665v-35h-90l-81 190h-381l-81 -190h-87v35l285 665h145zM229 275h308l-145 340h-18z" />
    <glyph glyph-name="amacron" unicode="&#x101;" horiz-adv-x="595" 
d="M157 613v75h305v-75h-305zM135 0l-85 85v135l95 95h290v50l-50 50h-270v85h310l100 -100v-400h-70v50h-18l-62 -50h-240zM175 85h175l85 69v76h-250l-45 -45v-65z" />
    <glyph glyph-name="Abreve" unicode="&#x102;" horiz-adv-x="770" 
d="M488 755h-210l-55 55v75h75v-45l20 -20h130l20 20v45h75v-75zM455 700l290 -665v-35h-90l-81 190h-381l-81 -190h-87v35l285 665h145zM229 275h308l-145 340h-18z" />
    <glyph glyph-name="abreve" unicode="&#x103;" horiz-adv-x="595" 
d="M208 560l-55 55v105h75v-75l20 -20h125l20 20v75h75v-105l-55 -55h-205zM135 0l-85 85v135l95 95h290v50l-50 50h-270v85h310l100 -100v-400h-70v50h-18l-62 -50h-240zM175 85h175l85 69v76h-250l-45 -45v-65z" />
    <glyph glyph-name="Aogonek" unicode="&#x104;" horiz-adv-x="770" 
d="M745 0l-95 -78v-42l10 -10h75v-70h-110l-45 45v96l74 62l-80 187h-381l-81 -190h-87v35l285 665h145l290 -665v-35zM229 275h308l-145 340h-18z" />
    <glyph glyph-name="aogonek" unicode="&#x105;" horiz-adv-x="595" 
d="M525 0l-95 -78v-42l10 -10h75v-70h-110l-45 45v96l95 79v30h-18l-62 -50h-240l-85 85v135l95 95h290v50l-50 50h-270v85h310l100 -100v-400zM435 154v76h-250l-45 -45v-65l35 -35h175z" />
    <glyph glyph-name="Cacute" unicode="&#x106;" horiz-adv-x="710" 
d="M389 755v10l51 125h94v-10l-69 -125h-76zM220 0l-140 140v420l140 140h440v-85h-395l-90 -90v-350l90 -90h395v-85h-440z" />
    <glyph glyph-name="cacute" unicode="&#x107;" horiz-adv-x="550" 
d="M287 560v10l61 165h94v-10l-89 -165h-66zM180 0l-115 115v270l115 115h320v-85h-280l-65 -65v-200l65 -65h280v-85h-320z" />
    <glyph glyph-name="Ccircumflex" unicode="&#x108;" horiz-adv-x="710" 
d="M258 755v24l121 106h94l119 -104v-26h-86l-75 70h-11l-75 -70h-87zM220 0l-140 140v420l140 140h440v-85h-395l-90 -90v-350l90 -90h395v-85h-440z" />
    <glyph glyph-name="ccircumflex" unicode="&#x109;" horiz-adv-x="550" 
d="M156 560v24l121 146h94l119 -144v-26h-79l-82 105h-11l-82 -105h-80zM180 0l-115 115v270l115 115h320v-85h-280l-65 -65v-200l65 -65h280v-85h-320z" />
    <glyph glyph-name="Cdotaccent" unicode="&#x10a;" horiz-adv-x="710" 
d="M375 770v100h100v-100h-100zM220 0l-140 140v420l140 140h440v-85h-395l-90 -90v-350l90 -90h395v-85h-440z" />
    <glyph glyph-name="cdotaccent" unicode="&#x10b;" horiz-adv-x="550" 
d="M273 600v100h100v-100h-100zM180 0l-115 115v270l115 115h320v-85h-280l-65 -65v-200l65 -65h280v-85h-320z" />
    <glyph glyph-name="Ccaron" unicode="&#x10c;" horiz-adv-x="710" 
d="M379 755l-121 106v24h87l75 -70h11l75 70h86v-26l-119 -104h-94zM220 0l-140 140v420l140 140h440v-85h-395l-90 -90v-350l90 -90h395v-85h-440z" />
    <glyph glyph-name="ccaron" unicode="&#x10d;" horiz-adv-x="550" 
d="M275 560l-119 144v26h79l82 -105h11l82 105h80v-24l-121 -146h-94zM180 0l-115 115v270l115 115h320v-85h-280l-65 -65v-200l65 -65h280v-85h-320z" />
    <glyph glyph-name="Dcaron" unicode="&#x10e;" horiz-adv-x="815" 
d="M359 755l-121 106v24h87l75 -70h11l75 70h86v-26l-119 -104h-94zM100 0v700h495l140 -140v-420l-140 -140h-495zM195 85h355l90 90v350l-90 90h-355v-530z" />
    <glyph glyph-name="dcaron" unicode="&#x10f;" horiz-adv-x="630" 
d="M608 550v10l7 170h92v-10l-37 -170h-62zM180 0l-115 115v270l115 115h280v200h90v-700h-70v50h-20l-60 -50h-220zM220 85h155l85 70v260h-240l-65 -65v-200z" />
    <glyph glyph-name="Dcroat" unicode="&#x110;" horiz-adv-x="840" 
d="M620 700l140 -140v-420l-140 -140h-495v310h-100v80h100v310h495zM665 175v350l-90 90h-355v-225h250v-80h-250v-225h355z" />
    <glyph glyph-name="dcroat" unicode="&#x111;" horiz-adv-x="645" 
d="M180 0l-115 115v255l115 115h280v70h-220v75h220v70h90v-70h85v-75h-85v-555h-70v50h-20l-60 -50h-220zM220 85h155l85 70v245h-240l-65 -65v-185z" />
    <glyph glyph-name="Emacron" unicode="&#x112;" horiz-adv-x="730" 
d="M237 783v75h305v-75h-305zM100 0v700h580v-85h-485v-220h375v-85h-375v-225h495v-85h-590z" />
    <glyph glyph-name="emacron" unicode="&#x113;" horiz-adv-x="615" 
d="M159 613v75h305v-75h-305zM180 0l-115 115v270l115 115h265l115 -115v-185h-405v-50l65 -65h305v-85h-345zM155 285h315v65l-65 65h-185l-65 -65v-65z" />
    <glyph glyph-name="Ebreve" unicode="&#x114;" horiz-adv-x="730" 
d="M285 755l-55 55v75h75v-45l20 -20h130l20 20v45h75v-75l-55 -55h-210zM100 0v700h580v-85h-485v-220h375v-85h-375v-225h495v-85h-590z" />
    <glyph glyph-name="ebreve" unicode="&#x115;" horiz-adv-x="615" 
d="M210 560l-55 55v105h75v-75l20 -20h125l20 20v75h75v-105l-55 -55h-205zM180 0l-115 115v270l115 115h265l115 -115v-185h-405v-50l65 -65h305v-85h-345zM155 285h315v65l-65 65h-185l-65 -65v-65z" />
    <glyph glyph-name="Edotaccent" unicode="&#x116;" horiz-adv-x="730" 
d="M340 770v100h100v-100h-100zM100 0v700h580v-85h-485v-220h375v-85h-375v-225h495v-85h-590z" />
    <glyph glyph-name="edotaccent" unicode="&#x117;" horiz-adv-x="615" 
d="M262 600v100h100v-100h-100zM180 0l-115 115v270l115 115h265l115 -115v-185h-405v-50l65 -65h305v-85h-345zM155 285h315v65l-65 65h-185l-65 -65v-65z" />
    <glyph glyph-name="Eogonek" unicode="&#x118;" horiz-adv-x="730" 
d="M690 0l-95 -78v-42l10 -10h75v-70h-110l-45 45v96l71 59h-496v700h580v-85h-485v-220h375v-85h-375v-225h495v-85z" />
    <glyph glyph-name="eogonek" unicode="&#x119;" horiz-adv-x="615" 
d="M560 200h-405v-50l65 -65h305v-85l-95 -78v-42l10 -10h75v-70h-110l-45 45v96l71 59h-251l-115 115v270l115 115h265l115 -115v-185zM155 350v-65h315v65l-65 65h-185z" />
    <glyph glyph-name="Ecaron" unicode="&#x11a;" horiz-adv-x="730" 
d="M344 755l-121 106v24h87l75 -70h11l75 70h86v-26l-119 -104h-94zM100 0v700h580v-85h-485v-220h375v-85h-375v-225h495v-85h-590z" />
    <glyph glyph-name="ecaron" unicode="&#x11b;" horiz-adv-x="615" 
d="M264 560l-119 144v26h79l82 -105h11l82 105h80v-24l-121 -146h-94zM180 0l-115 115v270l115 115h265l115 -115v-185h-405v-50l65 -65h305v-85h-345zM155 285h315v65l-65 65h-185l-65 -65v-65z" />
    <glyph glyph-name="Gcircumflex" unicode="&#x11c;" horiz-adv-x="815" 
d="M258 755v24l121 106h94l119 -104v-26h-86l-75 70h-11l-75 -70h-87zM220 0l-140 140v420l140 140h475v-85h-430l-90 -90v-350l90 -90h300l90 90v140h-265v85h360v-260l-140 -140h-390z" />
    <glyph glyph-name="gcircumflex" unicode="&#x11d;" horiz-adv-x="625" 
d="M168 560v24l121 146h94l119 -144v-26h-79l-82 105h-11l-82 -105h-80zM100 -200v85h325l35 35v115h-18l-42 -35h-220l-115 115v270l115 115h370v-615l-85 -85h-365zM220 85h155l85 70v260h-240l-65 -65v-200z" />
    <glyph glyph-name="Gbreve" unicode="&#x11e;" horiz-adv-x="815" 
d="M320 755l-55 55v75h75v-45l20 -20h130l20 20v45h75v-75l-55 -55h-210zM220 0l-140 140v420l140 140h475v-85h-430l-90 -90v-350l90 -90h300l90 90v140h-265v85h360v-260l-140 -140h-390z" />
    <glyph glyph-name="gbreve" unicode="&#x11f;" horiz-adv-x="625" 
d="M233 560l-55 55v105h75v-75l20 -20h125l20 20v75h75v-105l-55 -55h-205zM100 -200v85h325l35 35v115h-18l-42 -35h-220l-115 115v270l115 115h370v-615l-85 -85h-365zM220 85h155l85 70v260h-240l-65 -65v-200z" />
    <glyph glyph-name="Gdotaccent" unicode="&#x120;" horiz-adv-x="815" 
d="M375 770v100h100v-100h-100zM220 0l-140 140v420l140 140h475v-85h-430l-90 -90v-350l90 -90h300l90 90v140h-265v85h360v-260l-140 -140h-390z" />
    <glyph glyph-name="gdotaccent" unicode="&#x121;" horiz-adv-x="625" 
d="M285 600v100h100v-100h-100zM100 -200v85h325l35 35v115h-18l-42 -35h-220l-115 115v270l115 115h370v-615l-85 -85h-365zM220 85h155l85 70v260h-240l-65 -65v-200z" />
    <glyph glyph-name="uni0122" unicode="&#x122;" horiz-adv-x="815" 
d="M220 0l-140 140v420l140 140h475v-85h-430l-90 -90v-350l90 -90h300l90 90v140h-265v85h360v-260l-140 -140h-390zM383 -245l21 100h-41v110h110v-100l-40 -110h-50z" />
    <glyph glyph-name="uni0123" unicode="&#x123;" horiz-adv-x="625" 
d="M280 560v100l31 110h50l-16 -100h45v-110h-110zM100 -200v85h325l35 35v115h-18l-42 -35h-220l-115 115v270l115 115h370v-615l-85 -85h-365zM220 85h155l85 70v260h-240l-65 -65v-200z" />
    <glyph glyph-name="Hcircumflex" unicode="&#x124;" horiz-adv-x="825" 
d="M246 755v24l121 106h94l119 -104v-26h-86l-75 70h-11l-75 -70h-87zM100 0v700h95v-305h435v305h95v-700h-95v310h-435v-310h-95z" />
    <glyph glyph-name="hcircumflex" unicode="&#x125;" horiz-adv-x="625" 
d="M-42 755v24l121 106h94l119 -104v-26h-86l-75 70h-11l-75 -70h-87zM80 0v700h90v-232h17l39 32h224l105 -105v-395h-90v360l-55 55h-159l-81 -67v-348h-90z" />
    <glyph glyph-name="Hbar" unicode="&#x126;" horiz-adv-x="855" 
d="M815 595v-80h-75v-515h-95v310h-435v-310h-95v515h-75v80h75v105h95v-105h435v105h95v-105h75zM645 395v120h-435v-120h435z" />
    <glyph glyph-name="hbar" unicode="&#x127;" horiz-adv-x="640" 
d="M95 0v555h-85v75h85v70h90v-70h220v-75h-220v-102h17l39 32h224l105 -105v-380h-90v345l-55 55h-159l-81 -67v-333h-90z" />
    <glyph glyph-name="Imacron" unicode="&#x12a;" horiz-adv-x="495" 
d="M95 783v75h305v-75h-305zM60 0v80h140v540h-140v80h375v-80h-140v-540h140v-80h-375z" />
    <glyph glyph-name="imacron" unicode="&#x12b;" horiz-adv-x="240" 
d="M-33 613v75h305v-75h-305zM75 0v500h90v-500h-90z" />
    <glyph glyph-name="Ibreve" unicode="&#x12c;" horiz-adv-x="495" 
d="M143 755l-55 55v75h75v-45l20 -20h130l20 20v45h75v-75l-55 -55h-210zM60 0v80h140v540h-140v80h375v-80h-140v-540h140v-80h-375z" />
    <glyph glyph-name="ibreve" unicode="&#x12d;" horiz-adv-x="240" 
d="M18 560l-55 55v105h75v-75l20 -20h125l20 20v75h75v-105l-55 -55h-205zM75 0v500h90v-500h-90z" />
    <glyph glyph-name="Iogonek" unicode="&#x12e;" horiz-adv-x="495" 
d="M435 620h-140v-540h140v-80h-140l-95 -78v-42l10 -10h75v-70h-110l-45 45v96l71 59h-141v80h140v540h-140v80h375v-80z" />
    <glyph glyph-name="iogonek" unicode="&#x12f;" horiz-adv-x="240" 
d="M70 700h100v-100h-100v100zM75 4v496h90v-500l-95 -78v-42l10 -10h75v-70h-110l-45 45v96z" />
    <glyph glyph-name="Idotaccent" unicode="&#x130;" horiz-adv-x="495" 
d="M198 770v100h100v-100h-100zM60 0v80h140v540h-140v80h375v-80h-140v-540h140v-80h-375z" />
    <glyph glyph-name="dotlessi" unicode="&#x131;" horiz-adv-x="240" 
d="M75 0v500h90v-500h-90z" />
    <glyph glyph-name="IJ" unicode="&#x132;" horiz-adv-x="1050" 
d="M60 0v80h140v540h-140v80h375v-80h-140v-540h140v-80h-375zM525 0v85h265l75 75v455h-295v85h390v-575l-125 -125h-310z" />
    <glyph glyph-name="ij" unicode="&#x133;" horiz-adv-x="480" 
d="M70 600v100h100v-100h-100zM310 600v100h100v-100h-100zM75 -200v85h225l15 15v600h90v-635l-65 -65h-265zM75 0v500h90v-500h-90z" />
    <glyph glyph-name="Jcircumflex" unicode="&#x134;" horiz-adv-x="555" 
d="M104 755v24l121 106h94l119 -104v-26h-86l-75 70h-11l-75 -70h-87zM30 0v85h265l75 75v455h-295v85h390v-575l-125 -125h-310z" />
    <glyph glyph-name="jcircumflex" unicode="&#x135;" horiz-adv-x="240" 
d="M-47 560v24l121 146h94l119 -144v-26h-79l-82 105h-11l-82 -105h-80zM-80 -200v85h140l15 15v600h90v-635l-65 -65h-180z" />
    <glyph glyph-name="uni0136" unicode="&#x136;" horiz-adv-x="735" 
d="M100 0v700h95v-305h182l220 305h88v-35l-225 -310l245 -320v-35h-92l-236 310h-182v-310h-95zM365 -245l21 100h-41v110h110v-100l-40 -110h-50z" />
    <glyph glyph-name="uni0137" unicode="&#x137;" horiz-adv-x="574" 
d="M80 0v700h90v-400h132l142 200h85v-30l-149 -210l169 -230v-30h-90l-157 215h-132v-215h-90zM280 -245l21 100h-41v110h110v-100l-40 -110h-50z" />
    <glyph glyph-name="Lacute" unicode="&#x139;" horiz-adv-x="630" 
d="M114 755v10l51 125h94v-10l-69 -125h-76zM100 0v700h95v-615h415v-85h-510z" />
    <glyph glyph-name="lacute" unicode="&#x13a;" horiz-adv-x="265" 
d="M54 755v10l51 125h94v-10l-69 -125h-76zM95 0v615h-100v85h190v-700h-90z" />
    <glyph glyph-name="uni013B" unicode="&#x13b;" horiz-adv-x="630" 
d="M100 0v700h95v-615h415v-85h-510zM320 -245l21 100h-41v110h110v-100l-40 -110h-50z" />
    <glyph glyph-name="uni013C" unicode="&#x13c;" horiz-adv-x="265" 
d="M95 0v615h-100v85h190v-700h-90zM105 -245l21 100h-41v110h110v-100l-40 -110h-50z" />
    <glyph glyph-name="Lcaron" unicode="&#x13d;" horiz-adv-x="630" 
d="M253 550v10l7 170h92v-10l-37 -170h-62zM100 0v700h95v-615h415v-85h-510z" />
    <glyph glyph-name="lcaron" unicode="&#x13e;" horiz-adv-x="265" 
d="M243 550v10l7 170h92v-10l-37 -170h-62zM95 0v615h-100v85h190v-700h-90z" />
    <glyph glyph-name="Ldot" unicode="&#x13f;" horiz-adv-x="630" 
d="M100 0v700h95v-615h415v-85h-510zM405 342v115h115v-115h-115z" />
    <glyph glyph-name="ldot" unicode="&#x140;" horiz-adv-x="379" 
d="M95 0v615h-100v85h190v-700h-90zM272 282v115h115v-115h-115z" />
    <glyph glyph-name="Lslash" unicode="&#x141;" horiz-adv-x="650" 
d="M215 85h415v-85h-510v265l-82 -45h-18v80l100 55v345h95v-292l225 124h18v-80l-243 -134v-233z" />
    <glyph glyph-name="lslash" unicode="&#x142;" horiz-adv-x="295" 
d="M305 486v-75l-110 -74v-337h-90v277l-90 -61h-20v75l110 74v250h-100v85h190v-275l90 61h20z" />
    <glyph glyph-name="Nacute" unicode="&#x143;" horiz-adv-x="825" 
d="M377 755v10l51 125h94v-10l-69 -125h-76zM100 0v700h170l345 -610h18v610h92v-700h-170l-345 610h-18v-610h-92z" />
    <glyph glyph-name="nacute" unicode="&#x144;" horiz-adv-x="620" 
d="M276 560v10l61 165h94v-10l-89 -165h-66zM75 0v500h70v-40h18l48 40h234l105 -105v-395h-90v360l-55 55h-169l-71 -59v-356h-90z" />
    <glyph glyph-name="uni0145" unicode="&#x145;" horiz-adv-x="825" 
d="M100 0v700h170l345 -610h18v610h92v-700h-170l-345 610h-18v-610h-92zM378 -245l21 100h-41v110h110v-100l-40 -110h-50z" />
    <glyph glyph-name="uni0146" unicode="&#x146;" horiz-adv-x="620" 
d="M75 0v500h70v-40h18l48 40h234l105 -105v-395h-90v360l-55 55h-169l-71 -59v-356h-90zM278 -245l21 100h-41v110h110v-100l-40 -110h-50z" />
    <glyph glyph-name="Ncaron" unicode="&#x147;" horiz-adv-x="825" 
d="M367 755l-121 106v24h87l75 -70h11l75 70h86v-26l-119 -104h-94zM100 0v700h170l345 -610h18v610h92v-700h-170l-345 610h-18v-610h-92z" />
    <glyph glyph-name="ncaron" unicode="&#x148;" horiz-adv-x="620" 
d="M264 560l-119 144v26h79l82 -105h11l82 105h80v-24l-121 -146h-94zM75 0v500h70v-40h18l48 40h234l105 -105v-395h-90v360l-55 55h-169l-71 -59v-356h-90z" />
    <glyph glyph-name="Eng" unicode="&#x14a;" horiz-adv-x="825" 
d="M380 -200v85h210l40 40v75h-75l-345 610h-18v-610h-92v700h170l345 -610h18v610h92v-810l-90 -90h-255z" />
    <glyph glyph-name="eng" unicode="&#x14b;" horiz-adv-x="620" 
d="M445 500l105 -105v-530l-65 -65h-195v85h155l15 15v460l-55 55h-169l-71 -59v-356h-90v500h70v-40h18l48 40h234z" />
    <glyph glyph-name="Omacron" unicode="&#x14c;" horiz-adv-x="830" 
d="M262 783v75h305v-75h-305zM220 0l-140 140v420l140 140h390l140 -140v-420l-140 -140h-390zM265 85h300l90 90v350l-90 90h-300l-90 -90v-350z" />
    <glyph glyph-name="omacron" unicode="&#x14d;" horiz-adv-x="635" 
d="M165 613v75h305v-75h-305zM180 0l-115 115v270l115 115h275l115 -115v-270l-115 -115h-275zM220 85h195l65 65v200l-65 65h-195l-65 -65v-200z" />
    <glyph glyph-name="Obreve" unicode="&#x14e;" horiz-adv-x="830" 
d="M310 755l-55 55v75h75v-45l20 -20h130l20 20v45h75v-75l-55 -55h-210zM220 0l-140 140v420l140 140h390l140 -140v-420l-140 -140h-390zM265 85h300l90 90v350l-90 90h-300l-90 -90v-350z" />
    <glyph glyph-name="obreve" unicode="&#x14f;" horiz-adv-x="635" 
d="M216 560l-55 55v105h75v-75l20 -20h125l20 20v75h75v-105l-55 -55h-205zM180 0l-115 115v270l115 115h275l115 -115v-270l-115 -115h-275zM220 85h195l65 65v200l-65 65h-195l-65 -65v-200z" />
    <glyph glyph-name="Ohungarumlaut" unicode="&#x150;" horiz-adv-x="830" 
d="M301 755v10l41 125h89v-10l-59 -125h-71zM456 755v10l41 125h90v-10l-60 -125h-71zM220 0l-140 140v420l140 140h390l140 -140v-420l-140 -140h-390zM265 85h300l90 90v350l-90 90h-300l-90 -90v-350z" />
    <glyph glyph-name="ohungarumlaut" unicode="&#x151;" horiz-adv-x="635" 
d="M201 560v10l46 165h94v-10l-74 -165h-66zM356 560v10l56 165h95v-10l-85 -165h-66zM180 0l-115 115v270l115 115h275l115 -115v-270l-115 -115h-275zM220 85h195l65 65v200l-65 65h-195l-65 -65v-200z" />
    <glyph glyph-name="OE" unicode="&#x152;" horiz-adv-x="1190" 
d="M220 0l-140 140v420l140 140h920v-85h-460v-220h335v-85h-335v-225h470v-85h-930zM265 85h320v530h-320l-90 -90v-350z" />
    <glyph glyph-name="oe" unicode="&#x153;" horiz-adv-x="980" 
d="M180 0l-115 115v270l115 115h255l70 -70l70 70h235l115 -115v-185h-375v-50l65 -65h270v-85h-310l-70 70l-70 -70h-255zM220 85h175l65 65v200l-65 65h-175l-65 -65v-200zM550 285h285v65l-65 65h-155l-65 -65v-65z" />
    <glyph glyph-name="Racute" unicode="&#x154;" horiz-adv-x="788" 
d="M356 755v10l51 125h94v-10l-69 -125h-76zM100 0v700h475l130 -130v-190l-130 -130l153 -215v-35h-92l-176 250h-265v-250h-95zM195 335h335l80 80v120l-80 80h-335v-280z" />
    <glyph glyph-name="racute" unicode="&#x155;" horiz-adv-x="405" 
d="M206 560v10l61 165h94v-10l-89 -165h-66zM75 0v500h70v-40h18l48 40h199v-85h-174l-71 -59v-356h-90z" />
    <glyph glyph-name="uni0156" unicode="&#x156;" horiz-adv-x="788" 
d="M100 0v700h475l130 -130v-190l-130 -130l153 -215v-35h-92l-176 250h-265v-250h-95zM195 335h335l80 80v120l-80 80h-335v-280zM377 -245l21 100h-41v110h110v-100l-40 -110h-50z" />
    <glyph glyph-name="uni0157" unicode="&#x157;" horiz-adv-x="405" 
d="M75 0v500h70v-40h18l48 40h199v-85h-174l-71 -59v-356h-90zM85 -245l21 100h-41v110h110v-100l-40 -110h-50z" />
    <glyph glyph-name="Rcaron" unicode="&#x158;" horiz-adv-x="788" 
d="M346 755l-121 106v24h87l75 -70h11l75 70h86v-26l-119 -104h-94zM100 0v700h475l130 -130v-190l-130 -130l153 -215v-35h-92l-176 250h-265v-250h-95zM195 335h335l80 80v120l-80 80h-335v-280z" />
    <glyph glyph-name="rcaron" unicode="&#x159;" horiz-adv-x="405" 
d="M194 560l-119 144v26h79l82 -105h11l82 105h80v-24l-121 -146h-94zM75 0v500h70v-40h18l48 40h199v-85h-174l-71 -59v-356h-90z" />
    <glyph glyph-name="Sacute" unicode="&#x15a;" horiz-adv-x="720" 
d="M339 755v10l51 125h94v-10l-69 -125h-76zM75 0v85h440l60 60v110l-60 60h-340l-110 110v165l110 110h460v-85h-415l-60 -60v-95l60 -60h340l110 -110v-180l-110 -110h-485z" />
    <glyph glyph-name="sacute" unicode="&#x15b;" horiz-adv-x="565" 
d="M256 560v10l61 165h94v-10l-89 -165h-66zM65 0v85h325l35 35v55l-35 35h-245l-85 85v120l85 85h345v-85h-305l-35 -35v-50l35 -35h245l85 -85v-125l-85 -85h-365z" />
    <glyph glyph-name="Scircumflex" unicode="&#x15c;" horiz-adv-x="720" 
d="M208 755v24l121 106h94l119 -104v-26h-86l-75 70h-11l-75 -70h-87zM75 0v85h440l60 60v110l-60 60h-340l-110 110v165l110 110h460v-85h-415l-60 -60v-95l60 -60h340l110 -110v-180l-110 -110h-485z" />
    <glyph glyph-name="scircumflex" unicode="&#x15d;" horiz-adv-x="565" 
d="M125 560v24l121 146h94l119 -144v-26h-79l-82 105h-11l-82 -105h-80zM65 0v85h325l35 35v55l-35 35h-245l-85 85v120l85 85h345v-85h-305l-35 -35v-50l35 -35h245l85 -85v-125l-85 -85h-365z" />
    <glyph glyph-name="Scedilla" unicode="&#x15e;" horiz-adv-x="720" 
d="M560 400l110 -110v-180l-110 -110h-173l-10 -27v-8h40l50 -50v-65l-50 -50h-150v60h120l10 10v25l-10 10h-90v30l20 65h-242v85h440l60 60v110l-60 60h-340l-110 110v165l110 110h460v-85h-415l-60 -60v-95l60 -60h340z" />
    <glyph glyph-name="scedilla" unicode="&#x15f;" horiz-adv-x="565" 
d="M430 295l85 -85v-125l-85 -85h-120l-10 -27v-8h40l50 -50v-65l-50 -50h-150v60h120l10 10v25l-10 10h-90v30l20 65h-175v85h325l35 35v55l-35 35h-245l-85 85v120l85 85h345v-85h-305l-35 -35v-50l35 -35h245z" />
    <glyph glyph-name="Scaron" unicode="&#x160;" horiz-adv-x="720" 
d="M329 755l-121 106v24h87l75 -70h11l75 70h86v-26l-119 -104h-94zM75 0v85h440l60 60v110l-60 60h-340l-110 110v165l110 110h460v-85h-415l-60 -60v-95l60 -60h340l110 -110v-180l-110 -110h-485z" />
    <glyph glyph-name="scaron" unicode="&#x161;" horiz-adv-x="565" 
d="M244 560l-119 144v26h79l82 -105h11l82 105h80v-24l-121 -146h-94zM65 0v85h325l35 35v55l-35 35h-245l-85 85v120l85 85h345v-85h-305l-35 -35v-50l35 -35h245l85 -85v-125l-85 -85h-365z" />
    <glyph glyph-name="uni0162" unicode="&#x162;" horiz-adv-x="665" 
d="M368 0l-10 -27v-8h40l50 -50v-65l-50 -50h-150v60h120l10 10v25l-10 10h-90v30l20 65h-13v615h-275v85h645v-85h-275v-615h-12z" />
    <glyph glyph-name="uni0163" unicode="&#x163;" horiz-adv-x="415" 
d="M292 0l-10 -27v-8h40l50 -50v-65l-50 -50h-150v60h120l10 10v25l-10 10h-90v30l20 65h-42l-65 65v350h-100v85h100v130h90v-130h180v-85h-180v-315l15 -15h170v-85h-98z" />
    <glyph glyph-name="Tcaron" unicode="&#x164;" horiz-adv-x="665" 
d="M287 755l-121 106v24h87l75 -70h11l75 70h86v-26l-119 -104h-94zM285 0v615h-275v85h645v-85h-275v-615h-95z" />
    <glyph glyph-name="tcaron" unicode="&#x165;" horiz-adv-x="415" 
d="M263 550v10l7 170h92v-10l-37 -170h-62zM180 0l-65 65v350h-100v85h100v130h90v-130h180v-85h-180v-315l15 -15h170v-85h-210z" />
    <glyph glyph-name="Tbar" unicode="&#x166;" horiz-adv-x="665" 
d="M655 615h-275v-247h180v-80h-180v-288h-95v288h-180v80h180v247h-275v85h645v-85z" />
    <glyph glyph-name="tbar" unicode="&#x167;" horiz-adv-x="415" 
d="M220 85h170v-85h-210l-65 65v165h-75v75h75v110h-100v85h100v130h90v-130h180v-85h-180v-110h155v-75h-155v-130z" />
    <glyph glyph-name="Umacron" unicode="&#x16a;" horiz-adv-x="785" 
d="M240 783v75h305v-75h-305zM230 0l-140 140v560h95v-525l90 -90h235l90 90v525h95v-560l-140 -140h-325z" />
    <glyph glyph-name="umacron" unicode="&#x16b;" horiz-adv-x="605" 
d="M147 613v75h305v-75h-305zM175 0l-105 105v395h90v-360l55 -55h154l71 59v356h90v-500h-70v40h-18l-48 -40h-219z" />
    <glyph glyph-name="Ubreve" unicode="&#x16c;" horiz-adv-x="785" 
d="M288 755l-55 55v75h75v-45l20 -20h130l20 20v45h75v-75l-55 -55h-210zM230 0l-140 140v560h95v-525l90 -90h235l90 90v525h95v-560l-140 -140h-325z" />
    <glyph glyph-name="ubreve" unicode="&#x16d;" horiz-adv-x="605" 
d="M198 560l-55 55v105h75v-75l20 -20h125l20 20v75h75v-105l-55 -55h-205zM175 0l-105 105v395h90v-360l55 -55h154l71 59v356h90v-500h-70v40h-18l-48 -40h-219z" />
    <glyph glyph-name="Uring" unicode="&#x16e;" horiz-adv-x="785" 
d="M328 730l-55 55v100l55 55h130l55 -55v-100l-55 -55h-130zM358 790h70l20 20v50l-20 20h-70l-20 -20v-50zM230 0l-140 140v560h95v-525l90 -90h235l90 90v525h95v-560l-140 -140h-325z" />
    <glyph glyph-name="uring" unicode="&#x16f;" horiz-adv-x="605" 
d="M235 550l-55 55v120l55 55h130l55 -55v-120l-55 -55h-130zM265 610h70l20 20v70l-20 20h-70l-20 -20v-70zM175 0l-105 105v395h90v-360l55 -55h154l71 59v356h90v-500h-70v40h-18l-48 -40h-219z" />
    <glyph glyph-name="Uhungarumlaut" unicode="&#x170;" horiz-adv-x="785" 
d="M279 755v10l41 125h89v-10l-59 -125h-71zM434 755v10l41 125h90v-10l-60 -125h-71zM230 0l-140 140v560h95v-525l90 -90h235l90 90v525h95v-560l-140 -140h-325z" />
    <glyph glyph-name="uhungarumlaut" unicode="&#x171;" horiz-adv-x="605" 
d="M183 560v10l46 165h94v-10l-74 -165h-66zM338 560v10l56 165h95v-10l-85 -165h-66zM175 0l-105 105v395h90v-360l55 -55h154l71 59v356h90v-500h-70v40h-18l-48 -40h-219z" />
    <glyph glyph-name="Uogonek" unicode="&#x172;" horiz-adv-x="785" 
d="M477 -78v-42l10 -10h75v-70h-110l-45 45v92l63 63h-240l-140 140v560h95v-525l90 -90h235l90 90v525h95v-560z" />
    <glyph glyph-name="uogonek" unicode="&#x173;" horiz-adv-x="605" 
d="M530 0l-95 -78v-42l10 -10h75v-70h-110l-45 45v96l95 79v20h-18l-48 -40h-219l-105 105v395h90v-360l55 -55h154l71 59v356h90v-500z" />
    <glyph glyph-name="Wcircumflex" unicode="&#x174;" horiz-adv-x="1043" 
d="M342 755v24l121 106h94l119 -104v-26h-86l-75 70h-11l-75 -70h-87zM247 0l-217 665v35h89l196 -610h20l143 437l-43 138v35h89l188 -610h19l196 610h86v-35l-214 -665h-157l-116 369h-8l-123 -369h-148z" />
    <glyph glyph-name="wcircumflex" unicode="&#x175;" horiz-adv-x="782" 
d="M208 560v24l121 146h94l119 -144v-26h-79l-82 105h-11l-82 -105h-80zM177 0l-157 470v30h86l134 -415h15l100 292l-27 93v30h81l120 -415h16l134 415h83v-30l-157 -470h-138l-69 235h-12l-80 -235h-129z" />
    <glyph glyph-name="Ycircumflex" unicode="&#x176;" horiz-adv-x="710" 
d="M189 755v24l121 106h94l119 -104v-26h-86l-75 70h-11l-75 -70h-87zM308 0v245l-288 420v35h91l236 -345h22l235 345h86v-35l-287 -420v-245h-95z" />
    <glyph glyph-name="ycircumflex" unicode="&#x177;" horiz-adv-x="605" 
d="M133 560v24l121 146h94l119 -144v-26h-79l-82 105h-11l-82 -105h-80zM95 -200v85h310l35 35v105h-16l-30 -25h-219l-105 105v395h90v-360l55 -55h154l71 59v356h90v-615l-85 -85h-350z" />
    <glyph glyph-name="Ydieresis" unicode="&#x178;" horiz-adv-x="710" 
d="M208 770v100h100v-100h-100zM403 770v100h100v-100h-100zM308 0v245l-288 420v35h91l236 -345h22l235 345h86v-35l-287 -420v-245h-95z" />
    <glyph glyph-name="Zacute" unicode="&#x179;" horiz-adv-x="685" 
d="M319 755v10l51 125h94v-10l-69 -125h-76zM45 0v135l485 450v25h-470v90h580v-135l-485 -450v-25h485v-90h-595z" />
    <glyph glyph-name="zacute" unicode="&#x17a;" horiz-adv-x="525" 
d="M241 560v10l61 165h94v-10l-89 -165h-66zM45 0v125l335 274v16h-325v85h425v-125l-335 -274v-16h345v-85h-445z" />
    <glyph glyph-name="Zdotaccent" unicode="&#x17b;" horiz-adv-x="685" 
d="M305 770v100h100v-100h-100zM45 0v135l485 450v25h-470v90h580v-135l-485 -450v-25h485v-90h-595z" />
    <glyph glyph-name="zdotaccent" unicode="&#x17c;" horiz-adv-x="525" 
d="M227 600v100h100v-100h-100zM45 0v125l335 274v16h-325v85h425v-125l-335 -274v-16h345v-85h-445z" />
    <glyph glyph-name="Zcaron" unicode="&#x17d;" horiz-adv-x="685" 
d="M309 755l-121 106v24h87l75 -70h11l75 70h86v-26l-119 -104h-94zM45 0v135l485 450v25h-470v90h580v-135l-485 -450v-25h485v-90h-595z" />
    <glyph glyph-name="zcaron" unicode="&#x17e;" horiz-adv-x="525" 
d="M229 560l-119 144v26h79l82 -105h11l82 105h80v-24l-121 -146h-94zM45 0v125l335 274v16h-325v85h425v-125l-335 -274v-16h345v-85h-445z" />
    <glyph glyph-name="uni018F" unicode="&#x18f;" horiz-adv-x="825" 
d="M215 0l-140 140v265h575v120l-90 90h-430v85h475l140 -140v-420l-140 -140h-390zM260 85h300l90 90v145h-480v-145z" />
    <glyph glyph-name="florin" unicode="&#x192;" horiz-adv-x="495" 
d="M350 615l-15 -15l-29 -150h149v-85h-165l-95 -500l-65 -65h-185v85h145l15 15l89 465h-99v85h115l35 185l65 65h185v-85h-145z" />
    <glyph glyph-name="uni01F4" unicode="&#x1f4;" horiz-adv-x="815" 
d="M389 755v10l51 125h94v-10l-69 -125h-76zM220 0l-140 140v420l140 140h475v-85h-430l-90 -90v-350l90 -90h300l90 90v140h-265v85h360v-260l-140 -140h-390z" />
    <glyph glyph-name="uni01F5" unicode="&#x1f5;" horiz-adv-x="625" 
d="M299 560v10l61 165h94v-10l-89 -165h-66zM100 -200v85h325l35 35v115h-18l-42 -35h-220l-115 115v270l115 115h370v-615l-85 -85h-365zM220 85h155l85 70v260h-240l-65 -65v-200z" />
    <glyph glyph-name="uni0218" unicode="&#x218;" horiz-adv-x="720" 
d="M75 0v85h440l60 60v110l-60 60h-340l-110 110v165l110 110h460v-85h-415l-60 -60v-95l60 -60h340l110 -110v-180l-110 -110h-485zM317 -245l21 100h-41v110h110v-100l-40 -110h-50z" />
    <glyph glyph-name="uni0219" unicode="&#x219;" horiz-adv-x="565" 
d="M65 0v85h325l35 35v55l-35 35h-245l-85 85v120l85 85h345v-85h-305l-35 -35v-50l35 -35h245l85 -85v-125l-85 -85h-365zM240 -245l21 100h-41v110h110v-100l-40 -110h-50z" />
    <glyph glyph-name="uni021A" unicode="&#x21a;" horiz-adv-x="665" 
d="M285 0v615h-275v85h645v-85h-275v-615h-95zM298 -245l21 100h-41v110h110v-100l-40 -110h-50z" />
    <glyph glyph-name="uni021B" unicode="&#x21b;" horiz-adv-x="415" 
d="M180 0l-65 65v350h-100v85h100v130h90v-130h180v-85h-180v-315l15 -15h170v-85h-210zM222 -245l21 100h-41v110h110v-100l-40 -110h-50z" />
    <glyph glyph-name="uni0232" unicode="&#x232;" horiz-adv-x="710" 
d="M203 783v75h305v-75h-305zM308 0v245l-288 420v35h91l236 -345h22l235 345h86v-35l-287 -420v-245h-95z" />
    <glyph glyph-name="uni0233" unicode="&#x233;" horiz-adv-x="605" 
d="M147 613v75h305v-75h-305zM95 -200v85h310l35 35v105h-16l-30 -25h-219l-105 105v395h90v-360l55 -55h154l71 59v356h90v-615l-85 -85h-350z" />
    <glyph glyph-name="uni0237" unicode="&#x237;" horiz-adv-x="240" 
d="M-80 -200v85h140l15 15v600h90v-635l-65 -65h-180z" />
    <glyph glyph-name="uni0244" unicode="&#x244;" horiz-adv-x="815" 
d="M785 455v-80h-75v-235l-140 -140h-325l-140 140v235h-75v80h75v245h95v-245h415v245h95v-245h75zM615 175v200h-415v-200l90 -90h235z" />
    <glyph glyph-name="uni0259" unicode="&#x259;" horiz-adv-x="615" 
d="M170 0l-115 115v185h405v50l-65 65h-305v85h345l115 -115v-270l-115 -115h-265zM210 85h185l65 65v65h-315v-65z" />
    <glyph glyph-name="uni0289" unicode="&#x289;" horiz-adv-x="635" 
d="M620 347v-75h-75v-272h-70v40h-18l-48 -40h-219l-105 105v167h-75v75h75v153h90v-153h280v153h90v-153h75zM455 144v128h-280v-132l55 -55h154z" />
    <glyph glyph-name="uni02BC" unicode="&#x2bc;" horiz-adv-x="240" 
d="M70 425l32 150h-42v125h120v-105l-55 -170h-55z" />
    <glyph glyph-name="circumflex" unicode="&#x2c6;" horiz-adv-x="394" 
d="M30 560v24l121 146h94l119 -144v-26h-79l-82 105h-11l-82 -105h-80z" />
    <glyph glyph-name="caron" unicode="&#x2c7;" horiz-adv-x="394" 
d="M149 560l-119 144v26h79l82 -105h11l82 105h80v-24l-121 -146h-94z" />
    <glyph glyph-name="breve" unicode="&#x2d8;" horiz-adv-x="375" 
d="M85 560l-55 55v105h75v-75l20 -20h125l20 20v75h75v-105l-55 -55h-205z" />
    <glyph glyph-name="dotaccent" unicode="&#x2d9;" horiz-adv-x="160" 
d="M30 600v100h100v-100h-100z" />
    <glyph glyph-name="ring" unicode="&#x2da;" horiz-adv-x="300" 
d="M85 550l-55 55v120l55 55h130l55 -55v-120l-55 -55h-130zM115 610h70l20 20v70l-20 20h-70l-20 -20v-70z" />
    <glyph glyph-name="ogonek" unicode="&#x2db;" horiz-adv-x="225" 
d="M75 -200l-45 45v96l126 105l39 -46l-95 -78v-42l10 -10h75v-70h-110z" />
    <glyph glyph-name="tilde" unicode="&#x2dc;" horiz-adv-x="425" 
d="M30 565v95l55 55h110l71 -85h39l15 15v70h75v-95l-55 -55h-110l-71 85h-39l-15 -15v-70h-75z" />
    <glyph glyph-name="hungarumlaut" unicode="&#x2dd;" horiz-adv-x="366" 
d="M30 560v10l46 165h94v-10l-74 -165h-66zM185 560v10l56 165h95v-10l-85 -165h-66z" />
    <glyph glyph-name="gravecomb" unicode="&#x300;" 
d="M-96 560l-89 165v10h99l56 -165v-10h-66z" />
    <glyph glyph-name="acutecomb" unicode="&#x301;" 
d="M-185 560v10l61 165h94v-10l-89 -165h-66z" />
    <glyph glyph-name="uni0302" unicode="&#x302;" 
d="M-364 560v24l121 146h94l119 -144v-26h-79l-82 105h-11l-82 -105h-80z" />
    <glyph glyph-name="tildecomb" unicode="&#x303;" 
d="M-395 565v95l55 55h110l71 -85h39l15 15v70h75v-95l-55 -55h-110l-71 85h-39l-15 -15v-70h-75z" />
    <glyph glyph-name="uni0304" unicode="&#x304;" 
d="M-335 613v75h305v-75h-305z" />
    <glyph glyph-name="uni0306" unicode="&#x306;" 
d="M-290 560l-55 55v105h75v-75l20 -20h125l20 20v75h75v-105l-55 -55h-205z" />
    <glyph glyph-name="uni0307" unicode="&#x307;" 
d="M-130 600v100h100v-100h-100z" />
    <glyph glyph-name="uni0308" unicode="&#x308;" 
d="M-325 600v100h100v-100h-100zM-130 600v100h100v-100h-100z" />
    <glyph glyph-name="uni030A" unicode="&#x30a;" 
d="M-215 550l-55 55v120l55 55h130l55 -55v-120l-55 -55h-130zM-185 610h70l20 20v70l-20 20h-70l-20 -20v-70z" />
    <glyph glyph-name="uni030B" unicode="&#x30b;" 
d="M-336 560v10l46 165h94v-10l-74 -165h-66zM-181 560v10l56 165h95v-10l-85 -165h-66z" />
    <glyph glyph-name="uni030C" unicode="&#x30c;" 
d="M-245 560l-119 144v26h79l82 -105h11l82 105h80v-24l-121 -146h-94z" />
    <glyph glyph-name="uni0312" unicode="&#x312;" 
d="M-140 560v100l31 110h50l-16 -100h45v-110h-110z" />
    <glyph glyph-name="uni0326" unicode="&#x326;" 
d="M-120 -245l21 100h-41v110h110v-100l-40 -110h-50z" />
    <glyph glyph-name="uni0327" unicode="&#x327;" 
d="M-230 -200v60h120l10 10v25l-10 10h-90v30l22 71l70 6v-6l-12 -33v-8h40l50 -50v-65l-50 -50h-150z" />
    <glyph glyph-name="uni0328" unicode="&#x328;" 
d="M-150 -200l-45 45v96l126 105l39 -46l-95 -78v-42l10 -10h75v-70h-110z" />
    <glyph glyph-name="uni03A9" unicode="&#x3a9;" horiz-adv-x="890" 
d="M110 0v80h120v12l-120 108v360l140 140h390l140 -140v-360l-120 -108v-12h120v-80h-250v90l155 145v290l-90 90h-300l-90 -90v-290l155 -145v-90h-250z" />
    <glyph glyph-name="uni0400" unicode="&#x400;" horiz-adv-x="730" 
d="M350 755l-69 125v10h94l51 -125v-10h-76zM100 0v700h580v-85h-485v-220h375v-85h-375v-225h495v-85h-590z" />
    <glyph glyph-name="uni0401" unicode="&#x401;" horiz-adv-x="730" 
d="M242 770v100h100v-100h-100zM437 770v100h100v-100h-100zM100 0v700h580v-85h-485v-220h375v-85h-375v-225h495v-85h-590z" />
    <glyph glyph-name="uni0402" unicode="&#x402;" horiz-adv-x="900" 
d="M540 -10v85h130l65 65v160l-65 65h-330v-365h-95v615h-235v85h645v-85h-315v-165h375l115 -115v-230l-115 -115h-175z" />
    <glyph glyph-name="uni0403" unicode="&#x403;" horiz-adv-x="645" 
d="M332 755v10l51 125h94v-10l-69 -125h-76zM100 0v700h535v-85h-440v-615h-95z" />
    <glyph glyph-name="uni0404" unicode="&#x404;" horiz-adv-x="720" 
d="M220 0l-140 140v420l140 140h450v-85h-405l-90 -90v-130h385v-85h-385v-135l90 -90h415v-85h-460z" />
    <glyph glyph-name="uni0405" unicode="&#x405;" horiz-adv-x="720" 
d="M75 0v85h440l60 60v110l-60 60h-340l-110 110v165l110 110h460v-85h-415l-60 -60v-95l60 -60h340l110 -110v-180l-110 -110h-485z" />
    <glyph glyph-name="uni0406" unicode="&#x406;" horiz-adv-x="495" 
d="M60 0v80h140v540h-140v80h375v-80h-140v-540h140v-80h-375z" />
    <glyph glyph-name="uni0407" unicode="&#x407;" horiz-adv-x="495" 
d="M100 770v100h100v-100h-100zM295 770v100h100v-100h-100zM60 0v80h140v540h-140v80h375v-80h-140v-540h140v-80h-375z" />
    <glyph glyph-name="uni0408" unicode="&#x408;" horiz-adv-x="555" 
d="M30 0v85h265l75 75v455h-295v85h390v-575l-125 -125h-310z" />
    <glyph glyph-name="uni0409" unicode="&#x409;" horiz-adv-x="1215" 
d="M10 -10v95h105l35 35l50 580h485v-270h360l120 -120v-190l-120 -120h-455v615h-302l-47 -539l-86 -86h-145zM685 85h315l70 70v120l-70 70h-315v-260z" />
    <glyph glyph-name="uni040A" unicode="&#x40a;" horiz-adv-x="1220" 
d="M100 0v700h95v-270h400v270h95v-270h360l120 -120v-190l-120 -120h-455v345h-400v-345h-95zM690 85h315l70 70v120l-70 70h-315v-260z" />
    <glyph glyph-name="uni040B" unicode="&#x40b;" horiz-adv-x="905" 
d="M245 0v615h-235v85h645v-85h-315v-165h375l115 -115v-335h-95v300l-65 65h-330v-365h-95z" />
    <glyph glyph-name="uni040C" unicode="&#x40c;" horiz-adv-x="735" 
d="M359 755v10l51 125h94v-10l-69 -125h-76zM100 0v700h95v-305h182l220 305h88v-35l-225 -310l245 -320v-35h-92l-236 310h-182v-310h-95z" />
    <glyph glyph-name="uni040D" unicode="&#x40d;" horiz-adv-x="825" 
d="M373 755l-69 125v10h94l51 -125v-10h-76zM100 0v700h95v-610h13l357 610h160v-700h-95v610h-13l-357 -610h-160z" />
    <glyph glyph-name="uni040E" unicode="&#x40e;" horiz-adv-x="669" 
d="M238 755l-55 55v75h75v-45l20 -20h130l20 20v45h75v-75l-55 -55h-210zM135 0v90h132l40 80l-282 495v35h90l231 -410h20l204 410h84v-35l-331 -665h-188z" />
    <glyph glyph-name="uni040F" unicode="&#x40f;" horiz-adv-x="805" 
d="M705 700v-700h-255v-160h-95v160h-255v700h95v-615h415v615h95z" />
    <glyph glyph-name="uni0410" unicode="&#x410;" horiz-adv-x="770" 
d="M455 700l290 -665v-35h-90l-81 190h-381l-81 -190h-87v35l285 665h145zM229 275h308l-145 340h-18z" />
    <glyph glyph-name="uni0411" unicode="&#x411;" horiz-adv-x="790" 
d="M100 0v700h575v-85h-480v-175h415l120 -120v-200l-120 -120h-510zM195 85h370l70 70v130l-70 70h-370v-270z" />
    <glyph glyph-name="uni0412" unicode="&#x412;" horiz-adv-x="800" 
d="M100 0v700h490l110 -110v-145l-65 -65l100 -100v-160l-120 -120h-515zM195 405h345l65 65v85l-60 60h-350v-210zM195 85h375l70 70v95l-70 70h-375v-235z" />
    <glyph glyph-name="uni0413" unicode="&#x413;" horiz-adv-x="645" 
d="M100 0v700h535v-85h-440v-615h-95z" />
    <glyph glyph-name="uni0414" unicode="&#x414;" horiz-adv-x="820" 
d="M10 -160v245h75l59 80l41 535h495v-615h105v-245h-95v160h-585v-160h-95zM205 85h380v530h-312l-36 -485z" />
    <glyph glyph-name="uni0415" unicode="&#x415;" horiz-adv-x="730" 
d="M100 0v700h580v-85h-485v-220h375v-85h-375v-225h495v-85h-590z" />
    <glyph glyph-name="uni0416" unicode="&#x416;" horiz-adv-x="1075" 
d="M30 0v35l235 320l-215 310v35h87l211 -305h142v305h95v-305h142l211 305h87v-35l-215 -310l235 -320v-35h-93l-225 310h-142v-310h-95v310h-142l-225 -310h-93z" />
    <glyph glyph-name="uni0417" unicode="&#x417;" horiz-adv-x="695" 
d="M45 0v85h420l70 70v95l-70 70h-275v85h265l70 70v80l-60 60h-410v85h455l110 -110v-140l-80 -80l90 -90v-160l-120 -120h-465z" />
    <glyph glyph-name="uni0418" unicode="&#x418;" horiz-adv-x="825" 
d="M100 0v700h95v-610h13l357 610h160v-700h-95v610h-13l-357 -610h-160z" />
    <glyph glyph-name="uni0419" unicode="&#x419;" horiz-adv-x="825" 
d="M308 755l-55 55v75h75v-45l20 -20h130l20 20v45h75v-75l-55 -55h-210zM100 0v700h95v-610h13l357 610h160v-700h-95v610h-13l-357 -610h-160z" />
    <glyph glyph-name="uni041A" unicode="&#x41a;" horiz-adv-x="735" 
d="M100 0v700h95v-305h182l220 305h88v-35l-225 -310l245 -320v-35h-92l-236 310h-182v-310h-95z" />
    <glyph glyph-name="uni041B" unicode="&#x41b;" horiz-adv-x="805" 
d="M10 -10v95h105l35 35l50 580h505v-700h-95v615h-322l-47 -539l-86 -86h-145z" />
    <glyph glyph-name="uni041C" unicode="&#x41c;" horiz-adv-x="985" 
d="M100 0v700h170l213 -470h19l213 470h170v-700h-95v610h-17l-213 -470h-135l-213 470h-17v-610h-95z" />
    <glyph glyph-name="uni041D" unicode="&#x41d;" horiz-adv-x="825" 
d="M100 0v700h95v-305h435v305h95v-700h-95v310h-435v-310h-95z" />
    <glyph glyph-name="uni041E" unicode="&#x41e;" horiz-adv-x="830" 
d="M220 0l-140 140v420l140 140h390l140 -140v-420l-140 -140h-390zM265 85h300l90 90v350l-90 90h-300l-90 -90v-350z" />
    <glyph glyph-name="uni041F" unicode="&#x41f;" horiz-adv-x="815" 
d="M100 0v700h615v-700h-95v615h-425v-615h-95z" />
    <glyph glyph-name="uni0420" unicode="&#x420;" horiz-adv-x="755" 
d="M100 0v700h470l130 -130v-215l-130 -130h-375v-225h-95zM195 310h330l80 80v145l-80 80h-330v-305z" />
    <glyph glyph-name="uni0421" unicode="&#x421;" horiz-adv-x="710" 
d="M220 0l-140 140v420l140 140h440v-85h-395l-90 -90v-350l90 -90h395v-85h-440z" />
    <glyph glyph-name="uni0422" unicode="&#x422;" horiz-adv-x="665" 
d="M285 0v615h-275v85h645v-85h-275v-615h-95z" />
    <glyph glyph-name="uni0423" unicode="&#x423;" horiz-adv-x="669" 
d="M135 0v90h132l40 80l-282 495v35h90l231 -410h20l204 410h84v-35l-331 -665h-188z" />
    <glyph glyph-name="uni0424" unicode="&#x424;" horiz-adv-x="995" 
d="M450 -30v90h-240l-140 140v320l140 140h240v90h95v-90h240l140 -140v-320l-140 -140h-240v-90h-95zM255 145h195v430h-195l-90 -90v-250zM545 145h195l90 90v250l-90 90h-195v-430z" />
    <glyph glyph-name="uni0425" unicode="&#x425;" horiz-adv-x="714" 
d="M35 0v35l253 328l-233 302v35h93l203 -268h17l203 268h88v-35l-233 -302l253 -328v-35h-93l-222 293h-19l-222 -293h-88z" />
    <glyph glyph-name="uni0426" unicode="&#x426;" horiz-adv-x="820" 
d="M695 85h95v-245h-95v160h-595v700h95v-615h405v615h95v-615z" />
    <glyph glyph-name="uni0427" unicode="&#x427;" horiz-adv-x="745" 
d="M550 0v230h-360l-120 120v350h95v-315l70 -70h315v385h95v-700h-95z" />
    <glyph glyph-name="uni0428" unicode="&#x428;" horiz-adv-x="1125" 
d="M100 0v700h95v-615h320v615h95v-615h320v615h95v-700h-925z" />
    <glyph glyph-name="uni0429" unicode="&#x429;" horiz-adv-x="1150" 
d="M1025 85h95v-245h-95v160h-925v700h95v-615h320v615h95v-615h320v615h95v-615z" />
    <glyph glyph-name="uni042A" unicode="&#x42a;" horiz-adv-x="830" 
d="M660 455l120 -120v-215l-120 -120h-485v615h-170v85h265v-245h390zM685 155v145l-70 70h-345v-285h345z" />
    <glyph glyph-name="uni042B" unicode="&#x42b;" horiz-adv-x="1025" 
d="M100 0v700h95v-245h380l120 -120v-215l-120 -120h-475zM830 0v700h95v-700h-95zM195 85h335l70 70v145l-70 70h-335v-285z" />
    <glyph glyph-name="uni042C" unicode="&#x42c;" horiz-adv-x="755" 
d="M100 0v700h95v-245h390l120 -120v-215l-120 -120h-485zM195 85h345l70 70v145l-70 70h-345v-285z" />
    <glyph glyph-name="uni042D" unicode="&#x42d;" horiz-adv-x="705" 
d="M35 0v85h405l90 90v135h-360v85h360v130l-90 90h-395v85h440l140 -140v-420l-140 -140h-450z" />
    <glyph glyph-name="uni042E" unicode="&#x42e;" horiz-adv-x="1065" 
d="M100 0v700h95v-305h165v165l140 140h345l140 -140v-420l-140 -140h-345l-140 140v170h-165v-310h-95zM545 85h255l90 90v350l-90 90h-255l-90 -90v-350z" />
    <glyph glyph-name="uni042F" unicode="&#x42f;" horiz-adv-x="793" 
d="M75 0v35l137 226l-119 119v190l130 130h470v-700h-95v250h-281l-152 -250h-90zM268 335h330v280h-330l-80 -80v-120z" />
    <glyph glyph-name="uni0430" unicode="&#x430;" horiz-adv-x="595" 
d="M135 0l-85 85v135l95 95h290v50l-50 50h-270v85h310l100 -100v-400h-70v50h-18l-62 -50h-240zM175 85h175l85 69v76h-250l-45 -45v-65z" />
    <glyph glyph-name="uni0431" unicode="&#x431;" horiz-adv-x="640" 
d="M185 0l-115 115v466l100 100l360 24h10v-84l-325 -20l-55 -55v-101h18l42 35h245l115 -115v-250l-115 -115h-280zM225 85h200l65 65v180l-65 65h-180l-85 -70v-175z" />
    <glyph glyph-name="uni0432" unicode="&#x432;" horiz-adv-x="605" 
d="M75 0v500h370l85 -85v-108l-41 -39l66 -66v-117l-85 -85h-395zM165 295h235l40 40v40l-40 40h-235v-120zM165 85h260l40 40v45l-45 45h-255v-130z" />
    <glyph glyph-name="uni0433" unicode="&#x433;" horiz-adv-x="460" 
d="M75 0v500h380v-85h-290v-415h-90z" />
    <glyph glyph-name="uni0434" unicode="&#x434;" horiz-adv-x="655" 
d="M15 -140v225h64l49 63l27 352h385v-415h95v-225h-90v140h-440v-140h-90zM188 85h262v330h-212l-23 -295z" />
    <glyph glyph-name="uni0435" unicode="&#x435;" horiz-adv-x="615" 
d="M180 0l-115 115v270l115 115h265l115 -115v-185h-405v-50l65 -65h305v-85h-345zM155 285h315v65l-65 65h-185l-65 -65v-65z" />
    <glyph glyph-name="uni0436" unicode="&#x436;" horiz-adv-x="820" 
d="M25 0v30l164 224l-144 216v30h85l137 -205h98v205h90v-205h98l137 205h85v-30l-144 -216l164 -224v-30h-90l-152 210h-98v-210h-90v210h-98l-152 -210h-90z" />
    <glyph glyph-name="uni0437" unicode="&#x437;" horiz-adv-x="545" 
d="M35 0v85h330l40 40v45l-40 40h-215v85h205l40 40v40l-40 40h-305v85h345l90 -90v-100l-50 -50l60 -60v-110l-90 -90h-370z" />
    <glyph glyph-name="uni0438" unicode="&#x438;" horiz-adv-x="625" 
d="M75 0v500h90v-405h15l227 405h143v-500h-90v405h-15l-227 -405h-143z" />
    <glyph glyph-name="uni0439" unicode="&#x439;" horiz-adv-x="625" 
d="M211 560l-55 55v105h75v-75l20 -20h125l20 20v75h75v-105l-55 -55h-205zM75 0v500h90v-405h15l227 405h143v-500h-90v405h-15l-227 -405h-143z" />
    <glyph glyph-name="uni043A" unicode="&#x43a;" horiz-adv-x="570" 
d="M75 0v500h90v-205h133l142 205h85v-30l-150 -215l170 -225v-30h-90l-157 210h-133v-210h-90z" />
    <glyph glyph-name="uni043B" unicode="&#x43b;" horiz-adv-x="615" 
d="M10 -5v90h85l19 19l31 396h395v-500h-90v415h-222l-27 -349l-71 -71h-120z" />
    <glyph glyph-name="uni043C" unicode="&#x43c;" horiz-adv-x="745" 
d="M75 0v500h155l137 -310h15l136 310h152v-500h-90v405h-15l-132 -300h-120l-133 300h-15v-405h-90z" />
    <glyph glyph-name="uni043D" unicode="&#x43d;" horiz-adv-x="620" 
d="M75 0v500h90v-205h290v205h90v-500h-90v210h-290v-210h-90z" />
    <glyph glyph-name="uni043E" unicode="&#x43e;" horiz-adv-x="635" 
d="M180 0l-115 115v270l115 115h275l115 -115v-270l-115 -115h-275zM220 85h195l65 65v200l-65 65h-195l-65 -65v-200z" />
    <glyph glyph-name="uni043F" unicode="&#x43f;" horiz-adv-x="605" 
d="M75 0v500h455v-500h-90v415h-275v-415h-90z" />
    <glyph glyph-name="uni0440" unicode="&#x440;" horiz-adv-x="625" 
d="M75 -200v700h70v-50h20l60 50h220l115 -115v-270l-115 -115h-280v-200h-90zM165 85h240l65 65v200l-65 65h-155l-85 -70v-260z" />
    <glyph glyph-name="uni0441" unicode="&#x441;" horiz-adv-x="550" 
d="M180 0l-115 115v270l115 115h320v-85h-280l-65 -65v-200l65 -65h280v-85h-320z" />
    <glyph glyph-name="uni0442" unicode="&#x442;" horiz-adv-x="500" 
d="M205 0v415h-190v85h470v-85h-190v-415h-90z" />
    <glyph glyph-name="uni0443" unicode="&#x443;" horiz-adv-x="605" 
d="M95 -200v85h310l35 35v105h-16l-30 -25h-219l-105 105v395h90v-360l55 -55h154l71 59v356h90v-615l-85 -85h-350z" />
    <glyph glyph-name="uni0444" unicode="&#x444;" horiz-adv-x="780" 
d="M345 -200v200h-165l-115 115v270l115 115h165v200h90v-200h165l115 -115v-270l-115 -115h-165v-200h-90zM220 85h125v330h-125l-65 -65v-200zM435 85h125l65 65v200l-65 65h-125v-330z" />
    <glyph glyph-name="uni0445" unicode="&#x445;" horiz-adv-x="551" 
d="M30 0v30l180 223l-171 217v30h90l139 -181h16l142 181h84v-30l-170 -211l181 -229v-30h-90l-150 195h-14l-153 -195h-84z" />
    <glyph glyph-name="uni0446" unicode="&#x446;" horiz-adv-x="635" 
d="M520 85h90v-225h-90v140h-445v500h90v-415h265v415h90v-415z" />
    <glyph glyph-name="uni0447" unicode="&#x447;" horiz-adv-x="560" 
d="M395 0v160h-245l-105 105v235h90v-200l55 -55h205v255h90v-500h-90z" />
    <glyph glyph-name="uni0448" unicode="&#x448;" horiz-adv-x="850" 
d="M75 0v500h90v-415h215v415h90v-415h215v415h90v-500h-700z" />
    <glyph glyph-name="uni0449" unicode="&#x449;" horiz-adv-x="890" 
d="M775 85h90v-225h-90v140h-700v500h90v-415h215v415h90v-415h215v415h90v-415z" />
    <glyph glyph-name="uni044A" unicode="&#x44a;" horiz-adv-x="645" 
d="M505 345l95 -95v-155l-95 -95h-360v415h-140v85h230v-155h270zM510 130v85l-45 45h-230v-175h230z" />
    <glyph glyph-name="uni044B" unicode="&#x44b;" horiz-adv-x="785" 
d="M75 0v500h90v-155h260l95 -95v-155l-95 -95h-350zM620 0v500h90v-500h-90zM165 85h220l45 45v85l-45 45h-220v-175z" />
    <glyph glyph-name="uni044C" unicode="&#x44c;" horiz-adv-x="575" 
d="M75 0v500h90v-155h270l95 -95v-155l-95 -95h-360zM165 85h230l45 45v85l-45 45h-230v-175z" />
    <glyph glyph-name="uni044D" unicode="&#x44d;" horiz-adv-x="555" 
d="M45 0v85h290l65 65v60h-235v85h235v55l-65 65h-285v85h325l115 -115v-270l-115 -115h-330z" />
    <glyph glyph-name="uni044E" unicode="&#x44e;" horiz-adv-x="820" 
d="M75 0v500h90v-205h110v90l115 115h250l115 -115v-270l-115 -115h-250l-115 115v95h-110v-210h-90zM430 85h170l65 65v200l-65 65h-170l-65 -65v-200z" />
    <glyph glyph-name="uni044F" unicode="&#x44f;" horiz-adv-x="595" 
d="M50 0v30l102 148l-87 87v140l95 95h360v-500h-90v170h-176l-114 -170h-90zM200 255h230v160h-230l-45 -45v-70z" />
    <glyph glyph-name="uni0450" unicode="&#x450;" horiz-adv-x="615" 
d="M277 560l-89 165v10h99l56 -165v-10h-66zM180 0l-115 115v270l115 115h265l115 -115v-185h-405v-50l65 -65h305v-85h-345zM155 285h315v65l-65 65h-185l-65 -65v-65z" />
    <glyph glyph-name="uni0451" unicode="&#x451;" horiz-adv-x="615" 
d="M164 600v100h100v-100h-100zM359 600v100h100v-100h-100zM180 0l-115 115v270l115 115h265l115 -115v-185h-405v-50l65 -65h305v-85h-345zM155 285h315v65l-65 65h-185l-65 -65v-65z" />
    <glyph glyph-name="uni0452" unicode="&#x452;" horiz-adv-x="640" 
d="M465 485l105 -105v-515l-65 -65h-195v85h155l15 15v445l-55 55h-159l-81 -67v-333h-90v555h-85v75h85v70h90v-70h220v-75h-220v-102h17l39 32h224z" />
    <glyph glyph-name="uni0453" unicode="&#x453;" horiz-adv-x="460" 
d="M229 560v10l61 165h94v-10l-89 -165h-66zM75 0v500h380v-85h-290v-415h-90z" />
    <glyph glyph-name="uni0454" unicode="&#x454;" horiz-adv-x="560" 
d="M180 0l-115 115v270l115 115h325v-85h-285l-65 -65v-55h245v-85h-245v-60l65 -65h290v-85h-330z" />
    <glyph glyph-name="uni0455" unicode="&#x455;" horiz-adv-x="565" 
d="M65 0v85h325l35 35v55l-35 35h-245l-85 85v120l85 85h345v-85h-305l-35 -35v-50l35 -35h245l85 -85v-125l-85 -85h-365z" />
    <glyph glyph-name="uni0456" unicode="&#x456;" horiz-adv-x="240" 
d="M70 600v100h100v-100h-100zM75 0v500h90v-500h-90z" />
    <glyph glyph-name="uni0457" unicode="&#x457;" horiz-adv-x="240" 
d="M-8 600v100h100v-100h-100zM147 600v100h100v-100h-100zM75 0v500h90v-500h-90z" />
    <glyph glyph-name="uni0458" unicode="&#x458;" horiz-adv-x="240" 
d="M70 600v100h100v-100h-100zM-80 -200v85h140l15 15v600h90v-635l-65 -65h-180z" />
    <glyph glyph-name="uni0459" unicode="&#x459;" horiz-adv-x="925" 
d="M10 -5v90h85l19 19l31 396h385v-175h255l95 -95v-135l-95 -95h-345v415h-212l-27 -349l-71 -71h-120zM530 85h215l45 45v65l-45 45h-215v-155z" />
    <glyph glyph-name="uni045A" unicode="&#x45a;" horiz-adv-x="920" 
d="M75 0v500h90v-175h270v175h90v-175h255l95 -95v-135l-95 -95h-345v240h-270v-240h-90zM525 85h215l45 45v65l-45 45h-215v-155z" />
    <glyph glyph-name="uni045B" unicode="&#x45b;" horiz-adv-x="640" 
d="M95 0v555h-85v75h85v70h90v-70h220v-75h-220v-102h17l39 32h224l105 -105v-380h-90v345l-55 55h-159l-81 -67v-333h-90z" />
    <glyph glyph-name="uni045C" unicode="&#x45c;" horiz-adv-x="570" 
d="M266 560v10l61 165h94v-10l-89 -165h-66zM75 0v500h90v-205h133l142 205h85v-30l-150 -215l170 -225v-30h-90l-157 210h-133v-210h-90z" />
    <glyph glyph-name="uni045D" unicode="&#x45d;" horiz-adv-x="625" 
d="M278 560l-89 165v10h99l56 -165v-10h-66zM75 0v500h90v-405h15l227 405h143v-500h-90v405h-15l-227 -405h-143z" />
    <glyph glyph-name="uni045E" unicode="&#x45e;" horiz-adv-x="605" 
d="M198 560l-55 55v105h75v-75l20 -20h125l20 20v75h75v-105l-55 -55h-205zM95 -200v85h310l35 35v105h-16l-30 -25h-219l-105 105v395h90v-360l55 -55h154l71 59v356h90v-615l-85 -85h-350z" />
    <glyph glyph-name="uni045F" unicode="&#x45f;" horiz-adv-x="600" 
d="M525 500v-500h-180v-140h-90v140h-180v500h90v-415h270v415h90z" />
    <glyph glyph-name="uni0490" unicode="&#x490;" horiz-adv-x="645" 
d="M540 815h95v-200h-440v-615h-95v700h440v115z" />
    <glyph glyph-name="uni0491" unicode="&#x491;" horiz-adv-x="460" 
d="M370 590h85v-175h-290v-415h-90v500h295v90z" />
    <glyph glyph-name="uni0492" unicode="&#x492;" horiz-adv-x="670" 
d="M660 615h-440v-248h250v-80h-250v-287h-95v287h-100v80h100v333h535v-85z" />
    <glyph glyph-name="uni0493" unicode="&#x493;" horiz-adv-x="465" 
d="M460 415h-290v-153h155v-75h-155v-187h-90v187h-75v75h75v238h380v-85z" />
    <glyph glyph-name="uni0494" unicode="&#x494;" horiz-adv-x="745" 
d="M403 -125v85h122l65 65v225l-65 65h-233l-97 -80v-235h-95v700h535v-85h-440v-260h13l54 45h308l115 -115v-295l-115 -115h-167z" />
    <glyph glyph-name="uni0495" unicode="&#x495;" horiz-adv-x="555" 
d="M285 -200v85h110l35 35v210l-60 60h-120l-85 -70v-120h-90v500h375v-85h-285v-180h12l48 40h185l110 -110v-280l-85 -85h-150z" />
    <glyph glyph-name="uni0496" unicode="&#x496;" horiz-adv-x="1095" 
d="M1008 85h77v-245h-95v160h-38l-225 310h-142v-310h-95v310h-142l-225 -310h-93v35l235 320l-215 310v35h87l211 -305h142v305h95v-305h142l211 305h87v-35l-215 -310z" />
    <glyph glyph-name="uni0497" unicode="&#x497;" horiz-adv-x="845" 
d="M755 85h80v-225h-90v140h-40l-152 210h-98v-210h-90v210h-98l-152 -210h-90v30l164 224l-144 216v30h85l137 -205h98v205h90v-205h98l137 205h85v-30l-144 -216z" />
    <glyph glyph-name="uni049A" unicode="&#x49a;" horiz-adv-x="755" 
d="M667 85h78v-245h-95v160h-37l-236 310h-182v-310h-95v700h95v-305h182l220 305h88v-35l-225 -310z" />
    <glyph glyph-name="uni049B" unicode="&#x49b;" horiz-adv-x="595" 
d="M503 85h82v-225h-90v140h-40l-157 210h-133v-210h-90v500h90v-205h133l142 205h85v-30l-150 -215z" />
    <glyph glyph-name="uni049C" unicode="&#x49c;" horiz-adv-x="745" 
d="M100 0v700h95v-305h65v135h80v-135h47l220 305h88v-35l-225 -310l245 -320v-35h-92l-236 310h-47v-135h-80v135h-65v-310h-95z" />
    <glyph glyph-name="uni049D" unicode="&#x49d;" horiz-adv-x="570" 
d="M75 0v500h90v-205h40v110h70v-110h23l142 205h85v-30l-150 -215l170 -225v-30h-90l-157 210h-23v-110h-70v110h-40v-210h-90z" />
    <glyph glyph-name="uni04A2" unicode="&#x4a2;" horiz-adv-x="850" 
d="M725 85h95v-245h-95v160h-95v310h-435v-310h-95v700h95v-305h435v305h95v-615z" />
    <glyph glyph-name="uni04A3" unicode="&#x4a3;" horiz-adv-x="660" 
d="M545 85h90v-225h-90v140h-90v210h-290v-210h-90v500h90v-205h290v205h90v-415z" />
    <glyph glyph-name="uni04AA" unicode="&#x4aa;" horiz-adv-x="710" 
d="M265 615l-90 -90v-350l90 -90h395v-85h-203v-160h-95v160h-142l-140 140v420l140 140h440v-85h-395z" />
    <glyph glyph-name="uni04AB" unicode="&#x4ab;" horiz-adv-x="550" 
d="M220 415l-65 -65v-200l65 -65h280v-85h-140v-140h-90v140h-90l-115 115v270l115 115h320v-85h-280z" />
    <glyph glyph-name="uni04AE" unicode="&#x4ae;" horiz-adv-x="710" 
d="M308 0v245l-288 420v35h91l236 -345h22l235 345h86v-35l-287 -420v-245h-95z" />
    <glyph glyph-name="uni04AF" unicode="&#x4af;" horiz-adv-x="540" 
d="M221 -200v200l-206 465v35h85l162 -385h13l169 385h81v-35l-214 -465v-200h-90z" />
    <glyph glyph-name="uni04B0" unicode="&#x4b0;" horiz-adv-x="710" 
d="M690 665l-287 -420v-10h180v-80h-180v-155h-95v155h-180v80h180v10l-288 420v35h91l236 -345h22l235 345h86v-35z" />
    <glyph glyph-name="uni04B1" unicode="&#x4b1;" horiz-adv-x="550" 
d="M530 465l-214 -465v-15h155v-75h-155v-110h-90v110h-155v75h155v15l-206 465v35h85l162 -385h13l169 385h81v-35z" />
    <glyph glyph-name="uni04B2" unicode="&#x4b2;" horiz-adv-x="729" 
d="M640 85h79v-245h-95v160h-38l-222 293h-19l-222 -293h-88v35l253 328l-233 302v35h93l203 -268h17l203 268h88v-35l-233 -302z" />
    <glyph glyph-name="uni04B3" unicode="&#x4b3;" horiz-adv-x="571" 
d="M478 85h83v-225h-90v140h-40l-150 195h-14l-153 -195h-84v30l180 223l-171 217v30h90l139 -181h16l142 181h84v-30l-170 -211z" />
    <glyph glyph-name="uni04B6" unicode="&#x4b6;" horiz-adv-x="770" 
d="M645 85h95v-245h-95v160h-95v230h-360l-120 120v350h95v-315l70 -70h315v385h95v-615z" />
    <glyph glyph-name="uni04B7" unicode="&#x4b7;" horiz-adv-x="600" 
d="M485 85h90v-225h-90v140h-90v160h-245l-105 105v235h90v-200l55 -55h205v255h90v-415z" />
    <glyph glyph-name="uni04B8" unicode="&#x4b8;" horiz-adv-x="745" 
d="M550 0v230h-150v-135h-80v135h-130l-120 120v350h95v-315l70 -70h85v135h80v-135h150v385h95v-700h-95z" />
    <glyph glyph-name="uni04B9" unicode="&#x4b9;" horiz-adv-x="560" 
d="M395 0v160h-95v-110h-70v110h-80l-105 105v235h90v-200l55 -55h40v110h70v-110h95v255h90v-500h-90z" />
    <glyph glyph-name="uni04BA" unicode="&#x4ba;" horiz-adv-x="745" 
d="M100 0v700h95v-230h360l120 -120v-350h-95v315l-70 70h-315v-385h-95z" />
    <glyph glyph-name="uni04BB" unicode="&#x4bb;" horiz-adv-x="625" 
d="M80 0v700h90v-232h17l39 32h224l105 -105v-395h-90v360l-55 55h-159l-81 -67v-348h-90z" />
    <glyph glyph-name="uni04C1" unicode="&#x4c1;" horiz-adv-x="1075" 
d="M433 755l-55 55v75h75v-45l20 -20h130l20 20v45h75v-75l-55 -55h-210zM30 0v35l235 320l-215 310v35h87l211 -305h142v305h95v-305h142l211 305h87v-35l-215 -310l235 -320v-35h-93l-225 310h-142v-310h-95v310h-142l-225 -310h-93z" />
    <glyph glyph-name="uni04C2" unicode="&#x4c2;" horiz-adv-x="820" 
d="M308 560l-55 55v105h75v-75l20 -20h125l20 20v75h75v-105l-55 -55h-205zM25 0v30l164 224l-144 216v30h85l137 -205h98v205h90v-205h98l137 205h85v-30l-144 -216l164 -224v-30h-90l-152 210h-98v-210h-90v210h-98l-152 -210h-90z" />
    <glyph glyph-name="uni04D2" unicode="&#x4d2;" horiz-adv-x="770" 
d="M335 870v-100h-100v100h100zM530 870v-100h-100v100h100zM455 700l290 -665v-35h-90l-81 190h-381l-81 -190h-87v35l285 665h145zM229 275h308l-145 340h-18z" />
    <glyph glyph-name="uni04D3" unicode="&#x4d3;" horiz-adv-x="595" 
d="M162 600v100h100v-100h-100zM357 600v100h100v-100h-100zM135 0l-85 85v135l95 95h290v50l-50 50h-270v85h310l100 -100v-400h-70v50h-18l-62 -50h-240zM175 85h175l85 69v76h-250l-45 -45v-65z" />
    <glyph glyph-name="uni04D8" unicode="&#x4d8;" horiz-adv-x="825" 
d="M215 0l-140 140v265h575v120l-90 90h-430v85h475l140 -140v-420l-140 -140h-390zM260 85h300l90 90v145h-480v-145z" />
    <glyph glyph-name="uni04D9" unicode="&#x4d9;" horiz-adv-x="615" 
d="M170 0l-115 115v185h405v50l-65 65h-305v85h345l115 -115v-270l-115 -115h-265zM210 85h185l65 65v65h-315v-65z" />
    <glyph glyph-name="uni04E0" unicode="&#x4e0;" horiz-adv-x="685" 
d="M45 0v85h420l70 70v95l-70 70h-275v85l260 199v11h-395v85h550v-85l-265 -199v-11h170l120 -120v-165l-120 -120h-465z" />
    <glyph glyph-name="uni04E1" unicode="&#x4e1;" horiz-adv-x="530" 
d="M25 -200v85h310l65 65v100l-65 65h-205v85l215 201v14h-315v85h440v-85l-215 -201v-14h120l115 -115v-170l-115 -115h-350z" />
    <glyph glyph-name="uni04E2" unicode="&#x4e2;" horiz-adv-x="825" 
d="M260 783v75h305v-75h-305zM100 0v700h95v-610h13l357 610h160v-700h-95v610h-13l-357 -610h-160z" />
    <glyph glyph-name="uni04E3" unicode="&#x4e3;" horiz-adv-x="625" 
d="M160 613v75h305v-75h-305zM75 0v500h90v-405h15l227 405h143v-500h-90v405h-15l-227 -405h-143z" />
    <glyph glyph-name="uni04E6" unicode="&#x4e6;" horiz-adv-x="830" 
d="M267 770v100h100v-100h-100zM462 770v100h100v-100h-100zM220 0l-140 140v420l140 140h390l140 -140v-420l-140 -140h-390zM265 85h300l90 90v350l-90 90h-300l-90 -90v-350z" />
    <glyph glyph-name="uni04E7" unicode="&#x4e7;" horiz-adv-x="635" 
d="M170 600v100h100v-100h-100zM365 600v100h100v-100h-100zM180 0l-115 115v270l115 115h275l115 -115v-270l-115 -115h-275zM220 85h195l65 65v200l-65 65h-195l-65 -65v-200z" />
    <glyph glyph-name="uni04E8" unicode="&#x4e8;" horiz-adv-x="830" 
d="M610 700l140 -140v-420l-140 -140h-390l-140 140v420l140 140h390zM265 615l-90 -90v-133h480v133l-90 90h-300zM565 85l90 90v137h-480v-137l90 -90h300z" />
    <glyph glyph-name="uni04E9" unicode="&#x4e9;" horiz-adv-x="635" 
d="M455 500l115 -115v-270l-115 -115h-275l-115 115v270l115 115h275zM220 415l-65 -65v-61h325v61l-65 65h-195zM415 85l65 65v64h-325v-64l65 -65h195z" />
    <glyph glyph-name="uni04EE" unicode="&#x4ee;" horiz-adv-x="669" 
d="M190 783v75h305v-75h-305zM135 0v90h132l40 80l-282 495v35h90l231 -410h20l204 410h84v-35l-331 -665h-188z" />
    <glyph glyph-name="uni04EF" unicode="&#x4ef;" horiz-adv-x="605" 
d="M147 613v75h305v-75h-305zM95 -200v85h310l35 35v105h-16l-30 -25h-219l-105 105v395h90v-360l55 -55h154l71 59v356h90v-615l-85 -85h-350z" />
    <glyph glyph-name="uni04F0" unicode="&#x4f0;" horiz-adv-x="669" 
d="M195 770v100h100v-100h-100zM390 770v100h100v-100h-100zM135 0v90h132l40 80l-282 495v35h90l231 -410h20l204 410h84v-35l-331 -665h-188z" />
    <glyph glyph-name="uni04F1" unicode="&#x4f1;" horiz-adv-x="605" 
d="M152 600v100h100v-100h-100zM347 600v100h100v-100h-100zM95 -200v85h310l35 35v105h-16l-30 -25h-219l-105 105v395h90v-360l55 -55h154l71 59v356h90v-615l-85 -85h-350z" />
    <glyph glyph-name="Wgrave" unicode="&#x1e80;" horiz-adv-x="1043" 
d="M469 755l-69 125v10h94l51 -125v-10h-76zM247 0l-217 665v35h89l196 -610h20l143 437l-43 138v35h89l188 -610h19l196 610h86v-35l-214 -665h-157l-116 369h-8l-123 -369h-148z" />
    <glyph glyph-name="wgrave" unicode="&#x1e81;" horiz-adv-x="782" 
d="M340 560l-89 165v10h99l56 -165v-10h-66zM177 0l-157 470v30h86l134 -415h15l100 292l-27 93v30h81l120 -415h16l134 415h83v-30l-157 -470h-138l-69 235h-12l-80 -235h-129z" />
    <glyph glyph-name="Wacute" unicode="&#x1e82;" horiz-adv-x="1043" 
d="M473 755v10l51 125h94v-10l-69 -125h-76zM247 0l-217 665v35h89l196 -610h20l143 437l-43 138v35h89l188 -610h19l196 610h86v-35l-214 -665h-157l-116 369h-8l-123 -369h-148z" />
    <glyph glyph-name="wacute" unicode="&#x1e83;" horiz-adv-x="782" 
d="M339 560v10l61 165h94v-10l-89 -165h-66zM177 0l-157 470v30h86l134 -415h15l100 292l-27 93v30h81l120 -415h16l134 415h83v-30l-157 -470h-138l-69 235h-12l-80 -235h-129z" />
    <glyph glyph-name="Wdieresis" unicode="&#x1e84;" horiz-adv-x="1043" 
d="M361 770v100h100v-100h-100zM556 770v100h100v-100h-100zM247 0l-217 665v35h89l196 -610h20l143 437l-43 138v35h89l188 -610h19l196 610h86v-35l-214 -665h-157l-116 369h-8l-123 -369h-148z" />
    <glyph glyph-name="wdieresis" unicode="&#x1e85;" horiz-adv-x="782" 
d="M227 600v100h100v-100h-100zM422 600v100h100v-100h-100zM177 0l-157 470v30h86l134 -415h15l100 292l-27 93v30h81l120 -415h16l134 415h83v-30l-157 -470h-138l-69 235h-12l-80 -235h-129z" />
    <glyph glyph-name="uni1E9E" unicode="&#x1e9e;" horiz-adv-x="770" 
d="M100 0v580l120 120h445v-85l-165 -178v-12h100l120 -120v-185l-120 -120h-315v85h270l70 70v115l-70 70h-180v85l166 179v11h-276l-70 -70v-545h-95z" />
    <glyph glyph-name="Ygrave" unicode="&#x1ef2;" horiz-adv-x="710" 
d="M316 755l-69 125v10h94l51 -125v-10h-76zM308 0v245l-288 420v35h91l236 -345h22l235 345h86v-35l-287 -420v-245h-95z" />
    <glyph glyph-name="ygrave" unicode="&#x1ef3;" horiz-adv-x="605" 
d="M265 560l-89 165v10h99l56 -165v-10h-66zM95 -200v85h310l35 35v105h-16l-30 -25h-219l-105 105v395h90v-360l55 -55h154l71 59v356h90v-615l-85 -85h-350z" />
    <glyph glyph-name="endash" unicode="&#x2013;" horiz-adv-x="600" 
d="M50 235v80h500v-80h-500z" />
    <glyph glyph-name="emdash" unicode="&#x2014;" horiz-adv-x="950" 
d="M50 235v80h850v-80h-850z" />
    <glyph glyph-name="quoteleft" unicode="&#x2018;" horiz-adv-x="240" 
d="M170 700l-32 -150h42v-125h-120v105l55 170h55z" />
    <glyph glyph-name="quoteright" unicode="&#x2019;" horiz-adv-x="240" 
d="M70 425l32 150h-42v125h120v-105l-55 -170h-55z" />
    <glyph glyph-name="quotesinglbase" unicode="&#x201a;" horiz-adv-x="240" 
d="M70 -160l32 150h-42v125h120v-105l-55 -170h-55z" />
    <glyph glyph-name="quotedblleft" unicode="&#x201c;" horiz-adv-x="420" 
d="M170 700l-32 -150h42v-125h-120v105l55 170h55zM350 700l-32 -150h42v-125h-120v105l55 170h55z" />
    <glyph glyph-name="quotedblright" unicode="&#x201d;" horiz-adv-x="420" 
d="M70 425l32 150h-42v125h120v-105l-55 -170h-55zM250 425l32 150h-42v125h120v-105l-55 -170h-55z" />
    <glyph glyph-name="quotedblbase" unicode="&#x201e;" horiz-adv-x="420" 
d="M70 -160l32 150h-42v125h120v-105l-55 -170h-55zM250 -160l32 150h-42v125h120v-105l-55 -170h-55z" />
    <glyph glyph-name="dagger" unicode="&#x2020;" horiz-adv-x="665" 
d="M285 -50v530h-205v85h205v185h95v-185h205v-85h-205v-530h-95z" />
    <glyph glyph-name="daggerdbl" unicode="&#x2021;" horiz-adv-x="665" 
d="M285 -50v185h-205v85h205v260h-205v85h205v185h95v-185h205v-85h-205v-260h205v-85h-205v-185h-95z" />
    <glyph glyph-name="bullet" unicode="&#x2022;" horiz-adv-x="375" 
d="M120 225v130h135v-130h-135z" />
    <glyph glyph-name="ellipsis" unicode="&#x2026;" horiz-adv-x="935" 
d="M105 0v115h115v-115h-115zM410 0v115h115v-115h-115zM715 0v115h115v-115h-115z" />
    <glyph glyph-name="perthousand" unicode="&#x2030;" horiz-adv-x="1360" 
d="M145 370l-75 75v180l75 75h170l75 -75v-180l-75 -75h-170zM230 0v30l434 670h66v-30l-434 -670h-66zM180 440h100l35 35v120l-35 35h-100l-35 -35v-120zM645 0l-75 75v180l75 75h170l75 -75v-180l-75 -75h-170zM1045 0l-75 75v180l75 75h170l75 -75v-180l-75 -75h-170z
M680 70h100l35 35v120l-35 35h-100l-35 -35v-120zM1080 70h100l35 35v120l-35 35h-100l-35 -35v-120z" />
    <glyph glyph-name="guilsinglleft" unicode="&#x2039;" horiz-adv-x="415" 
d="M304 -10l-264 260l264 260l61 -61l-210 -199l210 -199z" />
    <glyph glyph-name="guilsinglright" unicode="&#x203a;" horiz-adv-x="415" 
d="M111 -10l-61 61l210 199l-210 199l61 61l264 -260z" />
    <glyph glyph-name="fraction" unicode="&#x2044;" horiz-adv-x="80" 
d="M-210 0v30l434 670h66v-30l-434 -670h-66z" />
    <glyph glyph-name="uni2070" unicode="&#x2070;" horiz-adv-x="390" 
d="M115 470l-70 70v190l70 70h160l70 -70v-190l-70 -70h-160zM150 535h90l35 35v130l-35 35h-90l-35 -35v-130z" />
    <glyph glyph-name="uni2074" unicode="&#x2074;" horiz-adv-x="360" 
d="M200 470v60h-210v60l195 210h85v-210h45v-60h-45v-60h-70zM70 590h130v140h-5l-125 -135v-5z" />
    <glyph glyph-name="uni2075" unicode="&#x2075;" horiz-adv-x="405" 
d="M60 470v65h205l25 25v30l-25 25h-200v185h275v-65h-205v-55h165l60 -60v-90l-60 -60h-240z" />
    <glyph glyph-name="uni2076" unicode="&#x2076;" horiz-adv-x="395" 
d="M105 470l-60 60v210l60 60h230v-65h-195l-25 -25v-25h185l55 -55v-100l-60 -60h-190zM140 535h120l25 25v40l-25 25h-145v-65z" />
    <glyph glyph-name="uni2077" unicode="&#x2077;" horiz-adv-x="335" 
d="M113 470v25l137 233v7h-200v65h290v-60l-154 -270h-73z" />
    <glyph glyph-name="uni2078" unicode="&#x2078;" horiz-adv-x="410" 
d="M100 470l-55 55v75l42 42l-32 33v70l55 55h190l55 -55v-70l-32 -33l42 -42v-75l-55 -55h-210zM150 667h110l25 25v23l-20 20h-120l-20 -20v-23zM135 535h140l20 20v28l-25 25h-130l-25 -25v-28z" />
    <glyph glyph-name="uni2079" unicode="&#x2079;" horiz-adv-x="395" 
d="M60 470v65h195l25 25v25h-185l-55 55v100l60 60h190l60 -60v-210l-60 -60h-230zM135 645h145v65l-25 25h-120l-25 -25v-40z" />
    <glyph glyph-name="uni2080" unicode="&#x2080;" horiz-adv-x="390" 
d="M115 -100l-70 70v190l70 70h160l70 -70v-190l-70 -70h-160zM150 -35h90l35 35v130l-35 35h-90l-35 -35v-130z" />
    <glyph glyph-name="uni2081" unicode="&#x2081;" horiz-adv-x="380" 
d="M70 -100v65h90v200h-85v65h155v-265h85v-65h-245z" />
    <glyph glyph-name="uni2082" unicode="&#x2082;" horiz-adv-x="400" 
d="M45 -100v130l65 65h155l25 25v20l-25 25h-210v65h245l60 -60v-80l-60 -60h-155l-30 -30v-35h235v-65h-305z" />
    <glyph glyph-name="uni2083" unicode="&#x2083;" horiz-adv-x="395" 
d="M45 -100v65h225l20 20v25l-25 25h-140v65h130l25 25v20l-20 20h-210v65h245l55 -55v-70l-31 -31l41 -41v-78l-55 -55h-260z" />
    <glyph glyph-name="uni2084" unicode="&#x2084;" horiz-adv-x="360" 
d="M200 -100v60h-210v60l195 210h85v-210h45v-60h-45v-60h-70zM70 20h130v140h-5l-125 -135v-5z" />
    <glyph glyph-name="uni2085" unicode="&#x2085;" horiz-adv-x="405" 
d="M60 -100v65h205l25 25v30l-25 25h-200v185h275v-65h-205v-55h165l60 -60v-90l-60 -60h-240z" />
    <glyph glyph-name="uni2086" unicode="&#x2086;" horiz-adv-x="395" 
d="M105 -100l-60 60v210l60 60h230v-65h-195l-25 -25v-25h185l55 -55v-100l-60 -60h-190zM140 -35h120l25 25v40l-25 25h-145v-65z" />
    <glyph glyph-name="uni2087" unicode="&#x2087;" horiz-adv-x="335" 
d="M113 -100v25l137 233v7h-200v65h290v-60l-154 -270h-73z" />
    <glyph glyph-name="uni2088" unicode="&#x2088;" horiz-adv-x="410" 
d="M100 -100l-55 55v75l42 42l-32 33v70l55 55h190l55 -55v-70l-32 -33l42 -42v-75l-55 -55h-210zM150 97h110l25 25v23l-20 20h-120l-20 -20v-23zM135 -35h140l20 20v28l-25 25h-130l-25 -25v-28z" />
    <glyph glyph-name="uni2089" unicode="&#x2089;" horiz-adv-x="395" 
d="M60 -100v65h195l25 25v25h-185l-55 55v100l60 60h190l60 -60v-210l-60 -60h-230zM135 75h145v65l-25 25h-120l-25 -25v-40z" />
    <glyph glyph-name="uni20A9" unicode="&#x20a9;" horiz-adv-x="943" 
d="M918 400h-102l-24 -95h126v-80h-147l-57 -225h-149l-88 354h-5l-96 -354h-142l-59 225h-150v80h129l-25 95h-104v80h83l-48 185v35h89l153 -610h10l123 445l-30 130v35h88l143 -610h10l151 610h86v-35l-47 -185h82v-80z" />
    <glyph glyph-name="Euro" unicode="&#x20ac;" horiz-adv-x="760" 
d="M285 0l-140 140v95h-90v80h90v70h-90v80h90v95l140 140h425v-85h-380l-90 -90v-60h305v-80h-305v-70h305v-80h-305v-60l90 -90h380v-85h-425z" />
    <glyph glyph-name="uni20B4" unicode="&#x20b4;" horiz-adv-x="750" 
d="M50 380v80h440l50 50v55l-50 50h-340v85h380l105 -105v-110l-25 -25h90v-80h-650zM220 0l-105 105v110l25 25h-90v80h650v-80h-440l-50 -50v-55l50 -50h365v-85h-405z" />
    <glyph glyph-name="uni20B8" unicode="&#x20b8;" horiz-adv-x="645" 
d="M10 620v80h625v-80h-625zM275 0v480h-265v85h625v-85h-265v-480h-95z" />
    <glyph glyph-name="uni20B9" unicode="&#x20b9;" horiz-adv-x="679" 
d="M484 0l-429 240v125h316l70 70v22h-386v75h386v18l-75 75h-311v75h569v-75h-138l50 -50v-43h88v-75h-88v-47l-125 -125h-246v-15l424 -235v-35h-105z" />
    <glyph glyph-name="uni20BA" unicode="&#x20ba;" horiz-adv-x="655" 
d="M545 305h90v-165l-140 -140h-378v253l-79 -28h-18v75l97 34v76l-79 -28h-18v75l97 34v209h95v-175l263 92h18v-75l-281 -99v-75l263 92h18v-75l-281 -99v-201h246l87 87v133z" />
    <glyph glyph-name="uni20BD" unicode="&#x20bd;" horiz-adv-x="805" 
d="M145 0v95h-85v80h85v80h-85v80h85v365h475l130 -130v-185l-130 -130h-380v-80h380v-80h-380v-95h-95zM240 340h335l80 80v115l-80 80h-335v-275z" />
    <glyph glyph-name="uni20BF" unicode="&#x20bf;" horiz-adv-x="780" 
d="M250 -100v100h-150v700h150v100h80v-100h70v100h80v-100h90l110 -110v-145l-67 -67l102 -103v-155l-120 -120h-115v-100h-80v100h-70v-100h-80zM195 405h325l65 65v85l-60 60h-330v-210zM195 85h355l70 70v95l-70 70h-355v-235z" />
    <glyph glyph-name="uni2113" unicode="&#x2113;" horiz-adv-x="440" 
d="M176 0l-55 55v160h-81v75h81v345l65 65h134l65 -65v-218l-184 -197v-130l15 -15h135v-75h-175zM201 340h13l91 97v163l-25 25h-54l-25 -25v-260z" />
    <glyph glyph-name="uni2116" unicode="&#x2116;" horiz-adv-x="1220" 
d="M100 0v700h170l345 -610h18v610h92v-700h-170l-345 610h-18v-610h-92zM915 370l-75 75v180l75 75h170l75 -75v-180l-75 -75h-170zM950 440h100l35 35v120l-35 35h-100l-35 -35v-120zM840 220v75h320v-75h-320z" />
    <glyph glyph-name="uni2117" unicode="&#x2117;" horiz-adv-x="1050" 
d="M270 -40l-160 160v450l160 160h510l160 -160v-450l-160 -160h-510zM315 40h420l115 115v380l-115 115h-420l-115 -115v-380zM370 150v390h270l75 -75v-120l-75 -75h-185v-120h-85zM455 350h145l30 30v50l-30 30h-145v-110z" />
    <glyph glyph-name="trademark" unicode="&#x2122;" horiz-adv-x="990" 
d="M165 310v315h-145v75h370v-75h-145v-315h-80zM450 310v390h130l100 -245h5l100 245h130v-390h-80v315h-5l-105 -255h-85l-105 255h-5v-315h-80z" />
    <glyph glyph-name="uni2126" unicode="&#x2126;" horiz-adv-x="890" 
d="M110 0v80h120v12l-120 108v360l140 140h390l140 -140v-360l-120 -108v-12h120v-80h-250v90l155 145v290l-90 90h-300l-90 -90v-290l155 -145v-90h-250z" />
    <glyph glyph-name="estimated" unicode="&#x212e;" horiz-adv-x="850" 
d="M440 -20q-163 0 -271.5 104.5t-108.5 255.5t106.5 255.5t263.5 104.5t263.5 -105t106.5 -260h-576q-14 0 -14 -15v-202q0 -48 75 -80.5t155 -32.5q46 0 89.5 13t73 31t53 38.5t34.5 34t13 18.5h57q-5 -8 -17.5 -23t-42 -40t-64 -45.5t-87.5 -36t-109 -15.5zM224 360h412
q14 0 14 15v190q0 34 -39.5 60t-88.5 38t-92 12q-73 0 -146.5 -30.5t-73.5 -79.5v-190q0 -15 14 -15z" />
    <glyph glyph-name="uni2150" unicode="&#x2150;" horiz-adv-x="795" 
d="M70 370v65h90v200h-85v65h155v-265h85v-65h-245zM170 0v30l434 670h66v-30l-434 -670h-66zM573 0v25l137 233v7h-200v65h290v-60l-154 -270h-73z" />
    <glyph glyph-name="uni2151" unicode="&#x2151;" horiz-adv-x="855" 
d="M70 370v65h90v200h-85v65h155v-265h85v-65h-245zM170 0v30l434 670h66v-30l-434 -670h-66zM520 0v65h195l25 25v25h-185l-55 55v100l60 60h190l60 -60v-210l-60 -60h-230zM595 175h145v65l-25 25h-120l-25 -25v-40z" />
    <glyph glyph-name="uni2152" unicode="&#x2152;" horiz-adv-x="1155" 
d="M70 370v65h90v200h-85v65h155v-265h85v-65h-245zM170 0v30l434 670h66v-30l-434 -670h-66zM530 0v65h90v200h-85v65h155v-265h85v-65h-245zM880 0l-70 70v190l70 70h160l70 -70v-190l-70 -70h-160zM915 65h90l35 35v130l-35 35h-90l-35 -35v-130z" />
    <glyph glyph-name="uni2153" unicode="&#x2153;" horiz-adv-x="855" 
d="M70 370v65h90v200h-85v65h155v-265h85v-65h-245zM170 0v30l434 670h66v-30l-434 -670h-66zM505 0v65h225l20 20v25l-25 25h-140v65h130l25 25v20l-20 20h-210v65h245l55 -55v-70l-31 -31l41 -41v-78l-55 -55h-260z" />
    <glyph glyph-name="uni2154" unicode="&#x2154;" horiz-adv-x="875" 
d="M45 370v130l65 65h155l25 25v20l-25 25h-210v65h245l60 -60v-80l-60 -60h-155l-30 -30v-35h235v-65h-305zM190 0v30l434 670h66v-30l-434 -670h-66zM525 0v65h225l20 20v25l-25 25h-140v65h130l25 25v20l-20 20h-210v65h245l55 -55v-70l-31 -31l41 -41v-78l-55 -55h-260z
" />
    <glyph glyph-name="uni2155" unicode="&#x2155;" horiz-adv-x="865" 
d="M70 370v65h90v200h-85v65h155v-265h85v-65h-245zM170 0v30l434 670h66v-30l-434 -670h-66zM520 0v65h205l25 25v30l-25 25h-200v185h275v-65h-205v-55h165l60 -60v-90l-60 -60h-240z" />
    <glyph glyph-name="uni2156" unicode="&#x2156;" horiz-adv-x="885" 
d="M45 370v130l65 65h155l25 25v20l-25 25h-210v65h245l60 -60v-80l-60 -60h-155l-30 -30v-35h235v-65h-305zM190 0v30l434 670h66v-30l-434 -670h-66zM540 0v65h205l25 25v30l-25 25h-200v185h275v-65h-205v-55h165l60 -60v-90l-60 -60h-240z" />
    <glyph glyph-name="uni2157" unicode="&#x2157;" horiz-adv-x="880" 
d="M45 370v65h225l20 20v25l-25 25h-140v65h130l25 25v20l-20 20h-210v65h245l55 -55v-70l-31 -31l41 -41v-78l-55 -55h-260zM185 0v30l434 670h66v-30l-434 -670h-66zM535 0v65h205l25 25v30l-25 25h-200v185h275v-65h-205v-55h165l60 -60v-90l-60 -60h-240z" />
    <glyph glyph-name="uni2158" unicode="&#x2158;" horiz-adv-x="845" 
d="M200 370v60h-210v60l195 210h85v-210h45v-60h-45v-60h-70zM150 0v30l434 670h66v-30l-434 -670h-66zM70 490h130v140h-5l-125 -135v-5zM500 0v65h205l25 25v30l-25 25h-200v185h275v-65h-205v-55h165l60 -60v-90l-60 -60h-240z" />
    <glyph glyph-name="uni2159" unicode="&#x2159;" horiz-adv-x="855" 
d="M70 370v65h90v200h-85v65h155v-265h85v-65h-245zM170 0v30l434 670h66v-30l-434 -670h-66zM565 0l-60 60v210l60 60h230v-65h-195l-25 -25v-25h185l55 -55v-100l-60 -60h-190zM600 65h120l25 25v40l-25 25h-145v-65z" />
    <glyph glyph-name="uni215A" unicode="&#x215a;" horiz-adv-x="880" 
d="M60 370v65h205l25 25v30l-25 25h-200v185h275v-65h-205v-55h165l60 -60v-90l-60 -60h-240zM195 0v30l434 670h66v-30l-434 -670h-66zM590 0l-60 60v210l60 60h230v-65h-195l-25 -25v-25h185l55 -55v-100l-60 -60h-190zM625 65h120l25 25v40l-25 25h-145v-65z" />
    <glyph glyph-name="oneeighth" unicode="&#x215b;" horiz-adv-x="870" 
d="M70 370v65h90v200h-85v65h155v-265h85v-65h-245zM170 0v30l434 670h66v-30l-434 -670h-66zM560 0l-55 55v75l42 42l-32 33v70l55 55h190l55 -55v-70l-32 -33l42 -42v-75l-55 -55h-210zM610 197h110l25 25v23l-20 20h-120l-20 -20v-23zM595 65h140l20 20v28l-25 25h-130
l-25 -25v-28z" />
    <glyph glyph-name="threeeighths" unicode="&#x215c;" horiz-adv-x="885" 
d="M45 370v65h225l20 20v25l-25 25h-140v65h130l25 25v20l-20 20h-210v65h245l55 -55v-70l-31 -31l41 -41v-78l-55 -55h-260zM185 0v30l434 670h66v-30l-434 -670h-66zM575 0l-55 55v75l42 42l-32 33v70l55 55h190l55 -55v-70l-32 -33l42 -42v-75l-55 -55h-210zM625 197h110
l25 25v23l-20 20h-120l-20 -20v-23zM610 65h140l20 20v28l-25 25h-130l-25 -25v-28z" />
    <glyph glyph-name="fiveeighths" unicode="&#x215d;" horiz-adv-x="895" 
d="M60 370v65h205l25 25v30l-25 25h-200v185h275v-65h-205v-55h165l60 -60v-90l-60 -60h-240zM195 0v30l434 670h66v-30l-434 -670h-66zM585 0l-55 55v75l42 42l-32 33v70l55 55h190l55 -55v-70l-32 -33l42 -42v-75l-55 -55h-210zM635 197h110l25 25v23l-20 20h-120l-20 -20
v-23zM620 65h140l20 20v28l-25 25h-130l-25 -25v-28z" />
    <glyph glyph-name="seveneighths" unicode="&#x215e;" horiz-adv-x="825" 
d="M113 370v25l137 233v7h-200v65h290v-60l-154 -270h-73zM125 0v30l434 670h66v-30l-434 -670h-66zM515 0l-55 55v75l42 42l-32 33v70l55 55h190l55 -55v-70l-32 -33l42 -42v-75l-55 -55h-210zM565 197h110l25 25v23l-20 20h-120l-20 -20v-23zM550 65h140l20 20v28l-25 25
h-130l-25 -25v-28z" />
    <glyph glyph-name="uni215F" unicode="&#x215f;" horiz-adv-x="460" 
d="M70 370v65h90v200h-85v65h155v-265h85v-65h-245zM170 0v30l434 670h66v-30l-434 -670h-66z" />
    <glyph glyph-name="arrowleft" unicode="&#x2190;" horiz-adv-x="1040" 
d="M420 45l-305 305l305 305l55 -55l-200 -200v-10h650v-80h-650v-10l200 -200z" />
    <glyph glyph-name="arrowup" unicode="&#x2191;" horiz-adv-x="1040" 
d="M480 -50v650h-10l-200 -200l-55 55l305 305l305 -305l-55 -55l-200 200h-10v-650h-80z" />
    <glyph glyph-name="arrowright" unicode="&#x2192;" horiz-adv-x="1040" 
d="M620 45l-55 55l200 200v10h-650v80h650v10l-200 200l55 55l305 -305z" />
    <glyph glyph-name="arrowdown" unicode="&#x2193;" horiz-adv-x="1040" 
d="M520 -60l-305 305l55 55l200 -200h10v650h80v-650h10l200 200l55 -55z" />
    <glyph glyph-name="arrowboth" unicode="&#x2194;" horiz-adv-x="1040" 
d="M365 45l-305 305l305 305l55 -55l-200 -200v-10h600v10l-200 200l55 55l305 -305l-305 -305l-55 55l200 200v10h-600v-10l200 -200z" />
    <glyph glyph-name="uni2196" unicode="&#x2196;" horiz-adv-x="1040" 
d="M799 39l-459 459l-7 -7v-283h-78v432h431v-78h-283l-7 -7l460 -460z" />
    <glyph glyph-name="uni2197" unicode="&#x2197;" horiz-adv-x="1040" 
d="M241 39l-57 56l460 460l-7 7h-283v78h431v-432h-78v283l-7 7z" />
    <glyph glyph-name="uni2198" unicode="&#x2198;" horiz-adv-x="1040" 
d="M354 60v78h283l7 7l-460 460l57 56l459 -459l7 7v283h78v-432h-431z" />
    <glyph glyph-name="uni2199" unicode="&#x2199;" horiz-adv-x="1040" 
d="M255 60v432h78v-283l7 -7l459 459l57 -56l-460 -460l7 -7h283v-78h-431z" />
    <glyph glyph-name="partialdiff" unicode="&#x2202;" horiz-adv-x="610" 
d="M175 0l-115 115v225l115 115h270v60l-100 100h-225v85h265l150 -150v-425l-125 -125h-235zM215 85h155l75 75v210h-230l-65 -65v-155z" />
    <glyph glyph-name="emptyset" unicode="&#x2205;" horiz-adv-x="888" 
d="M798 720v-40l-66 -73l47 -47v-420l-140 -140h-390l-36 36l-51 -56h-72v40l66 73l-47 47v420l140 140h390l36 -36l51 56h72zM204 525v-350l14 -14l395 435l-19 19h-300zM684 175v350l-14 14l-395 -435l19 -19h300z" />
    <glyph glyph-name="uni2206" unicode="&#x2206;" horiz-adv-x="711" 
d="M60 0v91l247 609h97l247 -609v-91h-591zM166 90h382v15l-185 467h-12l-185 -467v-15z" />
    <glyph glyph-name="product" unicode="&#x220f;" horiz-adv-x="815" 
d="M190 -100v715h-90v85h615v-85h-90v-715h-95v715h-245v-715h-95z" />
    <glyph glyph-name="summation" unicode="&#x2211;" horiz-adv-x="615" 
d="M60 -100v110l275 292v10l-275 278v110h520v-85h-405v-15l257 -260v-60l-262 -280v-15h415v-85h-525z" />
    <glyph glyph-name="minus" unicode="&#x2212;" horiz-adv-x="580" 
d="M45 310v80h490v-80h-490z" />
    <glyph glyph-name="radical" unicode="&#x221a;" horiz-adv-x="710" 
d="M245 -110l-107 270h-113v90h180l100 -260h15l285 820h85v-30l-310 -890h-135z" />
    <glyph glyph-name="infinity" unicode="&#x221e;" horiz-adv-x="906" 
d="M155 150l-85 85v180l85 85h175l123 -123l123 123h175l85 -85v-180l-85 -85h-175l-123 123l-123 -123h-175zM195 225h106l100 100l-100 100h-106l-45 -45v-110zM605 225h106l45 45v110l-45 45h-106l-100 -100z" />
    <glyph glyph-name="integral" unicode="&#x222b;" horiz-adv-x="390" 
d="M40 -100v80h100l10 10v750l60 60h140v-80h-100l-10 -10v-750l-60 -60h-140z" />
    <glyph glyph-name="approxequal" unicode="&#x2248;" horiz-adv-x="580" 
d="M63 365v75l65 65h145l70 -70h75l25 25v45h75v-75l-65 -65h-140l-70 70h-80l-25 -25v-45h-75zM63 200v75l65 65h145l70 -70h75l25 25v45h75v-75l-65 -65h-140l-70 70h-80l-25 -25v-45h-75z" />
    <glyph glyph-name="notequal" unicode="&#x2260;" horiz-adv-x="580" 
d="M525 405h-170l-47 -110h217v-80h-251l-49 -115h-75v19l41 96h-136v80h170l47 110h-217v80h251l49 115h75v-19l-41 -96h136v-80z" />
    <glyph glyph-name="lessequal" unicode="&#x2264;" horiz-adv-x="460" 
d="M330 120l-290 290l290 290l58 -58l-233 -232l233 -232zM40 0v80h390v-80h-390z" />
    <glyph glyph-name="greaterequal" unicode="&#x2265;" horiz-adv-x="460" 
d="M130 120l-58 58l233 232l-233 232l58 58l290 -290zM420 0h-390v80h390v-80z" />
    <glyph glyph-name="uni2460" unicode="&#x2460;" horiz-adv-x="1030" 
d="M275 -60l-180 180v450l180 180h480l180 -180v-450l-180 -180h-480zM320 15h390l140 140v380l-140 140h-390l-140 -140v-380zM410 180v65h90v200h-85v65h155v-265h85v-65h-245z" />
    <glyph glyph-name="uni2461" unicode="&#x2461;" horiz-adv-x="1030" 
d="M275 -60l-180 180v450l180 180h480l180 -180v-450l-180 -180h-480zM320 15h390l140 140v380l-140 140h-390l-140 -140v-380zM370 180v130l65 65h155l25 25v20l-25 25h-210v65h245l60 -60v-80l-60 -60h-155l-30 -30v-35h235v-65h-305z" />
    <glyph glyph-name="uni2462" unicode="&#x2462;" horiz-adv-x="1030" 
d="M275 -60l-180 180v450l180 180h480l180 -180v-450l-180 -180h-480zM320 15h390l140 140v380l-140 140h-390l-140 -140v-380zM370 180v65h225l20 20v25l-25 25h-140v65h130l25 25v20l-20 20h-210v65h245l55 -55v-70l-31 -31l41 -41v-78l-55 -55h-260z" />
    <glyph glyph-name="uni2463" unicode="&#x2463;" horiz-adv-x="1030" 
d="M275 -60l-180 180v450l180 180h480l180 -180v-450l-180 -180h-480zM320 15h390l140 140v380l-140 140h-390l-140 -140v-380zM550 180v60h-210v60l195 210h85v-210h45v-60h-45v-60h-70zM420 300h130v140h-5l-125 -135v-5z" />
    <glyph glyph-name="uni2464" unicode="&#x2464;" horiz-adv-x="1030" 
d="M275 -60l-180 180v450l180 180h480l180 -180v-450l-180 -180h-480zM320 15h390l140 140v380l-140 140h-390l-140 -140v-380zM375 180v65h205l25 25v30l-25 25h-200v185h275v-65h-205v-55h165l60 -60v-90l-60 -60h-240z" />
    <glyph glyph-name="uni2465" unicode="&#x2465;" horiz-adv-x="1030" 
d="M275 -60l-180 180v450l180 180h480l180 -180v-450l-180 -180h-480zM320 15h390l140 140v380l-140 140h-390l-140 -140v-380zM420 180l-60 60v210l60 60h230v-65h-195l-25 -25v-25h185l55 -55v-100l-60 -60h-190zM455 245h120l25 25v40l-25 25h-145v-65z" />
    <glyph glyph-name="uni2466" unicode="&#x2466;" horiz-adv-x="1030" 
d="M275 -60l-180 180v450l180 180h480l180 -180v-450l-180 -180h-480zM320 15h390l140 140v380l-140 140h-390l-140 -140v-380zM438 180v25l137 233v7h-200v65h290v-60l-154 -270h-73z" />
    <glyph glyph-name="uni2467" unicode="&#x2467;" horiz-adv-x="1030" 
d="M275 -60l-180 180v450l180 180h480l180 -180v-450l-180 -180h-480zM320 15h390l140 140v380l-140 140h-390l-140 -140v-380zM410 180l-55 55v75l42 42l-32 33v70l55 55h190l55 -55v-70l-32 -33l42 -42v-75l-55 -55h-210zM460 377h110l25 25v23l-20 20h-120l-20 -20v-23z
M445 245h140l20 20v28l-25 25h-130l-25 -25v-28z" />
    <glyph glyph-name="uni2468" unicode="&#x2468;" horiz-adv-x="1030" 
d="M275 -60l-180 180v450l180 180h480l180 -180v-450l-180 -180h-480zM320 15h390l140 140v380l-140 140h-390l-140 -140v-380zM380 180v65h195l25 25v25h-185l-55 55v100l60 60h190l60 -60v-210l-60 -60h-230zM455 355h145v65l-25 25h-120l-25 -25v-40z" />
    <glyph glyph-name="uni2469" unicode="&#x2469;" horiz-adv-x="1030" 
d="M275 -60l-180 180v450l180 180h480l180 -180v-450l-180 -180h-480zM320 15h390l140 140v380l-140 140h-390l-140 -140v-380zM265 180v65h70v200h-65v65h135v-265h60v-65h-200zM555 180l-70 70v190l70 70h150l70 -70v-190l-70 -70h-150zM590 245h80l35 35v130l-35 35h-80
l-35 -35v-130z" />
    <glyph glyph-name="uni24EA" unicode="&#x24ea;" horiz-adv-x="1030" 
d="M275 -60l-180 180v450l180 180h480l180 -180v-450l-180 -180h-480zM320 15h390l140 140v380l-140 140h-390l-140 -140v-380zM435 180l-70 70v190l70 70h160l70 -70v-190l-70 -70h-160zM470 245h90l35 35v130l-35 35h-90l-35 -35v-130z" />
    <glyph glyph-name="uni24FF" unicode="&#x24ff;" horiz-adv-x="1030" 
d="M275 -60l-180 180v450l180 180h480l180 -180v-450l-180 -180h-480zM430 180h170l70 70v190l-70 70h-170l-70 -70v-190zM465 245l-35 35v130l35 35h100l35 -35v-130l-35 -35h-100z" />
    <glyph glyph-name="lozenge" unicode="&#x25ca;" horiz-adv-x="585" 
d="M252 0l-212 350l212 350h81l212 -350l-212 -350h-81zM286 85h12l162 265l-162 265h-12l-161 -265z" />
    <glyph glyph-name="uni2776" unicode="&#x2776;" horiz-adv-x="1030" 
d="M275 -60l-180 180v450l180 180h480l180 -180v-450l-180 -180h-480zM410 180h245v65h-85v265h-155v-65h85v-200h-90v-65z" />
    <glyph glyph-name="uni2777" unicode="&#x2777;" horiz-adv-x="1030" 
d="M275 -60l-180 180v450l180 180h480l180 -180v-450l-180 -180h-480zM370 180h305v65h-235v35l30 30h155l60 60v80l-60 60h-245v-65h210l25 -25v-20l-25 -25h-155l-65 -65v-130z" />
    <glyph glyph-name="uni2778" unicode="&#x2778;" horiz-adv-x="1030" 
d="M275 -60l-180 180v450l180 180h480l180 -180v-450l-180 -180h-480zM370 180h260l55 55v75l-42 42l32 33v70l-55 55h-245v-65h210l20 -20v-20l-25 -25h-130v-65h140l25 -25v-25l-20 -20h-225v-65z" />
    <glyph glyph-name="uni2779" unicode="&#x2779;" horiz-adv-x="1030" 
d="M275 -60l-180 180v450l180 180h480l180 -180v-450l-180 -180h-480zM550 180h70v60h45v65h-45v205h-85l-205 -210v-60h220v-60zM420 305v5l125 130h5v-135h-130z" />
    <glyph glyph-name="uni277A" unicode="&#x277a;" horiz-adv-x="1030" 
d="M275 -60l-180 180v450l180 180h480l180 -180v-450l-180 -180h-480zM375 180h240l60 60v90l-60 60h-165v55h205v65h-275v-185h200l25 -25v-30l-25 -25h-205v-65z" />
    <glyph glyph-name="uni277B" unicode="&#x277b;" horiz-adv-x="1030" 
d="M275 -60l-180 180v450l180 180h480l180 -180v-450l-180 -180h-480zM420 180h190l60 60v100l-55 55h-185v25l25 25h195v65h-230l-60 -60v-210zM455 245l-25 25v65h145l25 -25v-40l-25 -25h-120z" />
    <glyph glyph-name="uni277C" unicode="&#x277c;" horiz-adv-x="1030" 
d="M275 -60l-180 180v450l180 180h480l180 -180v-450l-180 -180h-480zM439 180h71l155 270v60h-290v-65h200v-5l-136 -235v-25z" />
    <glyph glyph-name="uni277D" unicode="&#x277d;" horiz-adv-x="1030" 
d="M275 -60l-180 180v450l180 180h480l180 -180v-450l-180 -180h-480zM410 180h210l55 55v75l-42 42l32 33v70l-55 55h-190l-55 -55v-70l32 -33l-42 -42v-75zM460 377l-25 25v23l20 20h120l20 -20v-23l-25 -25h-110zM445 245l-20 20v28l25 25h130l25 -25v-28l-20 -20h-140z
" />
    <glyph glyph-name="uni277E" unicode="&#x277e;" horiz-adv-x="1030" 
d="M275 -60l-180 180v450l180 180h480l180 -180v-450l-180 -180h-480zM380 180h230l60 60v210l-60 60h-190l-60 -60v-100l55 -55h185v-25l-25 -25h-195v-65zM455 355l-25 25v40l25 25h120l25 -25v-65h-145z" />
    <glyph glyph-name="uni277F" unicode="&#x277f;" horiz-adv-x="1030" 
d="M275 -60l-180 180v450l180 180h480l180 -180v-450l-180 -180h-480zM262 180h198v65h-58v265h-135v-65h65v-200h-70v-65zM560 180h148l70 70v190l-70 70h-148l-70 -70v-190zM595 245l-35 35v130l35 35h78l35 -35v-130l-35 -35h-78z" />
    <glyph glyph-name="uni2B6E" unicode="&#x2b6e;" horiz-adv-x="1040" 
d="M325 0l-110 110v388l110 110h210v10l-82 77l53 52l179 -179l-181 -181l-53 52l84 79v10h-180l-60 -60v-328l60 -60h340l60 60v332h80v-362l-110 -110h-400z" />
    <glyph glyph-name="uni2B80" unicode="&#x2b80;" horiz-adv-x="1040" 
d="M296 355l-181 180l180 180l53 -53l-83 -77v-14h510v15l-82 77l53 52l179 -179l-181 -181l-53 52l84 79v13h-510v-14l84 -77zM296 -15l-181 180l180 180l53 -53l-83 -77v-14h510v15l-82 77l53 52l179 -179l-181 -181l-53 52l84 79v13h-510v-14l84 -77z" />
    <glyph glyph-name="uni2B81" unicode="&#x2b81;" horiz-adv-x="1040" 
d="M279 0v575h-10l-134 -135l-55 55l239 240l244 -244l-55 -55l-139 139h-10v-575h-80zM716 -35l-239 240l55 55l134 -135h10v575h80v-575h10l139 139l55 -55z" />
    <glyph glyph-name="uni2B82" unicode="&#x2b82;" horiz-adv-x="1040" 
d="M661 307l-55 55l139 139v10h-575v80h575v10l-135 134l55 55l240 -239zM379 -90l-244 244l240 239l55 -55l-135 -134v-10h575v-80h-575v-10l139 -139z" />
    <glyph glyph-name="uni2B83" unicode="&#x2b83;" horiz-adv-x="1040" 
d="M681 0v575h-10l-139 -139l-55 55l244 244l239 -240l-55 -55l-134 135h-10v-575h-80zM324 -35l-244 244l55 55l139 -139h10v575h80v-575h10l134 135l55 -55z" />
    <glyph glyph-name="brevecombcy.case" unicode="&#xf6d1;" 
d="M-295 755l-55 55v75h75v-45l20 -20h130l20 20v45h75v-75l-55 -55h-210z" />
    <glyph glyph-name="brevecomb-cy" unicode="&#xf6d4;" 
d="M-290 560l-55 55v105h75v-75l20 -20h125l20 20v75h75v-105l-55 -55h-205z" />
    <glyph glyph-name="zero.osf" unicode="&#xf730;" horiz-adv-x="635" 
d="M180 0l-115 115v270l115 115h275l115 -115v-270l-115 -115h-275zM220 85h195l65 65v200l-65 65h-195l-65 -65v-200z" />
    <glyph glyph-name="one.osf" unicode="&#xf731;" horiz-adv-x="485" 
d="M25 0v85h200v330h-175v85h265v-415h185v-85h-475z" />
    <glyph glyph-name="two.osf" unicode="&#xf732;" horiz-adv-x="590" 
d="M45 0v190l100 100h265l40 40v50l-40 40h-345v80h390l85 -85v-120l-85 -85h-265l-55 -55v-70h400v-85h-490z" />
    <glyph glyph-name="three.osf" unicode="&#xf733;" horiz-adv-x="560" 
d="M30 -140v80h315l70 70v75l-70 70h-220v80h205l65 65v60l-60 60h-295v80h340l105 -105v-120l-72 -72l92 -93v-135l-115 -115h-360z" />
    <glyph glyph-name="four.osf" unicode="&#xf734;" horiz-adv-x="610" 
d="M410 -140v160h-375v119l324 361h136v-400h90v-80h-90v-160h-85zM120 100h290v320h-15l-275 -305v-15z" />
    <glyph glyph-name="five.osf" unicode="&#xf735;" horiz-adv-x="585" 
d="M60 -140v80h310l70 70v95l-70 70h-290v325h420v-80h-330v-165h245l115 -115v-165l-115 -115h-355z" />
    <glyph glyph-name="six.osf" unicode="&#xf736;" horiz-adv-x="615" 
d="M450 425l115 -115v-195l-115 -115h-280l-115 115v189l255 336h86v-29l-131 -173v-13h185zM475 150v125l-70 70h-210l-50 -66v-129l65 -65h200z" />
    <glyph glyph-name="seven.osf" unicode="&#xf737;" horiz-adv-x="570" 
d="M160 -140v195l275 280v80h-420v85h510v-195l-275 -280v-165h-90z" />
    <glyph glyph-name="eight.osf" unicode="&#xf738;" horiz-adv-x="640" 
d="M165 0l-100 100v155l83 83l-63 62v145l95 95h280l95 -95v-145l-63 -62l83 -83v-155l-100 -100h-310zM230 370h180l55 55v85l-50 50h-190l-50 -50v-85zM210 80h220l55 55v95l-60 60h-210l-60 -60v-95z" />
    <glyph glyph-name="nine.osf" unicode="&#xf739;" horiz-adv-x="615" 
d="M445 500l115 -115v-189l-255 -336h-86v29l131 173v13h-185l-115 115v195l115 115h280zM470 221v129l-65 65h-200l-65 -65v-125l70 -70h210z" />
    <glyph glyph-name="A_A" horiz-adv-x="1575" 
d="M1240 700l310 -665v-35h-90l-87 190h-409l-87 -190h-182l-87 190h-409l-87 -190h-87v35l305 665h145l296 -635h33l291 635h145zM238 275h330l-156 340h-18zM1003 275h330l-156 340h-18z" />
    <glyph glyph-name="Adieresis_Adieresis" horiz-adv-x="1575" 
d="M355 870v-100h-100v100h100zM550 870v-100h-100v100h100zM1120 870v-100h-100v100h100zM1315 870v-100h-100v100h100zM1240 700l310 -665v-35h-90l-87 190h-409l-87 -190h-182l-87 190h-409l-87 -190h-87v35l305 665h145l296 -635h33l291 635h145zM238 275h330l-156 340
h-18zM1003 275h330l-156 340h-18z" />
    <glyph glyph-name="E_E" horiz-adv-x="1430" 
d="M100 0v700h575v-85h-480v-220h370v-85h-370v-228h605v618h580v-85h-485v-220h375v-85h-375v-228h495v-82h-1290z" />
    <glyph glyph-name="F_l" horiz-adv-x="915" 
d="M100 0v700h735v-700h-90v615h-550v-245h365v-85h-365v-285h-95z" />
    <glyph glyph-name="M_M" horiz-adv-x="1715" 
d="M100 0v700h170l223 -470h19l223 470h245l223 -470h19l223 470h170v-700h-95v610h-17l-223 -470h-135l-223 470h-17v-610h-95v610h-17l-223 -470h-135l-223 470h-17v-610h-95z" />
    <glyph glyph-name="N_N" horiz-adv-x="1398" 
d="M100 0v700h165l370 -610h18v610h165l370 -610h18v610h92v-700h-165l-370 610h-18v-610h-165l-370 610h-18v-610h-92z" />
    <glyph glyph-name="T_T" horiz-adv-x="1260" 
d="M285 0v615h-275v85h1240v-85h-275v-615h-95v615h-500v-615h-95z" />
    <glyph glyph-name="_ijdotless" horiz-adv-x="480" 
d="M75 -200v85h225l15 15v600h90v-635l-65 -65h-265zM75 0v500h90v-500h-90z" />
    <glyph glyph-name="snglring" horiz-adv-x="1030" 
d="M275 -60l-180 180v450l180 180h480l180 -180v-450l-180 -180h-480zM320 15h390l140 140v380l-140 140h-390l-140 -140v-380z" />
    <glyph glyph-name="i.loclTRK" horiz-adv-x="240" 
d="M70 600v100h100v-100h-100zM75 0v500h90v-500h-90z" />
    <glyph glyph-name="j.alt" horiz-adv-x="240" 
d="M70 600v100h100v-100h-100zM75 -200v700h90v-700h-90z" />
    <glyph glyph-name="jcircumflex.alt" horiz-adv-x="240" 
d="M-47 560v24l121 146h94l119 -144v-26h-79l-82 105h-11l-82 -105h-80zM75 -200v700h90v-700h-90z" />
    <glyph glyph-name="uni0237.alt" horiz-adv-x="240" 
d="M75 -200v700h90v-700h-90z" />
    <glyph glyph-name="uni0308.alt" 
d="M-285 600v100h100v-100h-100zM-130 600v100h100v-100h-100z" />
    <glyph glyph-name="uni0308.alt.case" 
d="M-285 770v100h100v-100h-100zM-130 770v100h100v-100h-100z" />
    <glyph glyph-name="uni030C.alt" 
d="M-129 550v10l7 170h92v-10l-37 -170h-62z" />
    <glyph glyph-name="uni0328.alt" 
d="M-140 -200l-45 45v92l109 109l39 -46l-78 -78v-42l10 -10h75v-70h-110z" />
    <glyph glyph-name="uni0492.balt" horiz-adv-x="655" 
d="M635 615h-440v-248h321v-80h-321v-287h-95v700h535v-85z" />
    <glyph glyph-name="uni0493.balt" horiz-adv-x="470" 
d="M455 415h-290v-153h215v-75h-215v-187h-90v500h380v-85z" />
    <glyph glyph-name="uni04AA.balt" horiz-adv-x="710" 
d="M265 615l-90 -90v-350l90 -90h395v-85h-215l-10 -27v-8h40l50 -50v-65l-50 -50h-150v60h120l10 10v25l-10 10h-90v30l20 65h-155l-140 140v420l140 140h440v-85h-395z" />
    <glyph glyph-name="uni04AB.balt" horiz-adv-x="550" 
d="M220 415l-65 -65v-200l65 -65h280v-85h-150l-10 -27v-8h40l50 -50v-65l-50 -50h-150v60h120l10 10v25l-10 10h-90v30l20 65h-100l-115 115v270l115 115h320v-85h-280z" />
    <glyph glyph-name="colon.calt" horiz-adv-x="285" 
d="M85 465v115h115v-115h-115zM85 80v115h115v-115h-115z" />
    <glyph glyph-name="parenleft.case" horiz-adv-x="385" 
d="M205 -145l-105 105v750l105 105h120v-85h-75l-55 -55v-680l55 -55h75v-85h-120z" />
    <glyph glyph-name="parenright.case" horiz-adv-x="385" 
d="M60 -145v85h75l55 55v680l-55 55h-75v85h120l105 -105v-750l-105 -105h-120z" />
    <glyph glyph-name="hyphen.case" horiz-adv-x="440" 
d="M70 295v90h300v-90h-300z" />
    <glyph glyph-name="at.case" horiz-adv-x="985" 
d="M240 -65l-160 160v480l160 160h515l160 -160v-335l-100 -100h-140l-55 55l-55 -55h-165l-95 95v200l95 95h265v-265l45 -45h60l50 50v270l-110 110h-425l-110 -110v-410l110 -110h535v-85h-580zM445 220h85l45 45v185h-130l-50 -50v-130z" />
    <glyph glyph-name="bracketleft.case" horiz-adv-x="390" 
d="M100 -145v960h230v-85h-135v-790h135v-85h-230z" />
    <glyph glyph-name="bracketright.case" horiz-adv-x="390" 
d="M60 -145v85h135v790h-135v85h230v-960h-230z" />
    <glyph glyph-name="braceleft.case" horiz-adv-x="415" 
d="M240 -145l-105 105v333h-80v84h80v333l105 105h115v-85h-70l-55 -55v-680l55 -55h70v-85h-115z" />
    <glyph glyph-name="braceright.case" horiz-adv-x="415" 
d="M60 -145v85h70l55 55v680l-55 55h-70v85h115l105 -105v-333h80v-84h-80v-333l-105 -105h-115z" />
    <glyph glyph-name="exclamdown.case" horiz-adv-x="335" 
d="M110 585v115h115v-115h-115zM120 0v340l15 160h65l15 -160v-340h-95z" />
    <glyph glyph-name="guillemotleft.case" horiz-adv-x="609" 
d="M259 70l-219 260l219 260l65 -50l-177 -210l177 -210zM494 70l-219 260l219 260l65 -50l-177 -210l177 -210z" />
    <glyph glyph-name="periodcentered.case" horiz-adv-x="340" 
d="M112 295v115h115v-115h-115z" />
    <glyph glyph-name="guillemotright.case" horiz-adv-x="609" 
d="M115 70l-65 50l177 210l-177 210l65 50l219 -260zM350 70l-65 50l177 210l-177 210l65 50l219 -260z" />
    <glyph glyph-name="questiondown.case" horiz-adv-x="670" 
d="M345 585v115h115v-115h-115zM200 0l-120 120v170l120 120h139l14 14v76h100v-115l-60 -60h-148l-70 -70v-100l70 -70h355v-85h-400z" />
    <glyph glyph-name="gravecomb.case" 
d="M-106 755l-69 125v10h94l51 -125v-10h-76z" />
    <glyph glyph-name="acutecomb.case" 
d="M-175 755v10l51 125h94v-10l-69 -125h-76z" />
    <glyph glyph-name="uni0302.case" 
d="M-364 755v24l121 106h94l119 -104v-26h-86l-75 70h-11l-75 -70h-87z" />
    <glyph glyph-name="tildecomb.case" 
d="M-385 755v65l55 55h100l60 -55h50l15 15v40h75v-65l-55 -55h-110l-60 55h-40l-15 -15v-40h-75z" />
    <glyph glyph-name="uni0304.case" 
d="M-335 783v75h305v-75h-305z" />
    <glyph glyph-name="uni0306.case" 
d="M-295 755l-55 55v75h75v-45l20 -20h130l20 20v45h75v-75l-55 -55h-210z" />
    <glyph glyph-name="uni0307.case" 
d="M-130 770v100h100v-100h-100z" />
    <glyph glyph-name="uni0308.case" 
d="M-325 770v100h100v-100h-100zM-130 770v100h100v-100h-100z" />
    <glyph glyph-name="uni030A.case" 
d="M-215 730l-55 55v100l55 55h130l55 -55v-100l-55 -55h-130zM-185 790h70l20 20v50l-20 20h-70l-20 -20v-50z" />
    <glyph glyph-name="uni030B.case" 
d="M-316 755v10l41 125h89v-10l-59 -125h-71zM-161 755v10l41 125h90v-10l-60 -125h-71z" />
    <glyph glyph-name="uni030C.case" 
d="M-243 755l-121 106v24h87l75 -70h11l75 70h86v-26l-119 -104h-94z" />
    <glyph glyph-name="endash.case" horiz-adv-x="600" 
d="M50 300v80h500v-80h-500z" />
    <glyph glyph-name="emdash.case" horiz-adv-x="950" 
d="M50 300v80h850v-80h-850z" />
    <glyph glyph-name="bullet.case" horiz-adv-x="375" 
d="M120 290v130h135v-130h-135z" />
    <glyph glyph-name="guilsinglleft.case" horiz-adv-x="415" 
d="M304 70l-264 260l264 260l61 -61l-210 -199l210 -199z" />
    <glyph glyph-name="guilsinglright.case" horiz-adv-x="415" 
d="M111 70l-61 61l210 199l-210 199l61 61l264 -260z" />
    <glyph glyph-name="dollar.dnom" horiz-adv-x="315" 
d="M135 -50v50h-115v65h195l20 20v28l-20 20h-145l-60 60v77l60 60h65v50h60v-50h100v-65h-195l-20 -20v-27l20 -20h145l60 -60v-78l-60 -60h-50v-50h-60z" />
    <glyph glyph-name="zero.dnom" horiz-adv-x="390" 
d="M115 0l-70 70v190l70 70h160l70 -70v-190l-70 -70h-160zM150 65h90l35 35v130l-35 35h-90l-35 -35v-130z" />
    <glyph glyph-name="one.dnom" horiz-adv-x="380" 
d="M70 0v65h90v200h-85v65h155v-265h85v-65h-245z" />
    <glyph glyph-name="two.dnom" horiz-adv-x="400" 
d="M45 0v130l65 65h155l25 25v20l-25 25h-210v65h245l60 -60v-80l-60 -60h-155l-30 -30v-35h235v-65h-305z" />
    <glyph glyph-name="three.dnom" horiz-adv-x="395" 
d="M45 0v65h225l20 20v25l-25 25h-140v65h130l25 25v20l-20 20h-210v65h245l55 -55v-70l-31 -31l41 -41v-78l-55 -55h-260z" />
    <glyph glyph-name="four.dnom" horiz-adv-x="360" 
d="M200 0v60h-210v60l195 210h85v-210h45v-60h-45v-60h-70zM70 120h130v140h-5l-125 -135v-5z" />
    <glyph glyph-name="five.dnom" horiz-adv-x="405" 
d="M60 0v65h205l25 25v30l-25 25h-200v185h275v-65h-205v-55h165l60 -60v-90l-60 -60h-240z" />
    <glyph glyph-name="six.dnom" horiz-adv-x="395" 
d="M105 0l-60 60v210l60 60h230v-65h-195l-25 -25v-25h185l55 -55v-100l-60 -60h-190zM140 65h120l25 25v40l-25 25h-145v-65z" />
    <glyph glyph-name="seven.dnom" horiz-adv-x="335" 
d="M113 0v25l137 233v7h-200v65h290v-60l-154 -270h-73z" />
    <glyph glyph-name="eight.dnom" horiz-adv-x="410" 
d="M100 0l-55 55v75l42 42l-32 33v70l55 55h190l55 -55v-70l-32 -33l42 -42v-75l-55 -55h-210zM150 197h110l25 25v23l-20 20h-120l-20 -20v-23zM135 65h140l20 20v28l-25 25h-130l-25 -25v-28z" />
    <glyph glyph-name="nine.dnom" horiz-adv-x="395" 
d="M60 0v65h195l25 25v25h-185l-55 55v100l60 60h190l60 -60v-210l-60 -60h-230zM135 175h145v65l-25 25h-120l-25 -25v-40z" />
    <glyph glyph-name="cent.dnom" horiz-adv-x="290" 
d="M145 -25v50h-60l-75 75v140l75 75h60v50h60v-50h85v-65h-85v-160h85v-65h-85v-50h-60zM115 90h30v160h-30l-35 -35v-90z" />
    <glyph glyph-name="sterling.dnom" horiz-adv-x="305" 
d="M10 0v65h50v70h-45v60h45v75l60 60h160v-65h-130l-20 -20v-50h130v-60h-130v-70h170v-65h-290z" />
    <glyph glyph-name="yen.dnom" horiz-adv-x="347" 
d="M342 330v-10l-100 -165h61v-45h-88l-7 -11v-19h95v-45h-95v-35h-70v35h-95v45h95v21l-5 9h-90v45h62l-100 165v10h73l92 -160h9l92 160h71z" />
    <glyph glyph-name="florin.dnom" horiz-adv-x="272" 
d="M205 265l-15 -15l-10 -65h72v-60h-82l-23 -145l-52 -52h-90v65h62l15 15l19 117h-59v60h68l15 93l52 52h90v-65h-62z" />
    <glyph glyph-name="uni20A9.dnom" horiz-adv-x="446" 
d="M441 185h-60l-12 -45h72v-45h-84l-26 -95h-85l-24 125h-3l-32 -125h-78l-24 95h-80v45h69l-11 45h-58v45h46l-21 85v15h59l60 -265h7l44 173l-13 77v15h54l45 -265h7l66 265h57v-15l-23 -85h48v-45z" />
    <glyph glyph-name="Euro.dnom" horiz-adv-x="325" 
d="M120 0l-70 70v40h-45v40h45v30h-45v40h45v40l70 70h200v-65h-165l-35 -35v-10h135v-40h-135v-30h135v-40h-135v-10l35 -35h165v-65h-200z" />
    <glyph glyph-name="uni20B4.dnom" horiz-adv-x="355" 
d="M10 180v45h240v30l-10 10h-195v65h225l50 -50v-55h25v-45h-335zM85 0l-50 50v55h-25v45h335v-45h-240v-30l10 -10h195v-65h-225z" />
    <glyph glyph-name="uni20B8.dnom" horiz-adv-x="290" 
d="M0 285v45h290v-45h-290zM110 0v190h-110v65h290v-65h-110v-190h-70z" />
    <glyph glyph-name="uni20B9.dnom" horiz-adv-x="355" 
d="M215 0l-205 110v65h205l15 15v15h-220v45h220v15l-15 15h-205v50h335v-45h-45v-35h45v-45h-45v-30l-50 -50h-140v-7l190 -93v-25h-85z" />
    <glyph glyph-name="uni20BA.dnom" horiz-adv-x="340" 
d="M270 130h65v-70l-60 -60h-210v109l-40 -14h-15v42l55 19v35l-40 -14h-15v42l55 19v92h70v-68l120 42h15v-42l-135 -47v-35l120 42h15v-42l-135 -47v-68h115l20 20v45z" />
    <glyph glyph-name="uni20BD.dnom" horiz-adv-x="345" 
d="M55 0v40h-45v45h45v25h-45v45h45v175h225l60 -60v-100l-60 -60h-155v-25h155v-45h-155v-40h-70zM125 170h125l20 20v55l-20 20h-125v-95z" />
    <glyph glyph-name="uni20BF.dnom" horiz-adv-x="335" 
d="M80 -50v50h-65v330h65v50h60v-50h30v50h60v-50h30l55 -55v-70l-25 -25l40 -40v-85l-55 -55h-45v-50h-60v50h-30v-50h-60zM85 200h145l15 15v35l-15 15h-145v-65zM85 65h160l15 15v45l-15 15h-160v-75z" />
    <glyph glyph-name="Iacute_J.loclNLD" horiz-adv-x="1050" 
d="M212 755v10l51 125h94v-10l-69 -125h-76zM730 755v10l51 125h94v-10l-69 -125h-76zM60 0v80h140v540h-140v80h375v-80h-140v-540h140v-80h-375zM525 0v85h265l75 75v455h-295v85h390v-575l-125 -125h-310z" />
    <glyph glyph-name="iacute_j.loclNLD" horiz-adv-x="480" 
d="M84 560v10l61 165h94v-10l-89 -165h-66zM324 560v10l61 165h94v-10l-89 -165h-66zM75 -200v85h225l15 15v600h90v-635l-65 -65h-265zM75 0v500h90v-500h-90z" />
    <glyph glyph-name="dollar.numr" horiz-adv-x="315" 
d="M135 320v50h-115v65h195l20 20v28l-20 20h-145l-60 60v77l60 60h65v50h60v-50h100v-65h-195l-20 -20v-27l20 -20h145l60 -60v-78l-60 -60h-50v-50h-60z" />
    <glyph glyph-name="zero.numr" horiz-adv-x="390" 
d="M115 370l-70 70v190l70 70h160l70 -70v-190l-70 -70h-160zM150 435h90l35 35v130l-35 35h-90l-35 -35v-130z" />
    <glyph glyph-name="one.numr" horiz-adv-x="380" 
d="M70 370v65h90v200h-85v65h155v-265h85v-65h-245z" />
    <glyph glyph-name="two.numr" horiz-adv-x="400" 
d="M45 370v130l65 65h155l25 25v20l-25 25h-210v65h245l60 -60v-80l-60 -60h-155l-30 -30v-35h235v-65h-305z" />
    <glyph glyph-name="three.numr" horiz-adv-x="395" 
d="M45 370v65h225l20 20v25l-25 25h-140v65h130l25 25v20l-20 20h-210v65h245l55 -55v-70l-31 -31l41 -41v-78l-55 -55h-260z" />
    <glyph glyph-name="four.numr" horiz-adv-x="360" 
d="M200 370v60h-210v60l195 210h85v-210h45v-60h-45v-60h-70zM70 490h130v140h-5l-125 -135v-5z" />
    <glyph glyph-name="five.numr" horiz-adv-x="405" 
d="M60 370v65h205l25 25v30l-25 25h-200v185h275v-65h-205v-55h165l60 -60v-90l-60 -60h-240z" />
    <glyph glyph-name="six.numr" horiz-adv-x="395" 
d="M105 370l-60 60v210l60 60h230v-65h-195l-25 -25v-25h185l55 -55v-100l-60 -60h-190zM140 435h120l25 25v40l-25 25h-145v-65z" />
    <glyph glyph-name="seven.numr" horiz-adv-x="335" 
d="M113 370v25l137 233v7h-200v65h290v-60l-154 -270h-73z" />
    <glyph glyph-name="eight.numr" horiz-adv-x="410" 
d="M100 370l-55 55v75l42 42l-32 33v70l55 55h190l55 -55v-70l-32 -33l42 -42v-75l-55 -55h-210zM150 567h110l25 25v23l-20 20h-120l-20 -20v-23zM135 435h140l20 20v28l-25 25h-130l-25 -25v-28z" />
    <glyph glyph-name="nine.numr" horiz-adv-x="395" 
d="M60 370v65h195l25 25v25h-185l-55 55v100l60 60h190l60 -60v-210l-60 -60h-230zM135 545h145v65l-25 25h-120l-25 -25v-40z" />
    <glyph glyph-name="cent.numr" horiz-adv-x="290" 
d="M145 335v50h-60l-75 75v140l75 75h60v50h60v-50h85v-65h-85v-160h85v-65h-85v-50h-60zM115 450h30v160h-30l-35 -35v-90z" />
    <glyph glyph-name="sterling.numr" horiz-adv-x="305" 
d="M10 370v65h50v70h-45v60h45v75l60 60h160v-65h-130l-20 -20v-50h130v-60h-130v-70h170v-65h-290z" />
    <glyph glyph-name="yen.numr" horiz-adv-x="347" 
d="M342 700v-10l-100 -165h61v-45h-88l-7 -11v-19h95v-45h-95v-35h-70v35h-95v45h95v21l-5 9h-90v45h62l-100 165v10h73l92 -160h9l92 160h71z" />
    <glyph glyph-name="florin.numr" horiz-adv-x="272" 
d="M205 635l-15 -15l-10 -65h72v-60h-82l-23 -145l-52 -52h-90v65h62l15 15l19 117h-59v60h68l15 93l52 52h90v-65h-62z" />
    <glyph glyph-name="uni20A9.numr" horiz-adv-x="446" 
d="M441 555h-60l-12 -45h72v-45h-84l-26 -95h-85l-24 125h-3l-32 -125h-78l-24 95h-80v45h69l-11 45h-58v45h46l-21 85v15h59l60 -265h7l44 173l-13 77v15h54l45 -265h7l66 265h57v-15l-23 -85h48v-45z" />
    <glyph glyph-name="Euro.numr" horiz-adv-x="325" 
d="M120 370l-70 70v40h-45v40h45v30h-45v40h45v40l70 70h200v-65h-165l-35 -35v-10h135v-40h-135v-30h135v-40h-135v-10l35 -35h165v-65h-200z" />
    <glyph glyph-name="uni20B4.numr" horiz-adv-x="355" 
d="M10 550v45h240v30l-10 10h-195v65h225l50 -50v-55h25v-45h-335zM85 370l-50 50v55h-25v45h335v-45h-240v-30l10 -10h195v-65h-225z" />
    <glyph glyph-name="uni20B8.numr" horiz-adv-x="290" 
d="M0 655v45h290v-45h-290zM110 370v190h-110v65h290v-65h-110v-190h-70z" />
    <glyph glyph-name="uni20B9.numr" horiz-adv-x="355" 
d="M215 370l-205 110v65h205l15 15v15h-220v45h220v15l-15 15h-205v50h335v-45h-45v-35h45v-45h-45v-30l-50 -50h-140v-7l190 -93v-25h-85z" />
    <glyph glyph-name="uni20BA.numr" horiz-adv-x="340" 
d="M270 500h65v-70l-60 -60h-210v109l-40 -14h-15v42l55 19v35l-40 -14h-15v42l55 19v92h70v-68l120 42h15v-42l-135 -47v-35l120 42h15v-42l-135 -47v-68h115l20 20v45z" />
    <glyph glyph-name="uni20BD.numr" horiz-adv-x="345" 
d="M55 370v40h-45v45h45v25h-45v45h45v175h225l60 -60v-100l-60 -60h-155v-25h155v-45h-155v-40h-70zM125 540h125l20 20v55l-20 20h-125v-95z" />
    <glyph glyph-name="uni20BF.numr" horiz-adv-x="335" 
d="M80 320v50h-65v330h65v50h60v-50h30v50h60v-50h30l55 -55v-70l-25 -25l40 -40v-85l-55 -55h-45v-50h-60v50h-30v-50h-60zM85 570h145l15 15v35l-15 15h-145v-65zM85 435h160l15 15v45l-15 15h-160v-75z" />
    <glyph glyph-name="plus.osf" horiz-adv-x="580" 
d="M250 0v210h-210v80h210v210h80v-210h210v-80h-210v-210h-80z" />
    <glyph glyph-name="zero.osf.zero" horiz-adv-x="635" 
d="M455 500l115 -115v-270l-115 -115h-275l-115 115v270l115 115h275zM220 415l-65 -65v-187l301 211l-41 41h-195zM415 85l65 65v186l-301 -210l41 -41h195z" />
    <glyph glyph-name="less.osf" horiz-adv-x="408" 
d="M290 0l-250 250l250 250l57 -57l-192 -192l193 -193z" />
    <glyph glyph-name="equal.osf" horiz-adv-x="580" 
d="M55 305v80h470v-80h-470zM55 115v80h470v-80h-470z" />
    <glyph glyph-name="greater.osf" horiz-adv-x="408" 
d="M118 0l-58 58l193 193l-192 192l57 57l250 -250z" />
    <glyph glyph-name="asciitilde.osf" horiz-adv-x="580" 
d="M63 180v75l65 65h145l70 -70h75l25 25v45h75v-75l-65 -65h-140l-70 70h-80l-25 -25v-45h-75z" />
    <glyph glyph-name="logicalnot.osf" horiz-adv-x="580" 
d="M445 145v90h-390v80h470v-170h-80z" />
    <glyph glyph-name="plusminus.osf" horiz-adv-x="580" 
d="M55 0v80h195v160h-195v80h195v180h80v-180h195v-80h-195v-160h195v-80h-470z" />
    <glyph glyph-name="multiply.osf" horiz-adv-x="580" 
d="M110 15l-54 54l179 180l-179 180l54 54l180 -179l180 180l54 -55l-179 -180l179 -180l-54 -54l-180 179z" />
    <glyph glyph-name="divide.osf" horiz-adv-x="580" 
d="M240 395v105h100v-105h-100zM45 210v80h490v-80h-490zM240 0v105h100v-105h-100z" />
    <glyph glyph-name="minus.osf" horiz-adv-x="580" 
d="M45 210v80h490v-80h-490z" />
    <glyph glyph-name="approxequal.osf" horiz-adv-x="580" 
d="M63 265v75l65 65h145l70 -70h75l25 25v45h75v-75l-65 -65h-140l-70 70h-80l-25 -25v-45h-75zM63 100v75l65 65h145l70 -70h75l25 25v45h75v-75l-65 -65h-140l-70 70h-80l-25 -25v-45h-75z" />
    <glyph glyph-name="notequal.osf" horiz-adv-x="580" 
d="M525 305h-170l-47 -110h217v-80h-251l-49 -115h-75v19l41 96h-136v80h170l47 110h-217v80h251l49 115h75v-19l-41 -96h136v-80z" />
    <glyph glyph-name="lessequal.osf" horiz-adv-x="400" 
d="M255 110l-195 200l195 190l57 -57l-137 -138l138 -137zM340 0h-280v80h280v-80z" />
    <glyph glyph-name="greaterequal.osf" horiz-adv-x="400" 
d="M145 110l-58 58l138 137l-137 138l57 57l195 -190zM60 0v80h280v-80h-280z" />
    <glyph glyph-name="I.ss01" horiz-adv-x="295" 
d="M100 0v700h95v-700h-95z" />
    <glyph glyph-name="Igrave.ss01" horiz-adv-x="295" 
d="M108 755l-69 125v10h94l51 -125v-10h-76zM100 0v700h95v-700h-95z" />
    <glyph glyph-name="Iacute.ss01" horiz-adv-x="295" 
d="M112 755v10l51 125h94v-10l-69 -125h-76zM100 0v700h95v-700h-95z" />
    <glyph glyph-name="Icircumflex.ss01" horiz-adv-x="295" 
d="M-19 755v24l121 106h94l119 -104v-26h-86l-75 70h-11l-75 -70h-87zM100 0v700h95v-700h-95z" />
    <glyph glyph-name="Idieresis.ss01" horiz-adv-x="295" 
d="M20 770v100h100v-100h-100zM175 770v100h100v-100h-100zM100 0v700h95v-700h-95z" />
    <glyph glyph-name="Imacron.ss01" horiz-adv-x="295" 
d="M-5 783v75h305v-75h-305zM100 0v700h95v-700h-95z" />
    <glyph glyph-name="Ibreve.ss01" horiz-adv-x="295" 
d="M43 755l-55 55v75h75v-45l20 -20h130l20 20v45h75v-75l-55 -55h-210zM100 0v700h95v-700h-95z" />
    <glyph glyph-name="Iogonek.ss01" horiz-adv-x="295" 
d="M195 0l-95 -78v-42l10 -10h75v-70h-110l-45 45v96l71 59h-1v700h95v-700z" />
    <glyph glyph-name="Idotaccent.ss01" horiz-adv-x="295" 
d="M98 770v100h100v-100h-100zM100 0v700h95v-700h-95z" />
    <glyph glyph-name="IJ.ss01" horiz-adv-x="745" 
d="M100 0v85h385l75 75v455h-265v85h360v-575l-125 -125h-430zM100 175v525h95v-525h-95z" />
    <glyph glyph-name="uni0406.ss01" horiz-adv-x="295" 
d="M100 0v700h95v-700h-95z" />
    <glyph glyph-name="uni0407.ss01" horiz-adv-x="295" 
d="M20 770v100h100v-100h-100zM175 770v100h100v-100h-100zM100 0v700h95v-700h-95z" />
    <glyph glyph-name="Iacute_J_loclNLD.ss01" horiz-adv-x="745" 
d="M112 755v10l51 125h94v-10l-69 -125h-76zM439 755v10l51 125h94v-10l-69 -125h-76zM100 0v85h385l75 75v455h-265v85h360v-575l-125 -125h-430zM100 175v525h95v-525h-95z" />
    <glyph glyph-name="a.ss02" horiz-adv-x="625" 
d="M180 0l-115 115v270l115 115h370v-500h-70v50h-20l-60 -50h-220zM220 85h155l85 70v260h-240l-65 -65v-200z" />
    <glyph glyph-name="agrave.ss02" horiz-adv-x="625" 
d="M300 560l-89 165v10h99l56 -165v-10h-66zM180 0l-115 115v270l115 115h370v-500h-70v50h-20l-60 -50h-220zM220 85h155l85 70v260h-240l-65 -65v-200z" />
    <glyph glyph-name="aacute.ss02" horiz-adv-x="625" 
d="M299 560v10l61 165h94v-10l-89 -165h-66zM180 0l-115 115v270l115 115h370v-500h-70v50h-20l-60 -50h-220zM220 85h155l85 70v260h-240l-65 -65v-200z" />
    <glyph glyph-name="acircumflex.ss02" horiz-adv-x="625" 
d="M168 560v24l121 146h94l119 -144v-26h-79l-82 105h-11l-82 -105h-80zM180 0l-115 115v270l115 115h370v-500h-70v50h-20l-60 -50h-220zM220 85h155l85 70v260h-240l-65 -65v-200z" />
    <glyph glyph-name="atilde.ss02" horiz-adv-x="625" 
d="M152 565v95l55 55h110l71 -85h39l15 15v70h75v-95l-55 -55h-110l-71 85h-39l-15 -15v-70h-75zM180 0l-115 115v270l115 115h370v-500h-70v50h-20l-60 -50h-220zM220 85h155l85 70v260h-240l-65 -65v-200z" />
    <glyph glyph-name="adieresis.ss02" horiz-adv-x="625" 
d="M187 600v100h100v-100h-100zM382 600v100h100v-100h-100zM180 0l-115 115v270l115 115h370v-500h-70v50h-20l-60 -50h-220zM220 85h155l85 70v260h-240l-65 -65v-200z" />
    <glyph glyph-name="aring.ss02" horiz-adv-x="625" 
d="M270 550l-55 55v120l55 55h130l55 -55v-120l-55 -55h-130zM300 610h70l20 20v70l-20 20h-70l-20 -20v-70zM180 0l-115 115v270l115 115h370v-500h-70v50h-20l-60 -50h-220zM220 85h155l85 70v260h-240l-65 -65v-200z" />
    <glyph glyph-name="amacron.ss02" horiz-adv-x="625" 
d="M182 613v75h305v-75h-305zM180 0l-115 115v270l115 115h370v-500h-70v50h-20l-60 -50h-220zM220 85h155l85 70v260h-240l-65 -65v-200z" />
    <glyph glyph-name="abreve.ss02" horiz-adv-x="625" 
d="M233 560l-55 55v105h75v-75l20 -20h125l20 20v75h75v-105l-55 -55h-205zM180 0l-115 115v270l115 115h370v-500h-70v50h-20l-60 -50h-220zM220 85h155l85 70v260h-240l-65 -65v-200z" />
    <glyph glyph-name="aogonek.ss02" horiz-adv-x="625" 
d="M550 0l-95 -78v-42l10 -10h75v-70h-110l-45 45v96l95 79v30h-20l-60 -50h-220l-115 115v270l115 115h370v-500zM460 155v260h-240l-65 -65v-200l65 -65h155z" />
    <glyph glyph-name="uni0430.ss02" horiz-adv-x="625" 
d="M180 0l-115 115v270l115 115h370v-500h-70v50h-20l-60 -50h-220zM220 85h155l85 70v260h-240l-65 -65v-200z" />
    <glyph glyph-name="uni04D3.ss02" horiz-adv-x="625" 
d="M187 600v100h100v-100h-100zM382 600v100h100v-100h-100zM180 0l-115 115v270l115 115h370v-500h-70v50h-20l-60 -50h-220zM220 85h155l85 70v260h-240l-65 -65v-200z" />
    <glyph glyph-name="l.ss03" horiz-adv-x="250" 
d="M80 0v700h90v-700h-90z" />
    <glyph glyph-name="lacute.ss03" horiz-adv-x="250" 
d="M89 755v10l51 125h94v-10l-69 -125h-76zM80 0v700h90v-700h-90z" />
    <glyph glyph-name="uni013C.ss03" horiz-adv-x="250" 
d="M80 0v700h90v-700h-90zM90 -245l21 100h-41v110h110v-100l-40 -110h-50z" />
    <glyph glyph-name="lcaron.ss03" horiz-adv-x="250" 
d="M228 550v10l7 170h92v-10l-37 -170h-62zM80 0v700h90v-700h-90z" />
    <glyph glyph-name="ldot.ss03" horiz-adv-x="365" 
d="M80 0v700h90v-700h-90zM250 292v115h115v-115h-115z" />
    <glyph glyph-name="lslash.ss03" horiz-adv-x="290" 
d="M300 486v-75l-110 -74v-337h-90v277l-90 -61h-20v75l110 74v335h90v-275l90 61h20z" />
    <glyph glyph-name="uni0438.ss04" horiz-adv-x="605" 
d="M175 0l-105 105v395h90v-360l55 -55h154l71 59v356h90v-500h-70v40h-18l-48 -40h-219z" />
    <glyph glyph-name="uni0439.ss04" horiz-adv-x="605" 
d="M198 560l-55 55v105h75v-75l20 -20h125l20 20v75h75v-105l-55 -55h-205zM175 0l-105 105v395h90v-360l55 -55h154l71 59v356h90v-500h-70v40h-18l-48 -40h-219z" />
    <glyph glyph-name="uni045D.ss04" horiz-adv-x="605" 
d="M265 560l-89 165v10h99l56 -165v-10h-66zM175 0l-105 105v395h90v-360l55 -55h154l71 59v356h90v-500h-70v40h-18l-48 -40h-219z" />
    <glyph glyph-name="uni04E3.ss04" horiz-adv-x="605" 
d="M147 613v75h305v-75h-305zM175 0l-105 105v395h90v-360l55 -55h154l71 59v356h90v-500h-70v40h-18l-48 -40h-219z" />
    <glyph glyph-name="dollar.tf" horiz-adv-x="715" 
d="M315 -100v100h-245v85h430l60 60v110l-60 60h-330l-110 110v165l110 110h145v100h80v-100h225v-85h-405l-60 -60v-95l60 -60h330l110 -110v-180l-110 -110h-150v-100h-80z" />
    <glyph glyph-name="zero.tf" horiz-adv-x="715" 
d="M185 0l-140 140v420l140 140h345l140 -140v-420l-140 -140h-345zM230 85h255l90 90v350l-90 90h-255l-90 -90v-350z" />
    <glyph glyph-name="zero.tf.zero" horiz-adv-x="715" 
d="M530 700l140 -140v-420l-140 -140h-345l-140 140v420l140 140h345zM230 615l-90 -90v-298l430 303l-85 85h-255zM485 85l90 90v297l-430 -302l85 -85h255z" />
    <glyph glyph-name="one.tf" horiz-adv-x="715" 
d="M75 0v85h245v530h-220v85h315v-615h235v-85h-575z" />
    <glyph glyph-name="two.tf" horiz-adv-x="715" 
d="M65 0v250l130 130h300l60 60v115l-60 60h-405v85h450l110 -110v-185l-110 -110h-300l-80 -80v-125h485v-90h-580z" />
    <glyph glyph-name="three.tf" horiz-adv-x="715" 
d="M55 0v85h420l70 70v95l-70 70h-275v85h255l70 70v80l-60 60h-400v85h445l110 -110v-140l-75 -75l95 -95v-160l-120 -120h-465z" />
    <glyph glyph-name="four.tf" horiz-adv-x="715" 
d="M490 0v145h-460v122l411 433h144v-470h95v-85h-95v-145h-95zM130 230h360v380h-18l-342 -361v-19z" />
    <glyph glyph-name="five.tf" horiz-adv-x="715" 
d="M60 0v85h420l70 70v125l-70 70h-395v350h530v-85h-435v-180h345l120 -120v-195l-120 -120h-465z" />
    <glyph glyph-name="six.tf" horiz-adv-x="715" 
d="M180 0l-120 120v435l145 145h415v-85h-370l-95 -95v-85h395l120 -120v-195l-120 -120h-370zM225 85h280l70 70v125l-70 70h-350v-195z" />
    <glyph glyph-name="seven.tf" horiz-adv-x="715" 
d="M235 0v240l310 280v90h-490v90h585v-215l-310 -280v-205h-95z" />
    <glyph glyph-name="eight.tf" horiz-adv-x="715" 
d="M168 0l-120 120v160l95 95l-75 75v140l110 110h360l110 -110v-140l-75 -75l95 -95v-160l-120 -120h-380zM233 405h250l70 70v80l-60 60h-270l-60 -60v-80zM213 85h290l70 70v95l-70 70h-290l-70 -70v-95z" />
    <glyph glyph-name="nine.tf" horiz-adv-x="715" 
d="M95 0v85h370l95 95v85h-395l-120 120v195l120 120h370l120 -120v-435l-145 -145h-415zM210 350h350v195l-70 70h-280l-70 -70v-125z" />
    <glyph glyph-name="cent.tf" horiz-adv-x="715" 
d="M355 -90v90h-110l-115 115v270l115 115h110v90h85v-90h155v-85h-155v-330h155v-85h-155v-90h-85zM285 85h70v330h-70l-65 -65v-200z" />
    <glyph glyph-name="sterling.tf" horiz-adv-x="715" 
d="M70 0v85h135v232h-95v80h95v188l115 115h305v-85h-265l-60 -60v-158h265v-80h-265v-232h365v-85h-595z" />
    <glyph glyph-name="yen.tf" horiz-adv-x="715" 
d="M693 700v-35l-232 -340h170v-80h-225v-75h225v-80h-225v-90h-95v90h-225v80h225v75h-225v80h170l-233 340v35h91l236 -345h22l235 345h86z" />
    <glyph glyph-name="florin.tf" horiz-adv-x="715" 
d="M480 615l-15 -15l-29 -150h149v-85h-165l-95 -500l-65 -65h-185v85h145l15 15l89 465h-99v85h115l35 185l65 65h185v-85h-145z" />
    <glyph glyph-name="uni20A9.tf" horiz-adv-x="715" 
d="M705 400h-95l-14 -95h109v-80h-121l-34 -225h-143l-43 303h-7l-50 -303h-140l-35 225h-122v80h110l-14 95h-96v80h83l-28 185v35h80l92 -610h13l72 434l-21 141v35h80l87 -610h15l90 610h77v-35l-28 -185h83v-80z" />
    <glyph glyph-name="Euro.tf" horiz-adv-x="715" 
d="M250 0l-140 140v95h-90v80h90v70h-90v80h90v95l140 140h425v-85h-380l-90 -90v-60h305v-80h-305v-70h305v-80h-305v-60l90 -90h380v-85h-425z" />
    <glyph glyph-name="uni20B4.tf" horiz-adv-x="715" 
d="M33 380v80h440l50 50v55l-50 50h-340v85h380l105 -105v-110l-25 -25h90v-80h-650zM203 0l-105 105v110l25 25h-90v80h650v-80h-440l-50 -50v-55l50 -50h365v-85h-405z" />
    <glyph glyph-name="uni20B8.tf" horiz-adv-x="715" 
d="M45 620v80h625v-80h-625zM310 0v480h-265v85h625v-85h-265v-480h-95z" />
    <glyph glyph-name="uni20B9.tf" horiz-adv-x="715" 
d="M504 0l-429 240v125h316l70 70v22h-386v75h386v18l-75 75h-311v75h569v-75h-138l50 -50v-43h88v-75h-88v-47l-125 -125h-246v-15l424 -235v-35h-105z" />
    <glyph glyph-name="uni20BA.tf" horiz-adv-x="715" 
d="M575 305h90v-165l-140 -140h-378v253l-79 -28h-18v75l97 34v76l-79 -28h-18v75l97 34v209h95v-175l263 92h18v-75l-281 -99v-75l263 92h18v-75l-281 -99v-201h246l87 87v133z" />
    <glyph glyph-name="uni20BD.tf" horiz-adv-x="715" 
d="M100 0v95h-85v80h85v80h-85v80h85v365h475l130 -130v-185l-130 -130h-380v-80h380v-80h-380v-95h-95zM195 340h335l80 80v115l-80 80h-335v-275z" />
    <glyph glyph-name="uni20BF.tf" horiz-adv-x="715" 
d="M210 -100v100h-150v700h150v100h80v-100h70v100h80v-100h90l110 -110v-145l-67 -67l102 -103v-155l-120 -120h-115v-100h-80v100h-70v-100h-80zM155 405h325l65 65v85l-60 60h-330v-210zM155 85h355l70 70v95l-70 70h-355v-235z" />
    <glyph glyph-name="zero.tosf" horiz-adv-x="595" 
d="M160 0l-115 115v270l115 115h275l115 -115v-270l-115 -115h-275zM200 85h195l65 65v200l-65 65h-195l-65 -65v-200z" />
    <glyph glyph-name="zero.tosf.zero" horiz-adv-x="595" 
d="M435 500l115 -115v-270l-115 -115h-275l-115 115v270l115 115h275zM200 415l-65 -65v-187l301 211l-41 41h-195zM395 85l65 65v186l-301 -210l41 -41h195z" />
    <glyph glyph-name="one.tosf" horiz-adv-x="595" 
d="M65 0v85h200v330h-175v85h265v-415h185v-85h-475z" />
    <glyph glyph-name="two.tosf" horiz-adv-x="595" 
d="M60 0v190l100 100h265l40 40v50l-40 40h-345v80h390l85 -85v-120l-85 -85h-265l-55 -55v-70h400v-85h-490z" />
    <glyph glyph-name="three.tosf" horiz-adv-x="595" 
d="M50 -140v80h315l70 70v75l-70 70h-220v80h205l65 65v60l-60 60h-295v80h340l105 -105v-120l-72 -72l92 -93v-135l-115 -115h-360z" />
    <glyph glyph-name="four.tosf" horiz-adv-x="595" 
d="M395 -140v160h-375v119l324 361h136v-400h90v-80h-90v-160h-85zM105 100h290v320h-15l-275 -305v-15z" />
    <glyph glyph-name="five.tosf" horiz-adv-x="595" 
d="M60 -140v80h310l70 70v95l-70 70h-290v325h420v-80h-330v-165h245l115 -115v-165l-115 -115h-355z" />
    <glyph glyph-name="six.tosf" horiz-adv-x="595" 
d="M440 425l115 -115v-195l-115 -115h-280l-115 115v189l255 336h86v-29l-131 -173v-13h185zM465 150v125l-70 70h-210l-50 -66v-129l65 -65h200z" />
    <glyph glyph-name="seven.tosf" horiz-adv-x="595" 
d="M185 -140v195l275 280v80h-420v85h510v-195l-275 -280v-165h-90z" />
    <glyph glyph-name="eight.tosf" horiz-adv-x="595" 
d="M143 0l-100 100v155l83 83l-63 62v145l95 95h280l95 -95v-145l-63 -62l83 -83v-155l-100 -100h-310zM208 370h180l55 55v85l-50 50h-190l-50 -50v-85zM188 80h220l55 55v95l-60 60h-210l-60 -60v-95z" />
    <glyph glyph-name="nine.tosf" horiz-adv-x="595" 
d="M435 500l115 -115v-189l-255 -336h-86v29l131 173v13h-185l-115 115v195l115 115h280zM460 221v129l-65 65h-200l-65 -65v-125l70 -70h210z" />
    <glyph glyph-name="zero.zero" horiz-adv-x="785" 
d="M565 700l140 -140v-420l-140 -140h-345l-140 140v420l140 140h345zM265 615l-90 -90v-298l430 303l-85 85h-255zM520 85l90 90v297l-430 -302l85 -85h255z" />
    <glyph glyph-name="foundryicon" horiz-adv-x="1538" 
d="M171 230v199h-71v31h178v-31h-72v-199h-35zM832 230v199h-71v31h178v-31h-72v-199h-35zM438 169v224h24l9 -19q19 22 48 22q32 0 54.5 -25t22.5 -59q0 -36 -22.5 -60.5t-54.5 -24.5q-29 0 -47 21v-79h-34zM701 227q-32 0 -55 24.5t-23 60.5q0 35 23 59.5t55 24.5
t54 -24.5t22 -58.5v-15h-120q2 -17 14.5 -29t29.5 -12q27 0 37 17h35q-9 -22 -28.5 -34.5t-43.5 -12.5zM1099 169v224h24l9 -19q19 22 48 22q32 0 54.5 -25t22.5 -59q0 -36 -22.5 -60.5t-54.5 -24.5q-29 0 -47 21v-79h-34zM1362 227q-32 0 -55 24.5t-23 60.5q0 35 23 59.5
t55 24.5t54 -24.5t22 -58.5v-15h-120q2 -17 14.5 -29t29.5 -12q27 0 37 17h35q-9 -22 -28.5 -34.5t-43.5 -12.5zM288 169q-7 0 -10 1v28q23 0 31 20l6 16l-63 159h37l44 -116l44 116h37l-77 -190q-16 -34 -49 -34zM949 169q-7 0 -10 1v28q23 0 31 20l6 16l-63 159h37
l44 -116l44 116h37l-77 -190q-16 -34 -49 -34zM657 325h88q-1 17 -14.5 28.5t-29.5 11.5t-29 -11t-15 -29zM1318 325h88q-1 17 -14.5 28.5t-29.5 11.5t-29 -11t-15 -29zM516 258q19 0 33 16t14 38q0 21 -14 36.5t-33 15.5t-33 -15.5t-14 -36.5q0 -22 13.5 -38t33.5 -16z
M1177 258q19 0 33 16t14 38q0 21 -14 36.5t-33 15.5t-33 -15.5t-14 -36.5q0 -22 13.5 -38t33.5 -16z" />
    </font>
</defs>
</svg>
