<?xml version="1.0" standalone="no"?>
<!DOCTYPE svg PUBLIC "-//W3C//DTD SVG 1.1//EN" "http://www.w3.org/Graphics/SVG/1.1/DTD/svg11.dtd" >
<svg xmlns="http://www.w3.org/2000/svg" xmlns:xlink="http://www.w3.org/1999/xlink" version="1.1">
<metadata>
Created by FontForge 20170731 at Thu Mar 26 16:29:14 2020
 By Aleksey,,,
Copyright (c) 2020 by TypeType. Designers Yulia Gonina, Ksenia Ushakova, Antonina Zhulkova. Technical designers Ivan Gladkikh, Marina Khodak, Yuri Nako, Viktor Rubenko. All rights reserved.
</metadata>
<defs>
<font id="TTOctosquares-Black" horiz-adv-x="675" >
  <font-face 
    font-family="TTOctosquares-Black"
    font-weight="900"
    font-stretch="normal"
    units-per-em="1000"
    panose-1="2 1 0 1 4 0 0 8 3 7"
    ascent="800"
    descent="-200"
    x-height="510"
    cap-height="700"
    bbox="-430 -260 1800 960"
    underline-thickness="50"
    underline-position="-250"
    unicode-range="U+000D-FB04"
  />
<missing-glyph horiz-adv-x="900" 
d="M100 0v284h45v-139h33v139h50v31h-128v126l19 -61h23l34 106l33 -106h23l54 170h-32l-34 -110l-35 110h-19l-35 -110l-31 103v157h700v-150h-110v-170h110v-91q-13 27 -50 27q-27 0 -43.5 -14.5t-16.5 -34.5t14 -32t30 -15t30 -9.5t14 -16.5q0 -21 -28 -21t-28 25h-33
q0 -24 17 -39.5t44 -15.5q33 0 50 20v-163h-700zM311 380h33v62h24l35 -62h37l-40 67q36 17 36 50q0 22 -16 37.5t-41 15.5h-68v-170zM469 380h33v170h-33v-170zM580 380h32v139h50v31h-132v-31h50v-139zM344 473v46h35q10 0 17 -6.5t7 -16.5q0 -23 -24 -23h-35zM722 483v36
h78v-36h-78zM722 411v41h78v-41h-78zM328 143q37 0 59.5 24.5t22.5 61.5t-23 62t-59 25t-59 -25t-23 -62t22.5 -61.5t59.5 -24.5zM585 143q29 0 48 19t19 47v106h-32v-106q0 -15 -9.5 -25t-25.5 -10q-17 0 -26.5 10.5t-9.5 24.5v106h-32v-106q0 -28 19.5 -47t48.5 -19z
M800 224q-9 9 -23.5 15t-25.5 8.5t-19 7.5t-8 12q0 9 7.5 14.5t18.5 5.5q10 0 18 -7t8 -18h24v-38zM328 174q-22 0 -36.5 16t-14.5 39q0 25 13.5 40.5t37.5 15.5t37.5 -15.5t13.5 -40.5q0 -23 -14.5 -39t-36.5 -16z" />
    <glyph glyph-name="f_f" unicode="ff" horiz-adv-x="875" 
d="M115 0v360h-100v150h100v90l100 100h245v-140h-140l-10 -10v-40h195v90l100 100h280v-140h-175l-10 -10v-40h175v-150h-165v-360h-205v360h-185v-360h-205z" />
    <glyph glyph-name="fi" unicode="fi" horiz-adv-x="750" 
d="M115 0v360h-100v150h100v90l100 100h320v-140h-215l-10 -10v-40h380v-510h-205v360h-165v-360h-205z" />
    <glyph glyph-name="fl" unicode="fl" horiz-adv-x="785" 
d="M115 0v360h-100v150h100v90l100 100h505v-700h-205v560h-195l-10 -10v-40h135v-150h-125v-360h-205z" />
    <glyph glyph-name="f_f_i" unicode="ffi" horiz-adv-x="1140" 
d="M115 0v360h-100v150h100v90l100 100h245v-140h-140l-10 -10v-40h195v90l100 100h320v-140h-215l-10 -10v-40h380v-510h-205v360h-165v-360h-205v360h-185v-360h-205z" />
    <glyph glyph-name="f_f_l" unicode="ffl" horiz-adv-x="1175" 
d="M115 0v360h-100v150h100v90l100 100h245v-140h-140l-10 -10v-40h195v90l100 100h505v-700h-205v560h-195l-10 -10v-40h135v-150h-125v-360h-205v360h-185v-360h-205z" />
    <glyph glyph-name="f_j" unicode="fj" horiz-adv-x="750" 
d="M270 -200v155h205l10 10v395h-165v-360h-205v360h-100v150h100v90l100 100h320v-140h-215l-10 -10v-40h380v-600l-110 -110h-310z" />
    <glyph glyph-name="f_t" unicode="ft" horiz-adv-x="930" 
d="M115 0v360h-100v150h100v90l100 100h255v-140h-150l-10 -10v-40h215v130h205v-130h165v-150h-165v-190l10 -10h165v-160h-270l-110 110v250h-205v-360h-205z" />
    <glyph glyph-name="f_f_j" unicode="ffj" horiz-adv-x="1140" 
d="M660 -200v155h205l10 10v395h-165v-360h-205v360h-185v-360h-205v360h-100v150h100v90l100 100h245v-140h-140l-10 -10v-40h195v90l100 100h320v-140h-215l-10 -10v-40h380v-600l-110 -110h-310z" />
    <glyph glyph-name="r_t" unicode="rt" horiz-adv-x="925" 
d="M60 0v510h165v-40h20l45 40h230v130h205v-130h165v-150h-165v-190l10 -10h165v-160h-270l-110 110v250h-225l-30 -25v-335h-205z" />
    <glyph glyph-name=".notdef" horiz-adv-x="900" 
d="M100 0v284h45v-139h33v139h50v31h-128v126l19 -61h23l34 106l33 -106h23l54 170h-32l-34 -110l-35 110h-19l-35 -110l-31 103v157h700v-150h-110v-170h110v-91q-13 27 -50 27q-27 0 -43.5 -14.5t-16.5 -34.5t14 -32t30 -15t30 -9.5t14 -16.5q0 -21 -28 -21t-28 25h-33
q0 -24 17 -39.5t44 -15.5q33 0 50 20v-163h-700zM311 380h33v62h24l35 -62h37l-40 67q36 17 36 50q0 22 -16 37.5t-41 15.5h-68v-170zM469 380h33v170h-33v-170zM580 380h32v139h50v31h-132v-31h50v-139zM344 473v46h35q10 0 17 -6.5t7 -16.5q0 -23 -24 -23h-35zM722 483v36
h78v-36h-78zM722 411v41h78v-41h-78zM328 143q37 0 59.5 24.5t22.5 61.5t-23 62t-59 25t-59 -25t-23 -62t22.5 -61.5t59.5 -24.5zM585 143q29 0 48 19t19 47v106h-32v-106q0 -15 -9.5 -25t-25.5 -10q-17 0 -26.5 10.5t-9.5 24.5v106h-32v-106q0 -28 19.5 -47t48.5 -19z
M800 224q-9 9 -23.5 15t-25.5 8.5t-19 7.5t-8 12q0 9 7.5 14.5t18.5 5.5q10 0 18 -7t8 -18h24v-38zM328 174q-22 0 -36.5 16t-14.5 39q0 25 13.5 40.5t37.5 15.5t37.5 -15.5t13.5 -40.5q0 -23 -14.5 -39t-36.5 -16z" />
    <glyph glyph-name=".null" horiz-adv-x="0" 
 />
    <glyph glyph-name=".null" horiz-adv-x="0" 
 />
    <glyph glyph-name="nonmarkingreturn" horiz-adv-x="333" 
 />
    <glyph glyph-name="CR" unicode="&#xd;" horiz-adv-x="340" 
 />
    <glyph glyph-name="space" unicode=" " horiz-adv-x="340" 
 />
    <glyph glyph-name="exclam" unicode="!" horiz-adv-x="400" 
d="M120 215l-25 160v325h210v-325l-25 -160h-160zM100 0v170h200v-170h-200z" />
    <glyph glyph-name="quotedbl" unicode="&#x22;" horiz-adv-x="490" 
d="M80 360l-30 170v170h160v-170l-30 -170h-100zM310 360l-30 170v170h160v-170l-30 -170h-100z" />
    <glyph glyph-name="numbersign" unicode="#" horiz-adv-x="890" 
d="M850 400h-162l-26 -100h138v-140h-174l-41 -160h-154v60l26 100h-121l-41 -160h-154v60l26 100h-127v140h163l25 100h-138v140h174l41 160h154v-60l-26 -100h121l41 160h154v-60l-26 -100h127v-140zM493 300l25 100h-120l-26 -100h121z" />
    <glyph glyph-name="dollar" unicode="$" horiz-adv-x="770" 
d="M340 -100v100h-275v180h430l20 20v40l-20 20h-310l-135 135v180l125 125h165v100h110v-100h250v-180h-410l-20 -20v-40l20 -20h310l135 -135v-180l-125 -125h-160v-100h-110z" />
    <glyph glyph-name="percent" unicode="%" horiz-adv-x="1035" 
d="M120 360l-75 75v190l75 75h235l75 -75v-190l-75 -75h-235zM255 0v50l395 650h130v-50l-395 -650h-130zM200 475h75l15 15v80l-15 15h-75l-15 -15v-80zM680 0l-75 75v190l75 75h235l75 -75v-190l-75 -75h-235zM760 115h75l15 15v80l-15 15h-75l-15 -15v-80z" />
    <glyph glyph-name="ampersand" unicode="&#x26;" horiz-adv-x="915" 
d="M170 0l-120 120v155l98 98l-78 77v140l110 110h375v-170h-245l-20 -20v-45l30 -30h185v-150h-205l-30 -30v-55l30 -30h250l30 30v355h210v-120h120v-150h-120v-165l-120 -120h-500z" />
    <glyph glyph-name="quotesingle" unicode="'" horiz-adv-x="260" 
d="M80 360l-30 170v170h160v-170l-30 -170h-100z" />
    <glyph glyph-name="parenleft" unicode="(" horiz-adv-x="445" 
d="M195 -200l-110 110v740l110 110h200v-180h-100l-20 -20v-560l20 -20h100v-180h-200z" />
    <glyph glyph-name="parenright" unicode=")" horiz-adv-x="445" 
d="M50 -200v180h100l20 20v560l-20 20h-100v180h200l110 -110v-740l-110 -110h-200z" />
    <glyph glyph-name="asterisk" unicode="*" horiz-adv-x="524" 
d="M205 322l5 108l-92 -60l-58 100l98 50l-98 50l58 100l94 -61l-6 111h115l-5 -109l90 59l58 -100l-98 -50l98 -50l-58 -100l-91 59l5 -107h-115z" />
    <glyph glyph-name="plus" unicode="+" horiz-adv-x="580" 
d="M220 100v185h-185v140h185v185h140v-185h185v-140h-185v-185h-140z" />
    <glyph glyph-name="comma" unicode="," horiz-adv-x="340" 
d="M95 -170l35 160h-60v180h200v-155l-70 -185h-105z" />
    <glyph glyph-name="hyphen" unicode="-" horiz-adv-x="460" 
d="M60 200v160h340v-160h-340z" />
    <glyph glyph-name="period" unicode="." horiz-adv-x="340" 
d="M70 0v170h200v-170h-200z" />
    <glyph glyph-name="slash" unicode="/" horiz-adv-x="440" 
d="M10 -200v60l280 870h140v-60l-280 -870h-140z" />
    <glyph glyph-name="zero" unicode="0" horiz-adv-x="840" 
d="M215 0l-150 150v400l150 150h410l150 -150v-400l-150 -150h-410zM330 180h180l45 45v250l-45 45h-180l-45 -45v-250z" />
    <glyph glyph-name="one" unicode="1" horiz-adv-x="640" 
d="M40 0v180h195v340h-175v180h395v-520h175v-180h-590z" />
    <glyph glyph-name="two" unicode="2" horiz-adv-x="780" 
d="M50 0v300l130 130h310l20 20v50l-20 20h-410v180h540l110 -110v-220l-110 -110h-320l-30 -30v-50h455v-180h-675z" />
    <glyph glyph-name="three" unicode="3" horiz-adv-x="765" 
d="M40 0v180h430l30 30v35l-25 25h-285v170h270l20 20v40l-20 20h-405v180h535l110 -110v-140l-78 -77l98 -98v-165l-110 -110h-570z" />
    <glyph glyph-name="four" unicode="4" horiz-adv-x="800" 
d="M475 0v100h-445v215l378 385h272v-430h95v-170h-95v-100h-205zM260 270h215v220h-30l-185 -190v-30z" />
    <glyph glyph-name="five" unicode="5" horiz-adv-x="785" 
d="M55 0v180h430l30 30v35l-30 30h-405v425h630v-180h-415v-75h320l120 -120v-205l-120 -120h-560z" />
    <glyph glyph-name="six" unicode="6" horiz-adv-x="810" 
d="M200 0l-135 135v430l135 135h510v-180h-400l-30 -30v-35h345l135 -135v-185l-135 -135h-425zM310 180h200l30 30v45l-30 30h-230v-75z" />
    <glyph glyph-name="seven" unicode="7" horiz-adv-x="720" 
d="M195 0v275l275 215v30h-445v180h670v-265l-280 -223v-212h-220z" />
    <glyph glyph-name="eight" unicode="8" horiz-adv-x="815" 
d="M175 0l-120 120v155l93 93l-73 72v150l110 110h445l110 -110v-150l-73 -72l93 -93v-155l-120 -120h-465zM320 435h175l25 25v50l-20 20h-185l-20 -20v-50zM305 170h205l30 30v60l-25 25h-215l-25 -25v-60z" />
    <glyph glyph-name="nine" unicode="9" horiz-adv-x="810" 
d="M100 0v180h400l30 30v35h-345l-135 135v185l135 135h425l135 -135v-430l-135 -135h-510zM300 415h230v75l-30 30h-200l-30 -30v-45z" />
    <glyph glyph-name="colon" unicode=":" horiz-adv-x="340" 
d="M70 340v170h200v-170h-200zM70 0v170h200v-170h-200z" />
    <glyph glyph-name="semicolon" unicode=";" horiz-adv-x="340" 
d="M70 340v170h200v-170h-200zM95 -170l35 160h-60v180h200v-155l-70 -185h-105z" />
    <glyph glyph-name="less" unicode="&#x3c;" horiz-adv-x="488" 
d="M333 38l-298 297l298 298l100 -101l-198 -197l198 -197z" />
    <glyph glyph-name="equal" unicode="=" horiz-adv-x="580" 
d="M55 385v140h470v-140h-470zM55 175v140h470v-140h-470z" />
    <glyph glyph-name="greater" unicode="&#x3e;" horiz-adv-x="488" 
d="M155 38l-100 100l198 197l-198 197l100 101l298 -298z" />
    <glyph glyph-name="question" unicode="?" horiz-adv-x="765" 
d="M205 215v135l85 85h160l25 25v50l-25 25h-380v165h495l125 -125v-180l-125 -125h-160l-10 -10v-45h-190zM200 0v170h200v-170h-200z" />
    <glyph glyph-name="at" unicode="@" horiz-adv-x="990" 
d="M230 -155l-160 160v500l160 160h540l160 -160v-340l-105 -105h-171l-43 46l-46 -46h-175l-80 80v230l80 80h280v-265l20 -20h85l25 25v270l-90 90h-420l-90 -90v-410l90 -90h540v-115h-600zM445 165h90l20 20v160h-110l-20 -20v-140z" />
    <glyph glyph-name="A" unicode="A" horiz-adv-x="865" 
d="M584 700l266 -640v-60h-214l-43 115h-325l-44 -115h-209v60l271 640h298zM337 295h189l-81 215h-25z" />
    <glyph glyph-name="B" unicode="B" horiz-adv-x="860" 
d="M85 0v700h580l110 -110v-140l-65 -65l100 -100v-165l-120 -120h-605zM305 433h228l22 22v55l-20 20h-230v-97zM305 170h255l30 30v55l-28 28h-257v-113z" />
    <glyph glyph-name="C" unicode="C" horiz-adv-x="740" 
d="M215 0l-150 150v400l150 150h485v-180h-370l-45 -45v-250l45 -45h370v-180h-485z" />
    <glyph glyph-name="D" unicode="D" horiz-adv-x="870" 
d="M85 0v700h570l150 -150v-400l-150 -150h-570zM305 180h235l45 45v250l-45 45h-235v-340z" />
    <glyph glyph-name="E" unicode="E" horiz-adv-x="775" 
d="M85 0v700h640v-180h-420v-85h310v-160h-310v-95h430v-180h-650z" />
    <glyph glyph-name="F" unicode="F" horiz-adv-x="720" 
d="M85 0v700h620v-180h-400v-135h290v-170h-290v-215h-220z" />
    <glyph glyph-name="G" unicode="G" horiz-adv-x="860" 
d="M215 0l-150 150v400l150 150h530v-180h-415l-45 -45v-250l45 -45h225l45 45v55h-200v155h415v-285l-150 -150h-450z" />
    <glyph glyph-name="H" unicode="H" horiz-adv-x="880" 
d="M85 0v700h220v-255h270v255h220v-700h-220v255h-270v-255h-220z" />
    <glyph glyph-name="I" unicode="I" horiz-adv-x="590" 
d="M45 0v170h140v360h-140v170h500v-170h-140v-360h140v-170h-500z" />
    <glyph glyph-name="J" unicode="J" horiz-adv-x="625" 
d="M35 0v190h255l40 40v290h-260v180h480v-545l-155 -155h-360z" />
    <glyph glyph-name="K" unicode="K" horiz-adv-x="825" 
d="M85 0v700h220v-250h88l177 250h220v-60l-215 -279l235 -301v-60h-230l-184 260h-91v-260h-220z" />
    <glyph glyph-name="L" unicode="L" horiz-adv-x="680" 
d="M85 0v700h220v-510h360v-190h-580z" />
    <glyph glyph-name="M" unicode="M" horiz-adv-x="1080" 
d="M85 0v700h317l128 -365h24l128 365h313v-700h-210v440h-20l-130 -365h-190l-130 365h-20v-440h-210z" />
    <glyph glyph-name="N" unicode="N" horiz-adv-x="930" 
d="M85 0v700h320l215 -460h20v460h205v-700h-320l-215 460h-20v-460h-205z" />
    <glyph glyph-name="O" unicode="O" horiz-adv-x="880" 
d="M215 0l-150 150v400l150 150h450l150 -150v-400l-150 -150h-450zM330 180h220l45 45v250l-45 45h-220l-45 -45v-250z" />
    <glyph glyph-name="P" unicode="P" horiz-adv-x="815" 
d="M85 0v700h555l130 -130v-265l-130 -130h-335v-175h-220zM305 355h215l30 30v105l-30 30h-215v-165z" />
    <glyph glyph-name="Q" unicode="Q" horiz-adv-x="880" 
d="M665 700l150 -150v-400l-150 -150h-150v-145h-150v145h-150l-150 150v400l150 150h450zM595 225v250l-45 45h-220l-45 -45v-250l45 -45h35v115h150v-115h35z" />
    <glyph glyph-name="R" unicode="R" horiz-adv-x="855" 
d="M85 0v700h565l130 -130v-230l-107 -107l127 -173v-60h-216l-141 200h-138v-200h-220zM305 375h225l30 30v90l-30 30h-225v-150z" />
    <glyph glyph-name="S" unicode="S" horiz-adv-x="770" 
d="M65 0v180h430l20 20v40l-20 20h-310l-135 135v180l125 125h525v-180h-410l-20 -20v-40l20 -20h310l135 -135v-180l-125 -125h-545z" />
    <glyph glyph-name="T" unicode="T" horiz-adv-x="750" 
d="M265 0v520h-255v180h730v-180h-255v-520h-220z" />
    <glyph glyph-name="U" unicode="U" horiz-adv-x="840" 
d="M235 0l-160 160v540h220v-465l45 -45h160l45 45v465h220v-540l-160 -160h-370z" />
    <glyph glyph-name="V" unicode="V" horiz-adv-x="810" 
d="M242 0l-227 640v60h206l169 -500h34l170 500h201v-60l-223 -640h-330z" />
    <glyph glyph-name="W" unicode="W" horiz-adv-x="1154" 
d="M199 0l-179 640v60h204l135 -500h30l96 295l-40 145v60h197l131 -500h30l130 500h201v-60l-175 -640h-305l-63 220h-25l-64 -220h-303z" />
    <glyph glyph-name="X" unicode="X" horiz-adv-x="785" 
d="M20 0v60l228 303l-208 277v60h215l130 -190h21l129 190h210v-60l-208 -276l228 -304v-60h-215l-151 220h-18l-151 -220h-210z" />
    <glyph glyph-name="Y" unicode="Y" horiz-adv-x="770" 
d="M275 0v204l-270 436v60h205l166 -280h28l166 280h195v-60l-270 -436v-204h-220z" />
    <glyph glyph-name="Z" unicode="Z" horiz-adv-x="740" 
d="M40 0v235l380 255v30h-370v180h645v-235l-380 -255v-30h385v-180h-660z" />
    <glyph glyph-name="bracketleft" unicode="[" horiz-adv-x="445" 
d="M85 -200v960h310v-180h-120v-600h120v-180h-310z" />
    <glyph glyph-name="backslash" unicode="\" horiz-adv-x="440" 
d="M290 -200l-280 870v60h140l280 -870v-60h-140z" />
    <glyph glyph-name="bracketright" unicode="]" horiz-adv-x="445" 
d="M50 -200v180h120v600h-120v180h310v-960h-310z" />
    <glyph glyph-name="asciicircum" unicode="^" horiz-adv-x="535" 
d="M123 443l-83 82l175 175h104l176 -175l-83 -82l-135 134h-20z" />
    <glyph glyph-name="underscore" unicode="_" horiz-adv-x="460" 
d="M-20 -200v140h500v-140h-500z" />
    <glyph glyph-name="grave" unicode="`" horiz-adv-x="280" 
d="M126 560l-96 165v15h151l69 -165v-15h-124z" />
    <glyph glyph-name="a" unicode="a" horiz-adv-x="660" 
d="M130 0l-95 95v125l95 95h270v25l-20 20h-275v150h395l105 -105v-405h-165v35h-15l-40 -35h-255zM255 140h120l25 20v50h-140l-20 -20v-35z" />
    <glyph glyph-name="b" unicode="b" horiz-adv-x="680" 
d="M65 0v700h205v-220h6l34 30h200l120 -120v-270l-120 -120h-445zM270 160h130l25 25v140l-25 25h-100l-30 -25v-165z" />
    <glyph glyph-name="c" unicode="c" horiz-adv-x="585" 
d="M170 0l-120 120v270l120 120h370v-160h-260l-25 -25v-140l25 -25h260v-160h-370z" />
    <glyph glyph-name="d" unicode="d" horiz-adv-x="680" 
d="M170 0l-120 120v270l120 120h240v190h205v-700h-165v40h-22l-48 -40h-210zM280 160h95l35 25v165h-130l-25 -25v-140z" />
    <glyph glyph-name="e" unicode="e" horiz-adv-x="670" 
d="M170 0l-120 120v270l120 120h335l120 -120v-190h-370v-25l25 -25h305v-150h-415zM255 305h165v40l-25 25h-115l-25 -25v-40z" />
    <glyph glyph-name="f" unicode="f" horiz-adv-x="485" 
d="M115 0v360h-100v150h100v90l100 100h280v-140h-175l-10 -10v-40h175v-150h-165v-360h-205z" />
    <glyph glyph-name="g" unicode="g" 
d="M100 -200v155h295l15 15v60h-6l-34 -30h-200l-120 120v270l120 120h445v-600l-110 -110h-405zM280 160h100l30 25v165h-130l-25 -25v-140z" />
    <glyph glyph-name="h" unicode="h" horiz-adv-x="685" 
d="M65 0v700h205v-220h6l34 30h205l115 -115v-395h-205v330l-20 20h-105l-30 -25v-325h-205z" />
    <glyph glyph-name="i" unicode="i" horiz-adv-x="325" 
d="M60 570v130h205v-130h-205zM60 0v510h205v-510h-205z" />
    <glyph glyph-name="j" unicode="j" horiz-adv-x="325" 
d="M60 570v130h205v-130h-205zM-90 -200v160h140l10 10v540h205v-600l-110 -110h-245z" />
    <glyph glyph-name="k" unicode="k" horiz-adv-x="682" 
d="M65 0v700h205v-360h59l130 170h193v-50l-151 -190l171 -220v-50h-206l-139 180h-57v-180h-205z" />
    <glyph glyph-name="l" unicode="l" horiz-adv-x="355" 
d="M85 0v555h-100v145h305v-700h-205z" />
    <glyph glyph-name="m" unicode="m" horiz-adv-x="980" 
d="M60 0v510h165v-40h20l45 40h190l55 -55h23l62 55h190l115 -115v-395h-205v330l-20 20h-75l-30 -25v-325h-205v330l-20 20h-75l-30 -25v-325h-205z" />
    <glyph glyph-name="n" unicode="n" horiz-adv-x="680" 
d="M60 0v510h165v-40h20l45 40h220l115 -115v-395h-205v330l-20 20h-105l-30 -25v-325h-205z" />
    <glyph glyph-name="o" unicode="o" 
d="M170 0l-120 120v270l120 120h335l120 -120v-270l-120 -120h-335zM280 160h115l25 25v140l-25 25h-115l-25 -25v-140z" />
    <glyph glyph-name="p" unicode="p" 
d="M60 -200v710h165v-40h22l48 40h210l120 -120v-270l-120 -120h-240v-200h-205zM265 160h130l25 25v140l-25 25h-95l-35 -25v-165z" />
    <glyph glyph-name="q" unicode="q" 
d="M410 -200v230h-6l-34 -30h-200l-120 120v270l120 120h445v-710h-205zM280 160h100l30 25v165h-130l-25 -25v-140z" />
    <glyph glyph-name="r" unicode="r" horiz-adv-x="460" 
d="M60 0v510h165v-40h20l45 40h175v-160h-170l-30 -25v-325h-205z" />
    <glyph glyph-name="s" unicode="s" horiz-adv-x="620" 
d="M55 0v140h310l15 15v15l-15 15h-225l-95 95v135l95 95h415v-140h-290l-15 -15v-15l15 -15h225l95 -95v-135l-95 -95h-435z" />
    <glyph glyph-name="t" unicode="t" horiz-adv-x="520" 
d="M225 0l-110 110v250h-100v150h100v130h205v-130h165v-150h-165v-190l10 -10h165v-160h-270z" />
    <glyph glyph-name="u" unicode="u" horiz-adv-x="665" 
d="M170 0l-115 115v395h205v-330l20 -20h90l30 25v325h205v-510h-165v40h-20l-45 -40h-205z" />
    <glyph glyph-name="v" unicode="v" horiz-adv-x="626" 
d="M174 0l-169 460v50h192l107 -330h20l111 330h186v-50l-170 -460h-277z" />
    <glyph glyph-name="w" unicode="w" horiz-adv-x="912" 
d="M154 0l-144 460v50h187l91 -330h20l65 194l-22 86v50h183l72 -330h20l94 330h182v-50l-141 -460h-250l-44 160h-20l-48 -160h-245z" />
    <glyph glyph-name="x" unicode="x" horiz-adv-x="654" 
d="M15 0v50l172 214l-157 196v50h211l79 -115h23l79 115h202v-50l-157 -195l172 -215v-50h-211l-93 135h-25l-93 -135h-202z" />
    <glyph glyph-name="y" unicode="y" horiz-adv-x="660" 
d="M90 -200v155h290l15 15v60h-6l-34 -30h-185l-115 115v395h205v-330l20 -20h85l30 25v325h205v-600l-110 -110h-400z" />
    <glyph glyph-name="z" unicode="z" horiz-adv-x="585" 
d="M35 0v195l255 145v20h-245v150h500v-195l-255 -145v-20h265v-150h-520z" />
    <glyph glyph-name="braceleft" unicode="{" horiz-adv-x="495" 
d="M245 -200l-110 110v275h-95v180h95v285l110 110h200v-180h-100l-20 -20v-560l20 -20h100v-180h-200z" />
    <glyph glyph-name="bar" unicode="|" horiz-adv-x="380" 
d="M100 -200v960h180v-960h-180z" />
    <glyph glyph-name="braceright" unicode="}" horiz-adv-x="495" 
d="M50 -200v180h100l20 20v560l-20 20h-100v180h200l110 -110v-285h95v-180h-95v-275l-110 -110h-200z" />
    <glyph glyph-name="asciitilde" unicode="~" horiz-adv-x="580" 
d="M53 262v110l70 70h160l60 -70h60l10 10v60h115v-110l-70 -70h-155l-60 70h-65l-10 -10v-60h-115z" />
    <glyph glyph-name="uni00A0" unicode="&#xa0;" horiz-adv-x="340" 
 />
    <glyph glyph-name="exclamdown" unicode="&#xa1;" horiz-adv-x="400" 
d="M100 340v170h200v-170h-200zM95 -200v335l25 160h160l25 -160v-335h-210z" />
    <glyph glyph-name="cent" unicode="&#xa2;" horiz-adv-x="605" 
d="M310 -90v90h-140l-120 120v270l120 120h140v90h110v-90h140v-160h-140v-190h140v-160h-140v-90h-110zM265 160h45v190h-45l-25 -25v-140z" />
    <glyph glyph-name="sterling" unicode="&#xa3;" horiz-adv-x="730" 
d="M25 0v180h135v120h-95v110h95v180l110 110h405v-180h-275l-20 -20v-90h235v-110h-235v-120h335v-180h-690z" />
    <glyph glyph-name="currency" unicode="&#xa4;" horiz-adv-x="640" 
d="M141 90l-71 71l70 70l-19 19v160l19 19l-70 70l71 71l70 -70l20 20h180l19 -19l70 69l70 -71l-69 -69l20 -20v-160l-20 -20l69 -69l-71 -71l-69 69l-19 -19h-180l-20 20zM276 260h90l25 25v90l-25 25h-90l-25 -25v-90z" />
    <glyph glyph-name="yen" unicode="&#xa5;" horiz-adv-x="760" 
d="M755 700v-60l-191 -315h121v-90h-176l-19 -31v-24h195v-90h-195v-90h-220v90h-195v90h195v24l-19 31h-176v90h121l-191 315v60h205l161 -285h28l161 285h195z" />
    <glyph glyph-name="brokenbar" unicode="&#xa6;" horiz-adv-x="380" 
d="M100 360v400h180v-400h-180zM100 -200v400h180v-400h-180z" />
    <glyph glyph-name="section" unicode="&#xa7;" 
d="M120 -200v150h275l20 20v30l-40 40h-195l-110 110v200l68 68l-53 52v125l105 105h340v-150h-250l-20 -20v-30l40 -40h195l110 -110v-200l-67 -67l52 -53v-125l-105 -105h-365zM270 170h135l20 20v120l-20 20h-135l-20 -20v-120z" />
    <glyph glyph-name="dieresis" unicode="&#xa8;" horiz-adv-x="440" 
d="M30 585v130h170v-130h-170zM240 585v130h170v-130h-170z" />
    <glyph glyph-name="copyright" unicode="&#xa9;" horiz-adv-x="1060" 
d="M270 -40l-160 160v450l160 160h520l160 -160v-450l-160 -160h-520zM330 75h400l90 90v360l-90 90h-400l-90 -90v-360zM425 150l-80 80v230l80 80h265v-100h-215l-20 -20v-150l20 -20h215v-100h-265z" />
    <glyph glyph-name="ordfeminine" unicode="&#xaa;" horiz-adv-x="465" 
d="M105 330l-70 70v110l70 70h195v18l-12 12h-208v90h280l60 -60v-310h-95v25h-10l-25 -25h-185zM174 425h111l15 15v55h-120l-25 -25v-26z" />
    <glyph glyph-name="guillemotleft" unicode="&#xab;" horiz-adv-x="691" 
d="M257 -15l-232 270l232 270l119 -99l-151 -171l151 -171zM537 -15l-232 270l232 270l119 -99l-151 -171l151 -171z" />
    <glyph glyph-name="logicalnot" unicode="&#xac;" horiz-adv-x="580" 
d="M390 200v95h-335v135h470v-230h-135z" />
    <glyph glyph-name="uni00AD" unicode="&#xad;" horiz-adv-x="460" 
d="M60 200v160h340v-160h-340z" />
    <glyph glyph-name="registered" unicode="&#xae;" horiz-adv-x="1060" 
d="M270 -40l-160 160v450l160 160h520l160 -160v-450l-160 -160h-520zM330 75h400l90 90v360l-90 90h-400l-90 -90v-360zM357 150v390h285l75 -75v-125l-64 -64l76 -101v-25h-105l-84 115h-73v-115h-110zM467 365h125l15 15v45l-15 15h-125v-75z" />
    <glyph glyph-name="macron" unicode="&#xaf;" horiz-adv-x="390" 
d="M30 595v110h330v-110h-330z" />
    <glyph glyph-name="degree" unicode="&#xb0;" horiz-adv-x="460" 
d="M110 365l-70 70v195l70 70h240l70 -70v-195l-70 -70h-240zM190 470h80l10 10v105l-10 10h-80l-10 -10v-105z" />
    <glyph glyph-name="plusminus" unicode="&#xb1;" horiz-adv-x="580" 
d="M220 190v170h-185v135h185v170h140v-170h185v-135h-185v-170h-140zM40 0v135h500v-135h-500z" />
    <glyph glyph-name="uni00B2" unicode="&#xb2;" horiz-adv-x="430" 
d="M35 460v150l65 65h145l10 10v10l-10 10h-195v95h285l60 -60v-95l-60 -60h-150l-10 -10v-15h210v-100h-350z" />
    <glyph glyph-name="uni00B3" unicode="&#xb3;" horiz-adv-x="410" 
d="M35 460v95h195l10 10v10l-10 10h-115v90h105l10 10v10l-10 10h-175v95h270l55 -55v-70l-32 -33l42 -42v-85l-55 -55h-290z" />
    <glyph glyph-name="acute" unicode="&#xb4;" horiz-adv-x="280" 
d="M30 560v15l69 165h151v-16l-96 -164h-124z" />
    <glyph glyph-name="uni00B5" unicode="&#xb5;" horiz-adv-x="690" 
d="M60 -200v710h205v-330l20 -20h110l30 25v325h205v-510h-165v40h-20l-45 -40h-115l-10 10h-10v-210h-205z" />
    <glyph glyph-name="paragraph" unicode="&#xb6;" horiz-adv-x="720" 
d="M260 -200v440h-90l-130 130v200l130 130h230v-900h-140zM490 -200v900h140v-900h-140z" />
    <glyph glyph-name="periodcentered" unicode="&#xb7;" horiz-adv-x="340" 
d="M70 202v170h200v-170h-200z" />
    <glyph glyph-name="cedilla" unicode="&#xb8;" horiz-adv-x="280" 
d="M10 -230v90h140l10 10v10l-10 10h-110v40l23 80l100 6v-6l-8 -30v-10h55l60 -60v-80l-60 -60h-200z" />
    <glyph glyph-name="uni00B9" unicode="&#xb9;" horiz-adv-x="400" 
d="M60 460v105h85v130h-75v105h215v-235h75v-105h-300z" />
    <glyph glyph-name="ordmasculine" unicode="&#xba;" horiz-adv-x="465" 
d="M140 330l-85 85v200l85 85h185l85 -85v-200l-85 -85h-185zM190 435h85l25 25v110l-25 25h-85l-25 -25v-110z" />
    <glyph glyph-name="guillemotright" unicode="&#xbb;" horiz-adv-x="691" 
d="M154 -15l-119 99l151 171l-151 171l119 99l232 -270zM434 -15l-119 99l151 171l-151 171l119 99l232 -270z" />
    <glyph glyph-name="onequarter" unicode="&#xbc;" horiz-adv-x="920" 
d="M60 360v105h85v130h-75v105h215v-235h75v-105h-300zM200 0v50l395 650h130v-50l-395 -650h-130zM710 0v50h-200v110l150 180h180v-195h45v-95h-45v-50h-130zM645 145h65v80h-10l-55 -70v-10z" />
    <glyph glyph-name="onehalf" unicode="&#xbd;" horiz-adv-x="955" 
d="M60 360v105h85v130h-75v105h215v-235h75v-105h-300zM200 0v50l395 650h130v-50l-395 -650h-130zM560 0v150l65 65h145l10 10v10l-10 10h-195v95h285l60 -60v-95l-60 -60h-150l-10 -10v-15h210v-100h-350z" />
    <glyph glyph-name="threequarters" unicode="&#xbe;" horiz-adv-x="930" 
d="M35 360v95h195l10 10v10l-10 10h-115v90h105l10 10v10l-10 10h-175v95h270l55 -55v-70l-32 -33l42 -42v-85l-55 -55h-290zM210 0v50l395 650h130v-50l-395 -650h-130zM720 0v50h-200v110l150 180h180v-195h45v-95h-45v-50h-130zM655 145h65v80h-10l-55 -70v-10z" />
    <glyph glyph-name="questiondown" unicode="&#xbf;" horiz-adv-x="765" 
d="M365 340v170h200v-170h-200zM200 -200l-125 125v180l125 125h160l10 10v55h190v-145l-85 -85h-160l-25 -25v-50l25 -25h380v-165h-495z" />
    <glyph glyph-name="Agrave" unicode="&#xc0;" horiz-adv-x="865" 
d="M506 740h-134l-86 144v16h161l59 -145v-15zM584 700l266 -640v-60h-214l-43 115h-325l-44 -115h-209v60l271 640h298zM337 295h189l-81 215h-25z" />
    <glyph glyph-name="Aacute" unicode="&#xc1;" horiz-adv-x="865" 
d="M582 884l-86 -144h-134v15l59 145h161v-16zM584 700l266 -640v-60h-214l-43 115h-325l-44 -115h-209v60l271 640h298zM337 295h189l-81 215h-25z" />
    <glyph glyph-name="Acircumflex" unicode="&#xc2;" horiz-adv-x="865" 
d="M424 800l-56 -60h-134v35l111 115h180l109 -115v-35h-135l-55 60h-20zM584 700l266 -640v-60h-214l-43 115h-325l-44 -115h-209v60l271 640h298zM337 295h189l-81 215h-25z" />
    <glyph glyph-name="Atilde" unicode="&#xc3;" horiz-adv-x="865" 
d="M361 780v-40h-120v95l55 55h135l40 -45h30l5 5v40h120v-95l-55 -55h-135l-40 45h-30zM584 700l266 -640v-60h-214l-43 115h-325l-44 -115h-209v60l271 640h298zM337 295h189l-81 215h-25z" />
    <glyph glyph-name="Adieresis" unicode="&#xc4;" horiz-adv-x="865" 
d="M414 885v-130h-170v130h170zM624 885v-130h-170v130h170zM584 700l266 -640v-60h-214l-43 115h-325l-44 -115h-209v60l271 640h298zM337 295h189l-81 215h-25z" />
    <glyph glyph-name="Aring" unicode="&#xc5;" horiz-adv-x="865" 
d="M524 725h-180l-65 65v105l65 65h180l65 -65v-105zM384 860v-35l10 -10h80l10 10v35l-10 10h-80zM584 700l266 -640v-60h-214l-43 115h-325l-44 -115h-209v60l271 640h298zM337 295h189l-81 215h-25z" />
    <glyph glyph-name="AE" unicode="&#xc6;" horiz-adv-x="1209" 
d="M769 180h400v-180h-610v145h-265l-70 -145h-214v60l329 640h820v-180h-390v-85h280v-160h-280v-95zM559 325v195h-85l-94 -195h179z" />
    <glyph glyph-name="Ccedilla" unicode="&#xc7;" horiz-adv-x="740" 
d="M330 520l-45 -45v-250l45 -45h370v-180h-229l-5 -20v-10h55l60 -60v-80l-60 -60h-200v90h140l10 10v10l-10 10h-110v40l20 70h-156l-150 150v400l150 150h485v-180h-370z" />
    <glyph glyph-name="Egrave" unicode="&#xc8;" horiz-adv-x="775" 
d="M343 740l-86 144v16h161l59 -145v-15h-134zM85 0v700h640v-180h-420v-85h310v-160h-310v-95h430v-180h-650z" />
    <glyph glyph-name="Eacute" unicode="&#xc9;" horiz-adv-x="775" 
d="M333 740v15l59 145h161v-16l-86 -144h-134zM85 0v700h640v-180h-420v-85h310v-160h-310v-95h430v-180h-650z" />
    <glyph glyph-name="Ecircumflex" unicode="&#xca;" horiz-adv-x="775" 
d="M205 740v35l111 115h180l109 -115v-35h-135l-55 60h-20l-56 -60h-134zM85 0v700h640v-180h-420v-85h310v-160h-310v-95h430v-180h-650z" />
    <glyph glyph-name="Edieresis" unicode="&#xcb;" horiz-adv-x="775" 
d="M215 755v130h170v-130h-170zM425 755v130h170v-130h-170zM85 0v700h640v-180h-420v-85h310v-160h-310v-95h430v-180h-650z" />
    <glyph glyph-name="Igrave" unicode="&#xcc;" horiz-adv-x="590" 
d="M233 740l-86 144v16h161l59 -145v-15h-134zM45 0v170h140v360h-140v170h500v-170h-140v-360h140v-170h-500z" />
    <glyph glyph-name="Iacute" unicode="&#xcd;" horiz-adv-x="590" 
d="M223 740v15l59 145h161v-16l-86 -144h-134zM45 0v170h140v360h-140v170h500v-170h-140v-360h140v-170h-500z" />
    <glyph glyph-name="Icircumflex" unicode="&#xce;" horiz-adv-x="590" 
d="M95 740v35l111 115h180l109 -115v-35h-135l-55 60h-20l-56 -60h-134zM45 0v170h140v360h-140v170h500v-170h-140v-360h140v-170h-500z" />
    <glyph glyph-name="Idieresis" unicode="&#xcf;" horiz-adv-x="590" 
d="M105 755v130h170v-130h-170zM315 755v130h170v-130h-170zM45 0v170h140v360h-140v170h500v-170h-140v-360h140v-170h-500z" />
    <glyph glyph-name="Eth" unicode="&#xd0;" horiz-adv-x="875" 
d="M660 700l150 -150v-400l-150 -150h-570v300h-80v100h80v300h570zM590 225v250l-45 45h-235v-120h190v-100h-190v-120h235z" />
    <glyph glyph-name="Ntilde" unicode="&#xd1;" horiz-adv-x="930" 
d="M272 740v95l55 55h135l40 -45h30l5 5v40h120v-95l-55 -55h-135l-40 45h-30l-5 -5v-40h-120zM85 0v700h320l215 -460h20v460h205v-700h-320l-215 460h-20v-460h-205z" />
    <glyph glyph-name="Ograve" unicode="&#xd2;" horiz-adv-x="880" 
d="M378 740l-86 144v16h161l59 -145v-15h-134zM215 0l-150 150v400l150 150h450l150 -150v-400l-150 -150h-450zM330 180h220l45 45v250l-45 45h-220l-45 -45v-250z" />
    <glyph glyph-name="Oacute" unicode="&#xd3;" horiz-adv-x="880" 
d="M368 740v15l59 145h161v-16l-86 -144h-134zM215 0l-150 150v400l150 150h450l150 -150v-400l-150 -150h-450zM330 180h220l45 45v250l-45 45h-220l-45 -45v-250z" />
    <glyph glyph-name="Ocircumflex" unicode="&#xd4;" horiz-adv-x="880" 
d="M240 740v35l111 115h180l109 -115v-35h-135l-55 60h-20l-56 -60h-134zM215 0l-150 150v400l150 150h450l150 -150v-400l-150 -150h-450zM330 180h220l45 45v250l-45 45h-220l-45 -45v-250z" />
    <glyph glyph-name="Otilde" unicode="&#xd5;" horiz-adv-x="880" 
d="M247 740v95l55 55h135l40 -45h30l5 5v40h120v-95l-55 -55h-135l-40 45h-30l-5 -5v-40h-120zM215 0l-150 150v400l150 150h450l150 -150v-400l-150 -150h-450zM330 180h220l45 45v250l-45 45h-220l-45 -45v-250z" />
    <glyph glyph-name="Odieresis" unicode="&#xd6;" horiz-adv-x="880" 
d="M250 755v130h170v-130h-170zM460 755v130h170v-130h-170zM215 0l-150 150v400l150 150h450l150 -150v-400l-150 -150h-450zM330 180h220l45 45v250l-45 45h-220l-45 -45v-250z" />
    <glyph glyph-name="multiply" unicode="&#xd7;" horiz-adv-x="580" 
d="M131 99l-96 96l158 159l-158 159l96 96l159 -158l159 159l96 -97l-158 -159l158 -159l-96 -96l-159 158z" />
    <glyph glyph-name="Oslash" unicode="&#xd8;" horiz-adv-x="906" 
d="M846 644l-58 -54l40 -40v-400l-150 -150h-450l-35 35l-60 -55l-73 77l58 53l-40 40v400l150 150h450l35 -35l60 55zM333 520l-45 -45v-207l269 252h-224zM573 180l45 45v207l-270 -252h225z" />
    <glyph glyph-name="Ugrave" unicode="&#xd9;" horiz-adv-x="840" 
d="M358 740l-86 144v16h161l59 -145v-15h-134zM235 0l-160 160v540h220v-465l45 -45h160l45 45v465h220v-540l-160 -160h-370z" />
    <glyph glyph-name="Uacute" unicode="&#xda;" horiz-adv-x="840" 
d="M348 740v15l59 145h161v-16l-86 -144h-134zM235 0l-160 160v540h220v-465l45 -45h160l45 45v465h220v-540l-160 -160h-370z" />
    <glyph glyph-name="Ucircumflex" unicode="&#xdb;" horiz-adv-x="840" 
d="M220 740v35l111 115h180l109 -115v-35h-135l-55 60h-20l-56 -60h-134zM235 0l-160 160v540h220v-465l45 -45h160l45 45v465h220v-540l-160 -160h-370z" />
    <glyph glyph-name="Udieresis" unicode="&#xdc;" horiz-adv-x="840" 
d="M230 755v130h170v-130h-170zM440 755v130h170v-130h-170zM235 0l-160 160v540h220v-465l45 -45h160l45 45v465h220v-540l-160 -160h-370z" />
    <glyph glyph-name="Yacute" unicode="&#xdd;" horiz-adv-x="770" 
d="M318 740v15l59 145h161v-16l-86 -144h-134zM275 0v204l-270 436v60h205l166 -280h28l166 280h195v-60l-270 -436v-204h-220z" />
    <glyph glyph-name="Thorn" unicode="&#xde;" horiz-adv-x="820" 
d="M85 0v700h220v-100h335l130 -130v-230l-130 -130h-335v-110h-220zM305 290h215l30 30v70l-30 30h-215v-130z" />
    <glyph glyph-name="germandbls" unicode="&#xdf;" horiz-adv-x="690" 
d="M65 0v580l120 120h310l120 -120v-140l-50 -50l90 -90v-180l-120 -120h-220v160h110l25 25v80l-25 25h-90v150h50l25 25v50l-25 25h-90l-25 -25v-515h-205z" />
    <glyph glyph-name="agrave" unicode="&#xe0;" horiz-adv-x="660" 
d="M285 560l-96 165v15h151l69 -165v-15h-124zM130 0l-95 95v125l95 95h270v25l-20 20h-275v150h395l105 -105v-405h-165v35h-15l-40 -35h-255zM255 140h120l25 20v50h-140l-20 -20v-35z" />
    <glyph glyph-name="aacute" unicode="&#xe1;" horiz-adv-x="660" 
d="M281 560v15l69 165h151v-16l-96 -164h-124zM130 0l-95 95v125l95 95h270v25l-20 20h-275v150h395l105 -105v-405h-165v35h-15l-40 -35h-255zM255 140h120l25 20v50h-140l-20 -20v-35z" />
    <glyph glyph-name="acircumflex" unicode="&#xe2;" horiz-adv-x="660" 
d="M150 560v39l106 131h180l104 -131v-39h-130l-53 75h-25l-53 -75h-129zM130 0l-95 95v125l95 95h270v25l-20 20h-275v150h395l105 -105v-405h-165v35h-15l-40 -35h-255zM255 140h120l25 20v50h-140l-20 -20v-35z" />
    <glyph glyph-name="atilde" unicode="&#xe3;" horiz-adv-x="660" 
d="M153 565v95l55 55h135l40 -45h30l5 5v40h120v-95l-55 -55h-135l-40 45h-30l-5 -5v-40h-120zM130 0l-95 95v125l95 95h270v25l-20 20h-275v150h395l105 -105v-405h-165v35h-15l-40 -35h-255zM255 140h120l25 20v50h-140l-20 -20v-35z" />
    <glyph glyph-name="adieresis" unicode="&#xe4;" horiz-adv-x="660" 
d="M155 585v130h170v-130h-170zM365 585v130h170v-130h-170zM130 0l-95 95v125l95 95h270v25l-20 20h-275v150h395l105 -105v-405h-165v35h-15l-40 -35h-255zM255 140h120l25 20v50h-140l-20 -20v-35z" />
    <glyph glyph-name="aring" unicode="&#xe5;" horiz-adv-x="660" 
d="M260 545l-65 65v110l65 65h170l65 -65v-110l-65 -65h-170zM310 635h70l10 10v40l-10 10h-70l-10 -10v-40zM130 0l-95 95v125l95 95h270v25l-20 20h-275v150h395l105 -105v-405h-165v35h-15l-40 -35h-255zM255 140h120l25 20v50h-140l-20 -20v-35z" />
    <glyph glyph-name="ae" unicode="&#xe6;" horiz-adv-x="975" 
d="M130 0l-95 95v125l95 95h255v20l-25 25h-255v150h330l48 -47l47 47h280l120 -120v-190h-350v-25l25 -25h285v-150h-358l-61 61l-69 -61h-272zM580 305h145v40l-25 25h-95l-25 -25v-40zM255 140h105l25 20v50h-125l-20 -20v-35z" />
    <glyph glyph-name="ccedilla" unicode="&#xe7;" horiz-adv-x="585" 
d="M280 350l-25 -25v-140l25 -25h260v-160h-160l-5 -20v-10h55l60 -60v-80l-60 -60h-200v90h140l10 10v10l-10 10h-110v40l20 70h-110l-120 120v270l120 120h370v-160h-260z" />
    <glyph glyph-name="egrave" unicode="&#xe8;" horiz-adv-x="670" 
d="M277 560l-96 165v15h151l69 -165v-15h-124zM170 0l-120 120v270l120 120h335l120 -120v-190h-370v-25l25 -25h305v-150h-415zM255 305h165v40l-25 25h-115l-25 -25v-40z" />
    <glyph glyph-name="eacute" unicode="&#xe9;" horiz-adv-x="670" 
d="M273 560v15l69 165h151v-16l-96 -164h-124zM170 0l-120 120v270l120 120h335l120 -120v-190h-370v-25l25 -25h305v-150h-415zM255 305h165v40l-25 25h-115l-25 -25v-40z" />
    <glyph glyph-name="ecircumflex" unicode="&#xea;" horiz-adv-x="670" 
d="M142 560v39l106 131h180l104 -131v-39h-130l-53 75h-25l-53 -75h-129zM170 0l-120 120v270l120 120h335l120 -120v-190h-370v-25l25 -25h305v-150h-415zM255 305h165v40l-25 25h-115l-25 -25v-40z" />
    <glyph glyph-name="edieresis" unicode="&#xeb;" horiz-adv-x="670" 
d="M147 585v130h170v-130h-170zM357 585v130h170v-130h-170zM170 0l-120 120v270l120 120h335l120 -120v-190h-370v-25l25 -25h305v-150h-415zM255 305h165v40l-25 25h-115l-25 -25v-40z" />
    <glyph glyph-name="igrave" unicode="&#xec;" horiz-adv-x="325" 
d="M103 560l-96 165v15h151l69 -165v-15h-124zM60 0v510h205v-510h-205z" />
    <glyph glyph-name="iacute" unicode="&#xed;" horiz-adv-x="325" 
d="M99 560v15l69 165h151v-16l-96 -164h-124zM60 0v510h205v-510h-205z" />
    <glyph glyph-name="icircumflex" unicode="&#xee;" horiz-adv-x="325" 
d="M-32 560v39l106 131h180l104 -131v-39h-130l-53 75h-25l-53 -75h-129zM60 0v510h205v-510h-205z" />
    <glyph glyph-name="idieresis" unicode="&#xef;" horiz-adv-x="325" 
d="M-12 585v135h155v-135h-155zM183 585v135h155v-135h-155zM60 0v510h205v-510h-205z" />
    <glyph glyph-name="eth" unicode="&#xf0;" horiz-adv-x="655" 
d="M452 567l173 -237v-210l-120 -120h-345l-120 120v230l120 120h130v13l-29 42l-131 -29h-20v99l89 20l-24 35v50h180l32 -44l148 33h20v-99zM420 185v110l-10 15h-140l-25 -25v-100l25 -25h125z" />
    <glyph glyph-name="ntilde" unicode="&#xf1;" horiz-adv-x="680" 
d="M153 565v95l55 55h135l40 -45h30l5 5v40h120v-95l-55 -55h-135l-40 45h-30l-5 -5v-40h-120zM60 0v510h165v-40h20l45 40h220l115 -115v-395h-205v330l-20 20h-105l-30 -25v-325h-205z" />
    <glyph glyph-name="ograve" unicode="&#xf2;" 
d="M277 560l-96 165v15h151l69 -165v-15h-124zM170 0l-120 120v270l120 120h335l120 -120v-270l-120 -120h-335zM280 160h115l25 25v140l-25 25h-115l-25 -25v-140z" />
    <glyph glyph-name="oacute" unicode="&#xf3;" 
d="M273 560v15l69 165h151v-16l-96 -164h-124zM170 0l-120 120v270l120 120h335l120 -120v-270l-120 -120h-335zM280 160h115l25 25v140l-25 25h-115l-25 -25v-140z" />
    <glyph glyph-name="ocircumflex" unicode="&#xf4;" 
d="M142 560v39l106 131h180l104 -131v-39h-130l-53 75h-25l-53 -75h-129zM170 0l-120 120v270l120 120h335l120 -120v-270l-120 -120h-335zM280 160h115l25 25v140l-25 25h-115l-25 -25v-140z" />
    <glyph glyph-name="otilde" unicode="&#xf5;" 
d="M145 565v95l55 55h135l40 -45h30l5 5v40h120v-95l-55 -55h-135l-40 45h-30l-5 -5v-40h-120zM170 0l-120 120v270l120 120h335l120 -120v-270l-120 -120h-335zM280 160h115l25 25v140l-25 25h-115l-25 -25v-140z" />
    <glyph glyph-name="odieresis" unicode="&#xf6;" 
d="M147 585v130h170v-130h-170zM357 585v130h170v-130h-170zM170 0l-120 120v270l120 120h335l120 -120v-270l-120 -120h-335zM280 160h115l25 25v140l-25 25h-115l-25 -25v-140z" />
    <glyph glyph-name="divide" unicode="&#xf7;" horiz-adv-x="580" 
d="M220 470v140h140v-140h-140zM45 285v140h490v-140h-490zM220 100v140h140v-140h-140z" />
    <glyph glyph-name="oslash" unicode="&#xf8;" horiz-adv-x="685" 
d="M650 474l-56 -48l36 -36v-270l-120 -120h-335l-31 31l-57 -51l-52 57l55 48l-35 35v270l120 120h335l31 -31l58 51zM275 360l-25 -25v-110l154 135h-129zM410 150l25 25v111l-155 -136h130z" />
    <glyph glyph-name="ugrave" unicode="&#xf9;" horiz-adv-x="665" 
d="M270 560l-96 165v15h151l69 -165v-15h-124zM170 0l-115 115v395h205v-330l20 -20h90l30 25v325h205v-510h-165v40h-20l-45 -40h-205z" />
    <glyph glyph-name="uacute" unicode="&#xfa;" horiz-adv-x="665" 
d="M266 560v15l69 165h151v-16l-96 -164h-124zM170 0l-115 115v395h205v-330l20 -20h90l30 25v325h205v-510h-165v40h-20l-45 -40h-205z" />
    <glyph glyph-name="ucircumflex" unicode="&#xfb;" horiz-adv-x="665" 
d="M135 560v39l106 131h180l104 -131v-39h-130l-53 75h-25l-53 -75h-129zM170 0l-115 115v395h205v-330l20 -20h90l30 25v325h205v-510h-165v40h-20l-45 -40h-205z" />
    <glyph glyph-name="udieresis" unicode="&#xfc;" horiz-adv-x="665" 
d="M140 585v130h170v-130h-170zM350 585v130h170v-130h-170zM170 0l-115 115v395h205v-330l20 -20h90l30 25v325h205v-510h-165v40h-20l-45 -40h-205z" />
    <glyph glyph-name="yacute" unicode="&#xfd;" horiz-adv-x="660" 
d="M264 560v15l69 165h151v-16l-96 -164h-124zM90 -200v155h290l15 15v60h-6l-34 -30h-185l-115 115v395h205v-330l20 -20h85l30 25v325h205v-600l-110 -110h-400z" />
    <glyph glyph-name="thorn" unicode="&#xfe;" horiz-adv-x="680" 
d="M65 -200v900h205v-220h6l34 30h200l120 -120v-270l-120 -120h-240v-200h-205zM270 160h130l25 25v140l-25 25h-100l-30 -25v-165z" />
    <glyph glyph-name="ydieresis" unicode="&#xff;" horiz-adv-x="660" 
d="M138 585v130h170v-130h-170zM348 585v130h170v-130h-170zM90 -200v155h290l15 15v60h-6l-34 -30h-185l-115 115v395h205v-330l20 -20h85l30 25v325h205v-600l-110 -110h-400z" />
    <glyph glyph-name="Amacron" unicode="&#x100;" horiz-adv-x="865" 
d="M599 875v-110h-330v110h330zM584 700l266 -640v-60h-214l-43 115h-325l-44 -115h-209v60l271 640h298zM337 295h189l-81 215h-25z" />
    <glyph glyph-name="amacron" unicode="&#x101;" horiz-adv-x="660" 
d="M180 595v110h330v-110h-330zM130 0l-95 95v125l95 95h270v25l-20 20h-275v150h395l105 -105v-405h-165v35h-15l-40 -35h-255zM255 140h120l25 20v50h-140l-20 -20v-35z" />
    <glyph glyph-name="Abreve" unicode="&#x102;" horiz-adv-x="865" 
d="M554 740h-240l-65 65v85h120v-35l10 -10h110l10 10v35h120v-85zM584 700l266 -640v-60h-214l-43 115h-325l-44 -115h-209v60l271 640h298zM337 295h189l-81 215h-25z" />
    <glyph glyph-name="abreve" unicode="&#x103;" horiz-adv-x="660" 
d="M235 560l-65 65v95h120v-45l10 -10h90l10 10v45h120v-95l-65 -65h-220zM130 0l-95 95v125l95 95h270v25l-20 20h-275v150h395l105 -105v-405h-165v35h-15l-40 -35h-255zM255 140h120l25 20v50h-140l-20 -20v-35z" />
    <glyph glyph-name="Aogonek" unicode="&#x104;" horiz-adv-x="865" 
d="M850 0l-105 -85v-35l10 -10h80v-100h-140l-60 60v111l75 59h-74l-43 115h-325l-44 -115h-209v60l271 640h298l266 -640v-60zM337 295h189l-81 215h-25z" />
    <glyph glyph-name="aogonek" unicode="&#x105;" horiz-adv-x="660" 
d="M605 0l-105 -85v-35l10 -10h80v-100h-140l-60 60v111l75 59h-25v35h-15l-40 -35h-255l-95 95v125l95 95h270v25l-20 20h-275v150h395l105 -105v-405zM400 160v50h-140l-20 -20v-35l15 -15h120z" />
    <glyph glyph-name="Cacute" unicode="&#x106;" horiz-adv-x="740" 
d="M363 740v15l59 145h161v-16l-86 -144h-134zM215 0l-150 150v400l150 150h485v-180h-370l-45 -45v-250l45 -45h370v-180h-485z" />
    <glyph glyph-name="cacute" unicode="&#x107;" horiz-adv-x="585" 
d="M271 560v15l69 165h151v-16l-96 -164h-124zM170 0l-120 120v270l120 120h370v-160h-260l-25 -25v-140l25 -25h260v-160h-370z" />
    <glyph glyph-name="Ccircumflex" unicode="&#x108;" horiz-adv-x="740" 
d="M235 740v35l111 115h180l109 -115v-35h-135l-55 60h-20l-56 -60h-134zM215 0l-150 150v400l150 150h485v-180h-370l-45 -45v-250l45 -45h370v-180h-485z" />
    <glyph glyph-name="ccircumflex" unicode="&#x109;" horiz-adv-x="585" 
d="M140 560v39l106 131h180l104 -131v-39h-130l-53 75h-25l-53 -75h-129zM170 0l-120 120v270l120 120h370v-160h-260l-25 -25v-140l25 -25h260v-160h-370z" />
    <glyph glyph-name="Cdotaccent" unicode="&#x10a;" horiz-adv-x="740" 
d="M333 755v130h205v-130h-205zM215 0l-150 150v400l150 150h485v-180h-370l-45 -45v-250l45 -45h370v-180h-485z" />
    <glyph glyph-name="cdotaccent" unicode="&#x10b;" horiz-adv-x="585" 
d="M232 570v130h205v-130h-205zM170 0l-120 120v270l120 120h370v-160h-260l-25 -25v-140l25 -25h260v-160h-370z" />
    <glyph glyph-name="Ccaron" unicode="&#x10c;" horiz-adv-x="740" 
d="M344 740l-109 115v35h135l55 -60h20l56 60h134v-35l-111 -115h-180zM215 0l-150 150v400l150 150h485v-180h-370l-45 -45v-250l45 -45h370v-180h-485z" />
    <glyph glyph-name="ccaron" unicode="&#x10d;" horiz-adv-x="585" 
d="M244 560l-104 131v39h130l53 -75h25l53 75h129v-39l-106 -131h-180zM170 0l-120 120v270l120 120h370v-160h-260l-25 -25v-140l25 -25h260v-160h-370z" />
    <glyph glyph-name="Dcaron" unicode="&#x10e;" horiz-adv-x="870" 
d="M349 740l-109 115v35h135l55 -60h20l56 60h134v-35l-111 -115h-180zM85 0v700h570l150 -150v-400l-150 -150h-570zM305 180h235l45 45v250l-45 45h-235v-340z" />
    <glyph glyph-name="dcaron" unicode="&#x10f;" horiz-adv-x="680" 
d="M644 550v15l6 165h146v-16l-38 -164h-114zM170 0l-120 120v270l120 120h240v190h205v-700h-165v40h-22l-48 -40h-210zM280 160h95l35 25v165h-130l-25 -25v-140z" />
    <glyph glyph-name="Dcroat" unicode="&#x110;" horiz-adv-x="875" 
d="M660 700l150 -150v-400l-150 -150h-570v300h-80v100h80v300h570zM590 225v250l-45 45h-235v-120h190v-100h-190v-120h235z" />
    <glyph glyph-name="dcroat" unicode="&#x111;" horiz-adv-x="685" 
d="M170 0l-120 120v255l120 120h240v55h-205v95h205v55h205v-55h85v-95h-85v-550h-165v40h-22l-48 -40h-210zM280 160h95l35 25v150h-130l-25 -25v-125z" />
    <glyph glyph-name="Emacron" unicode="&#x112;" horiz-adv-x="775" 
d="M240 765v110h330v-110h-330zM85 0v700h640v-180h-420v-85h310v-160h-310v-95h430v-180h-650z" />
    <glyph glyph-name="emacron" unicode="&#x113;" horiz-adv-x="670" 
d="M172 595v110h330v-110h-330zM170 0l-120 120v270l120 120h335l120 -120v-190h-370v-25l25 -25h305v-150h-415zM255 305h165v40l-25 25h-115l-25 -25v-40z" />
    <glyph glyph-name="Ebreve" unicode="&#x114;" horiz-adv-x="775" 
d="M285 740l-65 65v85h120v-35l10 -10h110l10 10v35h120v-85l-65 -65h-240zM85 0v700h640v-180h-420v-85h310v-160h-310v-95h430v-180h-650z" />
    <glyph glyph-name="ebreve" unicode="&#x115;" horiz-adv-x="670" 
d="M227 560l-65 65v95h120v-45l10 -10h90l10 10v45h120v-95l-65 -65h-220zM170 0l-120 120v270l120 120h335l120 -120v-190h-370v-25l25 -25h305v-150h-415zM255 305h165v40l-25 25h-115l-25 -25v-40z" />
    <glyph glyph-name="Edotaccent" unicode="&#x116;" horiz-adv-x="775" 
d="M303 755v130h205v-130h-205zM85 0v700h640v-180h-420v-85h310v-160h-310v-95h430v-180h-650z" />
    <glyph glyph-name="edotaccent" unicode="&#x117;" horiz-adv-x="670" 
d="M234 570v130h205v-130h-205zM170 0l-120 120v270l120 120h335l120 -120v-190h-370v-25l25 -25h305v-150h-415zM255 305h165v40l-25 25h-115l-25 -25v-40z" />
    <glyph glyph-name="Eogonek" unicode="&#x118;" horiz-adv-x="775" 
d="M735 0l-105 -85v-35l10 -10h80v-100h-140l-60 60v111l75 59h-510v700h640v-180h-420v-85h310v-160h-310v-95h430v-180z" />
    <glyph glyph-name="eogonek" unicode="&#x119;" horiz-adv-x="670" 
d="M625 200h-370v-25l25 -25h305v-150l-105 -85v-35l10 -10h80v-100h-140l-60 60v111l75 59h-275l-120 120v270l120 120h335l120 -120v-190zM255 345v-40h165v40l-25 25h-115z" />
    <glyph glyph-name="Ecaron" unicode="&#x11a;" horiz-adv-x="775" 
d="M314 740l-109 115v35h135l55 -60h20l56 60h134v-35l-111 -115h-180zM85 0v700h640v-180h-420v-85h310v-160h-310v-95h430v-180h-650z" />
    <glyph glyph-name="ecaron" unicode="&#x11b;" horiz-adv-x="670" 
d="M246 560l-104 131v39h130l53 -75h25l53 75h129v-39l-106 -131h-180zM170 0l-120 120v270l120 120h335l120 -120v-190h-370v-25l25 -25h305v-150h-415zM255 305h165v40l-25 25h-115l-25 -25v-40z" />
    <glyph glyph-name="Gcircumflex" unicode="&#x11c;" horiz-adv-x="860" 
d="M245 740v35l111 115h180l109 -115v-35h-135l-55 60h-20l-56 -60h-134zM215 0l-150 150v400l150 150h530v-180h-415l-45 -45v-250l45 -45h225l45 45v55h-200v155h415v-285l-150 -150h-450z" />
    <glyph glyph-name="gcircumflex" unicode="&#x11d;" 
d="M160 560v39l106 131h180l104 -131v-39h-130l-53 75h-25l-53 -75h-129zM100 -200v155h295l15 15v60h-6l-34 -30h-200l-120 120v270l120 120h445v-600l-110 -110h-405zM280 160h100l30 25v165h-130l-25 -25v-140z" />
    <glyph glyph-name="Gbreve" unicode="&#x11e;" horiz-adv-x="860" 
d="M325 740l-65 65v85h120v-35l10 -10h110l10 10v35h120v-85l-65 -65h-240zM215 0l-150 150v400l150 150h530v-180h-415l-45 -45v-250l45 -45h225l45 45v55h-200v155h415v-285l-150 -150h-450z" />
    <glyph glyph-name="gbreve" unicode="&#x11f;" 
d="M245 560l-65 65v95h120v-45l10 -10h90l10 10v45h120v-95l-65 -65h-220zM100 -200v155h295l15 15v60h-6l-34 -30h-200l-120 120v270l120 120h445v-600l-110 -110h-405zM280 160h100l30 25v165h-130l-25 -25v-140z" />
    <glyph glyph-name="Gdotaccent" unicode="&#x120;" horiz-adv-x="860" 
d="M343 755v130h205v-130h-205zM215 0l-150 150v400l150 150h530v-180h-415l-45 -45v-250l45 -45h225l45 45v55h-200v155h415v-285l-150 -150h-450z" />
    <glyph glyph-name="gdotaccent" unicode="&#x121;" 
d="M252 570v130h205v-130h-205zM100 -200v155h295l15 15v60h-6l-34 -30h-200l-120 120v270l120 120h445v-600l-110 -110h-405zM280 160h100l30 25v165h-130l-25 -25v-140z" />
    <glyph glyph-name="uni0122" unicode="&#x122;" horiz-adv-x="860" 
d="M215 0l-150 150v400l150 150h530v-180h-415l-45 -45v-250l45 -45h225l45 45v55h-200v155h415v-285l-150 -150h-450zM390 -260l25 105h-50v125h155v-110l-50 -120h-80z" />
    <glyph glyph-name="uni0123" unicode="&#x123;" 
d="M277 550v110l45 130h80l-20 -115h50v-125h-155zM100 -200v155h295l15 15v60h-6l-34 -30h-200l-120 120v270l120 120h445v-600l-110 -110h-405zM280 160h100l30 25v165h-130l-25 -25v-140z" />
    <glyph glyph-name="Hcircumflex" unicode="&#x124;" horiz-adv-x="880" 
d="M240 740v35l111 115h180l109 -115v-35h-135l-55 60h-20l-56 -60h-134zM85 0v700h220v-255h270v255h220v-700h-220v255h-270v-255h-220z" />
    <glyph glyph-name="hcircumflex" unicode="&#x125;" horiz-adv-x="685" 
d="M-32 740v35l111 115h180l109 -115v-35h-135l-55 60h-20l-56 -60h-134zM65 0v700h205v-220h6l34 30h205l115 -115v-395h-205v330l-20 20h-105l-30 -25v-325h-205z" />
    <glyph glyph-name="Hbar" unicode="&#x126;" horiz-adv-x="910" 
d="M880 615v-100h-70v-515h-220v255h-270v-255h-220v515h-70v100h70v85h220v-85h270v85h220v-85h70zM590 445v70h-270v-70h270z" />
    <glyph glyph-name="hbar" unicode="&#x127;" horiz-adv-x="690" 
d="M70 0v550h-85v95h85v55h205v-55h205v-95h-205v-85h6l34 30h205l115 -115v-380h-205v315l-20 20h-105l-30 -25v-310h-205z" />
    <glyph glyph-name="Imacron" unicode="&#x12a;" horiz-adv-x="590" 
d="M130 765v110h330v-110h-330zM45 0v170h140v360h-140v170h500v-170h-140v-360h140v-170h-500z" />
    <glyph glyph-name="imacron" unicode="&#x12b;" horiz-adv-x="325" 
d="M-2 595v110h330v-110h-330zM60 0v510h205v-510h-205z" />
    <glyph glyph-name="Ibreve" unicode="&#x12c;" horiz-adv-x="590" 
d="M175 740l-65 65v85h120v-35l10 -10h110l10 10v35h120v-85l-65 -65h-240zM45 0v170h140v360h-140v170h500v-170h-140v-360h140v-170h-500z" />
    <glyph glyph-name="ibreve" unicode="&#x12d;" horiz-adv-x="325" 
d="M53 560l-65 65v95h120v-45l10 -10h90l10 10v45h120v-95l-65 -65h-220zM60 0v510h205v-510h-205z" />
    <glyph glyph-name="Iogonek" unicode="&#x12e;" horiz-adv-x="590" 
d="M545 530h-140v-360h140v-170h-175l-105 -85v-35l10 -10h80v-100h-140l-60 60v111l75 59h-185v170h140v360h-140v170h500v-170z" />
    <glyph glyph-name="iogonek" unicode="&#x12f;" horiz-adv-x="325" 
d="M60 700h205v-130h-205v130zM60 0v510h205v-510l-105 -85v-35l10 -10h80v-100h-140l-60 60v111l75 59h-65z" />
    <glyph glyph-name="Idotaccent" unicode="&#x130;" horiz-adv-x="590" 
d="M193 755v130h205v-130h-205zM45 0v170h140v360h-140v170h500v-170h-140v-360h140v-170h-500z" />
    <glyph glyph-name="dotlessi" unicode="&#x131;" horiz-adv-x="325" 
d="M60 0v510h205v-510h-205z" />
    <glyph glyph-name="IJ" unicode="&#x132;" horiz-adv-x="1215" 
d="M45 0v170h140v360h-140v170h500v-170h-140v-360h140v-170h-500zM625 0v190h255l40 40v290h-260v180h480v-545l-155 -155h-360z" />
    <glyph glyph-name="ij" unicode="&#x133;" horiz-adv-x="650" 
d="M60 570v130h205v-130h-205zM385 570v130h205v-130h-205zM60 -200v155h305l20 20v535h205v-600l-110 -110h-420zM60 0v510h205v-510h-205z" />
    <glyph glyph-name="Jcircumflex" unicode="&#x134;" horiz-adv-x="625" 
d="M110 740v35l111 115h180l109 -115v-35h-135l-55 60h-20l-56 -60h-134zM35 0v190h255l40 40v290h-260v180h480v-545l-155 -155h-360z" />
    <glyph glyph-name="jcircumflex" unicode="&#x135;" horiz-adv-x="325" 
d="M-32 560v39l106 131h180l104 -131v-39h-130l-53 75h-25l-53 -75h-129zM-90 -200v160h140l10 10v540h205v-600l-110 -110h-245z" />
    <glyph glyph-name="uni0136" unicode="&#x136;" horiz-adv-x="825" 
d="M85 0v700h220v-250h88l177 250h220v-60l-215 -279l235 -301v-60h-230l-184 260h-91v-260h-220zM392 -260l25 105h-50v125h155v-110l-50 -120h-80z" />
    <glyph glyph-name="uni0137" unicode="&#x137;" horiz-adv-x="682" 
d="M65 0v700h205v-360h59l130 170h193v-50l-151 -190l171 -220v-50h-206l-139 180h-57v-180h-205zM312 -260l25 105h-50v125h155v-110l-50 -120h-80z" />
    <glyph glyph-name="Lacute" unicode="&#x139;" horiz-adv-x="680" 
d="M123 740v15l59 145h161v-16l-86 -144h-134zM85 0v700h220v-510h360v-190h-580z" />
    <glyph glyph-name="lacute" unicode="&#x13a;" horiz-adv-x="355" 
d="M65 740v15l59 145h161v-16l-86 -144h-134zM85 0v555h-100v145h305v-700h-205z" />
    <glyph glyph-name="uni013B" unicode="&#x13b;" horiz-adv-x="680" 
d="M85 0v700h220v-510h360v-190h-580zM322 -260l25 105h-50v125h155v-110l-50 -120h-80z" />
    <glyph glyph-name="uni013C" unicode="&#x13c;" horiz-adv-x="355" 
d="M85 0v555h-100v145h305v-700h-205zM135 -260l25 105h-50v125h155v-110l-50 -120h-80z" />
    <glyph glyph-name="Lcaron" unicode="&#x13d;" horiz-adv-x="680" 
d="M334 550v15l6 165h146v-16l-38 -164h-114zM85 0v700h220v-510h360v-190h-580z" />
    <glyph glyph-name="lcaron" unicode="&#x13e;" horiz-adv-x="355" 
d="M319 550v15l6 165h146v-16l-38 -164h-114zM85 0v555h-100v145h305v-700h-205z" />
    <glyph glyph-name="Ldot" unicode="&#x13f;" horiz-adv-x="680" 
d="M85 0v700h220v-510h360v-190h-580zM435 344v170h200v-170h-200z" />
    <glyph glyph-name="ldot" unicode="&#x140;" horiz-adv-x="559" 
d="M85 0v555h-100v145h305v-700h-205zM367 264v170h200v-170h-200z" />
    <glyph glyph-name="Lslash" unicode="&#x141;" horiz-adv-x="700" 
d="M325 190h360v-190h-580v207l-45 -25h-50v135l95 54v329h220v-205l167 95h50v-135l-217 -123v-142z" />
    <glyph glyph-name="lslash" unicode="&#x142;" horiz-adv-x="405" 
d="M425 511v-95l-110 -66v-350h-205v226l-75 -45h-35v95l110 66v213h-100v145h305v-234l75 45h35z" />
    <glyph glyph-name="Nacute" unicode="&#x143;" horiz-adv-x="930" 
d="M393 740v15l59 145h161v-16l-86 -144h-134zM85 0v700h320l215 -460h20v460h205v-700h-320l-215 460h-20v-460h-205z" />
    <glyph glyph-name="nacute" unicode="&#x144;" horiz-adv-x="680" 
d="M281 560v15l69 165h151v-16l-96 -164h-124zM60 0v510h165v-40h20l45 40h220l115 -115v-395h-205v330l-20 20h-105l-30 -25v-325h-205z" />
    <glyph glyph-name="uni0145" unicode="&#x145;" horiz-adv-x="930" 
d="M85 0v700h320l215 -460h20v460h205v-700h-320l-215 460h-20v-460h-205zM412 -260l25 105h-50v125h155v-110l-50 -120h-80z" />
    <glyph glyph-name="uni0146" unicode="&#x146;" horiz-adv-x="680" 
d="M60 0v510h165v-40h20l45 40h220l115 -115v-395h-205v330l-20 20h-105l-30 -25v-325h-205zM289 -260l25 105h-50v125h155v-110l-50 -120h-80z" />
    <glyph glyph-name="Ncaron" unicode="&#x147;" horiz-adv-x="930" 
d="M374 740l-109 115v35h135l55 -60h20l56 60h134v-35l-111 -115h-180zM85 0v700h320l215 -460h20v460h205v-700h-320l-215 460h-20v-460h-205z" />
    <glyph glyph-name="ncaron" unicode="&#x148;" horiz-adv-x="680" 
d="M254 560l-104 131v39h130l53 -75h25l53 75h129v-39l-106 -131h-180zM60 0v510h165v-40h20l45 40h220l115 -115v-395h-205v330l-20 20h-105l-30 -25v-325h-205z" />
    <glyph glyph-name="Eng" unicode="&#x14a;" horiz-adv-x="930" 
d="M395 -200v155h225l20 20v25h-115l-215 460h-20v-460h-205v700h320l215 -460h20v460h205v-775l-125 -125h-325z" />
    <glyph glyph-name="eng" unicode="&#x14b;" horiz-adv-x="680" 
d="M510 510l115 -115v-485l-110 -110h-205v160h100l10 10v360l-20 20h-105l-30 -25v-325h-205v510h165v-40h20l45 40h220z" />
    <glyph glyph-name="Omacron" unicode="&#x14c;" horiz-adv-x="880" 
d="M275 765v110h330v-110h-330zM215 0l-150 150v400l150 150h450l150 -150v-400l-150 -150h-450zM330 180h220l45 45v250l-45 45h-220l-45 -45v-250z" />
    <glyph glyph-name="omacron" unicode="&#x14d;" 
d="M172 595v110h330v-110h-330zM170 0l-120 120v270l120 120h335l120 -120v-270l-120 -120h-335zM280 160h115l25 25v140l-25 25h-115l-25 -25v-140z" />
    <glyph glyph-name="Obreve" unicode="&#x14e;" horiz-adv-x="880" 
d="M320 740l-65 65v85h120v-35l10 -10h110l10 10v35h120v-85l-65 -65h-240zM215 0l-150 150v400l150 150h450l150 -150v-400l-150 -150h-450zM330 180h220l45 45v250l-45 45h-220l-45 -45v-250z" />
    <glyph glyph-name="obreve" unicode="&#x14f;" 
d="M227 560l-65 65v95h120v-45l10 -10h90l10 10v45h120v-95l-65 -65h-220zM170 0l-120 120v270l120 120h335l120 -120v-270l-120 -120h-335zM280 160h115l25 25v140l-25 25h-115l-25 -25v-140z" />
    <glyph glyph-name="Ohungarumlaut" unicode="&#x150;" horiz-adv-x="880" 
d="M280 740v15l45 145h153v-15l-68 -145h-130zM465 740v15l55 145h153v-15l-78 -145h-130zM215 0l-150 150v400l150 150h450l150 -150v-400l-150 -150h-450zM330 180h220l45 45v250l-45 45h-220l-45 -45v-250z" />
    <glyph glyph-name="ohungarumlaut" unicode="&#x151;" 
d="M182 560v15l55 165h143v-15l-78 -165h-120zM372 560v15l55 165h143v-15l-78 -165h-120zM170 0l-120 120v270l120 120h335l120 -120v-270l-120 -120h-335zM280 160h115l25 25v140l-25 25h-115l-25 -25v-140z" />
    <glyph glyph-name="OE" unicode="&#x152;" horiz-adv-x="1190" 
d="M215 0l-150 150v400l150 150h925v-180h-390v-85h280v-160h-280v-95h400v-180h-935zM330 180h210v340h-210l-45 -45v-250z" />
    <glyph glyph-name="oe" unicode="&#x153;" horiz-adv-x="1010" 
d="M170 0l-120 120v270l120 120h299l39 -39l39 39h298l120 -120v-190h-360v-25l25 -25h295v-150h-376l-40 40l-40 -40h-299zM605 305h155v40l-25 25h-105l-25 -25v-40zM280 160h105l25 25v140l-25 25h-105l-25 -25v-140z" />
    <glyph glyph-name="Racute" unicode="&#x154;" horiz-adv-x="855" 
d="M358 740v15l59 145h161v-16l-86 -144h-134zM85 0v700h565l130 -130v-230l-107 -107l127 -173v-60h-216l-141 200h-138v-200h-220zM305 375h225l30 30v90l-30 30h-225v-150z" />
    <glyph glyph-name="racute" unicode="&#x155;" horiz-adv-x="460" 
d="M199 560v15l69 165h151v-16l-96 -164h-124zM60 0v510h165v-40h20l45 40h175v-160h-170l-30 -25v-325h-205z" />
    <glyph glyph-name="uni0156" unicode="&#x156;" horiz-adv-x="855" 
d="M85 0v700h565l130 -130v-230l-107 -107l127 -173v-60h-216l-141 200h-138v-200h-220zM305 375h225l30 30v90l-30 30h-225v-150zM392 -260l25 105h-50v125h155v-110l-50 -120h-80z" />
    <glyph glyph-name="uni0157" unicode="&#x157;" horiz-adv-x="460" 
d="M60 0v510h165v-40h20l45 40h175v-160h-170l-30 -25v-325h-205zM110 -260l25 105h-50v125h155v-110l-50 -120h-80z" />
    <glyph glyph-name="Rcaron" unicode="&#x158;" horiz-adv-x="855" 
d="M339 740l-109 115v35h135l55 -60h20l56 60h134v-35l-111 -115h-180zM85 0v700h565l130 -130v-230l-107 -107l127 -173v-60h-216l-141 200h-138v-200h-220zM305 375h225l30 30v90l-30 30h-225v-150z" />
    <glyph glyph-name="rcaron" unicode="&#x159;" horiz-adv-x="460" 
d="M172 560l-104 131v39h130l53 -75h25l53 75h129v-39l-106 -131h-180zM60 0v510h165v-40h20l45 40h175v-160h-170l-30 -25v-325h-205z" />
    <glyph glyph-name="Sacute" unicode="&#x15a;" horiz-adv-x="770" 
d="M323 740v15l59 145h161v-16l-86 -144h-134zM65 0v180h430l20 20v40l-20 20h-310l-135 135v180l125 125h525v-180h-410l-20 -20v-40l20 -20h310l135 -135v-180l-125 -125h-545z" />
    <glyph glyph-name="sacute" unicode="&#x15b;" horiz-adv-x="620" 
d="M251 560v15l69 165h151v-16l-96 -164h-124zM55 0v140h310l15 15v15l-15 15h-225l-95 95v135l95 95h415v-140h-290l-15 -15v-15l15 -15h225l95 -95v-135l-95 -95h-435z" />
    <glyph glyph-name="Scircumflex" unicode="&#x15c;" horiz-adv-x="770" 
d="M195 740v35l111 115h180l109 -115v-35h-135l-55 60h-20l-56 -60h-134zM65 0v180h430l20 20v40l-20 20h-310l-135 135v180l125 125h525v-180h-410l-20 -20v-40l20 -20h310l135 -135v-180l-125 -125h-545z" />
    <glyph glyph-name="scircumflex" unicode="&#x15d;" horiz-adv-x="620" 
d="M120 560v39l106 131h180l104 -131v-39h-130l-53 75h-25l-53 -75h-129zM55 0v140h310l15 15v15l-15 15h-225l-95 95v135l95 95h415v-140h-290l-15 -15v-15l15 -15h225l95 -95v-135l-95 -95h-435z" />
    <glyph glyph-name="Scedilla" unicode="&#x15e;" horiz-adv-x="770" 
d="M600 440l135 -135v-180l-125 -125h-185l-5 -20v-10h55l60 -60v-80l-60 -60h-200v90h140l10 10v10l-10 10h-110v40l20 70h-260v180h430l20 20v40l-20 20h-310l-135 135v180l125 125h525v-180h-410l-20 -20v-40l20 -20h310z" />
    <glyph glyph-name="scedilla" unicode="&#x15f;" horiz-adv-x="620" 
d="M490 325l95 -95v-135l-95 -95h-135l-5 -20v-10h55l60 -60v-80l-60 -60h-200v90h140l10 10v10l-10 10h-110v40l20 70h-200v140h310l15 15v15l-15 15h-225l-95 95v135l95 95h415v-140h-290l-15 -15v-15l15 -15h225z" />
    <glyph glyph-name="Scaron" unicode="&#x160;" horiz-adv-x="770" 
d="M304 740l-109 115v35h135l55 -60h20l56 60h134v-35l-111 -115h-180zM65 0v180h430l20 20v40l-20 20h-310l-135 135v180l125 125h525v-180h-410l-20 -20v-40l20 -20h310l135 -135v-180l-125 -125h-545z" />
    <glyph glyph-name="scaron" unicode="&#x161;" horiz-adv-x="620" 
d="M224 560l-104 131v39h130l53 -75h25l53 75h129v-39l-106 -131h-180zM55 0v140h310l15 15v15l-15 15h-225l-95 95v135l95 95h415v-140h-290l-15 -15v-15l15 -15h225l95 -95v-135l-95 -95h-435z" />
    <glyph glyph-name="uni0162" unicode="&#x162;" horiz-adv-x="750" 
d="M425 0l-5 -20v-10h55l60 -60v-80l-60 -60h-200v90h140l10 10v10l-10 10h-110v40l20 70h-60v520h-255v180h730v-180h-255v-520h-60z" />
    <glyph glyph-name="uni0163" unicode="&#x163;" horiz-adv-x="520" 
d="M357 0l-5 -20v-10h55l60 -60v-80l-60 -60h-200v90h140l10 10v10l-10 10h-110v40l20 70h-32l-110 110v250h-100v150h100v130h205v-130h165v-150h-165v-190l10 -10h165v-160h-138z" />
    <glyph glyph-name="Tcaron" unicode="&#x164;" horiz-adv-x="750" 
d="M284 740l-109 115v35h135l55 -60h20l56 60h134v-35l-111 -115h-180zM265 0v520h-255v180h730v-180h-255v-520h-220z" />
    <glyph glyph-name="tcaron" unicode="&#x165;" horiz-adv-x="520" 
d="M349 550v15l6 165h146v-16l-38 -164h-114zM225 0l-110 110v250h-100v150h100v130h205v-130h165v-150h-165v-190l10 -10h165v-160h-270z" />
    <glyph glyph-name="Tbar" unicode="&#x166;" horiz-adv-x="750" 
d="M740 520h-255v-152h160v-100h-160v-268h-220v268h-160v100h160v152h-255v180h730v-180z" />
    <glyph glyph-name="tbar" unicode="&#x167;" horiz-adv-x="520" 
d="M330 160h165v-160h-270l-110 110v100h-70v95h70v55h-100v150h100v130h205v-130h165v-150h-165v-55h140v-95h-140v-40z" />
    <glyph glyph-name="Umacron" unicode="&#x16a;" horiz-adv-x="840" 
d="M255 765v110h330v-110h-330zM235 0l-160 160v540h220v-465l45 -45h160l45 45v465h220v-540l-160 -160h-370z" />
    <glyph glyph-name="umacron" unicode="&#x16b;" horiz-adv-x="665" 
d="M165 595v110h330v-110h-330zM170 0l-115 115v395h205v-330l20 -20h90l30 25v325h205v-510h-165v40h-20l-45 -40h-205z" />
    <glyph glyph-name="Ubreve" unicode="&#x16c;" horiz-adv-x="840" 
d="M300 740l-65 65v85h120v-35l10 -10h110l10 10v35h120v-85l-65 -65h-240zM235 0l-160 160v540h220v-465l45 -45h160l45 45v465h220v-540l-160 -160h-370z" />
    <glyph glyph-name="ubreve" unicode="&#x16d;" horiz-adv-x="665" 
d="M220 560l-65 65v95h120v-45l10 -10h90l10 10v45h120v-95l-65 -65h-220zM170 0l-115 115v395h205v-330l20 -20h90l30 25v325h205v-510h-165v40h-20l-45 -40h-205z" />
    <glyph glyph-name="Uring" unicode="&#x16e;" horiz-adv-x="840" 
d="M330 725l-65 65v105l65 65h180l65 -65v-105l-65 -65h-180zM380 815h80l10 10v35l-10 10h-80l-10 -10v-35zM235 0l-160 160v540h220v-465l45 -45h160l45 45v465h220v-540l-160 -160h-370z" />
    <glyph glyph-name="uring" unicode="&#x16f;" horiz-adv-x="665" 
d="M245 545l-65 65v110l65 65h170l65 -65v-110l-65 -65h-170zM295 635h70l10 10v40l-10 10h-70l-10 -10v-40zM170 0l-115 115v395h205v-330l20 -20h90l30 25v325h205v-510h-165v40h-20l-45 -40h-205z" />
    <glyph glyph-name="Uhungarumlaut" unicode="&#x170;" horiz-adv-x="840" 
d="M260 740v15l45 145h153v-15l-68 -145h-130zM445 740v15l55 145h153v-15l-78 -145h-130zM235 0l-160 160v540h220v-465l45 -45h160l45 45v465h220v-540l-160 -160h-370z" />
    <glyph glyph-name="uhungarumlaut" unicode="&#x171;" horiz-adv-x="665" 
d="M175 560v15l55 165h143v-15l-78 -165h-120zM365 560v15l55 165h143v-15l-78 -165h-120zM170 0l-115 115v395h205v-330l20 -20h90l30 25v325h205v-510h-165v40h-20l-45 -40h-205z" />
    <glyph glyph-name="Uogonek" unicode="&#x172;" horiz-adv-x="840" 
d="M537 -68v-52l10 -10h65v-100h-125l-60 60v112l58 58h-250l-160 160v540h220v-465l45 -45h160l45 45v465h220v-540z" />
    <glyph glyph-name="uogonek" unicode="&#x173;" horiz-adv-x="665" 
d="M605 0l-105 -85v-35l10 -10h80v-100h-140l-60 60v111l75 59h-25v40h-20l-45 -40h-205l-115 115v395h205v-330l20 -20h90l30 25v325h205v-510z" />
    <glyph glyph-name="Wcircumflex" unicode="&#x174;" horiz-adv-x="1154" 
d="M368 740v35l111 115h180l109 -115v-35h-135l-55 60h-20l-56 -60h-134zM199 0l-179 640v60h204l135 -500h30l96 295l-40 145v60h197l131 -500h30l130 500h201v-60l-175 -640h-305l-63 220h-25l-64 -220h-303z" />
    <glyph glyph-name="wcircumflex" unicode="&#x175;" horiz-adv-x="912" 
d="M253 560v39l106 131h180l104 -131v-39h-130l-53 75h-25l-53 -75h-129zM154 0l-144 460v50h187l91 -330h20l65 194l-22 86v50h183l72 -330h20l94 330h182v-50l-141 -460h-250l-44 160h-20l-48 -160h-245z" />
    <glyph glyph-name="Ycircumflex" unicode="&#x176;" horiz-adv-x="770" 
d="M190 740v35l111 115h180l109 -115v-35h-135l-55 60h-20l-56 -60h-134zM275 0v204l-270 436v60h205l166 -280h28l166 280h195v-60l-270 -436v-204h-220z" />
    <glyph glyph-name="ycircumflex" unicode="&#x177;" horiz-adv-x="660" 
d="M133 560v39l106 131h180l104 -131v-39h-130l-53 75h-25l-53 -75h-129zM90 -200v155h290l15 15v60h-6l-34 -30h-185l-115 115v395h205v-330l20 -20h85l30 25v325h205v-600l-110 -110h-400z" />
    <glyph glyph-name="Ydieresis" unicode="&#x178;" horiz-adv-x="770" 
d="M200 755v130h170v-130h-170zM410 755v130h170v-130h-170zM275 0v204l-270 436v60h205l166 -280h28l166 280h195v-60l-270 -436v-204h-220z" />
    <glyph glyph-name="Zacute" unicode="&#x179;" horiz-adv-x="740" 
d="M301 740v15l59 145h161v-16l-86 -144h-134zM40 0v235l380 255v30h-370v180h645v-235l-380 -255v-30h385v-180h-660z" />
    <glyph glyph-name="zacute" unicode="&#x17a;" horiz-adv-x="585" 
d="M238 560v15l69 165h151v-16l-96 -164h-124zM35 0v195l255 145v20h-245v150h500v-195l-255 -145v-20h265v-150h-520z" />
    <glyph glyph-name="Zdotaccent" unicode="&#x17b;" horiz-adv-x="740" 
d="M271 755v130h205v-130h-205zM40 0v235l380 255v30h-370v180h645v-235l-380 -255v-30h385v-180h-660z" />
    <glyph glyph-name="zdotaccent" unicode="&#x17c;" horiz-adv-x="585" 
d="M199 570v130h205v-130h-205zM35 0v195l255 145v20h-245v150h500v-195l-255 -145v-20h265v-150h-520z" />
    <glyph glyph-name="Zcaron" unicode="&#x17d;" horiz-adv-x="740" 
d="M282 740l-109 115v35h135l55 -60h20l56 60h134v-35l-111 -115h-180zM40 0v235l380 255v30h-370v180h645v-235l-380 -255v-30h385v-180h-660z" />
    <glyph glyph-name="zcaron" unicode="&#x17e;" horiz-adv-x="585" 
d="M211 560l-104 131v39h130l53 -75h25l53 75h129v-39l-106 -131h-180zM35 0v195l255 145v20h-245v150h500v-195l-255 -145v-20h265v-150h-520z" />
    <glyph glyph-name="uni018F" unicode="&#x18f;" horiz-adv-x="880" 
d="M215 0l-150 150v290h530v35l-45 45h-415v180h530l150 -150v-400l-150 -150h-450zM330 180h220l45 45v55h-310v-55z" />
    <glyph glyph-name="florin" unicode="&#x192;" horiz-adv-x="564" 
d="M434 530l-10 -10l-13 -70h128v-110h-149l-83 -438l-102 -102h-245v170h135l10 10l68 360h-93v110h114l28 148l102 102h245v-170h-135z" />
    <glyph glyph-name="uni01F4" unicode="&#x1f4;" horiz-adv-x="860" 
d="M373 740v15l59 145h161v-16l-86 -144h-134zM215 0l-150 150v400l150 150h530v-180h-415l-45 -45v-250l45 -45h225l45 45v55h-200v155h415v-285l-150 -150h-450z" />
    <glyph glyph-name="uni01F5" unicode="&#x1f5;" 
d="M291 560v15l69 165h151v-16l-96 -164h-124zM100 -200v155h295l15 15v60h-6l-34 -30h-200l-120 120v270l120 120h445v-600l-110 -110h-405zM280 160h100l30 25v165h-130l-25 -25v-140z" />
    <glyph glyph-name="uni0218" unicode="&#x218;" horiz-adv-x="770" 
d="M65 0v180h430l20 20v40l-20 20h-310l-135 135v180l125 125h525v-180h-410l-20 -20v-40l20 -20h310l135 -135v-180l-125 -125h-545zM322 -260l25 105h-50v125h155v-110l-50 -120h-80z" />
    <glyph glyph-name="uni0219" unicode="&#x219;" horiz-adv-x="620" 
d="M55 0v140h310l15 15v15l-15 15h-225l-95 95v135l95 95h415v-140h-290l-15 -15v-15l15 -15h225l95 -95v-135l-95 -95h-435zM252 -260l25 105h-50v125h155v-110l-50 -120h-80z" />
    <glyph glyph-name="uni021A" unicode="&#x21a;" horiz-adv-x="750" 
d="M265 0v520h-255v180h730v-180h-255v-520h-220zM322 -260l25 105h-50v125h155v-110l-50 -120h-80z" />
    <glyph glyph-name="uni021B" unicode="&#x21b;" horiz-adv-x="520" 
d="M225 0l-110 110v250h-100v150h100v130h205v-130h165v-150h-165v-190l10 -10h165v-160h-270zM254 -260l25 105h-50v125h155v-110l-50 -120h-80z" />
    <glyph glyph-name="uni0232" unicode="&#x232;" horiz-adv-x="770" 
d="M225 765v110h330v-110h-330zM275 0v204l-270 436v60h205l166 -280h28l166 280h195v-60l-270 -436v-204h-220z" />
    <glyph glyph-name="uni0233" unicode="&#x233;" horiz-adv-x="660" 
d="M163 595v110h330v-110h-330zM90 -200v155h290l15 15v60h-6l-34 -30h-185l-115 115v395h205v-330l20 -20h85l30 25v325h205v-600l-110 -110h-400z" />
    <glyph glyph-name="uni0237" unicode="&#x237;" horiz-adv-x="325" 
d="M-90 -200v160h140l10 10v540h205v-600l-110 -110h-245z" />
    <glyph glyph-name="uni0244" unicode="&#x244;" horiz-adv-x="870" 
d="M850 475v-100h-70v-215l-160 -160h-370l-160 160v215h-70v100h70v225h220v-225h250v225h220v-225h70zM560 235v140h-250v-140l45 -45h160z" />
    <glyph glyph-name="uni0259" unicode="&#x259;" horiz-adv-x="670" 
d="M165 0l-120 120v190h370v25l-25 25h-305v150h415l120 -120v-270l-120 -120h-335zM275 140h115l25 25v30h-165v-30z" />
    <glyph glyph-name="uni0289" unicode="&#x289;" horiz-adv-x="715" 
d="M705 367v-95h-75v-272h-165v40h-20l-45 -40h-205l-115 115v157h-75v95h75v143h205v-143h140v143h205v-143h75zM425 185v87h-140v-92l20 -20h90z" />
    <glyph glyph-name="uni02BC" unicode="&#x2bc;" horiz-adv-x="310" 
d="M80 360l35 160h-60v180h200v-155l-70 -185h-105z" />
    <glyph glyph-name="circumflex" unicode="&#x2c6;" horiz-adv-x="450" 
d="M30 560v39l106 131h180l104 -131v-39h-130l-53 75h-25l-53 -75h-129z" />
    <glyph glyph-name="caron" unicode="&#x2c7;" horiz-adv-x="450" 
d="M134 560l-104 131v39h130l53 -75h25l53 75h129v-39l-106 -131h-180z" />
    <glyph glyph-name="breve" unicode="&#x2d8;" horiz-adv-x="410" 
d="M95 560l-65 65v95h120v-45l10 -10h90l10 10v45h120v-95l-65 -65h-220z" />
    <glyph glyph-name="dotaccent" unicode="&#x2d9;" horiz-adv-x="265" 
d="M30 570v130h205v-130h-205z" />
    <glyph glyph-name="ring" unicode="&#x2da;" horiz-adv-x="360" 
d="M95 545l-65 65v110l65 65h170l65 -65v-110l-65 -65h-170zM145 635h70l10 10v40l-10 10h-70l-10 -10v-40z" />
    <glyph glyph-name="ogonek" unicode="&#x2db;" horiz-adv-x="275" 
d="M90 -230l-60 60v111l133 105l82 -46l-105 -85v-35l10 -10h80v-100h-140z" />
    <glyph glyph-name="tilde" unicode="&#x2dc;" horiz-adv-x="445" 
d="M30 565v95l55 55h135l40 -45h30l5 5v40h120v-95l-55 -55h-135l-40 45h-30l-5 -5v-40h-120z" />
    <glyph glyph-name="hungarumlaut" unicode="&#x2dd;" horiz-adv-x="448" 
d="M30 560v15l55 165h143v-15l-78 -165h-120zM220 560v15l55 165h143v-15l-78 -165h-120z" />
    <glyph glyph-name="gravecomb" unicode="&#x300;" horiz-adv-x="0" 
d="M-154 560l-96 165v15h151l69 -165v-15h-124z" />
    <glyph glyph-name="acutecomb" unicode="&#x301;" horiz-adv-x="0" 
d="M-250 560v15l69 165h151v-16l-96 -164h-124z" />
    <glyph glyph-name="uni0302" unicode="&#x302;" horiz-adv-x="0" 
d="M-420 560v39l106 131h180l104 -131v-39h-130l-53 75h-25l-53 -75h-129z" />
    <glyph glyph-name="tildecomb" unicode="&#x303;" horiz-adv-x="0" 
d="M-415 565v95l55 55h135l40 -45h30l5 5v40h120v-95l-55 -55h-135l-40 45h-30l-5 -5v-40h-120z" />
    <glyph glyph-name="uni0304" unicode="&#x304;" horiz-adv-x="0" 
d="M-360 595v110h330v-110h-330z" />
    <glyph glyph-name="uni0306" unicode="&#x306;" horiz-adv-x="0" 
d="M-315 560l-65 65v95h120v-45l10 -10h90l10 10v45h120v-95l-65 -65h-220z" />
    <glyph glyph-name="uni0307" unicode="&#x307;" horiz-adv-x="0" 
d="M-235 570v130h205v-130h-205z" />
    <glyph glyph-name="uni0308" unicode="&#x308;" horiz-adv-x="0" 
d="M-410 585v130h170v-130h-170zM-200 585v130h170v-130h-170z" />
    <glyph glyph-name="uni030A" unicode="&#x30a;" horiz-adv-x="0" 
d="M-265 545l-65 65v110l65 65h170l65 -65v-110l-65 -65h-170zM-215 635h70l10 10v40l-10 10h-70l-10 -10v-40z" />
    <glyph glyph-name="uni030B" unicode="&#x30b;" horiz-adv-x="0" 
d="M-418 560v15l55 165h143v-15l-78 -165h-120zM-228 560v15l55 165h143v-15l-78 -165h-120z" />
    <glyph glyph-name="uni030C" unicode="&#x30c;" horiz-adv-x="0" 
d="M-316 560l-104 131v39h130l53 -75h25l53 75h129v-39l-106 -131h-180z" />
    <glyph glyph-name="uni0312" unicode="&#x312;" horiz-adv-x="0" 
d="M-185 550v110l45 130h80l-20 -115h50v-125h-155z" />
    <glyph glyph-name="uni0326" unicode="&#x326;" horiz-adv-x="0" 
d="M-160 -260l25 105h-50v125h155v-110l-50 -120h-80z" />
    <glyph glyph-name="uni0327" unicode="&#x327;" horiz-adv-x="0" 
d="M-270 -230v90h140l10 10v10l-10 10h-110v40l23 80l100 6v-6l-8 -30v-10h55l60 -60v-80l-60 -60h-200z" />
    <glyph glyph-name="uni0328" unicode="&#x328;" horiz-adv-x="0" 
d="M-185 -230l-60 60v111l133 105l82 -46l-105 -85v-35l10 -10h80v-100h-140z" />
    <glyph glyph-name="uni03A9" unicode="&#x3a9;" horiz-adv-x="920" 
d="M95 0v140h100v14l-100 91v305l150 150h430l150 -150v-305l-100 -91v-14h100v-140h-320v175l110 110v200l-45 45h-220l-45 -45v-200l110 -110v-175h-320z" />
    <glyph glyph-name="uni0400" unicode="&#x400;" horiz-adv-x="775" 
d="M343 740l-86 144v16h161l59 -145v-15h-134zM85 0v700h640v-180h-420v-85h310v-160h-310v-95h430v-180h-650z" />
    <glyph glyph-name="uni0401" unicode="&#x401;" horiz-adv-x="775" 
d="M215 755v130h170v-130h-170zM425 755v130h170v-130h-170zM85 0v700h640v-180h-420v-85h310v-160h-310v-95h430v-180h-650z" />
    <glyph glyph-name="uni0402" unicode="&#x402;" horiz-adv-x="990" 
d="M595 -10v170h95l30 30v50l-30 30h-235v-270h-220v520h-225v180h730v-180h-285v-70h365l120 -120v-220l-120 -120h-225z" />
    <glyph glyph-name="uni0403" unicode="&#x403;" horiz-adv-x="685" 
d="M308 740v15l59 145h161v-16l-86 -144h-134zM85 0v700h590v-180h-370v-520h-220z" />
    <glyph glyph-name="uni0404" unicode="&#x404;" horiz-adv-x="800" 
d="M215 0l-150 150v400l150 150h525v-180h-410l-45 -45v-42h355v-160h-355v-48l45 -45h420v-180h-535z" />
    <glyph glyph-name="uni0405" unicode="&#x405;" horiz-adv-x="770" 
d="M65 0v180h430l20 20v40l-20 20h-310l-135 135v180l125 125h525v-180h-410l-20 -20v-40l20 -20h310l135 -135v-180l-125 -125h-545z" />
    <glyph glyph-name="uni0406" unicode="&#x406;" horiz-adv-x="590" 
d="M45 0v170h140v360h-140v170h500v-170h-140v-360h140v-170h-500z" />
    <glyph glyph-name="uni0407" unicode="&#x407;" horiz-adv-x="590" 
d="M105 755v130h170v-130h-170zM315 755v130h170v-130h-170zM45 0v170h140v360h-140v170h500v-170h-140v-360h140v-170h-500z" />
    <glyph glyph-name="uni0408" unicode="&#x408;" horiz-adv-x="625" 
d="M35 0v190h255l40 40v290h-260v180h480v-545l-155 -155h-360z" />
    <glyph glyph-name="uni0409" unicode="&#x409;" horiz-adv-x="1280" 
d="M25 -10v205h105l23 23l37 482h600v-225h330l120 -120v-235l-120 -120h-545v520h-180l-29 -393l-137 -137h-204zM785 180h205l30 30v55l-30 30h-205v-115z" />
    <glyph glyph-name="uni040A" unicode="&#x40a;" horiz-adv-x="1250" 
d="M85 0v700h220v-225h240v225h215v-225h330l120 -120v-235l-120 -120h-545v285h-240v-285h-220zM755 180h205l30 30v55l-30 30h-205v-115z" />
    <glyph glyph-name="uni040B" unicode="&#x40b;" horiz-adv-x="995" 
d="M235 0v520h-225v180h730v-180h-285v-70h365l120 -120v-330h-220v240l-30 30h-235v-270h-220z" />
    <glyph glyph-name="uni040C" unicode="&#x40c;" horiz-adv-x="825" 
d="M368 740v15l59 145h161v-16l-86 -144h-134zM85 0v700h220v-250h88l177 250h220v-60l-215 -279l235 -301v-60h-230l-184 260h-91v-260h-220z" />
    <glyph glyph-name="uni040D" unicode="&#x40d;" horiz-adv-x="920" 
d="M398 740l-86 144v16h161l59 -145v-15h-134zM85 0v700h215v-460h20l205 460h310v-700h-215v460h-20l-205 -460h-310z" />
    <glyph glyph-name="uni040E" unicode="&#x40e;" horiz-adv-x="755" 
d="M268 740l-65 65v85h120v-35l10 -10h110l10 10v35h120v-85l-65 -65h-240zM110 0v180h170l7 14l-272 446v60h205l157 -285h30l148 285h195v-60l-345 -640h-295z" />
    <glyph glyph-name="uni040F" unicode="&#x40f;" horiz-adv-x="860" 
d="M775 700v-700h-240v-160h-210v160h-240v700h220v-520h250v520h220z" />
    <glyph glyph-name="uni0410" unicode="&#x410;" horiz-adv-x="865" 
d="M584 700l266 -640v-60h-214l-43 115h-325l-44 -115h-209v60l271 640h298zM337 295h189l-81 215h-25z" />
    <glyph glyph-name="uni0411" unicode="&#x411;" horiz-adv-x="845" 
d="M85 0v700h650v-180h-430v-75h375l120 -120v-205l-120 -120h-595zM305 170h245l30 30v55l-30 30h-245v-115z" />
    <glyph glyph-name="uni0412" unicode="&#x412;" horiz-adv-x="860" 
d="M85 0v700h580l110 -110v-140l-65 -65l100 -100v-165l-120 -120h-605zM305 433h228l22 22v55l-20 20h-230v-97zM305 170h255l30 30v55l-28 28h-257v-113z" />
    <glyph glyph-name="uni0413" unicode="&#x413;" horiz-adv-x="685" 
d="M85 0v700h590v-180h-370v-520h-220z" />
    <glyph glyph-name="uni0414" unicode="&#x414;" horiz-adv-x="950" 
d="M20 -160v340h85l59 80l36 440h605v-520h120v-340h-210v160h-485v-160h-210zM347 180h238v340h-182l-24 -295z" />
    <glyph glyph-name="uni0415" unicode="&#x415;" horiz-adv-x="775" 
d="M85 0v700h640v-180h-420v-85h310v-160h-310v-95h430v-180h-650z" />
    <glyph glyph-name="uni0416" unicode="&#x416;" horiz-adv-x="1190" 
d="M15 0v60l213 305l-188 275v60h200l164 -250h86v250h210v-250h86l164 250h200v-60l-188 -275l213 -305v-60h-220l-170 260h-85v-260h-210v260h-85l-170 -260h-220z" />
    <glyph glyph-name="uni0417" unicode="&#x417;" horiz-adv-x="775" 
d="M40 0v180h435l30 30v40l-28 28h-282v160h263l22 22v40l-20 20h-400v180h530l110 -110v-145l-67 -67l92 -93v-165l-120 -120h-565z" />
    <glyph glyph-name="uni0418" unicode="&#x418;" horiz-adv-x="920" 
d="M85 0v700h215v-460h20l205 460h310v-700h-215v460h-20l-205 -460h-310z" />
    <glyph glyph-name="uni0419" unicode="&#x419;" horiz-adv-x="920" 
d="M340 740l-65 65v85h120v-35l10 -10h110l10 10v35h120v-85l-65 -65h-240zM85 0v700h215v-460h20l205 460h310v-700h-215v460h-20l-205 -460h-310z" />
    <glyph glyph-name="uni041A" unicode="&#x41a;" horiz-adv-x="825" 
d="M85 0v700h220v-250h88l177 250h220v-60l-215 -279l235 -301v-60h-230l-184 260h-91v-260h-220z" />
    <glyph glyph-name="uni041B" unicode="&#x41b;" horiz-adv-x="885" 
d="M25 -10v205h105l23 23l37 482h610v-700h-220v520h-185l-29 -393l-137 -137h-204z" />
    <glyph glyph-name="uni041C" unicode="&#x41c;" horiz-adv-x="1080" 
d="M85 0v700h317l128 -365h24l128 365h313v-700h-210v440h-20l-130 -365h-190l-130 365h-20v-440h-210z" />
    <glyph glyph-name="uni041D" unicode="&#x41d;" horiz-adv-x="880" 
d="M85 0v700h220v-255h270v255h220v-700h-220v255h-270v-255h-220z" />
    <glyph glyph-name="uni041E" unicode="&#x41e;" horiz-adv-x="880" 
d="M215 0l-150 150v400l150 150h450l150 -150v-400l-150 -150h-450zM330 180h220l45 45v250l-45 45h-220l-45 -45v-250z" />
    <glyph glyph-name="uni041F" unicode="&#x41f;" horiz-adv-x="870" 
d="M85 0v700h700v-700h-220v520h-260v-520h-220z" />
    <glyph glyph-name="uni0420" unicode="&#x420;" horiz-adv-x="815" 
d="M85 0v700h555l130 -130v-265l-130 -130h-335v-175h-220zM305 355h215l30 30v105l-30 30h-215v-165z" />
    <glyph glyph-name="uni0421" unicode="&#x421;" horiz-adv-x="740" 
d="M215 0l-150 150v400l150 150h485v-180h-370l-45 -45v-250l45 -45h370v-180h-485z" />
    <glyph glyph-name="uni0422" unicode="&#x422;" horiz-adv-x="750" 
d="M265 0v520h-255v180h730v-180h-255v-520h-220z" />
    <glyph glyph-name="uni0423" unicode="&#x423;" horiz-adv-x="755" 
d="M110 0v180h170l7 14l-272 446v60h205l157 -285h30l148 285h195v-60l-345 -640h-295z" />
    <glyph glyph-name="uni0424" unicode="&#x424;" horiz-adv-x="1100" 
d="M445 -30v75h-240l-150 150v330l150 150h240v75h210v-75h240l150 -150v-330l-150 -150h-240v-75h-210zM320 225h125v270h-125l-45 -45v-180zM655 225h125l45 45v180l-45 45h-125v-270z" />
    <glyph glyph-name="uni0425" unicode="&#x425;" horiz-adv-x="785" 
d="M20 0v60l228 303l-208 277v60h215l130 -190h21l129 190h210v-60l-208 -276l228 -304v-60h-215l-151 220h-18l-151 -220h-210z" />
    <glyph glyph-name="uni0426" unicode="&#x426;" horiz-adv-x="890" 
d="M765 180h110v-340h-210v160h-580v700h220v-520h240v520h220v-520z" />
    <glyph glyph-name="uni0427" unicode="&#x427;" horiz-adv-x="810" 
d="M505 0v175h-310l-140 140v385h220v-305l30 -30h200v335h220v-700h-220z" />
    <glyph glyph-name="uni0428" unicode="&#x428;" horiz-adv-x="1210" 
d="M85 0v700h220v-520h190v520h220v-520h190v520h220v-700h-1040z" />
    <glyph glyph-name="uni0429" unicode="&#x429;" horiz-adv-x="1250" 
d="M1125 180h110v-340h-210v160h-940v700h220v-520h190v520h220v-520h190v520h220v-520z" />
    <glyph glyph-name="uni042A" unicode="&#x42a;" horiz-adv-x="905" 
d="M745 505l120 -120v-265l-120 -120h-580v520h-170v180h390v-195h360zM645 210v85l-30 30h-230v-145h230z" />
    <glyph glyph-name="uni042B" unicode="&#x42b;" horiz-adv-x="1170" 
d="M85 0v700h220v-195h340l120 -120v-265l-120 -120h-560zM865 0v700h220v-700h-220zM305 180h210l30 30v85l-30 30h-210v-145z" />
    <glyph glyph-name="uni042C" unicode="&#x42c;" horiz-adv-x="825" 
d="M85 0v700h220v-195h360l120 -120v-265l-120 -120h-580zM305 180h230l30 30v85l-30 30h-230v-145z" />
    <glyph glyph-name="uni042D" unicode="&#x42d;" horiz-adv-x="785" 
d="M45 0v180h410l45 45v48h-330v160h330v42l-45 45h-400v180h515l150 -150v-400l-150 -150h-525z" />
    <glyph glyph-name="uni042E" unicode="&#x42e;" horiz-adv-x="1165" 
d="M85 0v700h220v-255h100v105l150 150h395l150 -150v-400l-150 -150h-395l-150 150v105h-100v-255h-220zM670 180h165l45 45v250l-45 45h-165l-45 -45v-250z" />
    <glyph glyph-name="uni042F" unicode="&#x42f;" horiz-adv-x="855" 
d="M60 0v60l116 179l-101 101v230l130 130h565v-700h-220v200h-148l-126 -200h-216zM330 375h220v150h-220l-35 -35v-80z" />
    <glyph glyph-name="uni0430" unicode="&#x430;" horiz-adv-x="660" 
d="M130 0l-95 95v125l95 95h270v25l-20 20h-275v150h395l105 -105v-405h-165v35h-15l-40 -35h-255zM255 140h120l25 20v50h-140l-20 -20v-35z" />
    <glyph glyph-name="uni0431" unicode="&#x431;" horiz-adv-x="680" 
d="M175 0l-120 120v445l115 115l410 25h10v-160l-305 -15l-25 -25v-50h6l34 30h215l120 -120v-245l-120 -120h-340zM285 160h120l25 25v115l-25 25h-115l-30 -25v-115z" />
    <glyph glyph-name="uni0432" unicode="&#x432;" horiz-adv-x="670" 
d="M60 0v510h455l95 -95v-90l-45 -45l70 -70v-115l-95 -95h-480zM255 315h135l15 15v25l-15 15h-135v-55zM255 140h160l15 15v30l-15 15h-160v-60z" />
    <glyph glyph-name="uni0433" unicode="&#x433;" horiz-adv-x="515" 
d="M60 0v510h450v-160h-245v-350h-205z" />
    <glyph glyph-name="uni0434" unicode="&#x434;" horiz-adv-x="750" 
d="M10 -140v300h64l49 63l27 287h495v-350h95v-300h-190v140h-350v-140h-190zM289 160h156v195h-114l-15 -160z" />
    <glyph glyph-name="uni0435" unicode="&#x435;" horiz-adv-x="670" 
d="M170 0l-120 120v270l120 120h335l120 -120v-190h-370v-25l25 -25h305v-150h-415zM255 305h165v40l-25 25h-115l-25 -25v-40z" />
    <glyph glyph-name="uni0436" unicode="&#x436;" horiz-adv-x="950" 
d="M10 0v50l149 217l-129 193v50h191l111 -175h43v175h200v-175h43l111 175h191v-50l-129 -193l149 -217v-50h-202l-118 175h-45v-175h-200v175h-45l-118 -175h-202z" />
    <glyph glyph-name="uni0437" unicode="&#x437;" horiz-adv-x="615" 
d="M40 0v155h325l10 10v20l-10 10h-195v120h185l10 10v20l-10 10h-300v155h420l95 -95v-90l-52 -52l62 -63v-115l-95 -95h-445z" />
    <glyph glyph-name="uni0438" unicode="&#x438;" horiz-adv-x="730" 
d="M60 0v510h200v-270h17l156 270h237v-510h-200v270h-17l-123 -270h-270z" />
    <glyph glyph-name="uni0439" unicode="&#x439;" horiz-adv-x="730" 
d="M255 560l-65 65v95h120v-45l10 -10h90l10 10v45h120v-95l-65 -65h-220zM60 0v510h200v-270h17l156 270h237v-510h-200v270h-17l-123 -270h-270z" />
    <glyph glyph-name="uni043A" unicode="&#x43a;" horiz-adv-x="677" 
d="M60 0v510h205v-175h59l130 175h193v-50l-151 -194l171 -216v-50h-207l-138 175h-57v-175h-205z" />
    <glyph glyph-name="uni043B" unicode="&#x43b;" horiz-adv-x="685" 
d="M10 -10v185h85l10 10l20 325h500v-510h-205v350h-105l-15 -250l-110 -110h-180z" />
    <glyph glyph-name="uni043C" unicode="&#x43c;" horiz-adv-x="807" 
d="M60 0v510h260l76 -240h18l76 240h257v-510h-200v235h-15l-62 -165h-133l-62 165h-15v-235h-200z" />
    <glyph glyph-name="uni043D" unicode="&#x43d;" horiz-adv-x="690" 
d="M60 0v510h205v-170h160v170h205v-510h-205v180h-160v-180h-205z" />
    <glyph glyph-name="uni043E" unicode="&#x43e;" 
d="M170 0l-120 120v270l120 120h335l120 -120v-270l-120 -120h-335zM280 160h115l25 25v140l-25 25h-115l-25 -25v-140z" />
    <glyph glyph-name="uni043F" unicode="&#x43f;" 
d="M60 0v510h555v-510h-205v350h-145v-350h-205z" />
    <glyph glyph-name="uni0440" unicode="&#x440;" 
d="M60 -200v710h165v-40h22l48 40h210l120 -120v-270l-120 -120h-240v-200h-205zM265 160h130l25 25v140l-25 25h-95l-35 -25v-165z" />
    <glyph glyph-name="uni0441" unicode="&#x441;" horiz-adv-x="585" 
d="M170 0l-120 120v270l120 120h370v-160h-260l-25 -25v-140l25 -25h260v-160h-370z" />
    <glyph glyph-name="uni0442" unicode="&#x442;" horiz-adv-x="575" 
d="M185 0v350h-170v160h545v-160h-170v-350h-205z" />
    <glyph glyph-name="uni0443" unicode="&#x443;" horiz-adv-x="660" 
d="M90 -200v155h290l15 15v60h-6l-34 -30h-185l-115 115v395h205v-330l20 -20h85l30 25v325h205v-600l-110 -110h-400z" />
    <glyph glyph-name="uni0444" unicode="&#x444;" horiz-adv-x="920" 
d="M360 -200v200h-190l-120 120v270l120 120h190v190h200v-190h190l120 -120v-270l-120 -120h-190v-200h-200zM280 160h80v190h-80l-25 -25v-140zM560 160h80l25 25v140l-25 25h-80v-190z" />
    <glyph glyph-name="uni0445" unicode="&#x445;" horiz-adv-x="654" 
d="M15 0v50l172 214l-157 196v50h211l79 -115h23l79 115h202v-50l-157 -195l172 -215v-50h-211l-93 135h-25l-93 -135h-202z" />
    <glyph glyph-name="uni0446" unicode="&#x446;" horiz-adv-x="705" 
d="M605 160h85v-300h-190v140h-440v510h205v-350h135v350h205v-350z" />
    <glyph glyph-name="uni0447" unicode="&#x447;" horiz-adv-x="635" 
d="M370 0v130h-215l-115 115v265h205v-200l20 -20h105v220h205v-510h-205z" />
    <glyph glyph-name="uni0448" unicode="&#x448;" horiz-adv-x="965" 
d="M60 0v510h205v-350h115v350h205v-350h115v350h205v-510h-845z" />
    <glyph glyph-name="uni0449" unicode="&#x449;" horiz-adv-x="1005" 
d="M905 160h85v-300h-190v140h-740v510h205v-350h115v350h205v-350h115v350h205v-350z" />
    <glyph glyph-name="uni044A" unicode="&#x44a;" horiz-adv-x="705" 
d="M570 380l105 -105v-170l-105 -105h-440v350h-130v160h335v-130h235zM470 160v60l-20 20h-115v-100h115z" />
    <glyph glyph-name="uni044B" unicode="&#x44b;" horiz-adv-x="915" 
d="M60 0v510h205v-130h225l105 -105v-170l-105 -105h-430zM650 0v510h205v-510h-205zM265 140h105l20 20v60l-20 20h-105v-100z" />
    <glyph glyph-name="uni044C" unicode="&#x44c;" horiz-adv-x="635" 
d="M60 0v510h205v-130h235l105 -105v-170l-105 -105h-440zM265 140h115l20 20v60l-20 20h-115v-100z" />
    <glyph glyph-name="uni044D" unicode="&#x44d;" horiz-adv-x="615" 
d="M45 0v155h290l25 25v15h-185v120h185v15l-25 25h-280v155h390l120 -120v-270l-120 -120h-400z" />
    <glyph glyph-name="uni044E" unicode="&#x44e;" horiz-adv-x="920" 
d="M60 0v510h205v-175h55v55l120 120h310l120 -120v-270l-120 -120h-310l-120 120v55h-55v-175h-205zM550 160h90l25 25v140l-25 25h-90l-25 -25v-140z" />
    <glyph glyph-name="uni044F" unicode="&#x44f;" 
d="M35 0v50l84 121l-69 69v165l105 105h460v-510h-205v135h-88l-91 -135h-196zM275 275h135v95h-135l-20 -20v-55z" />
    <glyph glyph-name="uni0450" unicode="&#x450;" horiz-adv-x="670" 
d="M277 560l-96 165v15h151l69 -165v-15h-124zM170 0l-120 120v270l120 120h335l120 -120v-190h-370v-25l25 -25h305v-150h-415zM255 305h165v40l-25 25h-115l-25 -25v-40z" />
    <glyph glyph-name="uni0451" unicode="&#x451;" horiz-adv-x="670" 
d="M147 585v130h170v-130h-170zM357 585v130h170v-130h-170zM170 0l-120 120v270l120 120h335l120 -120v-190h-370v-25l25 -25h305v-150h-415zM255 305h165v40l-25 25h-115l-25 -25v-40z" />
    <glyph glyph-name="uni0452" unicode="&#x452;" horiz-adv-x="690" 
d="M520 495l115 -115v-470l-110 -110h-205v160h100l10 10v345l-20 20h-105l-30 -25v-310h-205v550h-85v95h85v55h205v-55h205v-95h-205v-85h6l34 30h205z" />
    <glyph glyph-name="uni0453" unicode="&#x453;" horiz-adv-x="515" 
d="M221 560v15l69 165h151v-16l-96 -164h-124zM60 0v510h450v-160h-245v-350h-205z" />
    <glyph glyph-name="uni0454" unicode="&#x454;" horiz-adv-x="615" 
d="M170 0l-120 120v270l120 120h390v-155h-280l-25 -25v-15h205v-120h-205v-15l25 -25h290v-155h-400z" />
    <glyph glyph-name="uni0455" unicode="&#x455;" horiz-adv-x="620" 
d="M55 0v140h310l15 15v15l-15 15h-225l-95 95v135l95 95h415v-140h-290l-15 -15v-15l15 -15h225l95 -95v-135l-95 -95h-435z" />
    <glyph glyph-name="uni0456" unicode="&#x456;" horiz-adv-x="325" 
d="M60 570v130h205v-130h-205zM60 0v510h205v-510h-205z" />
    <glyph glyph-name="uni0457" unicode="&#x457;" horiz-adv-x="325" 
d="M-12 585v135h155v-135h-155zM183 585v135h155v-135h-155zM60 0v510h205v-510h-205z" />
    <glyph glyph-name="uni0458" unicode="&#x458;" horiz-adv-x="325" 
d="M60 570v130h205v-130h-205zM-90 -200v160h140l10 10v540h205v-600l-110 -110h-245z" />
    <glyph glyph-name="uni0459" unicode="&#x459;" horiz-adv-x="965" 
d="M10 -10v185h85l10 10l20 325h485v-160h220l105 -105v-140l-105 -105h-420v350h-95l-15 -250l-110 -110h-180zM610 140h100l20 20v30l-20 20h-100v-70z" />
    <glyph glyph-name="uni045A" unicode="&#x45a;" horiz-adv-x="960" 
d="M60 0v510h205v-160h140v160h200v-160h220l105 -105v-140l-105 -105h-420v190h-140v-190h-205zM605 140h100l20 20v30l-20 20h-100v-70z" />
    <glyph glyph-name="uni045B" unicode="&#x45b;" horiz-adv-x="690" 
d="M70 0v550h-85v95h85v55h205v-55h205v-95h-205v-85h6l34 30h205l115 -115v-380h-205v315l-20 20h-105l-30 -25v-310h-205z" />
    <glyph glyph-name="uni045C" unicode="&#x45c;" horiz-adv-x="677" 
d="M288 560v15l69 165h151v-16l-96 -164h-124zM60 0v510h205v-175h59l130 175h193v-50l-151 -194l171 -216v-50h-207l-138 175h-57v-175h-205z" />
    <glyph glyph-name="uni045D" unicode="&#x45d;" horiz-adv-x="730" 
d="M305 560l-96 165v15h151l69 -165v-15h-124zM60 0v510h200v-270h17l156 270h237v-510h-200v270h-17l-123 -270h-270z" />
    <glyph glyph-name="uni045E" unicode="&#x45e;" horiz-adv-x="660" 
d="M218 560l-65 65v95h120v-45l10 -10h90l10 10v45h120v-95l-65 -65h-220zM90 -200v155h290l15 15v60h-6l-34 -30h-185l-115 115v395h205v-330l20 -20h85l30 25v325h205v-600l-110 -110h-400z" />
    <glyph glyph-name="uni045F" unicode="&#x45f;" horiz-adv-x="670" 
d="M610 510v-510h-180v-140h-190v140h-180v510h205v-350h140v350h205z" />
    <glyph glyph-name="uni0490" unicode="&#x490;" horiz-adv-x="685" 
d="M465 815h210v-295h-370v-520h-220v700h380v115z" />
    <glyph glyph-name="uni0491" unicode="&#x491;" horiz-adv-x="515" 
d="M310 600h200v-250h-245v-350h-205v510h250v90z" />
    <glyph glyph-name="uni0492" unicode="&#x492;" horiz-adv-x="690" 
d="M680 520h-370v-153h190v-100h-190v-267h-220v267h-80v100h80v333h590v-180z" />
    <glyph glyph-name="uni0493" unicode="&#x493;" horiz-adv-x="520" 
d="M515 350h-245v-88h140v-95h-140v-167h-205v167h-70v95h70v248h450v-160z" />
    <glyph glyph-name="uni0494" unicode="&#x494;" horiz-adv-x="830" 
d="M445 -150v180h95l30 30v150l-30 30h-163l-72 -59v-181h-220v700h590v-180h-370v-130h6l36 30h323l120 -120v-330l-120 -120h-225z" />
    <glyph glyph-name="uni0495" unicode="&#x495;" horiz-adv-x="615" 
d="M320 -200v160h55l15 15v132l-20 20h-75l-30 -25v-102h-205v510h450v-160h-245v-93h6l34 30h175l115 -115v-262l-110 -110h-165z" />
    <glyph glyph-name="uni0496" unicode="&#x496;" horiz-adv-x="1215" 
d="M1091 180h124v-340h-210v160h-50l-170 260h-85v-260h-210v260h-85l-170 -260h-220v60l213 305l-188 275v60h200l164 -250h86v250h210v-250h86l164 250h200v-60l-188 -275z" />
    <glyph glyph-name="uni0497" unicode="&#x497;" horiz-adv-x="955" 
d="M864 160h91v-300h-190v140h-28v2l-117 173h-45v-175h-200v175h-45l-118 -175h-202v50l149 217l-129 193v50h191l111 -175h43v175h200v-175h43l111 175h191v-50l-129 -193z" />
    <glyph glyph-name="uni049A" unicode="&#x49a;" horiz-adv-x="850" 
d="M716 180h134v-340h-210v160h-60l-184 260h-91v-260h-220v700h220v-250h88l177 250h220v-60l-215 -279z" />
    <glyph glyph-name="uni049B" unicode="&#x49b;" horiz-adv-x="682" 
d="M580 160h102v-300h-190v140h-32l-138 175h-57v-175h-205v510h205v-175h59l130 175h193v-50l-151 -194z" />
    <glyph glyph-name="uni049C" unicode="&#x49c;" horiz-adv-x="870" 
d="M85 0v700h220v-250h32v125h85v-125h21l172 250h220v-60l-210 -279l230 -301v-60h-230l-179 260h-24v-125h-85v125h-32v-260h-220z" />
    <glyph glyph-name="uni049D" unicode="&#x49d;" horiz-adv-x="727" 
d="M60 0v510h205v-175h22v100h75v-100h17l125 175h193v-50l-146 -194l166 -216v-50h-207l-133 175h-15v-100h-75v100h-22v-175h-205z" />
    <glyph glyph-name="uni04A2" unicode="&#x4a2;" horiz-adv-x="920" 
d="M795 180h110v-340h-210v160h-120v255h-270v-255h-220v700h220v-255h270v255h220v-520z" />
    <glyph glyph-name="uni04A3" unicode="&#x4a3;" horiz-adv-x="730" 
d="M630 160h85v-300h-190v140h-100v180h-160v-180h-205v510h205v-170h160v170h205v-350z" />
    <glyph glyph-name="uni04AA" unicode="&#x4aa;" horiz-adv-x="740" 
d="M330 520l-45 -45v-250l45 -45h370v-180h-174v-160h-210v160h-101l-150 150v400l150 150h485v-180h-370z" />
    <glyph glyph-name="uni04AB" unicode="&#x4ab;" horiz-adv-x="585" 
d="M280 350l-25 -25v-140l25 -25h260v-160h-115v-140h-190v140h-65l-120 120v270l120 120h370v-160h-260z" />
    <glyph glyph-name="uni04AE" unicode="&#x4ae;" horiz-adv-x="770" 
d="M275 0v204l-270 436v60h205l166 -280h28l166 280h195v-60l-270 -436v-204h-220z" />
    <glyph glyph-name="uni04AF" unicode="&#x4af;" horiz-adv-x="625" 
d="M209 -200v196l-204 464v50h190l108 -275h20l113 275h184v-50l-206 -464v-196h-205z" />
    <glyph glyph-name="uni04B0" unicode="&#x4b0;" horiz-adv-x="770" 
d="M765 640l-270 -436v-5h160v-100h-160v-99h-220v99h-160v100h160v5l-270 436v60h205l166 -280h28l166 280h195v-60z" />
    <glyph glyph-name="uni04B1" unicode="&#x4b1;" horiz-adv-x="635" 
d="M625 460l-206 -464v-11h135v-95h-135v-90h-205v90h-135v95h135v11l-204 464v50h190l108 -275h20l113 275h184v-50z" />
    <glyph glyph-name="uni04B2" unicode="&#x4b2;" horiz-adv-x="805" 
d="M675 180h130v-340h-210v160h-45l-151 220h-18l-151 -220h-210v60l228 303l-208 277v60h215l130 -190h21l129 190h210v-60l-208 -276z" />
    <glyph glyph-name="uni04B3" unicode="&#x4b3;" horiz-adv-x="654" 
d="M551 160h103v-300h-190v140h-36l-93 135h-25l-93 -135h-202v50l172 214l-157 196v50h211l79 -115h23l79 115h202v-50l-157 -195z" />
    <glyph glyph-name="uni04B6" unicode="&#x4b6;" horiz-adv-x="850" 
d="M725 180h110v-340h-210v160h-120v175h-310l-140 140v385h220v-305l30 -30h200v335h220v-520z" />
    <glyph glyph-name="uni04B7" unicode="&#x4b7;" 
d="M575 160h85v-300h-190v140h-100v130h-215l-115 115v265h205v-200l20 -20h105v220h205v-350z" />
    <glyph glyph-name="uni04B8" unicode="&#x4b8;" horiz-adv-x="810" 
d="M505 0v175h-70v-125h-85v125h-155l-140 140v385h220v-305l30 -30h45v125h85v-125h70v335h220v-700h-220z" />
    <glyph glyph-name="uni04B9" unicode="&#x4b9;" horiz-adv-x="635" 
d="M370 0v130h-22v-100h-75v100h-118l-115 115v265h205v-200l20 -20h8v100h75v-100h22v220h205v-510h-205z" />
    <glyph glyph-name="uni04BA" unicode="&#x4ba;" horiz-adv-x="815" 
d="M85 0v700h220v-175h310l140 -140v-385h-220v305l-30 30h-200v-335h-220z" />
    <glyph glyph-name="uni04BB" unicode="&#x4bb;" horiz-adv-x="685" 
d="M65 0v700h205v-220h6l34 30h205l115 -115v-395h-205v330l-20 20h-105l-30 -25v-325h-205z" />
    <glyph glyph-name="uni04C1" unicode="&#x4c1;" horiz-adv-x="1190" 
d="M475 740l-65 65v85h120v-35l10 -10h110l10 10v35h120v-85l-65 -65h-240zM15 0v60l213 305l-188 275v60h200l164 -250h86v250h210v-250h86l164 250h200v-60l-188 -275l213 -305v-60h-220l-170 260h-85v-260h-210v260h-85l-170 -260h-220z" />
    <glyph glyph-name="uni04C2" unicode="&#x4c2;" horiz-adv-x="950" 
d="M365 560l-65 65v95h120v-45l10 -10h90l10 10v45h120v-95l-65 -65h-220zM10 0v50l149 217l-129 193v50h191l111 -175h43v175h200v-175h43l111 175h191v-50l-129 -193l149 -217v-50h-202l-118 175h-45v-175h-200v175h-45l-118 -175h-202z" />
    <glyph glyph-name="uni04D2" unicode="&#x4d2;" horiz-adv-x="865" 
d="M414 885v-130h-170v130h170zM624 885v-130h-170v130h170zM584 700l266 -640v-60h-214l-43 115h-325l-44 -115h-209v60l271 640h298zM337 295h189l-81 215h-25z" />
    <glyph glyph-name="uni04D3" unicode="&#x4d3;" horiz-adv-x="660" 
d="M155 585v130h170v-130h-170zM365 585v130h170v-130h-170zM130 0l-95 95v125l95 95h270v25l-20 20h-275v150h395l105 -105v-405h-165v35h-15l-40 -35h-255zM255 140h120l25 20v50h-140l-20 -20v-35z" />
    <glyph glyph-name="uni04D8" unicode="&#x4d8;" horiz-adv-x="880" 
d="M215 0l-150 150v290h530v35l-45 45h-415v180h530l150 -150v-400l-150 -150h-450zM330 180h220l45 45v55h-310v-55z" />
    <glyph glyph-name="uni04D9" unicode="&#x4d9;" horiz-adv-x="670" 
d="M165 0l-120 120v190h370v25l-25 25h-305v150h415l120 -120v-270l-120 -120h-335zM275 140h115l25 25v30h-165v-30z" />
    <glyph glyph-name="uni04E0" unicode="&#x4e0;" horiz-adv-x="725" 
d="M40 0v180h395l30 30v45l-30 30h-250v121l135 100v14h-270v180h600v-110l-200 -157v-13h120l115 -115v-185l-120 -120h-525z" />
    <glyph glyph-name="uni04E1" unicode="&#x4e1;" horiz-adv-x="560" 
d="M10 -200v160h295l25 25v75l-25 25h-200v120l155 140v15h-245v150h500v-120l-165 -150v-15h65l120 -120v-185l-120 -120h-405z" />
    <glyph glyph-name="uni04E2" unicode="&#x4e2;" horiz-adv-x="920" 
d="M295 765v110h330v-110h-330zM85 0v700h215v-460h20l205 460h310v-700h-215v460h-20l-205 -460h-310z" />
    <glyph glyph-name="uni04E3" unicode="&#x4e3;" horiz-adv-x="730" 
d="M200 595v110h330v-110h-330zM60 0v510h200v-270h17l156 270h237v-510h-200v270h-17l-123 -270h-270z" />
    <glyph glyph-name="uni04E6" unicode="&#x4e6;" horiz-adv-x="880" 
d="M250 755v130h170v-130h-170zM460 755v130h170v-130h-170zM215 0l-150 150v400l150 150h450l150 -150v-400l-150 -150h-450zM330 180h220l45 45v250l-45 45h-220l-45 -45v-250z" />
    <glyph glyph-name="uni04E7" unicode="&#x4e7;" 
d="M147 585v130h170v-130h-170zM357 585v130h170v-130h-170zM170 0l-120 120v270l120 120h335l120 -120v-270l-120 -120h-335zM280 160h115l25 25v140l-25 25h-115l-25 -25v-140z" />
    <glyph glyph-name="uni04E8" unicode="&#x4e8;" horiz-adv-x="880" 
d="M665 700l150 -150v-400l-150 -150h-450l-150 150v400l150 150h450zM330 520l-45 -45v-73h310v73l-45 45h-220zM550 180l45 45v77h-310v-77l45 -45h220z" />
    <glyph glyph-name="uni04E9" unicode="&#x4e9;" 
d="M505 510l120 -120v-270l-120 -120h-335l-120 120v270l120 120h335zM280 350l-25 -25v-30h165v30l-25 25h-115zM395 160l25 25v35h-165v-35l25 -25h115z" />
    <glyph glyph-name="uni04EE" unicode="&#x4ee;" horiz-adv-x="755" 
d="M223 765v110h330v-110h-330zM110 0v180h170l7 14l-272 446v60h205l157 -285h30l148 285h195v-60l-345 -640h-295z" />
    <glyph glyph-name="uni04EF" unicode="&#x4ef;" horiz-adv-x="660" 
d="M163 595v110h330v-110h-330zM90 -200v155h290l15 15v60h-6l-34 -30h-185l-115 115v395h205v-330l20 -20h85l30 25v325h205v-600l-110 -110h-400z" />
    <glyph glyph-name="uni04F0" unicode="&#x4f0;" horiz-adv-x="755" 
d="M198 755v130h170v-130h-170zM408 755v130h170v-130h-170zM110 0v180h170l7 14l-272 446v60h205l157 -285h30l148 285h195v-60l-345 -640h-295z" />
    <glyph glyph-name="uni04F1" unicode="&#x4f1;" horiz-adv-x="660" 
d="M138 585v130h170v-130h-170zM348 585v130h170v-130h-170zM90 -200v155h290l15 15v60h-6l-34 -30h-185l-115 115v395h205v-330l20 -20h85l30 25v325h205v-600l-110 -110h-400z" />
    <glyph glyph-name="Wgrave" unicode="&#x1e80;" horiz-adv-x="1154" 
d="M506 740l-86 144v16h161l59 -145v-15h-134zM199 0l-179 640v60h204l135 -500h30l96 295l-40 145v60h197l131 -500h30l130 500h201v-60l-175 -640h-305l-63 220h-25l-64 -220h-303z" />
    <glyph glyph-name="wgrave" unicode="&#x1e81;" horiz-adv-x="912" 
d="M388 560l-96 165v15h151l69 -165v-15h-124zM154 0l-144 460v50h187l91 -330h20l65 194l-22 86v50h183l72 -330h20l94 330h182v-50l-141 -460h-250l-44 160h-20l-48 -160h-245z" />
    <glyph glyph-name="Wacute" unicode="&#x1e82;" horiz-adv-x="1154" 
d="M496 740v15l59 145h161v-16l-86 -144h-134zM199 0l-179 640v60h204l135 -500h30l96 295l-40 145v60h197l131 -500h30l130 500h201v-60l-175 -640h-305l-63 220h-25l-64 -220h-303z" />
    <glyph glyph-name="wacute" unicode="&#x1e83;" horiz-adv-x="912" 
d="M384 560v15l69 165h151v-16l-96 -164h-124zM154 0l-144 460v50h187l91 -330h20l65 194l-22 86v50h183l72 -330h20l94 330h182v-50l-141 -460h-250l-44 160h-20l-48 -160h-245z" />
    <glyph glyph-name="Wdieresis" unicode="&#x1e84;" horiz-adv-x="1154" 
d="M378 755v130h170v-130h-170zM588 755v130h170v-130h-170zM199 0l-179 640v60h204l135 -500h30l96 295l-40 145v60h197l131 -500h30l130 500h201v-60l-175 -640h-305l-63 220h-25l-64 -220h-303z" />
    <glyph glyph-name="wdieresis" unicode="&#x1e85;" horiz-adv-x="912" 
d="M258 585v130h170v-130h-170zM468 585v130h170v-130h-170zM154 0l-144 460v50h187l91 -330h20l65 194l-22 86v50h183l72 -330h20l94 330h182v-50l-141 -460h-250l-44 160h-20l-48 -160h-245z" />
    <glyph glyph-name="uni1E9E" unicode="&#x1e9e;" horiz-adv-x="845" 
d="M80 0v580l120 120h520v-195l-85 -76v-14h60l115 -115v-180l-120 -120h-330v170h205l25 25v50l-25 25h-145v145l110 100v15h-200l-30 -30v-500h-220z" />
    <glyph glyph-name="Ygrave" unicode="&#x1ef2;" horiz-adv-x="770" 
d="M328 740l-86 144v16h161l59 -145v-15h-134zM275 0v204l-270 436v60h205l166 -280h28l166 280h195v-60l-270 -436v-204h-220z" />
    <glyph glyph-name="ygrave" unicode="&#x1ef3;" horiz-adv-x="660" 
d="M268 560l-96 165v15h151l69 -165v-15h-124zM90 -200v155h290l15 15v60h-6l-34 -30h-185l-115 115v395h205v-330l20 -20h85l30 25v325h205v-600l-110 -110h-400z" />
    <glyph glyph-name="endash" unicode="&#x2013;" horiz-adv-x="600" 
d="M40 205v140h520v-140h-520z" />
    <glyph glyph-name="emdash" unicode="&#x2014;" horiz-adv-x="950" 
d="M40 205v140h870v-140h-870z" />
    <glyph glyph-name="quoteleft" unicode="&#x2018;" horiz-adv-x="310" 
d="M230 700l-35 -160h60v-180h-200v155l70 185h105z" />
    <glyph glyph-name="quoteright" unicode="&#x2019;" horiz-adv-x="310" 
d="M80 360l35 160h-60v180h200v-155l-70 -185h-105z" />
    <glyph glyph-name="quotesinglbase" unicode="&#x201a;" horiz-adv-x="310" 
d="M80 -170l35 160h-60v180h200v-155l-70 -185h-105z" />
    <glyph glyph-name="quotedblleft" unicode="&#x201c;" horiz-adv-x="560" 
d="M230 700l-35 -160h60v-180h-200v155l70 185h105zM480 700l-35 -160h60v-180h-200v155l70 185h105z" />
    <glyph glyph-name="quotedblright" unicode="&#x201d;" horiz-adv-x="560" 
d="M80 360l35 160h-60v180h200v-155l-70 -185h-105zM330 360l35 160h-60v180h200v-155l-70 -185h-105z" />
    <glyph glyph-name="quotedblbase" unicode="&#x201e;" horiz-adv-x="560" 
d="M80 -170l35 160h-60v180h200v-155l-70 -185h-105zM330 -170l35 160h-60v180h200v-155l-70 -185h-105z" />
    <glyph glyph-name="dagger" unicode="&#x2020;" horiz-adv-x="705" 
d="M265 -50v480h-195v165h195v155h175v-155h195v-165h-195v-480h-175z" />
    <glyph glyph-name="daggerdbl" unicode="&#x2021;" horiz-adv-x="705" 
d="M265 -50v153h-195v165h195v162h-195v165h195v155h175v-155h195v-165h-195v-162h195v-165h-195v-153h-175z" />
    <glyph glyph-name="bullet" unicode="&#x2022;" horiz-adv-x="435" 
d="M110 185v210h215v-210h-215z" />
    <glyph glyph-name="ellipsis" unicode="&#x2026;" horiz-adv-x="1100" 
d="M90 0v170h200v-170h-200zM450 0v170h200v-170h-200zM810 0v170h200v-170h-200z" />
    <glyph glyph-name="perthousand" unicode="&#x2030;" horiz-adv-x="1477" 
d="M120 360l-75 75v190l75 75h235l75 -75v-190l-75 -75h-235zM255 0v50l395 650h130v-50l-395 -650h-130zM200 475h75l15 15v80l-15 15h-75l-15 -15v-80zM680 0l-75 75v190l75 75h235l75 -75v-190l-75 -75h-235zM1122 0l-75 75v190l75 75h235l75 -75v-190l-75 -75h-235z
M760 115h75l15 15v80l-15 15h-75l-15 -15v-80zM1202 115h75l15 15v80l-15 15h-75l-15 -15v-80z" />
    <glyph glyph-name="guilsinglleft" unicode="&#x2039;" horiz-adv-x="445" 
d="M300 -15l-275 270l275 270l110 -109l-167 -161l167 -163z" />
    <glyph glyph-name="guilsinglright" unicode="&#x203a;" horiz-adv-x="445" 
d="M145 -15l-110 107l167 163l-167 161l110 109l275 -270z" />
    <glyph glyph-name="fraction" unicode="&#x2044;" horiz-adv-x="125" 
d="M-200 0v50l395 650h130v-50l-395 -650h-130z" />
    <glyph glyph-name="uni2070" unicode="&#x2070;" horiz-adv-x="425" 
d="M105 460l-70 70v200l70 70h215l70 -70v-200l-70 -70h-215zM185 565h55l10 10v110l-10 10h-55l-10 -10v-110z" />
    <glyph glyph-name="uni2074" unicode="&#x2074;" horiz-adv-x="395" 
d="M185 460v50h-200v110l150 180h180v-195h45v-95h-45v-50h-130zM120 605h65v80h-10l-55 -70v-10z" />
    <glyph glyph-name="uni2075" unicode="&#x2075;" horiz-adv-x="400" 
d="M40 460v100h180l10 10v10l-10 10h-175v210h305v-95h-165v-25h130l55 -55v-110l-55 -55h-275z" />
    <glyph glyph-name="uni2076" unicode="&#x2076;" horiz-adv-x="415" 
d="M95 460l-60 60v220l60 60h270v-100h-180l-10 -10v-15h155l55 -55v-105l-55 -55h-235zM185 555h50l10 10v20l-10 10h-60v-30z" />
    <glyph glyph-name="uni2077" unicode="&#x2077;" horiz-adv-x="345" 
d="M80 460v35l125 185v10h-170v110h315v-125l-140 -215h-130z" />
    <glyph glyph-name="uni2078" unicode="&#x2078;" horiz-adv-x="430" 
d="M90 460l-55 55v80l42 42l-32 34v74l55 55h230l55 -55v-74l-32 -34l42 -42v-80l-55 -55h-250zM190 673h50l10 10v12l-10 10h-50l-10 -10v-12zM185 555h60l10 10v18l-10 10h-60l-10 -10v-18z" />
    <glyph glyph-name="uni2079" unicode="&#x2079;" horiz-adv-x="415" 
d="M50 460v100h180l10 10v15h-155l-55 55v105l55 55h235l60 -60v-220l-60 -60h-270zM180 665h60v30l-10 10h-50l-10 -10v-20z" />
    <glyph glyph-name="uni2080" unicode="&#x2080;" horiz-adv-x="425" 
d="M105 -100l-70 70v200l70 70h215l70 -70v-200l-70 -70h-215zM185 5h55l10 10v110l-10 10h-55l-10 -10v-110z" />
    <glyph glyph-name="uni2081" unicode="&#x2081;" horiz-adv-x="400" 
d="M60 -100v105h85v130h-75v105h215v-235h75v-105h-300z" />
    <glyph glyph-name="uni2082" unicode="&#x2082;" horiz-adv-x="430" 
d="M35 -100v150l65 65h145l10 10v10l-10 10h-195v95h285l60 -60v-95l-60 -60h-150l-10 -10v-15h210v-100h-350z" />
    <glyph glyph-name="uni2083" unicode="&#x2083;" horiz-adv-x="410" 
d="M35 -100v95h195l10 10v10l-10 10h-115v90h105l10 10v10l-10 10h-175v95h270l55 -55v-70l-32 -33l42 -42v-85l-55 -55h-290z" />
    <glyph glyph-name="uni2084" unicode="&#x2084;" horiz-adv-x="395" 
d="M185 -100v50h-200v110l150 180h180v-195h45v-95h-45v-50h-130zM120 45h65v80h-10l-55 -70v-10z" />
    <glyph glyph-name="uni2085" unicode="&#x2085;" horiz-adv-x="400" 
d="M40 -100v100h180l10 10v10l-10 10h-175v210h305v-95h-165v-25h130l55 -55v-110l-55 -55h-275z" />
    <glyph glyph-name="uni2086" unicode="&#x2086;" horiz-adv-x="415" 
d="M95 -100l-60 60v220l60 60h270v-100h-180l-10 -10v-15h155l55 -55v-105l-55 -55h-235zM185 -5h50l10 10v20l-10 10h-60v-30z" />
    <glyph glyph-name="uni2087" unicode="&#x2087;" horiz-adv-x="345" 
d="M80 -100v35l125 185v10h-170v110h315v-125l-140 -215h-130z" />
    <glyph glyph-name="uni2088" unicode="&#x2088;" horiz-adv-x="430" 
d="M90 -100l-55 55v80l42 42l-32 34v74l55 55h230l55 -55v-74l-32 -34l42 -42v-80l-55 -55h-250zM190 113h50l10 10v12l-10 10h-50l-10 -10v-12zM185 -5h60l10 10v18l-10 10h-60l-10 -10v-18z" />
    <glyph glyph-name="uni2089" unicode="&#x2089;" horiz-adv-x="415" 
d="M50 -100v100h180l10 10v15h-155l-55 55v105l55 55h235l60 -60v-220l-60 -60h-270zM180 105h60v30l-10 10h-50l-10 -10v-20z" />
    <glyph glyph-name="uni20A9" unicode="&#x20a9;" horiz-adv-x="1065" 
d="M1050 390h-91l-15 -75h106v-90h-124l-46 -225h-305l-32 150h-21l-34 -150h-295l-49 225h-129v90h110l-16 75h-94v90h75l-35 160v60h199l96 -500h25l78 291l-31 149v60h185l93 -500h25l96 500h189v-60l-32 -160h72v-90z" />
    <glyph glyph-name="Euro" unicode="&#x20ac;" horiz-adv-x="820" 
d="M275 0l-150 150v85h-100v90h100v50h-100v90h100v85l150 150h505v-180h-390l-45 -45v-10h240v-90h-240v-50h240v-90h-240v-10l45 -45h390v-180h-505z" />
    <glyph glyph-name="uni20B4" unicode="&#x20b4;" horiz-adv-x="800" 
d="M35 370v90h430l15 15v30l-15 15h-335v180h465l105 -105v-135h65v-90h-730zM205 0l-105 105v135h-65v90h730v-90h-430l-15 -15v-30l15 -15h355v-180h-485z" />
    <glyph glyph-name="uni20B8" unicode="&#x20b8;" horiz-adv-x="710" 
d="M10 610v90h690v-90h-690zM245 0v380h-235v180h690v-180h-235v-380h-220z" />
    <glyph glyph-name="uni20B9" unicode="&#x20b9;" horiz-adv-x="780" 
d="M380 0l-340 155v230h365l20 20v20h-385v90h385v20l-20 20h-365v145h700v-90h-135l40 -40v-55h95v-90h-95v-55l-130 -130h-200v-19l375 -151v-70h-310z" />
    <glyph glyph-name="uni20BA" unicode="&#x20ba;" horiz-adv-x="785" 
d="M560 320h220v-160l-160 -160h-518v228l-72 -23h-25v90l97 31v59l-72 -23h-25v90l97 31v217h220v-146l258 83h25v-90l-283 -91v-59l258 83h25v-90l-283 -91v-119h193l45 45v95z" />
    <glyph glyph-name="uni20BD" unicode="&#x20bd;" horiz-adv-x="875" 
d="M145 0v60h-100v90h100v50h-100v90h100v410h555l130 -130v-240l-130 -130h-335v-50h335v-90h-335v-60h-220zM365 380h210l35 35v70l-35 35h-210v-140z" />
    <glyph glyph-name="uni20BF" unicode="&#x20bf;" horiz-adv-x="845" 
d="M270 -100v100h-185v700h185v100h110v-100h50v100h110v-100h110l110 -110v-140l-65 -65l100 -100v-165l-120 -120h-135v-100h-110v100h-50v-100h-110zM305 433h213l22 22v55l-20 20h-215v-97zM305 170h240l30 30v55l-28 28h-242v-113z" />
    <glyph glyph-name="uni2113" unicode="&#x2113;" horiz-adv-x="595" 
d="M215 0l-105 105v60h-75v160h75v270l105 105h225l105 -105v-235l-255 -170v-20l10 -10h210v-160h-295zM290 380h15l60 40v105l-15 15h-45l-15 -15v-145z" />
    <glyph glyph-name="uni2116" unicode="&#x2116;" horiz-adv-x="1380" 
d="M85 0v700h320l215 -460h20v460h205v-700h-320l-215 460h-20v-460h-205zM1010 360l-70 70v200l70 70h245l70 -70v-200l-70 -70h-245zM1090 475h85l10 10v90l-10 10h-85l-10 -10v-90zM940 180v120h385v-120h-385z" />
    <glyph glyph-name="uni2117" unicode="&#x2117;" horiz-adv-x="1060" 
d="M270 -40l-160 160v450l160 160h520l160 -160v-450l-160 -160h-520zM330 75h400l90 90v360l-90 90h-400l-90 -90v-360zM362 150v390h280l75 -75v-125l-75 -75h-170v-115h-110zM472 365h120l15 15v45l-15 15h-120v-75z" />
    <glyph glyph-name="trademark" unicode="&#x2122;" horiz-adv-x="1025" 
d="M145 300v285h-130v115h400v-115h-130v-285h-140zM455 300v400h210l40 -195h15l40 195h210v-400h-140v250h-15l-40 -195h-125l-40 195h-15v-250h-140z" />
    <glyph glyph-name="uni2126" unicode="&#x2126;" horiz-adv-x="920" 
d="M95 0v140h100v14l-100 91v305l150 150h430l150 -150v-305l-100 -91v-14h100v-140h-320v175l110 110v200l-45 45h-220l-45 -45v-200l110 -110v-175h-320z" />
    <glyph glyph-name="estimated" unicode="&#x212e;" horiz-adv-x="850" 
d="M440 -20q-163 0 -271.5 104.5t-108.5 255.5t106.5 255.5t263.5 104.5t263.5 -105t106.5 -260h-576q-14 0 -14 -15v-202q0 -48 75 -80.5t155 -32.5q46 0 89.5 13t73 31t53 38.5t34.5 34t13 18.5h57q-5 -8 -17.5 -23t-42 -40t-64 -45.5t-87.5 -36t-109 -15.5zM224 360h412
q14 0 14 15v190q0 34 -39.5 60t-88.5 38t-92 12q-73 0 -146.5 -30.5t-73.5 -79.5v-190q0 -15 14 -15z" />
    <glyph glyph-name="uni2150" unicode="&#x2150;" horiz-adv-x="870" 
d="M60 360v105h85v130h-75v105h215v-235h75v-105h-300zM200 0v50l395 650h130v-50l-395 -650h-130zM605 0v35l125 185v10h-170v110h315v-125l-140 -215h-130z" />
    <glyph glyph-name="uni2151" unicode="&#x2151;" horiz-adv-x="940" 
d="M60 360v105h85v130h-75v105h215v-235h75v-105h-300zM200 0v50l395 650h130v-50l-395 -650h-130zM575 0v100h180l10 10v15h-155l-55 55v105l55 55h235l60 -60v-220l-60 -60h-270zM705 205h60v30l-10 10h-50l-10 -10v-20z" />
    <glyph glyph-name="uni2152" unicode="&#x2152;" horiz-adv-x="1300" 
d="M60 360v105h85v130h-75v105h215v-235h75v-105h-300zM200 0v50l395 650h130v-50l-395 -650h-130zM585 0v105h85v130h-75v105h215v-235h75v-105h-300zM980 0l-70 70v200l70 70h215l70 -70v-200l-70 -70h-215zM1060 105h55l10 10v110l-10 10h-55l-10 -10v-110z" />
    <glyph glyph-name="uni2153" unicode="&#x2153;" horiz-adv-x="935" 
d="M60 360v105h85v130h-75v105h215v-235h75v-105h-300zM200 0v50l395 650h130v-50l-395 -650h-130zM560 0v95h195l10 10v10l-10 10h-115v90h105l10 10v10l-10 10h-175v95h270l55 -55v-70l-32 -33l42 -42v-85l-55 -55h-290z" />
    <glyph glyph-name="uni2154" unicode="&#x2154;" horiz-adv-x="965" 
d="M35 360v150l65 65h145l10 10v10l-10 10h-195v95h285l60 -60v-95l-60 -60h-150l-10 -10v-15h210v-100h-350zM230 0v50l395 650h130v-50l-395 -650h-130zM590 0v95h195l10 10v10l-10 10h-115v90h105l10 10v10l-10 10h-175v95h270l55 -55v-70l-32 -33l42 -42v-85l-55 -55
h-290z" />
    <glyph glyph-name="uni2155" unicode="&#x2155;" horiz-adv-x="925" 
d="M60 360v105h85v130h-75v105h215v-235h75v-105h-300zM200 0v50l395 650h130v-50l-395 -650h-130zM565 0v100h180l10 10v10l-10 10h-175v210h305v-95h-165v-25h130l55 -55v-110l-55 -55h-275z" />
    <glyph glyph-name="uni2156" unicode="&#x2156;" horiz-adv-x="955" 
d="M35 360v150l65 65h145l10 10v10l-10 10h-195v95h285l60 -60v-95l-60 -60h-150l-10 -10v-15h210v-100h-350zM230 0v50l395 650h130v-50l-395 -650h-130zM595 0v100h180l10 10v10l-10 10h-175v210h305v-95h-165v-25h130l55 -55v-110l-55 -55h-275z" />
    <glyph glyph-name="uni2157" unicode="&#x2157;" horiz-adv-x="935" 
d="M35 360v95h195l10 10v10l-10 10h-115v90h105l10 10v10l-10 10h-175v95h270l55 -55v-70l-32 -33l42 -42v-85l-55 -55h-290zM210 0v50l395 650h130v-50l-395 -650h-130zM575 0v100h180l10 10v10l-10 10h-175v210h305v-95h-165v-25h130l55 -55v-110l-55 -55h-275z" />
    <glyph glyph-name="uni2158" unicode="&#x2158;" horiz-adv-x="920" 
d="M185 360v50h-200v110l150 180h180v-195h45v-95h-45v-50h-130zM195 0v50l395 650h130v-50l-395 -650h-130zM120 505h65v80h-10l-55 -70v-10zM560 0v100h180l10 10v10l-10 10h-175v210h305v-95h-165v-25h130l55 -55v-110l-55 -55h-275z" />
    <glyph glyph-name="uni2159" unicode="&#x2159;" horiz-adv-x="940" 
d="M60 360v105h85v130h-75v105h215v-235h75v-105h-300zM200 0v50l395 650h130v-50l-395 -650h-130zM620 0l-60 60v220l60 60h270v-100h-180l-10 -10v-15h155l55 -55v-105l-55 -55h-235zM710 95h50l10 10v20l-10 10h-60v-30z" />
    <glyph glyph-name="uni215A" unicode="&#x215a;" horiz-adv-x="940" 
d="M40 360v100h180l10 10v10l-10 10h-175v210h305v-95h-165v-25h130l55 -55v-110l-55 -55h-275zM200 0v50l395 650h130v-50l-395 -650h-130zM620 0l-60 60v220l60 60h270v-100h-180l-10 -10v-15h155l55 -55v-105l-55 -55h-235zM710 95h50l10 10v20l-10 10h-60v-30z" />
    <glyph glyph-name="oneeighth" unicode="&#x215b;" horiz-adv-x="955" 
d="M60 360v105h85v130h-75v105h215v-235h75v-105h-300zM200 0v50l395 650h130v-50l-395 -650h-130zM615 0l-55 55v80l42 42l-32 34v74l55 55h230l55 -55v-74l-32 -34l42 -42v-80l-55 -55h-250zM715 213h50l10 10v12l-10 10h-50l-10 -10v-12zM710 95h60l10 10v18l-10 10h-60
l-10 -10v-18z" />
    <glyph glyph-name="threeeighths" unicode="&#x215c;" horiz-adv-x="965" 
d="M35 360v95h195l10 10v10l-10 10h-115v90h105l10 10v10l-10 10h-175v95h270l55 -55v-70l-32 -33l42 -42v-85l-55 -55h-290zM210 0v50l395 650h130v-50l-395 -650h-130zM625 0l-55 55v80l42 42l-32 34v74l55 55h230l55 -55v-74l-32 -34l42 -42v-80l-55 -55h-250zM725 213
h50l10 10v12l-10 10h-50l-10 -10v-12zM720 95h60l10 10v18l-10 10h-60l-10 -10v-18z" />
    <glyph glyph-name="fiveeighths" unicode="&#x215d;" horiz-adv-x="955" 
d="M40 360v100h180l10 10v10l-10 10h-175v210h305v-95h-165v-25h130l55 -55v-110l-55 -55h-275zM200 0v50l395 650h130v-50l-395 -650h-130zM615 0l-55 55v80l42 42l-32 34v74l55 55h230l55 -55v-74l-32 -34l42 -42v-80l-55 -55h-250zM715 213h50l10 10v12l-10 10h-50
l-10 -10v-12zM710 95h60l10 10v18l-10 10h-60l-10 -10v-18z" />
    <glyph glyph-name="seveneighths" unicode="&#x215e;" horiz-adv-x="900" 
d="M80 360v35l125 185v10h-170v110h315v-125l-140 -215h-130zM145 0v50l395 650h130v-50l-395 -650h-130zM560 0l-55 55v80l42 42l-32 34v74l55 55h230l55 -55v-74l-32 -34l42 -42v-80l-55 -55h-250zM660 213h50l10 10v12l-10 10h-50l-10 -10v-12zM655 95h60l10 10v18
l-10 10h-60l-10 -10v-18z" />
    <glyph glyph-name="uni215F" unicode="&#x215f;" horiz-adv-x="525" 
d="M60 360v105h85v130h-75v105h215v-235h75v-105h-300zM200 0v50l395 650h130v-50l-395 -650h-130z" />
    <glyph glyph-name="arrowleft" unicode="&#x2190;" horiz-adv-x="1040" 
d="M450 15l-335 335l335 335l95 -95l-150 -150v-10h530v-160h-530v-10l150 -150z" />
    <glyph glyph-name="arrowup" unicode="&#x2191;" horiz-adv-x="1040" 
d="M440 -50v530h-10l-150 -150l-95 95l335 335l335 -335l-95 -95l-150 150h-10v-530h-160z" />
    <glyph glyph-name="arrowright" unicode="&#x2192;" horiz-adv-x="1040" 
d="M590 15l-95 95l150 150v10h-530v160h530v10l-150 150l95 95l335 -335z" />
    <glyph glyph-name="arrowdown" unicode="&#x2193;" horiz-adv-x="1040" 
d="M520 -60l-335 335l95 95l150 -150h10v530h160v-530h10l150 150l95 -95z" />
    <glyph glyph-name="arrowboth" unicode="&#x2194;" horiz-adv-x="1040" 
d="M390 20l-330 330l330 330l95 -95l-145 -145v-10h360v10l-145 145l95 95l330 -330l-330 -330l-95 95l145 145v10h-360v-10l145 -145z" />
    <glyph glyph-name="uni2196" unicode="&#x2196;" horiz-adv-x="1040" 
d="M768 10l-375 375l-7 -7v-212h-134v474h474v-134h-212l-8 -8l375 -374z" />
    <glyph glyph-name="uni2197" unicode="&#x2197;" horiz-adv-x="1040" 
d="M272 10l-113 114l375 374l-8 8h-212v134h474v-474h-134v212l-7 7z" />
    <glyph glyph-name="uni2198" unicode="&#x2198;" horiz-adv-x="1040" 
d="M314 60v134h212l8 8l-375 374l113 114l375 -375l7 7v212h134v-474h-474z" />
    <glyph glyph-name="uni2199" unicode="&#x2199;" horiz-adv-x="1040" 
d="M252 60v474h134v-212l7 -7l375 375l113 -114l-375 -374l8 -8h212v-134h-474z" />
    <glyph glyph-name="partialdiff" unicode="&#x2202;" 
d="M165 0l-120 120v220l120 120h245v25l-55 55h-245v160h355l150 -150v-420l-130 -130h-320zM275 160h100l35 35v105h-135l-25 -25v-90z" />
    <glyph glyph-name="emptyset" unicode="&#x2205;" horiz-adv-x="926" 
d="M871 720v-62l-73 -68l40 -40v-400l-150 -150h-450l-35 35l-60 -55h-88v63l73 67l-40 40v400l150 150h450l35 -35l60 55h88zM343 520l-45 -45v-207l269 252h-224zM583 180l45 45v207l-270 -252h225z" />
    <glyph glyph-name="uni2206" unicode="&#x2206;" horiz-adv-x="820" 
d="M50 0v161l226 539h267l227 -539v-161h-720zM265 175h290v13l-135 342h-20l-135 -342v-13z" />
    <glyph glyph-name="product" unicode="&#x220f;" horiz-adv-x="895" 
d="M175 -100v620h-90v180h725v-180h-90v-620h-205v620h-135v-620h-205z" />
    <glyph glyph-name="summation" unicode="&#x2211;" horiz-adv-x="685" 
d="M55 -100v239l242 152v20l-242 154v235h600v-160h-380v-20l237 -145v-145l-237 -150v-20h385v-160h-605z" />
    <glyph glyph-name="minus" unicode="&#x2212;" horiz-adv-x="580" 
d="M45 285v140h490v-140h-490z" />
    <glyph glyph-name="radical" unicode="&#x221a;" horiz-adv-x="819" 
d="M241 -110l-91 225h-125v160h245l88 -225h24l257 760h160v-50l-298 -870h-260z" />
    <glyph glyph-name="infinity" unicode="&#x221e;" horiz-adv-x="956" 
d="M170 120l-110 110v190l110 110h205l103 -103l103 103h205l110 -110v-190l-110 -110h-205l-103 103l-103 -103h-205zM255 255h61l70 70l-70 70h-61l-25 -25v-90zM640 255h61l25 25v90l-25 25h-61l-70 -70z" />
    <glyph glyph-name="integral" unicode="&#x222b;" horiz-adv-x="490" 
d="M40 -100v160h100l10 10v630l100 100h200v-160h-100l-10 -10v-630l-100 -100h-200z" />
    <glyph glyph-name="approxequal" unicode="&#x2248;" horiz-adv-x="580" 
d="M53 360v110l70 70h160l60 -70h60l10 10v60h115v-110l-70 -70h-155l-60 70h-65l-10 -10v-60h-115zM53 155v110l70 70h160l60 -70h60l10 10v60h115v-110l-70 -70h-155l-60 70h-65l-10 -10v-60h-115z" />
    <glyph glyph-name="notequal" unicode="&#x2260;" horiz-adv-x="580" 
d="M525 385h-161l-29 -70h190v-140h-248l-42 -100h-105v35l27 65h-102v140h161l29 70h-190v140h248l42 100h105v-35l-27 -65h102v-140z" />
    <glyph glyph-name="lessequal" unicode="&#x2264;" horiz-adv-x="485" 
d="M305 160l-270 270l270 270l100 -100l-170 -170l170 -170zM35 0v135h420v-135h-420z" />
    <glyph glyph-name="greaterequal" unicode="&#x2265;" horiz-adv-x="485" 
d="M180 160l-100 100l170 170l-170 170l100 100l270 -270zM450 0h-420v135h420v-135z" />
    <glyph glyph-name="uni2460" unicode="&#x2460;" horiz-adv-x="1000" 
d="M260 -60l-180 180v450l180 180h480l180 -180v-450l-180 -180h-480zM315 55h370l110 110v360l-110 110h-370l-110 -110v-360zM362 175v105h85v130h-75v105h215v-235h75v-105h-300z" />
    <glyph glyph-name="uni2461" unicode="&#x2461;" horiz-adv-x="1000" 
d="M260 -60l-180 180v450l180 180h480l180 -180v-450l-180 -180h-480zM315 55h370l110 110v360l-110 110h-370l-110 -110v-360zM323 175v150l65 65h145l10 10v10l-10 10h-195v95h285l60 -60v-95l-60 -60h-150l-10 -10v-15h210v-100h-350z" />
    <glyph glyph-name="uni2462" unicode="&#x2462;" horiz-adv-x="1000" 
d="M260 -60l-180 180v450l180 180h480l180 -180v-450l-180 -180h-480zM315 55h370l110 110v360l-110 110h-370l-110 -110v-360zM334 175v95h195l10 10v10l-10 10h-115v90h105l10 10v10l-10 10h-175v95h270l55 -55v-70l-32 -33l42 -42v-85l-55 -55h-290z" />
    <glyph glyph-name="uni2463" unicode="&#x2463;" horiz-adv-x="1000" 
d="M260 -60l-180 180v450l180 180h480l180 -180v-450l-180 -180h-480zM315 55h370l110 110v360l-110 110h-370l-110 -110v-360zM509 175v50h-200v110l150 180h180v-195h45v-95h-45v-50h-130zM444 320h65v80h-10l-55 -70v-10z" />
    <glyph glyph-name="uni2464" unicode="&#x2464;" horiz-adv-x="1000" 
d="M260 -60l-180 180v450l180 180h480l180 -180v-450l-180 -180h-480zM315 55h370l110 110v360l-110 110h-370l-110 -110v-360zM344 175v100h180l10 10v10l-10 10h-175v210h305v-95h-165v-25h130l55 -55v-110l-55 -55h-275z" />
    <glyph glyph-name="uni2465" unicode="&#x2465;" horiz-adv-x="1000" 
d="M260 -60l-180 180v450l180 180h480l180 -180v-450l-180 -180h-480zM315 55h370l110 110v360l-110 110h-370l-110 -110v-360zM385 175l-60 60v220l60 60h270v-100h-180l-10 -10v-15h155l55 -55v-105l-55 -55h-235zM475 270h50l10 10v20l-10 10h-60v-30z" />
    <glyph glyph-name="uni2466" unicode="&#x2466;" horiz-adv-x="1000" 
d="M260 -60l-180 180v450l180 180h480l180 -180v-450l-180 -180h-480zM315 55h370l110 110v360l-110 110h-370l-110 -110v-360zM389 175v35l125 185v10h-170v110h315v-125l-140 -215h-130z" />
    <glyph glyph-name="uni2467" unicode="&#x2467;" horiz-adv-x="1000" 
d="M260 -60l-180 180v450l180 180h480l180 -180v-450l-180 -180h-480zM315 55h370l110 110v360l-110 110h-370l-110 -110v-360zM375 175l-55 55v80l42 42l-32 34v74l55 55h230l55 -55v-74l-32 -34l42 -42v-80l-55 -55h-250zM475 388h50l10 10v12l-10 10h-50l-10 -10v-12z
M470 270h60l10 10v18l-10 10h-60l-10 -10v-18z" />
    <glyph glyph-name="uni2468" unicode="&#x2468;" horiz-adv-x="1000" 
d="M260 -60l-180 180v450l180 180h480l180 -180v-450l-180 -180h-480zM315 55h370l110 110v360l-110 110h-370l-110 -110v-360zM345 175v100h180l10 10v15h-155l-55 55v105l55 55h235l60 -60v-220l-60 -60h-270zM475 380h60v30l-10 10h-50l-10 -10v-20z" />
    <glyph glyph-name="uni2469" unicode="&#x2469;" horiz-adv-x="1000" 
d="M260 -60l-180 180v450l180 180h480l180 -180v-450l-180 -180h-480zM315 55h370l110 110v360l-110 110h-370l-110 -110v-360zM268 175v85h40v170h-30v85h140v-255h40v-85h-190zM543 175l-70 70v200l70 70h120l70 -70v-200l-70 -70h-120zM593 270h20l10 10v130l-10 10h-20
l-10 -10v-130z" />
    <glyph glyph-name="uni24EA" unicode="&#x24ea;" horiz-adv-x="1000" 
d="M260 -60l-180 180v450l180 180h480l180 -180v-450l-180 -180h-480zM315 55h370l110 110v360l-110 110h-370l-110 -110v-360zM392 175l-70 70v200l70 70h215l70 -70v-200l-70 -70h-215zM472 280h55l10 10v110l-10 10h-55l-10 -10v-110z" />
    <glyph glyph-name="uni24FF" unicode="&#x24ff;" horiz-adv-x="1000" 
d="M260 -60l-180 180v450l180 180h480l180 -180v-450l-180 -180h-480zM392 175h215l70 70v200l-70 70h-215l-70 -70v-200zM472 280l-10 10v110l10 10h55l10 -10v-110l-10 -10h-55z" />
    <glyph glyph-name="lozenge" unicode="&#x25ca;" horiz-adv-x="669" 
d="M237 0l-212 350l212 350h195l212 -350l-212 -350h-195zM320 120h29l141 230l-141 230h-29l-140 -230z" />
    <glyph glyph-name="uni2776" unicode="&#x2776;" horiz-adv-x="1000" 
d="M260 -60l-180 180v450l180 180h480l180 -180v-450l-180 -180h-480zM362 175h300v105h-75v235h-215v-105h75v-130h-85v-105z" />
    <glyph glyph-name="uni2777" unicode="&#x2777;" horiz-adv-x="1000" 
d="M260 -60l-180 180v450l180 180h480l180 -180v-450l-180 -180h-480zM323 175h350v100h-210v15l10 10h150l60 60v95l-60 60h-285v-95h195l10 -10v-10l-10 -10h-145l-65 -65v-150z" />
    <glyph glyph-name="uni2778" unicode="&#x2778;" horiz-adv-x="1000" 
d="M260 -60l-180 180v450l180 180h480l180 -180v-450l-180 -180h-480zM334 175h290l55 55v85l-42 42l32 33v70l-55 55h-270v-95h175l10 -10v-10l-10 -10h-105v-90h115l10 -10v-10l-10 -10h-195v-95z" />
    <glyph glyph-name="uni2779" unicode="&#x2779;" horiz-adv-x="1000" 
d="M260 -60l-180 180v450l180 180h480l180 -180v-450l-180 -180h-480zM509 175h130v50h45v95h-45v195h-180l-150 -180v-110h200v-50zM444 320v10l55 70h10v-80h-65z" />
    <glyph glyph-name="uni277A" unicode="&#x277a;" horiz-adv-x="1000" 
d="M260 -60l-180 180v450l180 180h480l180 -180v-450l-180 -180h-480zM344 175h275l55 55v110l-55 55h-130v25h165v95h-305v-210h175l10 -10v-10l-10 -10h-180v-100z" />
    <glyph glyph-name="uni277B" unicode="&#x277b;" horiz-adv-x="1000" 
d="M260 -60l-180 180v450l180 180h480l180 -180v-450l-180 -180h-480zM385 175h235l55 55v105l-55 55h-155v15l10 10h180v100h-270l-60 -60v-220zM475 270l-10 10v30h60l10 -10v-20l-10 -10h-50z" />
    <glyph glyph-name="uni277C" unicode="&#x277c;" horiz-adv-x="1000" 
d="M260 -60l-180 180v450l180 180h480l180 -180v-450l-180 -180h-480zM389 175h130l140 215v125h-315v-110h170v-10l-125 -185v-35z" />
    <glyph glyph-name="uni277D" unicode="&#x277d;" horiz-adv-x="1000" 
d="M260 -60l-180 180v450l180 180h480l180 -180v-450l-180 -180h-480zM375 175h250l55 55v80l-42 42l32 34v74l-55 55h-230l-55 -55v-74l32 -34l-42 -42v-80zM475 388l-10 10v12l10 10h50l10 -10v-12l-10 -10h-50zM470 270l-10 10v18l10 10h60l10 -10v-18l-10 -10h-60z" />
    <glyph glyph-name="uni277E" unicode="&#x277e;" horiz-adv-x="1000" 
d="M260 -60l-180 180v450l180 180h480l180 -180v-450l-180 -180h-480zM345 175h270l60 60v220l-60 60h-235l-55 -55v-105l55 -55h155v-15l-10 -10h-180v-100zM475 380l-10 10v20l10 10h50l10 -10v-30h-60z" />
    <glyph glyph-name="uni277F" unicode="&#x277f;" horiz-adv-x="1000" 
d="M260 -60l-180 180v450l180 180h480l180 -180v-450l-180 -180h-480zM268 175h190v85h-40v255h-140v-85h30v-170h-40v-85zM543 175h120l70 70v200l-70 70h-120l-70 -70v-200zM593 270l-10 10v130l10 10h20l10 -10v-130l-10 -10h-20z" />
    <glyph glyph-name="uni2B6E" unicode="&#x2b6e;" horiz-adv-x="1040" 
d="M310 0l-110 110v403l110 110h186v10l-60 60l70 70l210 -210l-210 -210l-70 70l60 60v10h-125l-31 -31v-281l31 -31h308l31 31v301h140v-362l-110 -110h-430z" />
    <glyph glyph-name="uni2B80" unicode="&#x2b80;" horiz-adv-x="1040" 
d="M320 375l-215 215l215 215l80 -80l-55 -55v-10h350v10l-55 55l80 80l215 -215l-215 -215l-80 80l55 55v10h-350v-10l55 -55zM320 -60l-215 215l215 215l80 -80l-55 -55v-10h350v10l-55 55l80 80l215 -215l-215 -215l-80 80l55 55v10h-350v-10l55 -55z" />
    <glyph glyph-name="uni2B81" unicode="&#x2b81;" horiz-adv-x="1040" 
d="M225 0v455h-10l-90 -90l-95 95l275 275l275 -275l-95 -95l-90 90h-10v-455h-160zM735 -35l-275 275l95 95l90 -90h10v455h160v-455h10l90 90l95 -95z" />
    <glyph glyph-name="uni2B82" unicode="&#x2b82;" horiz-adv-x="1040" 
d="M630 290l-95 95l90 90v10h-455v160h455v10l-90 90l95 95l275 -275zM410 -140l-275 275l275 275l95 -95l-90 -90v-10h455v-160h-455v-10l90 -90z" />
    <glyph glyph-name="uni2B83" unicode="&#x2b83;" horiz-adv-x="1040" 
d="M655 0v455h-10l-90 -90l-95 95l275 275l275 -275l-95 -95l-90 90h-10v-455h-160zM305 -35l-275 275l95 95l90 -90h10v455h160v-455h10l90 90l95 -95z" />
    <glyph glyph-name="brevecombcy.case" unicode="&#xf6d1;" horiz-adv-x="0" 
d="M-335 740l-65 65v85h120v-35l10 -10h110l10 10v35h120v-85l-65 -65h-240z" />
    <glyph glyph-name="brevecomb-cy" unicode="&#xf6d4;" horiz-adv-x="0" 
d="M-315 560l-65 65v95h120v-45l10 -10h90l10 10v45h120v-95l-65 -65h-220z" />
    <glyph glyph-name="zero.osf" unicode="&#xf730;" 
d="M170 0l-120 120v270l120 120h335l120 -120v-270l-120 -120h-335zM280 160h115l25 25v140l-25 25h-115l-25 -25v-140z" />
    <glyph glyph-name="one.osf" unicode="&#xf731;" horiz-adv-x="555" 
d="M20 0v160h180v190h-150v160h355v-350h165v-160h-550z" />
    <glyph glyph-name="two.osf" unicode="&#xf732;" horiz-adv-x="655" 
d="M45 0v225l95 95h250l15 15v20l-15 15h-315v140h440l95 -95v-135l-95 -95h-250l-15 -15v-25h350v-145h-555z" />
    <glyph glyph-name="three.osf" unicode="&#xf733;" horiz-adv-x="620" 
d="M15 -140v160h340l30 30v30l-30 30h-245v160h225l30 30v25l-25 25h-310v160h420l120 -120v-120l-68 -67l88 -88v-130l-125 -125h-450z" />
    <glyph glyph-name="four.osf" unicode="&#xf734;" horiz-adv-x="730" 
d="M430 -140v140h-385v194l300 316h270v-350h90v-160h-90v-140h-185zM255 160h175v185h-20l-155 -165v-20z" />
    <glyph glyph-name="five.osf" unicode="&#xf735;" horiz-adv-x="655" 
d="M45 -140v160h335l30 30v40l-30 30h-315v390h515v-160h-315v-70h225l125 -125v-170l-125 -125h-445z" />
    <glyph glyph-name="six.osf" unicode="&#xf736;" horiz-adv-x="705" 
d="M540 455l120 -120v-215l-120 -120h-375l-120 120v195l233 335h197v-50l-85 -123v-22h150zM455 185v85l-25 25h-166l-14 -21v-89l25 -25h155z" />
    <glyph glyph-name="seven.osf" unicode="&#xf737;" horiz-adv-x="650" 
d="M155 -140v200l245 250v30h-380v170h585v-255l-245 -250v-145h-205z" />
    <glyph glyph-name="eight.osf" unicode="&#xf738;" horiz-adv-x="690" 
d="M170 0l-120 120v130l93 93l-73 72v120l115 115h320l115 -115v-120l-73 -72l93 -93v-130l-120 -120h-350zM300 400h90l25 25v45l-20 20h-100l-20 -20v-45zM280 160h130l25 25v45l-30 30h-120l-30 -30v-45z" />
    <glyph glyph-name="nine.osf" unicode="&#xf739;" horiz-adv-x="705" 
d="M540 510l120 -120v-195l-233 -335h-197v50l85 123v22h-150l-120 120v215l120 120h375zM275 215h166l14 21v89l-25 25h-155l-25 -25v-85z" />
    <glyph glyph-name="A_A" horiz-adv-x="1765" 
d="M1446 700l304 -640v-60h-217l-49 115h-362l-49 -115h-381l-49 115h-362l-49 -115h-217v60l304 640h286l257 -540h42l256 540h286zM359 295h206l-88 205h-30zM1200 295h206l-88 205h-30z" />
    <glyph glyph-name="Adieresis_Adieresis" horiz-adv-x="1765" 
d="M442 885v-130h-170v130h170zM652 885v-130h-170v130h170zM1283 885v-130h-170v130h170zM1493 885v-130h-170v130h170zM1446 700l304 -640v-60h-217l-49 115h-362l-49 -115h-381l-49 115h-362l-49 -115h-217v60l304 640h286l257 -540h42l256 540h286zM359 295h206l-88 205
h-30zM1200 295h206l-88 205h-30z" />
    <glyph glyph-name="E_E" horiz-adv-x="1505" 
d="M85 0v700h628v-180h-408v-85h298v-160h-298v-97h510v522h640v-180h-420v-85h310v-160h-310v-97h430v-178h-1380z" />
    <glyph glyph-name="F_l" horiz-adv-x="1055" 
d="M85 0v700h905v-700h-205v520h-480v-135h310v-170h-310v-215h-220z" />
    <glyph glyph-name="M_M" horiz-adv-x="1885" 
d="M85 0v700h312l161 -375h24l161 375h403l161 -375h24l160 375h309v-700h-210v450h-19l-162 -375h-190l-156 375h-20v-450h-200v450h-20l-163 -375h-190l-155 375h-20v-450h-210z" />
    <glyph glyph-name="N_N" horiz-adv-x="1555" 
d="M85 0v700h310l265 -460h20v460h300l265 -460h20v460h205v-700h-310l-265 460h-20v-460h-300l-265 460h-20v-460h-205z" />
    <glyph glyph-name="T_T" horiz-adv-x="1400" 
d="M265 0v520h-255v180h1380v-180h-255v-520h-220v520h-430v-520h-220z" />
    <glyph glyph-name="_ijdotless" horiz-adv-x="650" 
d="M60 -200v155h305l20 20v535h205v-600l-110 -110h-420zM60 0v510h205v-510h-205z" />
    <glyph glyph-name="snglring" horiz-adv-x="1000" 
d="M260 -60l-180 180v450l180 180h480l180 -180v-450l-180 -180h-480zM315 55h370l110 110v360l-110 110h-370l-110 -110v-360z" />
    <glyph glyph-name="i.loclTRK" horiz-adv-x="325" 
d="M60 570v130h205v-130h-205zM60 0v510h205v-510h-205z" />
    <glyph glyph-name="j.alt" horiz-adv-x="325" 
d="M60 570v130h205v-130h-205zM60 -200v710h205v-710h-205z" />
    <glyph glyph-name="jcircumflex.alt" horiz-adv-x="325" 
d="M-32 560v39l106 131h180l104 -131v-39h-130l-53 75h-25l-53 -75h-129zM60 -200v710h205v-710h-205z" />
    <glyph glyph-name="uni0237.alt" horiz-adv-x="325" 
d="M60 -200v710h205v-710h-205z" />
    <glyph glyph-name="uni0308.alt" horiz-adv-x="0" 
d="M-380 585v135h155v-135h-155zM-185 585v135h155v-135h-155z" />
    <glyph glyph-name="uni0308.alt.case" horiz-adv-x="0" 
d="M-380 755v135h155v-135h-155zM-185 755v135h155v-135h-155z" />
    <glyph glyph-name="uni030C.alt" horiz-adv-x="0" 
d="M-182 550v15l6 165h146v-16l-38 -164h-114z" />
    <glyph glyph-name="uni0328.alt" horiz-adv-x="0" 
d="M-155 -230l-60 60v112l104 104l74 -46l-68 -68v-52l10 -10h65v-100h-125z" />
    <glyph glyph-name="uni0492.balt" horiz-adv-x="690" 
d="M675 520h-370v-153h262v-100h-262v-267h-220v700h590v-180z" />
    <glyph glyph-name="uni0493.balt" horiz-adv-x="525" 
d="M510 350h-245v-88h185v-95h-185v-167h-205v510h450v-160z" />
    <glyph glyph-name="uni04AA.balt" horiz-adv-x="740" 
d="M330 520l-45 -45v-250l45 -45h370v-180h-229l-5 -20v-10h55l60 -60v-80l-60 -60h-200v90h140l10 10v10l-10 10h-110v40l20 70h-156l-150 150v400l150 150h485v-180h-370z" />
    <glyph glyph-name="uni04AB.balt" horiz-adv-x="585" 
d="M280 350l-25 -25v-140l25 -25h260v-160h-160l-5 -20v-10h55l60 -60v-80l-60 -60h-200v90h140l10 10v10l-10 10h-110v40l20 70h-110l-120 120v270l120 120h370v-160h-260z" />
    <glyph glyph-name="colon.calt" horiz-adv-x="340" 
d="M70 420v170h200v-170h-200zM70 80v170h200v-170h-200z" />
    <glyph glyph-name="parenleft.case" horiz-adv-x="445" 
d="M195 -145l-110 110v740l110 110h200v-180h-100l-20 -20v-560l20 -20h100v-180h-200z" />
    <glyph glyph-name="parenright.case" horiz-adv-x="445" 
d="M50 -145v180h100l20 20v560l-20 20h-100v180h200l110 -110v-740l-110 -110h-200z" />
    <glyph glyph-name="hyphen.case" horiz-adv-x="460" 
d="M60 260v160h340v-160h-340z" />
    <glyph glyph-name="at.case" horiz-adv-x="990" 
d="M230 -75l-160 160v500l160 160h540l160 -160v-340l-105 -105h-171l-43 46l-46 -46h-175l-80 80v230l80 80h280v-265l20 -20h85l25 25v270l-90 90h-420l-90 -90v-410l90 -90h540v-115h-600zM445 245h90l20 20v160h-110l-20 -20v-140z" />
    <glyph glyph-name="bracketleft.case" horiz-adv-x="445" 
d="M85 -145v960h310v-180h-120v-600h120v-180h-310z" />
    <glyph glyph-name="bracketright.case" horiz-adv-x="445" 
d="M50 -145v180h120v600h-120v180h310v-960h-310z" />
    <glyph glyph-name="braceleft.case" horiz-adv-x="495" 
d="M245 -145l-110 110v275h-95v180h95v285l110 110h200v-180h-100l-20 -20v-560l20 -20h100v-180h-200z" />
    <glyph glyph-name="braceright.case" horiz-adv-x="495" 
d="M50 -145v180h100l20 20v560l-20 20h-100v180h200l110 -110v-285h95v-180h-95v-275l-110 -110h-200z" />
    <glyph glyph-name="exclamdown.case" horiz-adv-x="400" 
d="M100 530v170h200v-170h-200zM95 0v325l25 160h160l25 -160v-325h-210z" />
    <glyph glyph-name="guillemotleft.case" horiz-adv-x="691" 
d="M257 60l-232 270l232 270l119 -99l-151 -171l151 -171zM537 60l-232 270l232 270l119 -99l-151 -171l151 -171z" />
    <glyph glyph-name="periodcentered.case" horiz-adv-x="340" 
d="M70 267v170h200v-170h-200z" />
    <glyph glyph-name="guillemotright.case" horiz-adv-x="691" 
d="M154 60l-119 99l151 171l-151 171l119 99l232 -270zM434 60l-119 99l151 171l-151 171l119 99l232 -270z" />
    <glyph glyph-name="questiondown.case" horiz-adv-x="765" 
d="M365 530v170h200v-170h-200zM200 0l-125 125v180l125 125h160l10 10v45h190v-135l-85 -85h-160l-25 -25v-50l25 -25h380v-165h-495z" />
    <glyph glyph-name="gravecomb.case" horiz-adv-x="0" 
d="M-164 740l-86 144v16h161l59 -145v-15h-134z" />
    <glyph glyph-name="acutecomb.case" horiz-adv-x="0" 
d="M-250 740v15l59 145h161v-16l-86 -144h-134z" />
    <glyph glyph-name="uni0302.case" horiz-adv-x="0" 
d="M-430 740v35l111 115h180l109 -115v-35h-135l-55 60h-20l-56 -60h-134z" />
    <glyph glyph-name="tildecomb.case" horiz-adv-x="0" 
d="M-415 740v95l55 55h135l40 -45h30l5 5v40h120v-95l-55 -55h-135l-40 45h-30l-5 -5v-40h-120z" />
    <glyph glyph-name="uni0304.case" horiz-adv-x="0" 
d="M-360 765v110h330v-110h-330z" />
    <glyph glyph-name="uni0306.case" horiz-adv-x="0" 
d="M-335 740l-65 65v85h120v-35l10 -10h110l10 10v35h120v-85l-65 -65h-240z" />
    <glyph glyph-name="uni0307.case" horiz-adv-x="0" 
d="M-235 755v130h205v-130h-205z" />
    <glyph glyph-name="uni0308.case" horiz-adv-x="0" 
d="M-410 755v130h170v-130h-170zM-200 755v130h170v-130h-170z" />
    <glyph glyph-name="uni030A.case" horiz-adv-x="0" 
d="M-275 725l-65 65v105l65 65h180l65 -65v-105l-65 -65h-180zM-225 815h80l10 10v35l-10 10h-80l-10 -10v-35z" />
    <glyph glyph-name="uni030B.case" horiz-adv-x="0" 
d="M-423 740v15l45 145h153v-15l-68 -145h-130zM-238 740v15l55 145h153v-15l-78 -145h-130z" />
    <glyph glyph-name="uni030C.case" horiz-adv-x="0" 
d="M-321 740l-109 115v35h135l55 -60h20l56 60h134v-35l-111 -115h-180z" />
    <glyph glyph-name="endash.case" horiz-adv-x="600" 
d="M40 270v140h520v-140h-520z" />
    <glyph glyph-name="emdash.case" horiz-adv-x="950" 
d="M40 270v140h870v-140h-870z" />
    <glyph glyph-name="bullet.case" horiz-adv-x="435" 
d="M110 250v210h215v-210h-215z" />
    <glyph glyph-name="guilsinglleft.case" horiz-adv-x="445" 
d="M300 60l-275 270l275 270l110 -109l-167 -161l167 -163z" />
    <glyph glyph-name="guilsinglright.case" horiz-adv-x="445" 
d="M145 60l-110 107l167 163l-167 161l110 109l275 -270z" />
    <glyph glyph-name="dollar.dnom" horiz-adv-x="355" 
d="M155 -50v50h-140v100h185l5 5v15l-5 5h-130l-60 60v95l60 60h85v50h60v-50h120v-95h-180l-5 -5v-15l5 -5h130l60 -60v-100l-60 -60h-70v-50h-60z" />
    <glyph glyph-name="zero.dnom" horiz-adv-x="425" 
d="M105 0l-70 70v200l70 70h215l70 -70v-200l-70 -70h-215zM185 105h55l10 10v110l-10 10h-55l-10 -10v-110z" />
    <glyph glyph-name="one.dnom" horiz-adv-x="400" 
d="M60 0v105h85v130h-75v105h215v-235h75v-105h-300z" />
    <glyph glyph-name="two.dnom" horiz-adv-x="430" 
d="M35 0v150l65 65h145l10 10v10l-10 10h-195v95h285l60 -60v-95l-60 -60h-150l-10 -10v-15h210v-100h-350z" />
    <glyph glyph-name="three.dnom" horiz-adv-x="410" 
d="M35 0v95h195l10 10v10l-10 10h-115v90h105l10 10v10l-10 10h-175v95h270l55 -55v-70l-32 -33l42 -42v-85l-55 -55h-290z" />
    <glyph glyph-name="four.dnom" horiz-adv-x="395" 
d="M185 0v50h-200v110l150 180h180v-195h45v-95h-45v-50h-130zM120 145h65v80h-10l-55 -70v-10z" />
    <glyph glyph-name="five.dnom" horiz-adv-x="400" 
d="M40 0v100h180l10 10v10l-10 10h-175v210h305v-95h-165v-25h130l55 -55v-110l-55 -55h-275z" />
    <glyph glyph-name="six.dnom" horiz-adv-x="415" 
d="M95 0l-60 60v220l60 60h270v-100h-180l-10 -10v-15h155l55 -55v-105l-55 -55h-235zM185 95h50l10 10v20l-10 10h-60v-30z" />
    <glyph glyph-name="seven.dnom" horiz-adv-x="345" 
d="M80 0v35l125 185v10h-170v110h315v-125l-140 -215h-130z" />
    <glyph glyph-name="eight.dnom" horiz-adv-x="430" 
d="M90 0l-55 55v80l42 42l-32 34v74l55 55h230l55 -55v-74l-32 -34l42 -42v-80l-55 -55h-250zM190 213h50l10 10v12l-10 10h-50l-10 -10v-12zM185 95h60l10 10v18l-10 10h-60l-10 -10v-18z" />
    <glyph glyph-name="nine.dnom" horiz-adv-x="415" 
d="M50 0v100h180l10 10v15h-155l-55 55v105l55 55h235l60 -60v-220l-60 -60h-270zM180 205h60v30l-10 10h-50l-10 -10v-20z" />
    <glyph glyph-name="cent.dnom" horiz-adv-x="325" 
d="M180 -35v50h-100l-70 70v175l70 70h100v50h60v-50h85v-110h-85v-95h85v-110h-85v-50h-60zM150 125h30v95h-30l-10 -10v-75z" />
    <glyph glyph-name="sterling.dnom" horiz-adv-x="345" 
d="M10 0v110h50v30h-45v60h45v80l60 60h210v-110h-120l-10 -10v-20h100v-60h-100v-30h140v-110h-330z" />
    <glyph glyph-name="yen.dnom" horiz-adv-x="393" 
d="M388 340v-30l-84 -145h57v-45h-83l-12 -21v-9h95v-45h-95v-45h-140v45h-95v45h95v11l-11 19h-84v45h58l-84 145v30h113l75 -140h11l75 140h109z" />
    <glyph glyph-name="florin.dnom" horiz-adv-x="311" 
d="M241 230l-6 -6l-6 -39h62v-60h-72l-22 -143l-52 -52h-140v110h65l6 6l12 79h-42v60h52l16 103l52 52h140v-110h-65z" />
    <glyph glyph-name="uni20A9.dnom" horiz-adv-x="484" 
d="M479 195h-46l-8 -45h54v-45h-61l-18 -105h-150l-9 90h-6l-12 -90h-145l-16 105h-57v45h51l-7 45h-44v45h37l-12 80v20h120l23 -225h7l20 105l-9 100v20h95l14 -225h7l32 225h115v-20l-13 -80h38v-45z" />
    <glyph glyph-name="Euro.dnom" horiz-adv-x="390" 
d="M120 0l-70 70v47h-45v45h45v16h-45v45h45v47l70 70h260v-95h-180l-10 -10v-12h125v-45h-125v-16h125v-45h-125v-12l10 -10h180v-95h-260z" />
    <glyph glyph-name="uni20B4.dnom" horiz-adv-x="385" 
d="M10 180v45h210v15l-5 5h-170v95h260l45 -45v-70h25v-45h-365zM80 0l-45 45v70h-25v45h365v-45h-210v-15l5 -5h180v-95h-270z" />
    <glyph glyph-name="uni20B8.dnom" horiz-adv-x="340" 
d="M0 295v45h340v-45h-340zM100 0v175h-100v95h340v-95h-100v-175h-140z" />
    <glyph glyph-name="uni20B9.dnom" horiz-adv-x="355" 
d="M165 0l-155 60v125h160l10 10v10h-170v45h170v10l-10 10h-160v70h340v-45h-45v-45h45v-45h-45v-30l-60 -60h-110v-10l180 -65v-40h-150z" />
    <glyph glyph-name="uni20BA.dnom" horiz-adv-x="405" 
d="M260 150h140v-80l-70 -70h-270v106l-30 -11h-20v40l50 18v28l-30 -11h-20v40l50 18v112h140v-62l105 37h20v-40l-125 -44v-28l105 37h20v-40l-125 -44v-46h50l10 10v30z" />
    <glyph glyph-name="uni20BD.dnom" horiz-adv-x="415" 
d="M55 0v40h-45v45h45v20h-45v45h45v190h295l60 -60v-115l-60 -60h-155v-20h155v-45h-155v-40h-140zM195 200h65l10 10v25l-10 10h-65v-45z" />
    <glyph glyph-name="uni20BF.dnom" horiz-adv-x="385" 
d="M100 -50v50h-85v330h85v50h60v-50h30v50h60v-50h65l55 -55v-70l-27 -27l37 -38v-85l-55 -55h-75v-50h-60v50h-30v-50h-60zM155 205h65l10 10v15l-10 10h-65v-35zM155 90h75l10 10v20l-10 10h-75v-40z" />
    <glyph glyph-name="Iacute_J.loclNLD" horiz-adv-x="1215" 
d="M223 740v15l59 145h161v-16l-86 -144h-134zM828 740v15l59 145h161v-16l-86 -144h-134zM45 0v170h140v360h-140v170h500v-170h-140v-360h140v-170h-500zM625 0v190h255l40 40v290h-260v180h480v-545l-155 -155h-360z" />
    <glyph glyph-name="iacute_j.loclNLD" horiz-adv-x="650" 
d="M99 560v15l69 165h151v-16l-96 -164h-124zM424 560v15l69 165h151v-16l-96 -164h-124zM60 -200v155h305l20 20v535h205v-600l-110 -110h-420zM60 0v510h205v-510h-205z" />
    <glyph glyph-name="dollar.numr" horiz-adv-x="355" 
d="M155 310v50h-140v100h185l5 5v15l-5 5h-130l-60 60v95l60 60h85v50h60v-50h120v-95h-180l-5 -5v-15l5 -5h130l60 -60v-100l-60 -60h-70v-50h-60z" />
    <glyph glyph-name="zero.numr" horiz-adv-x="425" 
d="M105 360l-70 70v200l70 70h215l70 -70v-200l-70 -70h-215zM185 465h55l10 10v110l-10 10h-55l-10 -10v-110z" />
    <glyph glyph-name="one.numr" horiz-adv-x="400" 
d="M60 360v105h85v130h-75v105h215v-235h75v-105h-300z" />
    <glyph glyph-name="two.numr" horiz-adv-x="430" 
d="M35 360v150l65 65h145l10 10v10l-10 10h-195v95h285l60 -60v-95l-60 -60h-150l-10 -10v-15h210v-100h-350z" />
    <glyph glyph-name="three.numr" horiz-adv-x="410" 
d="M35 360v95h195l10 10v10l-10 10h-115v90h105l10 10v10l-10 10h-175v95h270l55 -55v-70l-32 -33l42 -42v-85l-55 -55h-290z" />
    <glyph glyph-name="four.numr" horiz-adv-x="395" 
d="M185 360v50h-200v110l150 180h180v-195h45v-95h-45v-50h-130zM120 505h65v80h-10l-55 -70v-10z" />
    <glyph glyph-name="five.numr" horiz-adv-x="400" 
d="M40 360v100h180l10 10v10l-10 10h-175v210h305v-95h-165v-25h130l55 -55v-110l-55 -55h-275z" />
    <glyph glyph-name="six.numr" horiz-adv-x="415" 
d="M95 360l-60 60v220l60 60h270v-100h-180l-10 -10v-15h155l55 -55v-105l-55 -55h-235zM185 455h50l10 10v20l-10 10h-60v-30z" />
    <glyph glyph-name="seven.numr" horiz-adv-x="345" 
d="M80 360v35l125 185v10h-170v110h315v-125l-140 -215h-130z" />
    <glyph glyph-name="eight.numr" horiz-adv-x="430" 
d="M90 360l-55 55v80l42 42l-32 34v74l55 55h230l55 -55v-74l-32 -34l42 -42v-80l-55 -55h-250zM190 573h50l10 10v12l-10 10h-50l-10 -10v-12zM185 455h60l10 10v18l-10 10h-60l-10 -10v-18z" />
    <glyph glyph-name="nine.numr" horiz-adv-x="415" 
d="M50 360v100h180l10 10v15h-155l-55 55v105l55 55h235l60 -60v-220l-60 -60h-270zM180 565h60v30l-10 10h-50l-10 -10v-20z" />
    <glyph glyph-name="cent.numr" horiz-adv-x="325" 
d="M180 320v50h-100l-70 70v175l70 70h100v50h60v-50h85v-110h-85v-95h85v-110h-85v-50h-60zM150 480h30v95h-30l-10 -10v-75z" />
    <glyph glyph-name="sterling.numr" horiz-adv-x="345" 
d="M10 360v110h50v30h-45v60h45v80l60 60h210v-110h-120l-10 -10v-20h100v-60h-100v-30h140v-110h-330z" />
    <glyph glyph-name="yen.numr" horiz-adv-x="393" 
d="M388 700v-30l-84 -145h57v-45h-83l-12 -21v-9h95v-45h-95v-45h-140v45h-95v45h95v11l-11 19h-84v45h58l-84 145v30h113l75 -140h11l75 140h109z" />
    <glyph glyph-name="florin.numr" horiz-adv-x="311" 
d="M241 590l-6 -6l-6 -39h62v-60h-72l-22 -143l-52 -52h-140v110h65l6 6l12 79h-42v60h52l16 103l52 52h140v-110h-65z" />
    <glyph glyph-name="uni20A9.numr" horiz-adv-x="484" 
d="M479 555h-46l-8 -45h54v-45h-61l-18 -105h-150l-9 90h-6l-12 -90h-145l-16 105h-57v45h51l-7 45h-44v45h37l-12 80v20h120l23 -225h7l20 105l-9 100v20h95l14 -225h7l32 225h115v-20l-13 -80h38v-45z" />
    <glyph glyph-name="Euro.numr" horiz-adv-x="390" 
d="M120 360l-70 70v47h-45v45h45v16h-45v45h45v47l70 70h260v-95h-180l-10 -10v-12h125v-45h-125v-16h125v-45h-125v-12l10 -10h180v-95h-260z" />
    <glyph glyph-name="uni20B4.numr" horiz-adv-x="385" 
d="M10 540v45h210v15l-5 5h-170v95h260l45 -45v-70h25v-45h-365zM80 360l-45 45v70h-25v45h365v-45h-210v-15l5 -5h180v-95h-270z" />
    <glyph glyph-name="uni20B8.numr" horiz-adv-x="340" 
d="M0 655v45h340v-45h-340zM100 360v175h-100v95h340v-95h-100v-175h-140z" />
    <glyph glyph-name="uni20B9.numr" horiz-adv-x="355" 
d="M165 360l-155 60v125h160l10 10v10h-170v45h170v10l-10 10h-160v70h340v-45h-45v-45h45v-45h-45v-30l-60 -60h-110v-10l180 -65v-40h-150z" />
    <glyph glyph-name="uni20BA.numr" horiz-adv-x="405" 
d="M260 510h140v-80l-70 -70h-270v106l-30 -11h-20v40l50 18v28l-30 -11h-20v40l50 18v112h140v-62l105 37h20v-40l-125 -44v-28l105 37h20v-40l-125 -44v-46h50l10 10v30z" />
    <glyph glyph-name="uni20BD.numr" horiz-adv-x="415" 
d="M55 360v40h-45v45h45v20h-45v45h45v190h295l60 -60v-115l-60 -60h-155v-20h155v-45h-155v-40h-140zM195 560h65l10 10v25l-10 10h-65v-45z" />
    <glyph glyph-name="uni20BF.numr" horiz-adv-x="385" 
d="M100 320v50h-85v330h85v50h60v-50h30v50h60v-50h65l55 -55v-70l-27 -27l37 -38v-85l-55 -55h-75v-50h-60v50h-30v-50h-60zM155 575h65l10 10v15l-10 10h-65v-35zM155 460h75l10 10v20l-10 10h-75v-40z" />
    <glyph glyph-name="plus.osf" horiz-adv-x="580" 
d="M220 0v185h-185v140h185v185h140v-185h185v-140h-185v-185h-140z" />
    <glyph glyph-name="zero.osf.zero" 
d="M505 510l120 -120v-270l-120 -120h-335l-120 120v270l120 120h335zM280 350l-25 -25v-101l156 110l-16 16h-115zM395 160l25 25v100l-156 -109l16 -16h115z" />
    <glyph glyph-name="less.osf" horiz-adv-x="458" 
d="M303 -17l-268 267l268 268l100 -101l-168 -167l168 -167z" />
    <glyph glyph-name="equal.osf" horiz-adv-x="580" 
d="M55 285v140h470v-140h-470zM55 75v140h470v-140h-470z" />
    <glyph glyph-name="greater.osf" horiz-adv-x="458" 
d="M155 -17l-100 100l168 167l-168 167l100 101l268 -268z" />
    <glyph glyph-name="asciitilde.osf" horiz-adv-x="580" 
d="M53 162v110l70 70h160l60 -70h60l10 10v60h115v-110l-70 -70h-155l-60 70h-65l-10 -10v-60h-115z" />
    <glyph glyph-name="logicalnot.osf" horiz-adv-x="580" 
d="M390 105v95h-335v135h470v-230h-135z" />
    <glyph glyph-name="plusminus.osf" horiz-adv-x="580" 
d="M55 0v135h165v110h-165v135h165v130h140v-130h165v-135h-165v-110h165v-135h-470z" />
    <glyph glyph-name="multiply.osf" horiz-adv-x="580" 
d="M131 -1l-96 96l158 159l-158 159l96 96l159 -158l159 159l96 -97l-158 -159l158 -159l-96 -96l-159 158z" />
    <glyph glyph-name="divide.osf" horiz-adv-x="580" 
d="M220 370v140h140v-140h-140zM45 185v140h490v-140h-490zM220 0v140h140v-140h-140z" />
    <glyph glyph-name="minus.osf" horiz-adv-x="580" 
d="M45 185v140h490v-140h-490z" />
    <glyph glyph-name="approxequal.osf" horiz-adv-x="580" 
d="M53 260v110l70 70h160l60 -70h60l10 10v60h115v-110l-70 -70h-155l-60 70h-65l-10 -10v-60h-115zM53 55v110l70 70h160l60 -70h60l10 10v60h115v-110l-70 -70h-155l-60 70h-65l-10 -10v-60h-115z" />
    <glyph glyph-name="notequal.osf" horiz-adv-x="580" 
d="M525 285h-161l-29 -70h190v-140h-248l-42 -100h-105v35l27 65h-102v140h161l29 70h-190v140h248l42 100h105v-35l-27 -65h102v-140z" />
    <glyph glyph-name="lessequal.osf" horiz-adv-x="385" 
d="M232 133l-192 192l192 193l85 -85l-107 -108l108 -107zM345 0h-305v105h305v-105z" />
    <glyph glyph-name="greaterequal.osf" horiz-adv-x="385" 
d="M153 133l-86 85l108 107l-107 108l85 85l192 -193zM40 0v105h305v-105h-305z" />
    <glyph glyph-name="I.ss01" horiz-adv-x="390" 
d="M85 0v700h220v-700h-220z" />
    <glyph glyph-name="Igrave.ss01" horiz-adv-x="390" 
d="M133 740l-86 144v16h161l59 -145v-15h-134zM85 0v700h220v-700h-220z" />
    <glyph glyph-name="Iacute.ss01" horiz-adv-x="390" 
d="M123 740v15l59 145h161v-16l-86 -144h-134zM85 0v700h220v-700h-220z" />
    <glyph glyph-name="Icircumflex.ss01" horiz-adv-x="390" 
d="M-5 740v35l111 115h180l109 -115v-35h-135l-55 60h-20l-56 -60h-134zM85 0v700h220v-700h-220z" />
    <glyph glyph-name="Idieresis.ss01" horiz-adv-x="390" 
d="M20 755v135h155v-135h-155zM215 755v135h155v-135h-155zM85 0v700h220v-700h-220z" />
    <glyph glyph-name="Imacron.ss01" horiz-adv-x="390" 
d="M30 765v110h330v-110h-330zM85 0v700h220v-700h-220z" />
    <glyph glyph-name="Ibreve.ss01" horiz-adv-x="390" 
d="M75 740l-65 65v85h120v-35l10 -10h110l10 10v35h120v-85l-65 -65h-240zM85 0v700h220v-700h-220z" />
    <glyph glyph-name="Iogonek.ss01" horiz-adv-x="390" 
d="M305 0l-105 -85v-35l10 -10h80v-100h-140l-60 60v111l75 59h-80v700h220v-700z" />
    <glyph glyph-name="Idotaccent.ss01" horiz-adv-x="390" 
d="M93 755v130h205v-130h-205zM85 0v700h220v-700h-220z" />
    <glyph glyph-name="IJ.ss01" horiz-adv-x="830" 
d="M85 0v190h410l40 40v290h-165v180h385v-545l-155 -155h-515zM85 250v450h220v-450h-220z" />
    <glyph glyph-name="uni0406.ss01" horiz-adv-x="390" 
d="M85 0v700h220v-700h-220z" />
    <glyph glyph-name="uni0407.ss01" horiz-adv-x="390" 
d="M20 755v135h155v-135h-155zM215 755v135h155v-135h-155zM85 0v700h220v-700h-220z" />
    <glyph glyph-name="Iacute_J_loclNLD.ss01" horiz-adv-x="830" 
d="M123 740v15l59 145h161v-16l-86 -144h-134zM491 740v15l59 145h161v-16l-86 -144h-134zM85 0v190h410l40 40v290h-165v180h385v-545l-155 -155h-515zM85 250v450h220v-450h-220z" />
    <glyph glyph-name="a.ss02" 
d="M170 0l-120 120v270l120 120h445v-510h-165v40h-22l-48 -40h-210zM280 160h95l35 25v165h-130l-25 -25v-140z" />
    <glyph glyph-name="agrave.ss02" 
d="M295 560l-96 165v15h151l69 -165v-15h-124zM170 0l-120 120v270l120 120h445v-510h-165v40h-22l-48 -40h-210zM280 160h95l35 25v165h-130l-25 -25v-140z" />
    <glyph glyph-name="aacute.ss02" 
d="M291 560v15l69 165h151v-16l-96 -164h-124zM170 0l-120 120v270l120 120h445v-510h-165v40h-22l-48 -40h-210zM280 160h95l35 25v165h-130l-25 -25v-140z" />
    <glyph glyph-name="acircumflex.ss02" 
d="M160 560v39l106 131h180l104 -131v-39h-130l-53 75h-25l-53 -75h-129zM170 0l-120 120v270l120 120h445v-510h-165v40h-22l-48 -40h-210zM280 160h95l35 25v165h-130l-25 -25v-140z" />
    <glyph glyph-name="atilde.ss02" 
d="M163 565v95l55 55h135l40 -45h30l5 5v40h120v-95l-55 -55h-135l-40 45h-30l-5 -5v-40h-120zM170 0l-120 120v270l120 120h445v-510h-165v40h-22l-48 -40h-210zM280 160h95l35 25v165h-130l-25 -25v-140z" />
    <glyph glyph-name="adieresis.ss02" 
d="M165 585v130h170v-130h-170zM375 585v130h170v-130h-170zM170 0l-120 120v270l120 120h445v-510h-165v40h-22l-48 -40h-210zM280 160h95l35 25v165h-130l-25 -25v-140z" />
    <glyph glyph-name="aring.ss02" 
d="M270 545l-65 65v110l65 65h170l65 -65v-110l-65 -65h-170zM320 635h70l10 10v40l-10 10h-70l-10 -10v-40zM170 0l-120 120v270l120 120h445v-510h-165v40h-22l-48 -40h-210zM280 160h95l35 25v165h-130l-25 -25v-140z" />
    <glyph glyph-name="amacron.ss02" 
d="M190 595v110h330v-110h-330zM170 0l-120 120v270l120 120h445v-510h-165v40h-22l-48 -40h-210zM280 160h95l35 25v165h-130l-25 -25v-140z" />
    <glyph glyph-name="abreve.ss02" 
d="M245 560l-65 65v95h120v-45l10 -10h90l10 10v45h120v-95l-65 -65h-220zM170 0l-120 120v270l120 120h445v-510h-165v40h-22l-48 -40h-210zM280 160h95l35 25v165h-130l-25 -25v-140z" />
    <glyph glyph-name="aogonek.ss02" 
d="M615 0l-105 -85v-35l10 -10h80v-100h-140l-60 60v111l75 59h-25v40h-22l-48 -40h-210l-120 120v270l120 120h445v-510zM410 185v165h-130l-25 -25v-140l25 -25h95z" />
    <glyph glyph-name="uni0430.ss02" 
d="M170 0l-120 120v270l120 120h445v-510h-165v40h-22l-48 -40h-210zM280 160h95l35 25v165h-130l-25 -25v-140z" />
    <glyph glyph-name="uni04D3.ss02" 
d="M165 585v130h170v-130h-170zM375 585v130h170v-130h-170zM170 0l-120 120v270l120 120h445v-510h-165v40h-22l-48 -40h-210zM280 160h95l35 25v165h-130l-25 -25v-140z" />
    <glyph glyph-name="l.ss03" horiz-adv-x="335" 
d="M65 0v700h205v-700h-205z" />
    <glyph glyph-name="lacute.ss03" horiz-adv-x="335" 
d="M96 740v15l59 145h161v-16l-86 -144h-134zM65 0v700h205v-700h-205z" />
    <glyph glyph-name="uni013C.ss03" horiz-adv-x="335" 
d="M65 0v700h205v-700h-205zM115 -260l25 105h-50v125h155v-110l-50 -120h-80z" />
    <glyph glyph-name="lcaron.ss03" horiz-adv-x="335" 
d="M299 550v15l6 165h146v-16l-38 -164h-114zM65 0v700h205v-700h-205z" />
    <glyph glyph-name="ldot.ss03" horiz-adv-x="535" 
d="M65 0v700h205v-700h-205zM335 264v170h200v-170h-200z" />
    <glyph glyph-name="lslash.ss03" horiz-adv-x="385" 
d="M405 511v-95l-110 -66v-350h-205v226l-75 -45h-35v95l110 66v358h205v-234l75 45h35z" />
    <glyph glyph-name="uni0438.ss04" horiz-adv-x="665" 
d="M170 0l-115 115v395h205v-330l20 -20h90l30 25v325h205v-510h-165v40h-20l-45 -40h-205z" />
    <glyph glyph-name="uni0439.ss04" horiz-adv-x="665" 
d="M220 560l-65 65v95h120v-45l10 -10h90l10 10v45h120v-95l-65 -65h-220zM170 0l-115 115v395h205v-330l20 -20h90l30 25v325h205v-510h-165v40h-20l-45 -40h-205z" />
    <glyph glyph-name="uni045D.ss04" horiz-adv-x="665" 
d="M270 560l-96 165v15h151l69 -165v-15h-124zM170 0l-115 115v395h205v-330l20 -20h90l30 25v325h205v-510h-165v40h-20l-45 -40h-205z" />
    <glyph glyph-name="uni04E3.ss04" horiz-adv-x="665" 
d="M165 595v110h330v-110h-330zM170 0l-115 115v395h205v-330l20 -20h90l30 25v325h205v-510h-165v40h-20l-45 -40h-205z" />
    <glyph glyph-name="dollar.tf" horiz-adv-x="790" 
d="M343 -100v100h-275v180h430l20 20v40l-20 20h-310l-135 135v180l125 125h165v100h110v-100h250v-180h-410l-20 -20v-40l20 -20h310l135 -135v-180l-125 -125h-160v-100h-110z" />
    <glyph glyph-name="zero.tf" horiz-adv-x="790" 
d="M190 0l-150 150v400l150 150h410l150 -150v-400l-150 -150h-410zM305 180h180l45 45v250l-45 45h-180l-45 -45v-250z" />
    <glyph glyph-name="zero.tf.zero" horiz-adv-x="790" 
d="M600 700l150 -150v-400l-150 -150h-410l-150 150v400l150 150h410zM305 520l-45 -45v-189l270 189l-45 45h-180zM485 180l45 45v189l-270 -189l45 -45h180z" />
    <glyph glyph-name="one.tf" horiz-adv-x="790" 
d="M75 0v180h225v340h-190v180h410v-520h215v-180h-660z" />
    <glyph glyph-name="two.tf" horiz-adv-x="790" 
d="M55 0v300l130 130h310l20 20v50l-20 20h-410v180h540l110 -110v-220l-110 -110h-320l-30 -30v-50h455v-180h-675z" />
    <glyph glyph-name="three.tf" horiz-adv-x="790" 
d="M50 0v180h430l30 30v35l-25 25h-285v170h270l20 20v40l-20 20h-405v180h535l110 -110v-140l-78 -77l98 -98v-165l-110 -110h-570z" />
    <glyph glyph-name="four.tf" horiz-adv-x="790" 
d="M465 0v100h-445v215l378 385h272v-430h95v-170h-95v-100h-205zM250 270h215v220h-30l-185 -190v-30z" />
    <glyph glyph-name="five.tf" horiz-adv-x="790" 
d="M55 0v180h430l30 30v35l-30 30h-405v425h630v-180h-415v-75h320l120 -120v-205l-120 -120h-560z" />
    <glyph glyph-name="six.tf" horiz-adv-x="790" 
d="M190 0l-135 135v430l135 135h510v-180h-400l-30 -30v-35h345l135 -135v-185l-135 -135h-425zM300 180h200l30 30v45l-30 30h-230v-75z" />
    <glyph glyph-name="seven.tf" horiz-adv-x="790" 
d="M220 0v275l275 215v30h-445v180h670v-265l-280 -223v-212h-220z" />
    <glyph glyph-name="eight.tf" horiz-adv-x="790" 
d="M162 0l-120 120v155l93 93l-73 72v150l110 110h445l110 -110v-150l-73 -72l93 -93v-155l-120 -120h-465zM307 435h175l25 25v50l-20 20h-185l-20 -20v-50zM292 170h205l30 30v60l-25 25h-215l-25 -25v-60z" />
    <glyph glyph-name="nine.tf" horiz-adv-x="790" 
d="M90 0v180h400l30 30v35h-345l-135 135v185l135 135h425l135 -135v-430l-135 -135h-510zM290 415h230v75l-30 30h-200l-30 -30v-45z" />
    <glyph glyph-name="cent.tf" horiz-adv-x="790" 
d="M400 -90v90h-140l-120 120v270l120 120h140v90h110v-90h140v-160h-140v-190h140v-160h-140v-90h-110zM355 160h45v190h-45l-25 -25v-140z" />
    <glyph glyph-name="sterling.tf" horiz-adv-x="790" 
d="M45 0v180h135v120h-95v110h95v180l110 110h405v-180h-275l-20 -20v-90h235v-110h-235v-120h335v-180h-690z" />
    <glyph glyph-name="yen.tf" horiz-adv-x="790" 
d="M770 700v-60l-191 -315h121v-90h-176l-19 -31v-24h195v-90h-195v-90h-220v90h-195v90h195v24l-19 31h-176v90h121l-191 315v60h205l161 -285h28l161 285h195z" />
    <glyph glyph-name="florin.tf" horiz-adv-x="790" 
d="M555 530l-10 -10l-13 -70h128v-110h-149l-83 -438l-102 -102h-245v170h135l10 10l68 360h-93v110h114l28 148l102 102h245v-170h-135z" />
    <glyph glyph-name="uni20A9.tf" horiz-adv-x="790" 
d="M793 390h-78l-11 -75h89v-90h-103l-34 -225h-229l-24 150h-15l-26 -150h-221l-36 225h-107v90h92l-12 75h-80v90h66l-26 160v60h169l52 -500h19l54 291l-19 149v60h158l50 -500h19l51 500h162v-60l-24 -160h64v-90z" />
    <glyph glyph-name="Euro.tf" horiz-adv-x="790" 
d="M255 0l-150 150v85h-100v90h100v50h-100v90h100v85l150 150h505v-180h-390l-45 -45v-10h240v-90h-240v-50h240v-90h-240v-10l45 -45h390v-180h-505z" />
    <glyph glyph-name="uni20B4.tf" horiz-adv-x="790" 
d="M30 370v90h430l15 15v30l-15 15h-335v180h465l105 -105v-135h65v-90h-730zM200 0l-105 105v135h-65v90h730v-90h-430l-15 -15v-30l15 -15h355v-180h-485z" />
    <glyph glyph-name="uni20B8.tf" horiz-adv-x="790" 
d="M50 610v90h690v-90h-690zM285 0v380h-235v180h690v-180h-235v-380h-220z" />
    <glyph glyph-name="uni20B9.tf" horiz-adv-x="790" 
d="M385 0l-340 155v230h365l20 20v20h-385v90h385v20l-20 20h-365v145h700v-90h-135l40 -40v-55h95v-90h-95v-55l-130 -130h-200v-19l375 -151v-70h-310z" />
    <glyph glyph-name="uni20BA.tf" horiz-adv-x="790" 
d="M565 320h220v-160l-160 -160h-518v228l-72 -23h-25v90l97 31v59l-72 -23h-25v90l97 31v217h220v-146l258 83h25v-90l-283 -91v-59l258 83h25v-90l-283 -91v-119h193l45 45v95z" />
    <glyph glyph-name="uni20BD.tf" horiz-adv-x="790" 
d="M105 0v60h-100v90h100v50h-100v90h100v410h555l130 -130v-240l-130 -130h-335v-50h335v-90h-335v-60h-220zM325 380h210l35 35v70l-35 35h-210v-140z" />
    <glyph glyph-name="uni20BF.tf" horiz-adv-x="790" 
d="M235 -100v100h-185v700h185v100h110v-100h50v100h110v-100h110l110 -110v-140l-65 -65l100 -100v-165l-120 -120h-135v-100h-110v100h-50v-100h-110zM270 433h213l22 22v55l-20 20h-215v-97zM270 170h240l30 30v55l-28 28h-242v-113z" />
    <glyph glyph-name="zero.tosf" horiz-adv-x="665" 
d="M165 0l-120 120v270l120 120h335l120 -120v-270l-120 -120h-335zM275 160h115l25 25v140l-25 25h-115l-25 -25v-140z" />
    <glyph glyph-name="zero.tosf.zero" horiz-adv-x="665" 
d="M500 510l120 -120v-270l-120 -120h-335l-120 120v270l120 120h335zM275 350l-25 -25v-101l156 110l-16 16h-115zM390 160l25 25v100l-156 -109l16 -16h115z" />
    <glyph glyph-name="one.tosf" horiz-adv-x="665" 
d="M60 0v160h180v190h-150v160h355v-350h165v-160h-550z" />
    <glyph glyph-name="two.tosf" horiz-adv-x="665" 
d="M55 0v225l95 95h250l15 15v20l-15 15h-315v140h440l95 -95v-135l-95 -95h-250l-15 -15v-25h350v-145h-555z" />
    <glyph glyph-name="three.tosf" horiz-adv-x="665" 
d="M43 -140v160h340l30 30v30l-30 30h-245v160h225l30 30v25l-25 25h-310v160h420l120 -120v-120l-68 -67l88 -88v-130l-125 -125h-450z" />
    <glyph glyph-name="four.tosf" horiz-adv-x="665" 
d="M390 -140v140h-385v194l300 316h270v-350h90v-160h-90v-140h-185zM215 160h175v185h-20l-155 -165v-20z" />
    <glyph glyph-name="five.tosf" horiz-adv-x="665" 
d="M45 -140v160h335l30 30v40l-30 30h-315v390h515v-160h-315v-70h225l125 -125v-170l-125 -125h-445z" />
    <glyph glyph-name="six.tosf" horiz-adv-x="665" 
d="M515 455l120 -120v-215l-120 -120h-375l-120 120v195l233 335h197v-50l-85 -123v-22h150zM430 185v85l-25 25h-166l-14 -21v-89l25 -25h155z" />
    <glyph glyph-name="seven.tosf" horiz-adv-x="665" 
d="M170 -140v200l245 250v30h-380v170h585v-255l-245 -250v-145h-205z" />
    <glyph glyph-name="eight.tosf" horiz-adv-x="665" 
d="M158 0l-120 120v130l93 93l-73 72v120l115 115h320l115 -115v-120l-73 -72l93 -93v-130l-120 -120h-350zM288 400h90l25 25v45l-20 20h-100l-20 -20v-45zM268 160h130l25 25v45l-30 30h-120l-30 -30v-45z" />
    <glyph glyph-name="nine.tosf" horiz-adv-x="665" 
d="M525 510l120 -120v-195l-233 -335h-197v50l85 123v22h-150l-120 120v215l120 120h375zM260 215h166l14 21v89l-25 25h-155l-25 -25v-85z" />
    <glyph glyph-name="zero.zero" horiz-adv-x="840" 
d="M625 700l150 -150v-400l-150 -150h-410l-150 150v400l150 150h410zM330 520l-45 -45v-189l270 189l-45 45h-180zM510 180l45 45v189l-270 -189l45 -45h180z" />
    <glyph glyph-name="foundryicon" horiz-adv-x="1538" 
d="M171 230v199h-71v31h178v-31h-72v-199h-35zM832 230v199h-71v31h178v-31h-72v-199h-35zM438 169v224h24l9 -19q19 22 48 22q32 0 54.5 -25t22.5 -59q0 -36 -22.5 -60.5t-54.5 -24.5q-29 0 -47 21v-79h-34zM701 227q-32 0 -55 24.5t-23 60.5q0 35 23 59.5t55 24.5
t54 -24.5t22 -58.5l-1 -15h-119q2 -17 14.5 -29t29.5 -12q27 0 37 17h35q-9 -22 -28.5 -34.5t-43.5 -12.5zM1099 169v224h24l9 -19q19 22 48 22q32 0 54.5 -25t22.5 -59q0 -36 -22.5 -60.5t-54.5 -24.5q-29 0 -47 21v-79h-34zM1362 227q-32 0 -55 24.5t-23 60.5
q0 35 23 59.5t55 24.5t54 -24.5t22 -58.5l-1 -15h-119q2 -17 14.5 -29t29.5 -12q27 0 37 17h35q-9 -22 -28.5 -34.5t-43.5 -12.5zM288 169q-7 0 -10 1v28q23 0 31 20l6 16l-63 159h37l44 -116l44 116h37l-77 -190q-16 -34 -49 -34zM949 169q-7 0 -10 1v28q23 0 31 20l6 16
l-63 159h37l44 -116l44 116h37l-77 -190q-16 -34 -49 -34zM657 325h88q-1 17 -14.5 28.5t-29.5 11.5t-29 -11t-15 -29zM1318 325h88q-1 17 -14.5 28.5t-29.5 11.5t-29 -11t-15 -29zM516 258q19 0 33 16t14 38q0 21 -14 36.5t-33 15.5t-33 -15.5t-14 -36.5q0 -22 13.5 -38
t33.5 -16zM1177 258q19 0 33 16t14 38q0 21 -14 36.5t-33 15.5t-33 -15.5t-14 -36.5q0 -22 13.5 -38t33.5 -16z" />
    </font>
</defs>
</svg>
