<svg width="22" height="22" viewBox="0 0 22 22" fill="none" xmlns="http://www.w3.org/2000/svg">

<path fill-rule="evenodd" clip-rule="evenodd" d="M7.10417 8.9375H4.58333C3.57042 8.9375 2.75 8.11708 2.75 7.10417V4.58333C2.75 3.57042 3.57042 2.75 4.58333 2.75H7.10417C8.11708 2.75 8.9375 3.57042 8.9375 4.58333V7.10417C8.9375 8.11708 8.11708 8.9375 7.10417 8.9375Z" stroke="currentColor" stroke-width="1.2" stroke-linecap="round" stroke-linejoin="round"/>
<path fill-rule="evenodd" clip-rule="evenodd" d="M17.4167 8.9375H14.8958C13.8829 8.9375 13.0625 8.11708 13.0625 7.10417V4.58333C13.0625 3.57042 13.8829 2.75 14.8958 2.75H17.4167C18.4296 2.75 19.25 3.57042 19.25 4.58333V7.10417C19.25 8.11708 18.4296 8.9375 17.4167 8.9375Z" stroke="currentColor" stroke-width="1.2" stroke-linecap="round" stroke-linejoin="round"/>
<path fill-rule="evenodd" clip-rule="evenodd" d="M7.10417 19.25H4.58333C3.57042 19.25 2.75 18.4296 2.75 17.4167V14.8958C2.75 13.8829 3.57042 13.0625 4.58333 13.0625H7.10417C8.11708 13.0625 8.9375 13.8829 8.9375 14.8958V17.4167C8.9375 18.4296 8.11708 19.25 7.10417 19.25Z" stroke="currentColor" stroke-width="1.2" stroke-linecap="round" stroke-linejoin="round"/>
<path fill-rule="evenodd" clip-rule="evenodd" d="M17.4167 19.25H14.8958C13.8829 19.25 13.0625 18.4296 13.0625 17.4167V14.8958C13.0625 13.8829 13.8829 13.0625 14.8958 13.0625H17.4167C18.4296 13.0625 19.25 13.8829 19.25 14.8958V17.4167C19.25 18.4296 18.4296 19.25 17.4167 19.25Z" stroke="currentColor" stroke-width="1.2" stroke-linecap="round" stroke-linejoin="round"/>

</svg>
