<svg width="36" height="12" viewBox="0 0 36 12" fill="none" xmlns="http://www.w3.org/2000/svg">
<g clip-path="url(#clip0_25_1060)">
<path d="M13.668 0.39328L8.955 11.6373H5.88L3.561 2.66278C3.42 2.11078 3.2985 1.90828 2.8695 1.67578C2.1705 1.29628 1.0155 0.94078 0 0.71878L0.069 0.39328H5.019C5.34247 0.392956 5.6554 0.508277 5.90131 0.718427C6.14722 0.928577 6.3099 1.21971 6.36 1.53928L7.5855 8.04628L10.6125 0.39328H13.668ZM25.7175 7.96678C25.7295 4.99828 21.6135 4.83478 21.642 3.50878C21.651 3.10528 22.035 2.67628 22.875 2.56678C23.8594 2.47329 24.8508 2.64742 25.7445 3.07078L26.2545 0.68578C25.3844 0.358697 24.463 0.189544 23.5335 0.186279C20.658 0.186279 18.6345 1.71628 18.6165 3.90478C18.5985 5.52328 20.061 6.42478 21.1635 6.96478C22.2975 7.51528 22.6785 7.86928 22.6725 8.36128C22.665 9.11728 21.7695 9.44878 20.9325 9.46228C19.47 9.48478 18.6225 9.06778 17.9445 8.75278L17.418 11.2158C18.0975 11.5278 19.3515 11.8008 20.652 11.8128C23.7075 11.8128 25.707 10.3038 25.7175 7.96678ZM33.309 11.6373H36L33.6525 0.39328H31.1685C30.9031 0.39082 30.6431 0.468158 30.4221 0.615263C30.2012 0.762367 30.0296 0.972454 29.9295 1.21828L25.566 11.6373H28.62L29.2275 9.95728H32.9595L33.309 11.6373ZM30.0645 7.65328L31.5945 3.43078L32.4765 7.65328H30.0645ZM17.8245 0.39328L15.42 11.6373H12.51L14.9175 0.39328H17.8245Z" fill="#2E85EC"/>
</g>
<defs>
<clipPath id="clip0_25_1060">
<rect width="36" height="12" fill="white" transform="translate(0 0.000274658)"/>
</clipPath>
</defs>
</svg>
