<svg width="36" height="22" viewBox="0 0 36 22" fill="none" xmlns="http://www.w3.org/2000/svg">
<g clip-path="url(#clip0_24_916)">
<path d="M13.12 2.33896H22.8443V19.5309H13.12V2.33896Z" fill="#FF5F00"/>
<path d="M13.7375 10.935C13.7375 7.44199 15.4045 4.34373 17.9667 2.33896C16.0837 0.881013 13.7067 0.000183105 11.1136 0.000183105C4.97011 0.000183105 0 4.89041 0 10.935C0 16.9795 4.97011 21.8698 11.1135 21.8698C13.7066 21.8698 16.0836 20.989 17.9667 19.5309C15.4045 17.5566 13.7375 14.428 13.7375 10.935Z" fill="#EB001B"/>
<path d="M35.9643 10.935C35.9643 16.9795 30.9942 21.8698 24.8508 21.8698C22.2577 21.8698 19.8807 20.989 17.9976 19.5309C20.5907 17.5263 22.2269 14.428 22.2269 10.935C22.2269 7.44199 20.5598 4.34373 17.9976 2.33896C19.8806 0.881013 22.2577 0.000183105 24.8508 0.000183105C30.9942 0.000183105 35.9644 4.92085 35.9644 10.935H35.9643Z" fill="#F79E1B"/>
</g>
<defs>
<clipPath id="clip0_24_916">
<rect width="36" height="22" fill="white"/>
</clipPath>
</defs>
</svg>
