<svg width="105" height="24" viewBox="0 0 105 24" fill="none" xmlns="http://www.w3.org/2000/svg">
<path d="M13.9294 18.5H5.30536C3.97069 18.5 2.82669 18.0233 1.87336 17.07C0.920026 16.1167 0.443359 14.9727 0.443359 13.638V10.162C0.443359 8.82733 0.920026 7.68333 1.87336 6.73C2.82669 5.77667 3.97069 5.3 5.30536 5.3H13.9294V7.214H5.30536C4.49869 7.214 3.80203 7.50733 3.21536 8.094C2.64336 8.666 2.35736 9.35533 2.35736 10.162V13.638C2.35736 14.4447 2.64336 15.1413 3.21536 15.728C3.80203 16.3 4.49869 16.586 5.30536 16.586H13.9294V18.5ZM18.041 5.234V13.572C18.041 14.3787 18.327 15.0753 18.899 15.662C19.4856 16.234 20.1823 16.52 20.989 16.52H25.675H28.491V18.434H25.675H20.989C19.6543 18.434 18.5103 17.9573 17.557 17.004C16.6036 16.0507 16.127 14.9067 16.127 13.572V5.234H18.041ZM30.6934 10.162C30.6934 8.82733 31.17 7.68333 32.1234 6.73C33.0767 5.77667 34.2207 5.3 35.5554 5.3H38.0634H38.5034H41.0114C41.8914 5.3 42.7054 5.52 43.4534 5.96C44.2014 6.38533 44.788 6.972 45.2134 7.72C45.6534 8.468 45.8734 9.282 45.8734 10.162V13.638C45.8734 14.9727 45.3967 16.1167 44.4434 17.07C43.49 18.0233 42.346 18.5 41.0114 18.5H38.5034H38.0634H35.5554C34.2207 18.5 33.0767 18.0233 32.1234 17.07C31.17 16.1167 30.6934 14.9727 30.6934 13.638V10.162ZM35.5554 16.586H38.0634H38.5034H41.0114C41.818 16.586 42.5074 16.3 43.0794 15.728C43.666 15.1413 43.9594 14.4447 43.9594 13.638V10.162C43.9594 9.35533 43.666 8.666 43.0794 8.094C42.5074 7.50733 41.818 7.214 41.0114 7.214H38.5034H38.0634H35.5554C35.0274 7.214 34.536 7.346 34.0814 7.61C33.6267 7.874 33.2674 8.23333 33.0034 8.688C32.7394 9.14267 32.6074 9.634 32.6074 10.162V13.638C32.6074 14.4447 32.8934 15.1413 33.4654 15.728C34.052 16.3 34.7487 16.586 35.5554 16.586ZM60.9222 5.3H62.8582V13.638C62.8582 14.9727 62.3816 16.1167 61.4282 17.07C60.4749 18.0233 59.3309 18.5 57.9962 18.5H52.9582C51.6236 18.5 50.4796 18.0233 49.5262 17.07C48.5729 16.1167 48.0962 14.9727 48.0962 13.638V5.3H50.0102V13.638C50.0102 14.4447 50.2962 15.1413 50.8682 15.728C51.4549 16.3 52.1516 16.586 52.9582 16.586H57.9962C58.8029 16.586 59.4922 16.3 60.0642 15.728C60.6362 15.1413 60.9222 14.4447 60.9222 13.638V5.3ZM74.5069 16.586C75.0495 16.586 75.5409 16.454 75.9809 16.19C76.4355 15.926 76.7949 15.5667 77.0589 15.112C77.3229 14.6573 77.4549 14.166 77.4549 13.638V10.162C77.4549 9.35533 77.1689 8.666 76.5969 8.094C76.0249 7.50733 75.3282 7.214 74.5069 7.214H67.7969C67.5769 7.214 67.3789 7.302 67.2029 7.478C67.0415 7.63933 66.9609 7.83 66.9609 8.05V15.75C66.9609 15.97 67.0415 16.168 67.2029 16.344C67.3789 16.5053 67.5769 16.586 67.7969 16.586H74.5069ZM65.0469 16.102V7.698C65.0469 7.038 65.2815 6.47333 65.7509 6.004C66.2202 5.53467 66.7849 5.3 67.4449 5.3H74.5069C75.3869 5.3 76.2009 5.52 76.9489 5.96C77.6969 6.38533 78.2909 6.972 78.7309 7.72C79.1709 8.468 79.3909 9.282 79.3909 10.162V13.638C79.3909 14.9727 78.9142 16.1167 77.9609 17.07C77.0075 18.0233 75.8562 18.5 74.5069 18.5H67.4449C66.7849 18.5 66.2202 18.2653 65.7509 17.796C65.2815 17.3267 65.0469 16.762 65.0469 16.102ZM81.5898 5.3H83.5038V18.5H81.5898V5.3ZM89.6534 13.748H98.3874L96.4294 8.864C96.224 8.35067 95.9087 7.94733 95.4834 7.654C95.058 7.36067 94.5667 7.214 94.0094 7.214C93.6574 7.214 93.32 7.28 92.9974 7.412C92.6747 7.544 92.396 7.73467 92.1614 7.984C91.9267 8.23333 91.7434 8.52667 91.6114 8.864L89.6534 13.748ZM87.7614 18.5H85.6934L89.8074 8.138C90.1594 7.27267 90.7094 6.58333 91.4574 6.07C92.22 5.55667 93.0707 5.3 94.0094 5.3C94.9627 5.3 95.8134 5.55667 96.5614 6.07C97.324 6.58333 97.874 7.27267 98.2114 8.138L102.347 18.5H100.279L99.1574 15.684H88.8834L87.7614 18.5Z" fill="white"/>
</svg>
