<svg width="60" height="60" viewBox="0 0 60 60" fill="none" xmlns="http://www.w3.org/2000/svg">
<rect width="60" height="60" rx="2" fill="#2E85EC"/>
<g clip-path="url(#clip0_208_71602)">
<path d="M47.2115 26.9009C46.4019 26.3391 44.5465 26.1285 43.096 26.4094C42.9273 25.005 42.1514 23.7761 40.8021 22.6877L40.0262 22.126L39.4865 22.9335C38.8118 23.9868 38.4744 25.4614 38.5756 26.8658C38.6094 27.3573 38.778 28.2351 39.2841 29.0075C38.8118 29.2883 37.8335 29.6394 36.5516 29.6394H12.1622L12.0947 29.9203C11.8586 31.3247 11.8586 35.7134 14.6247 39.0839C16.7162 41.6469 19.8197 42.9459 23.9015 42.9459C32.7397 42.9459 39.2841 38.6977 42.3538 31.0087C43.5682 31.0438 46.1657 31.0087 47.4813 28.3755C47.5151 28.3053 47.5825 28.1648 47.8187 27.6382L47.9536 27.3573L47.2115 26.9009ZM31.6602 17H27.9495V20.511H31.6602V17ZM31.6602 21.2131H27.9495V24.7241H31.6602V21.2131ZM27.2749 21.2131H23.5642V24.7241H27.2749V21.2131ZM22.8895 21.2131H19.1788V24.7241H22.8895V21.2131ZM18.5041 25.4263H14.7934V28.9372H18.5041V25.4263ZM22.8895 25.4263H19.1788V28.9372H22.8895V25.4263ZM27.2749 25.4263H23.5642V28.9372H27.2749V25.4263ZM31.6602 25.4263H27.9495V28.9372H31.6602V25.4263ZM36.0456 25.4263H32.3349V28.9372H36.0456V25.4263Z" fill="white"/>
</g>
<defs>
<clipPath id="clip0_208_71602">
<rect width="36" height="26" fill="white" transform="translate(12 17)"/>
</clipPath>
</defs>
</svg>
