<svg width="18" height="18" viewBox="0 0 18 18" fill="none" xmlns="http://www.w3.org/2000/svg">
<g clip-path="url(#clip0_210_81694)">
<path fill-rule="evenodd" clip-rule="evenodd" d="M38.9048 4.76438L38.7349 3.95775H36.3746V13.5225H39.1016V7.03125C39.7468 6.1875 40.8352 6.35175 41.1817 6.45919V3.95888C40.8184 3.82838 39.5432 3.58875 38.9048 4.76325V4.76438ZM33.4316 1.5885L30.7676 2.15438L30.7564 10.908C30.7564 12.5224 31.9702 13.7166 33.5903 13.7166C34.4818 13.7166 35.1405 13.5467 35.5056 13.3549V11.133C35.1557 11.2725 33.4339 11.7731 33.4339 10.1655V6.28425H35.5056V3.95719H33.4339L33.4316 1.5885ZM26.0437 6.73313C26.0437 6.30675 26.3981 6.1425 26.9708 6.1425C27.9186 6.16302 28.8488 6.40374 29.6876 6.84563V4.275C28.8227 3.93491 27.9001 3.7653 26.9708 3.7755C24.7635 3.7755 23.2824 4.932 23.2824 6.8625C23.2824 9.88313 27.4309 9.39263 27.4309 10.6948C27.4309 11.2044 26.9921 11.3619 26.3829 11.3619C25.4796 11.3619 24.3129 10.9884 23.3978 10.4901V13.0944C24.3399 13.5042 25.3556 13.718 26.3829 13.7228C28.6515 13.7228 30.2153 12.6023 30.2153 10.6374C30.2153 7.37719 26.0432 7.95994 26.0432 6.732L26.0437 6.73313ZM7.8075 5.35219C7.8075 4.58156 8.44875 4.28344 9.48487 4.28344C11.1997 4.32049 12.8824 4.7559 14.4 5.55525V0.903377C12.8351 0.288403 11.1661 -0.0181619 9.48487 0.00056482C5.49112 0.00056482 2.8125 2.0925 2.8125 5.58563C2.8125 11.0509 10.3174 10.1633 10.3174 12.519C10.3174 13.4404 9.52988 13.7261 8.42175 13.7261C6.78769 13.7261 4.67719 13.05 3.02175 12.15V16.8626C4.72613 17.6042 6.5636 17.9912 8.42231 18C12.5269 18 15.3562 15.9722 15.3562 12.4183C15.3562 6.51994 7.8075 7.5735 7.8075 5.35331V5.35219Z" fill="currentColor"/>
</g>
<defs>
<clipPath id="clip0_210_81694">
<rect width="18" height="18" fill="currentColor"/>
</clipPath>
</defs>
</svg>
