<svg width="22" height="22" viewBox="0 0 22 22" fill="none" xmlns="http://www.w3.org/2000/svg">

<path d="M12.8323 4.58333C12.8332 3.57042 10.7798 2.75 8.24984 2.75C5.71984 2.75 3.66834 3.57133 3.6665 4.58333C3.6665 5.59625 5.718 6.41667 8.24984 6.41667C10.7817 6.41667 12.8332 5.59625 12.8332 4.58333" stroke="currentColor" stroke-width="1.2" stroke-linecap="round" stroke-linejoin="round"/>
<path d="M12.8333 4.58337V11.6967" stroke="currentColor" stroke-width="1.2" stroke-linecap="round" stroke-linejoin="round"/>
<path d="M3.66748 8.25C3.66748 9.26292 5.71898 10.0833 8.25081 10.0833C10.7826 10.0833 12.8341 9.26292 12.8341 8.25" stroke="currentColor" stroke-width="1.2" stroke-linecap="round" stroke-linejoin="round"/>
<path d="M18.0416 12.2082C19.6522 13.8188 19.6522 16.4313 18.0416 18.0418C16.431 19.6524 13.8185 19.6524 12.2079 18.0418C10.5974 16.4313 10.5974 13.8188 12.2079 12.2082C13.8185 10.5976 16.431 10.5976 18.0416 12.2082" stroke="currentColor" stroke-width="1.2" stroke-linecap="round" stroke-linejoin="round"/>
<path d="M11.4628 13.2229C10.636 13.5483 9.50206 13.75 8.2499 13.75C5.71898 13.75 3.66748 12.9295 3.66748 11.9166" stroke="currentColor" stroke-width="1.2" stroke-linecap="round" stroke-linejoin="round"/>
<path d="M11.4078 16.907C10.5855 17.2215 9.47725 17.4167 8.24984 17.4167C5.71892 17.4167 3.66742 16.5963 3.6665 15.5834V4.58337" stroke="currentColor" stroke-width="1.2" stroke-linecap="round" stroke-linejoin="round"/>

</svg>
