<svg width="21" height="20" viewBox="0 0 21 20" fill="none" xmlns="http://www.w3.org/2000/svg">
<path fill-rule="evenodd" clip-rule="evenodd" d="M10.75 10.0001C12.3296 8.3782 12.7199 5.93883 11.7254 3.90502C11.6632 3.75696 11.6915 3.58631 11.7983 3.46635C11.9051 3.34639 12.0713 3.29845 12.2256 3.34312C13.4135 3.64933 14.4979 4.26793 15.3661 5.1347C18.0531 7.75244 18.1099 12.0527 15.4928 14.7404C12.8053 17.3577 8.50508 17.3013 5.88711 14.6145C5.01984 13.7469 4.4009 12.6627 4.0947 11.4748C4.04981 11.3204 4.09781 11.1538 4.21805 11.047C4.33828 10.9401 4.50929 10.9119 4.65743 10.9746C6.69035 11.9687 9.1286 11.5787 10.75 10.0001Z" stroke="currentColor" stroke-width="1.5" stroke-linecap="round" stroke-linejoin="round"/>
</svg>
