<svg width="743" height="737" viewBox="0 0 743 737" fill="none" xmlns="http://www.w3.org/2000/svg">
<path d="M646.5 663.641L675.066 573.989V544.344L742 487.426C742 487.426 714.527 174.968 700.041 160.145C685.556 145.322 758.587 -4.21924 661.5 1.14062C564.413 6.50049 509 1.14062 413.824 1.14062C318.648 1.14062 209.526 30.8927 128.106 112.713C46.6869 194.533 57.1765 196.905 36.1973 271.61C15.218 346.315 -8.25885 355.802 4.72833 422.8C17.7155 489.797 34.1992 514.106 75.6583 573.989C117.117 633.872 159.076 640.987 213.522 685.454C267.968 729.921 351.386 737.629 413.824 735.258C476.262 732.886 646.5 663.641 646.5 663.641Z" fill="#22FFCA" fill-opacity="0.3" stroke="#22FFCA" stroke-opacity="0.3"/>
</svg>
