<?xml version="1.0" standalone="no"?>
<!DOCTYPE svg PUBLIC "-//W3C//DTD SVG 1.1//EN" "http://www.w3.org/Graphics/SVG/1.1/DTD/svg11.dtd" >
<svg xmlns="http://www.w3.org/2000/svg" xmlns:xlink="http://www.w3.org/1999/xlink" version="1.1">
<metadata>
Created by FontForge 20170731 at Thu Mar 26 16:31:36 2020
 By Aleksey,,,
Copyright (c) 2020 by TypeType. Designers Yulia Gonina, Ksenia Ushakova, Antonina Zhulkova. Technical designers Ivan Gladkikh, Marina Khodak, Yuri Nako, Viktor Rubenko. All rights reserved.
</metadata>
<defs>
<font id="TTOctosquares-Italic" horiz-adv-x="0" >
  <font-face 
    font-family="TTOctosquares-Italic"
    font-weight="400"
    font-style="italic"
    font-stretch="normal"
    units-per-em="1000"
    panose-1="2 1 0 1 4 0 0 8 3 7"
    ascent="800"
    descent="-200"
    x-height="500"
    cap-height="700"
    bbox="-333 -245 1719 940"
    underline-thickness="50"
    underline-position="-250"
    slope="-13"
    unicode-range="U+000D-FB04"
  />
<missing-glyph horiz-adv-x="902" 
d="M124 0v284h45v-139h33v139h50v31h-128v126l19 -61h23l34 106l33 -106h23l54 170h-32l-34 -110l-35 110h-19l-35 -110l-31 103v157h700v-150h-110v-170h110v-91q-13 27 -50 27q-27 0 -43.5 -14.5t-16.5 -34.5t14 -32t30 -15t30 -9.5t14 -16.5q0 -21 -28 -21t-28 25h-33
q0 -24 17 -39.5t44 -15.5q33 0 50 20v-163h-700zM335 380h33v62h24l35 -62h37l-40 67q36 17 36 50q0 22 -16 37.5t-41 15.5h-68v-170zM493 380h33v170h-33v-170zM604 380h32v139h50v31h-132v-31h50v-139zM368 473v46h35q10 0 17 -6.5t7 -16.5q0 -23 -24 -23h-35zM746 483v36
h78v-36h-78zM746 411v41h78v-41h-78zM352 143q37 0 59.5 24.5t22.5 61.5t-23 62t-59 25t-59 -25t-23 -62t22.5 -61.5t59.5 -24.5zM609 143q29 0 48 19t19 47v106h-32v-106q0 -15 -9.5 -25t-25.5 -10q-17 0 -26.5 10.5t-9.5 24.5v106h-32v-106q0 -28 19.5 -47t48.5 -19z
M824 224q-9 9 -23.5 15t-25.5 8.5t-19 7.5t-8 12q0 9 7.5 14.5t18.5 5.5q10 0 18 -7t8 -18h24v-38zM352 174q-22 0 -36.5 16t-14.5 39q0 25 13.5 40.5t37.5 15.5t37.5 -15.5t13.5 -40.5q0 -23 -14.5 -39t-36.5 -16z" />
    <glyph glyph-name="f_f" unicode="ff" horiz-adv-x="721" 
d="M53 0l96 415h-100l19 85h100l33 139l75 61h211l-20 -85h-167l-18 -15l-24 -100h250l33 139l75 61h214l-20 -85h-170l-18 -15l-24 -100h180l-19 -85h-180l-96 -415h-90l96 415h-250l-96 -415h-90z" />
    <glyph glyph-name="fi" unicode="fi" horiz-adv-x="596" 
d="M53 0l96 415h-100l19 85h100l33 139l75 61h269l-20 -85h-225l-18 -15l-24 -100h320l-115 -500h-90l96 415h-230l-96 -415h-90z" />
    <glyph glyph-name="fl" unicode="fl" horiz-adv-x="631" 
d="M53 0l96 415h-100l19 85h100l33 139l75 61h379l-162 -700h-90l142 615h-245l-18 -15l-24 -100h180l-19 -85h-180l-96 -415h-90z" />
    <glyph glyph-name="f_f_i" unicode="ffi" horiz-adv-x="936" 
d="M53 0l96 415h-100l19 85h100l33 139l75 61h214l-20 -85h-170l-18 -15l-24 -100h250l33 139l75 61h269l-20 -85h-225l-18 -15l-24 -100h320l-115 -500h-90l96 415h-230l-96 -415h-90l96 415h-250l-96 -415h-90z" />
    <glyph glyph-name="f_f_l" unicode="ffl" horiz-adv-x="971" 
d="M53 0l96 415h-100l19 85h100l33 139l75 61h214l-20 -85h-170l-18 -15l-24 -100h250l33 139l75 61h379l-162 -700h-90l142 615h-245l-18 -15l-24 -100h180l-19 -85h-180l-96 -415h-90l96 415h-250l-96 -415h-90z" />
    <glyph glyph-name="f_j" unicode="fj" horiz-adv-x="596" 
d="M87 -200l19 85h225l19 15l119 515h-230l-96 -415h-90l96 415h-100l19 85h100l33 139l75 61h269l-20 -85h-225l-18 -15l-24 -100h320l-147 -639l-75 -61h-269z" />
    <glyph glyph-name="f_t" unicode="ft" horiz-adv-x="776" 
d="M53 0l96 415h-100l19 85h100l33 139l75 61h212l-20 -85h-168l-18 -15l-24 -100h270l30 130h90l-30 -130h180l-19 -85h-180l-73 -317l11 -13h171l-20 -85h-201l-57 74l79 341h-270l-96 -415h-90z" />
    <glyph glyph-name="f_f_j" unicode="ffj" horiz-adv-x="936" 
d="M427 -200l19 85h225l19 15l119 515h-230l-96 -415h-90l96 415h-250l-96 -415h-90l96 415h-100l19 85h100l33 139l75 61h214l-20 -85h-170l-18 -15l-24 -100h250l33 139l75 61h269l-20 -85h-225l-18 -15l-24 -100h320l-147 -639l-75 -61h-269z" />
    <glyph glyph-name="r_t" unicode="rt" horiz-adv-x="771" 
d="M18 0l115 500h70l-9 -40h14l57 40h258l30 130h90l-30 -130h180l-19 -85h-180l-73 -317l11 -13h171l-20 -85h-201l-57 74l79 341h-225l-89 -59l-82 -356h-90z" />
    <glyph glyph-name=".notdef" horiz-adv-x="902" 
d="M124 0v284h45v-139h33v139h50v31h-128v126l19 -61h23l34 106l33 -106h23l54 170h-32l-34 -110l-35 110h-19l-35 -110l-31 103v157h700v-150h-110v-170h110v-91q-13 27 -50 27q-27 0 -43.5 -14.5t-16.5 -34.5t14 -32t30 -15t30 -9.5t14 -16.5q0 -21 -28 -21t-28 25h-33
q0 -24 17 -39.5t44 -15.5q33 0 50 20v-163h-700zM335 380h33v62h24l35 -62h37l-40 67q36 17 36 50q0 22 -16 37.5t-41 15.5h-68v-170zM493 380h33v170h-33v-170zM604 380h32v139h50v31h-132v-31h50v-139zM368 473v46h35q10 0 17 -6.5t7 -16.5q0 -23 -24 -23h-35zM746 483v36
h78v-36h-78zM746 411v41h78v-41h-78zM352 143q37 0 59.5 24.5t22.5 61.5t-23 62t-59 25t-59 -25t-23 -62t22.5 -61.5t59.5 -24.5zM609 143q29 0 48 19t19 47v106h-32v-106q0 -15 -9.5 -25t-25.5 -10q-17 0 -26.5 10.5t-9.5 24.5v106h-32v-106q0 -28 19.5 -47t48.5 -19z
M824 224q-9 9 -23.5 15t-25.5 8.5t-19 7.5t-8 12q0 9 7.5 14.5t18.5 5.5q10 0 18 -7t8 -18h24v-38zM352 174q-22 0 -36.5 16t-14.5 39q0 25 13.5 40.5t37.5 15.5t37.5 -15.5t13.5 -40.5q0 -23 -14.5 -39t-36.5 -16z" />
    <glyph glyph-name=".null" 
 />
    <glyph glyph-name=".null" 
 />
    <glyph glyph-name="nonmarkingreturn" horiz-adv-x="333" 
 />
    <glyph glyph-name="CR" unicode="&#xd;" horiz-adv-x="340" 
 />
    <glyph glyph-name="space" unicode=" " horiz-adv-x="340" 
 />
    <glyph glyph-name="exclam" unicode="!" horiz-adv-x="335" 
d="M123 200l22 160l79 340h95l-79 -340l-52 -160h-65zM52 0l27 115h115l-27 -115h-115z" />
    <glyph glyph-name="quotedbl" unicode="&#x22;" horiz-adv-x="361" 
d="M111 425l12 140l32 135h85l-32 -135l-52 -140h-45zM276 425l12 140l32 135h85l-32 -135l-52 -140h-45z" />
    <glyph glyph-name="numbersign" unicode="#" horiz-adv-x="856" 
d="M847 430h-167l-79 -160h159l-18 -80h-180l-93 -190h-86l6 26l80 164h-192l-93 -190h-86l6 26l80 164h-147l18 80h168l79 160h-160l19 80h180l93 190h86l-6 -26l-80 -164h192l93 190h86l-6 -26l-80 -164h147zM508 270l79 160h-192l-79 -160h192z" />
    <glyph glyph-name="dollar" unicode="$" horiz-adv-x="710" 
d="M239 -100l23 100h-245l20 85h430l73 60l27 113l-44 57h-324l-92 119l37 160l131 106h149l23 100h80l-23 -100h225l-20 -85h-405l-74 -60l-22 -98l43 -57h324l92 -119l-41 -175l-130 -106h-154l-23 -100h-80z" />
    <glyph glyph-name="percent" unicode="%" horiz-adv-x="960" 
d="M181 370l-64 82l40 176l89 72h165l63 -83l-40 -175l-89 -72h-164zM172 0l8 37l584 663h70l-8 -37l-584 -663h-70zM222 440h103l42 34l28 123l-26 33h-103l-42 -34l-28 -123zM596 0l-64 82l40 176l89 72h165l63 -83l-40 -175l-89 -72h-164zM637 70h103l42 34l28 123
l-26 33h-103l-42 -34l-28 -123z" />
    <glyph glyph-name="ampersand" unicode="&#x26;" horiz-adv-x="816" 
d="M137 0l-99 129l34 150l125 101l-63 79l31 135l131 106h359l-20 -85h-310l-74 -60l-19 -83l52 -67h218l-20 -85h-235l-86 -70l-23 -98l52 -67h278l86 70l92 400h90l-34 -150h130l-20 -85h-130l-47 -204l-143 -116h-355z" />
    <glyph glyph-name="quotesingle" unicode="'" horiz-adv-x="196" 
d="M111 425l12 140l32 135h85l-32 -135l-52 -140h-45z" />
    <glyph glyph-name="parenleft" unicode="(" horiz-adv-x="385" 
d="M110 -200l-88 114l172 745l124 101h124l-19 -85h-75l-68 -55l-158 -683l40 -52h78l-19 -85h-111z" />
    <glyph glyph-name="parenright" unicode=")" horiz-adv-x="386" 
d="M-43 -200l19 85h75l68 55l158 683l-40 52h-78l19 85h111l88 -114l-172 -745l-124 -101h-124z" />
    <glyph glyph-name="asterisk" unicode="*" horiz-adv-x="495" 
d="M252 340v125l-105 -65l-35 65l110 60l-110 60l35 65l105 -65v125h75v-125l105 65l35 -65l-110 -60l110 -60l-35 -65l-105 65v-125h-75z" />
    <glyph glyph-name="plus" unicode="+" horiz-adv-x="580" 
d="M270 100v210h-210v80h210v210h80v-210h210v-80h-210v-210h-80z" />
    <glyph glyph-name="comma" unicode="," horiz-adv-x="290" 
d="M4 -160l59 150h-38l29 125h120l-25 -105l-94 -170h-51z" />
    <glyph glyph-name="hyphen" unicode="-" horiz-adv-x="440" 
d="M65 230l21 90h300l-21 -90h-300z" />
    <glyph glyph-name="period" unicode="." horiz-adv-x="285" 
d="M27 0l27 115h115l-27 -115h-115z" />
    <glyph glyph-name="slash" unicode="/" horiz-adv-x="422" 
d="M-93 -200l5 25l520 905h91l-6 -25l-520 -905h-90z" />
    <glyph glyph-name="zero" unicode="0" horiz-adv-x="786" 
d="M172 0l-115 149l96 415l168 136h340l114 -149l-96 -415l-167 -136h-340zM225 85h258l110 90l82 353l-67 87h-258l-111 -90l-81 -353z" />
    <glyph glyph-name="one" unicode="1" horiz-adv-x="545" 
d="M-18 0l20 85h205l122 530h-185l20 85h280l-142 -615h185l-20 -85h-485z" />
    <glyph glyph-name="two" unicode="2" horiz-adv-x="705" 
d="M2 0l59 254l155 126h304l74 60l27 118l-44 57h-408l20 85h441l91 -119l-41 -180l-131 -106h-304l-98 -80l-29 -125h485l-21 -90h-580z" />
    <glyph glyph-name="three" unicode="3" horiz-adv-x="690" 
d="M-13 0l20 85h420l86 70l22 98l-51 67h-278l20 85h255l86 70l19 83l-44 57h-403l20 85h436l91 -119l-31 -135l-95 -77l75 -98l-36 -155l-143 -116h-469z" />
    <glyph glyph-name="four" unicode="4" horiz-adv-x="731" 
d="M448 0l33 145h-460l29 125l507 430h148l-109 -470h95l-20 -85h-95l-33 -145h-95zM141 230h360l88 380h-14l-431 -365z" />
    <glyph glyph-name="five" unicode="5" horiz-adv-x="730" 
d="M17 0l20 85h420l86 70l29 128l-51 67h-398l81 350h530l-20 -85h-435l-42 -180h336l100 -129l-44 -190l-143 -116h-469z" />
    <glyph glyph-name="six" unicode="6" horiz-adv-x="760" 
d="M151 0l-99 129l99 430l174 141h419l-20 -85h-370l-117 -95l-20 -85h386l100 -129l-44 -190l-143 -116h-365zM204 85h283l86 70l29 128l-51 67h-353l-46 -198z" />
    <glyph glyph-name="seven" unicode="7" horiz-adv-x="650" 
d="M147 0l56 244l375 280l20 86h-490l21 90h585l-51 -219l-375 -280l-46 -201h-95z" />
    <glyph glyph-name="eight" unicode="8" horiz-adv-x="750" 
d="M136 0l-99 129l36 155l120 98l-60 77l31 135l131 106h355l91 -119l-31 -135l-95 -77l75 -98l-36 -155l-143 -116h-375zM283 405h253l86 70l19 83l-44 57h-273l-74 -60l-19 -83zM189 85h293l86 70l22 98l-51 67h-293l-86 -70l-23 -98z" />
    <glyph glyph-name="nine" unicode="9" horiz-adv-x="760" 
d="M62 0l20 85h370l117 95l19 85h-386l-99 129l44 190l143 116h365l99 -129l-99 -430l-174 -141h-419zM255 350h353l46 198l-52 67h-283l-86 -70l-30 -128z" />
    <glyph glyph-name="colon" unicode=":" horiz-adv-x="285" 
d="M116 385l27 115h115l-27 -115h-115zM27 0l27 115h115l-27 -115h-115z" />
    <glyph glyph-name="semicolon" unicode=";" horiz-adv-x="290" 
d="M118 385l27 115h115l-27 -115h-115zM4 -160l59 150h-38l29 125h120l-25 -105l-94 -170h-51z" />
    <glyph glyph-name="less" unicode="&#x3c;" horiz-adv-x="449" 
d="M340 45l-290 290l290 290l58 -58l-233 -232l233 -232z" />
    <glyph glyph-name="equal" unicode="=" horiz-adv-x="580" 
d="M75 405v80h470v-80h-470zM75 215v80h470v-80h-470z" />
    <glyph glyph-name="greater" unicode="&#x3e;" horiz-adv-x="448" 
d="M148 45l-58 58l233 232l-233 232l58 58l290 -290z" />
    <glyph glyph-name="question" unicode="?" horiz-adv-x="670" 
d="M205 200l28 119l69 56h152l86 70l24 103l-52 67h-358l20 85h391l99 -129l-38 -165l-143 -116h-143l-17 -14l-18 -76h-100zM152 0l27 115h115l-27 -115h-115z" />
    <glyph glyph-name="at" unicode="@" horiz-adv-x="985" 
d="M158 -145l-130 169l109 475l192 156h510l130 -169l-76 -330l-118 -96h-135l-44 58l-71 -58h-160l-80 104l45 195l112 91h269l-62 -268l32 -42h63l62 50l63 273l-82 107h-428l-136 -110l-95 -413l82 -107h538l-19 -85h-571zM416 140h88l56 45l42 185h-130l-61 -50
l-31 -133z" />
    <glyph glyph-name="A" unicode="A" horiz-adv-x="770" 
d="M569 700l136 -665l-8 -35h-83l-37 190h-381l-125 -190h-94l8 35l439 665h145zM252 275h308l-67 340h-18z" />
    <glyph glyph-name="B" unicode="B" horiz-adv-x="800" 
d="M42 0l162 700h481l91 -119l-32 -140l-83 -67l79 -103l-36 -155l-143 -116h-519zM231 405h345l80 65l20 88l-44 57h-353zM157 85h375l86 70l22 98l-51 67h-378z" />
    <glyph glyph-name="C" unicode="C" horiz-adv-x="711" 
d="M172 0l-115 149l96 415l168 136h444l-20 -85h-395l-111 -90l-81 -353l67 -87h398l-20 -85h-431z" />
    <glyph glyph-name="D" unicode="D" horiz-adv-x="815" 
d="M42 0l162 700h486l114 -149l-96 -415l-167 -136h-499zM157 85h355l110 90l82 353l-67 87h-358z" />
    <glyph glyph-name="E" unicode="E" horiz-adv-x="730" 
d="M42 0l162 700h580l-20 -85h-485l-51 -220h375l-19 -85h-375l-52 -225h495l-20 -85h-590z" />
    <glyph glyph-name="F" unicode="F" horiz-adv-x="680" 
d="M42 0l162 700h560l-20 -85h-465l-57 -245h365l-19 -85h-365l-66 -285h-95z" />
    <glyph glyph-name="G" unicode="G" horiz-adv-x="815" 
d="M172 0l-115 149l96 415l168 136h479l-20 -85h-430l-111 -90l-81 -353l67 -87h303l110 90l33 140h-265l19 85h360l-61 -264l-167 -136h-385z" />
    <glyph glyph-name="H" unicode="H" horiz-adv-x="825" 
d="M42 0l162 700h95l-71 -305h435l71 305h95l-162 -700h-95l72 310h-435l-72 -310h-95z" />
    <glyph glyph-name="I" unicode="I" horiz-adv-x="496" 
d="M3 0l18 80h140l125 540h-140l19 80h375l-19 -80h-140l-125 -540h140l-18 -80h-375z" />
    <glyph glyph-name="J" unicode="J" horiz-adv-x="555" 
d="M-28 0l20 85h265l92 75l105 455h-295l20 85h390l-134 -579l-149 -121h-314z" />
    <glyph glyph-name="K" unicode="K" horiz-adv-x="735" 
d="M42 0l162 700h95l-71 -305h178l290 305h93l-8 -35l-297 -310l171 -320l-8 -35h-82l-164 310h-192l-72 -310h-95z" />
    <glyph glyph-name="L" unicode="L" horiz-adv-x="630" 
d="M42 0l162 700h95l-142 -615h415l-20 -85h-510z" />
    <glyph glyph-name="M" unicode="M" horiz-adv-x="985" 
d="M42 0l162 700h166l104 -470h19l321 470h175l-162 -700h-95l141 610h-15l-321 -470h-136l-104 470h-19l-141 -610h-95z" />
    <glyph glyph-name="N" unicode="N" horiz-adv-x="825" 
d="M42 0l162 700h164l203 -610h25l141 610h92l-162 -700h-164l-203 610h-25l-141 -610h-92z" />
    <glyph glyph-name="O" unicode="O" horiz-adv-x="831" 
d="M172 0l-115 149l96 415l168 136h385l114 -149l-96 -415l-167 -136h-385zM225 85h303l110 90l82 353l-67 87h-303l-111 -90l-81 -353z" />
    <glyph glyph-name="P" unicode="P" horiz-adv-x="755" 
d="M42 0l162 700h461l107 -139l-49 -210l-155 -126h-379l-52 -225h-95zM209 310h330l98 80l34 148l-59 77h-333z" />
    <glyph glyph-name="Q" unicode="Q" horiz-adv-x="831" 
d="M706 700l114 -149l-96 -415l-167 -136h-154l-33 -145h-90l33 145h-141l-115 149l96 415l168 136h385zM638 175l82 353l-67 87h-303l-111 -90l-81 -353l67 -87h108l32 140h90l-32 -140h105z" />
    <glyph glyph-name="R" unicode="R" horiz-adv-x="788" 
d="M42 0l162 700h466l107 -139l-43 -185l-158 -128l102 -213l-8 -35h-84l-117 250h-274l-58 -250h-95zM214 335h335l99 80l28 123l-59 77h-338z" />
    <glyph glyph-name="S" unicode="S" horiz-adv-x="720" 
d="M17 0l20 85h440l73 60l27 113l-44 57h-334l-92 119l37 160l131 106h464l-20 -85h-415l-74 -60l-22 -98l43 -57h334l92 -119l-41 -175l-130 -106h-489z" />
    <glyph glyph-name="T" unicode="T" horiz-adv-x="665" 
d="M217 0l142 615h-275l20 85h645l-20 -85h-275l-142 -615h-95z" />
    <glyph glyph-name="U" unicode="U" horiz-adv-x="786" 
d="M182 0l-115 149l128 551h95l-122 -528l67 -87h238l110 90l122 525h95l-131 -564l-167 -136h-320z" />
    <glyph glyph-name="V" unicode="V" horiz-adv-x="745" 
d="M231 0l-115 665l8 35h84l104 -610h26l388 610h93l-8 -35l-425 -665h-155z" />
    <glyph glyph-name="W" unicode="W" horiz-adv-x="1043" 
d="M184 0l-63 665l8 35h84l55 -610h20l249 445l-11 130l8 35h84l47 -610h19l337 610h91l-8 -35l-368 -665h-156l-31 369h-9l-208 -369h-148z" />
    <glyph glyph-name="X" unicode="X" horiz-adv-x="714" 
d="M-23 0l8 35l329 328l-163 302l8 35h83l141 -268h17l265 268h98l-8 -35l-303 -302l177 -328l-8 -35h-83l-154 293h-19l-290 -293h-98z" />
    <glyph glyph-name="Y" unicode="Y" horiz-adv-x="710" 
d="M245 0l57 245l-191 420l8 35h83l156 -345h22l315 345h94l-8 -35l-384 -420l-57 -245h-95z" />
    <glyph glyph-name="Z" unicode="Z" horiz-adv-x="685" 
d="M-13 0l33 143l586 447l5 20h-468l21 90h580l-33 -143l-586 -446l-5 -21h483l-21 -90h-595z" />
    <glyph glyph-name="bracketleft" unicode="[" horiz-adv-x="391" 
d="M-3 -200l221 960h230l-19 -85h-135l-183 -790h135l-19 -85h-230z" />
    <glyph glyph-name="backslash" unicode="\" horiz-adv-x="421" 
d="M222 -200l-103 922l2 8h85l103 -922l-2 -8h-85z" />
    <glyph glyph-name="bracketright" unicode="]" horiz-adv-x="391" 
d="M-43 -200l19 85h135l183 790h-135l19 85h230l-221 -960h-230z" />
    <glyph glyph-name="asciicircum" unicode="^" horiz-adv-x="545" 
d="M172 475l-57 57l167 168h90l168 -168l-57 -57l-148 150h-15z" />
    <glyph glyph-name="underscore" unicode="_" horiz-adv-x="461" 
d="M-103 -200l18 80h500l-18 -80h-500z" />
    <glyph glyph-name="grave" unicode="`" horiz-adv-x="215" 
d="M193 560l-52 171l1 4h97l18 -171l-1 -4h-63z" />
    <glyph glyph-name="a" unicode="a" horiz-adv-x="595" 
d="M86 0l-72 94l30 130l112 91h294l12 53l-36 47h-273l19 85h301l84 -109l-90 -391h-70l12 50h-14l-74 -50h-235zM134 85h178l101 69l17 76h-250l-55 -45l-16 -68z" />
    <glyph glyph-name="b" unicode="b" horiz-adv-x="630" 
d="M22 0l162 700h90l-55 -235h13l51 35h215l96 -124l-61 -265l-137 -111h-374zM132 85h240l80 65l46 203l-47 62h-158l-101 -70z" />
    <glyph glyph-name="c" unicode="c" horiz-adv-x="550" 
d="M131 0l-95 124l61 265l136 111h324l-19 -85h-280l-80 -65l-47 -203l48 -62h283l-20 -85h-311z" />
    <glyph glyph-name="d" unicode="d" horiz-adv-x="630" 
d="M131 0l-95 124l61 265l136 111h284l47 200h90l-162 -700h-70l12 50h-16l-72 -50h-215zM179 85h158l101 70l60 260h-240l-80 -65l-47 -203z" />
    <glyph glyph-name="e" unicode="e" horiz-adv-x="615" 
d="M131 0l-95 124l61 265l136 111h260l96 -124l-41 -176h-405l-12 -53l48 -62h308l-20 -85h-336zM163 285h315l15 68l-47 62h-188l-80 -65z" />
    <glyph glyph-name="f" unicode="f" horiz-adv-x="381" 
d="M53 0l96 415h-100l19 85h100l33 139l75 61h214l-20 -85h-170l-18 -15l-24 -100h180l-19 -85h-180l-96 -415h-90z" />
    <glyph glyph-name="g" unicode="g" horiz-adv-x="625" 
d="M-4 -200l19 85h325l44 35l26 115h-13l-51 -35h-215l-95 124l61 265l136 111h374l-142 -619l-100 -81h-369zM179 85h158l101 70l60 260h-240l-80 -65l-47 -203z" />
    <glyph glyph-name="h" unicode="h" horiz-adv-x="625" 
d="M22 0l162 700h90l-54 -232h13l46 32h219l88 -114l-89 -386h-90l84 363l-40 52h-162l-97 -67l-80 -348h-90z" />
    <glyph glyph-name="i" unicode="i" horiz-adv-x="241" 
d="M151 600l23 100h100l-23 -100h-100zM18 0l115 500h90l-115 -500h-90z" />
    <glyph glyph-name="j" unicode="j" horiz-adv-x="241" 
d="M151 600l23 100h100l-23 -100h-100zM-183 -200l19 85h140l19 15l138 600h90l-147 -639l-75 -61h-184z" />
    <glyph glyph-name="k" unicode="k" horiz-adv-x="574" 
d="M22 0l162 700h90l-93 -400h128l188 200h89l-6 -30l-198 -210l116 -230l-7 -30h-80l-107 215h-142l-50 -215h-90z" />
    <glyph glyph-name="l" unicode="l" horiz-adv-x="265" 
d="M37 0l142 615h-100l20 85h190l-162 -700h-90z" />
    <glyph glyph-name="m" unicode="m" horiz-adv-x="906" 
d="M18 0l115 500h70l-9 -40h14l57 40h179l45 -59h26l85 59h179l88 -114l-89 -386h-90l84 363l-40 52h-122l-85 -58l-82 -357h-90l84 363l-40 52h-122l-85 -58l-82 -357h-90z" />
    <glyph glyph-name="n" unicode="n" horiz-adv-x="621" 
d="M18 0l115 500h70l-9 -40h13l58 40h229l88 -114l-89 -386h-90l84 363l-40 52h-172l-85 -59l-82 -356h-90z" />
    <glyph glyph-name="o" unicode="o" horiz-adv-x="635" 
d="M131 0l-95 124l61 265l136 111h270l96 -124l-61 -265l-137 -111h-270zM179 85h198l80 65l46 203l-47 62h-198l-80 -65l-47 -203z" />
    <glyph glyph-name="p" unicode="p" horiz-adv-x="626" 
d="M-28 -200l161 700h70l-11 -50h15l72 50h215l96 -124l-61 -265l-137 -111h-284l-46 -200h-90zM128 85h240l80 65l46 203l-47 62h-158l-101 -70z" />
    <glyph glyph-name="q" unicode="q" horiz-adv-x="625" 
d="M356 -200l54 235h-13l-51 -35h-215l-95 124l61 265l136 111h374l-161 -700h-90zM179 85h158l101 70l60 260h-240l-80 -65l-47 -203z" />
    <glyph glyph-name="r" unicode="r" horiz-adv-x="406" 
d="M18 0l115 500h70l-9 -40h13l58 40h203l-19 -85h-174l-85 -59l-82 -356h-90z" />
    <glyph glyph-name="s" unicode="s" horiz-adv-x="565" 
d="M7 0l20 85h325l43 35l13 58l-25 32h-239l-72 94l27 115l99 81h349l-19 -85h-305l-43 -35l-13 -53l25 -32h239l72 -94l-27 -120l-100 -81h-369z" />
    <glyph glyph-name="t" unicode="t" horiz-adv-x="416" 
d="M127 0l-57 74l79 341h-100l19 85h100l30 130h90l-30 -130h180l-19 -85h-180l-73 -317l11 -13h171l-20 -85h-201z" />
    <glyph glyph-name="u" unicode="u" horiz-adv-x="611" 
d="M132 0l-88 114l89 386h90l-83 -363l40 -52h157l84 59l82 356h90l-115 -500h-70l9 40h-13l-58 -40h-214z" />
    <glyph glyph-name="v" unicode="v" horiz-adv-x="544" 
d="M141 0l-79 470l6 30h79l69 -415h17l259 415h89l-6 -30l-296 -470h-138z" />
    <glyph glyph-name="w" unicode="w" horiz-adv-x="783" 
d="M115 0l-48 470l6 30h81l39 -415h15l173 300l-4 85l6 30h74l25 -415h16l229 415h88l-6 -30l-266 -470h-137l-15 235h-12l-134 -235h-130z" />
    <glyph glyph-name="x" unicode="x" horiz-adv-x="551" 
d="M-28 0l7 30l231 223l-120 217l6 30h81l97 -181h16l183 181h94l-6 -30l-219 -211l128 -229l-7 -30h-80l-105 195h-14l-198 -195h-94z" />
    <glyph glyph-name="y" unicode="y" horiz-adv-x="611" 
d="M-3 -200l19 85h310l44 35l24 105h-12l-36 -25h-214l-88 114l89 386h90l-83 -363l40 -52h157l84 59l82 356h90l-142 -619l-100 -81h-354z" />
    <glyph glyph-name="z" unicode="z" horiz-adv-x="525" 
d="M-13 0l30 130l395 273l3 12h-322l19 85h425l-30 -132l-395 -270l-2 -13h342l-20 -85h-445z" />
    <glyph glyph-name="braceleft" unicode="{" horiz-adv-x="416" 
d="M146 -200l-88 114l75 324h-80l19 84h80l78 337l124 101h119l-19 -85h-70l-68 -55l-158 -683l40 -52h73l-19 -85h-106z" />
    <glyph glyph-name="bar" unicode="|" horiz-adv-x="330" 
d="M140 -200v960h90v-960h-90z" />
    <glyph glyph-name="braceright" unicode="}" horiz-adv-x="416" 
d="M-43 -200l19 85h70l68 55l158 683l-40 52h-73l19 85h106l88 -114l-75 -324h80l-19 -84h-80l-78 -337l-124 -101h-119z" />
    <glyph glyph-name="asciitilde" unicode="~" horiz-adv-x="580" 
d="M83 280v75l65 65h145l70 -70h75l25 25v45h75v-75l-65 -65h-140l-70 70h-80l-25 -25v-45h-75z" />
    <glyph glyph-name="uni00A0" unicode="&#xa0;" horiz-adv-x="340" 
 />
    <glyph glyph-name="exclamdown" unicode="&#xa1;" horiz-adv-x="336" 
d="M142 385l26 115h115l-26 -115h-115zM17 -200l78 340l52 160h65l-22 -160l-78 -340h-95z" />
    <glyph glyph-name="cent" unicode="&#xa2;" horiz-adv-x="580" 
d="M211 -90l21 90h-101l-95 124l61 265l136 111h114l21 90h85l-21 -90h155l-19 -85h-155l-76 -330h155l-20 -85h-155l-21 -90h-85zM179 85h73l76 330h-70l-80 -65l-47 -203z" />
    <glyph glyph-name="sterling" unicode="&#xa3;" horiz-adv-x="665" 
d="M-18 0l20 85h135l53 232h-95l19 80h95l44 192l137 111h309l-20 -85h-265l-74 -60l-36 -158h265l-19 -80h-265l-53 -232h365l-20 -85h-595z" />
    <glyph glyph-name="currency" unicode="&#xa4;" horiz-adv-x="606" 
d="M158 107l-53 53l68 68l-17 17v170l16 16l-67 67l53 53l67 -67l16 16h170l18 -18l69 69l53 -53l-69 -69l14 -14v-170l-15 -15l70 -70l-53 -53l-70 70l-17 -17h-170l-15 15zM276 235h100l40 40v110l-40 40h-100l-40 -40v-110z" />
    <glyph glyph-name="yen" unicode="&#xa5;" horiz-adv-x="710" 
d="M789 700l-8 -35l-311 -340h170l-18 -80h-225l-18 -75h225l-18 -80h-225l-21 -90h-95l21 90h-225l18 80h225l18 75h-225l18 80h171l-155 340l8 35h83l156 -345h22l315 345h94z" />
    <glyph glyph-name="brokenbar" unicode="&#xa6;" horiz-adv-x="330" 
d="M140 360v400h90v-400h-90zM140 -200v400h90v-400h-90z" />
    <glyph glyph-name="section" unicode="&#xa7;" horiz-adv-x="626" 
d="M7 -200l19 85h285l62 50l11 48l-55 72h-184l-92 119l38 165l108 88l-56 72l26 110l112 91h324l-20 -85h-275l-55 -45l-13 -53l56 -72h184l91 -119l-38 -165l-108 -88l56 -72l-24 -105l-118 -96h-334zM197 140h178l74 60l24 103l-44 57h-178l-74 -60l-24 -103z" />
    <glyph glyph-name="dieresis" unicode="&#xa8;" horiz-adv-x="355" 
d="M111 600l23 100h100l-23 -100h-100zM306 600l23 100h100l-23 -100h-100z" />
    <glyph glyph-name="copyright" unicode="&#xa9;" horiz-adv-x="1050" 
d="M285 -40l-160 160v450l160 160h510l160 -160v-450l-160 -160h-510zM330 40h420l115 115v380l-115 115h-420l-115 -115v-380zM450 150l-95 95v200l95 95h255v-80h-215l-50 -50v-130l50 -50h215v-80h-255z" />
    <glyph glyph-name="ordfeminine" unicode="&#xaa;" horiz-adv-x="455" 
d="M141 330l-60 78l21 90l83 67h217l9 37l-25 33h-217l15 65h242l59 -78l-67 -292h-55l9 40h-5l-50 -40h-176zM181 395h137l56 45l13 60h-181l-42 -34l-8 -38z" />
    <glyph glyph-name="guillemotleft" unicode="&#xab;" horiz-adv-x="610" 
d="M199 -10l-159 260l279 260l56 -53l-233 -217l125 -205zM434 -10l-159 260l279 260l56 -53l-233 -217l125 -205z" />
    <glyph glyph-name="logicalnot" unicode="&#xac;" horiz-adv-x="580" 
d="M460 245v90h-390v80h470v-170h-80z" />
    <glyph glyph-name="uni00AD" unicode="&#xad;" horiz-adv-x="440" 
d="M65 230l21 90h300l-21 -90h-300z" />
    <glyph glyph-name="registered" unicode="&#xae;" horiz-adv-x="1050" 
d="M285 -40l-160 160v450l160 160h510l160 -160v-450l-160 -160h-510zM330 40h420l115 115v380l-115 115h-420l-115 -115v-380zM375 150v390h275l75 -75v-110l-70 -70l90 -121v-14h-90l-95 130h-100v-130h-85zM460 360h150l30 30v40l-30 30h-150v-100z" />
    <glyph glyph-name="macron" unicode="&#xaf;" horiz-adv-x="365" 
d="M114 613l17 75h305l-17 -75h-305z" />
    <glyph glyph-name="degree" unicode="&#xb0;" horiz-adv-x="450" 
d="M195 370l-75 75v180l75 75h180l75 -75v-180l-75 -75h-180zM230 440h110l35 35v120l-35 35h-110l-35 -35v-120z" />
    <glyph glyph-name="plusminus" unicode="&#xb1;" horiz-adv-x="580" 
d="M270 150v210h-210v80h210v210h80v-210h210v-80h-210v-210h-80zM60 0v80h500v-80h-500z" />
    <glyph glyph-name="uni00B2" unicode="&#xb2;" horiz-adv-x="400" 
d="M96 470l30 133l77 62h159l29 24l6 23l-18 23h-212l15 65h236l53 -69l-18 -74l-69 -57h-159l-36 -29l-8 -36h235l-15 -65h-305z" />
    <glyph glyph-name="uni00B3" unicode="&#xb3;" horiz-adv-x="394" 
d="M96 470l15 65h226l23 19l7 28l-18 23h-142l15 65h131l29 24l6 23l-14 18h-212l15 65h237l48 -63l-15 -65l-41 -33l33 -44l-17 -73l-63 -52h-263z" />
    <glyph glyph-name="acute" unicode="&#xb4;" horiz-adv-x="216" 
d="M102 560l5 15l95 160h96l-4 -15l-123 -160h-69z" />
    <glyph glyph-name="uni00B5" unicode="&#xb5;" horiz-adv-x="626" 
d="M-28 -200l161 700h90l-82 -358l44 -57h178l73 60l82 355h90l-115 -500h-70l9 40h-6l-49 -40h-222l-23 30h-17l-53 -230h-90z" />
    <glyph glyph-name="paragraph" unicode="&#xb6;" horiz-adv-x="645" 
d="M280 -200v470h-85l-100 100v230l100 100h175v-900h-90zM480 -200v900h90v-900h-90z" />
    <glyph glyph-name="periodcentered" unicode="&#xb7;" horiz-adv-x="340" 
d="M108 230l27 115h115l-27 -115h-115z" />
    <glyph glyph-name="cedilla" unicode="&#xb8;" horiz-adv-x="259" 
d="M-74 -200l14 60h121l11 9l5 24l-9 12h-88l7 30l38 71l72 6l-2 -6l-19 -33l-2 -8h35l42 -55l-15 -64l-56 -46h-154z" />
    <glyph glyph-name="uni00B9" unicode="&#xb9;" horiz-adv-x="380" 
d="M121 470l15 65h90l46 200h-85l15 65h155l-61 -265h85l-15 -65h-245z" />
    <glyph glyph-name="ordmasculine" unicode="&#xba;" horiz-adv-x="464" 
d="M151 330l-60 78l52 225l83 67h210l59 -78l-52 -225l-83 -67h-209zM191 395h148l42 34l40 173l-25 33h-148l-42 -34l-40 -173z" />
    <glyph glyph-name="guillemotright" unicode="&#xbb;" horiz-adv-x="611" 
d="M57 -10l-57 53l234 218l-126 204l69 45l159 -260zM292 -10l-57 53l234 218l-126 204l69 45l159 -260z" />
    <glyph glyph-name="onequarter" unicode="&#xbc;" horiz-adv-x="821" 
d="M98 370l15 65h90l46 200h-85l15 65h155l-61 -265h85l-15 -65h-245zM112 0l8 37l584 663h70l-8 -37l-584 -663h-70zM603 0l13 60h-210l16 70l233 200h94l-49 -210h45l-14 -60h-45l-13 -60h-70zM500 120h130l33 140h-3l-159 -136z" />
    <glyph glyph-name="onehalf" unicode="&#xbd;" horiz-adv-x="860" 
d="M98 370l15 65h90l46 200h-85l15 65h155l-61 -265h85l-15 -65h-245zM112 0l8 37l584 663h70l-8 -37l-584 -663h-70zM447 0l30 133l77 62h159l29 24l6 23l-18 23h-212l15 65h236l53 -69l-18 -74l-69 -57h-159l-36 -29l-8 -36h235l-15 -65h-305z" />
    <glyph glyph-name="threequarters" unicode="&#xbe;" horiz-adv-x="835" 
d="M73 370l15 65h226l23 19l7 28l-18 23h-142l15 65h131l29 24l6 23l-14 18h-212l15 65h237l48 -63l-15 -65l-41 -33l33 -44l-17 -73l-63 -52h-263zM126 0l8 37l584 663h70l-8 -37l-584 -663h-70zM617 0l13 60h-210l16 70l233 200h94l-49 -210h45l-14 -60h-45l-13 -60h-70z
M514 120h130l33 140h-3l-159 -136z" />
    <glyph glyph-name="questiondown" unicode="&#xbf;" horiz-adv-x="670" 
d="M376 385l26 115h115l-26 -115h-115zM105 -200l-99 129l38 165l142 116h143l18 14l17 76h100l-27 -119l-69 -56h-152l-86 -70l-24 -103l51 -67h358l-19 -85h-391z" />
    <glyph glyph-name="Agrave" unicode="&#xc0;" horiz-adv-x="770" 
d="M543 755h-73l-42 130l1 5h92l23 -130zM569 700l136 -665l-8 -35h-83l-37 190h-381l-125 -190h-94l8 35l439 665h145zM252 275h308l-67 340h-18z" />
    <glyph glyph-name="Aacute" unicode="&#xc1;" horiz-adv-x="770" 
d="M643 877l-96 -122h-77l4 14l77 121h95zM569 700l136 -665l-8 -35h-83l-37 190h-381l-125 -190h-94l8 35l439 665h145zM252 275h308l-67 340h-18z" />
    <glyph glyph-name="Acircumflex" unicode="&#xc2;" horiz-adv-x="770" 
d="M521 825l-91 -70h-96l6 24l145 106h94l95 -104l-6 -26h-77l-59 70h-11zM569 700l136 -665l-8 -35h-83l-37 190h-381l-125 -190h-94l8 35l439 665h145zM252 275h308l-67 340h-18z" />
    <glyph glyph-name="Atilde" unicode="&#xc3;" horiz-adv-x="770" 
d="M418 795l-10 -40h-75l16 69l63 51h102l47 -55h52l19 15l9 40h75l-16 -69l-63 -51h-112l-47 55h-42zM424 700h145l136 -665l-8 -35h-83l-37 190h-381l-125 -190h-94l8 35zM252 275h308l-67 340h-18z" />
    <glyph glyph-name="Adieresis" unicode="&#xc4;" horiz-adv-x="770" 
d="M489 870l-23 -100h-100l23 100h100zM684 870l-23 -100h-100l23 100h100zM569 700l136 -665l-8 -35h-83l-37 190h-381l-125 -190h-94l8 35l439 665h145zM252 275h308l-67 340h-18z" />
    <glyph glyph-name="Aring" unicode="&#xc5;" horiz-adv-x="770" 
d="M566 730h-125l-51 64l23 97l61 49h126l49 -65l-22 -95zM470 859l-12 -52l12 -17h73l27 22l11 52l-12 16h-73zM569 700l136 -665l-8 -35h-83l-37 190h-381l-125 -190h-94l8 35l439 665h145zM252 275h308l-67 340h-18z" />
    <glyph glyph-name="AE" unicode="&#xc6;" horiz-adv-x="1137" 
d="M1171 615h-460l-51 -220h355l-19 -85h-355l-52 -225h470l-20 -85h-565l46 200h-307l-147 -200h-94l8 35l491 665h720zM540 285l76 330h-99l-242 -330h265z" />
    <glyph glyph-name="Ccedilla" unicode="&#xc7;" horiz-adv-x="711" 
d="M350 615l-111 -90l-81 -353l67 -87h398l-20 -85h-210l-16 -27l-2 -8h35l42 -55l-15 -64l-56 -46h-154l14 60h121l11 9l5 24l-9 12h-88l7 30l35 65h-151l-115 149l96 415l168 136h444l-20 -85h-395z" />
    <glyph glyph-name="Egrave" unicode="&#xc8;" horiz-adv-x="730" 
d="M467 755l-42 130l1 5h92l23 -130l-1 -5h-73zM42 0l162 700h580l-20 -85h-485l-51 -220h375l-19 -85h-375l-52 -225h495l-20 -85h-590z" />
    <glyph glyph-name="Eacute" unicode="&#xc9;" horiz-adv-x="730" 
d="M467 755l4 14l77 121h95l-3 -13l-96 -122h-77zM42 0l162 700h580l-20 -85h-485l-51 -220h375l-19 -85h-375l-52 -225h495l-20 -85h-590z" />
    <glyph glyph-name="Ecircumflex" unicode="&#xca;" horiz-adv-x="730" 
d="M331 755l6 24l145 106h94l95 -104l-6 -26h-77l-59 70h-11l-91 -70h-96zM42 0l162 700h580l-20 -85h-485l-51 -220h375l-19 -85h-375l-52 -225h495l-20 -85h-590z" />
    <glyph glyph-name="Edieresis" unicode="&#xcb;" horiz-adv-x="730" 
d="M363 770l23 100h100l-23 -100h-100zM558 770l23 100h100l-23 -100h-100zM42 0l162 700h580l-20 -85h-485l-51 -220h375l-19 -85h-375l-52 -225h495l-20 -85h-590z" />
    <glyph glyph-name="Igrave" unicode="&#xcc;" horiz-adv-x="496" 
d="M326 755l-42 130l1 5h92l23 -130l-1 -5h-73zM3 0l18 80h140l125 540h-140l19 80h375l-19 -80h-140l-125 -540h140l-18 -80h-375z" />
    <glyph glyph-name="Iacute" unicode="&#xcd;" horiz-adv-x="496" 
d="M326 755l4 14l77 121h95l-3 -13l-96 -122h-77zM3 0l18 80h140l125 540h-140l19 80h375l-19 -80h-140l-125 -540h140l-18 -80h-375z" />
    <glyph glyph-name="Icircumflex" unicode="&#xce;" horiz-adv-x="496" 
d="M190 755l6 24l145 106h94l95 -104l-6 -26h-77l-59 70h-11l-91 -70h-96zM3 0l18 80h140l125 540h-140l19 80h375l-19 -80h-140l-125 -540h140l-18 -80h-375z" />
    <glyph glyph-name="Idieresis" unicode="&#xcf;" horiz-adv-x="496" 
d="M222 770l23 100h100l-23 -100h-100zM417 770l23 100h100l-23 -100h-100zM3 0l18 80h140l125 540h-140l19 80h375l-19 -80h-140l-125 -540h140l-18 -80h-375z" />
    <glyph glyph-name="Eth" unicode="&#xd0;" horiz-adv-x="840" 
d="M715 700l114 -149l-96 -415l-167 -136h-499l72 310h-100l18 80h100l72 310h486zM647 175l82 353l-67 87h-358l-52 -225h250l-18 -80h-250l-52 -225h355z" />
    <glyph glyph-name="Ntilde" unicode="&#xd1;" horiz-adv-x="825" 
d="M350 755l16 69l63 51h102l47 -55h52l19 15l9 40h75l-16 -69l-63 -51h-112l-47 55h-42l-18 -15l-10 -40h-75zM42 0l162 700h164l203 -610h25l141 610h92l-162 -700h-164l-203 610h-25l-141 -610h-92z" />
    <glyph glyph-name="Ograve" unicode="&#xd2;" horiz-adv-x="831" 
d="M486 755l-42 130l1 5h92l23 -130l-1 -5h-73zM172 0l-115 149l96 415l168 136h385l114 -149l-96 -415l-167 -136h-385zM225 85h303l110 90l82 353l-67 87h-303l-111 -90l-81 -353z" />
    <glyph glyph-name="Oacute" unicode="&#xd3;" horiz-adv-x="831" 
d="M486 755l4 14l77 121h95l-3 -13l-96 -122h-77zM172 0l-115 149l96 415l168 136h385l114 -149l-96 -415l-167 -136h-385zM225 85h303l110 90l82 353l-67 87h-303l-111 -90l-81 -353z" />
    <glyph glyph-name="Ocircumflex" unicode="&#xd4;" horiz-adv-x="831" 
d="M350 755l6 24l145 106h94l95 -104l-6 -26h-77l-59 70h-11l-91 -70h-96zM172 0l-115 149l96 415l168 136h385l114 -149l-96 -415l-167 -136h-385zM225 85h303l110 90l82 353l-67 87h-303l-111 -90l-81 -353z" />
    <glyph glyph-name="Otilde" unicode="&#xd5;" horiz-adv-x="831" 
d="M349 755l16 69l63 51h102l47 -55h52l19 15l9 40h75l-16 -69l-63 -51h-112l-47 55h-42l-18 -15l-10 -40h-75zM172 0l-115 149l96 415l168 136h385l114 -149l-96 -415l-167 -136h-385zM225 85h303l110 90l82 353l-67 87h-303l-111 -90l-81 -353z" />
    <glyph glyph-name="Odieresis" unicode="&#xd6;" horiz-adv-x="831" 
d="M382 770l23 100h100l-23 -100h-100zM577 770l23 100h100l-23 -100h-100zM172 0l-115 149l96 415l168 136h385l114 -149l-96 -415l-167 -136h-385zM225 85h303l110 90l82 353l-67 87h-303l-111 -90l-81 -353z" />
    <glyph glyph-name="multiply" unicode="&#xd7;" horiz-adv-x="580" 
d="M130 115l-54 54l179 180l-179 180l54 54l180 -179l180 180l54 -55l-179 -180l179 -180l-54 -54l-180 179z" />
    <glyph glyph-name="Oslash" unicode="&#xd8;" horiz-adv-x="837" 
d="M852 662l-68 -60l39 -51l-96 -415l-167 -136h-385l-31 41l-70 -61l-43 57l69 60l-40 52l96 415l168 136h385l31 -41l68 60zM242 525l-81 -353l10 -13l499 438l-14 18h-303zM641 175l82 353l-10 13l-498 -439l13 -17h303z" />
    <glyph glyph-name="Ugrave" unicode="&#xd9;" horiz-adv-x="786" 
d="M471 755l-42 130l1 5h92l23 -130l-1 -5h-73zM182 0l-115 149l128 551h95l-122 -528l67 -87h238l110 90l122 525h95l-131 -564l-167 -136h-320z" />
    <glyph glyph-name="Uacute" unicode="&#xda;" horiz-adv-x="786" 
d="M471 755l4 14l77 121h95l-3 -13l-96 -122h-77zM182 0l-115 149l128 551h95l-122 -528l67 -87h238l110 90l122 525h95l-131 -564l-167 -136h-320z" />
    <glyph glyph-name="Ucircumflex" unicode="&#xdb;" horiz-adv-x="786" 
d="M335 755l6 24l145 106h94l95 -104l-6 -26h-77l-59 70h-11l-91 -70h-96zM182 0l-115 149l128 551h95l-122 -528l67 -87h238l110 90l122 525h95l-131 -564l-167 -136h-320z" />
    <glyph glyph-name="Udieresis" unicode="&#xdc;" horiz-adv-x="786" 
d="M367 770l23 100h100l-23 -100h-100zM562 770l23 100h100l-23 -100h-100zM182 0l-115 149l128 551h95l-122 -528l67 -87h238l110 90l122 525h95l-131 -564l-167 -136h-320z" />
    <glyph glyph-name="Yacute" unicode="&#xdd;" horiz-adv-x="710" 
d="M422 755l4 14l77 121h95l-3 -13l-96 -122h-77zM245 0l57 245l-191 420l8 35h83l156 -345h22l315 345h94l-8 -35l-384 -420l-57 -245h-95z" />
    <glyph glyph-name="Thorn" unicode="&#xde;" horiz-adv-x="780" 
d="M42 0l162 700h95l-28 -120h386l107 -139l-42 -180l-155 -126h-399l-31 -135h-95zM188 220h350l98 80l28 118l-60 77h-353z" />
    <glyph glyph-name="germandbls" unicode="&#xdf;" horiz-adv-x="620" 
d="M22 0l136 589l137 111h220l91 -119l-32 -140l-65 -52l71 -93l-42 -185l-137 -111h-204l20 85h160l80 65l28 123l-48 62h-128l20 85h95l68 55l19 83l-44 57h-148l-80 -65l-127 -550h-90z" />
    <glyph glyph-name="agrave" unicode="&#xe0;" horiz-adv-x="595" 
d="M347 560l-52 171l1 4h97l18 -171l-1 -4h-63zM86 0l-72 94l30 130l112 91h294l12 53l-36 47h-273l19 85h301l84 -109l-90 -391h-70l12 50h-14l-74 -50h-235zM134 85h178l101 69l17 76h-250l-55 -45l-16 -68z" />
    <glyph glyph-name="aacute" unicode="&#xe1;" horiz-adv-x="595" 
d="M344 560l5 15l95 160h96l-4 -15l-123 -160h-69zM86 0l-72 94l30 130l112 91h294l12 53l-36 47h-273l19 85h301l84 -109l-90 -391h-70l12 50h-14l-74 -50h-235zM134 85h178l101 69l17 76h-250l-55 -45l-16 -68z" />
    <glyph glyph-name="acircumflex" unicode="&#xe2;" horiz-adv-x="595" 
d="M205 560l6 24l155 146h94l85 -144l-6 -26h-72l-57 105h-11l-107 -105h-87zM86 0l-72 94l30 130l112 91h294l12 53l-36 47h-273l19 85h301l84 -109l-90 -391h-70l12 50h-14l-74 -50h-235zM134 85h178l101 69l17 76h-250l-55 -45l-16 -68z" />
    <glyph glyph-name="atilde" unicode="&#xe3;" horiz-adv-x="595" 
d="M199 565l23 99l63 51h112l51 -85h40l20 16l16 69h75l-23 -99l-63 -51h-112l-51 85h-40l-19 -16l-17 -69h-75zM86 0l-72 94l30 130l112 91h294l12 53l-36 47h-273l19 85h301l84 -109l-90 -391h-70l12 50h-14l-74 -50h-235zM134 85h178l101 69l17 76h-250l-55 -45l-16 -68z
" />
    <glyph glyph-name="adieresis" unicode="&#xe4;" horiz-adv-x="595" 
d="M243 600l23 100h100l-23 -100h-100zM438 600l23 100h100l-23 -100h-100zM86 0l-72 94l30 130l112 91h294l12 53l-36 47h-273l19 85h301l84 -109l-90 -391h-70l12 50h-14l-74 -50h-235zM134 85h178l101 69l17 76h-250l-55 -45l-16 -68z" />
    <glyph glyph-name="aring" unicode="&#xe5;" horiz-adv-x="595" 
d="M316 550l-50 66l27 115l61 49h126l49 -66l-27 -115l-61 -49h-125zM346 610h74l24 20l17 74l-12 16h-74l-24 -20l-17 -74zM86 0l-72 94l30 130l112 91h294l12 53l-36 47h-273l19 85h301l84 -109l-90 -391h-70l12 50h-14l-74 -50h-235zM134 85h178l101 69l17 76h-250
l-55 -45l-16 -68z" />
    <glyph glyph-name="ae" unicode="&#xe6;" horiz-adv-x="935" 
d="M86 0l-72 94l30 130l112 91h274l10 43l-44 57h-248l19 85h271l56 -72l89 72h230l96 -124l-40 -171h-375l-13 -58l48 -62h273l-20 -85h-300l-61 80l-119 -80h-216zM514 290h285l14 63l-47 62h-163l-74 -60zM134 85h161l97 65l18 80h-230l-55 -45l-16 -68z" />
    <glyph glyph-name="ccedilla" unicode="&#xe7;" horiz-adv-x="550" 
d="M258 415l-80 -65l-47 -203l48 -62h283l-20 -85h-146l-16 -27l-2 -8h35l42 -55l-15 -64l-56 -46h-154l14 60h121l11 9l5 24l-9 12h-88l7 30l35 65h-95l-95 124l61 265l136 111h324l-19 -85h-280z" />
    <glyph glyph-name="egrave" unicode="&#xe8;" horiz-adv-x="615" 
d="M343 560l-52 171l1 4h97l18 -171l-1 -4h-63zM131 0l-95 124l61 265l136 111h260l96 -124l-41 -176h-405l-12 -53l48 -62h308l-20 -85h-336zM163 285h315l15 68l-47 62h-188l-80 -65z" />
    <glyph glyph-name="eacute" unicode="&#xe9;" horiz-adv-x="615" 
d="M340 560l5 15l95 160h96l-4 -15l-123 -160h-69zM131 0l-95 124l61 265l136 111h260l96 -124l-41 -176h-405l-12 -53l48 -62h308l-20 -85h-336zM163 285h315l15 68l-47 62h-188l-80 -65z" />
    <glyph glyph-name="ecircumflex" unicode="&#xea;" horiz-adv-x="615" 
d="M201 560l6 24l155 146h94l85 -144l-6 -26h-72l-57 105h-11l-107 -105h-87zM131 0l-95 124l61 265l136 111h260l96 -124l-41 -176h-405l-12 -53l48 -62h308l-20 -85h-336zM163 285h315l15 68l-47 62h-188l-80 -65z" />
    <glyph glyph-name="edieresis" unicode="&#xeb;" horiz-adv-x="615" 
d="M239 600l23 100h100l-23 -100h-100zM434 600l23 100h100l-23 -100h-100zM131 0l-95 124l61 265l136 111h260l96 -124l-41 -176h-405l-12 -53l48 -62h308l-20 -85h-336zM163 285h315l15 68l-47 62h-188l-80 -65z" />
    <glyph glyph-name="igrave" unicode="&#xec;" horiz-adv-x="241" 
d="M158 560l-52 171l1 4h97l18 -171l-1 -4h-63zM18 0l115 500h90l-115 -500h-90z" />
    <glyph glyph-name="iacute" unicode="&#xed;" horiz-adv-x="241" 
d="M155 560l5 15l95 160h96l-4 -15l-123 -160h-69zM18 0l115 500h90l-115 -500h-90z" />
    <glyph glyph-name="icircumflex" unicode="&#xee;" horiz-adv-x="241" 
d="M16 560l6 24l155 146h94l85 -144l-6 -26h-72l-57 105h-11l-107 -105h-87zM18 0l115 500h90l-115 -500h-90z" />
    <glyph glyph-name="idieresis" unicode="&#xef;" horiz-adv-x="241" 
d="M74 600l23 100h100l-23 -100h-100zM229 600l23 100h100l-23 -100h-100zM18 0l115 500h90l-115 -500h-90z" />
    <glyph glyph-name="eth" unicode="&#xf0;" horiz-adv-x="610" 
d="M574 596l-120 -32l130 -231l-51 -222l-137 -111h-275l-95 124l52 225l136 111h182l3 12l-39 68l-166 -44h-12l18 77l123 32l-40 72l6 23h89l39 -70l163 43h12zM452 150l37 162l-36 63h-214l-80 -65l-38 -163l48 -62h203z" />
    <glyph glyph-name="ntilde" unicode="&#xf1;" horiz-adv-x="621" 
d="M197 565l23 99l63 51h112l51 -85h40l20 16l16 69h75l-23 -99l-63 -51h-112l-51 85h-40l-19 -16l-17 -69h-75zM18 0l115 500h70l-9 -40h13l58 40h229l88 -114l-89 -386h-90l84 363l-40 52h-172l-85 -59l-82 -356h-90z" />
    <glyph glyph-name="ograve" unicode="&#xf2;" horiz-adv-x="635" 
d="M349 560l-52 171l1 4h97l18 -171l-1 -4h-63zM131 0l-95 124l61 265l136 111h270l96 -124l-61 -265l-137 -111h-270zM179 85h198l80 65l46 203l-47 62h-198l-80 -65l-47 -203z" />
    <glyph glyph-name="oacute" unicode="&#xf3;" horiz-adv-x="635" 
d="M346 560l5 15l95 160h96l-4 -15l-123 -160h-69zM131 0l-95 124l61 265l136 111h270l96 -124l-61 -265l-137 -111h-270zM179 85h198l80 65l46 203l-47 62h-198l-80 -65l-47 -203z" />
    <glyph glyph-name="ocircumflex" unicode="&#xf4;" horiz-adv-x="635" 
d="M207 560l6 24l155 146h94l85 -144l-6 -26h-72l-57 105h-11l-107 -105h-87zM131 0l-95 124l61 265l136 111h270l96 -124l-61 -265l-137 -111h-270zM179 85h198l80 65l46 203l-47 62h-198l-80 -65l-47 -203z" />
    <glyph glyph-name="otilde" unicode="&#xf5;" horiz-adv-x="635" 
d="M201 565l23 99l63 51h112l51 -85h40l20 16l16 69h75l-23 -99l-63 -51h-112l-51 85h-40l-19 -16l-17 -69h-75zM131 0l-95 124l61 265l136 111h270l96 -124l-61 -265l-137 -111h-270zM179 85h198l80 65l46 203l-47 62h-198l-80 -65l-47 -203z" />
    <glyph glyph-name="odieresis" unicode="&#xf6;" horiz-adv-x="635" 
d="M245 600l23 100h100l-23 -100h-100zM440 600l23 100h100l-23 -100h-100zM131 0l-95 124l61 265l136 111h270l96 -124l-61 -265l-137 -111h-270zM179 85h198l80 65l46 203l-47 62h-198l-80 -65l-47 -203z" />
    <glyph glyph-name="divide" unicode="&#xf7;" horiz-adv-x="580" 
d="M260 495v105h100v-105h-100zM65 310v80h490v-80h-490zM260 100v105h100v-105h-100z" />
    <glyph glyph-name="oslash" unicode="&#xf8;" horiz-adv-x="636" 
d="M627 462l-57 -48l30 -38l-61 -265l-137 -111h-270l-23 29l-57 -47l-43 56l57 48l-29 38l61 265l136 111h270l23 -30l58 48zM179 350l-47 -203l3 -4l323 270l-1 2h-198zM458 150l46 203l-3 3l-323 -269l2 -2h198z" />
    <glyph glyph-name="ugrave" unicode="&#xf9;" horiz-adv-x="611" 
d="M343 560l-52 171l1 4h97l18 -171l-1 -4h-63zM132 0l-88 114l89 386h90l-83 -363l40 -52h157l84 59l82 356h90l-115 -500h-70l9 40h-13l-58 -40h-214z" />
    <glyph glyph-name="uacute" unicode="&#xfa;" horiz-adv-x="611" 
d="M340 560l5 15l95 160h96l-4 -15l-123 -160h-69zM132 0l-88 114l89 386h90l-83 -363l40 -52h157l84 59l82 356h90l-115 -500h-70l9 40h-13l-58 -40h-214z" />
    <glyph glyph-name="ucircumflex" unicode="&#xfb;" horiz-adv-x="611" 
d="M201 560l6 24l155 146h94l85 -144l-6 -26h-72l-57 105h-11l-107 -105h-87zM132 0l-88 114l89 386h90l-83 -363l40 -52h157l84 59l82 356h90l-115 -500h-70l9 40h-13l-58 -40h-214z" />
    <glyph glyph-name="udieresis" unicode="&#xfc;" horiz-adv-x="611" 
d="M239 600l23 100h100l-23 -100h-100zM434 600l23 100h100l-23 -100h-100zM132 0l-88 114l89 386h90l-83 -363l40 -52h157l84 59l82 356h90l-115 -500h-70l9 40h-13l-58 -40h-214z" />
    <glyph glyph-name="yacute" unicode="&#xfd;" horiz-adv-x="611" 
d="M340 560l5 15l95 160h96l-4 -15l-123 -160h-69zM-3 -200l19 85h310l44 35l24 105h-12l-36 -25h-214l-88 114l89 386h90l-83 -363l40 -52h157l84 59l82 356h90l-142 -619l-100 -81h-354z" />
    <glyph glyph-name="thorn" unicode="&#xfe;" horiz-adv-x="630" 
d="M-24 -200l208 900h90l-56 -240h8l57 40h215l96 -124l-61 -265l-137 -111h-284l-46 -200h-90zM132 85h240l80 65l46 203l-47 62h-158l-101 -70z" />
    <glyph glyph-name="ydieresis" unicode="&#xff;" horiz-adv-x="611" 
d="M239 600l23 100h100l-23 -100h-100zM434 600l23 100h100l-23 -100h-100zM-3 -200l19 85h310l44 35l24 105h-12l-36 -25h-214l-88 114l89 386h90l-83 -363l40 -52h157l84 59l82 356h90l-142 -619l-100 -81h-354z" />
    <glyph glyph-name="Amacron" unicode="&#x100;" horiz-adv-x="770" 
d="M686 858l-17 -75h-305l17 75h305zM569 700l136 -665l-8 -35h-83l-37 190h-381l-125 -190h-94l8 35l439 665h145zM252 275h308l-67 340h-18z" />
    <glyph glyph-name="amacron" unicode="&#x101;" horiz-adv-x="595" 
d="M241 613l17 75h305l-17 -75h-305zM86 0l-72 94l30 130l112 91h294l12 53l-36 47h-273l19 85h301l84 -109l-90 -391h-70l12 50h-14l-74 -50h-235zM134 85h178l101 69l17 76h-250l-55 -45l-16 -68z" />
    <glyph glyph-name="Abreve" unicode="&#x102;" horiz-adv-x="770" 
d="M613 755h-205l-48 63l15 67h75l-11 -48l13 -17h133l25 20l10 45h75l-18 -78zM569 700l136 -665l-8 -35h-83l-37 190h-381l-125 -190h-94l8 35l439 665h145zM252 275h308l-67 340h-18z" />
    <glyph glyph-name="abreve" unicode="&#x103;" horiz-adv-x="595" 
d="M281 560l-48 63l22 97h75l-18 -78l13 -17h128l25 20l17 75h75l-25 -108l-64 -52h-200zM86 0l-72 94l30 130l112 91h294l12 53l-36 47h-273l19 85h301l84 -109l-90 -391h-70l12 50h-14l-74 -50h-235zM134 85h178l101 69l17 76h-250l-55 -45l-16 -68z" />
    <glyph glyph-name="Aogonek" unicode="&#x104;" horiz-adv-x="770" 
d="M697 0l-111 -78l-10 -43l6 -9h77l-16 -70h-101l-42 54l22 96l90 61l-35 179h-381l-125 -190h-94l8 35l439 665h145l136 -665zM252 275h308l-67 340h-18z" />
    <glyph glyph-name="aogonek" unicode="&#x105;" horiz-adv-x="595" 
d="M467 0l-111 -78l-10 -43l6 -9h77l-16 -70h-101l-42 54l22 96l111 76l6 24h-14l-74 -50h-235l-72 94l30 130l112 91h294l12 53l-36 47h-273l19 85h301l84 -109zM312 85l101 69l17 76h-250l-55 -45l-16 -68l25 -32h178z" />
    <glyph glyph-name="Cacute" unicode="&#x106;" horiz-adv-x="711" 
d="M503 755l4 14l77 121h95l-3 -13l-96 -122h-77zM172 0l-115 149l96 415l168 136h444l-20 -85h-395l-111 -90l-81 -353l67 -87h398l-20 -85h-431z" />
    <glyph glyph-name="cacute" unicode="&#x107;" horiz-adv-x="550" 
d="M357 560l5 15l95 160h96l-4 -15l-123 -160h-69zM131 0l-95 124l61 265l136 111h324l-19 -85h-280l-80 -65l-47 -203l48 -62h283l-20 -85h-311z" />
    <glyph glyph-name="Ccircumflex" unicode="&#x108;" horiz-adv-x="711" 
d="M367 755l6 24l145 106h94l95 -104l-6 -26h-77l-59 70h-11l-91 -70h-96zM172 0l-115 149l96 415l168 136h444l-20 -85h-395l-111 -90l-81 -353l67 -87h398l-20 -85h-431z" />
    <glyph glyph-name="ccircumflex" unicode="&#x109;" horiz-adv-x="550" 
d="M218 560l6 24l155 146h94l85 -144l-6 -26h-72l-57 105h-11l-107 -105h-87zM131 0l-95 124l61 265l136 111h324l-19 -85h-280l-80 -65l-47 -203l48 -62h283l-20 -85h-311z" />
    <glyph glyph-name="Cdotaccent" unicode="&#x10a;" horiz-adv-x="711" 
d="M496 770l23 100h100l-23 -100h-100zM172 0l-115 149l96 415l168 136h444l-20 -85h-395l-111 -90l-81 -353l67 -87h398l-20 -85h-431z" />
    <glyph glyph-name="cdotaccent" unicode="&#x10b;" horiz-adv-x="550" 
d="M353 600l23 100h100l-23 -100h-100zM131 0l-95 124l61 265l136 111h324l-19 -85h-280l-80 -65l-47 -203l48 -62h283l-20 -85h-311z" />
    <glyph glyph-name="Ccaron" unicode="&#x10c;" horiz-adv-x="711" 
d="M495 755l-96 106l5 24h78l59 -70h11l91 70h95l-6 -26l-143 -104h-94zM172 0l-115 149l96 415l168 136h444l-20 -85h-395l-111 -90l-81 -353l67 -87h398l-20 -85h-431z" />
    <glyph glyph-name="ccaron" unicode="&#x10d;" horiz-adv-x="550" 
d="M347 560l-85 144l6 26h71l57 -105h11l107 105h88l-6 -24l-155 -146h-94zM131 0l-95 124l61 265l136 111h324l-19 -85h-280l-80 -65l-47 -203l48 -62h283l-20 -85h-311z" />
    <glyph glyph-name="Dcaron" unicode="&#x10e;" horiz-adv-x="815" 
d="M469 755l-96 106l5 24h78l59 -70h11l91 70h95l-6 -26l-143 -104h-94zM42 0l162 700h486l114 -149l-96 -415l-167 -136h-499zM157 85h355l110 90l82 353l-67 87h-358z" />
    <glyph glyph-name="dcaron" unicode="&#x10f;" horiz-adv-x="630" 
d="M677 550l4 19l45 161h92l-4 -15l-74 -165h-63zM131 0l-95 124l61 265l136 111h284l47 200h90l-162 -700h-70l12 50h-16l-72 -50h-215zM179 85h158l101 70l60 260h-240l-80 -65l-47 -203z" />
    <glyph glyph-name="Dcroat" unicode="&#x110;" horiz-adv-x="840" 
d="M715 700l114 -149l-96 -415l-167 -136h-499l72 310h-100l18 80h100l72 310h486zM647 175l82 353l-67 87h-358l-52 -225h250l-18 -80h-250l-52 -225h355z" />
    <glyph glyph-name="dcroat" unicode="&#x111;" horiz-adv-x="646" 
d="M132 0l-95 124l57 250l137 111h284l16 70h-220l17 75h220l17 70h90l-17 -70h85l-17 -75h-85l-128 -555h-70l12 50h-16l-72 -50h-215zM180 85h158l101 70l56 245h-240l-80 -65l-43 -188z" />
    <glyph glyph-name="Emacron" unicode="&#x112;" horiz-adv-x="730" 
d="M361 783l17 75h305l-17 -75h-305zM42 0l162 700h580l-20 -85h-485l-51 -220h375l-19 -85h-375l-52 -225h495l-20 -85h-590z" />
    <glyph glyph-name="emacron" unicode="&#x113;" horiz-adv-x="615" 
d="M237 613l17 75h305l-17 -75h-305zM131 0l-95 124l61 265l136 111h260l96 -124l-41 -176h-405l-12 -53l48 -62h308l-20 -85h-336zM163 285h315l15 68l-47 62h-188l-80 -65z" />
    <glyph glyph-name="Ebreve" unicode="&#x114;" horiz-adv-x="730" 
d="M405 755l-48 63l15 67h75l-11 -48l13 -17h133l25 20l10 45h75l-18 -78l-64 -52h-205zM42 0l162 700h580l-20 -85h-485l-51 -220h375l-19 -85h-375l-52 -225h495l-20 -85h-590z" />
    <glyph glyph-name="ebreve" unicode="&#x115;" horiz-adv-x="615" 
d="M277 560l-48 63l22 97h75l-18 -78l13 -17h128l25 20l17 75h75l-25 -108l-64 -52h-200zM131 0l-95 124l61 265l136 111h260l96 -124l-41 -176h-405l-12 -53l48 -62h308l-20 -85h-336zM163 285h315l15 68l-47 62h-188l-80 -65z" />
    <glyph glyph-name="Edotaccent" unicode="&#x116;" horiz-adv-x="730" 
d="M460 770l23 100h100l-23 -100h-100zM42 0l162 700h580l-20 -85h-485l-51 -220h375l-19 -85h-375l-52 -225h495l-20 -85h-590z" />
    <glyph glyph-name="edotaccent" unicode="&#x117;" horiz-adv-x="615" 
d="M336 600l23 100h100l-23 -100h-100zM131 0l-95 124l61 265l136 111h260l96 -124l-41 -176h-405l-12 -53l48 -62h308l-20 -85h-336zM163 285h315l15 68l-47 62h-188l-80 -65z" />
    <glyph glyph-name="Eogonek" unicode="&#x118;" horiz-adv-x="730" 
d="M764 615h-485l-51 -220h375l-19 -85h-375l-52 -225h495l-20 -85l-111 -78l-10 -43l6 -9h77l-16 -70h-101l-42 54l22 96l73 50h-488l162 700h580z" />
    <glyph glyph-name="eogonek" unicode="&#x119;" horiz-adv-x="615" 
d="M548 200h-405l-12 -53l48 -62h308l-20 -85l-111 -78l-10 -43l6 -9h77l-16 -70h-101l-42 54l22 96l73 50h-234l-95 124l61 265l136 111h260l96 -124zM178 350l-15 -65h315l15 68l-47 62h-188z" />
    <glyph glyph-name="Ecaron" unicode="&#x11a;" horiz-adv-x="730" 
d="M459 755l-96 106l5 24h78l59 -70h11l91 70h95l-6 -26l-143 -104h-94zM42 0l162 700h580l-20 -85h-485l-51 -220h375l-19 -85h-375l-52 -225h495l-20 -85h-590z" />
    <glyph glyph-name="ecaron" unicode="&#x11b;" horiz-adv-x="615" 
d="M330 560l-85 144l6 26h71l57 -105h11l107 105h88l-6 -24l-155 -146h-94zM131 0l-95 124l61 265l136 111h260l96 -124l-41 -176h-405l-12 -53l48 -62h308l-20 -85h-336zM163 285h315l15 68l-47 62h-188l-80 -65z" />
    <glyph glyph-name="Gcircumflex" unicode="&#x11c;" horiz-adv-x="815" 
d="M367 755l6 24l145 106h94l95 -104l-6 -26h-77l-59 70h-11l-91 -70h-96zM172 0l-115 149l96 415l168 136h479l-20 -85h-430l-111 -90l-81 -353l67 -87h303l110 90l33 140h-265l19 85h360l-61 -264l-167 -136h-385z" />
    <glyph glyph-name="gcircumflex" unicode="&#x11d;" horiz-adv-x="625" 
d="M230 560l6 24l155 146h94l85 -144l-6 -26h-72l-57 105h-11l-107 -105h-87zM-4 -200l19 85h325l44 35l26 115h-13l-51 -35h-215l-95 124l61 265l136 111h374l-142 -619l-100 -81h-369zM179 85h158l101 70l60 260h-240l-80 -65l-47 -203z" />
    <glyph glyph-name="Gbreve" unicode="&#x11e;" horiz-adv-x="815" 
d="M441 755l-48 63l15 67h75l-11 -48l13 -17h133l25 20l10 45h75l-18 -78l-64 -52h-205zM172 0l-115 149l96 415l168 136h479l-20 -85h-430l-111 -90l-81 -353l67 -87h303l110 90l33 140h-265l19 85h360l-61 -264l-167 -136h-385z" />
    <glyph glyph-name="gbreve" unicode="&#x11f;" horiz-adv-x="625" 
d="M306 560l-48 63l22 97h75l-18 -78l13 -17h128l25 20l17 75h75l-25 -108l-64 -52h-200zM-4 -200l19 85h325l44 35l26 115h-13l-51 -35h-215l-95 124l61 265l136 111h374l-142 -619l-100 -81h-369zM179 85h158l101 70l60 260h-240l-80 -65l-47 -203z" />
    <glyph glyph-name="Gdotaccent" unicode="&#x120;" horiz-adv-x="815" 
d="M496 770l23 100h100l-23 -100h-100zM172 0l-115 149l96 415l168 136h479l-20 -85h-430l-111 -90l-81 -353l67 -87h303l110 90l33 140h-265l19 85h360l-61 -264l-167 -136h-385z" />
    <glyph glyph-name="gdotaccent" unicode="&#x121;" horiz-adv-x="625" 
d="M365 600l23 100h100l-23 -100h-100zM-4 -200l19 85h325l44 35l26 115h-13l-51 -35h-215l-95 124l61 265l136 111h374l-142 -619l-100 -81h-369zM179 85h158l101 70l60 260h-240l-80 -65l-47 -203z" />
    <glyph glyph-name="uni0122" unicode="&#x122;" horiz-adv-x="815" 
d="M172 0l-115 149l96 415l168 136h479l-20 -85h-430l-111 -90l-81 -353l67 -87h303l110 90l33 140h-265l19 85h360l-61 -264l-167 -136h-385zM278 -245l39 100h-38l25 110h110l-23 -100l-66 -110h-47z" />
    <glyph glyph-name="uni0123" unicode="&#x123;" horiz-adv-x="625" 
d="M349 560l23 100l57 110h47l-33 -100h42l-26 -110h-110zM-4 -200l19 85h325l44 35l26 115h-13l-51 -35h-215l-95 124l61 265l136 111h374l-142 -619l-100 -81h-369zM179 85h158l101 70l60 260h-240l-80 -65l-47 -203z" />
    <glyph glyph-name="Hcircumflex" unicode="&#x124;" horiz-adv-x="825" 
d="M354 755l6 24l145 106h94l95 -104l-6 -26h-77l-59 70h-11l-91 -70h-96zM42 0l162 700h95l-71 -305h435l71 305h95l-162 -700h-95l72 310h-435l-72 -310h-95z" />
    <glyph glyph-name="hcircumflex" unicode="&#x125;" horiz-adv-x="625" 
d="M66 755l6 24l145 106h94l95 -104l-6 -26h-77l-59 70h-11l-91 -70h-96zM22 0l162 700h90l-54 -232h13l46 32h219l88 -114l-89 -386h-90l84 363l-40 52h-162l-97 -67l-80 -348h-90z" />
    <glyph glyph-name="Hbar" unicode="&#x126;" horiz-adv-x="856" 
d="M895 595l-18 -80h-75l-119 -515h-95l72 310h-435l-72 -310h-95l119 515h-75l18 80h76l24 105h95l-24 -105h435l24 105h95l-24 -105h74zM679 395l28 120h-435l-28 -120h435z" />
    <glyph glyph-name="hbar" unicode="&#x127;" horiz-adv-x="641" 
d="M38 0l128 555h-85l17 75h85l17 70h90l-17 -70h220l-17 -75h-220l-23 -102h13l46 32h219l88 -114l-86 -371h-90l80 348l-40 52h-162l-96 -67l-77 -333h-90z" />
    <glyph glyph-name="Imacron" unicode="&#x12a;" horiz-adv-x="496" 
d="M220 783l17 75h305l-17 -75h-305zM3 0l18 80h140l125 540h-140l19 80h375l-19 -80h-140l-125 -540h140l-18 -80h-375z" />
    <glyph glyph-name="imacron" unicode="&#x12b;" horiz-adv-x="241" 
d="M52 613l17 75h305l-17 -75h-305zM18 0l115 500h90l-115 -500h-90z" />
    <glyph glyph-name="Ibreve" unicode="&#x12c;" horiz-adv-x="496" 
d="M264 755l-48 63l15 67h75l-11 -48l13 -17h133l25 20l10 45h75l-18 -78l-64 -52h-205zM3 0l18 80h140l125 540h-140l19 80h375l-19 -80h-140l-125 -540h140l-18 -80h-375z" />
    <glyph glyph-name="ibreve" unicode="&#x12d;" horiz-adv-x="241" 
d="M92 560l-48 63l22 97h75l-18 -78l13 -17h128l25 20l17 75h75l-25 -108l-64 -52h-200zM18 0l115 500h90l-115 -500h-90z" />
    <glyph glyph-name="Iogonek" unicode="&#x12e;" horiz-adv-x="496" 
d="M521 620h-140l-125 -540h140l-18 -80h-140l-111 -78l-10 -43l6 -9h77l-16 -70h-101l-42 54l22 96l73 50h-133l18 80h140l125 540h-140l19 80h375z" />
    <glyph glyph-name="iogonek" unicode="&#x12f;" horiz-adv-x="241" 
d="M174 700h100l-23 -100h-100zM20 10l113 490h90l-115 -500l-111 -78l-10 -43l6 -9h77l-16 -70h-101l-42 54l22 96z" />
    <glyph glyph-name="Idotaccent" unicode="&#x130;" horiz-adv-x="496" 
d="M319 770l23 100h100l-23 -100h-100zM3 0l18 80h140l125 540h-140l19 80h375l-19 -80h-140l-125 -540h140l-18 -80h-375z" />
    <glyph glyph-name="dotlessi" unicode="&#x131;" horiz-adv-x="241" 
d="M18 0l115 500h90l-115 -500h-90z" />
    <glyph glyph-name="IJ" unicode="&#x132;" horiz-adv-x="1051" 
d="M3 0l18 80h140l125 540h-140l19 80h375l-19 -80h-140l-125 -540h140l-18 -80h-375zM468 0l20 85h265l92 75l105 455h-295l20 85h390l-134 -579l-149 -121h-314z" />
    <glyph glyph-name="ij" unicode="&#x133;" horiz-adv-x="481" 
d="M151 600l23 100h100l-23 -100h-100zM391 600l23 100h100l-23 -100h-100zM-28 -200l19 85h225l19 15l138 600h90l-147 -639l-75 -61h-269zM18 0l115 500h90l-115 -500h-90z" />
    <glyph glyph-name="Jcircumflex" unicode="&#x134;" horiz-adv-x="555" 
d="M212 755l6 24l145 106h94l95 -104l-6 -26h-77l-59 70h-11l-91 -70h-96zM-28 0l20 85h265l92 75l105 455h-295l20 85h390l-134 -579l-149 -121h-314z" />
    <glyph glyph-name="jcircumflex" unicode="&#x135;" horiz-adv-x="241" 
d="M16 560l6 24l155 146h94l85 -144l-6 -26h-72l-57 105h-11l-107 -105h-87zM-183 -200l19 85h140l19 15l138 600h90l-147 -639l-75 -61h-184z" />
    <glyph glyph-name="uni0136" unicode="&#x136;" horiz-adv-x="735" 
d="M42 0l162 700h95l-71 -305h178l290 305h93l-8 -35l-297 -310l171 -320l-8 -35h-82l-164 310h-192l-72 -310h-95zM256 -245l39 100h-38l25 110h110l-23 -100l-66 -110h-47z" />
    <glyph glyph-name="uni0137" unicode="&#x137;" horiz-adv-x="574" 
d="M22 0l162 700h90l-93 -400h128l188 200h89l-6 -30l-198 -210l116 -230l-7 -30h-80l-107 215h-142l-50 -215h-90zM172 -245l39 100h-38l25 110h110l-23 -100l-66 -110h-47z" />
    <glyph glyph-name="Lacute" unicode="&#x139;" horiz-adv-x="630" 
d="M227 755l4 14l77 121h95l-3 -13l-96 -122h-77zM42 0l162 700h95l-142 -615h415l-20 -85h-510z" />
    <glyph glyph-name="lacute" unicode="&#x13a;" horiz-adv-x="265" 
d="M167 755l4 14l77 121h95l-3 -13l-96 -122h-77zM37 0l142 615h-100l20 85h190l-162 -700h-90z" />
    <glyph glyph-name="uni013B" unicode="&#x13b;" horiz-adv-x="630" 
d="M42 0l162 700h95l-142 -615h415l-20 -85h-510zM208 -245l39 100h-38l25 110h110l-23 -100l-66 -110h-47z" />
    <glyph glyph-name="uni013C" unicode="&#x13c;" horiz-adv-x="265" 
d="M37 0l142 615h-100l20 85h190l-162 -700h-90zM-7 -245l39 100h-38l25 110h110l-23 -100l-66 -110h-47z" />
    <glyph glyph-name="Lcaron" unicode="&#x13d;" horiz-adv-x="630" 
d="M322 550l4 19l45 161h92l-4 -15l-74 -165h-63zM42 0l162 700h95l-142 -615h415l-20 -85h-510z" />
    <glyph glyph-name="lcaron" unicode="&#x13e;" horiz-adv-x="265" 
d="M312 550l4 19l45 161h92l-4 -15l-74 -165h-63zM37 0l142 615h-100l20 85h190l-162 -700h-90z" />
    <glyph glyph-name="Ldot" unicode="&#x13f;" horiz-adv-x="630" 
d="M42 0l162 700h95l-142 -615h415l-20 -85h-510zM426 342l27 115h115l-27 -115h-115z" />
    <glyph glyph-name="ldot" unicode="&#x140;" horiz-adv-x="378" 
d="M37 0l142 615h-100l20 85h190l-162 -700h-90zM278 282l27 115h115l-27 -115h-115z" />
    <glyph glyph-name="Lslash" unicode="&#x141;" horiz-adv-x="650" 
d="M177 85h415l-20 -85h-510l61 262l-85 -42h-25l19 83l113 56l79 341h95l-67 -289l246 121h25l-19 -83l-274 -135z" />
    <glyph glyph-name="lslash" unicode="&#x142;" horiz-adv-x="295" 
d="M359 486l-18 -79l-127 -74l-77 -333h-90l63 272l-96 -56h-27l18 79l127 74l57 246h-100l20 85h190l-62 -270l95 56h27z" />
    <glyph glyph-name="Nacute" unicode="&#x143;" horiz-adv-x="825" 
d="M487 755l4 14l77 121h95l-3 -13l-96 -122h-77zM42 0l162 700h164l203 -610h25l141 610h92l-162 -700h-164l-203 610h-25l-141 -610h-92z" />
    <glyph glyph-name="nacute" unicode="&#x144;" horiz-adv-x="621" 
d="M342 560l5 15l95 160h96l-4 -15l-123 -160h-69zM18 0l115 500h70l-9 -40h13l58 40h229l88 -114l-89 -386h-90l84 363l-40 52h-172l-85 -59l-82 -356h-90z" />
    <glyph glyph-name="uni0145" unicode="&#x145;" horiz-adv-x="825" 
d="M42 0l162 700h164l203 -610h25l141 610h92l-162 -700h-164l-203 610h-25l-141 -610h-92zM270 -245l39 100h-38l25 110h110l-23 -100l-66 -110h-47z" />
    <glyph glyph-name="uni0146" unicode="&#x146;" horiz-adv-x="621" 
d="M18 0l115 500h70l-9 -40h13l58 40h229l88 -114l-89 -386h-90l84 363l-40 52h-172l-85 -59l-82 -356h-90zM167 -245l39 100h-38l25 110h110l-23 -100l-66 -110h-47z" />
    <glyph glyph-name="Ncaron" unicode="&#x147;" horiz-adv-x="825" 
d="M479 755l-96 106l5 24h78l59 -70h11l91 70h95l-6 -26l-143 -104h-94zM42 0l162 700h164l203 -610h25l141 610h92l-162 -700h-164l-203 610h-25l-141 -610h-92z" />
    <glyph glyph-name="ncaron" unicode="&#x148;" horiz-adv-x="621" 
d="M332 560l-85 144l6 26h71l57 -105h11l107 105h88l-6 -24l-155 -146h-94zM18 0l115 500h70l-9 -40h13l58 40h229l88 -114l-89 -386h-90l84 363l-40 52h-172l-85 -59l-82 -356h-90z" />
    <glyph glyph-name="Eng" unicode="&#x14a;" horiz-adv-x="825" 
d="M276 -200l19 85h210l50 40l17 75h-69l-203 610h-25l-141 -610h-92l162 700h164l203 -610h25l141 610h92l-188 -814l-106 -86h-259z" />
    <glyph glyph-name="eng" unicode="&#x14b;" horiz-adv-x="621" 
d="M582 386l-84 -366l-37 -159l-75 -61h-199l19 85h155l19 15l23 100l84 363l-40 52h-172l-85 -59l-82 -356h-90l115 500h70l-9 -40h13l58 40h229z" />
    <glyph glyph-name="Omacron" unicode="&#x14c;" horiz-adv-x="831" 
d="M380 783l17 75h305l-17 -75h-305zM172 0l-115 149l96 415l168 136h385l114 -149l-96 -415l-167 -136h-385zM225 85h303l110 90l82 353l-67 87h-303l-111 -90l-81 -353z" />
    <glyph glyph-name="omacron" unicode="&#x14d;" horiz-adv-x="635" 
d="M243 613l17 75h305l-17 -75h-305zM131 0l-95 124l61 265l136 111h270l96 -124l-61 -265l-137 -111h-270zM179 85h198l80 65l46 203l-47 62h-198l-80 -65l-47 -203z" />
    <glyph glyph-name="Obreve" unicode="&#x14e;" horiz-adv-x="831" 
d="M424 755l-48 63l15 67h75l-11 -48l13 -17h133l25 20l10 45h75l-18 -78l-64 -52h-205zM172 0l-115 149l96 415l168 136h385l114 -149l-96 -415l-167 -136h-385zM225 85h303l110 90l82 353l-67 87h-303l-111 -90l-81 -353z" />
    <glyph glyph-name="obreve" unicode="&#x14f;" horiz-adv-x="635" 
d="M283 560l-48 63l22 97h75l-18 -78l13 -17h128l25 20l17 75h75l-25 -108l-64 -52h-200zM131 0l-95 124l61 265l136 111h270l96 -124l-61 -265l-137 -111h-270zM179 85h198l80 65l46 203l-47 62h-198l-80 -65l-47 -203z" />
    <glyph glyph-name="Ohungarumlaut" unicode="&#x150;" horiz-adv-x="831" 
d="M411 755l5 16l66 119h90l-3 -13l-86 -122h-72zM566 755l5 16l66 119h91l-3 -12l-86 -123h-73zM172 0l-115 149l96 415l168 136h385l114 -149l-96 -415l-167 -136h-385zM225 85h303l110 90l82 353l-67 87h-303l-111 -90l-81 -353z" />
    <glyph glyph-name="ohungarumlaut" unicode="&#x151;" horiz-adv-x="635" 
d="M265 560l4 14l82 161h95l-4 -13l-110 -162h-67zM420 560l4 14l92 161h96l-4 -14l-121 -161h-67zM131 0l-95 124l61 265l136 111h270l96 -124l-61 -265l-137 -111h-270zM179 85h198l80 65l46 203l-47 62h-198l-80 -65l-47 -203z" />
    <glyph glyph-name="OE" unicode="&#x152;" horiz-adv-x="1191" 
d="M172 0l-115 149l96 415l168 136h924l-20 -85h-460l-51 -220h335l-19 -85h-335l-52 -225h470l-20 -85h-921zM225 85h323l122 530h-320l-111 -90l-81 -353z" />
    <glyph glyph-name="oe" unicode="&#x153;" horiz-adv-x="980" 
d="M131 0l-95 124l61 265l136 111h250l56 -73l89 73h230l96 -124l-41 -176h-375l-12 -53l48 -62h273l-20 -85h-301l-56 72l-89 -72h-250zM179 85h178l80 65l46 203l-47 62h-178l-80 -65l-47 -203zM558 285h285l15 68l-47 62h-158l-80 -65z" />
    <glyph glyph-name="Racute" unicode="&#x154;" horiz-adv-x="788" 
d="M464 755l4 14l77 121h95l-3 -13l-96 -122h-77zM42 0l162 700h466l107 -139l-43 -185l-158 -128l102 -213l-8 -35h-84l-117 250h-274l-58 -250h-95zM214 335h335l99 80l28 123l-59 77h-338z" />
    <glyph glyph-name="racute" unicode="&#x155;" horiz-adv-x="406" 
d="M277 560l5 15l95 160h96l-4 -15l-123 -160h-69zM18 0l115 500h70l-9 -40h13l58 40h203l-19 -85h-174l-85 -59l-82 -356h-90z" />
    <glyph glyph-name="uni0156" unicode="&#x156;" horiz-adv-x="788" 
d="M42 0l162 700h466l107 -139l-43 -185l-158 -128l102 -213l-8 -35h-84l-117 250h-274l-58 -250h-95zM214 335h335l99 80l28 123l-59 77h-338zM268 -245l39 100h-38l25 110h110l-23 -100l-66 -110h-47z" />
    <glyph glyph-name="uni0157" unicode="&#x157;" horiz-adv-x="406" 
d="M18 0l115 500h70l-9 -40h13l58 40h203l-19 -85h-174l-85 -59l-82 -356h-90zM-26 -245l39 100h-38l25 110h110l-23 -100l-66 -110h-47z" />
    <glyph glyph-name="Rcaron" unicode="&#x158;" horiz-adv-x="788" 
d="M456 755l-96 106l5 24h78l59 -70h11l91 70h95l-6 -26l-143 -104h-94zM42 0l162 700h466l107 -139l-43 -185l-158 -128l102 -213l-8 -35h-84l-117 250h-274l-58 -250h-95zM214 335h335l99 80l28 123l-59 77h-338z" />
    <glyph glyph-name="rcaron" unicode="&#x159;" horiz-adv-x="406" 
d="M267 560l-85 144l6 26h71l57 -105h11l107 105h88l-6 -24l-155 -146h-94zM18 0l115 500h70l-9 -40h13l58 40h203l-19 -85h-174l-85 -59l-82 -356h-90z" />
    <glyph glyph-name="Sacute" unicode="&#x15a;" horiz-adv-x="720" 
d="M447 755l4 14l77 121h95l-3 -13l-96 -122h-77zM17 0l20 85h440l73 60l27 113l-44 57h-334l-92 119l37 160l131 106h464l-20 -85h-415l-74 -60l-22 -98l43 -57h334l92 -119l-41 -175l-130 -106h-489z" />
    <glyph glyph-name="sacute" unicode="&#x15b;" horiz-adv-x="565" 
d="M323 560l5 15l95 160h96l-4 -15l-123 -160h-69zM7 0l20 85h325l43 35l13 58l-25 32h-239l-72 94l27 115l99 81h349l-19 -85h-305l-43 -35l-13 -53l25 -32h239l72 -94l-27 -120l-100 -81h-369z" />
    <glyph glyph-name="Scircumflex" unicode="&#x15c;" horiz-adv-x="720" 
d="M311 755l6 24l145 106h94l95 -104l-6 -26h-77l-59 70h-11l-91 -70h-96zM17 0l20 85h440l73 60l27 113l-44 57h-334l-92 119l37 160l131 106h464l-20 -85h-415l-74 -60l-22 -98l43 -57h334l92 -119l-41 -175l-130 -106h-489z" />
    <glyph glyph-name="scircumflex" unicode="&#x15d;" horiz-adv-x="565" 
d="M184 560l6 24l155 146h94l85 -144l-6 -26h-72l-57 105h-11l-107 -105h-87zM7 0l20 85h325l43 35l13 58l-25 32h-239l-72 94l27 115l99 81h349l-19 -85h-305l-43 -35l-13 -53l25 -32h239l72 -94l-27 -120l-100 -81h-369z" />
    <glyph glyph-name="Scedilla" unicode="&#x15e;" horiz-adv-x="720" 
d="M304 615l-74 -60l-22 -98l43 -57h334l92 -119l-41 -175l-130 -106h-171l-16 -27l-2 -8h35l42 -55l-15 -64l-56 -46h-154l14 60h121l11 9l5 24l-9 12h-88l7 30l35 65h-248l20 85h440l73 60l27 113l-44 57h-334l-92 119l37 160l131 106h464l-20 -85h-415z" />
    <glyph glyph-name="scedilla" unicode="&#x15f;" horiz-adv-x="565" 
d="M223 415l-43 -35l-13 -53l25 -32h239l72 -94l-27 -120l-100 -81h-120l-16 -27l-2 -8h35l42 -55l-15 -64l-56 -46h-154l14 60h121l11 9l5 24l-9 12h-88l7 30l35 65h-179l20 85h325l43 35l13 58l-25 32h-239l-72 94l27 115l99 81h349l-19 -85h-305z" />
    <glyph glyph-name="Scaron" unicode="&#x160;" horiz-adv-x="720" 
d="M439 755l-96 106l5 24h78l59 -70h11l91 70h95l-6 -26l-143 -104h-94zM17 0l20 85h440l73 60l27 113l-44 57h-334l-92 119l37 160l131 106h464l-20 -85h-415l-74 -60l-22 -98l43 -57h334l92 -119l-41 -175l-130 -106h-489z" />
    <glyph glyph-name="scaron" unicode="&#x161;" horiz-adv-x="565" 
d="M313 560l-85 144l6 26h71l57 -105h11l107 105h88l-6 -24l-155 -146h-94zM7 0l20 85h325l43 35l13 58l-25 32h-239l-72 94l27 115l99 81h349l-19 -85h-305l-43 -35l-13 -53l25 -32h239l72 -94l-27 -120l-100 -81h-369z" />
    <glyph glyph-name="uni0162" unicode="&#x162;" horiz-adv-x="665" 
d="M104 700h645l-20 -85h-275l-142 -615h-11l-16 -27l-2 -8h35l42 -55l-15 -64l-56 -46h-154l14 60h121l11 9l5 24l-9 12h-88l7 30l35 65h-14l142 615h-275z" />
    <glyph glyph-name="uni0163" unicode="&#x163;" horiz-adv-x="416" 
d="M419 415h-180l-73 -317l11 -13h171l-20 -85h-93l-16 -27l-2 -8h35l42 -55l-15 -64l-56 -46h-154l14 60h121l11 9l5 24l-9 12h-88l7 30l35 65h-38l-57 74l79 341h-100l19 85h100l30 130h90l-30 -130h180z" />
    <glyph glyph-name="Tcaron" unicode="&#x164;" horiz-adv-x="665" 
d="M392 755l-96 106l5 24h78l59 -70h11l91 70h95l-6 -26l-143 -104h-94zM217 0l142 615h-275l20 85h645l-20 -85h-275l-142 -615h-95z" />
    <glyph glyph-name="tcaron" unicode="&#x165;" horiz-adv-x="416" 
d="M328 550l4 19l45 161h92l-4 -15l-74 -165h-63zM127 0l-57 74l79 341h-100l19 85h100l30 130h90l-30 -130h180l-19 -85h-180l-73 -317l11 -13h171l-20 -85h-201z" />
    <glyph glyph-name="Tbar" unicode="&#x166;" horiz-adv-x="665" 
d="M729 615h-275l-57 -247h180l-18 -80h-181l-66 -288h-95l66 288h-179l18 80h180l57 247h-275l20 85h645z" />
    <glyph glyph-name="tbar" unicode="&#x167;" horiz-adv-x="416" 
d="M419 415h-180l-25 -110h155l-18 -75h-155l-30 -132l11 -13h171l-20 -85h-201l-57 74l36 156h-75l18 75h75l25 110h-100l19 85h100l30 130h90l-30 -130h180z" />
    <glyph glyph-name="Umacron" unicode="&#x16a;" horiz-adv-x="786" 
d="M365 783l17 75h305l-17 -75h-305zM182 0l-115 149l128 551h95l-122 -528l67 -87h238l110 90l122 525h95l-131 -564l-167 -136h-320z" />
    <glyph glyph-name="umacron" unicode="&#x16b;" horiz-adv-x="611" 
d="M237 613l17 75h305l-17 -75h-305zM132 0l-88 114l89 386h90l-83 -363l40 -52h157l84 59l82 356h90l-115 -500h-70l9 40h-13l-58 -40h-214z" />
    <glyph glyph-name="Ubreve" unicode="&#x16c;" horiz-adv-x="786" 
d="M409 755l-48 63l15 67h75l-11 -48l13 -17h133l25 20l10 45h75l-18 -78l-64 -52h-205zM182 0l-115 149l128 551h95l-122 -528l67 -87h238l110 90l122 525h95l-131 -564l-167 -136h-320z" />
    <glyph glyph-name="ubreve" unicode="&#x16d;" horiz-adv-x="611" 
d="M277 560l-48 63l22 97h75l-18 -78l13 -17h128l25 20l17 75h75l-25 -108l-64 -52h-200zM132 0l-88 114l89 386h90l-83 -363l40 -52h157l84 59l82 356h90l-115 -500h-70l9 40h-13l-58 -40h-214z" />
    <glyph glyph-name="Uring" unicode="&#x16e;" horiz-adv-x="786" 
d="M442 730l-51 64l23 97l61 49h126l49 -65l-22 -95l-61 -50h-125zM471 790h73l27 22l11 52l-12 16h-73l-26 -21l-12 -52zM182 0l-115 149l128 551h95l-122 -528l67 -87h238l110 90l122 525h95l-131 -564l-167 -136h-320z" />
    <glyph glyph-name="uring" unicode="&#x16f;" horiz-adv-x="611" 
d="M312 550l-50 66l27 115l61 49h126l49 -66l-27 -115l-61 -49h-125zM342 610h74l24 20l17 74l-12 16h-74l-24 -20l-17 -74zM132 0l-88 114l89 386h90l-83 -363l40 -52h157l84 59l82 356h90l-115 -500h-70l9 40h-13l-58 -40h-214z" />
    <glyph glyph-name="Uhungarumlaut" unicode="&#x170;" horiz-adv-x="786" 
d="M396 755l5 16l66 119h90l-3 -13l-86 -122h-72zM551 755l5 16l66 119h91l-3 -12l-86 -123h-73zM182 0l-115 149l128 551h95l-122 -528l67 -87h238l110 90l122 525h95l-131 -564l-167 -136h-320z" />
    <glyph glyph-name="uhungarumlaut" unicode="&#x171;" horiz-adv-x="611" 
d="M259 560l4 14l82 161h95l-4 -13l-110 -162h-67zM414 560l4 14l92 161h96l-4 -14l-121 -161h-67zM132 0l-88 114l89 386h90l-83 -363l40 -52h157l84 59l82 356h90l-115 -500h-70l9 40h-13l-58 -40h-214z" />
    <glyph glyph-name="Uogonek" unicode="&#x172;" horiz-adv-x="786" 
d="M705 700h95l-131 -564l-262 -213l-10 -44l5 -7h78l-16 -70h-100l-43 55l20 85l72 58h-231l-115 149l128 551h95l-122 -528l67 -87h238l110 90z" />
    <glyph glyph-name="uogonek" unicode="&#x173;" horiz-adv-x="611" 
d="M478 0l-111 -78l-10 -43l6 -9h77l-16 -70h-101l-42 54l22 96l111 76l3 14h-13l-58 -40h-214l-88 114l89 386h90l-83 -363l40 -52h157l84 59l82 356h90z" />
    <glyph glyph-name="Wcircumflex" unicode="&#x174;" horiz-adv-x="1043" 
d="M440 755l6 24l145 106h94l95 -104l-6 -26h-77l-59 70h-11l-91 -70h-96zM184 0l-63 665l8 35h84l55 -610h20l249 445l-11 130l8 35h84l47 -610h19l337 610h91l-8 -35l-368 -665h-156l-31 369h-9l-208 -369h-148z" />
    <glyph glyph-name="wcircumflex" unicode="&#x175;" horiz-adv-x="783" 
d="M261 560l6 24l155 146h94l85 -144l-6 -26h-72l-57 105h-11l-107 -105h-87zM115 0l-48 470l6 30h81l39 -415h15l173 300l-4 85l6 30h74l25 -415h16l229 415h88l-6 -30l-266 -470h-137l-15 235h-12l-134 -235h-130z" />
    <glyph glyph-name="Ycircumflex" unicode="&#x176;" horiz-adv-x="710" 
d="M286 755l6 24l145 106h94l95 -104l-6 -26h-77l-59 70h-11l-91 -70h-96zM245 0l57 245l-191 420l8 35h83l156 -345h22l315 345h94l-8 -35l-384 -420l-57 -245h-95z" />
    <glyph glyph-name="ycircumflex" unicode="&#x177;" horiz-adv-x="611" 
d="M201 560l6 24l155 146h94l85 -144l-6 -26h-72l-57 105h-11l-107 -105h-87zM-3 -200l19 85h310l44 35l24 105h-12l-36 -25h-214l-88 114l89 386h90l-83 -363l40 -52h157l84 59l82 356h90l-142 -619l-100 -81h-354z" />
    <glyph glyph-name="Ydieresis" unicode="&#x178;" horiz-adv-x="710" 
d="M318 770l23 100h100l-23 -100h-100zM513 770l23 100h100l-23 -100h-100zM245 0l57 245l-191 420l8 35h83l156 -345h22l315 345h94l-8 -35l-384 -420l-57 -245h-95z" />
    <glyph glyph-name="Zacute" unicode="&#x179;" horiz-adv-x="685" 
d="M432 755l4 14l77 121h95l-3 -13l-96 -122h-77zM-13 0l33 143l586 447l5 20h-468l21 90h580l-33 -143l-586 -446l-5 -21h483l-21 -90h-595z" />
    <glyph glyph-name="zacute" unicode="&#x17a;" horiz-adv-x="525" 
d="M311 560l5 15l95 160h96l-4 -15l-123 -160h-69zM-13 0l30 130l395 273l3 12h-322l19 85h425l-30 -132l-395 -270l-2 -13h342l-20 -85h-445z" />
    <glyph glyph-name="Zdotaccent" unicode="&#x17b;" horiz-adv-x="685" 
d="M425 770l23 100h100l-23 -100h-100zM-13 0l33 143l586 447l5 20h-468l21 90h580l-33 -143l-586 -446l-5 -21h483l-21 -90h-595z" />
    <glyph glyph-name="zdotaccent" unicode="&#x17c;" horiz-adv-x="525" 
d="M307 600l23 100h100l-23 -100h-100zM-13 0l30 130l395 273l3 12h-322l19 85h425l-30 -132l-395 -270l-2 -13h342l-20 -85h-445z" />
    <glyph glyph-name="Zcaron" unicode="&#x17d;" horiz-adv-x="685" 
d="M424 755l-96 106l5 24h78l59 -70h11l91 70h95l-6 -26l-143 -104h-94zM-13 0l33 143l586 447l5 20h-468l21 90h580l-33 -143l-586 -446l-5 -21h483l-21 -90h-595z" />
    <glyph glyph-name="zcaron" unicode="&#x17e;" horiz-adv-x="525" 
d="M301 560l-85 144l6 26h71l57 -105h11l107 105h88l-6 -24l-155 -146h-94zM-13 0l30 130l395 273l3 12h-322l19 85h425l-30 -132l-395 -270l-2 -13h342l-20 -85h-445z" />
    <glyph glyph-name="uni018F" unicode="&#x18f;" horiz-adv-x="826" 
d="M167 0l-115 149l60 256h575l28 123l-67 87h-433l20 85h466l114 -149l-96 -415l-167 -136h-385zM220 85h303l110 90l34 145h-480l-34 -148z" />
    <glyph glyph-name="florin" unicode="&#x192;" horiz-adv-x="495" 
d="M401 615l-18 -15l-46 -150h150l-20 -85h-156l-153 -504l-75 -61h-191l19 85h143l19 15l142 465h-108l20 85h113l58 189l75 61h191l-20 -85h-143z" />
    <glyph glyph-name="uni01F4" unicode="&#x1f4;" horiz-adv-x="815" 
d="M503 755l4 14l77 121h95l-3 -13l-96 -122h-77zM172 0l-115 149l96 415l168 136h479l-20 -85h-430l-111 -90l-81 -353l67 -87h303l110 90l33 140h-265l19 85h360l-61 -264l-167 -136h-385z" />
    <glyph glyph-name="uni01F5" unicode="&#x1f5;" horiz-adv-x="625" 
d="M369 560l5 15l95 160h96l-4 -15l-123 -160h-69zM-4 -200l19 85h325l44 35l26 115h-13l-51 -35h-215l-95 124l61 265l136 111h374l-142 -619l-100 -81h-369zM179 85h158l101 70l60 260h-240l-80 -65l-47 -203z" />
    <glyph glyph-name="uni0218" unicode="&#x218;" horiz-adv-x="720" 
d="M17 0l20 85h440l73 60l27 113l-44 57h-334l-92 119l37 160l131 106h464l-20 -85h-415l-74 -60l-22 -98l43 -57h334l92 -119l-41 -175l-130 -106h-489zM210 -245l39 100h-38l25 110h110l-23 -100l-66 -110h-47z" />
    <glyph glyph-name="uni0219" unicode="&#x219;" horiz-adv-x="565" 
d="M7 0l20 85h325l43 35l13 58l-25 32h-239l-72 94l27 115l99 81h349l-19 -85h-305l-43 -35l-13 -53l25 -32h239l72 -94l-27 -120l-100 -81h-369zM131 -245l39 100h-38l25 110h110l-23 -100l-66 -110h-47z" />
    <glyph glyph-name="uni021A" unicode="&#x21a;" horiz-adv-x="665" 
d="M217 0l142 615h-275l20 85h645l-20 -85h-275l-142 -615h-95zM176 -245l39 100h-38l25 110h110l-23 -100l-66 -110h-47z" />
    <glyph glyph-name="uni021B" unicode="&#x21b;" horiz-adv-x="416" 
d="M127 0l-57 74l79 341h-100l19 85h100l30 130h90l-30 -130h180l-19 -85h-180l-73 -317l11 -13h171l-20 -85h-201zM110 -245l39 100h-38l25 110h110l-23 -100l-66 -110h-47z" />
    <glyph glyph-name="uni0232" unicode="&#x232;" horiz-adv-x="710" 
d="M316 783l17 75h305l-17 -75h-305zM245 0l57 245l-191 420l8 35h83l156 -345h22l315 345h94l-8 -35l-384 -420l-57 -245h-95z" />
    <glyph glyph-name="uni0233" unicode="&#x233;" horiz-adv-x="611" 
d="M237 613l17 75h305l-17 -75h-305zM-3 -200l19 85h310l44 35l24 105h-12l-36 -25h-214l-88 114l89 386h90l-83 -363l40 -52h157l84 59l82 356h90l-142 -619l-100 -81h-354z" />
    <glyph glyph-name="uni0237" unicode="&#x237;" horiz-adv-x="241" 
d="M-183 -200l19 85h140l19 15l138 600h90l-147 -639l-75 -61h-184z" />
    <glyph glyph-name="uni0244" unicode="&#x244;" horiz-adv-x="815" 
d="M832 455l-18 -80h-75l-56 -239l-167 -136h-320l-115 149l53 226h-75l18 80h75l57 245h95l-57 -245h415l57 245h95l-57 -245h75zM597 175l46 200h-414l-47 -203l67 -87h238z" />
    <glyph glyph-name="uni0259" unicode="&#x259;" horiz-adv-x="616" 
d="M122 0l-95 124l40 176h405l12 53l-47 62h-308l19 85h336l96 -124l-61 -265l-137 -111h-260zM170 85h188l80 65l15 65h-315l-16 -68z" />
    <glyph glyph-name="uni0289" unicode="&#x289;" horiz-adv-x="635" 
d="M642 347l-17 -75h-76l-63 -272h-70l9 40h-13l-58 -40h-214l-88 114l36 158h-73l17 75h74l35 153h90l-35 -153h280l35 153h90l-35 -153h76zM429 144l29 128h-279l-31 -135l40 -52h157z" />
    <glyph glyph-name="uni02BC" unicode="&#x2bc;" horiz-adv-x="240" 
d="M109 425l59 150h-38l29 125h120l-25 -105l-94 -170h-51z" />
    <glyph glyph-name="circumflex" unicode="&#x2c6;" horiz-adv-x="394" 
d="M102 560l6 24l155 146h94l85 -144l-6 -26h-72l-57 105h-11l-107 -105h-87z" />
    <glyph glyph-name="caron" unicode="&#x2c7;" horiz-adv-x="394" 
d="M220 560l-85 144l6 26h71l57 -105h11l107 105h88l-6 -24l-155 -146h-94z" />
    <glyph glyph-name="breve" unicode="&#x2d8;" horiz-adv-x="375" 
d="M165 560l-48 63l22 97h75l-18 -78l13 -17h128l25 20l17 75h75l-25 -108l-64 -52h-200z" />
    <glyph glyph-name="dotaccent" unicode="&#x2d9;" horiz-adv-x="160" 
d="M111 600l23 100h100l-23 -100h-100z" />
    <glyph glyph-name="ring" unicode="&#x2da;" horiz-adv-x="300" 
d="M164 550l-50 66l27 115l61 49h126l49 -66l-27 -115l-61 -49h-125zM194 610h74l24 20l17 74l-12 16h-74l-24 -20l-17 -74z" />
    <glyph glyph-name="ogonek" unicode="&#x2db;" horiz-adv-x="224" 
d="M-19 -200l-42 54l22 96l145 99l30 -49l-111 -78l-10 -43l6 -9h77l-16 -70h-101z" />
    <glyph glyph-name="tilde" unicode="&#x2dc;" horiz-adv-x="426" 
d="M103 565l23 99l63 51h112l51 -85h40l20 16l16 69h75l-23 -99l-63 -51h-112l-51 85h-40l-19 -16l-17 -69h-75z" />
    <glyph glyph-name="hungarumlaut" unicode="&#x2dd;" horiz-adv-x="367" 
d="M102 560l4 14l82 161h95l-4 -13l-110 -162h-67zM257 560l4 14l92 161h96l-4 -14l-121 -161h-67z" />
    <glyph glyph-name="gravecomb" unicode="&#x300;" 
d="M-22 560l-52 171l1 4h97l18 -171l-1 -4h-63z" />
    <glyph glyph-name="acutecomb" unicode="&#x301;" 
d="M-114 560l5 15l95 160h96l-4 -15l-123 -160h-69z" />
    <glyph glyph-name="uni0302" unicode="&#x302;" 
d="M-292 560l6 24l155 146h94l85 -144l-6 -26h-72l-57 105h-11l-107 -105h-87z" />
    <glyph glyph-name="tildecomb" unicode="&#x303;" 
d="M-323 565l23 99l63 51h112l51 -85h40l20 16l16 69h75l-23 -99l-63 -51h-112l-51 85h-40l-19 -16l-17 -69h-75z" />
    <glyph glyph-name="uni0304" unicode="&#x304;" 
d="M-251 613l17 75h305l-17 -75h-305z" />
    <glyph glyph-name="uni0306" unicode="&#x306;" 
d="M-210 560l-48 63l22 97h75l-18 -78l13 -17h128l25 20l17 75h75l-25 -108l-64 -52h-200z" />
    <glyph glyph-name="uni0307" unicode="&#x307;" 
d="M-49 600l23 100h100l-23 -100h-100z" />
    <glyph glyph-name="uni0308" unicode="&#x308;" 
d="M-244 600l23 100h100l-23 -100h-100zM-49 600l23 100h100l-23 -100h-100z" />
    <glyph glyph-name="uni030A" unicode="&#x30a;" 
d="M-136 550l-50 66l27 115l61 49h126l49 -66l-27 -115l-61 -49h-125zM-106 610h74l24 20l17 74l-12 16h-74l-24 -20l-17 -74z" />
    <glyph glyph-name="uni030B" unicode="&#x30b;" 
d="M-265 560l4 14l82 161h95l-4 -13l-110 -162h-67zM-110 560l4 14l92 161h96l-4 -14l-121 -161h-67z" />
    <glyph glyph-name="uni030C" unicode="&#x30c;" 
d="M-174 560l-85 144l6 26h71l57 -105h11l107 105h88l-6 -24l-155 -146h-94z" />
    <glyph glyph-name="uni0312" unicode="&#x312;" 
d="M-69 560l23 100l57 110h47l-33 -100h42l-26 -110h-110z" />
    <glyph glyph-name="uni0326" unicode="&#x326;" 
d="M-232 -245l39 100h-38l25 110h110l-23 -100l-66 -110h-47z" />
    <glyph glyph-name="uni0327" unicode="&#x327;" 
d="M-333 -200l14 60h121l11 9l5 24l-9 12h-88l7 30l38 71l72 6l-2 -6l-19 -33l-2 -8h35l42 -55l-15 -64l-56 -46h-154z" />
    <glyph glyph-name="uni0328" unicode="&#x328;" 
d="M-243 -200l-42 54l22 96l145 99l30 -49l-111 -78l-10 -43l6 -9h77l-16 -70h-101z" />
    <glyph glyph-name="uni03A9" unicode="&#x3a9;" horiz-adv-x="890" 
d="M130 0v80h120v12l-120 108v360l140 140h390l140 -140v-360l-120 -108v-12h120v-80h-250v90l155 145v290l-90 90h-300l-90 -90v-290l155 -145v-90h-250z" />
    <glyph glyph-name="uni0400" unicode="&#x400;" horiz-adv-x="730" 
d="M467 755l-42 130l1 5h92l23 -130l-1 -5h-73zM42 0l162 700h580l-20 -85h-485l-51 -220h375l-19 -85h-375l-52 -225h495l-20 -85h-590z" />
    <glyph glyph-name="uni0401" unicode="&#x401;" horiz-adv-x="730" 
d="M363 770l23 100h100l-23 -100h-100zM558 770l23 100h100l-23 -100h-100zM42 0l162 700h580l-20 -85h-485l-51 -220h375l-19 -85h-375l-52 -225h495l-20 -85h-590z" />
    <glyph glyph-name="uni0402" unicode="&#x402;" horiz-adv-x="889" 
d="M470 -10l19 85h130l80 65l38 163l-48 62h-333l-84 -365h-95l142 615h-235l20 85h645l-20 -85h-315l-38 -165h366l95 -124l-51 -221l-141 -115h-175z" />
    <glyph glyph-name="uni0403" unicode="&#x403;" horiz-adv-x="645" 
d="M445 755l4 14l77 121h95l-3 -13l-96 -122h-77zM42 0l162 700h535l-20 -85h-440l-142 -615h-95z" />
    <glyph glyph-name="uni0404" unicode="&#x404;" horiz-adv-x="721" 
d="M172 0l-115 149l96 415l168 136h454l-20 -85h-405l-111 -90l-30 -130h385l-19 -85h-385l-32 -138l67 -87h418l-20 -85h-451z" />
    <glyph glyph-name="uni0405" unicode="&#x405;" horiz-adv-x="720" 
d="M17 0l20 85h440l73 60l27 113l-44 57h-334l-92 119l37 160l131 106h464l-20 -85h-415l-74 -60l-22 -98l43 -57h334l92 -119l-41 -175l-130 -106h-489z" />
    <glyph glyph-name="uni0406" unicode="&#x406;" horiz-adv-x="496" 
d="M3 0l18 80h140l125 540h-140l19 80h375l-19 -80h-140l-125 -540h140l-18 -80h-375z" />
    <glyph glyph-name="uni0407" unicode="&#x407;" horiz-adv-x="496" 
d="M222 770l23 100h100l-23 -100h-100zM417 770l23 100h100l-23 -100h-100zM3 0l18 80h140l125 540h-140l19 80h375l-19 -80h-140l-125 -540h140l-18 -80h-375z" />
    <glyph glyph-name="uni0408" unicode="&#x408;" horiz-adv-x="555" 
d="M-28 0l20 85h265l92 75l105 455h-295l20 85h390l-134 -579l-149 -121h-314z" />
    <glyph glyph-name="uni0409" unicode="&#x409;" horiz-adv-x="1215" 
d="M-50 -10l22 95h105l43 35l184 580h485l-63 -270h351l99 -129l-42 -185l-143 -116h-459l142 615h-302l-174 -549l-94 -76h-154zM647 85h315l86 70l28 123l-51 67h-318z" />
    <glyph glyph-name="uni040A" unicode="&#x40a;" horiz-adv-x="1220" 
d="M42 0l162 700h95l-63 -270h400l63 270h95l-63 -270h351l99 -129l-42 -185l-143 -116h-459l80 345h-400l-80 -345h-95zM652 85h315l86 70l28 123l-51 67h-318z" />
    <glyph glyph-name="uni040B" unicode="&#x40b;" horiz-adv-x="895" 
d="M177 0l142 615h-235l20 85h645l-20 -85h-315l-38 -165h366l95 -124l-75 -326h-95l70 303l-48 62h-333l-84 -365h-95z" />
    <glyph glyph-name="uni040C" unicode="&#x40c;" horiz-adv-x="735" 
d="M472 755l4 14l77 121h95l-3 -13l-96 -122h-77zM42 0l162 700h95l-71 -305h178l290 305h93l-8 -35l-297 -310l171 -320l-8 -35h-82l-164 310h-192l-72 -310h-95z" />
    <glyph glyph-name="uni040D" unicode="&#x40d;" horiz-adv-x="825" 
d="M488 755l-42 130l1 5h92l23 -130l-1 -5h-73zM42 0l162 700h95l-141 -610h11l494 610h166l-162 -700h-95l141 610h-11l-494 -610h-166z" />
    <glyph glyph-name="uni040E" unicode="&#x40e;" horiz-adv-x="669" 
d="M347 755l-48 63l15 67h75l-11 -48l13 -17h133l25 20l10 45h75l-18 -78l-64 -52h-205zM72 0l21 90h123l64 88l-164 487l8 35h82l136 -410h20l299 410h92l-8 -35l-485 -665h-188z" />
    <glyph glyph-name="uni040F" unicode="&#x40f;" horiz-adv-x="805" 
d="M809 700l-162 -700h-255l-37 -160h-95l37 160h-255l162 700h95l-142 -615h415l142 615h95z" />
    <glyph glyph-name="uni0410" unicode="&#x410;" horiz-adv-x="770" 
d="M569 700l136 -665l-8 -35h-83l-37 190h-381l-125 -190h-94l8 35l439 665h145zM252 275h308l-67 340h-18z" />
    <glyph glyph-name="uni0411" unicode="&#x411;" horiz-adv-x="790" 
d="M42 0l162 700h575l-20 -85h-480l-40 -175h406l99 -129l-45 -195l-143 -116h-514zM157 85h370l86 70l30 133l-51 67h-373z" />
    <glyph glyph-name="uni0412" unicode="&#x412;" horiz-adv-x="800" 
d="M42 0l162 700h481l91 -119l-32 -140l-83 -67l79 -103l-36 -155l-143 -116h-519zM231 405h345l80 65l20 88l-44 57h-353zM157 85h375l86 70l22 98l-51 67h-378z" />
    <glyph glyph-name="uni0413" unicode="&#x413;" horiz-adv-x="645" 
d="M42 0l162 700h535l-20 -85h-440l-142 -615h-95z" />
    <glyph glyph-name="uni0414" unicode="&#x414;" horiz-adv-x="820" 
d="M-85 -160l57 245h72l82 85l163 530h495l-142 -615h105l-57 -245h-95l37 160h-585l-37 -160h-95zM170 85h377l122 530h-312l-149 -489z" />
    <glyph glyph-name="uni0415" unicode="&#x415;" horiz-adv-x="730" 
d="M42 0l162 700h580l-20 -85h-485l-51 -220h375l-19 -85h-375l-52 -225h495l-20 -85h-590z" />
    <glyph glyph-name="uni0416" unicode="&#x416;" horiz-adv-x="1075" 
d="M-28 0l8 35l309 320l-143 310l8 35h77l141 -305h151l71 305h95l-71 -305h137l283 305h91l-8 -35l-287 -310l161 -320l-8 -35h-83l-153 310h-152l-72 -310h-95l72 310h-137l-298 -310h-97z" />
    <glyph glyph-name="uni0417" unicode="&#x417;" horiz-adv-x="695" 
d="M-13 0l20 85h420l86 70l22 98l-51 67h-278l20 85h265l86 70l19 83l-44 57h-413l20 85h446l91 -119l-31 -135l-101 -82l71 -93l-36 -155l-143 -116h-469z" />
    <glyph glyph-name="uni0418" unicode="&#x418;" horiz-adv-x="825" 
d="M42 0l162 700h95l-141 -610h11l494 610h166l-162 -700h-95l141 610h-11l-494 -610h-166z" />
    <glyph glyph-name="uni0419" unicode="&#x419;" horiz-adv-x="825" 
d="M426 755l-48 63l15 67h75l-11 -48l13 -17h133l25 20l10 45h75l-18 -78l-64 -52h-205zM42 0l162 700h95l-141 -610h11l494 610h166l-162 -700h-95l141 610h-11l-494 -610h-166z" />
    <glyph glyph-name="uni041A" unicode="&#x41a;" horiz-adv-x="735" 
d="M42 0l162 700h95l-71 -305h178l290 305h93l-8 -35l-297 -310l171 -320l-8 -35h-82l-164 310h-192l-72 -310h-95z" />
    <glyph glyph-name="uni041B" unicode="&#x41b;" horiz-adv-x="805" 
d="M-50 -10l22 95h105l42 34l185 581h505l-162 -700h-95l142 615h-322l-174 -549l-94 -76h-154z" />
    <glyph glyph-name="uni041C" unicode="&#x41c;" horiz-adv-x="985" 
d="M42 0l162 700h166l104 -470h19l321 470h175l-162 -700h-95l141 610h-15l-321 -470h-136l-104 470h-19l-141 -610h-95z" />
    <glyph glyph-name="uni041D" unicode="&#x41d;" horiz-adv-x="825" 
d="M42 0l162 700h95l-71 -305h435l71 305h95l-162 -700h-95l72 310h-435l-72 -310h-95z" />
    <glyph glyph-name="uni041E" unicode="&#x41e;" horiz-adv-x="831" 
d="M172 0l-115 149l96 415l168 136h385l114 -149l-96 -415l-167 -136h-385zM225 85h303l110 90l82 353l-67 87h-303l-111 -90l-81 -353z" />
    <glyph glyph-name="uni041F" unicode="&#x41f;" horiz-adv-x="815" 
d="M42 0l162 700h615l-162 -700h-95l142 615h-425l-142 -615h-95z" />
    <glyph glyph-name="uni0420" unicode="&#x420;" horiz-adv-x="755" 
d="M42 0l162 700h461l107 -139l-49 -210l-155 -126h-379l-52 -225h-95zM209 310h330l98 80l34 148l-59 77h-333z" />
    <glyph glyph-name="uni0421" unicode="&#x421;" horiz-adv-x="711" 
d="M172 0l-115 149l96 415l168 136h444l-20 -85h-395l-111 -90l-81 -353l67 -87h398l-20 -85h-431z" />
    <glyph glyph-name="uni0422" unicode="&#x422;" horiz-adv-x="665" 
d="M217 0l142 615h-275l20 85h645l-20 -85h-275l-142 -615h-95z" />
    <glyph glyph-name="uni0423" unicode="&#x423;" horiz-adv-x="669" 
d="M72 0l21 90h123l64 88l-164 487l8 35h82l136 -410h20l299 410h92l-8 -35l-485 -665h-188z" />
    <glyph glyph-name="uni0424" unicode="&#x424;" horiz-adv-x="996" 
d="M386 -30l21 90h-231l-115 149l73 315l167 136h244l21 90h95l-21 -90h231l115 -149l-73 -315l-167 -136h-244l-21 -90h-95zM228 145h198l100 430h-195l-111 -90l-58 -253zM521 145h195l111 90l59 253l-67 87h-198z" />
    <glyph glyph-name="uni0425" unicode="&#x425;" horiz-adv-x="714" 
d="M-23 0l8 35l329 328l-163 302l8 35h83l141 -268h17l265 268h98l-8 -35l-303 -302l177 -328l-8 -35h-83l-154 293h-19l-290 -293h-98z" />
    <glyph glyph-name="uni0426" unicode="&#x426;" horiz-adv-x="820" 
d="M799 700l-142 -615h95l-57 -245h-95l37 160h-595l162 700h95l-142 -615h405l142 615h95z" />
    <glyph glyph-name="uni0427" unicode="&#x427;" horiz-adv-x="745" 
d="M492 0l53 230h-351l-99 129l79 341h95l-74 -318l52 -67h318l89 385h95l-162 -700h-95z" />
    <glyph glyph-name="uni0428" unicode="&#x428;" horiz-adv-x="1125" 
d="M42 0l162 700h95l-142 -615h320l142 615h95l-142 -615h320l142 615h95l-162 -700h-925z" />
    <glyph glyph-name="uni0429" unicode="&#x429;" horiz-adv-x="1150" 
d="M1129 700l-142 -615h95l-57 -245h-95l37 160h-925l162 700h95l-142 -615h320l142 615h95l-142 -615h320l142 615h95z" />
    <glyph glyph-name="uni042A" unicode="&#x42a;" horiz-adv-x="830" 
d="M698 455l99 -129l-48 -210l-143 -116h-489l142 615h-170l20 85h265l-57 -245h381zM663 155l34 148l-52 67h-348l-65 -285h345z" />
    <glyph glyph-name="uni042B" unicode="&#x42b;" horiz-adv-x="1025" 
d="M42 0l162 700h95l-57 -245h371l99 -129l-48 -210l-143 -116h-479zM772 0l162 700h95l-162 -700h-95zM157 85h335l86 70l34 148l-52 67h-338z" />
    <glyph glyph-name="uni042C" unicode="&#x42c;" horiz-adv-x="755" 
d="M42 0l162 700h95l-57 -245h381l99 -129l-48 -210l-143 -116h-489zM157 85h345l86 70l34 148l-52 67h-348z" />
    <glyph glyph-name="uni042D" unicode="&#x42d;" horiz-adv-x="705" 
d="M-23 0l20 85h405l110 90l32 135h-360l19 85h360l31 133l-67 87h-398l20 85h431l114 -149l-96 -415l-167 -136h-454z" />
    <glyph glyph-name="uni042E" unicode="&#x42e;" horiz-adv-x="1065" 
d="M42 0l162 700h95l-71 -305h165l39 169l168 136h340l114 -149l-96 -415l-167 -136h-340l-115 149l38 161h-165l-72 -310h-95zM504 85h258l110 90l82 353l-67 87h-258l-111 -90l-81 -353z" />
    <glyph glyph-name="uni042F" unicode="&#x42f;" horiz-adv-x="794" 
d="M18 0l7 35l194 232l-93 122l43 185l155 126h474l-162 -700h-95l58 250h-273l-212 -250h-96zM285 335h333l65 280h-330l-98 -80l-29 -123z" />
    <glyph glyph-name="uni0430" unicode="&#x430;" horiz-adv-x="595" 
d="M86 0l-72 94l30 130l112 91h294l12 53l-36 47h-273l19 85h301l84 -109l-90 -391h-70l12 50h-14l-74 -50h-235zM134 85h178l101 69l17 76h-250l-55 -45l-16 -68z" />
    <glyph glyph-name="uni0431" unicode="&#x431;" horiz-adv-x="640" 
d="M136 0l-95 124l106 461l118 96l370 24h10l-20 -84l-330 -21l-67 -54l-23 -101h14l50 35h240l95 -124l-56 -245l-137 -111h-275zM184 85h203l80 65l42 183l-48 62h-183l-101 -70l-41 -178z" />
    <glyph glyph-name="uni0432" unicode="&#x432;" horiz-adv-x="606" 
d="M18 0l115 500h361l73 -94l-24 -103l-53 -41l53 -69l-26 -112l-100 -81h-399zM176 295h235l49 40l10 43l-28 37h-238zM128 85h260l49 40l11 48l-32 42h-258z" />
    <glyph glyph-name="uni0433" unicode="&#x433;" horiz-adv-x="461" 
d="M18 0l115 500h380l-19 -85h-290l-96 -415h-90z" />
    <glyph glyph-name="uni0434" unicode="&#x434;" horiz-adv-x="655" 
d="M-75 -140l52 225h61l68 68l106 347h385l-95 -415h95l-52 -225h-90l32 140h-440l-32 -140h-90zM153 85h259l76 330h-212l-92 -299z" />
    <glyph glyph-name="uni0435" unicode="&#x435;" horiz-adv-x="615" 
d="M131 0l-95 124l61 265l136 111h260l96 -124l-41 -176h-405l-12 -53l48 -62h308l-20 -85h-336zM163 285h315l15 68l-47 62h-188l-80 -65z" />
    <glyph glyph-name="uni0436" unicode="&#x436;" horiz-adv-x="820" 
d="M-33 0l7 30l216 224l-94 216l6 30h76l90 -205h107l47 205h90l-47 -205h94l184 205h89l-6 -30l-194 -216l112 -224l-7 -30h-80l-104 210h-108l-48 -210h-90l48 210h-94l-199 -210h-95z" />
    <glyph glyph-name="uni0437" unicode="&#x437;" horiz-adv-x="545" 
d="M-23 0l20 85h330l49 40l11 48l-29 37h-218l20 85h205l49 40l10 43l-28 37h-308l19 85h336l77 -99l-22 -95l-65 -53l48 -62l-24 -105l-106 -86h-374z" />
    <glyph glyph-name="uni0438" unicode="&#x438;" horiz-adv-x="626" 
d="M18 0l115 500h90l-93 -405h11l320 405h147l-115 -500h-90l94 405h-11l-321 -405h-147z" />
    <glyph glyph-name="uni0439" unicode="&#x439;" horiz-adv-x="626" 
d="M282 560l-48 63l22 97h75l-18 -78l13 -17h128l25 20l17 75h75l-25 -108l-64 -52h-200zM18 0l115 500h90l-93 -405h11l320 405h147l-115 -500h-90l94 405h-11l-321 -405h-147z" />
    <glyph glyph-name="uni043A" unicode="&#x43a;" horiz-adv-x="571" 
d="M18 0l115 500h90l-47 -205h128l190 205h89l-6 -30l-200 -215l118 -225l-7 -30h-80l-109 210h-143l-48 -210h-90z" />
    <glyph glyph-name="uni043B" unicode="&#x43b;" horiz-adv-x="615" 
d="M-49 -5l21 90h85l23 19l122 396h395l-115 -500h-90l96 415h-222l-110 -358l-76 -62h-129z" />
    <glyph glyph-name="uni043C" unicode="&#x43c;" horiz-adv-x="746" 
d="M18 0l115 500h151l66 -310h14l208 310h156l-115 -500h-90l94 405h-12l-202 -300h-121l-63 300h-17l-94 -405h-90z" />
    <glyph glyph-name="uni043D" unicode="&#x43d;" horiz-adv-x="621" 
d="M18 0l115 500h90l-47 -205h290l47 205h90l-115 -500h-90l48 210h-290l-48 -210h-90z" />
    <glyph glyph-name="uni043E" unicode="&#x43e;" horiz-adv-x="635" 
d="M131 0l-95 124l61 265l136 111h270l96 -124l-61 -265l-137 -111h-270zM179 85h198l80 65l46 203l-47 62h-198l-80 -65l-47 -203z" />
    <glyph glyph-name="uni043F" unicode="&#x43f;" horiz-adv-x="606" 
d="M18 0l115 500h455l-115 -500h-90l96 415h-275l-96 -415h-90z" />
    <glyph glyph-name="uni0440" unicode="&#x440;" horiz-adv-x="626" 
d="M-28 -200l161 700h70l-11 -50h15l72 50h215l96 -124l-61 -265l-137 -111h-284l-46 -200h-90zM128 85h240l80 65l46 203l-47 62h-158l-101 -70z" />
    <glyph glyph-name="uni0441" unicode="&#x441;" horiz-adv-x="550" 
d="M131 0l-95 124l61 265l136 111h324l-19 -85h-280l-80 -65l-47 -203l48 -62h283l-20 -85h-311z" />
    <glyph glyph-name="uni0442" unicode="&#x442;" horiz-adv-x="501" 
d="M143 0l96 415h-190l19 85h470l-19 -85h-190l-96 -415h-90z" />
    <glyph glyph-name="uni0443" unicode="&#x443;" horiz-adv-x="611" 
d="M-3 -200l19 85h310l44 35l24 105h-12l-36 -25h-214l-88 114l89 386h90l-83 -363l40 -52h157l84 59l82 356h90l-142 -619l-100 -81h-354z" />
    <glyph glyph-name="uni0444" unicode="&#x444;" horiz-adv-x="780" 
d="M241 -200l46 200h-156l-95 124l61 265l136 111h169l47 200h90l-47 -200h156l96 -124l-61 -265l-137 -111h-169l-46 -200h-90zM179 85h128l76 330h-125l-80 -65l-47 -203zM397 85h125l80 65l46 203l-47 62h-128z" />
    <glyph glyph-name="uni0445" unicode="&#x445;" horiz-adv-x="551" 
d="M-28 0l7 30l231 223l-120 217l6 30h81l97 -181h16l183 181h94l-6 -30l-219 -211l128 -229l-7 -30h-80l-105 195h-14l-198 -195h-94z" />
    <glyph glyph-name="uni0446" unicode="&#x446;" horiz-adv-x="636" 
d="M578 500l-95 -415h90l-52 -225h-90l32 140h-445l115 500h90l-95 -415h265l95 415h90z" />
    <glyph glyph-name="uni0447" unicode="&#x447;" horiz-adv-x="561" 
d="M338 0l37 160h-236l-88 114l52 226h90l-46 -203l40 -52h208l58 255h90l-115 -500h-90z" />
    <glyph glyph-name="uni0448" unicode="&#x448;" horiz-adv-x="851" 
d="M18 0l115 500h90l-95 -415h215l95 415h90l-95 -415h215l95 415h90l-115 -500h-700z" />
    <glyph glyph-name="uni0449" unicode="&#x449;" horiz-adv-x="891" 
d="M833 500l-95 -415h90l-52 -225h-90l32 140h-700l115 500h90l-95 -415h215l95 415h90l-95 -415h215l95 415h90z" />
    <glyph glyph-name="uni044A" unicode="&#x44a;" horiz-adv-x="646" 
d="M519 345l80 -104l-35 -150l-112 -91h-364l95 415h-139l19 85h230l-35 -155h261zM483 130l20 88l-32 42h-233l-40 -175h230z" />
    <glyph glyph-name="uni044B" unicode="&#x44b;" horiz-adv-x="786" 
d="M18 0l115 500h90l-35 -155h251l80 -104l-35 -150l-112 -91h-354zM563 0l115 500h90l-115 -500h-90zM128 85h220l55 45l20 88l-32 42h-223z" />
    <glyph glyph-name="uni044C" unicode="&#x44c;" horiz-adv-x="576" 
d="M18 0l115 500h90l-35 -155h261l80 -104l-35 -150l-112 -91h-364zM128 85h230l55 45l20 88l-32 42h-233z" />
    <glyph glyph-name="uni044D" unicode="&#x44d;" horiz-adv-x="555" 
d="M-13 0l20 85h290l80 65l13 60h-235l20 85h235l13 58l-47 62h-288l19 85h316l96 -124l-61 -265l-137 -111h-334z" />
    <glyph glyph-name="uni044E" unicode="&#x44e;" horiz-adv-x="821" 
d="M18 0l115 500h90l-47 -205h110l22 94l136 111h245l96 -124l-61 -265l-137 -111h-245l-95 124l19 86h-110l-48 -210h-90zM390 85h173l80 65l46 203l-47 62h-173l-80 -65l-47 -203z" />
    <glyph glyph-name="uni044F" unicode="&#x44f;" horiz-adv-x="596" 
d="M-7 0l6 30l142 154l-70 90l31 135l112 91h364l-115 -500h-90l39 170h-170l-154 -170h-95zM199 255h233l37 160h-230l-56 -45l-16 -73z" />
    <glyph glyph-name="uni0450" unicode="&#x450;" horiz-adv-x="615" 
d="M343 560l-52 171l1 4h97l18 -171l-1 -4h-63zM131 0l-95 124l61 265l136 111h260l96 -124l-41 -176h-405l-12 -53l48 -62h308l-20 -85h-336zM163 285h315l15 68l-47 62h-188l-80 -65z" />
    <glyph glyph-name="uni0451" unicode="&#x451;" horiz-adv-x="615" 
d="M239 600l23 100h100l-23 -100h-100zM434 600l23 100h100l-23 -100h-100zM131 0l-95 124l61 265l136 111h260l96 -124l-41 -176h-405l-12 -53l48 -62h308l-20 -85h-336zM163 285h315l15 68l-47 62h-188l-80 -65z" />
    <glyph glyph-name="uni0452" unicode="&#x452;" horiz-adv-x="641" 
d="M599 371l-81 -351l-37 -159l-75 -61h-199l19 85h155l19 15l103 448l-40 52h-162l-96 -67l-77 -333h-90l128 555h-85l17 75h85l17 70h90l-17 -70h220l-17 -75h-220l-23 -102h13l46 32h219z" />
    <glyph glyph-name="uni0453" unicode="&#x453;" horiz-adv-x="461" 
d="M300 560l5 15l95 160h96l-4 -15l-123 -160h-69zM18 0l115 500h380l-19 -85h-290l-96 -415h-90z" />
    <glyph glyph-name="uni0454" unicode="&#x454;" horiz-adv-x="560" 
d="M131 0l-95 124l61 265l136 111h329l-19 -85h-285l-80 -65l-13 -55h245l-20 -85h-245l-14 -63l48 -62h293l-20 -85h-321z" />
    <glyph glyph-name="uni0455" unicode="&#x455;" horiz-adv-x="565" 
d="M7 0l20 85h325l43 35l13 58l-25 32h-239l-72 94l27 115l99 81h349l-19 -85h-305l-43 -35l-13 -53l25 -32h239l72 -94l-27 -120l-100 -81h-369z" />
    <glyph glyph-name="uni0456" unicode="&#x456;" horiz-adv-x="241" 
d="M151 600l23 100h100l-23 -100h-100zM18 0l115 500h90l-115 -500h-90z" />
    <glyph glyph-name="uni0457" unicode="&#x457;" horiz-adv-x="241" 
d="M74 600l23 100h100l-23 -100h-100zM229 600l23 100h100l-23 -100h-100zM18 0l115 500h90l-115 -500h-90z" />
    <glyph glyph-name="uni0458" unicode="&#x458;" horiz-adv-x="241" 
d="M151 600l23 100h100l-23 -100h-100zM-183 -200l19 85h140l19 15l138 600h90l-147 -639l-75 -61h-184z" />
    <glyph glyph-name="uni0459" unicode="&#x459;" horiz-adv-x="925" 
d="M-49 -5l21 90h85l23 19l122 396h385l-40 -175h246l80 -104l-30 -130l-112 -91h-349l96 415h-212l-110 -358l-76 -62h-129zM492 85h215l55 45l16 68l-33 42h-218z" />
    <glyph glyph-name="uni045A" unicode="&#x45a;" horiz-adv-x="921" 
d="M18 0l115 500h90l-40 -175h270l40 175h90l-40 -175h246l80 -104l-30 -130l-112 -91h-349l55 240h-270l-55 -240h-90zM488 85h215l55 45l16 68l-33 42h-218z" />
    <glyph glyph-name="uni045B" unicode="&#x45b;" horiz-adv-x="641" 
d="M38 0l128 555h-85l17 75h85l17 70h90l-17 -70h220l-17 -75h-220l-23 -102h13l46 32h219l88 -114l-86 -371h-90l80 348l-40 52h-162l-96 -67l-77 -333h-90z" />
    <glyph glyph-name="uni045C" unicode="&#x45c;" horiz-adv-x="571" 
d="M337 560l5 15l95 160h96l-4 -15l-123 -160h-69zM18 0l115 500h90l-47 -205h128l190 205h89l-6 -30l-200 -215l118 -225l-7 -30h-80l-109 210h-143l-48 -210h-90z" />
    <glyph glyph-name="uni045D" unicode="&#x45d;" horiz-adv-x="626" 
d="M348 560l-52 171l1 4h97l18 -171l-1 -4h-63zM18 0l115 500h90l-93 -405h11l320 405h147l-115 -500h-90l94 405h-11l-321 -405h-147z" />
    <glyph glyph-name="uni045E" unicode="&#x45e;" horiz-adv-x="611" 
d="M277 560l-48 63l22 97h75l-18 -78l13 -17h128l25 20l17 75h75l-25 -108l-64 -52h-200zM-3 -200l19 85h310l44 35l24 105h-12l-36 -25h-214l-88 114l89 386h90l-83 -363l40 -52h157l84 59l82 356h90l-142 -619l-100 -81h-354z" />
    <glyph glyph-name="uni045F" unicode="&#x45f;" horiz-adv-x="601" 
d="M583 500l-115 -500h-180l-32 -140h-90l32 140h-180l115 500h90l-95 -415h270l95 415h90z" />
    <glyph glyph-name="uni0490" unicode="&#x490;" horiz-adv-x="645" 
d="M670 815h95l-26 -115l-20 -85h-440l-142 -615h-95l162 700h439z" />
    <glyph glyph-name="uni0491" unicode="&#x491;" horiz-adv-x="461" 
d="M449 590h85l-21 -90l-19 -85h-290l-96 -415h-90l115 500h295z" />
    <glyph glyph-name="uni0492" unicode="&#x492;" horiz-adv-x="671" 
d="M745 615h-440l-57 -248h249l-18 -80h-250l-66 -287h-95l66 287h-100l18 80h101l77 333h535z" />
    <glyph glyph-name="uni0493" unicode="&#x493;" horiz-adv-x="465" 
d="M498 415h-290l-35 -153h155l-18 -75h-155l-43 -187h-90l43 187h-75l18 75h74l55 238h380z" />
    <glyph glyph-name="uni0494" unicode="&#x494;" horiz-adv-x="745" 
d="M316 -125l20 85h122l80 65l52 228l-47 62h-236l-116 -80l-54 -235h-95l162 700h535l-20 -85h-440l-60 -260h9l64 45h303l96 -124l-67 -290l-137 -111h-171z" />
    <glyph glyph-name="uni0495" unicode="&#x495;" horiz-adv-x="556" 
d="M182 -200l19 85h110l44 35l49 213l-44 57h-123l-101 -70l-28 -120h-90l115 500h375l-19 -85h-285l-42 -180h8l57 40h180l92 -119l-63 -275l-100 -81h-154z" />
    <glyph glyph-name="uni0496" unicode="&#x496;" horiz-adv-x="1095" 
d="M1121 665l-287 -310l136 -270h77l-57 -245h-95l37 160h-28l-153 310h-152l-72 -310h-95l72 310h-137l-298 -310h-97l8 35l309 320l-143 310l8 35h77l141 -305h151l71 305h95l-71 -305h137l283 305h91z" />
    <glyph glyph-name="uni0497" unicode="&#x497;" horiz-adv-x="845" 
d="M826 470l-194 -216l85 -169h80l-52 -225h-90l32 140h-30l-104 210h-108l-48 -210h-90l48 210h-94l-199 -210h-95l7 30l216 224l-94 216l6 30h76l90 -205h107l47 205h90l-47 -205h94l184 205h89z" />
    <glyph glyph-name="uni049A" unicode="&#x49a;" horiz-adv-x="755" 
d="M781 665l-297 -310l144 -270h79l-57 -245h-95l37 160h-27l-164 310h-192l-72 -310h-95l162 700h95l-71 -305h178l290 305h93z" />
    <glyph glyph-name="uni049B" unicode="&#x49b;" horiz-adv-x="596" 
d="M577 470l-200 -215l89 -170h82l-52 -225h-90l32 140h-30l-109 210h-143l-48 -210h-90l115 500h90l-47 -205h128l190 205h89z" />
    <glyph glyph-name="uni049C" unicode="&#x49c;" horiz-adv-x="745" 
d="M42 0l162 700h95l-71 -305h65l31 135h80l-31 -135h43l290 305h93l-8 -35l-297 -310l171 -320l-8 -35h-82l-164 310h-57l-32 -135h-80l32 135h-65l-72 -310h-95z" />
    <glyph glyph-name="uni049D" unicode="&#x49d;" horiz-adv-x="571" 
d="M18 0l115 500h90l-47 -205h40l26 110h70l-26 -110h18l190 205h89l-6 -30l-200 -215l118 -225l-7 -30h-80l-109 210h-33l-25 -110h-70l25 110h-40l-48 -210h-90z" />
    <glyph glyph-name="uni04A2" unicode="&#x4a2;" horiz-adv-x="850" 
d="M829 700l-142 -615h95l-57 -245h-95l37 160h-95l72 310h-435l-72 -310h-95l162 700h95l-71 -305h435l71 305h95z" />
    <glyph glyph-name="uni04A3" unicode="&#x4a3;" horiz-adv-x="661" 
d="M603 500l-95 -415h90l-52 -225h-90l32 140h-90l48 210h-290l-48 -210h-90l115 500h90l-47 -205h290l47 205h90z" />
    <glyph glyph-name="uni04AA" unicode="&#x4aa;" horiz-adv-x="711" 
d="M350 615l-111 -90l-81 -353l67 -87h398l-20 -85h-199l-37 -160h-95l37 160h-137l-115 149l96 415l168 136h444l-20 -85h-395z" />
    <glyph glyph-name="uni04AB" unicode="&#x4ab;" horiz-adv-x="550" 
d="M258 415l-80 -65l-47 -203l48 -62h283l-20 -85h-137l-32 -140h-90l32 140h-84l-95 124l61 265l136 111h324l-19 -85h-280z" />
    <glyph glyph-name="uni04AE" unicode="&#x4ae;" horiz-adv-x="710" 
d="M245 0l57 245l-191 420l8 35h83l156 -345h22l315 345h94l-8 -35l-384 -420l-57 -245h-95z" />
    <glyph glyph-name="uni04AF" unicode="&#x4af;" horiz-adv-x="540" 
d="M113 -200l46 200l-99 465l8 35h78l74 -385h13l257 385h88l-8 -35l-321 -465l-46 -200h-90z" />
    <glyph glyph-name="uni04B0" unicode="&#x4b0;" horiz-adv-x="710" 
d="M781 665l-384 -420l-2 -10h179l-18 -80h-180l-36 -155h-95l36 155h-180l18 80h181l2 10l-191 420l8 35h83l156 -345h22l315 345h94z" />
    <glyph glyph-name="uni04B1" unicode="&#x4b1;" horiz-adv-x="550" 
d="M575 465l-321 -465l-3 -15h154l-17 -75h-155l-25 -110h-90l25 110h-155l17 75h156l3 15l-99 465l8 35h78l74 -385h13l257 385h88z" />
    <glyph glyph-name="uni04B2" unicode="&#x4b2;" horiz-adv-x="729" 
d="M755 665l-303 -302l150 -278h79l-57 -245h-95l37 160h-28l-154 293h-19l-290 -293h-98l8 35l329 328l-163 302l8 35h83l141 -268h17l265 268h98z" />
    <glyph glyph-name="uni04B3" unicode="&#x4b3;" horiz-adv-x="571" 
d="M561 470l-219 -211l97 -174h84l-52 -225h-90l32 140h-30l-105 195h-14l-198 -195h-94l7 30l231 223l-120 217l6 30h81l97 -181h16l183 181h94z" />
    <glyph glyph-name="uni04B6" unicode="&#x4b6;" horiz-adv-x="770" 
d="M749 700l-142 -615h95l-57 -245h-95l37 160h-95l53 230h-351l-99 129l79 341h95l-74 -318l52 -67h318l89 385h95z" />
    <glyph glyph-name="uni04B7" unicode="&#x4b7;" horiz-adv-x="601" 
d="M543 500l-95 -415h90l-52 -225h-90l32 140h-90l37 160h-236l-88 114l52 226h90l-46 -203l40 -52h208l58 255h90z" />
    <glyph glyph-name="uni04B8" unicode="&#x4b8;" horiz-adv-x="745" 
d="M492 0l53 230h-150l-31 -135h-80l31 135h-121l-99 129l79 341h95l-74 -318l52 -67h88l31 135h80l-31 -135h150l89 385h95l-162 -700h-95z" />
    <glyph glyph-name="uni04B9" unicode="&#x4b9;" horiz-adv-x="561" 
d="M338 0l37 160h-95l-25 -110h-70l25 110h-71l-88 114l52 226h90l-46 -203l40 -52h43l25 110h70l-25 -110h95l58 255h90l-115 -500h-90z" />
    <glyph glyph-name="uni04BA" unicode="&#x4ba;" horiz-adv-x="745" 
d="M42 0l162 700h95l-53 -230h351l99 -129l-79 -341h-95l73 318l-51 67h-318l-89 -385h-95z" />
    <glyph glyph-name="uni04BB" unicode="&#x4bb;" horiz-adv-x="625" 
d="M22 0l162 700h90l-54 -232h13l46 32h219l88 -114l-89 -386h-90l84 363l-40 52h-162l-97 -67l-80 -348h-90z" />
    <glyph glyph-name="uni04C1" unicode="&#x4c1;" horiz-adv-x="1075" 
d="M553 755l-48 63l15 67h75l-11 -48l13 -17h133l25 20l10 45h75l-18 -78l-64 -52h-205zM-28 0l8 35l309 320l-143 310l8 35h77l141 -305h151l71 305h95l-71 -305h137l283 305h91l-8 -35l-287 -310l161 -320l-8 -35h-83l-153 310h-152l-72 -310h-95l72 310h-137l-298 -310
h-97z" />
    <glyph glyph-name="uni04C2" unicode="&#x4c2;" horiz-adv-x="820" 
d="M381 560l-48 63l22 97h75l-18 -78l13 -17h128l25 20l17 75h75l-25 -108l-64 -52h-200zM-33 0l7 30l216 224l-94 216l6 30h76l90 -205h107l47 205h90l-47 -205h94l184 205h89l-6 -30l-194 -216l112 -224l-7 -30h-80l-104 210h-108l-48 -210h-90l48 210h-94l-199 -210h-95z
" />
    <glyph glyph-name="uni04D2" unicode="&#x4d2;" horiz-adv-x="770" 
d="M489 870l-23 -100h-100l23 100h100zM684 870l-23 -100h-100l23 100h100zM569 700l136 -665l-8 -35h-83l-37 190h-381l-125 -190h-94l8 35l439 665h145zM252 275h308l-67 340h-18z" />
    <glyph glyph-name="uni04D3" unicode="&#x4d3;" horiz-adv-x="595" 
d="M243 600l23 100h100l-23 -100h-100zM438 600l23 100h100l-23 -100h-100zM86 0l-72 94l30 130l112 91h294l12 53l-36 47h-273l19 85h301l84 -109l-90 -391h-70l12 50h-14l-74 -50h-235zM134 85h178l101 69l17 76h-250l-55 -45l-16 -68z" />
    <glyph glyph-name="uni04D8" unicode="&#x4d8;" horiz-adv-x="826" 
d="M167 0l-115 149l60 256h575l28 123l-67 87h-433l20 85h466l114 -149l-96 -415l-167 -136h-385zM220 85h303l110 90l34 145h-480l-34 -148z" />
    <glyph glyph-name="uni04D9" unicode="&#x4d9;" horiz-adv-x="616" 
d="M122 0l-95 124l40 176h405l12 53l-47 62h-308l19 85h336l96 -124l-61 -265l-137 -111h-260zM170 85h188l80 65l15 65h-315l-16 -68z" />
    <glyph glyph-name="uni04E0" unicode="&#x4e0;" horiz-adv-x="685" 
d="M-13 0l20 85h420l86 70l22 98l-51 67h-278l21 91l304 195l2 9h-394l20 85h550l-20 -87l-310 -198l-2 -10h160l99 -129l-37 -160l-143 -116h-469z" />
    <glyph glyph-name="uni04E1" unicode="&#x4e1;" horiz-adv-x="531" 
d="M-78 -200l19 85h310l80 65l24 103l-47 62h-208l20 89l261 199l2 12h-314l19 85h440l-20 -89l-261 -199l-2 -12h110l96 -124l-39 -165l-136 -111h-354z" />
    <glyph glyph-name="uni04E2" unicode="&#x4e2;" horiz-adv-x="825" 
d="M382 783l17 75h305l-17 -75h-305zM42 0l162 700h95l-141 -610h11l494 610h166l-162 -700h-95l141 610h-11l-494 -610h-166z" />
    <glyph glyph-name="uni04E3" unicode="&#x4e3;" horiz-adv-x="626" 
d="M242 613l17 75h305l-17 -75h-305zM18 0l115 500h90l-93 -405h11l320 405h147l-115 -500h-90l94 405h-11l-321 -405h-147z" />
    <glyph glyph-name="uni04E6" unicode="&#x4e6;" horiz-adv-x="831" 
d="M382 770l23 100h100l-23 -100h-100zM577 770l23 100h100l-23 -100h-100zM172 0l-115 149l96 415l168 136h385l114 -149l-96 -415l-167 -136h-385zM225 85h303l110 90l82 353l-67 87h-303l-111 -90l-81 -353z" />
    <glyph glyph-name="uni04E7" unicode="&#x4e7;" horiz-adv-x="635" 
d="M245 600l23 100h100l-23 -100h-100zM440 600l23 100h100l-23 -100h-100zM131 0l-95 124l61 265l136 111h270l96 -124l-61 -265l-137 -111h-270zM179 85h198l80 65l46 203l-47 62h-198l-80 -65l-47 -203z" />
    <glyph glyph-name="uni04E8" unicode="&#x4e8;" horiz-adv-x="831" 
d="M706 700l114 -149l-96 -415l-167 -136h-385l-115 149l96 415l168 136h385zM350 615l-111 -90l-31 -133h480l32 136l-67 87h-303zM528 85l110 90l32 137h-480l-32 -140l67 -87h303z" />
    <glyph glyph-name="uni04E9" unicode="&#x4e9;" horiz-adv-x="635" 
d="M503 500l96 -124l-61 -265l-137 -111h-270l-95 124l61 265l136 111h270zM258 415l-80 -65l-14 -61h324l15 64l-47 62h-198zM377 85l80 65l15 64h-325l-16 -67l48 -62h198z" />
    <glyph glyph-name="uni04EE" unicode="&#x4ee;" horiz-adv-x="669" 
d="M303 783l17 75h305l-17 -75h-305zM72 0l21 90h123l64 88l-164 487l8 35h82l136 -410h20l299 410h92l-8 -35l-485 -665h-188z" />
    <glyph glyph-name="uni04EF" unicode="&#x4ef;" horiz-adv-x="611" 
d="M237 613l17 75h305l-17 -75h-305zM-3 -200l19 85h310l44 35l24 105h-12l-36 -25h-214l-88 114l89 386h90l-83 -363l40 -52h157l84 59l82 356h90l-142 -619l-100 -81h-354z" />
    <glyph glyph-name="uni04F0" unicode="&#x4f0;" horiz-adv-x="669" 
d="M305 770l23 100h100l-23 -100h-100zM500 770l23 100h100l-23 -100h-100zM72 0l21 90h123l64 88l-164 487l8 35h82l136 -410h20l299 410h92l-8 -35l-485 -665h-188z" />
    <glyph glyph-name="uni04F1" unicode="&#x4f1;" horiz-adv-x="611" 
d="M239 600l23 100h100l-23 -100h-100zM434 600l23 100h100l-23 -100h-100zM-3 -200l19 85h310l44 35l24 105h-12l-36 -25h-214l-88 114l89 386h90l-83 -363l40 -52h157l84 59l82 356h90l-142 -619l-100 -81h-354z" />
    <glyph glyph-name="Wgrave" unicode="&#x1e80;" horiz-adv-x="1043" 
d="M576 755l-42 130l1 5h92l23 -130l-1 -5h-73zM184 0l-63 665l8 35h84l55 -610h20l249 445l-11 130l8 35h84l47 -610h19l337 610h91l-8 -35l-368 -665h-156l-31 369h-9l-208 -369h-148z" />
    <glyph glyph-name="wgrave" unicode="&#x1e81;" horiz-adv-x="783" 
d="M403 560l-52 171l1 4h97l18 -171l-1 -4h-63zM115 0l-48 470l6 30h81l39 -415h15l173 300l-4 85l6 30h74l25 -415h16l229 415h88l-6 -30l-266 -470h-137l-15 235h-12l-134 -235h-130z" />
    <glyph glyph-name="Wacute" unicode="&#x1e82;" horiz-adv-x="1043" 
d="M576 755l4 14l77 121h95l-3 -13l-96 -122h-77zM184 0l-63 665l8 35h84l55 -610h20l249 445l-11 130l8 35h84l47 -610h19l337 610h91l-8 -35l-368 -665h-156l-31 369h-9l-208 -369h-148z" />
    <glyph glyph-name="wacute" unicode="&#x1e83;" horiz-adv-x="783" 
d="M400 560l5 15l95 160h96l-4 -15l-123 -160h-69zM115 0l-48 470l6 30h81l39 -415h15l173 300l-4 85l6 30h74l25 -415h16l229 415h88l-6 -30l-266 -470h-137l-15 235h-12l-134 -235h-130z" />
    <glyph glyph-name="Wdieresis" unicode="&#x1e84;" horiz-adv-x="1043" 
d="M472 770l23 100h100l-23 -100h-100zM667 770l23 100h100l-23 -100h-100zM184 0l-63 665l8 35h84l55 -610h20l249 445l-11 130l8 35h84l47 -610h19l337 610h91l-8 -35l-368 -665h-156l-31 369h-9l-208 -369h-148z" />
    <glyph glyph-name="wdieresis" unicode="&#x1e85;" horiz-adv-x="783" 
d="M299 600l23 100h100l-23 -100h-100zM494 600l23 100h100l-23 -100h-100zM115 0l-48 470l6 30h81l39 -415h15l173 300l-4 85l6 30h74l25 -415h16l229 415h88l-6 -30l-266 -470h-137l-15 235h-12l-134 -235h-130z" />
    <glyph glyph-name="uni1E9E" unicode="&#x1e9e;" horiz-adv-x="770" 
d="M42 0l134 580l148 120h445l-20 -88l-207 -177l-2 -10h91l99 -129l-41 -180l-143 -116h-319l20 85h270l86 70l27 118l-52 67h-183l20 88l208 178l2 9h-276l-86 -70l-126 -545h-95z" />
    <glyph glyph-name="Ygrave" unicode="&#x1ef2;" horiz-adv-x="710" 
d="M422 755l-42 130l1 5h92l23 -130l-1 -5h-73zM245 0l57 245l-191 420l8 35h83l156 -345h22l315 345h94l-8 -35l-384 -420l-57 -245h-95z" />
    <glyph glyph-name="ygrave" unicode="&#x1ef3;" horiz-adv-x="611" 
d="M343 560l-52 171l1 4h97l18 -171l-1 -4h-63zM-3 -200l19 85h310l44 35l24 105h-12l-36 -25h-214l-88 114l89 386h90l-83 -363l40 -52h157l84 59l82 356h90l-142 -619l-100 -81h-354z" />
    <glyph glyph-name="endash" unicode="&#x2013;" horiz-adv-x="601" 
d="M47 235l19 80h500l-19 -80h-500z" />
    <glyph glyph-name="emdash" unicode="&#x2014;" horiz-adv-x="951" 
d="M47 235l19 80h850l-19 -80h-850z" />
    <glyph glyph-name="quoteleft" unicode="&#x2018;" horiz-adv-x="240" 
d="M265 700l-59 -150h38l-29 -125h-120l25 105l94 170h51z" />
    <glyph glyph-name="quoteright" unicode="&#x2019;" horiz-adv-x="240" 
d="M109 425l59 150h-38l29 125h120l-25 -105l-94 -170h-51z" />
    <glyph glyph-name="quotesinglbase" unicode="&#x201a;" horiz-adv-x="240" 
d="M-21 -160l59 150h-38l29 125h120l-25 -105l-94 -170h-51z" />
    <glyph glyph-name="quotedblleft" unicode="&#x201c;" horiz-adv-x="420" 
d="M265 700l-59 -150h38l-29 -125h-120l25 105l94 170h51zM445 700l-59 -150h38l-29 -125h-120l25 105l94 170h51z" />
    <glyph glyph-name="quotedblright" unicode="&#x201d;" horiz-adv-x="420" 
d="M109 425l59 150h-38l29 125h120l-25 -105l-94 -170h-51zM289 425l59 150h-38l29 125h120l-25 -105l-94 -170h-51z" />
    <glyph glyph-name="quotedblbase" unicode="&#x201e;" horiz-adv-x="420" 
d="M-21 -160l59 150h-38l29 125h120l-25 -105l-94 -170h-51zM159 -160l59 150h-38l29 125h120l-25 -105l-94 -170h-51z" />
    <glyph glyph-name="dagger" unicode="&#x2020;" horiz-adv-x="666" 
d="M216 -50l123 530h-205l19 85h205l43 185h95l-43 -185h205l-19 -85h-205l-123 -530h-95z" />
    <glyph glyph-name="daggerdbl" unicode="&#x2021;" horiz-adv-x="666" 
d="M216 -50l43 185h-205l20 85h205l60 260h-205l19 85h205l43 185h95l-43 -185h205l-19 -85h-205l-60 -260h205l-20 -85h-205l-43 -185h-95z" />
    <glyph glyph-name="bullet" unicode="&#x2022;" horiz-adv-x="375" 
d="M114 225l30 130h135l-30 -130h-135z" />
    <glyph glyph-name="ellipsis" unicode="&#x2026;" horiz-adv-x="935" 
d="M47 0l27 115h115l-27 -115h-115zM352 0l27 115h115l-27 -115h-115zM657 0l27 115h115l-27 -115h-115z" />
    <glyph glyph-name="perthousand" unicode="&#x2030;" horiz-adv-x="1360" 
d="M181 370l-64 82l40 176l89 72h165l63 -83l-40 -175l-89 -72h-164zM172 0l8 37l584 663h70l-8 -37l-584 -663h-70zM222 440h103l42 34l28 123l-26 33h-103l-42 -34l-28 -123zM596 0l-64 82l40 176l89 72h165l63 -83l-40 -175l-89 -72h-164zM996 0l-64 82l40 176l89 72h165
l63 -83l-40 -175l-89 -72h-164zM637 70h103l42 34l28 123l-26 33h-103l-42 -34l-28 -123zM1037 70h103l42 34l28 123l-26 33h-103l-42 -34l-28 -123z" />
    <glyph glyph-name="guilsinglleft" unicode="&#x2039;" horiz-adv-x="417" 
d="M244 -10l-204 260l324 260l50 -65l-261 -205l158 -196z" />
    <glyph glyph-name="guilsinglright" unicode="&#x203a;" horiz-adv-x="417" 
d="M53 -10l-50 65l260 205l-158 195l68 55l204 -260z" />
    <glyph glyph-name="fraction" unicode="&#x2044;" horiz-adv-x="80" 
d="M-268 0l8 37l584 663h70l-8 -37l-584 -663h-70z" />
    <glyph glyph-name="uni2070" unicode="&#x2070;" horiz-adv-x="391" 
d="M175 470l-60 78l42 185l83 67h155l59 -78l-42 -185l-83 -67h-154zM215 535h93l42 34l30 133l-25 33h-93l-42 -34l-31 -134z" />
    <glyph glyph-name="uni2074" unicode="&#x2074;" horiz-adv-x="361" 
d="M252 470l13 60h-210l16 70l233 200h94l-49 -210h45l-14 -60h-45l-13 -60h-70zM149 590h130l33 140h-3l-159 -136z" />
    <glyph glyph-name="uni2075" unicode="&#x2075;" horiz-adv-x="405" 
d="M111 470l15 65h207l28 24l8 34l-17 22h-203l43 185h275l-15 -65h-205l-13 -55h157l52 -68l-19 -84l-70 -58h-243z" />
    <glyph glyph-name="uni2076" unicode="&#x2076;" horiz-adv-x="396" 
d="M167 470l-55 70l48 205l68 55h235l-15 -65h-194l-32 -26l-6 -24h175l50 -65l-22 -95l-67 -55h-185zM203 535h123l31 26l10 43l-16 21h-149l-15 -69z" />
    <glyph glyph-name="uni2077" unicode="&#x2077;" horiz-adv-x="335" 
d="M164 470l6 29l187 228l2 8h-197l15 65h290l-15 -64l-213 -266h-75z" />
    <glyph glyph-name="uni2078" unicode="&#x2078;" horiz-adv-x="409" 
d="M160 470l-50 63l16 70l56 45l-27 35l15 65l64 52h185l48 -63l-15 -65l-43 -35l34 -45l-16 -70l-63 -52h-204zM244 667h113l30 24l6 26l-14 18h-123l-24 -19l-6 -26zM199 535h143l23 19l7 31l-18 23h-133l-29 -24l-8 -31z" />
    <glyph glyph-name="uni2079" unicode="&#x2079;" horiz-adv-x="395" 
d="M110 470l15 65h194l32 26l6 24h-175l-50 65l22 95l67 55h185l55 -70l-48 -205l-68 -55h-235zM222 645h149l15 69l-16 21h-123l-31 -26l-10 -43z" />
    <glyph glyph-name="uni2080" unicode="&#x2080;" horiz-adv-x="391" 
d="M43 -100l-60 78l42 185l83 67h155l59 -78l-42 -185l-83 -67h-154zM83 -35h93l42 34l30 133l-25 33h-93l-42 -34l-31 -134z" />
    <glyph glyph-name="uni2081" unicode="&#x2081;" horiz-adv-x="380" 
d="M-11 -100l15 65h90l46 200h-85l15 65h155l-61 -265h85l-15 -65h-245z" />
    <glyph glyph-name="uni2082" unicode="&#x2082;" horiz-adv-x="400" 
d="M-36 -100l30 133l77 62h159l29 24l6 23l-18 23h-212l15 65h236l53 -69l-18 -74l-69 -57h-159l-36 -29l-8 -36h235l-15 -65h-305z" />
    <glyph glyph-name="uni2083" unicode="&#x2083;" horiz-adv-x="394" 
d="M-36 -100l15 65h226l23 19l7 28l-18 23h-142l15 65h131l29 24l6 23l-14 18h-212l15 65h237l48 -63l-15 -65l-41 -33l33 -44l-17 -73l-63 -52h-263z" />
    <glyph glyph-name="uni2084" unicode="&#x2084;" horiz-adv-x="361" 
d="M120 -100l13 60h-210l16 70l233 200h94l-49 -210h45l-14 -60h-45l-13 -60h-70zM17 20h130l33 140h-3l-159 -136z" />
    <glyph glyph-name="uni2085" unicode="&#x2085;" horiz-adv-x="405" 
d="M-21 -100l15 65h207l28 24l8 34l-17 22h-203l43 185h275l-15 -65h-205l-13 -55h157l52 -68l-19 -84l-70 -58h-243z" />
    <glyph glyph-name="uni2086" unicode="&#x2086;" horiz-adv-x="396" 
d="M35 -100l-55 70l48 205l68 55h235l-15 -65h-194l-32 -26l-6 -24h175l50 -65l-22 -95l-67 -55h-185zM71 -35h123l31 26l10 43l-16 21h-149l-15 -69z" />
    <glyph glyph-name="uni2087" unicode="&#x2087;" horiz-adv-x="335" 
d="M32 -100l6 29l187 228l2 8h-197l15 65h290l-15 -64l-213 -266h-75z" />
    <glyph glyph-name="uni2088" unicode="&#x2088;" horiz-adv-x="409" 
d="M28 -100l-50 63l16 70l56 45l-27 35l15 65l64 52h185l48 -63l-15 -65l-43 -35l34 -45l-16 -70l-63 -52h-204zM112 97h113l30 24l6 26l-14 18h-123l-24 -19l-6 -26zM67 -35h143l23 19l7 31l-18 23h-133l-29 -24l-8 -31z" />
    <glyph glyph-name="uni2089" unicode="&#x2089;" horiz-adv-x="395" 
d="M-22 -100l15 65h194l32 26l6 24h-175l-50 65l22 95l67 55h185l55 -70l-48 -205l-68 -55h-235zM90 75h149l15 69l-16 21h-123l-31 -26l-10 -43z" />
    <glyph glyph-name="uni20A9" unicode="&#x20a9;" horiz-adv-x="944" 
d="M983 700l-8 -35l-90 -185h82l-19 -80h-102l-46 -95h126l-18 -80h-147l-109 -225h-150l-6 354h-4l-178 -354h-142l-7 225h-150l18 80h130l-3 95h-105l19 80h84l-6 185l8 35h84l12 -610h10l231 455v120l8 35h83l2 -610h10l292 610h91z" />
    <glyph glyph-name="Euro" unicode="&#x20ac;" horiz-adv-x="761" 
d="M237 0l-115 149l20 86h-90l19 80h90l16 70h-90l18 80h90l23 99l168 136h429l-20 -85h-380l-111 -90l-14 -60h305l-18 -80h-305l-16 -70h305l-19 -80h-305l-14 -63l67 -87h383l-20 -85h-416z" />
    <glyph glyph-name="uni20B4" unicode="&#x20b4;" horiz-adv-x="751" 
d="M81 380l18 80h440l62 50l13 58l-36 47h-343l20 85h371l87 -114l-24 -105l-26 -21h86l-18 -80h-650zM172 0l-88 114l25 105l26 21h-87l19 80h650l-19 -80h-440l-61 -50l-14 -58l37 -47h368l-20 -85h-396z" />
    <glyph glyph-name="uni20B8" unicode="&#x20b8;" horiz-adv-x="646" 
d="M86 620l19 80h625l-19 -80h-625zM208 0l111 480h-265l19 85h625l-19 -85h-265l-111 -480h-95z" />
    <glyph glyph-name="uni20B9" unicode="&#x20b9;" horiz-adv-x="680" 
d="M434 0l-380 243l28 122h316l86 70l6 22h-386l17 75h386l5 21l-56 72h-314l18 75h569l-18 -75h-146l45 -59l-8 -34h88l-17 -75h-88l-12 -51l-149 -121h-250l-5 -17l368 -233l-8 -35h-95z" />
    <glyph glyph-name="uni20BA" unicode="&#x20ba;" horiz-adv-x="655" 
d="M558 305h90l-39 -169l-167 -136h-382l58 251l-80 -26h-23l17 77l106 34l16 72l-80 -26h-23l19 77l104 34l48 207h95l-40 -174l278 91h23l-17 -77l-304 -99l-16 -71l278 90h23l-17 -77l-304 -99l-46 -199h246l107 87z" />
    <glyph glyph-name="uni20BD" unicode="&#x20bd;" horiz-adv-x="806" 
d="M88 0l22 95h-85l18 80h85l19 80h-85l18 80h85l85 365h466l107 -139l-42 -180l-155 -126h-384l-19 -80h380l-18 -80h-380l-22 -95h-95zM261 340h335l99 80l27 118l-59 77h-338z" />
    <glyph glyph-name="uni20BF" unicode="&#x20bf;" horiz-adv-x="780" 
d="M169 -100l23 100h-150l162 700h150l23 100h80l-23 -100h70l23 100h80l-23 -100h81l91 -119l-32 -140l-86 -70l80 -105l-34 -150l-143 -116h-119l-23 -100h-80l23 100h-70l-23 -100h-80zM231 405h325l80 65l20 88l-44 57h-333zM157 85h355l86 70l22 98l-51 67h-358z" />
    <glyph glyph-name="uni2113" unicode="&#x2113;" horiz-adv-x="440" 
d="M127 0l-49 64l35 151h-81l17 75h81l81 349l75 61h129l57 -74l-50 -213l-229 -197l-30 -129l9 -12h138l-17 -75h-166zM221 340h9l119 101l37 162l-17 22h-57l-30 -25z" />
    <glyph glyph-name="uni2116" unicode="&#x2116;" horiz-adv-x="1220" 
d="M42 0l162 700h164l203 -610h25l141 610h92l-162 -700h-164l-203 610h-25l-141 -610h-92zM950 370l-63 83l40 175l89 72h165l63 -83l-40 -175l-89 -72h-165zM992 440h103l42 34l28 123l-26 33h-103l-42 -34l-28 -123zM833 220l17 75h320l-17 -75h-320z" />
    <glyph glyph-name="uni2117" unicode="&#x2117;" horiz-adv-x="1050" 
d="M285 -40l-160 160v450l160 160h510l160 -160v-450l-160 -160h-510zM330 40h420l115 115v380l-115 115h-420l-115 -115v-380zM385 150v390h270l75 -75v-120l-75 -75h-185v-120h-85zM470 350h145l30 30v50l-30 30h-145v-110z" />
    <glyph glyph-name="trademark" unicode="&#x2122;" horiz-adv-x="990" 
d="M210 310v315h-145v75h370v-75h-145v-315h-80zM495 310v390h130l100 -245h5l100 245h130v-390h-80v315h-5l-105 -255h-85l-105 255h-5v-315h-80z" />
    <glyph glyph-name="uni2126" unicode="&#x2126;" horiz-adv-x="890" 
d="M130 0v80h120v12l-120 108v360l140 140h390l140 -140v-360l-120 -108v-12h120v-80h-250v90l155 145v290l-90 90h-300l-90 -90v-290l155 -145v-90h-250z" />
    <glyph glyph-name="estimated" unicode="&#x212e;" horiz-adv-x="850" 
d="M460 -20q-163 0 -271.5 104.5t-108.5 255.5t106.5 255.5t263.5 104.5t263.5 -105t106.5 -260h-576q-14 0 -14 -15v-202q0 -48 75 -80.5t155 -32.5q46 0 89.5 13t73 31t53 38.5t34.5 34t13 18.5h57q-5 -8 -17.5 -23t-42 -40t-64 -45.5t-87.5 -36t-109 -15.5zM244 360h412
q14 0 14 15v190q0 34 -39.5 60t-88.5 38t-92 12q-73 0 -146.5 -30.5t-73.5 -79.5v-190q0 -15 14 -15z" />
    <glyph glyph-name="uni2150" unicode="&#x2150;" horiz-adv-x="795" 
d="M98 370l15 65h90l46 200h-85l15 65h155l-61 -265h85l-15 -65h-245zM112 0l8 37l584 663h70l-8 -37l-584 -663h-70zM515 0l6 29l187 228l2 8h-197l15 65h290l-15 -64l-213 -266h-75z" />
    <glyph glyph-name="uni2151" unicode="&#x2151;" horiz-adv-x="855" 
d="M98 370l15 65h90l46 200h-85l15 65h155l-61 -265h85l-15 -65h-245zM112 0l8 37l584 663h70l-8 -37l-584 -663h-70zM461 0l15 65h194l32 26l6 24h-175l-50 65l22 95l67 55h185l55 -70l-48 -205l-68 -55h-235zM573 175h149l15 69l-16 21h-123l-31 -26l-10 -43z" />
    <glyph glyph-name="uni2152" unicode="&#x2152;" horiz-adv-x="1155" 
d="M98 370l15 65h90l46 200h-85l15 65h155l-61 -265h85l-15 -65h-245zM112 0l8 37l584 663h70l-8 -37l-584 -663h-70zM472 0l15 65h90l46 200h-85l15 65h155l-61 -265h85l-15 -65h-245zM830 0l-60 78l42 185l83 67h155l59 -78l-42 -185l-83 -67h-154zM870 65h93l42 34
l30 133l-25 33h-93l-42 -34l-31 -134z" />
    <glyph glyph-name="uni2153" unicode="&#x2153;" horiz-adv-x="854" 
d="M98 370l15 65h90l46 200h-85l15 65h155l-61 -265h85l-15 -65h-245zM112 0l8 37l584 663h70l-8 -37l-584 -663h-70zM447 0l15 65h226l23 19l7 28l-18 23h-142l15 65h131l29 24l6 23l-14 18h-212l15 65h237l48 -63l-15 -65l-41 -33l33 -44l-17 -73l-63 -52h-263z" />
    <glyph glyph-name="uni2154" unicode="&#x2154;" horiz-adv-x="874" 
d="M73 370l30 133l77 62h159l29 24l6 23l-18 23h-212l15 65h236l53 -69l-18 -74l-69 -57h-159l-36 -29l-8 -36h235l-15 -65h-305zM132 0l8 37l584 663h70l-8 -37l-584 -663h-70zM467 0l15 65h226l23 19l7 28l-18 23h-142l15 65h131l29 24l6 23l-14 18h-212l15 65h237l48 -63
l-15 -65l-41 -33l33 -44l-17 -73l-63 -52h-263z" />
    <glyph glyph-name="uni2155" unicode="&#x2155;" horiz-adv-x="865" 
d="M98 370l15 65h90l46 200h-85l15 65h155l-61 -265h85l-15 -65h-245zM112 0l8 37l584 663h70l-8 -37l-584 -663h-70zM462 0l15 65h207l28 24l8 34l-17 22h-203l43 185h275l-15 -65h-205l-13 -55h157l52 -68l-19 -84l-70 -58h-243z" />
    <glyph glyph-name="uni2156" unicode="&#x2156;" horiz-adv-x="885" 
d="M73 370l30 133l77 62h159l29 24l6 23l-18 23h-212l15 65h236l53 -69l-18 -74l-69 -57h-159l-36 -29l-8 -36h235l-15 -65h-305zM132 0l8 37l584 663h70l-8 -37l-584 -663h-70zM482 0l15 65h207l28 24l8 34l-17 22h-203l43 185h275l-15 -65h-205l-13 -55h157l52 -68
l-19 -84l-70 -58h-243z" />
    <glyph glyph-name="uni2157" unicode="&#x2157;" horiz-adv-x="879" 
d="M73 370l15 65h226l23 19l7 28l-18 23h-142l15 65h131l29 24l6 23l-14 18h-212l15 65h237l48 -63l-15 -65l-41 -33l33 -44l-17 -73l-63 -52h-263zM126 0l8 37l584 663h70l-8 -37l-584 -663h-70zM476 0l15 65h207l28 24l8 34l-17 22h-203l43 185h275l-15 -65h-205l-13 -55
h157l52 -68l-19 -84l-70 -58h-243z" />
    <glyph glyph-name="uni2158" unicode="&#x2158;" horiz-adv-x="846" 
d="M229 370l13 60h-210l16 70l233 200h94l-49 -210h45l-14 -60h-45l-13 -60h-70zM93 0l8 37l584 663h70l-8 -37l-584 -663h-70zM126 490h130l33 140h-3l-159 -136zM443 0l15 65h207l28 24l8 34l-17 22h-203l43 185h275l-15 -65h-205l-13 -55h157l52 -68l-19 -84l-70 -58
h-243z" />
    <glyph glyph-name="uni2159" unicode="&#x2159;" horiz-adv-x="856" 
d="M98 370l15 65h90l46 200h-85l15 65h155l-61 -265h85l-15 -65h-245zM112 0l8 37l584 663h70l-8 -37l-584 -663h-70zM518 0l-55 70l48 205l68 55h235l-15 -65h-194l-32 -26l-6 -24h175l50 -65l-22 -95l-67 -55h-185zM554 65h123l31 26l10 43l-16 21h-149l-15 -69z" />
    <glyph glyph-name="uni215A" unicode="&#x215a;" horiz-adv-x="881" 
d="M88 370l15 65h207l28 24l8 34l-17 22h-203l43 185h275l-15 -65h-205l-13 -55h157l52 -68l-19 -84l-70 -58h-243zM137 0l8 37l584 663h70l-8 -37l-584 -663h-70zM543 0l-55 70l48 205l68 55h235l-15 -65h-194l-32 -26l-6 -24h175l50 -65l-22 -95l-67 -55h-185zM579 65h123
l31 26l10 43l-16 21h-149l-15 -69z" />
    <glyph glyph-name="oneeighth" unicode="&#x215b;" horiz-adv-x="869" 
d="M98 370l15 65h90l46 200h-85l15 65h155l-61 -265h85l-15 -65h-245zM112 0l8 37l584 663h70l-8 -37l-584 -663h-70zM511 0l-50 63l16 70l56 45l-27 35l15 65l64 52h185l48 -63l-15 -65l-43 -35l34 -45l-16 -70l-63 -52h-204zM595 197h113l30 24l6 26l-14 18h-123l-24 -19
l-6 -26zM550 65h143l23 19l7 31l-18 23h-133l-29 -24l-8 -31z" />
    <glyph glyph-name="threeeighths" unicode="&#x215c;" horiz-adv-x="883" 
d="M73 370l15 65h226l23 19l7 28l-18 23h-142l15 65h131l29 24l6 23l-14 18h-212l15 65h237l48 -63l-15 -65l-41 -33l33 -44l-17 -73l-63 -52h-263zM126 0l8 37l584 663h70l-8 -37l-584 -663h-70zM525 0l-50 63l16 70l56 45l-27 35l15 65l64 52h185l48 -63l-15 -65l-43 -35
l34 -45l-16 -70l-63 -52h-204zM609 197h113l30 24l6 26l-14 18h-123l-24 -19l-6 -26zM564 65h143l23 19l7 31l-18 23h-133l-29 -24l-8 -31z" />
    <glyph glyph-name="fiveeighths" unicode="&#x215d;" horiz-adv-x="894" 
d="M88 370l15 65h207l28 24l8 34l-17 22h-203l43 185h275l-15 -65h-205l-13 -55h157l52 -68l-19 -84l-70 -58h-243zM137 0l8 37l584 663h70l-8 -37l-584 -663h-70zM536 0l-50 63l16 70l56 45l-27 35l15 65l64 52h185l48 -63l-15 -65l-43 -35l34 -45l-16 -70l-63 -52h-204z
M620 197h113l30 24l6 26l-14 18h-123l-24 -19l-6 -26zM575 65h143l23 19l7 31l-18 23h-133l-29 -24l-8 -31z" />
    <glyph glyph-name="seveneighths" unicode="&#x215e;" horiz-adv-x="824" 
d="M67 0l8 37l584 663h70l-8 -37l-584 -663h-70zM141 370l6 29l187 228l2 8h-197l15 65h290l-15 -64l-213 -266h-75zM466 0l-50 63l16 70l56 45l-27 35l15 65l64 52h185l48 -63l-15 -65l-43 -35l34 -45l-16 -70l-63 -52h-204zM550 197h113l30 24l6 26l-14 18h-123l-24 -19
l-6 -26zM505 65h143l23 19l7 31l-18 23h-133l-29 -24l-8 -31z" />
    <glyph glyph-name="uni215F" unicode="&#x215f;" horiz-adv-x="460" 
d="M98 370l15 65h90l46 200h-85l15 65h155l-61 -265h85l-15 -65h-245zM112 0l8 37l584 663h70l-8 -37l-584 -663h-70z" />
    <glyph glyph-name="arrowleft" unicode="&#x2190;" horiz-adv-x="1040" 
d="M440 45l-305 305l305 305l55 -55l-200 -200v-10h650v-80h-650v-10l200 -200z" />
    <glyph glyph-name="arrowup" unicode="&#x2191;" horiz-adv-x="1040" 
d="M495 -50v650h-10l-200 -200l-55 55l305 305l305 -305l-55 -55l-200 200h-10v-650h-80z" />
    <glyph glyph-name="arrowright" unicode="&#x2192;" horiz-adv-x="1040" 
d="M645 45l-55 55l200 200v10h-650v80h650v10l-200 200l55 55l305 -305z" />
    <glyph glyph-name="arrowdown" unicode="&#x2193;" horiz-adv-x="1040" 
d="M535 -60l-305 305l55 55l200 -200h10v650h80v-650h10l200 200l55 -55z" />
    <glyph glyph-name="arrowboth" unicode="&#x2194;" horiz-adv-x="1040" 
d="M390 45l-305 305l305 305l55 -55l-200 -200v-10h600v10l-200 200l55 55l305 -305l-305 -305l-55 55l200 200v10h-600v-10l200 -200z" />
    <glyph glyph-name="uni2196" unicode="&#x2196;" horiz-adv-x="1040" 
d="M809 39l-459 459l-7 -7v-283h-78v432h431v-78h-283l-7 -7l460 -460z" />
    <glyph glyph-name="uni2197" unicode="&#x2197;" horiz-adv-x="1040" 
d="M266 39l-57 56l460 460l-7 7h-283v78h431v-432h-78v283l-7 7z" />
    <glyph glyph-name="uni2198" unicode="&#x2198;" horiz-adv-x="1040" 
d="M379 60v78h283l7 7l-460 460l57 56l459 -459l7 7v283h78v-432h-431z" />
    <glyph glyph-name="uni2199" unicode="&#x2199;" horiz-adv-x="1040" 
d="M265 60v432h78v-283l7 -7l459 459l57 -56l-460 -460l7 -7h283v-78h-431z" />
    <glyph glyph-name="partialdiff" unicode="&#x2202;" horiz-adv-x="610" 
d="M190 0l-115 115v225l115 115h270v60l-100 100h-225v85h265l150 -150v-425l-125 -125h-235zM230 85h155l75 75v210h-230l-65 -65v-155z" />
    <glyph glyph-name="emptyset" unicode="&#x2205;" horiz-adv-x="888" 
d="M822 720v-40l-66 -73l47 -47v-420l-140 -140h-390l-36 36l-51 -56h-72v40l66 73l-47 47v420l140 140h390l36 -36l51 56h72zM228 525v-350l14 -14l395 435l-19 19h-300zM708 175v350l-14 14l-395 -435l19 -19h300z" />
    <glyph glyph-name="uni2206" unicode="&#x2206;" horiz-adv-x="711" 
d="M50 0v91l247 609h97l247 -609v-91h-591zM156 90h382v15l-185 467h-12l-185 -467v-15z" />
    <glyph glyph-name="product" unicode="&#x220f;" horiz-adv-x="815" 
d="M230 -100v715h-90v85h615v-85h-90v-715h-95v715h-245v-715h-95z" />
    <glyph glyph-name="summation" unicode="&#x2211;" horiz-adv-x="615" 
d="M75 -100v110l275 292v10l-275 278v110h520v-85h-405v-15l257 -260v-60l-262 -280v-15h415v-85h-525z" />
    <glyph glyph-name="minus" unicode="&#x2212;" horiz-adv-x="580" 
d="M65 310v80h490v-80h-490z" />
    <glyph glyph-name="radical" unicode="&#x221a;" horiz-adv-x="710" 
d="M280 -110l-107 270h-113v90h180l100 -260h15l285 820h85v-30l-310 -890h-135z" />
    <glyph glyph-name="infinity" unicode="&#x221e;" horiz-adv-x="906" 
d="M175 150l-85 85v180l85 85h175l123 -123l123 123h175l85 -85v-180l-85 -85h-175l-123 123l-123 -123h-175zM215 225h106l100 100l-100 100h-106l-45 -45v-110zM625 225h106l45 45v110l-45 45h-106l-100 -100z" />
    <glyph glyph-name="integral" unicode="&#x222b;" horiz-adv-x="390" 
d="M60 -100v80h100l10 10v750l60 60h140v-80h-100l-10 -10v-750l-60 -60h-140z" />
    <glyph glyph-name="approxequal" unicode="&#x2248;" horiz-adv-x="580" 
d="M83 365v75l65 65h145l70 -70h75l25 25v45h75v-75l-65 -65h-140l-70 70h-80l-25 -25v-45h-75zM83 200v75l65 65h145l70 -70h75l25 25v45h75v-75l-65 -65h-140l-70 70h-80l-25 -25v-45h-75z" />
    <glyph glyph-name="notequal" unicode="&#x2260;" horiz-adv-x="580" 
d="M545 405h-170l-47 -110h217v-80h-251l-49 -115h-75v19l41 96h-136v80h170l47 110h-217v80h251l49 115h75v-19l-41 -96h136v-80z" />
    <glyph glyph-name="lessequal" unicode="&#x2264;" horiz-adv-x="460" 
d="M335 120l-290 290l290 290l58 -58l-233 -232l233 -232zM45 0v80h390v-80h-390z" />
    <glyph glyph-name="greaterequal" unicode="&#x2265;" horiz-adv-x="460" 
d="M135 120l-58 58l233 232l-233 232l58 58l290 -290zM425 0h-390v80h390v-80z" />
    <glyph glyph-name="uni2460" unicode="&#x2460;" horiz-adv-x="1030" 
d="M295 -60l-180 180v450l180 180h480l180 -180v-450l-180 -180h-480zM340 15h390l140 140v380l-140 140h-390l-140 -140v-380zM430 180v65h90v200h-85v65h155v-265h85v-65h-245z" />
    <glyph glyph-name="uni2461" unicode="&#x2461;" horiz-adv-x="1030" 
d="M295 -60l-180 180v450l180 180h480l180 -180v-450l-180 -180h-480zM340 15h390l140 140v380l-140 140h-390l-140 -140v-380zM390 180v130l65 65h155l25 25v20l-25 25h-210v65h245l60 -60v-80l-60 -60h-155l-30 -30v-35h235v-65h-305z" />
    <glyph glyph-name="uni2462" unicode="&#x2462;" horiz-adv-x="1030" 
d="M295 -60l-180 180v450l180 180h480l180 -180v-450l-180 -180h-480zM340 15h390l140 140v380l-140 140h-390l-140 -140v-380zM390 180v65h225l20 20v25l-25 25h-140v65h130l25 25v20l-20 20h-210v65h245l55 -55v-70l-31 -31l41 -41v-78l-55 -55h-260z" />
    <glyph glyph-name="uni2463" unicode="&#x2463;" horiz-adv-x="1030" 
d="M295 -60l-180 180v450l180 180h480l180 -180v-450l-180 -180h-480zM340 15h390l140 140v380l-140 140h-390l-140 -140v-380zM570 180v60h-210v60l195 210h85v-210h45v-60h-45v-60h-70zM440 300h130v140h-5l-125 -135v-5z" />
    <glyph glyph-name="uni2464" unicode="&#x2464;" horiz-adv-x="1030" 
d="M295 -60l-180 180v450l180 180h480l180 -180v-450l-180 -180h-480zM340 15h390l140 140v380l-140 140h-390l-140 -140v-380zM395 180v65h205l25 25v30l-25 25h-200v185h275v-65h-205v-55h165l60 -60v-90l-60 -60h-240z" />
    <glyph glyph-name="uni2465" unicode="&#x2465;" horiz-adv-x="1030" 
d="M295 -60l-180 180v450l180 180h480l180 -180v-450l-180 -180h-480zM340 15h390l140 140v380l-140 140h-390l-140 -140v-380zM440 180l-60 60v210l60 60h230v-65h-195l-25 -25v-25h185l55 -55v-100l-60 -60h-190zM475 245h120l25 25v40l-25 25h-145v-65z" />
    <glyph glyph-name="uni2466" unicode="&#x2466;" horiz-adv-x="1030" 
d="M295 -60l-180 180v450l180 180h480l180 -180v-450l-180 -180h-480zM340 15h390l140 140v380l-140 140h-390l-140 -140v-380zM458 180v25l137 233v7h-200v65h290v-60l-154 -270h-73z" />
    <glyph glyph-name="uni2467" unicode="&#x2467;" horiz-adv-x="1030" 
d="M295 -60l-180 180v450l180 180h480l180 -180v-450l-180 -180h-480zM340 15h390l140 140v380l-140 140h-390l-140 -140v-380zM430 180l-55 55v75l42 42l-32 33v70l55 55h190l55 -55v-70l-32 -33l42 -42v-75l-55 -55h-210zM480 377h110l25 25v23l-20 20h-120l-20 -20v-23z
M465 245h140l20 20v28l-25 25h-130l-25 -25v-28z" />
    <glyph glyph-name="uni2468" unicode="&#x2468;" horiz-adv-x="1030" 
d="M295 -60l-180 180v450l180 180h480l180 -180v-450l-180 -180h-480zM340 15h390l140 140v380l-140 140h-390l-140 -140v-380zM400 180v65h195l25 25v25h-185l-55 55v100l60 60h190l60 -60v-210l-60 -60h-230zM475 355h145v65l-25 25h-120l-25 -25v-40z" />
    <glyph glyph-name="uni2469" unicode="&#x2469;" horiz-adv-x="1030" 
d="M295 -60l-180 180v450l180 180h480l180 -180v-450l-180 -180h-480zM340 15h390l140 140v380l-140 140h-390l-140 -140v-380zM285 180v65h70v200h-65v65h135v-265h60v-65h-200zM575 180l-70 70v190l70 70h150l70 -70v-190l-70 -70h-150zM610 245h80l35 35v130l-35 35h-80
l-35 -35v-130z" />
    <glyph glyph-name="uni24EA" unicode="&#x24ea;" horiz-adv-x="1030" 
d="M295 -60l-180 180v450l180 180h480l180 -180v-450l-180 -180h-480zM340 15h390l140 140v380l-140 140h-390l-140 -140v-380zM455 180l-70 70v190l70 70h160l70 -70v-190l-70 -70h-160zM490 245h90l35 35v130l-35 35h-90l-35 -35v-130z" />
    <glyph glyph-name="uni24FF" unicode="&#x24ff;" horiz-adv-x="1030" 
d="M295 -60l-180 180v450l180 180h480l180 -180v-450l-180 -180h-480zM450 180h170l70 70v190l-70 70h-170l-70 -70v-190zM485 245l-35 35v130l35 35h100l35 -35v-130l-35 -35h-100z" />
    <glyph glyph-name="lozenge" unicode="&#x25ca;" horiz-adv-x="585" 
d="M277 0l-212 350l212 350h81l212 -350l-212 -350h-81zM311 85h12l162 265l-162 265h-12l-161 -265z" />
    <glyph glyph-name="uni2776" unicode="&#x2776;" horiz-adv-x="1030" 
d="M295 -60l-180 180v450l180 180h480l180 -180v-450l-180 -180h-480zM430 180h245v65h-85v265h-155v-65h85v-200h-90v-65z" />
    <glyph glyph-name="uni2777" unicode="&#x2777;" horiz-adv-x="1030" 
d="M295 -60l-180 180v450l180 180h480l180 -180v-450l-180 -180h-480zM390 180h305v65h-235v35l30 30h155l60 60v80l-60 60h-245v-65h210l25 -25v-20l-25 -25h-155l-65 -65v-130z" />
    <glyph glyph-name="uni2778" unicode="&#x2778;" horiz-adv-x="1030" 
d="M295 -60l-180 180v450l180 180h480l180 -180v-450l-180 -180h-480zM390 180h260l55 55v75l-42 42l32 33v70l-55 55h-245v-65h210l20 -20v-20l-25 -25h-130v-65h140l25 -25v-25l-20 -20h-225v-65z" />
    <glyph glyph-name="uni2779" unicode="&#x2779;" horiz-adv-x="1030" 
d="M295 -60l-180 180v450l180 180h480l180 -180v-450l-180 -180h-480zM570 180h70v60h45v65h-45v205h-85l-205 -210v-60h220v-60zM440 305v5l125 130h5v-135h-130z" />
    <glyph glyph-name="uni277A" unicode="&#x277a;" horiz-adv-x="1030" 
d="M295 -60l-180 180v450l180 180h480l180 -180v-450l-180 -180h-480zM395 180h240l60 60v90l-60 60h-165v55h205v65h-275v-185h200l25 -25v-30l-25 -25h-205v-65z" />
    <glyph glyph-name="uni277B" unicode="&#x277b;" horiz-adv-x="1030" 
d="M295 -60l-180 180v450l180 180h480l180 -180v-450l-180 -180h-480zM440 180h190l60 60v100l-55 55h-185v25l25 25h195v65h-230l-60 -60v-210zM475 245l-25 25v65h145l25 -25v-40l-25 -25h-120z" />
    <glyph glyph-name="uni277C" unicode="&#x277c;" horiz-adv-x="1030" 
d="M295 -60l-180 180v450l180 180h480l180 -180v-450l-180 -180h-480zM459 180h71l155 270v60h-290v-65h200v-5l-136 -235v-25z" />
    <glyph glyph-name="uni277D" unicode="&#x277d;" horiz-adv-x="1030" 
d="M295 -60l-180 180v450l180 180h480l180 -180v-450l-180 -180h-480zM430 180h210l55 55v75l-42 42l32 33v70l-55 55h-190l-55 -55v-70l32 -33l-42 -42v-75zM480 377l-25 25v23l20 20h120l20 -20v-23l-25 -25h-110zM465 245l-20 20v28l25 25h130l25 -25v-28l-20 -20h-140z
" />
    <glyph glyph-name="uni277E" unicode="&#x277e;" horiz-adv-x="1030" 
d="M295 -60l-180 180v450l180 180h480l180 -180v-450l-180 -180h-480zM400 180h230l60 60v210l-60 60h-190l-60 -60v-100l55 -55h185v-25l-25 -25h-195v-65zM475 355l-25 25v40l25 25h120l25 -25v-65h-145z" />
    <glyph glyph-name="uni277F" unicode="&#x277f;" horiz-adv-x="1030" 
d="M295 -60l-180 180v450l180 180h480l180 -180v-450l-180 -180h-480zM282 180h198v65h-58v265h-135v-65h65v-200h-70v-65zM580 180h148l70 70v190l-70 70h-148l-70 -70v-190zM615 245l-35 35v130l35 35h78l35 -35v-130l-35 -35h-78z" />
    <glyph glyph-name="uni2B6E" unicode="&#x2b6e;" horiz-adv-x="1040" 
d="M330 0l-110 110v388l110 110h210v10l-82 77l53 52l179 -179l-181 -181l-53 52l84 79v10h-180l-60 -60v-328l60 -60h340l60 60v332h80v-362l-110 -110h-400z" />
    <glyph glyph-name="uni2B80" unicode="&#x2b80;" horiz-adv-x="1040" 
d="M321 355l-181 180l180 180l53 -53l-83 -77v-14h510v15l-82 77l53 52l179 -179l-181 -181l-53 52l84 79v13h-510v-14l84 -77zM321 -15l-181 180l180 180l53 -53l-83 -77v-14h510v15l-82 77l53 52l179 -179l-181 -181l-53 52l84 79v13h-510v-14l84 -77z" />
    <glyph glyph-name="uni2B81" unicode="&#x2b81;" horiz-adv-x="1040" 
d="M299 0v575h-10l-134 -135l-55 55l239 240l244 -244l-55 -55l-139 139h-10v-575h-80zM736 -35l-239 240l55 55l134 -135h10v575h80v-575h10l139 139l55 -55z" />
    <glyph glyph-name="uni2B82" unicode="&#x2b82;" horiz-adv-x="1040" 
d="M686 307l-55 55l139 139v10h-575v80h575v10l-135 134l55 55l240 -239zM404 -90l-244 244l240 239l55 -55l-135 -134v-10h575v-80h-575v-10l139 -139z" />
    <glyph glyph-name="uni2B83" unicode="&#x2b83;" horiz-adv-x="1040" 
d="M701 0v575h-10l-139 -139l-55 55l244 244l239 -240l-55 -55l-134 135h-10v-575h-80zM344 -35l-244 244l55 55l139 -139h10v575h80v-575h10l134 135l55 -55z" />
    <glyph glyph-name="brevecombcy.case" unicode="&#xf6d1;" 
d="M-170 755l-48 63l15 67h75l-11 -48l13 -17h133l25 20l10 45h75l-18 -78l-64 -52h-205z" />
    <glyph glyph-name="brevecomb-cy" unicode="&#xf6d4;" 
d="M-210 560l-48 63l22 97h75l-18 -78l13 -17h128l25 20l17 75h75l-25 -108l-64 -52h-200z" />
    <glyph glyph-name="zero.osf" unicode="&#xf730;" horiz-adv-x="635" 
d="M131 0l-95 124l61 265l136 111h270l96 -124l-61 -265l-137 -111h-270zM179 85h198l80 65l46 203l-47 62h-198l-80 -65l-47 -203z" />
    <glyph glyph-name="one.osf" unicode="&#xf731;" horiz-adv-x="485" 
d="M-33 0l20 85h200l76 330h-175l19 85h265l-95 -415h185l-20 -85h-475z" />
    <glyph glyph-name="two.osf" unicode="&#xf732;" horiz-adv-x="590" 
d="M-13 0l45 194l118 96h269l49 40l12 53l-28 37h-348l18 80h381l73 -94l-27 -115l-100 -81h-269l-67 -55l-16 -70h400l-20 -85h-490z" />
    <glyph glyph-name="three.osf" unicode="&#xf733;" horiz-adv-x="559" 
d="M-60 -140l18 80h315l86 70l18 78l-51 67h-223l18 80h205l80 65l15 63l-44 57h-298l18 80h331l88 -114l-26 -115l-92 -75l72 -95l-30 -130l-136 -111h-364z" />
    <glyph glyph-name="four.osf" unicode="&#xf734;" horiz-adv-x="610" 
d="M320 -140l37 160h-375l28 123l403 357h139l-92 -400h90l-18 -80h-90l-37 -160h-85zM85 100h290l74 320h-11l-350 -309z" />
    <glyph glyph-name="five.osf" unicode="&#xf735;" horiz-adv-x="584" 
d="M-30 -140l18 80h310l86 70l23 98l-52 67h-293l75 325h420l-18 -80h-330l-38 -165h236l95 -124l-37 -160l-136 -111h-359z" />
    <glyph glyph-name="six.osf" unicode="&#xf736;" horiz-adv-x="616" 
d="M482 425l95 -124l-43 -190l-137 -111h-275l-95 124l42 186l328 330h93l-7 -29l-174 -176l-3 -10h176zM453 150l29 128l-51 67h-212l-68 -68l-29 -130l48 -62h203z" />
    <glyph glyph-name="seven.osf" unicode="&#xf737;" horiz-adv-x="570" 
d="M71 -140l46 201l340 280l17 74h-420l19 85h510l-46 -199l-339 -280l-37 -161h-90z" />
    <glyph glyph-name="eight.osf" unicode="&#xf738;" horiz-adv-x="640" 
d="M116 0l-84 109l35 150l105 85l-51 65l33 140l112 91h275l80 -104l-33 -140l-80 -64l66 -86l-35 -150l-118 -96h-305zM254 370h183l68 55l20 88l-36 47h-193l-61 -50l-21 -88zM167 80h223l68 55l23 98l-44 57h-213l-74 -60l-23 -98z" />
    <glyph glyph-name="nine.osf" unicode="&#xf739;" horiz-adv-x="615" 
d="M493 500l96 -124l-43 -185l-328 -331h-93l7 29l175 176l2 10h-176l-95 124l44 190l136 111h275zM464 223l29 130l-47 62h-203l-80 -65l-30 -128l52 -67h211z" />
    <glyph glyph-name="A_A" horiz-adv-x="1575" 
d="M1354 700l156 -665l-8 -35h-83l-44 190h-408l-131 -190h-182l-44 190h-408l-131 -190h-94l8 35l459 665h145l149 -635h33l438 635h145zM261 275h330l-78 340h-18zM1026 275h330l-78 340h-18z" />
    <glyph glyph-name="Adieresis_Adieresis" horiz-adv-x="1575" 
d="M509 870l-23 -100h-100l23 100h100zM704 870l-23 -100h-100l23 100h100zM1274 870l-23 -100h-100l23 100h100zM1469 870l-23 -100h-100l23 100h100zM1354 700l156 -665l-8 -35h-83l-44 190h-408l-131 -190h-182l-44 190h-408l-131 -190h-94l8 35l459 665h145l149 -635h33
l438 635h145zM261 275h330l-78 340h-18zM1026 275h330l-78 340h-18z" />
    <glyph glyph-name="E_E" horiz-adv-x="1430" 
d="M42 0l162 700h575l-20 -85h-480l-51 -220h370l-19 -85h-370l-53 -228h605l143 618h580l-20 -85h-485l-51 -220h375l-19 -85h-375l-53 -228h495l-19 -82h-1290z" />
    <glyph glyph-name="F_l" horiz-adv-x="915" 
d="M42 0l162 700h735l-162 -700h-90l142 615h-550l-57 -245h365l-19 -85h-365l-66 -285h-95z" />
    <glyph glyph-name="M_M" horiz-adv-x="1715" 
d="M42 0l162 700h168l114 -470h18l332 470h246l114 -470h18l332 470h173l-162 -700h-95l141 610h-14l-332 -470h-136l-114 470h-19l-141 -610h-95l141 610h-14l-332 -470h-136l-114 470h-19l-141 -610h-95z" />
    <glyph glyph-name="N_N" horiz-adv-x="1398" 
d="M42 0l162 700h158l229 -610h25l141 610h158l229 -610h25l141 610h92l-162 -700h-158l-229 610h-25l-141 -610h-158l-229 610h-25l-141 -610h-92z" />
    <glyph glyph-name="T_T" horiz-adv-x="1260" 
d="M217 0l142 615h-275l20 85h1240l-20 -85h-275l-142 -615h-95l142 615h-500l-142 -615h-95z" />
    <glyph glyph-name="_ijdotless" horiz-adv-x="481" 
d="M-28 -200l19 85h225l19 15l138 600h90l-147 -639l-75 -61h-269zM18 0l115 500h90l-115 -500h-90z" />
    <glyph glyph-name="snglring" horiz-adv-x="1030" 
d="M304 -60l-180 180v450l180 180h480l180 -180v-450l-180 -180h-480zM349 15h390l140 140v380l-140 140h-390l-140 -140v-380z" />
    <glyph glyph-name="i.loclTRK" horiz-adv-x="241" 
d="M151 600l23 100h100l-23 -100h-100zM18 0l115 500h90l-115 -500h-90z" />
    <glyph glyph-name="j.alt" horiz-adv-x="241" 
d="M151 600l23 100h100l-23 -100h-100zM-28 -200l161 700h90l-161 -700h-90z" />
    <glyph glyph-name="jcircumflex.alt" horiz-adv-x="241" 
d="M16 560l6 24l155 146h94l85 -144l-6 -26h-72l-57 105h-11l-107 -105h-87zM-28 -200l161 700h90l-161 -700h-90z" />
    <glyph glyph-name="uni0237.alt" horiz-adv-x="241" 
d="M-28 -200l161 700h90l-161 -700h-90z" />
    <glyph glyph-name="uni0308.alt" 
d="M-204 600l23 100h100l-23 -100h-100zM-49 600l23 100h100l-23 -100h-100z" />
    <glyph glyph-name="uni0308.alt.case" 
d="M-165 770l23 100h100l-23 -100h-100zM-10 770l23 100h100l-23 -100h-100z" />
    <glyph glyph-name="uni030C.alt" 
d="M-60 550l4 19l45 161h92l-4 -15l-74 -165h-63z" />
    <glyph glyph-name="uni0328.alt" 
d="M-233 -198l-43 55l20 85l130 105l31 -47l-95 -77l-10 -44l5 -7h78l-16 -70h-100z" />
    <glyph glyph-name="uni0492.balt" horiz-adv-x="655" 
d="M719 615h-440l-57 -248h320l-18 -80h-321l-66 -287h-95l162 700h535z" />
    <glyph glyph-name="uni0493.balt" horiz-adv-x="471" 
d="M494 415h-290l-35 -153h214l-17 -75h-215l-43 -187h-90l115 500h380z" />
    <glyph glyph-name="uni04AA.balt" horiz-adv-x="711" 
d="M350 615l-111 -90l-81 -353l67 -87h398l-20 -85h-210l-16 -27l-2 -8h35l42 -55l-15 -64l-56 -46h-154l14 60h121l11 9l5 24l-9 12h-88l7 30l35 65h-151l-115 149l96 415l168 136h444l-20 -85h-395z" />
    <glyph glyph-name="uni04AB.balt" horiz-adv-x="550" 
d="M258 415l-80 -65l-47 -203l48 -62h283l-20 -85h-146l-16 -27l-2 -8h35l42 -55l-15 -64l-56 -46h-154l14 60h121l11 9l5 24l-9 12h-88l7 30l35 65h-95l-95 124l61 265l136 111h324l-19 -85h-280z" />
    <glyph glyph-name="colon.calt" horiz-adv-x="286" 
d="M135 465l27 115h115l-27 -115h-115zM46 80l27 115h115l-27 -115h-115z" />
    <glyph glyph-name="parenleft.case" horiz-adv-x="385" 
d="M123 -145l-88 114l172 745l124 101h124l-19 -85h-75l-68 -55l-158 -683l40 -52h78l-19 -85h-111z" />
    <glyph glyph-name="parenright.case" horiz-adv-x="385" 
d="M-31 -145l19 85h75l68 55l158 683l-40 52h-78l19 85h111l88 -114l-172 -745l-124 -101h-124z" />
    <glyph glyph-name="hyphen.case" horiz-adv-x="440" 
d="M80 295l21 90h300l-21 -90h-300z" />
    <glyph glyph-name="at.case" horiz-adv-x="985" 
d="M177 -65l-130 169l109 475l192 156h510l130 -169l-76 -330l-118 -96h-135l-44 58l-71 -58h-160l-80 104l45 195l112 91h269l-62 -268l32 -42h63l62 50l63 273l-82 107h-428l-136 -110l-95 -413l82 -107h538l-19 -85h-571zM435 220h88l56 45l42 185h-130l-61 -50l-31 -133
z" />
    <glyph glyph-name="bracketleft.case" horiz-adv-x="390" 
d="M9 -145l221 960h230l-19 -85h-135l-183 -790h135l-19 -85h-230z" />
    <glyph glyph-name="bracketright.case" horiz-adv-x="390" 
d="M-31 -145l19 85h135l183 790h-135l19 85h230l-221 -960h-230z" />
    <glyph glyph-name="braceleft.case" horiz-adv-x="415" 
d="M158 -145l-88 114l75 324h-80l19 84h80l78 337l124 101h119l-19 -85h-70l-68 -55l-158 -683l40 -52h73l-19 -85h-106z" />
    <glyph glyph-name="braceright.case" horiz-adv-x="415" 
d="M-31 -145l19 85h70l68 55l158 683l-40 52h-73l19 85h106l88 -114l-75 -324h80l-19 -84h-80l-78 -337l-124 -101h-119z" />
    <glyph glyph-name="exclamdown.case" horiz-adv-x="335" 
d="M187 585l27 115h115l-27 -115h-115zM62 0l78 340l52 160h65l-22 -160l-78 -340h-95z" />
    <glyph glyph-name="guillemotleft.case" horiz-adv-x="610" 
d="M217 70l-159 260l279 260l56 -53l-233 -217l125 -205zM452 70l-159 260l279 260l56 -53l-233 -217l125 -205z" />
    <glyph glyph-name="periodcentered.case" horiz-adv-x="340" 
d="M123 295l27 115h115l-27 -115h-115z" />
    <glyph glyph-name="guillemotright.case" horiz-adv-x="612" 
d="M76 70l-57 53l234 218l-126 204l69 45l159 -260zM311 70l-57 53l234 218l-126 204l69 45l159 -260z" />
    <glyph glyph-name="questiondown.case" horiz-adv-x="670" 
d="M422 585l27 115h115l-27 -115h-115zM151 0l-99 129l38 165l143 116h143l17 14l17 76h100l-27 -119l-69 -56h-152l-86 -70l-24 -103l52 -67h358l-20 -85h-391z" />
    <glyph glyph-name="gravecomb.case" 
d="M14 755l-42 130l1 5h92l23 -130l-1 -5h-73z" />
    <glyph glyph-name="acutecomb.case" 
d="M-58 755l4 14l77 121h95l-3 -13l-96 -122h-77z" />
    <glyph glyph-name="uni0302.case" 
d="M-247 755l6 24l145 106h94l95 -104l-6 -26h-77l-59 70h-11l-91 -70h-96z" />
    <glyph glyph-name="tildecomb.case" 
d="M-269 755l16 69l63 51h102l47 -55h52l19 15l9 40h75l-16 -69l-63 -51h-112l-47 55h-42l-18 -15l-10 -40h-75z" />
    <glyph glyph-name="uni0304.case" 
d="M-212 783l17 75h305l-17 -75h-305z" />
    <glyph glyph-name="uni0306.case" 
d="M-170 755l-48 63l15 67h75l-11 -48l13 -17h133l25 20l10 45h75l-18 -78l-64 -52h-205z" />
    <glyph glyph-name="uni0307.case" 
d="M-10 770l23 100h100l-23 -100h-100z" />
    <glyph glyph-name="uni0308.case" 
d="M-205 770l23 100h100l-23 -100h-100zM-10 770l23 100h100l-23 -100h-100z" />
    <glyph glyph-name="uni030A.case" 
d="M-94 730l-51 64l23 97l61 49h126l49 -65l-22 -95l-61 -50h-125zM-65 790h73l27 22l11 52l-12 16h-73l-26 -21l-12 -52z" />
    <glyph glyph-name="uni030B.case" 
d="M-199 755l5 16l66 119h90l-3 -13l-86 -122h-72zM-44 755l5 16l66 119h91l-3 -12l-86 -123h-73z" />
    <glyph glyph-name="uni030C.case" 
d="M-126 755l-96 106l5 24h78l59 -70h11l91 70h95l-6 -26l-143 -104h-94z" />
    <glyph glyph-name="endash.case" horiz-adv-x="601" 
d="M62 300l19 80h500l-19 -80h-500z" />
    <glyph glyph-name="emdash.case" horiz-adv-x="951" 
d="M62 300l19 80h850l-19 -80h-850z" />
    <glyph glyph-name="bullet.case" horiz-adv-x="375" 
d="M129 290l30 130h135l-30 -130h-135z" />
    <glyph glyph-name="guilsinglleft.case" horiz-adv-x="417" 
d="M262 70l-204 260l324 260l50 -65l-261 -205l158 -196z" />
    <glyph glyph-name="guilsinglright.case" horiz-adv-x="417" 
d="M71 70l-50 65l260 205l-158 195l68 55l204 -260z" />
    <glyph glyph-name="dollar.dnom" horiz-adv-x="315" 
d="M67 -50l11 50h-115l15 65h196l24 19l7 31l-14 18h-139l-52 68l16 72l71 57h68l11 50h60l-11 -50h100l-15 -65h-196l-24 -19l-7 -30l14 -18h139l52 -68l-17 -73l-70 -57h-53l-11 -50h-60z" />
    <glyph glyph-name="zero.dnom" horiz-adv-x="391" 
d="M66 0l-60 78l42 185l83 67h155l59 -78l-42 -185l-83 -67h-154zM106 65h93l42 34l30 133l-25 33h-93l-42 -34l-31 -134z" />
    <glyph glyph-name="one.dnom" horiz-adv-x="380" 
d="M12 0l15 65h90l46 200h-85l15 65h155l-61 -265h85l-15 -65h-245z" />
    <glyph glyph-name="two.dnom" horiz-adv-x="400" 
d="M-13 0l30 133l77 62h159l29 24l6 23l-18 23h-212l15 65h236l53 -69l-18 -74l-69 -57h-159l-36 -29l-8 -36h235l-15 -65h-305z" />
    <glyph glyph-name="three.dnom" horiz-adv-x="394" 
d="M-13 0l15 65h226l23 19l7 28l-18 23h-142l15 65h131l29 24l6 23l-14 18h-212l15 65h237l48 -63l-15 -65l-41 -33l33 -44l-17 -73l-63 -52h-263z" />
    <glyph glyph-name="four.dnom" horiz-adv-x="361" 
d="M143 0l13 60h-210l16 70l233 200h94l-49 -210h45l-14 -60h-45l-13 -60h-70zM40 120h130l33 140h-3l-159 -136z" />
    <glyph glyph-name="five.dnom" horiz-adv-x="405" 
d="M2 0l15 65h207l28 24l8 34l-17 22h-203l43 185h275l-15 -65h-205l-13 -55h157l52 -68l-19 -84l-70 -58h-243z" />
    <glyph glyph-name="six.dnom" horiz-adv-x="396" 
d="M58 0l-55 70l48 205l68 55h235l-15 -65h-194l-32 -26l-6 -24h175l50 -65l-22 -95l-67 -55h-185zM94 65h123l31 26l10 43l-16 21h-149l-15 -69z" />
    <glyph glyph-name="seven.dnom" horiz-adv-x="335" 
d="M55 0l6 29l187 228l2 8h-197l15 65h290l-15 -64l-213 -266h-75z" />
    <glyph glyph-name="eight.dnom" horiz-adv-x="409" 
d="M51 0l-50 63l16 70l56 45l-27 35l15 65l64 52h185l48 -63l-15 -65l-43 -35l34 -45l-16 -70l-63 -52h-204zM135 197h113l30 24l6 26l-14 18h-123l-24 -19l-6 -26zM90 65h143l23 19l7 31l-18 23h-133l-29 -24l-8 -31z" />
    <glyph glyph-name="nine.dnom" horiz-adv-x="395" 
d="M1 0l15 65h194l32 26l6 24h-175l-50 65l22 95l67 55h185l55 -70l-48 -205l-68 -55h-235zM113 175h149l15 69l-16 21h-123l-31 -26l-10 -43z" />
    <glyph glyph-name="cent.dnom" horiz-adv-x="291" 
d="M82 -25l12 50h-51l-65 84l31 135l88 71h64l11 50h60l-11 -50h85l-15 -65h-85l-37 -160h85l-15 -65h-85l-12 -50h-60zM75 90h34l37 160h-29l-44 -36l-22 -93z" />
    <glyph glyph-name="sterling.dnom" horiz-adv-x="305" 
d="M-50 0l15 65h50l17 70h-45l13 60h45l20 81l67 54h165l-15 -65h-129l-26 -21l-12 -49h130l-13 -60h-130l-17 -70h170l-15 -65h-290z" />
    <glyph glyph-name="yen.dnom" horiz-adv-x="348" 
d="M362 330l-3 -10l-138 -165h61l-10 -45h-89l-9 -11l-4 -19h95l-10 -45h-95l-9 -35h-70l9 35h-95l10 45h95l5 21l-3 9h-90l10 45h63l-63 165l3 10h66l55 -160h9l129 160h78z" />
    <glyph glyph-name="florin.dnom" horiz-adv-x="272" 
d="M205 265l-18 -15l-24 -65h71l-14 -60h-79l-54 -148l-62 -49h-92l15 65h62l18 15l43 117h-56l14 60h65l36 98l58 47h95l-15 -65h-63z" />
    <glyph glyph-name="uni20A9.dnom" horiz-adv-x="447" 
d="M426 185h-60l-23 -45h73l-11 -45h-84l-48 -95h-86l5 123h-3l-60 -123h-78l-2 95h-80l11 45h68l-1 45h-57l11 45h46l-2 85l4 15h55l-2 -265h7l88 181l5 69l4 15h51l-17 -265h7l128 265h60l-4 -15l-43 -85h49z" />
    <glyph glyph-name="Euro.dnom" horiz-adv-x="325" 
d="M67 0l-61 80l7 30h-45l9 40h45l7 30h-45l9 40h45l10 43l83 67h203l-15 -65h-164l-44 -36l-3 -9h135l-9 -40h-135l-7 -30h135l-9 -40h-135l-3 -14l23 -31h169l-15 -65h-190z" />
    <glyph glyph-name="uni20B4.dnom" horiz-adv-x="356" 
d="M-5 180l10 45h240l8 33l-5 7h-198l15 65h216l45 -59l-11 -46h25l-10 -45h-335zM37 0l-45 59l11 46h-25l10 45h335l-10 -45h-240l-8 -33l5 -7h198l-15 -65h-216z" />
    <glyph glyph-name="uni20B8.dnom" horiz-adv-x="291" 
d="M8 285l11 45h290l-11 -45h-290zM52 0l44 190h-110l15 65h290l-15 -65h-110l-44 -190h-70z" />
    <glyph glyph-name="uni20B9.dnom" horiz-adv-x="355" 
d="M161 0l-182 114l14 61h205l18 15l4 15h-220l10 45h220l4 15l-18 15h-199l12 50h335l-11 -45h-45l-2 -10l-6 -25h45l-10 -45h-45l-8 -33l-58 -47h-143l-1 -8l165 -92l-6 -25h-78z" />
    <glyph glyph-name="uni20BA.dnom" horiz-adv-x="340" 
d="M238 130h65l-18 -77l-66 -53h-216l25 107l-36 -12h-22l10 44l60 19l7 31l-36 -12h-22l10 44l60 19l21 90h70l-15 -65l122 39h22l-10 -44l-146 -47l-7 -30l122 39h22l-10 -44l-147 -47l-15 -66h115l25 20z" />
    <glyph glyph-name="uni20BD.dnom" horiz-adv-x="345" 
d="M-8 0l10 40h-45l10 45h45l6 25h-45l10 45h45l41 175h217l52 -68l-22 -95l-70 -57h-158l-6 -25h155l-10 -45h-155l-10 -40h-70zM102 170h126l22 19l15 58l-14 18h-127z" />
    <glyph glyph-name="uni20BF.dnom" horiz-adv-x="336" 
d="M12 -50l11 50h-65l77 330h65l11 50h60l-11 -50h30l11 50h60l-11 -50h22l48 -63l-15 -65l-33 -27l32 -43l-19 -80l-64 -52h-48l-11 -50h-60l11 50h-30l-11 -50h-60zM75 200h145l18 15l9 38l-9 12h-148zM43 65h160l19 15l11 48l-9 12h-163z" />
    <glyph glyph-name="Iacute_J.loclNLD" horiz-adv-x="1051" 
d="M326 755l4 14l77 121h95l-3 -13l-96 -122h-77zM844 755l4 14l77 121h95l-3 -13l-96 -122h-77zM3 0l18 80h140l125 540h-140l19 80h375l-19 -80h-140l-125 -540h140l-18 -80h-375zM468 0l20 85h265l92 75l105 455h-295l20 85h390l-134 -579l-149 -121h-314z" />
    <glyph glyph-name="iacute_j.loclNLD" horiz-adv-x="481" 
d="M155 560l5 15l95 160h96l-4 -15l-123 -160h-69zM395 560l5 15l95 160h96l-4 -15l-123 -160h-69zM-28 -200l19 85h225l19 15l138 600h90l-147 -639l-75 -61h-269zM18 0l115 500h90l-115 -500h-90z" />
    <glyph glyph-name="dollar.numr" horiz-adv-x="315" 
d="M152 320l11 50h-115l15 65h196l24 19l7 31l-14 18h-139l-52 68l16 72l71 57h68l11 50h60l-11 -50h100l-15 -65h-196l-24 -19l-7 -30l14 -18h139l52 -68l-17 -73l-70 -57h-53l-11 -50h-60z" />
    <glyph glyph-name="zero.numr" horiz-adv-x="391" 
d="M152 370l-60 78l42 185l83 67h155l59 -78l-42 -185l-83 -67h-154zM192 435h93l42 34l30 133l-25 33h-93l-42 -34l-31 -134z" />
    <glyph glyph-name="one.numr" horiz-adv-x="380" 
d="M98 370l15 65h90l46 200h-85l15 65h155l-61 -265h85l-15 -65h-245z" />
    <glyph glyph-name="two.numr" horiz-adv-x="400" 
d="M73 370l30 133l77 62h159l29 24l6 23l-18 23h-212l15 65h236l53 -69l-18 -74l-69 -57h-159l-36 -29l-8 -36h235l-15 -65h-305z" />
    <glyph glyph-name="three.numr" horiz-adv-x="394" 
d="M73 370l15 65h226l23 19l7 28l-18 23h-142l15 65h131l29 24l6 23l-14 18h-212l15 65h237l48 -63l-15 -65l-41 -33l33 -44l-17 -73l-63 -52h-263z" />
    <glyph glyph-name="four.numr" horiz-adv-x="361" 
d="M229 370l13 60h-210l16 70l233 200h94l-49 -210h45l-14 -60h-45l-13 -60h-70zM126 490h130l33 140h-3l-159 -136z" />
    <glyph glyph-name="five.numr" horiz-adv-x="405" 
d="M88 370l15 65h207l28 24l8 34l-17 22h-203l43 185h275l-15 -65h-205l-13 -55h157l52 -68l-19 -84l-70 -58h-243z" />
    <glyph glyph-name="six.numr" horiz-adv-x="396" 
d="M144 370l-55 70l48 205l68 55h235l-15 -65h-194l-32 -26l-6 -24h175l50 -65l-22 -95l-67 -55h-185zM180 435h123l31 26l10 43l-16 21h-149l-15 -69z" />
    <glyph glyph-name="seven.numr" horiz-adv-x="335" 
d="M141 370l6 29l187 228l2 8h-197l15 65h290l-15 -64l-213 -266h-75z" />
    <glyph glyph-name="eight.numr" horiz-adv-x="409" 
d="M137 370l-50 63l16 70l56 45l-27 35l15 65l64 52h185l48 -63l-15 -65l-43 -35l34 -45l-16 -70l-63 -52h-204zM221 567h113l30 24l6 26l-14 18h-123l-24 -19l-6 -26zM176 435h143l23 19l7 31l-18 23h-133l-29 -24l-8 -31z" />
    <glyph glyph-name="nine.numr" horiz-adv-x="395" 
d="M87 370l15 65h194l32 26l6 24h-175l-50 65l22 95l67 55h185l55 -70l-48 -205l-68 -55h-235zM199 545h149l15 69l-16 21h-123l-31 -26l-10 -43z" />
    <glyph glyph-name="cent.numr" horiz-adv-x="291" 
d="M165 335l12 50h-51l-65 84l31 135l88 71h64l11 50h60l-11 -50h85l-15 -65h-85l-37 -160h85l-15 -65h-85l-12 -50h-60zM158 450h34l37 160h-29l-44 -36l-22 -93z" />
    <glyph glyph-name="sterling.numr" horiz-adv-x="305" 
d="M35 370l15 65h50l17 70h-45l13 60h45l20 81l67 54h165l-15 -65h-129l-26 -21l-12 -49h130l-13 -60h-130l-17 -70h170l-15 -65h-290z" />
    <glyph glyph-name="yen.numr" horiz-adv-x="348" 
d="M442 700l-3 -10l-138 -165h61l-10 -45h-89l-9 -11l-4 -19h95l-10 -45h-95l-9 -35h-70l9 35h-95l10 45h95l5 21l-3 9h-90l10 45h63l-63 165l3 10h66l55 -160h9l129 160h78z" />
    <glyph glyph-name="florin.numr" horiz-adv-x="272" 
d="M290 635l-18 -15l-24 -65h71l-14 -60h-79l-54 -148l-62 -49h-92l15 65h62l18 15l43 117h-56l14 60h65l36 98l58 47h95l-15 -65h-63z" />
    <glyph glyph-name="uni20A9.numr" horiz-adv-x="447" 
d="M507 555h-60l-23 -45h73l-11 -45h-84l-48 -95h-86l5 123h-3l-60 -123h-78l-2 95h-80l11 45h68l-1 45h-57l11 45h46l-2 85l4 15h55l-2 -265h7l88 181l5 69l4 15h51l-17 -265h7l128 265h60l-4 -15l-43 -85h49z" />
    <glyph glyph-name="Euro.numr" horiz-adv-x="325" 
d="M152 370l-61 80l7 30h-45l9 40h45l7 30h-45l9 40h45l10 43l83 67h203l-15 -65h-164l-44 -36l-3 -9h135l-9 -40h-135l-7 -30h135l-9 -40h-135l-3 -14l23 -31h169l-15 -65h-190z" />
    <glyph glyph-name="uni20B4.numr" horiz-adv-x="356" 
d="M80 550l10 45h240l8 33l-5 7h-198l15 65h216l45 -59l-11 -46h25l-10 -45h-335zM122 370l-45 59l11 46h-25l10 45h335l-10 -45h-240l-8 -33l5 -7h198l-15 -65h-216z" />
    <glyph glyph-name="uni20B8.numr" horiz-adv-x="291" 
d="M89 655l11 45h290l-11 -45h-290zM133 370l44 190h-110l15 65h290l-15 -65h-110l-44 -190h-70z" />
    <glyph glyph-name="uni20B9.numr" horiz-adv-x="355" 
d="M246 370l-182 114l14 61h205l18 15l4 15h-220l10 45h220l4 15l-18 15h-199l12 50h335l-11 -45h-45l-2 -10l-6 -25h45l-10 -45h-45l-8 -33l-58 -47h-143l-1 -8l165 -92l-6 -25h-78z" />
    <glyph glyph-name="uni20BA.numr" horiz-adv-x="340" 
d="M323 500h65l-18 -77l-66 -53h-216l25 107l-36 -12h-22l10 44l60 19l7 31l-36 -12h-22l10 44l60 19l21 90h70l-15 -65l122 39h22l-10 -44l-146 -47l-7 -30l122 39h22l-10 -44l-147 -47l-15 -66h115l25 20z" />
    <glyph glyph-name="uni20BD.numr" horiz-adv-x="345" 
d="M77 370l10 40h-45l10 45h45l6 25h-45l10 45h45l41 175h217l52 -68l-22 -95l-70 -57h-158l-6 -25h155l-10 -45h-155l-10 -40h-70zM187 540h126l22 19l15 58l-14 18h-127z" />
    <glyph glyph-name="uni20BF.numr" horiz-adv-x="336" 
d="M97 320l11 50h-65l77 330h65l11 50h60l-11 -50h30l11 50h60l-11 -50h22l48 -63l-15 -65l-33 -27l32 -43l-19 -80l-64 -52h-48l-11 -50h-60l11 50h-30l-11 -50h-60zM160 570h145l18 15l9 38l-9 12h-148zM128 435h160l19 15l11 48l-9 12h-163z" />
    <glyph glyph-name="plus.osf" horiz-adv-x="580" 
d="M250 0v210h-210v80h210v210h80v-210h210v-80h-210v-210h-80z" />
    <glyph glyph-name="zero.osf.zero" horiz-adv-x="635" 
d="M503 500l96 -124l-61 -265l-137 -111h-270l-95 124l61 265l136 111h270zM258 415l-80 -65l-42 -183l348 211l-28 37h-198zM377 85l80 65l41 182l-348 -210l29 -37h198z" />
    <glyph glyph-name="less.osf" horiz-adv-x="408" 
d="M290 0l-250 250l250 250l57 -57l-192 -192l193 -193z" />
    <glyph glyph-name="equal.osf" horiz-adv-x="580" 
d="M60 305v80h470v-80h-470zM60 115v80h470v-80h-470z" />
    <glyph glyph-name="greater.osf" horiz-adv-x="408" 
d="M118 0l-58 58l193 193l-192 192l57 57l250 -250z" />
    <glyph glyph-name="asciitilde.osf" horiz-adv-x="580" 
d="M63 180v75l65 65h145l70 -70h75l25 25v45h75v-75l-65 -65h-140l-70 70h-80l-25 -25v-45h-75z" />
    <glyph glyph-name="logicalnot.osf" horiz-adv-x="580" 
d="M440 145v90h-390v80h470v-170h-80z" />
    <glyph glyph-name="plusminus.osf" horiz-adv-x="580" 
d="M50 0v80h195v160h-195v80h195v180h80v-180h195v-80h-195v-160h195v-80h-470z" />
    <glyph glyph-name="multiply.osf" horiz-adv-x="580" 
d="M115 15l-54 54l179 180l-179 180l54 54l180 -179l180 180l54 -55l-179 -180l179 -180l-54 -54l-180 179z" />
    <glyph glyph-name="divide.osf" horiz-adv-x="580" 
d="M240 395v105h100v-105h-100zM45 210v80h490v-80h-490zM240 0v105h100v-105h-100z" />
    <glyph glyph-name="minus.osf" horiz-adv-x="580" 
d="M45 210v80h490v-80h-490z" />
    <glyph glyph-name="approxequal.osf" horiz-adv-x="580" 
d="M63 265v75l65 65h145l70 -70h75l25 25v45h75v-75l-65 -65h-140l-70 70h-80l-25 -25v-45h-75zM63 100v75l65 65h145l70 -70h75l25 25v45h75v-75l-65 -65h-140l-70 70h-80l-25 -25v-45h-75z" />
    <glyph glyph-name="notequal.osf" horiz-adv-x="580" 
d="M530 305h-170l-47 -110h217v-80h-251l-49 -115h-75v19l41 96h-136v80h170l47 110h-217v80h251l49 115h75v-19l-41 -96h136v-80z" />
    <glyph glyph-name="lessequal.osf" horiz-adv-x="400" 
d="M250 110l-195 200l195 190l57 -57l-137 -138l138 -137zM335 0h-280v80h280v-80z" />
    <glyph glyph-name="greaterequal.osf" horiz-adv-x="400" 
d="M140 110l-58 58l138 137l-137 138l57 57l195 -190zM55 0v80h280v-80h-280z" />
    <glyph glyph-name="I.ss01" horiz-adv-x="295" 
d="M42 0l162 700h95l-162 -700h-95z" />
    <glyph glyph-name="Igrave.ss01" horiz-adv-x="295" 
d="M225 755l-42 130l1 5h92l23 -130l-1 -5h-73zM42 0l162 700h95l-162 -700h-95z" />
    <glyph glyph-name="Iacute.ss01" horiz-adv-x="295" 
d="M225 755l4 14l77 121h95l-3 -13l-96 -122h-77zM42 0l162 700h95l-162 -700h-95z" />
    <glyph glyph-name="Icircumflex.ss01" horiz-adv-x="295" 
d="M89 755l6 24l145 106h94l95 -104l-6 -26h-77l-59 70h-11l-91 -70h-96zM42 0l162 700h95l-162 -700h-95z" />
    <glyph glyph-name="Idieresis.ss01" horiz-adv-x="295" 
d="M141 770l23 100h100l-23 -100h-100zM296 770l23 100h100l-23 -100h-100zM42 0l162 700h95l-162 -700h-95z" />
    <glyph glyph-name="Imacron.ss01" horiz-adv-x="295" 
d="M119 783l17 75h305l-17 -75h-305zM42 0l162 700h95l-162 -700h-95z" />
    <glyph glyph-name="Ibreve.ss01" horiz-adv-x="295" 
d="M163 755l-48 63l15 67h75l-11 -48l13 -17h133l25 20l10 45h75l-18 -78l-64 -52h-205zM42 0l162 700h95l-162 -700h-95z" />
    <glyph glyph-name="Iogonek.ss01" horiz-adv-x="295" 
d="M137 0l-111 -78l-10 -43l6 -9h77l-16 -70h-101l-42 54l22 96l81 55l161 695h95z" />
    <glyph glyph-name="Idotaccent.ss01" horiz-adv-x="295" 
d="M218 770l23 100h100l-23 -100h-100zM42 0l162 700h95l-162 -700h-95z" />
    <glyph glyph-name="IJ.ss01" horiz-adv-x="746" 
d="M43 0l20 85h385l92 75l105 455h-265l20 85h360l-134 -579l-149 -121h-434zM83 175l122 525h95l-122 -525h-95z" />
    <glyph glyph-name="uni0406.ss01" horiz-adv-x="295" 
d="M42 0l162 700h95l-162 -700h-95z" />
    <glyph glyph-name="uni0407.ss01" horiz-adv-x="295" 
d="M141 770l23 100h100l-23 -100h-100zM296 770l23 100h100l-23 -100h-100zM42 0l162 700h95l-162 -700h-95z" />
    <glyph glyph-name="Iacute_J_loclNLD.ss01" horiz-adv-x="746" 
d="M226 755l4 14l77 121h95l-3 -13l-96 -122h-77zM553 755l4 14l77 121h95l-3 -13l-96 -122h-77zM43 0l20 85h385l92 75l105 455h-265l20 85h360l-134 -579l-149 -121h-434zM83 175l122 525h95l-122 -525h-95z" />
    <glyph glyph-name="a.ss02" horiz-adv-x="625" 
d="M131 0l-95 124l61 265l136 111h374l-115 -500h-70l12 50h-16l-72 -50h-215zM179 85h158l101 70l60 260h-240l-80 -65l-47 -203z" />
    <glyph glyph-name="agrave.ss02" horiz-adv-x="625" 
d="M372 560l-52 171l1 4h97l18 -171l-1 -4h-63zM131 0l-95 124l61 265l136 111h374l-115 -500h-70l12 50h-16l-72 -50h-215zM179 85h158l101 70l60 260h-240l-80 -65l-47 -203z" />
    <glyph glyph-name="aacute.ss02" horiz-adv-x="625" 
d="M369 560l5 15l95 160h96l-4 -15l-123 -160h-69zM131 0l-95 124l61 265l136 111h374l-115 -500h-70l12 50h-16l-72 -50h-215zM179 85h158l101 70l60 260h-240l-80 -65l-47 -203z" />
    <glyph glyph-name="acircumflex.ss02" horiz-adv-x="625" 
d="M230 560l6 24l155 146h94l85 -144l-6 -26h-72l-57 105h-11l-107 -105h-87zM131 0l-95 124l61 265l136 111h374l-115 -500h-70l12 50h-16l-72 -50h-215zM179 85h158l101 70l60 260h-240l-80 -65l-47 -203z" />
    <glyph glyph-name="atilde.ss02" horiz-adv-x="625" 
d="M224 565l23 99l63 51h112l51 -85h40l20 16l16 69h75l-23 -99l-63 -51h-112l-51 85h-40l-19 -16l-17 -69h-75zM131 0l-95 124l61 265l136 111h374l-115 -500h-70l12 50h-16l-72 -50h-215zM179 85h158l101 70l60 260h-240l-80 -65l-47 -203z" />
    <glyph glyph-name="adieresis.ss02" horiz-adv-x="625" 
d="M268 600l23 100h100l-23 -100h-100zM463 600l23 100h100l-23 -100h-100zM131 0l-95 124l61 265l136 111h374l-115 -500h-70l12 50h-16l-72 -50h-215zM179 85h158l101 70l60 260h-240l-80 -65l-47 -203z" />
    <glyph glyph-name="aring.ss02" horiz-adv-x="625" 
d="M341 550l-50 66l27 115l61 49h126l49 -66l-27 -115l-61 -49h-125zM371 610h74l24 20l17 74l-12 16h-74l-24 -20l-17 -74zM131 0l-95 124l61 265l136 111h374l-115 -500h-70l12 50h-16l-72 -50h-215zM179 85h158l101 70l60 260h-240l-80 -65l-47 -203z" />
    <glyph glyph-name="amacron.ss02" horiz-adv-x="625" 
d="M266 613l17 75h305l-17 -75h-305zM131 0l-95 124l61 265l136 111h374l-115 -500h-70l12 50h-16l-72 -50h-215zM179 85h158l101 70l60 260h-240l-80 -65l-47 -203z" />
    <glyph glyph-name="abreve.ss02" horiz-adv-x="625" 
d="M306 560l-48 63l22 97h75l-18 -78l13 -17h128l25 20l17 75h75l-25 -108l-64 -52h-200zM131 0l-95 124l61 265l136 111h374l-115 -500h-70l12 50h-16l-72 -50h-215zM179 85h158l101 70l60 260h-240l-80 -65l-47 -203z" />
    <glyph glyph-name="aogonek.ss02" horiz-adv-x="625" 
d="M492 0l-111 -78l-10 -43l6 -9h77l-16 -70h-101l-42 54l22 96l111 76l6 24h-16l-72 -50h-215l-95 124l61 265l136 111h374zM337 85l101 70l60 260h-240l-80 -65l-47 -203l48 -62h158z" />
    <glyph glyph-name="uni0430.ss02" horiz-adv-x="625" 
d="M131 0l-95 124l61 265l136 111h374l-115 -500h-70l12 50h-16l-72 -50h-215zM179 85h158l101 70l60 260h-240l-80 -65l-47 -203z" />
    <glyph glyph-name="uni04D3.ss02" horiz-adv-x="625" 
d="M268 600l23 100h100l-23 -100h-100zM463 600l23 100h100l-23 -100h-100zM131 0l-95 124l61 265l136 111h374l-115 -500h-70l12 50h-16l-72 -50h-215zM179 85h158l101 70l60 260h-240l-80 -65l-47 -203z" />
    <glyph glyph-name="l.ss03" horiz-adv-x="250" 
d="M22 0l162 700h90l-162 -700h-90z" />
    <glyph glyph-name="lacute.ss03" horiz-adv-x="250" 
d="M202 755l4 14l77 121h95l-3 -13l-96 -122h-77zM22 0l162 700h90l-162 -700h-90z" />
    <glyph glyph-name="uni013C.ss03" horiz-adv-x="250" 
d="M22 0l162 700h90l-162 -700h-90zM-22 -245l39 100h-38l25 110h110l-23 -100l-66 -110h-47z" />
    <glyph glyph-name="lcaron.ss03" horiz-adv-x="250" 
d="M297 550l4 19l45 161h92l-4 -15l-74 -165h-63zM22 0l162 700h90l-162 -700h-90z" />
    <glyph glyph-name="ldot.ss03" horiz-adv-x="365" 
d="M22 0l162 700h90l-162 -700h-90zM259 292l27 115h115l-27 -115h-115z" />
    <glyph glyph-name="lslash.ss03" horiz-adv-x="290" 
d="M354 486l-18 -79l-127 -74l-77 -333h-90l63 272l-96 -56h-27l18 79l128 74l76 331h90l-62 -270l95 56h27z" />
    <glyph glyph-name="uni0438.ss04" horiz-adv-x="611" 
d="M132 0l-88 114l89 386h90l-83 -363l40 -52h157l84 59l82 356h90l-115 -500h-70l9 40h-13l-58 -40h-214z" />
    <glyph glyph-name="uni0439.ss04" horiz-adv-x="611" 
d="M277 560l-48 63l22 97h75l-18 -78l13 -17h128l25 20l17 75h75l-25 -108l-64 -52h-200zM132 0l-88 114l89 386h90l-83 -363l40 -52h157l84 59l82 356h90l-115 -500h-70l9 40h-13l-58 -40h-214z" />
    <glyph glyph-name="uni045D.ss04" horiz-adv-x="611" 
d="M343 560l-52 171l1 4h97l18 -171l-1 -4h-63zM132 0l-88 114l89 386h90l-83 -363l40 -52h157l84 59l82 356h90l-115 -500h-70l9 40h-13l-58 -40h-214z" />
    <glyph glyph-name="uni04E3.ss04" horiz-adv-x="611" 
d="M237 613l17 75h305l-17 -75h-305zM132 0l-88 114l89 386h90l-83 -363l40 -52h157l84 59l82 356h90l-115 -500h-70l9 40h-13l-58 -40h-214z" />
    <glyph glyph-name="dollar.tf" horiz-adv-x="715" 
d="M234 -100l23 100h-245l20 85h430l73 60l27 113l-44 57h-324l-92 119l37 160l131 106h149l23 100h80l-23 -100h225l-20 -85h-405l-74 -60l-22 -98l43 -57h324l92 -119l-41 -175l-130 -106h-154l-23 -100h-80z" />
    <glyph glyph-name="zero.tf" horiz-adv-x="715" 
d="M137 0l-115 149l96 415l168 136h340l114 -149l-96 -415l-167 -136h-340zM190 85h258l110 90l82 353l-67 87h-258l-111 -90l-81 -353z" />
    <glyph glyph-name="zero.tf.zero" horiz-adv-x="715" 
d="M626 700l114 -149l-96 -415l-167 -136h-340l-115 149l96 415l168 136h340zM315 615l-111 -90l-68 -295l500 303l-63 82h-258zM448 85l110 90l68 294l-499 -302l63 -82h258z" />
    <glyph glyph-name="one.tf" horiz-adv-x="715" 
d="M17 0l20 85h245l122 530h-220l20 85h315l-142 -615h235l-20 -85h-575z" />
    <glyph glyph-name="two.tf" horiz-adv-x="715" 
d="M7 0l59 254l155 126h304l74 60l27 118l-44 57h-408l20 85h441l91 -119l-41 -180l-131 -106h-304l-98 -80l-29 -125h485l-21 -90h-580z" />
    <glyph glyph-name="three.tf" horiz-adv-x="715" 
d="M-3 0l20 85h420l86 70l22 98l-51 67h-278l20 85h255l86 70l19 83l-44 57h-403l20 85h436l91 -119l-31 -135l-95 -77l75 -98l-36 -155l-143 -116h-469z" />
    <glyph glyph-name="four.tf" horiz-adv-x="715" 
d="M433 0l33 145h-460l29 125l507 430h148l-109 -470h95l-20 -85h-95l-33 -145h-95zM126 230h360l88 380h-14l-431 -365z" />
    <glyph glyph-name="five.tf" horiz-adv-x="715" 
d="M2 0l20 85h420l86 70l29 128l-51 67h-398l81 350h530l-20 -85h-435l-42 -180h336l100 -129l-44 -190l-143 -116h-469z" />
    <glyph glyph-name="six.tf" horiz-adv-x="715" 
d="M131 0l-99 129l99 430l174 141h419l-20 -85h-370l-117 -95l-20 -85h386l100 -129l-44 -190l-143 -116h-365zM184 85h283l86 70l29 128l-51 67h-353l-46 -198z" />
    <glyph glyph-name="seven.tf" horiz-adv-x="715" 
d="M177 0l56 244l375 280l20 86h-490l21 90h585l-51 -219l-375 -280l-46 -201h-95z" />
    <glyph glyph-name="eight.tf" horiz-adv-x="715" 
d="M119 0l-99 129l36 155l120 98l-60 77l31 135l131 106h355l91 -119l-31 -135l-95 -77l75 -98l-36 -155l-143 -116h-375zM266 405h253l86 70l19 83l-44 57h-273l-74 -60l-19 -83zM172 85h293l86 70l22 98l-51 67h-293l-86 -70l-23 -98z" />
    <glyph glyph-name="nine.tf" horiz-adv-x="715" 
d="M37 0l20 85h370l117 95l19 85h-386l-99 129l44 190l143 116h365l99 -129l-99 -430l-174 -141h-419zM230 350h353l46 198l-52 67h-283l-86 -70l-30 -128z" />
    <glyph glyph-name="cent.tf" horiz-adv-x="715" 
d="M276 -90l21 90h-101l-95 124l61 265l136 111h114l21 90h85l-21 -90h155l-19 -85h-155l-76 -330h155l-20 -85h-155l-21 -90h-85zM244 85h73l76 330h-70l-80 -65l-47 -203z" />
    <glyph glyph-name="sterling.tf" horiz-adv-x="715" 
d="M12 0l20 85h135l53 232h-95l19 80h95l44 192l137 111h309l-20 -85h-265l-74 -60l-36 -158h265l-19 -80h-265l-53 -232h365l-20 -85h-595z" />
    <glyph glyph-name="yen.tf" horiz-adv-x="715" 
d="M796 700l-8 -35l-311 -340h170l-18 -80h-225l-18 -75h225l-18 -80h-225l-21 -90h-95l21 90h-225l18 80h225l18 75h-225l18 80h171l-155 340l8 35h83l156 -345h22l315 345h94z" />
    <glyph glyph-name="florin.tf" horiz-adv-x="715" 
d="M526 615l-18 -15l-46 -150h150l-20 -85h-156l-153 -504l-75 -61h-191l19 85h143l19 15l142 465h-108l20 85h113l58 189l75 61h191l-20 -85h-143z" />
    <glyph glyph-name="uni20A9.tf" horiz-adv-x="715" 
d="M740 400h-94l-37 -95h109l-18 -80h-121l-86 -225h-144l27 303h-6l-120 -303h-140l18 225h-123l18 80h111l7 95h-96l19 80h84l14 185l8 35h75l-49 -610h13l178 449l11 126l8 35h75l-54 -610h15l231 610h82l-8 -35l-71 -185h83z" />
    <glyph glyph-name="Euro.tf" horiz-adv-x="715" 
d="M202 0l-115 149l20 86h-90l19 80h90l16 70h-90l18 80h90l23 99l168 136h429l-20 -85h-380l-111 -90l-14 -60h305l-18 -80h-305l-16 -70h305l-19 -80h-305l-14 -63l67 -87h383l-20 -85h-416z" />
    <glyph glyph-name="uni20B4.tf" horiz-adv-x="715" 
d="M63 380l18 80h440l62 50l13 58l-36 47h-343l20 85h371l87 -114l-24 -105l-26 -21h86l-18 -80h-650zM154 0l-88 114l25 105l26 21h-87l19 80h650l-19 -80h-440l-61 -50l-14 -58l37 -47h368l-20 -85h-396z" />
    <glyph glyph-name="uni20B8.tf" horiz-adv-x="715" 
d="M131 620l19 80h625l-19 -80h-625zM253 0l111 480h-265l19 85h625l-19 -85h-265l-111 -480h-95z" />
    <glyph glyph-name="uni20B9.tf" horiz-adv-x="715" 
d="M454 0l-380 243l28 122h316l86 70l6 22h-386l17 75h386l5 21l-56 72h-314l18 75h569l-18 -75h-146l45 -59l-8 -34h88l-17 -75h-88l-12 -51l-149 -121h-250l-5 -17l368 -233l-8 -35h-95z" />
    <glyph glyph-name="uni20BA.tf" horiz-adv-x="715" 
d="M588 305h90l-39 -169l-167 -136h-382l58 251l-80 -26h-23l17 77l106 34l16 72l-80 -26h-23l19 77l104 34l48 207h95l-40 -174l278 91h23l-17 -77l-304 -99l-16 -71l278 90h23l-17 -77l-304 -99l-46 -199h246l107 87z" />
    <glyph glyph-name="uni20BD.tf" horiz-adv-x="715" 
d="M43 0l22 95h-85l18 80h85l19 80h-85l18 80h85l85 365h466l107 -139l-42 -180l-155 -126h-384l-19 -80h380l-18 -80h-380l-22 -95h-95zM216 340h335l99 80l27 118l-59 77h-338z" />
    <glyph glyph-name="uni20BF.tf" horiz-adv-x="715" 
d="M129 -100l23 100h-150l162 700h150l23 100h80l-23 -100h70l23 100h80l-23 -100h81l91 -119l-32 -140l-86 -70l80 -105l-34 -150l-143 -116h-119l-23 -100h-80l23 100h-70l-23 -100h-80zM191 405h325l80 65l20 88l-44 57h-333zM117 85h355l86 70l22 98l-51 67h-358z" />
    <glyph glyph-name="zero.tosf" horiz-adv-x="595" 
d="M111 0l-95 124l61 265l136 111h270l96 -124l-61 -265l-137 -111h-270zM159 85h198l80 65l46 203l-47 62h-198l-80 -65l-47 -203z" />
    <glyph glyph-name="zero.tosf.zero" horiz-adv-x="595" 
d="M483 500l96 -124l-61 -265l-137 -111h-270l-95 124l61 265l136 111h270zM238 415l-80 -65l-42 -183l348 211l-28 37h-198zM357 85l80 65l41 182l-348 -210l29 -37h198z" />
    <glyph glyph-name="one.tosf" horiz-adv-x="595" 
d="M7 0l20 85h200l76 330h-175l19 85h265l-95 -415h185l-20 -85h-475z" />
    <glyph glyph-name="two.tosf" horiz-adv-x="595" 
d="M2 0l45 194l118 96h269l49 40l12 53l-28 37h-348l18 80h381l73 -94l-27 -115l-100 -81h-269l-67 -55l-16 -70h400l-20 -85h-490z" />
    <glyph glyph-name="three.tosf" horiz-adv-x="595" 
d="M-40 -140l18 80h315l86 70l18 78l-51 67h-223l18 80h205l80 65l15 63l-44 57h-298l18 80h331l88 -114l-26 -115l-92 -75l72 -95l-30 -130l-136 -111h-364z" />
    <glyph glyph-name="four.tosf" horiz-adv-x="595" 
d="M305 -140l37 160h-375l28 123l403 357h139l-92 -400h90l-18 -80h-90l-37 -160h-85zM70 100h290l74 320h-11l-350 -309z" />
    <glyph glyph-name="five.tosf" horiz-adv-x="595" 
d="M-30 -140l18 80h310l86 70l23 98l-52 67h-293l75 325h420l-18 -80h-330l-38 -165h236l95 -124l-37 -160l-136 -111h-359z" />
    <glyph glyph-name="six.tosf" horiz-adv-x="595" 
d="M472 425l95 -124l-43 -190l-137 -111h-275l-95 124l42 186l328 330h93l-7 -29l-174 -176l-3 -10h176zM443 150l29 128l-51 67h-212l-68 -68l-29 -130l48 -62h203z" />
    <glyph glyph-name="seven.tosf" horiz-adv-x="595" 
d="M96 -140l46 201l340 280l17 74h-420l19 85h510l-46 -199l-339 -280l-37 -161h-90z" />
    <glyph glyph-name="eight.tosf" horiz-adv-x="595" 
d="M94 0l-84 109l35 150l105 85l-51 65l33 140l112 91h275l80 -104l-33 -140l-80 -64l66 -86l-35 -150l-118 -96h-305zM232 370h183l68 55l20 88l-36 47h-193l-61 -50l-21 -88zM145 80h223l68 55l23 98l-44 57h-213l-74 -60l-23 -98z" />
    <glyph glyph-name="nine.tosf" horiz-adv-x="595" 
d="M483 500l96 -124l-43 -185l-328 -331h-93l7 29l175 176l2 10h-176l-95 124l44 190l136 111h275zM454 223l29 130l-47 62h-203l-80 -65l-30 -128l52 -67h211z" />
    <glyph glyph-name="zero.zero" horiz-adv-x="786" 
d="M661 700l114 -149l-96 -415l-167 -136h-340l-115 149l96 415l168 136h340zM350 615l-111 -90l-68 -295l500 303l-63 82h-258zM483 85l110 90l68 294l-499 -302l63 -82h258z" />
    <glyph glyph-name="foundryicon" horiz-adv-x="1538" 
d="M191 230v199h-71v31h178v-31h-72v-199h-35zM852 230v199h-71v31h178v-31h-72v-199h-35zM458 169v224h24l9 -19q19 22 48 22q32 0 54.5 -25t22.5 -59q0 -36 -22.5 -60.5t-54.5 -24.5q-29 0 -47 21v-79h-34zM721 227q-32 0 -55 24.5t-23 60.5q0 35 23 59.5t55 24.5
t54 -24.5t22 -58.5v-15h-120q2 -17 14.5 -29t29.5 -12q27 0 37 17h35q-9 -22 -28.5 -34.5t-43.5 -12.5zM1119 169v224h24l9 -19q19 22 48 22q32 0 54.5 -25t22.5 -59q0 -36 -22.5 -60.5t-54.5 -24.5q-29 0 -47 21v-79h-34zM1382 227q-32 0 -55 24.5t-23 60.5q0 35 23 59.5
t55 24.5t54 -24.5t22 -58.5v-15h-120q2 -17 14.5 -29t29.5 -12q27 0 37 17h35q-9 -22 -28.5 -34.5t-43.5 -12.5zM308 169q-7 0 -10 1v28q23 0 31 20l6 16l-63 159h37l44 -116l44 116h37l-77 -190q-16 -34 -49 -34zM969 169q-7 0 -10 1v28q23 0 31 20l6 16l-63 159h37
l44 -116l44 116h37l-77 -190q-16 -34 -49 -34zM677 325h88q-1 17 -14.5 28.5t-29.5 11.5t-29 -11t-15 -29zM1338 325h88q-1 17 -14.5 28.5t-29.5 11.5t-29 -11t-15 -29zM536 258q19 0 33 16t14 38q0 21 -14 36.5t-33 15.5t-33 -15.5t-14 -36.5q0 -22 13.5 -38t33.5 -16z
M1197 258q19 0 33 16t14 38q0 21 -14 36.5t-33 15.5t-33 -15.5t-14 -36.5q0 -22 13.5 -38t33.5 -16z" />
    </font>
</defs>
</svg>
