<?xml version="1.0" standalone="no"?>
<!DOCTYPE svg PUBLIC "-//W3C//DTD SVG 1.1//EN" "http://www.w3.org/Graphics/SVG/1.1/DTD/svg11.dtd" >
<svg xmlns="http://www.w3.org/2000/svg" xmlns:xlink="http://www.w3.org/1999/xlink" version="1.1">
<metadata>
Created by FontForge 20170731 at Thu Mar 26 16:23:24 2020
 By Aleksey,,,
Copyright (c) 2020 by TypeType. Designers Yulia Gonina, Ksenia Ushakova, Antonina Zhulkova. Technical designers Ivan Gladkikh, Marina Khodak, Yuri Nako, Viktor Rubenko. All rights reserved.
</metadata>
<defs>
<font id="TTOctosquares-Thin" horiz-adv-x="0" >
  <font-face 
    font-family="TTOctosquares-Thin"
    font-weight="100"
    font-stretch="normal"
    units-per-em="1000"
    panose-1="2 1 0 1 4 0 0 8 3 7"
    ascent="800"
    descent="-200"
    x-height="500"
    cap-height="700"
    bbox="-325 -210 1565 920"
    underline-thickness="50"
    underline-position="-250"
    unicode-range="U+000D-FB04"
  />
<missing-glyph horiz-adv-x="900" 
d="M100 0v284h45v-139h33v139h50v31h-128v126l19 -61h23l34 106l33 -106h23l54 170h-32l-34 -110l-35 110h-19l-35 -110l-31 103v157h700v-150h-110v-170h110v-91q-13 27 -50 27q-27 0 -43.5 -14.5t-16.5 -34.5t14 -32t30 -15t30 -9.5t14 -16.5q0 -21 -28 -21t-28 25h-33
q0 -24 17 -39.5t44 -15.5q33 0 50 20v-163h-700zM311 380h33v62h24l35 -62h37l-40 67q36 17 36 50q0 22 -16 37.5t-41 15.5h-68v-170zM469 380h33v170h-33v-170zM580 380h32v139h50v31h-132v-31h50v-139zM344 473v46h35q10 0 17 -6.5t7 -16.5q0 -23 -24 -23h-35zM722 483v36
h78v-36h-78zM722 411v41h78v-41h-78zM328 143q37 0 59.5 24.5t22.5 61.5t-23 62t-59 25t-59 -25t-23 -62t22.5 -61.5t59.5 -24.5zM585 143q29 0 48 19t19 47v106h-32v-106q0 -15 -9.5 -25t-25.5 -10q-17 0 -26.5 10.5t-9.5 24.5v106h-32v-106q0 -28 19.5 -47t48.5 -19z
M800 224q-9 9 -23.5 15t-25.5 8.5t-19 7.5t-8 12q0 9 7.5 14.5t18.5 5.5q10 0 18 -7t8 -18h24v-38zM328 174q-22 0 -36.5 16t-14.5 39q0 25 13.5 40.5t37.5 15.5t37.5 -15.5t13.5 -40.5q0 -23 -14.5 -39t-36.5 -16z" />
    <glyph glyph-name="f_f" unicode="ff" horiz-adv-x="700" 
d="M120 0v455h-100v45h100v150l50 50h207v-45h-182l-25 -25v-130h280v150l50 50h205v-45h-180l-25 -25v-130h200v-45h-200v-455h-50v455h-280v-455h-50z" />
    <glyph glyph-name="fi" unicode="fi" horiz-adv-x="550" 
d="M120 0v455h-100v45h100v150l50 50h250v-45h-225l-25 -25v-130h300v-500h-50v455h-250v-455h-50z" />
    <glyph glyph-name="fl" unicode="fl" horiz-adv-x="595" 
d="M120 0v455h-100v45h100v150l50 50h340v-700h-50v655h-265l-25 -25v-130h200v-45h-200v-455h-50z" />
    <glyph glyph-name="f_f_i" unicode="ffi" horiz-adv-x="880" 
d="M120 0v455h-100v45h100v150l50 50h205v-45h-180l-25 -25v-130h280v150l50 50h250v-45h-225l-25 -25v-130h300v-500h-50v455h-250v-455h-50v455h-280v-455h-50z" />
    <glyph glyph-name="f_f_l" unicode="ffl" horiz-adv-x="925" 
d="M120 0v455h-100v45h100v150l50 50h205v-45h-180l-25 -25v-130h280v150l50 50h340v-700h-50v655h-265l-25 -25v-130h200v-45h-200v-455h-50v455h-280v-455h-50z" />
    <glyph glyph-name="f_j" unicode="fj" horiz-adv-x="550" 
d="M170 -200v45h225l25 25v585h-250v-455h-50v455h-100v45h100v150l50 50h250v-45h-225l-25 -25v-130h300v-650l-50 -50h-250z" />
    <glyph glyph-name="f_t" unicode="ft" horiz-adv-x="750" 
d="M120 0v455h-100v45h100v150l50 50h205v-45h-180l-25 -25v-130h300v130h50v-130h195v-45h-195v-385l25 -25h175v-45h-200l-50 50v405h-300v-455h-50z" />
    <glyph glyph-name="f_f_j" unicode="ffj" horiz-adv-x="880" 
d="M500 -200v45h225l25 25v585h-250v-455h-50v455h-280v-455h-50v455h-100v45h100v150l50 50h205v-45h-180l-25 -25v-130h280v150l50 50h250v-45h-225l-25 -25v-130h300v-650l-50 -50h-250z" />
    <glyph glyph-name="r_t" unicode="rt" horiz-adv-x="755" 
d="M80 0v500h45v-50h14l56 50h280v130h50v-130h195v-45h-195v-385l25 -25h175v-45h-200l-50 50v405h-265l-80 -71v-384h-50z" />
    <glyph glyph-name=".notdef" horiz-adv-x="900" 
d="M100 0v284h45v-139h33v139h50v31h-128v126l19 -61h23l34 106l33 -106h23l54 170h-32l-34 -110l-35 110h-19l-35 -110l-31 103v157h700v-150h-110v-170h110v-91q-13 27 -50 27q-27 0 -43.5 -14.5t-16.5 -34.5t14 -32t30 -15t30 -9.5t14 -16.5q0 -21 -28 -21t-28 25h-33
q0 -24 17 -39.5t44 -15.5q33 0 50 20v-163h-700zM311 380h33v62h24l35 -62h37l-40 67q36 17 36 50q0 22 -16 37.5t-41 15.5h-68v-170zM469 380h33v170h-33v-170zM580 380h32v139h50v31h-132v-31h50v-139zM344 473v46h35q10 0 17 -6.5t7 -16.5q0 -23 -24 -23h-35zM722 483v36
h78v-36h-78zM722 411v41h78v-41h-78zM328 143q37 0 59.5 24.5t22.5 61.5t-23 62t-59 25t-59 -25t-23 -62t22.5 -61.5t59.5 -24.5zM585 143q29 0 48 19t19 47v106h-32v-106q0 -15 -9.5 -25t-25.5 -10q-17 0 -26.5 10.5t-9.5 24.5v106h-32v-106q0 -28 19.5 -47t48.5 -19z
M800 224q-9 9 -23.5 15t-25.5 8.5t-19 7.5t-8 12q0 9 7.5 14.5t18.5 5.5q10 0 18 -7t8 -18h24v-38zM328 174q-22 0 -36.5 16t-14.5 39q0 25 13.5 40.5t37.5 15.5t37.5 -15.5t13.5 -40.5q0 -23 -14.5 -39t-36.5 -16z" />
    <glyph glyph-name=".null" 
 />
    <glyph glyph-name=".null" 
 />
    <glyph glyph-name="nonmarkingreturn" horiz-adv-x="333" 
 />
    <glyph glyph-name="CR" unicode="&#xd;" horiz-adv-x="340" 
 />
    <glyph glyph-name="space" unicode=" " horiz-adv-x="340" 
 />
    <glyph glyph-name="exclam" unicode="!" horiz-adv-x="300" 
d="M135 180l-10 160v360h50v-360l-10 -160h-30zM115 0v70h70v-70h-70z" />
    <glyph glyph-name="quotedbl" unicode="&#x22;" horiz-adv-x="290" 
d="M70 510l-10 95v95h45v-95l-10 -95h-25zM195 510l-10 95v95h45v-95l-10 -95h-25z" />
    <glyph glyph-name="numbersign" unicode="#" horiz-adv-x="825" 
d="M765 450h-164l-52 -200h166v-45h-177l-53 -205h-46v15l49 190h-225l-53 -205h-46v15l49 190h-153v45h164l52 200h-166v45h177l53 205h46v-15l-49 -190h225l53 205h46v-15l-49 -190h153v-45zM499 250l52 200h-225l-52 -200h225z" />
    <glyph glyph-name="dollar" unicode="$" horiz-adv-x="680" 
d="M325 -100v100h-240v45h410l75 75v145l-75 75h-325l-100 100v160l100 100h155v100h45v-100h215v-45h-390l-75 -75v-120l75 -75h325l100 -100v-185l-100 -100h-150v-100h-45z" />
    <glyph glyph-name="percent" unicode="%" horiz-adv-x="915" 
d="M145 390l-75 75v160l75 75h145l75 -75v-160l-75 -75h-145zM205 0v15l460 685h45v-15l-460 -685h-45zM165 430h105l50 50v130l-50 50h-105l-50 -50v-130zM625 0l-75 75v160l75 75h145l75 -75v-160l-75 -75h-145zM645 40h105l50 50v130l-50 50h-105l-50 -50v-130z" />
    <glyph glyph-name="ampersand" unicode="&#x26;" horiz-adv-x="786" 
d="M175 0l-105 105v175l93 93l-73 72v155l100 100h345v-45h-320l-75 -75v-115l75 -75h236v-45h-246l-85 -85v-135l80 -80h300l80 80v430h50v-165h131v-45h-131v-240l-105 -105h-350z" />
    <glyph glyph-name="quotesingle" unicode="'" horiz-adv-x="165" 
d="M70 510l-10 95v95h45v-95l-10 -95h-25z" />
    <glyph glyph-name="parenleft" unicode="(" horiz-adv-x="375" 
d="M190 -200l-80 80v800l80 80h120v-45h-95l-55 -55v-760l55 -55h95v-45h-120z" />
    <glyph glyph-name="parenright" unicode=")" horiz-adv-x="375" 
d="M65 -200v45h95l55 55v760l-55 55h-95v45h120l80 -80v-800l-80 -80h-120z" />
    <glyph glyph-name="asterisk" unicode="*" horiz-adv-x="483" 
d="M219 353l2 138l-118 -71l-23 40l120 67l-120 66l23 40l117 -70l-2 137h46l-2 -138l118 71l23 -40l-121 -67l121 -67l-23 -40l-117 70l2 -136h-46z" />
    <glyph glyph-name="plus" unicode="+" horiz-adv-x="580" 
d="M268 100v227h-228v45h228v228h45v-228h227v-45h-227v-227h-45z" />
    <glyph glyph-name="comma" unicode="," horiz-adv-x="255" 
d="M95 -120l24 110h-29v80h75v-65l-40 -125h-30z" />
    <glyph glyph-name="hyphen" unicode="-" horiz-adv-x="450" 
d="M75 252v50h300v-50h-300z" />
    <glyph glyph-name="period" unicode="." horiz-adv-x="250" 
d="M90 0v70h70v-70h-70z" />
    <glyph glyph-name="slash" unicode="/" horiz-adv-x="376" 
d="M10 -200v20l313 910h43v-20l-313 -910h-43z" />
    <glyph glyph-name="zero" unicode="0" horiz-adv-x="760" 
d="M215 0l-130 130v440l130 130h330l130 -130v-440l-130 -130h-330zM240 45h280l105 105v400l-105 105h-280l-105 -105v-400z" />
    <glyph glyph-name="one" unicode="1" horiz-adv-x="510" 
d="M45 0v45h205v610h-185v45h235v-655h185v-45h-440z" />
    <glyph glyph-name="two" unicode="2" horiz-adv-x="675" 
d="M65 0v240l120 120h300l75 75v145l-75 75h-395v45h420l100 -100v-185l-100 -100h-300l-95 -95v-175h495v-45h-545z" />
    <glyph glyph-name="three" unicode="3" horiz-adv-x="660" 
d="M50 0v45h410l85 85v125l-85 85h-270v45h255l80 80v115l-75 75h-390v45h415l100 -100v-150l-77 -77l97 -98v-165l-110 -110h-435z" />
    <glyph glyph-name="four" unicode="4" horiz-adv-x="685" 
d="M500 0v160h-450v65l420 475h80v-495h95v-45h-95v-160h-50zM105 205h395v445h-15l-380 -430v-15z" />
    <glyph glyph-name="five" unicode="5" horiz-adv-x="700" 
d="M80 0v45h410l85 85v150l-85 85h-385v335h490v-45h-440v-245h360l110 -110v-190l-110 -110h-435z" />
    <glyph glyph-name="six" unicode="6" horiz-adv-x="735" 
d="M195 0l-110 110v460l130 130h405v-45h-380l-105 -105v-130h415l110 -110v-200l-110 -110h-355zM220 45h305l85 85v160l-85 85h-390v-245z" />
    <glyph glyph-name="seven" unicode="7" horiz-adv-x="625" 
d="M210 0v235l320 290v130h-500v45h550v-195l-320 -290v-215h-50z" />
    <glyph glyph-name="eight" unicode="8" horiz-adv-x="725" 
d="M180 0l-110 110v165l95 95l-75 75v155l100 100h345l100 -100v-155l-75 -75l95 -95v-165l-110 -110h-365zM215 385h295l75 75v120l-75 75h-295l-75 -75v-120zM205 45h315l85 85v125l-85 85h-315l-85 -85v-125z" />
    <glyph glyph-name="nine" unicode="9" horiz-adv-x="735" 
d="M115 0v45h380l105 105v130h-415l-110 110v200l110 110h355l110 -110v-460l-130 -130h-405zM210 325h390v245l-85 85h-305l-85 -85v-160z" />
    <glyph glyph-name="colon" unicode=":" horiz-adv-x="250" 
d="M90 430v70h70v-70h-70zM90 0v70h70v-70h-70z" />
    <glyph glyph-name="semicolon" unicode=";" horiz-adv-x="253" 
d="M93 430v70h70v-70h-70zM95 -120l24 110h-29v80h75v-65l-40 -125h-30z" />
    <glyph glyph-name="less" unicode="&#x3c;" horiz-adv-x="425" 
d="M330 45l-290 290l290 290l35 -35l-255 -255l255 -255z" />
    <glyph glyph-name="equal" unicode="=" horiz-adv-x="580" 
d="M55 425v45h470v-45h-470zM55 230v45h470v-45h-470z" />
    <glyph glyph-name="greater" unicode="&#x3e;" horiz-adv-x="425" 
d="M95 45l-35 35l255 255l-255 255l35 35l290 -290z" />
    <glyph glyph-name="question" unicode="?" horiz-adv-x="640" 
d="M222 180v125l50 50h153l80 80v140l-80 80h-350v45h375l105 -105v-180l-105 -105h-154l-24 -24v-106h-50zM215 0v70h70v-70h-70z" />
    <glyph glyph-name="at" unicode="@" horiz-adv-x="960" 
d="M230 -130l-145 145v480l145 145h510l145 -145v-340l-95 -95h-110l-65 65l-65 -65h-160l-90 90v210l90 90h250v-285l60 -60h65l70 70v300l-120 120h-460l-120 -120v-440l120 -120h540v-45h-565zM415 105h115l60 60v240h-175l-65 -65v-170z" />
    <glyph glyph-name="A" unicode="A" horiz-adv-x="735" 
d="M404 700l301 -680v-20h-47l-91 210h-400l-92 -210h-45v20l301 680h73zM186 255h361l-171 395h-17z" />
    <glyph glyph-name="B" unicode="B" horiz-adv-x="775" 
d="M105 0v700h465l100 -100v-155l-62 -62l97 -98v-180l-105 -105h-495zM155 390h395l70 70v120l-75 75h-390v-265zM155 45h420l80 80v140l-80 80h-420v-300z" />
    <glyph glyph-name="C" unicode="C" horiz-adv-x="695" 
d="M215 0l-130 130v440l130 130h430v-45h-405l-105 -105v-400l105 -105h405v-45h-430z" />
    <glyph glyph-name="D" unicode="D" horiz-adv-x="790" 
d="M105 0v700h470l130 -130v-440l-130 -130h-470zM155 45h395l105 105v400l-105 105h-395v-610z" />
    <glyph glyph-name="E" unicode="E" horiz-adv-x="715" 
d="M105 0v700h555v-45h-505v-280h400v-45h-400v-285h515v-45h-565z" />
    <glyph glyph-name="F" unicode="F" horiz-adv-x="665" 
d="M105 0v700h535v-45h-485v-305h390v-45h-390v-305h-50z" />
    <glyph glyph-name="G" unicode="G" horiz-adv-x="785" 
d="M215 0l-130 130v440l130 130h445v-45h-420l-105 -105v-400l105 -105h320l105 105v190h-285v45h335v-255l-130 -130h-370z" />
    <glyph glyph-name="H" unicode="H" horiz-adv-x="795" 
d="M105 0v700h50v-320h485v320h50v-700h-50v335h-485v-335h-50z" />
    <glyph glyph-name="I" unicode="I" horiz-adv-x="420" 
d="M65 0v45h120v610h-120v45h290v-45h-120v-610h120v-45h-290z" />
    <glyph glyph-name="J" unicode="J" horiz-adv-x="520" 
d="M35 0v45h260l80 80v530h-300v45h350v-595l-105 -105h-285z" />
    <glyph glyph-name="K" unicode="K" horiz-adv-x="687" 
d="M105 0v700h50v-325h199l238 325h44v-20l-238 -325l254 -335v-20h-47l-250 330h-200v-330h-50z" />
    <glyph glyph-name="L" unicode="L" horiz-adv-x="600" 
d="M105 0v700h50v-655h420v-45h-470z" />
    <glyph glyph-name="M" unicode="M" horiz-adv-x="945" 
d="M105 0v700h93l267 -495h15l269 495h91v-700h-50v650h-15l-269 -495h-69l-267 495h-15v-650h-50z" />
    <glyph glyph-name="N" unicode="N" horiz-adv-x="790" 
d="M105 0v700h88l429 -650h15v650h48v-700h-88l-429 650h-15v-650h-48z" />
    <glyph glyph-name="O" unicode="O" horiz-adv-x="800" 
d="M215 0l-130 130v440l130 130h370l130 -130v-440l-130 -130h-370zM240 45h320l105 105v400l-105 105h-320l-105 -105v-400z" />
    <glyph glyph-name="P" unicode="P" horiz-adv-x="735" 
d="M105 0v700h455l115 -115v-215l-115 -115h-405v-255h-50zM155 300h380l90 90v175l-90 90h-380v-355z" />
    <glyph glyph-name="Q" unicode="Q" horiz-adv-x="800" 
d="M585 700l130 -130v-440l-130 -130h-162v-145h-45v145h-163l-130 130v440l130 130h370zM665 150v400l-105 105h-320l-105 -105v-400l105 -105h138v150h45v-150h137z" />
    <glyph glyph-name="R" unicode="R" horiz-adv-x="783" 
d="M105 0v700h460l115 -115v-190l-128 -128l161 -247v-20h-47l-178 275h-333v-275h-50zM155 320h380l95 95v150l-90 90h-385v-335z" />
    <glyph glyph-name="S" unicode="S" horiz-adv-x="695" 
d="M85 0v45h425l75 75v145l-75 75h-340l-100 100v160l100 100h430v-45h-405l-75 -75v-120l75 -75h340l100 -100v-185l-100 -100h-450z" />
    <glyph glyph-name="T" unicode="T" horiz-adv-x="640" 
d="M295 0v655h-280v45h610v-45h-280v-655h-50z" />
    <glyph glyph-name="U" unicode="U" horiz-adv-x="755" 
d="M225 0l-130 130v570h50v-550l105 -105h255l105 105v550h50v-570l-130 -130h-305z" />
    <glyph glyph-name="V" unicode="V" horiz-adv-x="695" 
d="M301 0l-271 680v20h46l256 -650h21l268 650h44v-20l-283 -680h-81z" />
    <glyph glyph-name="W" unicode="W" horiz-adv-x="971" 
d="M254 0l-219 680v20h46l209 -650h19l156 484l-45 146v20h45l200 -650h18l209 650h44v-20l-219 -680h-83l-139 450h-10l-147 -450h-84z" />
    <glyph glyph-name="X" unicode="X" horiz-adv-x="675" 
d="M40 0v20l264 343l-243 317v20h48l224 -297h14l225 297h44v-20l-244 -317l263 -343v-20h-48l-242 322h-17l-244 -322h-44z" />
    <glyph glyph-name="Y" unicode="Y" horiz-adv-x="665" 
d="M308 0v255l-283 425v20h47l253 -385h17l254 385h44v-20l-282 -425v-255h-50z" />
    <glyph glyph-name="Z" unicode="Z" horiz-adv-x="650" 
d="M50 0v75l495 560v20h-480v45h535v-75l-495 -560v-20h495v-45h-550z" />
    <glyph glyph-name="bracketleft" unicode="[" horiz-adv-x="355" 
d="M110 -200v960h180v-45h-130v-870h130v-45h-180z" />
    <glyph glyph-name="backslash" unicode="\" horiz-adv-x="376" 
d="M323 -200l-313 910v20h43l313 -910v-20h-43z" />
    <glyph glyph-name="bracketright" unicode="]" horiz-adv-x="355" 
d="M65 -200v45h130v870h-130v45h180v-960h-180z" />
    <glyph glyph-name="asciicircum" unicode="^" horiz-adv-x="520" 
d="M95 497l-35 35l168 168h65l167 -168l-35 -34l-157 157h-15z" />
    <glyph glyph-name="underscore" unicode="_" horiz-adv-x="460" 
d="M-20 -200v45h500v-45h-500z" />
    <glyph glyph-name="grave" unicode="`" horiz-adv-x="173" 
d="M100 570l-70 150v5h52l61 -150v-5h-43z" />
    <glyph glyph-name="a" unicode="a" horiz-adv-x="565" 
d="M135 0l-80 80v135l85 85h300v90l-65 65h-260v45h285l90 -90v-410h-45v55h-12l-63 -55h-235zM160 45h190l90 80v130h-275l-60 -60v-95z" />
    <glyph glyph-name="b" unicode="b" horiz-adv-x="605" 
d="M85 0v700h50v-255h13l62 55h220l105 -105v-290l-105 -105h-345zM135 45h270l80 80v250l-80 80h-179l-91 -80v-330z" />
    <glyph glyph-name="c" unicode="c" horiz-adv-x="535" 
d="M175 0l-105 105v290l105 105h310v-45h-285l-80 -80v-250l80 -80h285v-45h-310z" />
    <glyph glyph-name="d" unicode="d" horiz-adv-x="605" 
d="M175 0l-105 105v290l105 105h295v200h50v-700h-45v60h-12l-68 -60h-220zM200 45h179l91 80v330h-270l-80 -80v-250z" />
    <glyph glyph-name="e" unicode="e" horiz-adv-x="585" 
d="M175 0l-105 105v290l105 105h250l105 -105v-170h-410v-100l80 -80h290v-45h-315zM120 270h360v105l-80 80h-200l-80 -80v-105z" />
    <glyph glyph-name="f" unicode="f" horiz-adv-x="370" 
d="M120 0v455h-100v45h100v150l50 50h205v-45h-180l-25 -25v-130h200v-45h-200v-455h-50z" />
    <glyph glyph-name="g" unicode="g" horiz-adv-x="600" 
d="M110 -200v45h315l45 45v165h-13l-62 -55h-220l-105 105v290l105 105h345v-630l-70 -70h-340zM200 45h179l91 80v330h-270l-80 -80v-250z" />
    <glyph glyph-name="h" unicode="h" horiz-adv-x="600" 
d="M85 0v700h50v-250h14l56 50h220l100 -100v-400h-50v380l-75 75h-180l-85 -75v-380h-50z" />
    <glyph glyph-name="i" unicode="i" horiz-adv-x="210" 
d="M70 630v70h70v-70h-70zM80 0v500h50v-500h-50z" />
    <glyph glyph-name="j" unicode="j" horiz-adv-x="210" 
d="M70 630v70h70v-70h-70zM-75 -200v45h130l25 25v630h50v-650l-50 -50h-155z" />
    <glyph glyph-name="k" unicode="k" horiz-adv-x="535" 
d="M85 0v700h50v-420h148l156 220h43v-20l-157 -220l175 -240v-20h-46l-172 235h-147v-235h-50z" />
    <glyph glyph-name="l" unicode="l" horiz-adv-x="220" 
d="M85 0v655h-90v45h140v-700h-50z" />
    <glyph glyph-name="m" unicode="m" horiz-adv-x="875" 
d="M80 0v500h45v-51h13l57 51h170l72 -72h12l81 72h170l100 -100v-400h-50v380l-75 75h-130l-80 -71v-384h-50v380l-75 75h-130l-80 -71v-384h-50z" />
    <glyph glyph-name="n" unicode="n" horiz-adv-x="595" 
d="M80 0v500h45v-55h13l62 55h220l100 -100v-400h-50v380l-75 75h-180l-85 -75v-380h-50z" />
    <glyph glyph-name="o" unicode="o" horiz-adv-x="615" 
d="M175 0l-105 105v290l105 105h265l105 -105v-290l-105 -105h-265zM200 45h215l80 80v250l-80 80h-215l-80 -80v-250z" />
    <glyph glyph-name="p" unicode="p" horiz-adv-x="600" 
d="M80 -200v700h45v-60h13l67 60h220l105 -105v-290l-105 -105h-295v-200h-50zM130 45h270l80 80v250l-80 80h-179l-91 -80v-330z" />
    <glyph glyph-name="q" unicode="q" horiz-adv-x="600" 
d="M470 -200v255h-13l-62 -55h-220l-105 105v290l105 105h345v-700h-50zM200 45h179l91 80v330h-270l-80 -80v-250z" />
    <glyph glyph-name="r" unicode="r" horiz-adv-x="400" 
d="M80 0v500h45v-50h14l56 50h210v-45h-195l-80 -71v-384h-50z" />
    <glyph glyph-name="s" unicode="s" horiz-adv-x="550" 
d="M74 0l-4 45h320l55 55v80l-55 55h-245l-80 80v105l80 80h325v-45h-300l-55 -55v-65l55 -55h245l80 -80v-120l-76 -80h-345z" />
    <glyph glyph-name="t" unicode="t" horiz-adv-x="400" 
d="M170 0l-50 50v405h-100v45h100v130h50v-130h195v-45h-195v-385l25 -25h175v-45h-200z" />
    <glyph glyph-name="u" unicode="u" horiz-adv-x="575" 
d="M175 0l-100 100v400h50v-380l75 -75h160l85 75v380h50v-500h-45v56h-12l-63 -56h-200z" />
    <glyph glyph-name="v" unicode="v" horiz-adv-x="506" 
d="M213 0l-188 480v20h44l175 -450h13l182 450h42v-20l-196 -480h-72z" />
    <glyph glyph-name="w" unicode="w" horiz-adv-x="734" 
d="M190 0l-160 480v20h44l149 -450h16l110 321l-33 109v20h44l136 -450h15l151 450h42v-20l-162 -480h-79l-88 287h-8l-98 -287h-79z" />
    <glyph glyph-name="x" unicode="x" horiz-adv-x="510" 
d="M35 0v20l187 239l-172 221v20h48l152 -198h12l152 198h46v-20l-172 -219l187 -241v-20h-48l-167 218h-12l-167 -218h-46z" />
    <glyph glyph-name="y" unicode="y" horiz-adv-x="575" 
d="M100 -200v45h300l45 45v161h-13l-57 -51h-200l-100 100v400h50v-380l75 -75h160l85 75v380h50v-630l-70 -70h-325z" />
    <glyph glyph-name="z" unicode="z" horiz-adv-x="505" 
d="M50 0v70l355 370v15h-345v45h400v-70l-355 -370v-15h360v-45h-415z" />
    <glyph glyph-name="braceleft" unicode="{" horiz-adv-x="390" 
d="M220 -200l-90 90v367h-65v46h65v367l90 90h105v-45h-80l-65 -65v-740l65 -65h80v-45h-105z" />
    <glyph glyph-name="bar" unicode="|" horiz-adv-x="290" 
d="M120 -200v960h50v-960h-50z" />
    <glyph glyph-name="braceright" unicode="}" horiz-adv-x="390" 
d="M65 -200v45h80l65 65v740l-65 65h-80v45h105l90 -90v-367h65v-46h-65v-367l-90 -90h-105z" />
    <glyph glyph-name="asciitilde" unicode="~" horiz-adv-x="580" 
d="M63 285v65l60 60h144l80 -80h91l30 30v50h50v-65l-60 -60h-134l-80 80h-101l-30 -30v-50h-50z" />
    <glyph glyph-name="uni00A0" unicode="&#xa0;" horiz-adv-x="340" 
 />
    <glyph glyph-name="exclamdown" unicode="&#xa1;" horiz-adv-x="300" 
d="M115 430v70h70v-70h-70zM125 -200v360l10 160h30l10 -160v-360h-50z" />
    <glyph glyph-name="cent" unicode="&#xa2;" horiz-adv-x="530" 
d="M285 -90v90h-110l-105 105v290l105 105h110v90h45v-90h150v-45h-150v-410h150v-45h-150v-90h-45zM200 45h85v410h-85l-80 -80v-250z" />
    <glyph glyph-name="sterling" unicode="&#xa3;" horiz-adv-x="645" 
d="M45 0v45h125v290h-85v45h85v220l100 100h300v-45h-275l-75 -75v-200h290v-45h-290v-290h390v-45h-565z" />
    <glyph glyph-name="currency" unicode="&#xa4;" horiz-adv-x="596" 
d="M122 122l-32 32l69 70l-26 26v160l27 27l-70 69l32 32l70 -69l26 26h160l26 -26l70 69l32 -32l-69 -69l26 -27v-160l-26 -26l69 -69l-32 -33l-70 69l-26 -26h-160l-27 27zM243 210h110l60 60v120l-60 60h-110l-60 -60v-120z" />
    <glyph glyph-name="yen" unicode="&#xa5;" horiz-adv-x="665" 
d="M640 700v-20l-249 -375h187v-45h-217l-3 -5v-100h220v-45h-220v-110h-50v110h-220v45h220v100l-3 5h-217v45h187l-250 375v20h47l253 -385h17l254 385h44z" />
    <glyph glyph-name="brokenbar" unicode="&#xa6;" horiz-adv-x="290" 
d="M120 360v400h50v-400h-50zM120 -200v400h50v-400h-50z" />
    <glyph glyph-name="section" unicode="&#xa7;" horiz-adv-x="585" 
d="M120 -200v45h265l60 60v75l-85 85h-190l-100 100v170l95 95l-75 75v110l85 85h290v-45h-265l-60 -60v-75l85 -85h190l100 -100v-170l-95 -95l75 -75v-110l-85 -85h-290zM195 110h195l75 75v130l-75 75h-195l-75 -75v-130z" />
    <glyph glyph-name="dieresis" unicode="&#xa8;" horiz-adv-x="310" 
d="M30 615v70h70v-70h-70zM210 615v70h70v-70h-70z" />
    <glyph glyph-name="copyright" unicode="&#xa9;" horiz-adv-x="1010" 
d="M260 -40l-150 150v470l150 150h490l150 -150v-470l-150 -150h-490zM285 5h440l125 125v430l-125 125h-440l-125 -125v-430zM417 150l-95 95v200l95 95h245v-45h-220l-70 -70v-160l70 -70h220v-45h-245z" />
    <glyph glyph-name="ordfeminine" unicode="&#xaa;" horiz-adv-x="455" 
d="M125 340l-70 70v85l70 70h215v45l-45 45h-205v45h230l70 -70v-290h-45v36h-8l-36 -36h-176zM150 385h135l55 55v80h-190l-45 -45v-45z" />
    <glyph glyph-name="guillemotleft" unicode="&#xab;" horiz-adv-x="575" 
d="M260 0l-215 250l215 250l35 -29l-190 -221l190 -221zM485 0l-215 250l215 250l35 -29l-190 -221l190 -221z" />
    <glyph glyph-name="logicalnot" unicode="&#xac;" horiz-adv-x="580" 
d="M475 255v115h-420v45h470v-160h-50z" />
    <glyph glyph-name="uni00AD" unicode="&#xad;" horiz-adv-x="450" 
d="M75 252v50h300v-50h-300z" />
    <glyph glyph-name="registered" unicode="&#xae;" horiz-adv-x="1010" 
d="M260 -40l-150 150v470l150 150h490l150 -150v-470l-150 -150h-490zM285 5h440l125 125v430l-125 125h-440l-125 -125v-430zM355 150v390h255l65 -65v-110l-72 -72l92 -129v-14h-51l-101 145h-138v-145h-50zM405 340h180l40 40v75l-40 40h-180v-155z" />
    <glyph glyph-name="macron" unicode="&#xaf;" horiz-adv-x="320" 
d="M30 630v45h260v-45h-260z" />
    <glyph glyph-name="degree" unicode="&#xb0;" horiz-adv-x="430" 
d="M130 380l-70 70v180l70 70h170l70 -70v-180l-70 -70h-170zM150 420h130l45 45v150l-45 45h-130l-45 -45v-150z" />
    <glyph glyph-name="plusminus" unicode="&#xb1;" horiz-adv-x="580" 
d="M267 150v228h-227v45h227v227h45v-227h228v-45h-228v-228h-45zM40 0v45h500v-45h-500z" />
    <glyph glyph-name="uni00B2" unicode="&#xb2;" horiz-adv-x="365" 
d="M40 470v125l60 60h155l30 30v45l-30 30h-205v40h225l55 -55v-75l-55 -55h-155l-35 -35v-70h240v-40h-285z" />
    <glyph glyph-name="uni00B3" unicode="&#xb3;" horiz-adv-x="375" 
d="M45 470v40h220l25 25v55l-30 30h-135v40h130l25 25v50l-25 25h-205v40h225l50 -50v-75l-30 -32l40 -40v-83l-50 -50h-240z" />
    <glyph glyph-name="acute" unicode="&#xb4;" horiz-adv-x="173" 
d="M30 570v5l61 150h52v-5l-70 -150h-43z" />
    <glyph glyph-name="uni00B5" unicode="&#xb5;" horiz-adv-x="595" 
d="M80 -200v700h50v-380l75 -75h185l75 75v380h50v-500h-45v52h-13l-52 -52h-215l-47 46h-13v-246h-50z" />
    <glyph glyph-name="paragraph" unicode="&#xb6;" horiz-adv-x="585" 
d="M245 -200v470h-90l-95 95v240l95 95h140v-900h-50zM435 -200v900h50v-900h-50z" />
    <glyph glyph-name="periodcentered" unicode="&#xb7;" horiz-adv-x="340" 
d="M135 252v70h70v-70h-70z" />
    <glyph glyph-name="cedilla" unicode="&#xb8;" horiz-adv-x="225" 
d="M30 -200v45h97l18 18v29l-18 18h-77v25l22 71h48v-6l-13 -41v-4h43l45 -45v-65l-45 -45h-120z" />
    <glyph glyph-name="uni00B9" unicode="&#xb9;" horiz-adv-x="330" 
d="M70 470v40h80v250h-75v40h120v-290h75v-40h-200z" />
    <glyph glyph-name="ordmasculine" unicode="&#xba;" horiz-adv-x="465" 
d="M135 340l-70 70v220l70 70h195l70 -70v-220l-70 -70h-195zM160 385h145l45 45v180l-45 45h-145l-45 -45v-180z" />
    <glyph glyph-name="guillemotright" unicode="&#xbb;" horiz-adv-x="575" 
d="M90 0l-35 29l190 221l-190 221l35 29l215 -250zM315 0l-35 29l190 221l-190 221l35 29l215 -250z" />
    <glyph glyph-name="onequarter" unicode="&#xbc;" horiz-adv-x="750" 
d="M70 370v40h80v250h-75v40h120v-290h75v-40h-200zM120 0v15l460 685h45v-15l-460 -685h-45zM615 0v65h-210v50l197 215h58v-225h45v-40h-45v-65h-45zM455 105h160v175h-5l-155 -170v-5z" />
    <glyph glyph-name="onehalf" unicode="&#xbd;" horiz-adv-x="780" 
d="M70 370v40h80v250h-75v40h120v-290h75v-40h-200zM120 0v15l460 685h45v-15l-460 -685h-45zM455 0v125l60 60h155l30 30v45l-30 30h-205v40h225l55 -55v-75l-55 -55h-155l-35 -35v-70h240v-40h-285z" />
    <glyph glyph-name="threequarters" unicode="&#xbe;" horiz-adv-x="795" 
d="M45 370v40h220l25 25v55l-30 30h-135v40h130l25 25v50l-25 25h-205v40h225l50 -50v-75l-30 -32l40 -40v-83l-50 -50h-240zM165 0v15l460 685h45v-15l-460 -685h-45zM660 0v65h-210v50l197 215h58v-225h45v-40h-45v-65h-45zM500 105h160v175h-5l-155 -170v-5z" />
    <glyph glyph-name="questiondown" unicode="&#xbf;" horiz-adv-x="640" 
d="M355 430v70h70v-70h-70zM190 -200l-105 105v180l105 105h154l24 24v106h50v-125l-50 -50h-153l-80 -80v-140l80 -80h350v-45h-375z" />
    <glyph glyph-name="Agrave" unicode="&#xc0;" horiz-adv-x="735" 
d="M390 760h-48l-58 115v5h54l52 -115v-5zM404 700l301 -680v-20h-47l-91 210h-400l-92 -210h-45v20l301 680h73zM186 255h361l-171 395h-17z" />
    <glyph glyph-name="Aacute" unicode="&#xc1;" horiz-adv-x="735" 
d="M456 875l-58 -115h-48v5l52 115h54v-5zM404 700l301 -680v-20h-47l-91 210h-400l-92 -210h-45v20l301 680h73zM186 255h361l-171 395h-17z" />
    <glyph glyph-name="Acircumflex" unicode="&#xc2;" horiz-adv-x="735" 
d="M363 830l-76 -70h-49v19l103 91h55l102 -91v-19h-51l-73 70h-11zM404 700l301 -680v-20h-47l-91 210h-400l-92 -210h-45v20l301 680h73zM186 255h361l-171 395h-17z" />
    <glyph glyph-name="Atilde" unicode="&#xc3;" horiz-adv-x="735" 
d="M270 800v-40h-45v60l45 45h78l57 -60h40l20 20v40h45v-60l-45 -45h-78l-57 60h-40zM404 700l301 -680v-20h-47l-91 210h-400l-92 -210h-45v20l301 680h73zM186 255h361l-171 395h-17z" />
    <glyph glyph-name="Adieresis" unicode="&#xc4;" horiz-adv-x="735" 
d="M313 850v-70h-70v70h70zM493 850v-70h-70v70h70zM404 700l301 -680v-20h-47l-91 210h-400l-92 -210h-45v20l301 680h73zM186 255h361l-171 395h-17z" />
    <glyph glyph-name="Aring" unicode="&#xc5;" horiz-adv-x="735" 
d="M423 735h-110l-50 50v85l50 50h110l50 -50v-85zM308 855v-55l25 -25h70l25 25v55l-25 25h-70zM404 700l301 -680v-20h-47l-91 210h-400l-92 -210h-45v20l301 680h73zM186 255h361l-171 395h-17z" />
    <glyph glyph-name="AE" unicode="&#xc6;" horiz-adv-x="1095" 
d="M570 45h480v-45h-530v220h-331l-115 -220h-44v20l358 680h652v-45h-470v-280h365v-45h-365v-285zM520 265v390h-103l-204 -390h307z" />
    <glyph glyph-name="Ccedilla" unicode="&#xc7;" horiz-adv-x="695" 
d="M240 655l-105 -105v-400l105 -105h405v-45h-220l-13 -41v-4h43l45 -45v-65l-45 -45h-120v45h97l18 18v29l-18 18h-77v25l20 65h-160l-130 130v440l130 130h430v-45h-405z" />
    <glyph glyph-name="Egrave" unicode="&#xc8;" horiz-adv-x="715" 
d="M354 760l-58 115v5h54l52 -115v-5h-48zM105 0v700h555v-45h-505v-280h400v-45h-400v-285h515v-45h-565z" />
    <glyph glyph-name="Eacute" unicode="&#xc9;" horiz-adv-x="715" 
d="M362 760v5l52 115h54v-5l-58 -115h-48zM105 0v700h555v-45h-505v-280h400v-45h-400v-285h515v-45h-565z" />
    <glyph glyph-name="Ecircumflex" unicode="&#xca;" horiz-adv-x="715" 
d="M250 760v19l103 91h55l102 -91v-19h-51l-73 70h-11l-76 -70h-49zM105 0v700h555v-45h-505v-280h400v-45h-400v-285h515v-45h-565z" />
    <glyph glyph-name="Edieresis" unicode="&#xcb;" horiz-adv-x="715" 
d="M255 780v70h70v-70h-70zM435 780v70h70v-70h-70zM105 0v700h555v-45h-505v-280h400v-45h-400v-285h515v-45h-565z" />
    <glyph glyph-name="Igrave" unicode="&#xcc;" horiz-adv-x="420" 
d="M184 760l-58 115v5h54l52 -115v-5h-48zM65 0v45h120v610h-120v45h290v-45h-120v-610h120v-45h-290z" />
    <glyph glyph-name="Iacute" unicode="&#xcd;" horiz-adv-x="420" 
d="M192 760v5l52 115h54v-5l-58 -115h-48zM65 0v45h120v610h-120v45h290v-45h-120v-610h120v-45h-290z" />
    <glyph glyph-name="Icircumflex" unicode="&#xce;" horiz-adv-x="420" 
d="M80 760v19l103 91h55l102 -91v-19h-51l-73 70h-11l-76 -70h-49zM65 0v45h120v610h-120v45h290v-45h-120v-610h120v-45h-290z" />
    <glyph glyph-name="Idieresis" unicode="&#xcf;" horiz-adv-x="420" 
d="M85 780v70h70v-70h-70zM265 780v70h70v-70h-70zM65 0v45h120v610h-120v45h290v-45h-120v-610h120v-45h-290z" />
    <glyph glyph-name="Eth" unicode="&#xd0;" horiz-adv-x="820" 
d="M605 700l130 -130v-440l-130 -130h-470v327h-100v45h100v328h470zM685 150v400l-105 105h-395v-283h270v-45h-270v-282h395z" />
    <glyph glyph-name="Ntilde" unicode="&#xd1;" horiz-adv-x="790" 
d="M257 760v60l45 45h78l57 -60h40l20 20v40h45v-60l-45 -45h-78l-57 60h-40l-20 -20v-40h-45zM105 0v700h88l429 -650h15v650h48v-700h-88l-429 650h-15v-650h-48z" />
    <glyph glyph-name="Ograve" unicode="&#xd2;" horiz-adv-x="800" 
d="M374 760l-58 115v5h54l52 -115v-5h-48zM215 0l-130 130v440l130 130h370l130 -130v-440l-130 -130h-370zM240 45h320l105 105v400l-105 105h-320l-105 -105v-400z" />
    <glyph glyph-name="Oacute" unicode="&#xd3;" horiz-adv-x="800" 
d="M382 760v5l52 115h54v-5l-58 -115h-48zM215 0l-130 130v440l130 130h370l130 -130v-440l-130 -130h-370zM240 45h320l105 105v400l-105 105h-320l-105 -105v-400z" />
    <glyph glyph-name="Ocircumflex" unicode="&#xd4;" horiz-adv-x="800" 
d="M270 760v19l103 91h55l102 -91v-19h-51l-73 70h-11l-76 -70h-49zM215 0l-130 130v440l130 130h370l130 -130v-440l-130 -130h-370zM240 45h320l105 105v400l-105 105h-320l-105 -105v-400z" />
    <glyph glyph-name="Otilde" unicode="&#xd5;" horiz-adv-x="800" 
d="M257 760v60l45 45h78l57 -60h40l20 20v40h45v-60l-45 -45h-78l-57 60h-40l-20 -20v-40h-45zM215 0l-130 130v440l130 130h370l130 -130v-440l-130 -130h-370zM240 45h320l105 105v400l-105 105h-320l-105 -105v-400z" />
    <glyph glyph-name="Odieresis" unicode="&#xd6;" horiz-adv-x="800" 
d="M275 780v70h70v-70h-70zM455 780v70h70v-70h-70zM215 0l-130 130v440l130 130h370l130 -130v-440l-130 -130h-370zM240 45h320l105 105v400l-105 105h-320l-105 -105v-400z" />
    <glyph glyph-name="multiply" unicode="&#xd7;" horiz-adv-x="580" 
d="M99 127l-32 33l191 191l-191 191l33 33l191 -191l191 191l32 -33l-191 -191l191 -191l-34 -33l-190 191z" />
    <glyph glyph-name="Oslash" unicode="&#xd8;" horiz-adv-x="810" 
d="M725 675l-52 -58l47 -47v-440l-130 -130h-370l-51 51l-52 -59l-32 32l52 59l-47 47v440l130 130h370l51 -51l52 58zM140 550v-400l30 -30l438 492l-43 43h-320zM670 150v400l-30 30l-439 -491l44 -44h320z" />
    <glyph glyph-name="Ugrave" unicode="&#xd9;" horiz-adv-x="755" 
d="M352 760l-58 115v5h54l52 -115v-5h-48zM225 0l-130 130v570h50v-550l105 -105h255l105 105v550h50v-570l-130 -130h-305z" />
    <glyph glyph-name="Uacute" unicode="&#xda;" horiz-adv-x="755" 
d="M360 760v5l52 115h54v-5l-58 -115h-48zM225 0l-130 130v570h50v-550l105 -105h255l105 105v550h50v-570l-130 -130h-305z" />
    <glyph glyph-name="Ucircumflex" unicode="&#xdb;" horiz-adv-x="755" 
d="M248 760v19l103 91h55l102 -91v-19h-51l-73 70h-11l-76 -70h-49zM225 0l-130 130v570h50v-550l105 -105h255l105 105v550h50v-570l-130 -130h-305z" />
    <glyph glyph-name="Udieresis" unicode="&#xdc;" horiz-adv-x="755" 
d="M253 780v70h70v-70h-70zM433 780v70h70v-70h-70zM225 0l-130 130v570h50v-550l105 -105h255l105 105v550h50v-570l-130 -130h-305z" />
    <glyph glyph-name="Yacute" unicode="&#xdd;" horiz-adv-x="665" 
d="M316 760v5l52 115h54v-5l-58 -115h-48zM308 0v255l-283 425v20h47l253 -385h17l254 385h44v-20l-282 -425v-255h-50z" />
    <glyph glyph-name="Thorn" unicode="&#xde;" horiz-adv-x="760" 
d="M105 0v700h50v-140h425l115 -115v-175l-115 -115h-425v-155h-50zM155 200h400l90 90v135l-90 90h-400v-315z" />
    <glyph glyph-name="germandbls" unicode="&#xdf;" horiz-adv-x="595" 
d="M85 0v595l105 105h210l100 -100v-145l-60 -60l100 -100v-190l-105 -105h-200v45h175l80 80v150l-80 80h-140v45h110l70 70v110l-75 75h-160l-80 -80v-575h-50z" />
    <glyph glyph-name="agrave" unicode="&#xe0;" horiz-adv-x="565" 
d="M269 570l-70 150v5h52l61 -150v-5h-43zM135 0l-80 80v135l85 85h300v90l-65 65h-260v45h285l90 -90v-410h-45v55h-12l-63 -55h-235zM160 45h190l90 80v130h-275l-60 -60v-95z" />
    <glyph glyph-name="aacute" unicode="&#xe1;" horiz-adv-x="565" 
d="M278 570v5l61 150h52v-5l-70 -150h-43zM135 0l-80 80v135l85 85h300v90l-65 65h-260v45h285l90 -90v-410h-45v55h-12l-63 -55h-235zM160 45h190l90 80v130h-275l-60 -60v-95z" />
    <glyph glyph-name="acircumflex" unicode="&#xe2;" horiz-adv-x="565" 
d="M155 570v15l113 130h54l113 -130v-15h-50l-86 105h-7l-88 -105h-49zM135 0l-80 80v135l85 85h300v90l-65 65h-260v45h285l90 -90v-410h-45v55h-12l-63 -55h-235zM160 45h190l90 80v130h-275l-60 -60v-95z" />
    <glyph glyph-name="atilde" unicode="&#xe3;" horiz-adv-x="565" 
d="M147 575v80l45 45h80l65 -80h40l20 20v60h45v-80l-45 -45h-80l-65 80h-40l-20 -20v-60h-45zM135 0l-80 80v135l85 85h300v90l-65 65h-260v45h285l90 -90v-410h-45v55h-12l-63 -55h-235zM160 45h190l90 80v130h-275l-60 -60v-95z" />
    <glyph glyph-name="adieresis" unicode="&#xe4;" horiz-adv-x="565" 
d="M170 615v70h70v-70h-70zM350 615v70h70v-70h-70zM135 0l-80 80v135l85 85h300v90l-65 65h-260v45h285l90 -90v-410h-45v55h-12l-63 -55h-235zM160 45h190l90 80v130h-275l-60 -60v-95z" />
    <glyph glyph-name="aring" unicode="&#xe5;" horiz-adv-x="565" 
d="M240 560l-50 50v105l50 50h110l50 -50v-105l-50 -50h-110zM260 600h70l25 25v75l-25 25h-70l-25 -25v-75zM135 0l-80 80v135l85 85h300v90l-65 65h-260v45h285l90 -90v-410h-45v55h-12l-63 -55h-235zM160 45h190l90 80v130h-275l-60 -60v-95z" />
    <glyph glyph-name="ae" unicode="&#xe6;" horiz-adv-x="905" 
d="M135 0l-80 80v135l85 85h280v80l-75 75h-230v45h255l75 -75l75 75h225l105 -105v-170h-380v-100l80 -80h260v-45h-285l-82 82l-93 -82h-215zM470 270h330v105l-80 80h-175l-75 -75v-110zM160 45h170l90 80v130h-255l-60 -60v-95z" />
    <glyph glyph-name="ccedilla" unicode="&#xe7;" horiz-adv-x="535" 
d="M200 455l-80 -80v-250l80 -80h285v-45h-150l-13 -41v-4h43l45 -45v-65l-45 -45h-120v45h97l18 18v29l-18 18h-77v25l20 65h-110l-105 105v290l105 105h310v-45h-285z" />
    <glyph glyph-name="egrave" unicode="&#xe8;" horiz-adv-x="585" 
d="M274 570l-70 150v5h52l61 -150v-5h-43zM175 0l-105 105v290l105 105h250l105 -105v-170h-410v-100l80 -80h290v-45h-315zM120 270h360v105l-80 80h-200l-80 -80v-105z" />
    <glyph glyph-name="eacute" unicode="&#xe9;" horiz-adv-x="585" 
d="M283 570v5l61 150h52v-5l-70 -150h-43zM175 0l-105 105v290l105 105h250l105 -105v-170h-410v-100l80 -80h290v-45h-315zM120 270h360v105l-80 80h-200l-80 -80v-105z" />
    <glyph glyph-name="ecircumflex" unicode="&#xea;" horiz-adv-x="585" 
d="M160 570v15l113 130h54l113 -130v-15h-50l-86 105h-7l-88 -105h-49zM175 0l-105 105v290l105 105h250l105 -105v-170h-410v-100l80 -80h290v-45h-315zM120 270h360v105l-80 80h-200l-80 -80v-105z" />
    <glyph glyph-name="edieresis" unicode="&#xeb;" horiz-adv-x="585" 
d="M175 615v70h70v-70h-70zM355 615v70h70v-70h-70zM175 0l-105 105v290l105 105h250l105 -105v-170h-410v-100l80 -80h290v-45h-315zM120 270h360v105l-80 80h-200l-80 -80v-105z" />
    <glyph glyph-name="igrave" unicode="&#xec;" horiz-adv-x="210" 
d="M79 570l-70 150v5h52l61 -150v-5h-43zM80 0v500h50v-500h-50z" />
    <glyph glyph-name="iacute" unicode="&#xed;" horiz-adv-x="210" 
d="M88 570v5l61 150h52v-5l-70 -150h-43zM80 0v500h50v-500h-50z" />
    <glyph glyph-name="icircumflex" unicode="&#xee;" horiz-adv-x="210" 
d="M-35 570v15l113 130h54l113 -130v-15h-50l-86 105h-7l-88 -105h-49zM80 0v500h50v-500h-50z" />
    <glyph glyph-name="idieresis" unicode="&#xef;" horiz-adv-x="210" 
d="M5 620v70h70v-70h-70zM135 620v70h70v-70h-70zM80 0v500h50v-500h-50z" />
    <glyph glyph-name="eth" unicode="&#xf0;" horiz-adv-x="605" 
d="M353 578l197 -233v-240l-105 -105h-275l-105 105v240l105 105h217v12l-85 101l-159 -50h-5v44l133 42l-66 78v23h45l72 -85l149 46h5v-44zM500 125v204l-64 76h-241l-80 -80v-200l80 -80h225z" />
    <glyph glyph-name="ntilde" unicode="&#xf1;" horiz-adv-x="595" 
d="M154 575v80l45 45h80l65 -80h40l20 20v60h45v-80l-45 -45h-80l-65 80h-40l-20 -20v-60h-45zM80 0v500h45v-55h13l62 55h220l100 -100v-400h-50v380l-75 75h-180l-85 -75v-380h-50z" />
    <glyph glyph-name="ograve" unicode="&#xf2;" horiz-adv-x="615" 
d="M282 570l-70 150v5h52l61 -150v-5h-43zM175 0l-105 105v290l105 105h265l105 -105v-290l-105 -105h-265zM200 45h215l80 80v250l-80 80h-215l-80 -80v-250z" />
    <glyph glyph-name="oacute" unicode="&#xf3;" horiz-adv-x="615" 
d="M291 570v5l61 150h52v-5l-70 -150h-43zM175 0l-105 105v290l105 105h265l105 -105v-290l-105 -105h-265zM200 45h215l80 80v250l-80 80h-215l-80 -80v-250z" />
    <glyph glyph-name="ocircumflex" unicode="&#xf4;" horiz-adv-x="615" 
d="M168 570v15l113 130h54l113 -130v-15h-50l-86 105h-7l-88 -105h-49zM175 0l-105 105v290l105 105h265l105 -105v-290l-105 -105h-265zM200 45h215l80 80v250l-80 80h-215l-80 -80v-250z" />
    <glyph glyph-name="otilde" unicode="&#xf5;" horiz-adv-x="615" 
d="M160 575v80l45 45h80l65 -80h40l20 20v60h45v-80l-45 -45h-80l-65 80h-40l-20 -20v-60h-45zM175 0l-105 105v290l105 105h265l105 -105v-290l-105 -105h-265zM200 45h215l80 80v250l-80 80h-215l-80 -80v-250z" />
    <glyph glyph-name="odieresis" unicode="&#xf6;" horiz-adv-x="615" 
d="M183 615v70h70v-70h-70zM363 615v70h70v-70h-70zM175 0l-105 105v290l105 105h265l105 -105v-290l-105 -105h-265zM200 45h215l80 80v250l-80 80h-215l-80 -80v-250z" />
    <glyph glyph-name="divide" unicode="&#xf7;" horiz-adv-x="580" 
d="M255 525v75h70v-75h-70zM45 327v45h490v-45h-490zM255 100v75h70v-75h-70z" />
    <glyph glyph-name="oslash" unicode="&#xf8;" horiz-adv-x="613" 
d="M548 475l-40 -43l37 -37v-290l-105 -105h-265l-35 35l-41 -44l-34 32l42 45l-37 37v290l105 105h265l35 -35l39 42zM120 375v-250l21 -21l300 325l-26 26h-215zM495 125v250l-20 20l-301 -324l26 -26h215z" />
    <glyph glyph-name="ugrave" unicode="&#xf9;" horiz-adv-x="575" 
d="M259 570l-70 150v5h52l61 -150v-5h-43zM175 0l-100 100v400h50v-380l75 -75h160l85 75v380h50v-500h-45v56h-12l-63 -56h-200z" />
    <glyph glyph-name="uacute" unicode="&#xfa;" horiz-adv-x="575" 
d="M268 570v5l61 150h52v-5l-70 -150h-43zM175 0l-100 100v400h50v-380l75 -75h160l85 75v380h50v-500h-45v56h-12l-63 -56h-200z" />
    <glyph glyph-name="ucircumflex" unicode="&#xfb;" horiz-adv-x="575" 
d="M145 570v15l113 130h54l113 -130v-15h-50l-86 105h-7l-88 -105h-49zM175 0l-100 100v400h50v-380l75 -75h160l85 75v380h50v-500h-45v56h-12l-63 -56h-200z" />
    <glyph glyph-name="udieresis" unicode="&#xfc;" horiz-adv-x="575" 
d="M160 615v70h70v-70h-70zM340 615v70h70v-70h-70zM175 0l-100 100v400h50v-380l75 -75h160l85 75v380h50v-500h-45v56h-12l-63 -56h-200z" />
    <glyph glyph-name="yacute" unicode="&#xfd;" horiz-adv-x="575" 
d="M268 570v5l61 150h52v-5l-70 -150h-43zM100 -200v45h300l45 45v161h-13l-57 -51h-200l-100 100v400h50v-380l75 -75h160l85 75v380h50v-630l-70 -70h-325z" />
    <glyph glyph-name="thorn" unicode="&#xfe;" horiz-adv-x="605" 
d="M85 -200v900h50v-255h13l62 55h220l105 -105v-290l-105 -105h-295v-200h-50zM135 45h270l80 80v250l-80 80h-179l-91 -80v-330z" />
    <glyph glyph-name="ydieresis" unicode="&#xff;" horiz-adv-x="575" 
d="M160 615v70h70v-70h-70zM340 615v70h70v-70h-70zM100 -200v45h300l45 45v161h-13l-57 -51h-200l-100 100v400h50v-380l75 -75h160l85 75v380h50v-630l-70 -70h-325z" />
    <glyph glyph-name="Amacron" unicode="&#x100;" horiz-adv-x="735" 
d="M498 840v-45h-260v45h260zM404 700l301 -680v-20h-47l-91 210h-400l-92 -210h-45v20l301 680h73zM186 255h361l-171 395h-17z" />
    <glyph glyph-name="amacron" unicode="&#x101;" horiz-adv-x="565" 
d="M165 630v45h260v-45h-260zM135 0l-80 80v135l85 85h300v90l-65 65h-260v45h285l90 -90v-410h-45v55h-12l-63 -55h-235zM160 45h190l90 80v130h-275l-60 -60v-95z" />
    <glyph glyph-name="Abreve" unicode="&#x102;" horiz-adv-x="735" 
d="M438 760h-140l-55 55v55h45v-35l30 -30h100l30 30v35h45v-55zM404 700l301 -680v-20h-47l-91 210h-400l-92 -210h-45v20l301 680h73zM186 255h361l-171 395h-17z" />
    <glyph glyph-name="abreve" unicode="&#x103;" horiz-adv-x="565" 
d="M215 570l-55 55v80h45v-60l30 -30h120l30 30v60h45v-80l-55 -55h-160zM135 0l-80 80v135l85 85h300v90l-65 65h-260v45h285l90 -90v-410h-45v55h-12l-63 -55h-235zM160 45h190l90 80v130h-275l-60 -60v-95z" />
    <glyph glyph-name="Aogonek" unicode="&#x104;" horiz-adv-x="735" 
d="M705 0l-94 -79v-56l20 -20h65v-45h-90l-45 45v90l92 77l-86 198h-400l-92 -210h-45v20l301 680h73l301 -680v-20zM186 255h361l-171 395h-17z" />
    <glyph glyph-name="aogonek" unicode="&#x105;" horiz-adv-x="565" 
d="M490 0l-94 -79v-56l20 -20h65v-45h-90l-45 45v90l99 83v37h-12l-63 -55h-235l-80 80v135l85 85h300v90l-65 65h-260v45h285l90 -90v-410zM440 125v130h-275l-60 -60v-95l55 -55h190z" />
    <glyph glyph-name="Cacute" unicode="&#x106;" horiz-adv-x="695" 
d="M392 760v5l52 115h54v-5l-58 -115h-48zM215 0l-130 130v440l130 130h430v-45h-405l-105 -105v-400l105 -105h405v-45h-430z" />
    <glyph glyph-name="cacute" unicode="&#x107;" horiz-adv-x="535" 
d="M293 570v5l61 150h52v-5l-70 -150h-43zM175 0l-105 105v290l105 105h310v-45h-285l-80 -80v-250l80 -80h285v-45h-310z" />
    <glyph glyph-name="Ccircumflex" unicode="&#x108;" horiz-adv-x="695" 
d="M280 760v19l103 91h55l102 -91v-19h-51l-73 70h-11l-76 -70h-49zM215 0l-130 130v440l130 130h430v-45h-405l-105 -105v-400l105 -105h405v-45h-430z" />
    <glyph glyph-name="ccircumflex" unicode="&#x109;" horiz-adv-x="535" 
d="M170 570v15l113 130h54l113 -130v-15h-50l-86 105h-7l-88 -105h-49zM175 0l-105 105v290l105 105h310v-45h-285l-80 -80v-250l80 -80h285v-45h-310z" />
    <glyph glyph-name="Cdotaccent" unicode="&#x10a;" horiz-adv-x="695" 
d="M375 780v70h70v-70h-70zM215 0l-130 130v440l130 130h430v-45h-405l-105 -105v-400l105 -105h405v-45h-430z" />
    <glyph glyph-name="cdotaccent" unicode="&#x10b;" horiz-adv-x="535" 
d="M275 630v70h70v-70h-70zM175 0l-105 105v290l105 105h310v-45h-285l-80 -80v-250l80 -80h285v-45h-310z" />
    <glyph glyph-name="Ccaron" unicode="&#x10c;" horiz-adv-x="695" 
d="M382 760l-102 91v19h51l73 -70h11l76 70h49v-19l-103 -91h-55zM215 0l-130 130v440l130 130h430v-45h-405l-105 -105v-400l105 -105h405v-45h-430z" />
    <glyph glyph-name="ccaron" unicode="&#x10d;" horiz-adv-x="535" 
d="M283 570l-113 130v15h50l86 -105h7l88 105h49v-15l-113 -130h-54zM175 0l-105 105v290l105 105h310v-45h-285l-80 -80v-250l80 -80h285v-45h-310z" />
    <glyph glyph-name="Dcaron" unicode="&#x10e;" horiz-adv-x="790" 
d="M377 760l-102 91v19h51l73 -70h11l76 70h49v-19l-103 -91h-55zM105 0v700h470l130 -130v-440l-130 -130h-470zM155 45h395l105 105v400l-105 105h-395v-610z" />
    <glyph glyph-name="dcaron" unicode="&#x10f;" horiz-adv-x="605" 
d="M598 550v5l7 160h54v-5l-22 -160h-39zM175 0l-105 105v290l105 105h295v200h50v-700h-45v60h-12l-68 -60h-220zM200 45h179l91 80v330h-270l-80 -80v-250z" />
    <glyph glyph-name="Dcroat" unicode="&#x110;" horiz-adv-x="820" 
d="M605 700l130 -130v-440l-130 -130h-470v327h-100v45h100v328h470zM685 150v400l-105 105h-395v-283h270v-45h-270v-282h395z" />
    <glyph glyph-name="dcroat" unicode="&#x111;" horiz-adv-x="610" 
d="M175 0l-105 105v260l105 105h295v95h-225v45h225v90h50v-90h85v-45h-85v-565h-45v60h-12l-68 -60h-220zM200 45h179l91 80v300h-270l-80 -80v-220z" />
    <glyph glyph-name="Emacron" unicode="&#x112;" horiz-adv-x="715" 
d="M250 795v45h260v-45h-260zM105 0v700h555v-45h-505v-280h400v-45h-400v-285h515v-45h-565z" />
    <glyph glyph-name="emacron" unicode="&#x113;" horiz-adv-x="585" 
d="M170 630v45h260v-45h-260zM175 0l-105 105v290l105 105h250l105 -105v-170h-410v-100l80 -80h290v-45h-315zM120 270h360v105l-80 80h-200l-80 -80v-105z" />
    <glyph glyph-name="Ebreve" unicode="&#x114;" horiz-adv-x="715" 
d="M310 760l-55 55v55h45v-35l30 -30h100l30 30v35h45v-55l-55 -55h-140zM105 0v700h555v-45h-505v-280h400v-45h-400v-285h515v-45h-565z" />
    <glyph glyph-name="ebreve" unicode="&#x115;" horiz-adv-x="585" 
d="M220 570l-55 55v80h45v-60l30 -30h120l30 30v60h45v-80l-55 -55h-160zM175 0l-105 105v290l105 105h250l105 -105v-170h-410v-100l80 -80h290v-45h-315zM120 270h360v105l-80 80h-200l-80 -80v-105z" />
    <glyph glyph-name="Edotaccent" unicode="&#x116;" horiz-adv-x="715" 
d="M345 780v70h70v-70h-70zM105 0v700h555v-45h-505v-280h400v-45h-400v-285h515v-45h-565z" />
    <glyph glyph-name="edotaccent" unicode="&#x117;" horiz-adv-x="585" 
d="M265 630v70h70v-70h-70zM175 0l-105 105v290l105 105h250l105 -105v-170h-410v-100l80 -80h290v-45h-315zM120 270h360v105l-80 80h-200l-80 -80v-105z" />
    <glyph glyph-name="Eogonek" unicode="&#x118;" horiz-adv-x="715" 
d="M670 0l-94 -79v-56l20 -20h65v-45h-90l-45 45v90l78 65h-499v700h555v-45h-505v-280h400v-45h-400v-285h515v-45z" />
    <glyph glyph-name="eogonek" unicode="&#x119;" horiz-adv-x="585" 
d="M530 225h-410v-100l80 -80h290v-45l-94 -79v-56l20 -20h65v-45h-90l-45 45v90l78 65h-249l-105 105v290l105 105h250l105 -105v-170zM120 375v-105h360v105l-80 80h-200z" />
    <glyph glyph-name="Ecaron" unicode="&#x11a;" horiz-adv-x="715" 
d="M352 760l-102 91v19h51l73 -70h11l76 70h49v-19l-103 -91h-55zM105 0v700h555v-45h-505v-280h400v-45h-400v-285h515v-45h-565z" />
    <glyph glyph-name="ecaron" unicode="&#x11b;" horiz-adv-x="585" 
d="M273 570l-113 130v15h50l86 -105h7l88 105h49v-15l-113 -130h-54zM175 0l-105 105v290l105 105h250l105 -105v-170h-410v-100l80 -80h290v-45h-315zM120 270h360v105l-80 80h-200l-80 -80v-105z" />
    <glyph glyph-name="Gcircumflex" unicode="&#x11c;" horiz-adv-x="785" 
d="M285 760v19l103 91h55l102 -91v-19h-51l-73 70h-11l-76 -70h-49zM215 0l-130 130v440l130 130h445v-45h-420l-105 -105v-400l105 -105h320l105 105v190h-285v45h335v-255l-130 -130h-370z" />
    <glyph glyph-name="gcircumflex" unicode="&#x11d;" horiz-adv-x="600" 
d="M180 570v15l113 130h54l113 -130v-15h-50l-86 105h-7l-88 -105h-49zM110 -200v45h315l45 45v165h-13l-62 -55h-220l-105 105v290l105 105h345v-630l-70 -70h-340zM200 45h179l91 80v330h-270l-80 -80v-250z" />
    <glyph glyph-name="Gbreve" unicode="&#x11e;" horiz-adv-x="785" 
d="M345 760l-55 55v55h45v-35l30 -30h100l30 30v35h45v-55l-55 -55h-140zM215 0l-130 130v440l130 130h445v-45h-420l-105 -105v-400l105 -105h320l105 105v190h-285v45h335v-255l-130 -130h-370z" />
    <glyph glyph-name="gbreve" unicode="&#x11f;" horiz-adv-x="600" 
d="M240 570l-55 55v80h45v-60l30 -30h120l30 30v60h45v-80l-55 -55h-160zM110 -200v45h315l45 45v165h-13l-62 -55h-220l-105 105v290l105 105h345v-630l-70 -70h-340zM200 45h179l91 80v330h-270l-80 -80v-250z" />
    <glyph glyph-name="Gdotaccent" unicode="&#x120;" horiz-adv-x="785" 
d="M380 780v70h70v-70h-70zM215 0l-130 130v440l130 130h445v-45h-420l-105 -105v-400l105 -105h320l105 105v190h-285v45h335v-255l-130 -130h-370z" />
    <glyph glyph-name="gdotaccent" unicode="&#x121;" horiz-adv-x="600" 
d="M285 630v70h70v-70h-70zM110 -200v45h315l45 45v165h-13l-62 -55h-220l-105 105v290l105 105h345v-630l-70 -70h-340zM200 45h179l91 80v330h-270l-80 -80v-250z" />
    <glyph glyph-name="uni0122" unicode="&#x122;" horiz-adv-x="785" 
d="M215 0l-130 130v440l130 130h445v-45h-420l-105 -105v-400l105 -105h320l105 105v190h-285v45h335v-255l-130 -130h-370zM380 -210l17 86h-27v74h70v-65l-31 -95h-29z" />
    <glyph glyph-name="uni0123" unicode="&#x123;" horiz-adv-x="600" 
d="M282 575v65l26 95h29l-12 -85h32v-75h-75zM110 -200v45h315l45 45v165h-13l-62 -55h-220l-105 105v290l105 105h345v-630l-70 -70h-340zM200 45h179l91 80v330h-270l-80 -80v-250z" />
    <glyph glyph-name="Hcircumflex" unicode="&#x124;" horiz-adv-x="795" 
d="M267 760v19l103 91h55l102 -91v-19h-51l-73 70h-11l-76 -70h-49zM105 0v700h50v-320h485v320h50v-700h-50v335h-485v-335h-50z" />
    <glyph glyph-name="hcircumflex" unicode="&#x125;" horiz-adv-x="600" 
d="M-20 760v19l103 91h55l102 -91v-19h-51l-73 70h-11l-76 -70h-49zM85 0v700h50v-250h14l56 50h220l100 -100v-400h-50v380l-75 75h-180l-85 -75v-380h-50z" />
    <glyph glyph-name="Hbar" unicode="&#x126;" horiz-adv-x="825" 
d="M780 560v-45h-75v-515h-50v335h-485v-335h-50v515h-75v45h75v140h50v-140h485v140h50v-140h75zM655 380v135h-485v-135h485z" />
    <glyph glyph-name="hbar" unicode="&#x127;" horiz-adv-x="605" 
d="M90 0v565h-85v45h85v90h50v-90h225v-45h-225v-145h14l56 50h220l100 -100v-370h-50v350l-75 75h-180l-85 -75v-350h-50z" />
    <glyph glyph-name="Imacron" unicode="&#x12a;" horiz-adv-x="420" 
d="M80 795v45h260v-45h-260zM65 0v45h120v610h-120v45h290v-45h-120v-610h120v-45h-290z" />
    <glyph glyph-name="imacron" unicode="&#x12b;" horiz-adv-x="210" 
d="M-25 630v45h260v-45h-260zM80 0v500h50v-500h-50z" />
    <glyph glyph-name="Ibreve" unicode="&#x12c;" horiz-adv-x="420" 
d="M140 760l-55 55v55h45v-35l30 -30h100l30 30v35h45v-55l-55 -55h-140zM65 0v45h120v610h-120v45h290v-45h-120v-610h120v-45h-290z" />
    <glyph glyph-name="ibreve" unicode="&#x12d;" horiz-adv-x="210" 
d="M25 570l-55 55v80h45v-60l30 -30h120l30 30v60h45v-80l-55 -55h-160zM80 0v500h50v-500h-50z" />
    <glyph glyph-name="Iogonek" unicode="&#x12e;" horiz-adv-x="420" 
d="M355 655h-120v-610h120v-45h-117l-94 -79v-56l20 -20h65v-45h-90l-45 45v90l78 65h-107v45h120v610h-120v45h290v-45z" />
    <glyph glyph-name="iogonek" unicode="&#x12f;" horiz-adv-x="210" 
d="M70 700h70v-70h-70v70zM80 13v487h50v-500l-94 -79v-56l20 -20h65v-45h-90l-45 45v90z" />
    <glyph glyph-name="Idotaccent" unicode="&#x130;" horiz-adv-x="420" 
d="M175 780v70h70v-70h-70zM65 0v45h120v610h-120v45h290v-45h-120v-610h120v-45h-290z" />
    <glyph glyph-name="dotlessi" unicode="&#x131;" horiz-adv-x="210" 
d="M80 0v500h50v-500h-50z" />
    <glyph glyph-name="IJ" unicode="&#x132;" horiz-adv-x="940" 
d="M65 0v45h120v610h-120v45h290v-45h-120v-610h120v-45h-290zM455 0v45h260l80 80v530h-300v45h350v-595l-105 -105h-285z" />
    <glyph glyph-name="ij" unicode="&#x133;" horiz-adv-x="420" 
d="M70 630v70h70v-70h-70zM280 630v70h70v-70h-70zM80 -200v45h187l23 25v630h50v-650l-50 -50h-210zM80 0v500h50v-500h-50z" />
    <glyph glyph-name="Jcircumflex" unicode="&#x134;" horiz-adv-x="520" 
d="M120 760v19l103 91h55l102 -91v-19h-51l-73 70h-11l-76 -70h-49zM35 0v45h260l80 80v530h-300v45h350v-595l-105 -105h-285z" />
    <glyph glyph-name="jcircumflex" unicode="&#x135;" horiz-adv-x="210" 
d="M-35 570v15l113 130h54l113 -130v-15h-50l-86 105h-7l-88 -105h-49zM-75 -200v45h130l25 25v630h50v-650l-50 -50h-155z" />
    <glyph glyph-name="uni0136" unicode="&#x136;" horiz-adv-x="687" 
d="M105 0v700h50v-325h199l238 325h44v-20l-238 -325l254 -335v-20h-47l-250 330h-200v-330h-50zM346 -210l17 86h-27v74h70v-65l-31 -95h-29z" />
    <glyph glyph-name="uni0137" unicode="&#x137;" horiz-adv-x="535" 
d="M85 0v700h50v-420h148l156 220h43v-20l-157 -220l175 -240v-20h-46l-172 235h-147v-235h-50zM265 -210l17 86h-27v74h70v-65l-31 -95h-29z" />
    <glyph glyph-name="Lacute" unicode="&#x139;" horiz-adv-x="600" 
d="M112 760v5l52 115h54v-5l-58 -115h-48zM105 0v700h50v-655h420v-45h-470z" />
    <glyph glyph-name="lacute" unicode="&#x13a;" horiz-adv-x="220" 
d="M47 760v5l52 115h54v-5l-58 -115h-48zM85 0v655h-90v45h140v-700h-50z" />
    <glyph glyph-name="uni013B" unicode="&#x13b;" horiz-adv-x="600" 
d="M105 0v700h50v-655h420v-45h-470zM315 -210l17 86h-27v74h70v-65l-31 -95h-29z" />
    <glyph glyph-name="uni013C" unicode="&#x13c;" horiz-adv-x="220" 
d="M85 0v655h-90v45h140v-700h-50zM85 -210l17 86h-27v74h70v-65l-31 -95h-29z" />
    <glyph glyph-name="Lcaron" unicode="&#x13d;" horiz-adv-x="600" 
d="M233 550v5l7 160h54v-5l-22 -160h-39zM105 0v700h50v-655h420v-45h-470z" />
    <glyph glyph-name="lcaron" unicode="&#x13e;" horiz-adv-x="220" 
d="M213 550v5l7 160h54v-5l-22 -160h-39zM85 0v655h-90v45h140v-700h-50z" />
    <glyph glyph-name="Ldot" unicode="&#x13f;" horiz-adv-x="600" 
d="M105 0v700h50v-655h420v-45h-470zM395 340v70h70v-70h-70z" />
    <glyph glyph-name="ldot" unicode="&#x140;" horiz-adv-x="279" 
d="M85 0v655h-90v45h140v-700h-50zM217 315v70h70v-70h-70z" />
    <glyph glyph-name="Lslash" unicode="&#x141;" horiz-adv-x="639" 
d="M194 45h420v-45h-470v292l-91 -50h-18v40l109 60v358h50v-330l243 135h18v-40l-261 -145v-275z" />
    <glyph glyph-name="lslash" unicode="&#x142;" horiz-adv-x="240" 
d="M245 453v-43l-100 -69v-341h-50v307l-85 -59h-15v43l100 69v295h-90v45h140v-306l85 59h15z" />
    <glyph glyph-name="Nacute" unicode="&#x143;" horiz-adv-x="790" 
d="M382 760v5l52 115h54v-5l-58 -115h-48zM105 0v700h88l429 -650h15v650h48v-700h-88l-429 650h-15v-650h-48z" />
    <glyph glyph-name="nacute" unicode="&#x144;" horiz-adv-x="595" 
d="M285 570v5l61 150h52v-5l-70 -150h-43zM80 0v500h45v-55h13l62 55h220l100 -100v-400h-50v380l-75 75h-180l-85 -75v-380h-50z" />
    <glyph glyph-name="uni0145" unicode="&#x145;" horiz-adv-x="790" 
d="M105 0v700h88l429 -650h15v650h48v-700h-88l-429 650h-15v-650h-48zM365 -210l17 86h-27v74h70v-65l-31 -95h-29z" />
    <glyph glyph-name="uni0146" unicode="&#x146;" horiz-adv-x="595" 
d="M80 0v500h45v-55h13l62 55h220l100 -100v-400h-50v380l-75 75h-180l-85 -75v-380h-50zM275 -210l17 86h-27v74h70v-65l-31 -95h-29z" />
    <glyph glyph-name="Ncaron" unicode="&#x147;" horiz-adv-x="790" 
d="M372 760l-102 91v19h51l73 -70h11l76 70h49v-19l-103 -91h-55zM105 0v700h88l429 -650h15v650h48v-700h-88l-429 650h-15v-650h-48z" />
    <glyph glyph-name="ncaron" unicode="&#x148;" horiz-adv-x="595" 
d="M275 570l-113 130v15h50l86 -105h7l88 105h49v-15l-113 -130h-54zM80 0v500h45v-55h13l62 55h220l100 -100v-400h-50v380l-75 75h-180l-85 -75v-380h-50z" />
    <glyph glyph-name="Eng" unicode="&#x14a;" horiz-adv-x="790" 
d="M365 -200v45h210l60 60v95h-38l-429 650h-15v-650h-48v700h88l429 -650h15v650h48v-815l-85 -85h-235z" />
    <glyph glyph-name="eng" unicode="&#x14b;" horiz-adv-x="595" 
d="M420 500l100 -100v-550l-50 -50h-190v45h165l25 25v510l-75 75h-180l-85 -75v-380h-50v500h45v-55h13l62 55h220z" />
    <glyph glyph-name="Omacron" unicode="&#x14c;" horiz-adv-x="800" 
d="M270 795v45h260v-45h-260zM215 0l-130 130v440l130 130h370l130 -130v-440l-130 -130h-370zM240 45h320l105 105v400l-105 105h-320l-105 -105v-400z" />
    <glyph glyph-name="omacron" unicode="&#x14d;" horiz-adv-x="615" 
d="M178 630v45h260v-45h-260zM175 0l-105 105v290l105 105h265l105 -105v-290l-105 -105h-265zM200 45h215l80 80v250l-80 80h-215l-80 -80v-250z" />
    <glyph glyph-name="Obreve" unicode="&#x14e;" horiz-adv-x="800" 
d="M330 760l-55 55v55h45v-35l30 -30h100l30 30v35h45v-55l-55 -55h-140zM215 0l-130 130v440l130 130h370l130 -130v-440l-130 -130h-370zM240 45h320l105 105v400l-105 105h-320l-105 -105v-400z" />
    <glyph glyph-name="obreve" unicode="&#x14f;" horiz-adv-x="615" 
d="M228 570l-55 55v80h45v-60l30 -30h120l30 30v60h45v-80l-55 -55h-160zM175 0l-105 105v290l105 105h265l105 -105v-290l-105 -105h-265zM200 45h215l80 80v250l-80 80h-215l-80 -80v-250z" />
    <glyph glyph-name="Ohungarumlaut" unicode="&#x150;" horiz-adv-x="800" 
d="M312 760v5l45 115h54v-5l-51 -115h-48zM447 760v5l45 115h54v-5l-51 -115h-48zM215 0l-130 130v440l130 130h370l130 -130v-440l-130 -130h-370zM240 45h320l105 105v400l-105 105h-320l-105 -105v-400z" />
    <glyph glyph-name="ohungarumlaut" unicode="&#x151;" horiz-adv-x="615" 
d="M225 570v5l46 150h53v-5l-56 -150h-43zM350 570v5l56 150h53v-5l-66 -150h-43zM175 0l-105 105v290l105 105h265l105 -105v-290l-105 -105h-265zM200 45h215l80 80v250l-80 80h-215l-80 -80v-250z" />
    <glyph glyph-name="OE" unicode="&#x152;" horiz-adv-x="1150" 
d="M215 0l-130 130v440l130 130h880v-45h-470v-280h365v-45h-365v-285h480v-45h-890zM240 45h335v610h-335l-105 -105v-400z" />
    <glyph glyph-name="oe" unicode="&#x153;" horiz-adv-x="975" 
d="M175 0l-105 105v290l105 105h245l80 -80l80 80h235l105 -105v-170h-395v-100l80 -80h275v-45h-300l-80 80l-80 -80h-245zM200 45h195l80 80v250l-80 80h-195l-80 -80v-250zM525 270h345v105l-80 80h-185l-80 -80v-105z" />
    <glyph glyph-name="Racute" unicode="&#x154;" horiz-adv-x="783" 
d="M374 760v5l52 115h54v-5l-58 -115h-48zM105 0v700h460l115 -115v-190l-128 -128l161 -247v-20h-47l-178 275h-333v-275h-50zM155 320h380l95 95v150l-90 90h-385v-335z" />
    <glyph glyph-name="racute" unicode="&#x155;" horiz-adv-x="400" 
d="M225 570v5l61 150h52v-5l-70 -150h-43zM80 0v500h45v-50h14l56 50h210v-45h-195l-80 -71v-384h-50z" />
    <glyph glyph-name="uni0156" unicode="&#x156;" horiz-adv-x="783" 
d="M105 0v700h460l115 -115v-190l-128 -128l161 -247v-20h-47l-178 275h-333v-275h-50zM155 320h380l95 95v150l-90 90h-385v-335zM375 -210l17 86h-27v74h70v-65l-31 -95h-29z" />
    <glyph glyph-name="uni0157" unicode="&#x157;" horiz-adv-x="400" 
d="M80 0v500h45v-50h14l56 50h210v-45h-195l-80 -71v-384h-50zM83 -210l17 86h-27v74h70v-65l-31 -95h-29z" />
    <glyph glyph-name="Rcaron" unicode="&#x158;" horiz-adv-x="783" 
d="M364 760l-102 91v19h51l73 -70h11l76 70h49v-19l-103 -91h-55zM105 0v700h460l115 -115v-190l-128 -128l161 -247v-20h-47l-178 275h-333v-275h-50zM155 320h380l95 95v150l-90 90h-385v-335z" />
    <glyph glyph-name="rcaron" unicode="&#x159;" horiz-adv-x="400" 
d="M215 570l-113 130v15h50l86 -105h7l88 105h49v-15l-113 -130h-54zM80 0v500h45v-50h14l56 50h210v-45h-195l-80 -71v-384h-50z" />
    <glyph glyph-name="Sacute" unicode="&#x15a;" horiz-adv-x="695" 
d="M347 760v5l52 115h54v-5l-58 -115h-48zM85 0v45h425l75 75v145l-75 75h-340l-100 100v160l100 100h430v-45h-405l-75 -75v-120l75 -75h340l100 -100v-185l-100 -100h-450z" />
    <glyph glyph-name="sacute" unicode="&#x15b;" horiz-adv-x="550" 
d="M265 570v5l61 150h52v-5l-70 -150h-43zM74 0l-4 45h320l55 55v80l-55 55h-245l-80 80v105l80 80h325v-45h-300l-55 -55v-65l55 -55h245l80 -80v-120l-76 -80h-345z" />
    <glyph glyph-name="Scircumflex" unicode="&#x15c;" horiz-adv-x="695" 
d="M235 760v19l103 91h55l102 -91v-19h-51l-73 70h-11l-76 -70h-49zM85 0v45h425l75 75v145l-75 75h-340l-100 100v160l100 100h430v-45h-405l-75 -75v-120l75 -75h340l100 -100v-185l-100 -100h-450z" />
    <glyph glyph-name="scircumflex" unicode="&#x15d;" horiz-adv-x="550" 
d="M142 570v15l113 130h54l113 -130v-15h-50l-86 105h-7l-88 -105h-49zM74 0l-4 45h320l55 55v80l-55 55h-245l-80 80v105l80 80h325v-45h-300l-55 -55v-65l55 -55h245l80 -80v-120l-76 -80h-345z" />
    <glyph glyph-name="Scedilla" unicode="&#x15e;" horiz-adv-x="695" 
d="M535 385l100 -100v-185l-100 -100h-170l-13 -41v-4h43l45 -45v-65l-45 -45h-120v45h97l18 18v29l-18 18h-77v25l20 65h-230v45h425l75 75v145l-75 75h-340l-100 100v160l100 100h430v-45h-405l-75 -75v-120l75 -75h340z" />
    <glyph glyph-name="scedilla" unicode="&#x15f;" horiz-adv-x="550" 
d="M415 280l80 -80v-120l-76 -80h-126l-13 -41v-4h43l45 -45v-65l-45 -45h-120v45h97l18 18v29l-18 18h-77v25l20 65h-169l-4 45h320l55 55v80l-55 55h-245l-80 80v105l80 80h325v-45h-300l-55 -55v-65l55 -55h245z" />
    <glyph glyph-name="Scaron" unicode="&#x160;" horiz-adv-x="695" 
d="M337 760l-102 91v19h51l73 -70h11l76 70h49v-19l-103 -91h-55zM85 0v45h425l75 75v145l-75 75h-340l-100 100v160l100 100h430v-45h-405l-75 -75v-120l75 -75h340l100 -100v-185l-100 -100h-450z" />
    <glyph glyph-name="scaron" unicode="&#x161;" horiz-adv-x="550" 
d="M255 570l-113 130v15h50l86 -105h7l88 105h49v-15l-113 -130h-54zM74 0l-4 45h320l55 55v80l-55 55h-245l-80 80v105l80 80h325v-45h-300l-55 -55v-65l55 -55h245l80 -80v-120l-76 -80h-345z" />
    <glyph glyph-name="uni0162" unicode="&#x162;" horiz-adv-x="640" 
d="M345 0l-13 -41v-4h43l45 -45v-65l-45 -45h-120v45h97l18 18v29l-18 18h-77v25l20 65v655h-280v45h610v-45h-280v-655z" />
    <glyph glyph-name="uni0163" unicode="&#x163;" horiz-adv-x="400" 
d="M270 0l-13 -41v-4h43l45 -45v-65l-45 -45h-120v45h97l18 18v29l-18 18h-77v25l20 65h-50l-50 50v405h-100v45h100v130h50v-130h195v-45h-195v-385l25 -25h175v-45h-100z" />
    <glyph glyph-name="Tcaron" unicode="&#x164;" horiz-adv-x="640" 
d="M292 760l-102 91v19h51l73 -70h11l76 70h49v-19l-103 -91h-55zM295 0v655h-280v45h610v-45h-280v-655h-50z" />
    <glyph glyph-name="tcaron" unicode="&#x165;" horiz-adv-x="400" 
d="M248 550v5l7 160h54v-5l-22 -160h-39zM170 0l-50 50v405h-100v45h100v130h50v-130h195v-45h-195v-385l25 -25h175v-45h-200z" />
    <glyph glyph-name="Tbar" unicode="&#x166;" horiz-adv-x="640" 
d="M625 655h-280v-287h180v-45h-180v-323h-50v323h-180v45h180v287h-280v45h610v-45z" />
    <glyph glyph-name="tbar" unicode="&#x167;" horiz-adv-x="400" 
d="M195 45h175v-45h-200l-50 50v205h-75v45h75v155h-100v45h100v130h50v-130h195v-45h-195v-155h155v-45h-155v-185z" />
    <glyph glyph-name="Umacron" unicode="&#x16a;" horiz-adv-x="755" 
d="M248 795v45h260v-45h-260zM225 0l-130 130v570h50v-550l105 -105h255l105 105v550h50v-570l-130 -130h-305z" />
    <glyph glyph-name="umacron" unicode="&#x16b;" horiz-adv-x="575" 
d="M155 630v45h260v-45h-260zM175 0l-100 100v400h50v-380l75 -75h160l85 75v380h50v-500h-45v56h-12l-63 -56h-200z" />
    <glyph glyph-name="Ubreve" unicode="&#x16c;" horiz-adv-x="755" 
d="M308 760l-55 55v55h45v-35l30 -30h100l30 30v35h45v-55l-55 -55h-140zM225 0l-130 130v570h50v-550l105 -105h255l105 105v550h50v-570l-130 -130h-305z" />
    <glyph glyph-name="ubreve" unicode="&#x16d;" horiz-adv-x="575" 
d="M205 570l-55 55v80h45v-60l30 -30h120l30 30v60h45v-80l-55 -55h-160zM175 0l-100 100v400h50v-380l75 -75h160l85 75v380h50v-500h-45v56h-12l-63 -56h-200z" />
    <glyph glyph-name="Uring" unicode="&#x16e;" horiz-adv-x="755" 
d="M323 735l-50 50v85l50 50h110l50 -50v-85l-50 -50h-110zM343 775h70l25 25v55l-25 25h-70l-25 -25v-55zM225 0l-130 130v570h50v-550l105 -105h255l105 105v550h50v-570l-130 -130h-305z" />
    <glyph glyph-name="uring" unicode="&#x16f;" horiz-adv-x="575" 
d="M230 560l-50 50v105l50 50h110l50 -50v-105l-50 -50h-110zM250 600h70l25 25v75l-25 25h-70l-25 -25v-75zM175 0l-100 100v400h50v-380l75 -75h160l85 75v380h50v-500h-45v56h-12l-63 -56h-200z" />
    <glyph glyph-name="Uhungarumlaut" unicode="&#x170;" horiz-adv-x="755" 
d="M290 760v5l45 115h54v-5l-51 -115h-48zM425 760v5l45 115h54v-5l-51 -115h-48zM225 0l-130 130v570h50v-550l105 -105h255l105 105v550h50v-570l-130 -130h-305z" />
    <glyph glyph-name="uhungarumlaut" unicode="&#x171;" horiz-adv-x="575" 
d="M202 570v5l46 150h53v-5l-56 -150h-43zM327 570v5l56 150h53v-5l-66 -150h-43zM175 0l-100 100v400h50v-380l75 -75h160l85 75v380h50v-500h-45v56h-12l-63 -56h-200z" />
    <glyph glyph-name="Uogonek" unicode="&#x172;" horiz-adv-x="755" 
d="M610 700h50v-570l-130 -130l-94 -93v-42l20 -20h65v-45h-90l-45 45v77l79 78h-240l-130 130v570h50v-550l105 -105h255l105 105v550z" />
    <glyph glyph-name="uogonek" unicode="&#x173;" horiz-adv-x="575" 
d="M495 0l-94 -79v-56l20 -20h65v-45h-90l-45 45v90l99 83v38h-12l-63 -56h-200l-100 100v400h50v-380l75 -75h160l85 75v380h50v-500z" />
    <glyph glyph-name="Wcircumflex" unicode="&#x174;" horiz-adv-x="971" 
d="M345 760v19l103 91h55l102 -91v-19h-51l-73 70h-11l-76 -70h-49zM254 0l-219 680v20h46l209 -650h19l156 484l-45 146v20h45l200 -650h18l209 650h44v-20l-219 -680h-83l-139 450h-10l-147 -450h-84z" />
    <glyph glyph-name="wcircumflex" unicode="&#x175;" horiz-adv-x="734" 
d="M215 570v15l113 130h54l113 -130v-15h-50l-86 105h-7l-88 -105h-49zM190 0l-160 480v20h44l149 -450h16l110 321l-33 109v20h44l136 -450h15l151 450h42v-20l-162 -480h-79l-88 287h-8l-98 -287h-79z" />
    <glyph glyph-name="Ycircumflex" unicode="&#x176;" horiz-adv-x="665" 
d="M204 760v19l103 91h55l102 -91v-19h-51l-73 70h-11l-76 -70h-49zM308 0v255l-283 425v20h47l253 -385h17l254 385h44v-20l-282 -425v-255h-50z" />
    <glyph glyph-name="ycircumflex" unicode="&#x177;" horiz-adv-x="575" 
d="M145 570v15l113 130h54l113 -130v-15h-50l-86 105h-7l-88 -105h-49zM100 -200v45h300l45 45v161h-13l-57 -51h-200l-100 100v400h50v-380l75 -75h160l85 75v380h50v-630l-70 -70h-325z" />
    <glyph glyph-name="Ydieresis" unicode="&#x178;" horiz-adv-x="665" 
d="M209 780v70h70v-70h-70zM389 780v70h70v-70h-70zM308 0v255l-283 425v20h47l253 -385h17l254 385h44v-20l-282 -425v-255h-50z" />
    <glyph glyph-name="Zacute" unicode="&#x179;" horiz-adv-x="650" 
d="M315 760v5l52 115h54v-5l-58 -115h-48zM50 0v75l495 560v20h-480v45h535v-75l-495 -560v-20h495v-45h-550z" />
    <glyph glyph-name="zacute" unicode="&#x17a;" horiz-adv-x="505" 
d="M243 570v5l61 150h52v-5l-70 -150h-43zM50 0v70l355 370v15h-345v45h400v-70l-355 -370v-15h360v-45h-415z" />
    <glyph glyph-name="Zdotaccent" unicode="&#x17b;" horiz-adv-x="650" 
d="M298 780v70h70v-70h-70zM50 0v75l495 560v20h-480v45h535v-75l-495 -560v-20h495v-45h-550z" />
    <glyph glyph-name="zdotaccent" unicode="&#x17c;" horiz-adv-x="505" 
d="M225 630v70h70v-70h-70zM50 0v70l355 370v15h-345v45h400v-70l-355 -370v-15h360v-45h-415z" />
    <glyph glyph-name="Zcaron" unicode="&#x17d;" horiz-adv-x="650" 
d="M305 760l-102 91v19h51l73 -70h11l76 70h49v-19l-103 -91h-55zM50 0v75l495 560v20h-480v45h535v-75l-495 -560v-20h495v-45h-550z" />
    <glyph glyph-name="zcaron" unicode="&#x17e;" horiz-adv-x="505" 
d="M233 570l-113 130v15h50l86 -105h7l88 105h49v-15l-113 -130h-54zM50 0v70l355 370v15h-345v45h400v-70l-355 -370v-15h360v-45h-415z" />
    <glyph glyph-name="uni018F" unicode="&#x18f;" horiz-adv-x="795" 
d="M210 0l-130 130v255h580v165l-105 105h-440v45h465l130 -130v-440l-130 -130h-370zM235 45h320l105 105v190h-530v-190z" />
    <glyph glyph-name="florin" unicode="&#x192;" horiz-adv-x="460" 
d="M320 655l-20 -20l-36 -185h156v-45h-165l-109 -565l-40 -40h-161v45h135l20 20l105 540h-110v45h118l41 210l40 40h161v-45h-135z" />
    <glyph glyph-name="uni01F4" unicode="&#x1f4;" horiz-adv-x="785" 
d="M397 760v5l52 115h54v-5l-58 -115h-48zM215 0l-130 130v440l130 130h445v-45h-420l-105 -105v-400l105 -105h320l105 105v190h-285v45h335v-255l-130 -130h-370z" />
    <glyph glyph-name="uni01F5" unicode="&#x1f5;" horiz-adv-x="600" 
d="M303 570v5l61 150h52v-5l-70 -150h-43zM110 -200v45h315l45 45v165h-13l-62 -55h-220l-105 105v290l105 105h345v-630l-70 -70h-340zM200 45h179l91 80v330h-270l-80 -80v-250z" />
    <glyph glyph-name="uni0218" unicode="&#x218;" horiz-adv-x="695" 
d="M85 0v45h425l75 75v145l-75 75h-340l-100 100v160l100 100h430v-45h-405l-75 -75v-120l75 -75h340l100 -100v-185l-100 -100h-450zM315 -210l17 86h-27v74h70v-65l-31 -95h-29z" />
    <glyph glyph-name="uni0219" unicode="&#x219;" horiz-adv-x="550" 
d="M74 0l-4 45h320l55 55v80l-55 55h-245l-80 80v105l80 80h325v-45h-300l-55 -55v-65l55 -55h245l80 -80v-120l-76 -80h-345zM243 -210l17 86h-27v74h70v-65l-31 -95h-29z" />
    <glyph glyph-name="uni021A" unicode="&#x21a;" horiz-adv-x="640" 
d="M295 0v655h-280v45h610v-45h-280v-655h-50zM295 -210l17 86h-27v74h70v-65l-31 -95h-29z" />
    <glyph glyph-name="uni021B" unicode="&#x21b;" horiz-adv-x="400" 
d="M170 0l-50 50v405h-100v45h100v130h50v-130h195v-45h-195v-385l25 -25h175v-45h-200zM220 -210l17 86h-27v74h70v-65l-31 -95h-29z" />
    <glyph glyph-name="uni0232" unicode="&#x232;" horiz-adv-x="665" 
d="M204 795v45h260v-45h-260zM308 0v255l-283 425v20h47l253 -385h17l254 385h44v-20l-282 -425v-255h-50z" />
    <glyph glyph-name="uni0233" unicode="&#x233;" horiz-adv-x="575" 
d="M155 630v45h260v-45h-260zM100 -200v45h300l45 45v161h-13l-57 -51h-200l-100 100v400h50v-380l75 -75h160l85 75v380h50v-630l-70 -70h-325z" />
    <glyph glyph-name="uni0237" unicode="&#x237;" horiz-adv-x="210" 
d="M-75 -200v45h130l25 25v630h50v-650l-50 -50h-155z" />
    <glyph glyph-name="uni0244" unicode="&#x244;" horiz-adv-x="785" 
d="M750 420v-45h-75v-245l-130 -130h-305l-130 130v245h-75v45h75v280h50v-280h465v280h50v-280h75zM625 150v225h-465v-225l105 -105h255z" />
    <glyph glyph-name="uni0259" unicode="&#x259;" horiz-adv-x="585" 
d="M160 0l-105 105v170h410v100l-80 80h-290v45h315l105 -105v-290l-105 -105h-250zM185 45h200l80 80v105h-360v-105z" />
    <glyph glyph-name="uni0289" unicode="&#x289;" horiz-adv-x="605" 
d="M585 317v-45h-75v-272h-45v56h-12l-63 -56h-200l-100 100v172h-75v45h75v183h50v-183h320v183h50v-183h75zM460 120v152h-320v-152l75 -75h160z" />
    <glyph glyph-name="uni02BC" unicode="&#x2bc;" horiz-adv-x="205" 
d="M70 510l24 110h-29v80h75v-65l-40 -125h-30z" />
    <glyph glyph-name="circumflex" unicode="&#x2c6;" horiz-adv-x="340" 
d="M30 570v15l113 130h54l113 -130v-15h-50l-86 105h-7l-88 -105h-49z" />
    <glyph glyph-name="caron" unicode="&#x2c7;" horiz-adv-x="340" 
d="M143 570l-113 130v15h50l86 -105h7l88 105h49v-15l-113 -130h-54z" />
    <glyph glyph-name="breve" unicode="&#x2d8;" horiz-adv-x="330" 
d="M85 570l-55 55v80h45v-60l30 -30h120l30 30v60h45v-80l-55 -55h-160z" />
    <glyph glyph-name="dotaccent" unicode="&#x2d9;" horiz-adv-x="130" 
d="M30 630v70h70v-70h-70z" />
    <glyph glyph-name="ring" unicode="&#x2da;" horiz-adv-x="270" 
d="M80 560l-50 50v105l50 50h110l50 -50v-105l-50 -50h-110zM100 600h70l25 25v75l-25 25h-70l-25 -25v-75z" />
    <glyph glyph-name="ogonek" unicode="&#x2db;" horiz-adv-x="204" 
d="M75 -200l-45 45v90l120 100l24 -35l-94 -79v-56l20 -20h65v-45h-90z" />
    <glyph glyph-name="tilde" unicode="&#x2dc;" horiz-adv-x="355" 
d="M30 575v80l45 45h80l65 -80h40l20 20v60h45v-80l-45 -45h-80l-65 80h-40l-20 -20v-60h-45z" />
    <glyph glyph-name="hungarumlaut" unicode="&#x2dd;" horiz-adv-x="294" 
d="M30 570v5l46 150h53v-5l-56 -150h-43zM155 570v5l56 150h53v-5l-66 -150h-43z" />
    <glyph glyph-name="gravecomb" unicode="&#x300;" 
d="M-73 570l-70 150v5h52l61 -150v-5h-43z" />
    <glyph glyph-name="acutecomb" unicode="&#x301;" 
d="M-143 570v5l61 150h52v-5l-70 -150h-43z" />
    <glyph glyph-name="uni0302" unicode="&#x302;" 
d="M-310 570v15l113 130h54l113 -130v-15h-50l-86 105h-7l-88 -105h-49z" />
    <glyph glyph-name="tildecomb" unicode="&#x303;" 
d="M-325 575v80l45 45h80l65 -80h40l20 20v60h45v-80l-45 -45h-80l-65 80h-40l-20 -20v-60h-45z" />
    <glyph glyph-name="uni0304" unicode="&#x304;" 
d="M-290 630v45h260v-45h-260z" />
    <glyph glyph-name="uni0306" unicode="&#x306;" 
d="M-245 570l-55 55v80h45v-60l30 -30h120l30 30v60h45v-80l-55 -55h-160z" />
    <glyph glyph-name="uni0307" unicode="&#x307;" 
d="M-100 630v70h70v-70h-70z" />
    <glyph glyph-name="uni0308" unicode="&#x308;" 
d="M-280 615v70h70v-70h-70zM-100 615v70h70v-70h-70z" />
    <glyph glyph-name="uni030A" unicode="&#x30a;" 
d="M-190 560l-50 50v105l50 50h110l50 -50v-105l-50 -50h-110zM-170 600h70l25 25v75l-25 25h-70l-25 -25v-75z" />
    <glyph glyph-name="uni030B" unicode="&#x30b;" 
d="M-264 570v5l46 150h53v-5l-56 -150h-43zM-139 570v5l56 150h53v-5l-66 -150h-43z" />
    <glyph glyph-name="uni030C" unicode="&#x30c;" 
d="M-197 570l-113 130v15h50l86 -105h7l88 105h49v-15l-113 -130h-54z" />
    <glyph glyph-name="uni0312" unicode="&#x312;" 
d="M-105 575v65l26 95h29l-12 -85h32v-75h-75z" />
    <glyph glyph-name="uni0326" unicode="&#x326;" 
d="M-90 -210l17 86h-27v74h70v-65l-31 -95h-29z" />
    <glyph glyph-name="uni0327" unicode="&#x327;" 
d="M-195 -200v45h97l18 18v29l-18 18h-77v25l22 71h48v-6l-13 -41v-4h43l45 -45v-65l-45 -45h-120z" />
    <glyph glyph-name="uni0328" unicode="&#x328;" 
d="M-129 -200l-45 45v90l120 100l24 -35l-94 -79v-56l20 -20h65v-45h-90z" />
    <glyph glyph-name="uni03A9" unicode="&#x3a9;" horiz-adv-x="860" 
d="M115 0v45h170v10l-170 150v365l130 130h370l130 -130v-362l-173 -153v-10h173v-45h-250v49l200 176v325l-105 105h-320l-105 -105v-325l200 -176v-49h-250z" />
    <glyph glyph-name="uni0400" unicode="&#x400;" horiz-adv-x="715" 
d="M354 760l-58 115v5h54l52 -115v-5h-48zM105 0v700h555v-45h-505v-280h400v-45h-400v-285h515v-45h-565z" />
    <glyph glyph-name="uni0401" unicode="&#x401;" horiz-adv-x="715" 
d="M255 780v70h70v-70h-70zM435 780v70h70v-70h-70zM105 0v700h555v-45h-505v-280h400v-45h-400v-285h515v-45h-565z" />
    <glyph glyph-name="uni0402" unicode="&#x402;" horiz-adv-x="840" 
d="M510 -10v45h125l80 80v200l-80 80h-360v-395h-50v655h-210v45h560v-45h-300v-215h385l105 -105v-240l-105 -105h-150z" />
    <glyph glyph-name="uni0403" unicode="&#x403;" horiz-adv-x="630" 
d="M342 760v5l52 115h54v-5l-58 -115h-48zM105 0v700h510v-45h-460v-655h-50z" />
    <glyph glyph-name="uni0404" unicode="&#x404;" horiz-adv-x="710" 
d="M215 0l-130 130v440l130 130h440v-45h-415l-105 -105v-175h410v-45h-410v-180l105 -105h425v-45h-450z" />
    <glyph glyph-name="uni0405" unicode="&#x405;" horiz-adv-x="695" 
d="M85 0v45h425l75 75v145l-75 75h-340l-100 100v160l100 100h430v-45h-405l-75 -75v-120l75 -75h340l100 -100v-185l-100 -100h-450z" />
    <glyph glyph-name="uni0406" unicode="&#x406;" horiz-adv-x="420" 
d="M65 0v45h120v610h-120v45h290v-45h-120v-610h120v-45h-290z" />
    <glyph glyph-name="uni0407" unicode="&#x407;" horiz-adv-x="420" 
d="M85 780v70h70v-70h-70zM265 780v70h70v-70h-70zM65 0v45h120v610h-120v45h290v-45h-120v-610h120v-45h-290z" />
    <glyph glyph-name="uni0408" unicode="&#x408;" horiz-adv-x="520" 
d="M35 0v45h260l80 80v530h-300v45h350v-595l-105 -105h-285z" />
    <glyph glyph-name="uni0409" unicode="&#x409;" horiz-adv-x="1205" 
d="M15 -5v50h100l46 46l49 609h445v-290h390l105 -105v-200l-105 -105h-440v655h-349l-48 -587l-73 -73h-120zM655 45h365l80 80v160l-80 80h-365v-320z" />
    <glyph glyph-name="uni040A" unicode="&#x40a;" horiz-adv-x="1210" 
d="M105 0v700h50v-290h455v290h50v-290h390l105 -105v-200l-105 -105h-440v365h-455v-365h-50zM660 45h365l80 80v160l-80 80h-365v-320z" />
    <glyph glyph-name="uni040B" unicode="&#x40b;" horiz-adv-x="845" 
d="M225 0v655h-210v45h560v-45h-300v-215h385l105 -105v-335h-50v315l-80 80h-360v-395h-50z" />
    <glyph glyph-name="uni040C" unicode="&#x40c;" horiz-adv-x="687" 
d="M347 760v5l52 115h54v-5l-58 -115h-48zM105 0v700h50v-325h199l238 325h44v-20l-238 -325l254 -335v-20h-47l-250 330h-200v-330h-50z" />
    <glyph glyph-name="uni040D" unicode="&#x40d;" horiz-adv-x="790" 
d="M369 760l-58 115v5h54l52 -115v-5h-48zM105 0v700h50v-650h15l427 650h88v-700h-50v650h-15l-427 -650h-88z" />
    <glyph glyph-name="uni040E" unicode="&#x40e;" horiz-adv-x="660" 
d="M267 760l-55 55v55h45v-35l30 -30h100l30 30v35h45v-55l-55 -55h-140zM141 0v48h128l54 109l-293 523v20h46l266 -475h16l240 475h42v-20l-344 -680h-155z" />
    <glyph glyph-name="uni040F" unicode="&#x40f;" horiz-adv-x="775" 
d="M670 700v-700h-257v-160h-50v160h-258v700h50v-655h465v655h50z" />
    <glyph glyph-name="uni0410" unicode="&#x410;" horiz-adv-x="735" 
d="M404 700l301 -680v-20h-47l-91 210h-400l-92 -210h-45v20l301 680h73zM186 255h361l-171 395h-17z" />
    <glyph glyph-name="uni0411" unicode="&#x411;" horiz-adv-x="765" 
d="M105 0v700h540v-45h-490v-240h440l105 -105v-205l-105 -105h-490zM155 45h415l80 80v165l-80 80h-415v-325z" />
    <glyph glyph-name="uni0412" unicode="&#x412;" horiz-adv-x="775" 
d="M105 0v700h465l100 -100v-155l-62 -62l97 -98v-180l-105 -105h-495zM155 390h395l70 70v120l-75 75h-390v-265zM155 45h420l80 80v140l-80 80h-420v-300z" />
    <glyph glyph-name="uni0413" unicode="&#x413;" horiz-adv-x="630" 
d="M105 0v700h510v-45h-460v-655h-50z" />
    <glyph glyph-name="uni0414" unicode="&#x414;" horiz-adv-x="785" 
d="M15 -160v205h70l55 82l35 573h475v-655h95v-205h-50v160h-630v-160h-50zM145 45h455v610h-378l-33 -545z" />
    <glyph glyph-name="uni0415" unicode="&#x415;" horiz-adv-x="715" 
d="M105 0v700h555v-45h-505v-280h400v-45h-400v-285h515v-45h-565z" />
    <glyph glyph-name="uni0416" unicode="&#x416;" horiz-adv-x="1020" 
d="M35 0v20l241 335l-225 325v20h43l225 -325h166v325h50v-325h166l225 325h43v-20l-225 -325l241 -335v-20h-47l-236 330h-167v-330h-50v330h-167l-236 -330h-47z" />
    <glyph glyph-name="uni0417" unicode="&#x417;" horiz-adv-x="670" 
d="M50 0v45h420l80 80v140l-80 80h-280v45h270l75 75v115l-75 75h-400v45h425l100 -100v-150l-75 -75l90 -90v-180l-105 -105h-445z" />
    <glyph glyph-name="uni0418" unicode="&#x418;" horiz-adv-x="790" 
d="M105 0v700h50v-650h15l427 650h88v-700h-50v650h-15l-427 -650h-88z" />
    <glyph glyph-name="uni0419" unicode="&#x419;" horiz-adv-x="790" 
d="M325 760l-55 55v55h45v-35l30 -30h100l30 30v35h45v-55l-55 -55h-140zM105 0v700h50v-650h15l427 650h88v-700h-50v650h-15l-427 -650h-88z" />
    <glyph glyph-name="uni041A" unicode="&#x41a;" horiz-adv-x="687" 
d="M105 0v700h50v-325h199l238 325h44v-20l-238 -325l254 -335v-20h-47l-250 330h-200v-330h-50z" />
    <glyph glyph-name="uni041B" unicode="&#x41b;" horiz-adv-x="775" 
d="M15 -5v50h100l46 46l49 609h460v-700h-50v655h-364l-48 -587l-73 -73h-120z" />
    <glyph glyph-name="uni041C" unicode="&#x41c;" horiz-adv-x="945" 
d="M105 0v700h93l267 -495h15l269 495h91v-700h-50v650h-15l-269 -495h-69l-267 495h-15v-650h-50z" />
    <glyph glyph-name="uni041D" unicode="&#x41d;" horiz-adv-x="795" 
d="M105 0v700h50v-320h485v320h50v-700h-50v335h-485v-335h-50z" />
    <glyph glyph-name="uni041E" unicode="&#x41e;" horiz-adv-x="800" 
d="M215 0l-130 130v440l130 130h370l130 -130v-440l-130 -130h-370zM240 45h320l105 105v400l-105 105h-320l-105 -105v-400z" />
    <glyph glyph-name="uni041F" unicode="&#x41f;" horiz-adv-x="780" 
d="M105 0v700h570v-700h-50v655h-470v-655h-50z" />
    <glyph glyph-name="uni0420" unicode="&#x420;" horiz-adv-x="735" 
d="M105 0v700h455l115 -115v-215l-115 -115h-405v-255h-50zM155 300h380l90 90v175l-90 90h-380v-355z" />
    <glyph glyph-name="uni0421" unicode="&#x421;" horiz-adv-x="695" 
d="M215 0l-130 130v440l130 130h430v-45h-405l-105 -105v-400l105 -105h405v-45h-430z" />
    <glyph glyph-name="uni0422" unicode="&#x422;" horiz-adv-x="640" 
d="M295 0v655h-280v45h610v-45h-280v-655h-50z" />
    <glyph glyph-name="uni0423" unicode="&#x423;" horiz-adv-x="660" 
d="M141 0v48h128l54 109l-293 523v20h46l266 -475h16l240 475h42v-20l-344 -680h-155z" />
    <glyph glyph-name="uni0424" unicode="&#x424;" horiz-adv-x="920" 
d="M435 -30v90h-230l-130 130v340l130 130h230v90h50v-90h230l130 -130v-340l-130 -130h-230v-90h-50zM230 105h205v510h-205l-105 -105v-300zM485 105h205l105 105v300l-105 105h-205v-510z" />
    <glyph glyph-name="uni0425" unicode="&#x425;" horiz-adv-x="675" 
d="M40 0v20l264 343l-243 317v20h48l224 -297h14l225 297h44v-20l-244 -317l263 -343v-20h-48l-242 322h-17l-244 -322h-44z" />
    <glyph glyph-name="uni0426" unicode="&#x426;" horiz-adv-x="780" 
d="M660 45h85v-205h-50v160h-590v700h50v-655h455v655h50v-655z" />
    <glyph glyph-name="uni0427" unicode="&#x427;" horiz-adv-x="710" 
d="M555 0v255h-375l-105 105v340h50v-320l80 -80h350v400h50v-700h-50z" />
    <glyph glyph-name="uni0428" unicode="&#x428;" horiz-adv-x="1080" 
d="M105 0v700h50v-655h360v655h50v-655h360v655h50v-700h-870z" />
    <glyph glyph-name="uni0429" unicode="&#x429;" horiz-adv-x="1095" 
d="M975 45h85v-205h-50v160h-905v700h50v-655h360v655h50v-655h360v655h50v-655z" />
    <glyph glyph-name="uni042A" unicode="&#x42a;" horiz-adv-x="805" 
d="M645 430l105 -105v-220l-105 -105h-465v655h-170v45h220v-270h415zM700 125v180l-80 80h-390v-340h390z" />
    <glyph glyph-name="uni042B" unicode="&#x42b;" horiz-adv-x="980" 
d="M105 0v700h50v-270h405l105 -105v-220l-105 -105h-455zM825 0v700h50v-700h-50zM155 45h380l80 80v180l-80 80h-380v-340z" />
    <glyph glyph-name="uni042C" unicode="&#x42c;" horiz-adv-x="730" 
d="M105 0v700h50v-270h415l105 -105v-220l-105 -105h-465zM155 45h390l80 80v180l-80 80h-390v-340z" />
    <glyph glyph-name="uni042D" unicode="&#x42d;" horiz-adv-x="695" 
d="M40 0v45h415l105 105v180h-385v45h385v175l-105 105h-405v45h430l130 -130v-440l-130 -130h-440z" />
    <glyph glyph-name="uni042E" unicode="&#x42e;" horiz-adv-x="1000" 
d="M105 0v700h50v-325h170v195l130 130h330l130 -130v-440l-130 -130h-330l-130 130v200h-170v-330h-50zM480 45h280l105 105v400l-105 105h-280l-105 -105v-400z" />
    <glyph glyph-name="uni042F" unicode="&#x42f;" horiz-adv-x="778" 
d="M75 0v20l147 251l-124 124v190l115 115h460v-700h-50v275h-341l-161 -275h-46zM243 320h380v335h-385l-90 -90v-150z" />
    <glyph glyph-name="uni0430" unicode="&#x430;" horiz-adv-x="565" 
d="M135 0l-80 80v135l85 85h300v90l-65 65h-260v45h285l90 -90v-410h-45v55h-12l-63 -55h-235zM160 45h190l90 80v130h-275l-60 -60v-95z" />
    <glyph glyph-name="uni0431" unicode="&#x431;" horiz-adv-x="630" 
d="M180 0l-105 105v480l97 97l343 23h10v-48l-330 -22l-70 -70v-155h13l62 55h260l105 -105v-255l-105 -105h-280zM205 45h230l80 80v215l-80 80h-219l-91 -80v-215z" />
    <glyph glyph-name="uni0432" unicode="&#x432;" horiz-adv-x="575" 
d="M80 0v500h335l80 -80v-99l-48 -48l73 -74v-119l-80 -80h-360zM130 280h260l55 55v65l-55 55h-260v-175zM130 45h285l55 55v80l-55 55h-285v-190z" />
    <glyph glyph-name="uni0433" unicode="&#x433;" horiz-adv-x="440" 
d="M80 0v500h350v-45h-300v-455h-50z" />
    <glyph glyph-name="uni0434" unicode="&#x434;" horiz-adv-x="605" 
d="M20 -140v185h55l48 62l27 393h345v-455h85v-185h-50v140h-460v-140h-50zM136 45h309v410h-248l-25 -363z" />
    <glyph glyph-name="uni0435" unicode="&#x435;" horiz-adv-x="585" 
d="M175 0l-105 105v290l105 105h250l105 -105v-170h-410v-100l80 -80h290v-45h-315zM120 270h360v105l-80 80h-200l-80 -80v-105z" />
    <glyph glyph-name="uni0436" unicode="&#x436;" horiz-adv-x="790" 
d="M35 0v20l165 235l-147 225v20h43l146 -225h128v225h50v-225h128l146 225h43v-20l-147 -225l165 -235v-20h-46l-161 230h-128v-230h-50v230h-128l-161 -230h-46z" />
    <glyph glyph-name="uni0437" unicode="&#x437;" horiz-adv-x="510" 
d="M40 0v45h305l60 60v75l-55 55h-205v45h195l55 55v60l-60 60h-280v45h305l85 -85v-94l-56 -56l66 -66v-114l-85 -85h-330z" />
    <glyph glyph-name="uni0438" unicode="&#x438;" horiz-adv-x="595" 
d="M80 0v500h50v-450h12l288 450h85v-500h-50v450h-12l-288 -450h-85z" />
    <glyph glyph-name="uni0439" unicode="&#x439;" horiz-adv-x="595" 
d="M217 570l-55 55v80h45v-60l30 -30h120l30 30v60h45v-80l-55 -55h-160zM80 0v500h50v-450h12l288 450h85v-500h-50v450h-12l-288 -450h-85z" />
    <glyph glyph-name="uni043A" unicode="&#x43a;" horiz-adv-x="530" 
d="M80 0v500h50v-225h148l156 225h43v-20l-157 -225l175 -235v-20h-46l-172 230h-147v-230h-50z" />
    <glyph glyph-name="uni043B" unicode="&#x43b;" horiz-adv-x="585" 
d="M15 -5v50h70l32 32l33 423h355v-500h-50v455h-258l-32 -400l-60 -60h-90z" />
    <glyph glyph-name="uni043C" unicode="&#x43c;" horiz-adv-x="715" 
d="M80 0v500h90l183 -345h13l182 345h87v-500h-50v450h-11l-182 -345h-67l-183 345h-12v-450h-50z" />
    <glyph glyph-name="uni043D" unicode="&#x43d;" horiz-adv-x="590" 
d="M80 0v500h50v-225h330v225h50v-500h-50v230h-330v-230h-50z" />
    <glyph glyph-name="uni043E" unicode="&#x43e;" horiz-adv-x="615" 
d="M175 0l-105 105v290l105 105h265l105 -105v-290l-105 -105h-265zM200 45h215l80 80v250l-80 80h-215l-80 -80v-250z" />
    <glyph glyph-name="uni043F" unicode="&#x43f;" horiz-adv-x="580" 
d="M80 0v500h420v-500h-50v455h-320v-455h-50z" />
    <glyph glyph-name="uni0440" unicode="&#x440;" horiz-adv-x="600" 
d="M80 -200v700h45v-60h13l67 60h220l105 -105v-290l-105 -105h-295v-200h-50zM130 45h270l80 80v250l-80 80h-179l-91 -80v-330z" />
    <glyph glyph-name="uni0441" unicode="&#x441;" horiz-adv-x="535" 
d="M175 0l-105 105v290l105 105h310v-45h-285l-80 -80v-250l80 -80h285v-45h-310z" />
    <glyph glyph-name="uni0442" unicode="&#x442;" horiz-adv-x="470" 
d="M210 0v455h-190v45h430v-45h-190v-455h-50z" />
    <glyph glyph-name="uni0443" unicode="&#x443;" horiz-adv-x="575" 
d="M100 -200v45h300l45 45v161h-13l-57 -51h-200l-100 100v400h50v-380l75 -75h160l85 75v380h50v-630l-70 -70h-325z" />
    <glyph glyph-name="uni0444" unicode="&#x444;" horiz-adv-x="730" 
d="M340 -200v200h-165l-105 105v290l105 105h165v200h50v-200h165l105 -105v-290l-105 -105h-165v-200h-50zM200 45h140v410h-140l-80 -80v-250zM390 45h140l80 80v250l-80 80h-140v-410z" />
    <glyph glyph-name="uni0445" unicode="&#x445;" horiz-adv-x="510" 
d="M35 0v20l187 239l-172 221v20h48l152 -198h12l152 198h46v-20l-172 -219l187 -241v-20h-48l-167 218h-12l-167 -218h-46z" />
    <glyph glyph-name="uni0446" unicode="&#x446;" horiz-adv-x="585" 
d="M490 45h65v-185h-50v140h-425v500h50v-455h310v455h50v-455z" />
    <glyph glyph-name="uni0447" unicode="&#x447;" horiz-adv-x="530" 
d="M400 0v180h-260l-90 90v230h50v-210l65 -65h235v275h50v-500h-50z" />
    <glyph glyph-name="uni0448" unicode="&#x448;" horiz-adv-x="820" 
d="M80 0v500h50v-455h255v455h50v-455h255v455h50v-500h-660z" />
    <glyph glyph-name="uni0449" unicode="&#x449;" horiz-adv-x="835" 
d="M740 45h65v-185h-50v140h-675v500h50v-455h255v455h50v-455h255v455h50v-455z" />
    <glyph glyph-name="uni044A" unicode="&#x44a;" horiz-adv-x="595" 
d="M460 325l85 -85v-155l-85 -85h-330v455h-120v45h170v-175h280zM495 105v115l-60 60h-255v-235h255z" />
    <glyph glyph-name="uni044B" unicode="&#x44b;" horiz-adv-x="730" 
d="M80 0v500h50v-175h270l85 -85v-155l-85 -85h-320zM600 0v500h50v-500h-50zM130 45h245l60 60v115l-60 60h-245v-235z" />
    <glyph glyph-name="uni044C" unicode="&#x44c;" horiz-adv-x="545" 
d="M80 0v500h50v-175h280l85 -85v-155l-85 -85h-330zM130 45h255l60 60v115l-60 60h-255v-235z" />
    <glyph glyph-name="uni044D" unicode="&#x44d;" horiz-adv-x="545" 
d="M50 0v45h295l80 80v105h-260v45h260v100l-80 80h-290v45h315l105 -105v-290l-105 -105h-320z" />
    <glyph glyph-name="uni044E" unicode="&#x44e;" horiz-adv-x="780" 
d="M80 0v500h50v-225h125v120l105 105h245l105 -105v-290l-105 -105h-245l-105 105v125h-125v-230h-50zM385 45h195l80 80v250l-80 80h-195l-80 -80v-250z" />
    <glyph glyph-name="uni044F" unicode="&#x44f;" horiz-adv-x="568" 
d="M60 0v20l110 163l-92 92v140l85 85h325v-500h-50v190h-205l-125 -190h-48zM188 235h250v220h-250l-60 -60v-100z" />
    <glyph glyph-name="uni0450" unicode="&#x450;" horiz-adv-x="585" 
d="M274 570l-70 150v5h52l61 -150v-5h-43zM175 0l-105 105v290l105 105h250l105 -105v-170h-410v-100l80 -80h290v-45h-315zM120 270h360v105l-80 80h-200l-80 -80v-105z" />
    <glyph glyph-name="uni0451" unicode="&#x451;" horiz-adv-x="585" 
d="M175 615v70h70v-70h-70zM355 615v70h70v-70h-70zM175 0l-105 105v290l105 105h250l105 -105v-170h-410v-100l80 -80h290v-45h-315zM120 270h360v105l-80 80h-200l-80 -80v-105z" />
    <glyph glyph-name="uni0452" unicode="&#x452;" horiz-adv-x="605" 
d="M430 470l100 -100v-520l-50 -50h-190v45h165l25 25v480l-75 75h-180l-85 -75v-350h-50v565h-85v45h85v90h50v-90h225v-45h-225v-145h14l56 50h220z" />
    <glyph glyph-name="uni0453" unicode="&#x453;" horiz-adv-x="440" 
d="M238 570v5l61 150h52v-5l-70 -150h-43zM80 0v500h350v-45h-300v-455h-50z" />
    <glyph glyph-name="uni0454" unicode="&#x454;" horiz-adv-x="550" 
d="M175 0l-105 105v290l105 105h315v-45h-290l-80 -80v-100h270v-45h-270v-105l80 -80h295v-45h-320z" />
    <glyph glyph-name="uni0455" unicode="&#x455;" horiz-adv-x="550" 
d="M74 0l-4 45h320l55 55v80l-55 55h-245l-80 80v105l80 80h325v-45h-300l-55 -55v-65l55 -55h245l80 -80v-120l-76 -80h-345z" />
    <glyph glyph-name="uni0456" unicode="&#x456;" horiz-adv-x="210" 
d="M70 630v70h70v-70h-70zM80 0v500h50v-500h-50z" />
    <glyph glyph-name="uni0457" unicode="&#x457;" horiz-adv-x="210" 
d="M5 620v70h70v-70h-70zM135 620v70h70v-70h-70zM80 0v500h50v-500h-50z" />
    <glyph glyph-name="uni0458" unicode="&#x458;" horiz-adv-x="210" 
d="M70 630v70h70v-70h-70zM-75 -200v45h130l25 25v630h50v-650l-50 -50h-155z" />
    <glyph glyph-name="uni0459" unicode="&#x459;" horiz-adv-x="895" 
d="M15 -5v50h70l32 32l33 423h345v-190h265l85 -85v-140l-85 -85h-315v455h-248l-32 -400l-60 -60h-90zM495 45h240l60 60v100l-60 60h-240v-220z" />
    <glyph glyph-name="uni045A" unicode="&#x45a;" horiz-adv-x="890" 
d="M80 0v500h50v-190h310v190h50v-190h265l85 -85v-140l-85 -85h-315v265h-310v-265h-50zM490 45h240l60 60v100l-60 60h-240v-220z" />
    <glyph glyph-name="uni045B" unicode="&#x45b;" horiz-adv-x="605" 
d="M90 0v565h-85v45h85v90h50v-90h225v-45h-225v-145h14l56 50h220l100 -100v-370h-50v350l-75 75h-180l-85 -75v-350h-50z" />
    <glyph glyph-name="uni045C" unicode="&#x45c;" horiz-adv-x="530" 
d="M265 570v5l61 150h52v-5l-70 -150h-43zM80 0v500h50v-225h148l156 225h43v-20l-157 -225l175 -235v-20h-46l-172 230h-147v-230h-50z" />
    <glyph glyph-name="uni045D" unicode="&#x45d;" horiz-adv-x="595" 
d="M271 570l-70 150v5h52l61 -150v-5h-43zM80 0v500h50v-450h12l288 450h85v-500h-50v450h-12l-288 -450h-85z" />
    <glyph glyph-name="uni045E" unicode="&#x45e;" horiz-adv-x="575" 
d="M205 570l-55 55v80h45v-60l30 -30h120l30 30v60h45v-80l-55 -55h-160zM100 -200v45h300l45 45v161h-13l-57 -51h-200l-100 100v400h50v-380l75 -75h160l85 75v380h50v-630l-70 -70h-325z" />
    <glyph glyph-name="uni045F" unicode="&#x45f;" horiz-adv-x="575" 
d="M495 500v-500h-182v-140h-50v140h-183v500h50v-455h315v455h50z" />
    <glyph glyph-name="uni0490" unicode="&#x490;" horiz-adv-x="630" 
d="M565 815h50v-160h-460v-655h-50v700h460v115z" />
    <glyph glyph-name="uni0491" unicode="&#x491;" horiz-adv-x="440" 
d="M380 590h50v-135h-300v-455h-50v500h300v90z" />
    <glyph glyph-name="uni0492" unicode="&#x492;" horiz-adv-x="660" 
d="M645 655h-460v-288h270v-45h-270v-322h-50v322h-100v45h100v333h510v-45z" />
    <glyph glyph-name="uni0493" unicode="&#x493;" horiz-adv-x="455" 
d="M445 455h-300v-193h155v-45h-155v-217h-50v217h-75v45h75v238h350v-45z" />
    <glyph glyph-name="uni0494" unicode="&#x494;" horiz-adv-x="710" 
d="M391 -110v45h124l80 80v240l-80 80h-253l-107 -88v-247h-50v700h510v-45h-460v-335h15l72 60h298l105 -105v-280l-105 -105h-149z" />
    <glyph glyph-name="uni0495" unicode="&#x495;" horiz-adv-x="540" 
d="M270 -200v45h135l45 45v255l-75 75h-154l-91 -80v-140h-50v500h350v-45h-300v-245h13l62 55h195l100 -100v-295l-70 -70h-160z" />
    <glyph glyph-name="uni0496" unicode="&#x496;" horiz-adv-x="1050" 
d="M967 45h68v-205h-50v160h-47l-236 330h-167v-330h-50v330h-167l-236 -330h-47v20l241 335l-225 325v20h43l225 -325h166v325h50v-325h166l225 325h43v-20l-225 -325z" />
    <glyph glyph-name="uni0497" unicode="&#x497;" horiz-adv-x="810" 
d="M737 45h53v-185h-50v140h-31l-161 230h-128v-230h-50v230h-128l-161 -230h-46v20l165 235l-147 225v20h43l146 -225h128v225h50v-225h128l146 225h43v-20l-147 -225z" />
    <glyph glyph-name="uni049A" unicode="&#x49a;" horiz-adv-x="717" 
d="M633 45h69v-205h-50v160h-47l-250 330h-200v-330h-50v700h50v-325h199l238 325h44v-20l-238 -325z" />
    <glyph glyph-name="uni049B" unicode="&#x49b;" horiz-adv-x="550" 
d="M476 45h54v-185h-50v140h-31l-172 230h-147v-230h-50v500h50v-225h148l156 225h43v-20l-157 -225z" />
    <glyph glyph-name="uni049C" unicode="&#x49c;" horiz-adv-x="687" 
d="M105 0v700h50v-325h87v135h45v-135h67l238 325h44v-20l-238 -325l254 -335v-20h-47l-250 330h-68v-135h-45v135h-87v-330h-50z" />
    <glyph glyph-name="uni049D" unicode="&#x49d;" horiz-adv-x="530" 
d="M80 0v500h50v-225h58v110h50v-110h40l156 225h43v-20l-157 -225l175 -235v-20h-46l-172 230h-39v-110h-50v110h-58v-230h-50z" />
    <glyph glyph-name="uni04A2" unicode="&#x4a2;" horiz-adv-x="810" 
d="M690 45h85v-205h-50v160h-85v335h-485v-335h-50v700h50v-320h485v320h50v-655z" />
    <glyph glyph-name="uni04A3" unicode="&#x4a3;" horiz-adv-x="605" 
d="M510 45h65v-185h-50v140h-65v230h-330v-230h-50v500h50v-225h330v225h50v-455z" />
    <glyph glyph-name="uni04AA" unicode="&#x4aa;" horiz-adv-x="695" 
d="M240 655l-105 -105v-400l105 -105h405v-45h-220v-160h-50v160h-160l-130 130v440l130 130h430v-45h-405z" />
    <glyph glyph-name="uni04AB" unicode="&#x4ab;" horiz-adv-x="535" 
d="M200 455l-80 -80v-250l80 -80h285v-45h-150v-140h-50v140h-110l-105 105v290l105 105h310v-45h-285z" />
    <glyph glyph-name="uni04AE" unicode="&#x4ae;" horiz-adv-x="665" 
d="M308 0v255l-283 425v20h47l253 -385h17l254 385h44v-20l-282 -425v-255h-50z" />
    <glyph glyph-name="uni04AF" unicode="&#x4af;" horiz-adv-x="506" 
d="M224 -200v200l-199 480v20h44l175 -426h13l182 426h42v-20l-207 -480v-200h-50z" />
    <glyph glyph-name="uni04B0" unicode="&#x4b0;" horiz-adv-x="665" 
d="M640 680l-282 -425v-8h180v-45h-180v-202h-50v202h-180v45h180v8l-283 425v20h47l253 -385h17l254 385h44v-20z" />
    <glyph glyph-name="uni04B1" unicode="&#x4b1;" horiz-adv-x="516" 
d="M486 480l-207 -480v-15h155v-45h-155v-140h-50v140h-155v45h155v15l-199 480v20h44l175 -426h13l182 426h42v-20z" />
    <glyph glyph-name="uni04B2" unicode="&#x4b2;" horiz-adv-x="700" 
d="M616 45h69v-205h-50v160h-48l-242 322h-17l-244 -322h-44v20l264 343l-243 317v20h48l224 -297h14l225 297h44v-20l-244 -317z" />
    <glyph glyph-name="uni04B3" unicode="&#x4b3;" horiz-adv-x="530" 
d="M456 45h54v-185h-50v140h-33l-167 218h-12l-167 -218h-46v20l187 239l-172 221v20h48l152 -198h12l152 198h46v-20l-172 -219z" />
    <glyph glyph-name="uni04B6" unicode="&#x4b6;" horiz-adv-x="725" 
d="M605 45h85v-205h-50v160h-85v255h-375l-105 105v340h50v-320l80 -80h350v400h50v-655z" />
    <glyph glyph-name="uni04B7" unicode="&#x4b7;" horiz-adv-x="545" 
d="M450 45h65v-185h-50v140h-65v180h-260l-90 90v230h50v-210l65 -65h235v275h50v-455z" />
    <glyph glyph-name="uni04B8" unicode="&#x4b8;" horiz-adv-x="710" 
d="M555 0v255h-193v-135h-45v135h-137l-105 105v340h50v-320l80 -80h112v135h45v-135h193v400h50v-700h-50z" />
    <glyph glyph-name="uni04B9" unicode="&#x4b9;" horiz-adv-x="530" 
d="M400 0v180h-120v-110h-50v110h-90l-90 90v230h50v-210l65 -65h65v110h50v-110h120v275h50v-500h-50z" />
    <glyph glyph-name="uni04BA" unicode="&#x4ba;" horiz-adv-x="710" 
d="M105 0v700h50v-255h375l105 -105v-340h-50v320l-80 80h-350v-400h-50z" />
    <glyph glyph-name="uni04BB" unicode="&#x4bb;" horiz-adv-x="600" 
d="M85 0v700h50v-250h14l56 50h220l100 -100v-400h-50v380l-75 75h-180l-85 -75v-380h-50z" />
    <glyph glyph-name="uni04C1" unicode="&#x4c1;" horiz-adv-x="1020" 
d="M440 760l-55 55v55h45v-35l30 -30h100l30 30v35h45v-55l-55 -55h-140zM35 0v20l241 335l-225 325v20h43l225 -325h166v325h50v-325h166l225 325h43v-20l-225 -325l241 -335v-20h-47l-236 330h-167v-330h-50v330h-167l-236 -330h-47z" />
    <glyph glyph-name="uni04C2" unicode="&#x4c2;" horiz-adv-x="790" 
d="M315 570l-55 55v80h45v-60l30 -30h120l30 30v60h45v-80l-55 -55h-160zM35 0v20l165 235l-147 225v20h43l146 -225h128v225h50v-225h128l146 225h43v-20l-147 -225l165 -235v-20h-46l-161 230h-128v-230h-50v230h-128l-161 -230h-46z" />
    <glyph glyph-name="uni04D2" unicode="&#x4d2;" horiz-adv-x="735" 
d="M313 850v-70h-70v70h70zM493 850v-70h-70v70h70zM404 700l301 -680v-20h-47l-91 210h-400l-92 -210h-45v20l301 680h73zM186 255h361l-171 395h-17z" />
    <glyph glyph-name="uni04D3" unicode="&#x4d3;" horiz-adv-x="565" 
d="M170 615v70h70v-70h-70zM350 615v70h70v-70h-70zM135 0l-80 80v135l85 85h300v90l-65 65h-260v45h285l90 -90v-410h-45v55h-12l-63 -55h-235zM160 45h190l90 80v130h-275l-60 -60v-95z" />
    <glyph glyph-name="uni04D8" unicode="&#x4d8;" horiz-adv-x="795" 
d="M210 0l-130 130v255h580v165l-105 105h-440v45h465l130 -130v-440l-130 -130h-370zM235 45h320l105 105v190h-530v-190z" />
    <glyph glyph-name="uni04D9" unicode="&#x4d9;" horiz-adv-x="585" 
d="M160 0l-105 105v170h410v100l-80 80h-290v45h315l105 -105v-290l-105 -105h-250zM185 45h200l80 80v105h-360v-105z" />
    <glyph glyph-name="uni04E0" unicode="&#x4e0;" horiz-adv-x="650" 
d="M50 0v45h405l80 80v135l-80 80h-265v55l302 250v10h-432v45h500v-55l-302 -250v-10h222l105 -105v-175l-105 -105h-430z" />
    <glyph glyph-name="uni04E1" unicode="&#x4e1;" horiz-adv-x="500" 
d="M30 -200v45h295l80 80v135l-80 80h-193v50l245 253v12h-342v45h410v-50l-245 -253v-12h150l105 -105v-175l-105 -105h-320z" />
    <glyph glyph-name="uni04E2" unicode="&#x4e2;" horiz-adv-x="790" 
d="M265 795v45h260v-45h-260zM105 0v700h50v-650h15l427 650h88v-700h-50v650h-15l-427 -650h-88z" />
    <glyph glyph-name="uni04E3" unicode="&#x4e3;" horiz-adv-x="595" 
d="M167 630v45h260v-45h-260zM80 0v500h50v-450h12l288 450h85v-500h-50v450h-12l-288 -450h-85z" />
    <glyph glyph-name="uni04E6" unicode="&#x4e6;" horiz-adv-x="800" 
d="M275 780v70h70v-70h-70zM455 780v70h70v-70h-70zM215 0l-130 130v440l130 130h370l130 -130v-440l-130 -130h-370zM240 45h320l105 105v400l-105 105h-320l-105 -105v-400z" />
    <glyph glyph-name="uni04E7" unicode="&#x4e7;" horiz-adv-x="615" 
d="M183 615v70h70v-70h-70zM363 615v70h70v-70h-70zM175 0l-105 105v290l105 105h265l105 -105v-290l-105 -105h-265zM200 45h215l80 80v250l-80 80h-215l-80 -80v-250z" />
    <glyph glyph-name="uni04E8" unicode="&#x4e8;" horiz-adv-x="800" 
d="M585 700l130 -130v-440l-130 -130h-370l-130 130v440l130 130h370zM240 655l-105 -105v-176h530v176l-105 105h-320zM560 45l105 105v179h-530v-179l105 -105h320z" />
    <glyph glyph-name="uni04E9" unicode="&#x4e9;" horiz-adv-x="615" 
d="M440 500l105 -105v-290l-105 -105h-265l-105 105v290l105 105h265zM200 455l-80 -80v-101h375v101l-80 80h-215zM415 45l80 80v104h-375v-104l80 -80h215z" />
    <glyph glyph-name="uni04EE" unicode="&#x4ee;" horiz-adv-x="660" 
d="M207 795v45h260v-45h-260zM141 0v48h128l54 109l-293 523v20h46l266 -475h16l240 475h42v-20l-344 -680h-155z" />
    <glyph glyph-name="uni04EF" unicode="&#x4ef;" horiz-adv-x="575" 
d="M155 630v45h260v-45h-260zM100 -200v45h300l45 45v161h-13l-57 -51h-200l-100 100v400h50v-380l75 -75h160l85 75v380h50v-630l-70 -70h-325z" />
    <glyph glyph-name="uni04F0" unicode="&#x4f0;" horiz-adv-x="660" 
d="M212 780v70h70v-70h-70zM392 780v70h70v-70h-70zM141 0v48h128l54 109l-293 523v20h46l266 -475h16l240 475h42v-20l-344 -680h-155z" />
    <glyph glyph-name="uni04F1" unicode="&#x4f1;" horiz-adv-x="575" 
d="M160 615v70h70v-70h-70zM340 615v70h70v-70h-70zM100 -200v45h300l45 45v161h-13l-57 -51h-200l-100 100v400h50v-380l75 -75h160l85 75v380h50v-630l-70 -70h-325z" />
    <glyph glyph-name="Wgrave" unicode="&#x1e80;" horiz-adv-x="971" 
d="M449 760l-58 115v5h54l52 -115v-5h-48zM254 0l-219 680v20h46l209 -650h19l156 484l-45 146v20h45l200 -650h18l209 650h44v-20l-219 -680h-83l-139 450h-10l-147 -450h-84z" />
    <glyph glyph-name="wgrave" unicode="&#x1e81;" horiz-adv-x="734" 
d="M329 570l-70 150v5h52l61 -150v-5h-43zM190 0l-160 480v20h44l149 -450h16l110 321l-33 109v20h44l136 -450h15l151 450h42v-20l-162 -480h-79l-88 287h-8l-98 -287h-79z" />
    <glyph glyph-name="Wacute" unicode="&#x1e82;" horiz-adv-x="971" 
d="M457 760v5l52 115h54v-5l-58 -115h-48zM254 0l-219 680v20h46l209 -650h19l156 484l-45 146v20h45l200 -650h18l209 650h44v-20l-219 -680h-83l-139 450h-10l-147 -450h-84z" />
    <glyph glyph-name="wacute" unicode="&#x1e83;" horiz-adv-x="734" 
d="M338 570v5l61 150h52v-5l-70 -150h-43zM190 0l-160 480v20h44l149 -450h16l110 321l-33 109v20h44l136 -450h15l151 450h42v-20l-162 -480h-79l-88 287h-8l-98 -287h-79z" />
    <glyph glyph-name="Wdieresis" unicode="&#x1e84;" horiz-adv-x="971" 
d="M350 780v70h70v-70h-70zM530 780v70h70v-70h-70zM254 0l-219 680v20h46l209 -650h19l156 484l-45 146v20h45l200 -650h18l209 650h44v-20l-219 -680h-83l-139 450h-10l-147 -450h-84z" />
    <glyph glyph-name="wdieresis" unicode="&#x1e85;" horiz-adv-x="734" 
d="M230 615v70h70v-70h-70zM410 615v70h70v-70h-70zM190 0l-160 480v20h44l149 -450h16l110 321l-33 109v20h44l136 -450h15l151 450h42v-20l-162 -480h-79l-88 287h-8l-98 -287h-79z" />
    <glyph glyph-name="uni1E9E" unicode="&#x1e9e;" horiz-adv-x="745" 
d="M105 0v595l105 105h440v-55l-198 -217v-13h133l105 -105v-205l-105 -105h-315v45h290l80 80v165l-80 80h-170v55l197 216v14h-352l-80 -80v-575h-50z" />
    <glyph glyph-name="Ygrave" unicode="&#x1ef2;" horiz-adv-x="665" 
d="M308 760l-58 115v5h54l52 -115v-5h-48zM308 0v255l-283 425v20h47l253 -385h17l254 385h44v-20l-282 -425v-255h-50z" />
    <glyph glyph-name="ygrave" unicode="&#x1ef3;" horiz-adv-x="575" 
d="M259 570l-70 150v5h52l61 -150v-5h-43zM100 -200v45h300l45 45v161h-13l-57 -51h-200l-100 100v400h50v-380l75 -75h160l85 75v380h50v-630l-70 -70h-325z" />
    <glyph glyph-name="endash" unicode="&#x2013;" horiz-adv-x="610" 
d="M55 252v45h500v-45h-500z" />
    <glyph glyph-name="emdash" unicode="&#x2014;" horiz-adv-x="960" 
d="M55 252v45h850v-45h-850z" />
    <glyph glyph-name="quoteleft" unicode="&#x2018;" horiz-adv-x="205" 
d="M135 700l-24 -110h29v-80h-75v65l40 125h30z" />
    <glyph glyph-name="quoteright" unicode="&#x2019;" horiz-adv-x="205" 
d="M70 510l24 110h-29v80h75v-65l-40 -125h-30z" />
    <glyph glyph-name="quotesinglbase" unicode="&#x201a;" horiz-adv-x="205" 
d="M70 -120l24 110h-29v80h75v-65l-40 -125h-30z" />
    <glyph glyph-name="quotedblleft" unicode="&#x201c;" horiz-adv-x="340" 
d="M135 700l-24 -110h29v-80h-75v65l40 125h30zM270 700l-24 -110h29v-80h-75v65l40 125h30z" />
    <glyph glyph-name="quotedblright" unicode="&#x201d;" horiz-adv-x="340" 
d="M70 510l24 110h-29v80h75v-65l-40 -125h-30zM205 510l24 110h-29v80h75v-65l-40 -125h-30z" />
    <glyph glyph-name="quotedblbase" unicode="&#x201e;" horiz-adv-x="340" 
d="M70 -120l24 110h-29v80h75v-65l-40 -125h-30zM205 -120l24 110h-29v80h75v-65l-40 -125h-30z" />
    <glyph glyph-name="dagger" unicode="&#x2020;" horiz-adv-x="620" 
d="M285 -50v550h-195v45h195v205h50v-205h195v-45h-195v-550h-50z" />
    <glyph glyph-name="daggerdbl" unicode="&#x2021;" horiz-adv-x="620" 
d="M285 -50v205h-195v45h195v300h-195v45h195v205h50v-205h195v-45h-195v-300h195v-45h-195v-205h-50z" />
    <glyph glyph-name="bullet" unicode="&#x2022;" horiz-adv-x="365" 
d="M130 240v100h105v-100h-105z" />
    <glyph glyph-name="ellipsis" unicode="&#x2026;" horiz-adv-x="830" 
d="M110 0v70h70v-70h-70zM380 0v70h70v-70h-70zM650 0v70h70v-70h-70z" />
    <glyph glyph-name="perthousand" unicode="&#x2030;" horiz-adv-x="1300" 
d="M145 390l-75 75v160l75 75h145l75 -75v-160l-75 -75h-145zM205 0v15l460 685h45v-15l-460 -685h-45zM165 430h105l50 50v130l-50 50h-105l-50 -50v-130zM625 0l-75 75v160l75 75h145l75 -75v-160l-75 -75h-145zM1010 0l-75 75v160l75 75h145l75 -75v-160l-75 -75h-145z
M645 40h105l50 50v130l-50 50h-105l-50 -50v-130zM1030 40h105l50 50v130l-50 50h-105l-50 -50v-130z" />
    <glyph glyph-name="guilsinglleft" unicode="&#x2039;" horiz-adv-x="386" 
d="M298 0l-253 250l253 250l33 -33l-222 -217l222 -217z" />
    <glyph glyph-name="guilsinglright" unicode="&#x203a;" horiz-adv-x="386" 
d="M88 0l-33 33l222 217l-222 217l33 33l253 -250z" />
    <glyph glyph-name="fraction" unicode="&#x2044;" horiz-adv-x="85" 
d="M-210 0v15l460 685h45v-15l-460 -685h-45z" />
    <glyph glyph-name="uni2070" unicode="&#x2070;" horiz-adv-x="380" 
d="M110 470l-65 65v200l65 65h160l65 -65v-200l-65 -65h-160zM130 510h120l40 40v170l-40 40h-120l-40 -40v-170z" />
    <glyph glyph-name="uni2074" unicode="&#x2074;" horiz-adv-x="335" 
d="M200 470v65h-210v50l197 215h58v-225h45v-40h-45v-65h-45zM40 575h160v175h-5l-155 -170v-5z" />
    <glyph glyph-name="uni2075" unicode="&#x2075;" horiz-adv-x="355" 
d="M40 470v40h200l30 30v60l-30 30h-195v170h250v-40h-205v-90h170l55 -55v-90l-55 -55h-220z" />
    <glyph glyph-name="uni2076" unicode="&#x2076;" horiz-adv-x="370" 
d="M100 470l-55 55v220l55 55h210v-40h-190l-30 -30v-55h185l55 -55v-95l-55 -55h-175zM120 510h135l30 30v65l-30 30h-165v-95z" />
    <glyph glyph-name="uni2077" unicode="&#x2077;" horiz-adv-x="320" 
d="M113 470v15l157 270v5h-220v40h265v-50l-160 -280h-42z" />
    <glyph glyph-name="uni2078" unicode="&#x2078;" horiz-adv-x="380" 
d="M95 470l-50 50v80l42 42l-32 33v75l50 50h170l50 -50v-75l-32 -33l42 -42v-80l-50 -50h-190zM128 657h124l28 28v50l-25 25h-130l-25 -25v-50zM115 510h150l25 25v55l-27 27h-146l-27 -27v-55z" />
    <glyph glyph-name="uni2079" unicode="&#x2079;" horiz-adv-x="370" 
d="M60 470v40h190l30 30v55h-185l-55 55v95l55 55h175l55 -55v-220l-55 -55h-210zM115 635h165v95l-30 30h-135l-30 -30v-65z" />
    <glyph glyph-name="uni2080" unicode="&#x2080;" horiz-adv-x="380" 
d="M110 -100l-65 65v200l65 65h160l65 -65v-200l-65 -65h-160zM130 -60h120l40 40v170l-40 40h-120l-40 -40v-170z" />
    <glyph glyph-name="uni2081" unicode="&#x2081;" horiz-adv-x="330" 
d="M70 -100v40h80v250h-75v40h120v-290h75v-40h-200z" />
    <glyph glyph-name="uni2082" unicode="&#x2082;" horiz-adv-x="365" 
d="M40 -100v125l60 60h155l30 30v45l-30 30h-205v40h225l55 -55v-75l-55 -55h-155l-35 -35v-70h240v-40h-285z" />
    <glyph glyph-name="uni2083" unicode="&#x2083;" horiz-adv-x="375" 
d="M45 -100v40h220l25 25v55l-30 30h-135v40h130l25 25v50l-25 25h-205v40h225l50 -50v-75l-30 -32l40 -40v-83l-50 -50h-240z" />
    <glyph glyph-name="uni2084" unicode="&#x2084;" horiz-adv-x="335" 
d="M200 -100v65h-210v50l197 215h58v-225h45v-40h-45v-65h-45zM40 5h160v175h-5l-155 -170v-5z" />
    <glyph glyph-name="uni2085" unicode="&#x2085;" horiz-adv-x="355" 
d="M40 -100v40h200l30 30v60l-30 30h-195v170h250v-40h-205v-90h170l55 -55v-90l-55 -55h-220z" />
    <glyph glyph-name="uni2086" unicode="&#x2086;" horiz-adv-x="370" 
d="M100 -100l-55 55v220l55 55h210v-40h-190l-30 -30v-55h185l55 -55v-95l-55 -55h-175zM120 -60h135l30 30v65l-30 30h-165v-95z" />
    <glyph glyph-name="uni2087" unicode="&#x2087;" horiz-adv-x="320" 
d="M113 -100v15l157 270v5h-220v40h265v-50l-160 -280h-42z" />
    <glyph glyph-name="uni2088" unicode="&#x2088;" horiz-adv-x="380" 
d="M95 -100l-50 50v80l42 42l-32 33v75l50 50h170l50 -50v-75l-32 -33l42 -42v-80l-50 -50h-190zM128 87h124l28 28v50l-25 25h-130l-25 -25v-50zM115 -60h150l25 25v55l-27 27h-146l-27 -27v-55z" />
    <glyph glyph-name="uni2089" unicode="&#x2089;" horiz-adv-x="370" 
d="M60 -100v40h190l30 30v55h-185l-55 55v95l55 55h175l55 -55v-220l-55 -55h-210zM115 65h165v95l-30 30h-135l-30 -30v-65z" />
    <glyph glyph-name="uni20A9" unicode="&#x20a9;" horiz-adv-x="870" 
d="M840 420h-97l-34 -135h131v-45h-143l-61 -240h-88l-106 435h-10l-110 -435h-88l-61 240h-143v45h131l-34 135h-97v45h85l-55 215v20h45l167 -650h16l125 494l-33 136v20h45l159 -650h15l166 650h45v-20l-55 -215h85v-45z" />
    <glyph glyph-name="Euro" unicode="&#x20ac;" horiz-adv-x="735" 
d="M275 0l-130 130v115h-85v45h85v120h-85v45h85v115l130 130h410v-45h-385l-105 -105v-95h319v-45h-319v-120h319v-45h-319v-95l105 -105h385v-45h-410z" />
    <glyph glyph-name="uni20B4" unicode="&#x20b4;" horiz-adv-x="730" 
d="M55 390v45h440l60 60v100l-60 60h-355v45h380l85 -85v-135l-45 -45h115v-45h-620zM190 0l-85 85v140l40 40h-90v45h620v-45h-460l-60 -60v-100l60 -60h395v-45h-420z" />
    <glyph glyph-name="uni20B8" unicode="&#x20b8;" horiz-adv-x="610" 
d="M15 655v45h580v-45h-580zM280 0v530h-265v45h580v-45h-265v-530h-50z" />
    <glyph glyph-name="uni20B9" unicode="&#x20b9;" horiz-adv-x="665" 
d="M491 0l-431 275v75h330l80 80v50h-410v45h410v50l-80 80h-330v45h545v-45h-145l60 -60v-70h85v-45h-85v-70l-105 -105h-295v-10l433 -275v-20h-62z" />
    <glyph glyph-name="uni20BA" unicode="&#x20ba;" horiz-adv-x="615" 
d="M540 305h50v-180l-125 -125h-343v276l-87 -31h-10v43l97 34v111l-87 -31h-10v43l97 34v221h50v-203l273 97h8v-44l-281 -99v-111l273 96h8v-43l-281 -99v-249h268l100 100v160z" />
    <glyph glyph-name="uni20BD" unicode="&#x20bd;" horiz-adv-x="780" 
d="M150 0v120h-85v45h85v105h-85v45h85v385h455l115 -115v-200l-115 -115h-405v-105h405v-45h-405v-120h-50zM200 315h380l90 90v160l-90 90h-380v-340z" />
    <glyph glyph-name="uni20BF" unicode="&#x20bf;" horiz-adv-x="765" 
d="M265 -100v100h-160v700h160v100h45v-100h105v100h45v-100h100l100 -100v-155l-65 -65l100 -100v-175l-105 -105h-130v-100h-45v100h-105v-100h-45zM155 390h380l75 75v115l-75 75h-380v-265zM155 45h410l80 80v135l-85 85h-405v-300z" />
    <glyph glyph-name="uni2113" unicode="&#x2113;" horiz-adv-x="400" 
d="M160 0l-50 50v180h-65v45h65v365l60 60h110l60 -60v-218l-180 -192v-160l25 -25h135v-45h-160zM160 310h13l117 124v186l-35 35h-60l-35 -35v-310z" />
    <glyph glyph-name="uni2116" unicode="&#x2116;" horiz-adv-x="1170" 
d="M105 0v700h88l429 -650h15v650h48v-700h-88l-429 650h-15v-650h-48zM880 380l-75 75v170l75 75h150l75 -75v-170l-75 -75h-150zM900 420h110l50 50v140l-50 50h-110l-50 -50v-140zM805 250v45h300v-45h-300z" />
    <glyph glyph-name="uni2117" unicode="&#x2117;" horiz-adv-x="1010" 
d="M260 -40l-150 150v470l150 150h490l150 -150v-470l-150 -150h-490zM285 5h440l125 125v430l-125 125h-440l-125 -125v-430zM365 150v390h250l65 -65v-120l-65 -65h-200v-140h-50zM415 335h175l40 40v80l-40 40h-175v-160z" />
    <glyph glyph-name="trademark" unicode="&#x2122;" horiz-adv-x="895" 
d="M165 310v345h-145v45h340v-45h-145v-345h-50zM410 310v390h90l111 -285h8l111 285h90v-390h-50v345h-8l-112 -285h-70l-112 285h-8v-345h-50z" />
    <glyph glyph-name="uni2126" unicode="&#x2126;" horiz-adv-x="860" 
d="M115 0v45h170v10l-170 150v365l130 130h370l130 -130v-362l-173 -153v-10h173v-45h-250v49l200 176v325l-105 105h-320l-105 -105v-325l200 -176v-49h-250z" />
    <glyph glyph-name="estimated" unicode="&#x212e;" horiz-adv-x="850" 
d="M440 -20q-163 0 -271.5 104.5t-108.5 255.5t106.5 255.5t263.5 104.5t263.5 -105t106.5 -260h-576q-14 0 -14 -15v-202q0 -48 75 -80.5t155 -32.5q46 0 89.5 13t73 31t53 38.5t34.5 34t13 18.5h57q-5 -8 -17.5 -23t-42 -40t-64 -45.5t-87.5 -36t-109 -15.5zM224 360h412
q14 0 14 15v190q0 34 -39.5 60t-88.5 38t-92 12q-73 0 -146.5 -30.5t-73.5 -79.5v-190q0 -15 14 -15z" />
    <glyph glyph-name="uni2150" unicode="&#x2150;" horiz-adv-x="735" 
d="M70 370v40h80v250h-75v40h120v-290h75v-40h-200zM120 0v15l460 685h45v-15l-460 -685h-45zM528 0v15l157 270v5h-220v40h265v-50l-160 -280h-42z" />
    <glyph glyph-name="uni2151" unicode="&#x2151;" horiz-adv-x="785" 
d="M70 370v40h80v250h-75v40h120v-290h75v-40h-200zM120 0v15l460 685h45v-15l-460 -685h-45zM475 0v40h190l30 30v55h-185l-55 55v95l55 55h175l55 -55v-220l-55 -55h-210zM530 165h165v95l-30 30h-135l-30 -30v-65z" />
    <glyph glyph-name="uni2152" unicode="&#x2152;" horiz-adv-x="1050" 
d="M70 370v40h80v250h-75v40h120v-290h75v-40h-200zM120 0v15l460 685h45v-15l-460 -685h-45zM485 0v40h80v250h-75v40h120v-290h75v-40h-200zM780 0l-65 65v200l65 65h160l65 -65v-200l-65 -65h-160zM800 40h120l40 40v170l-40 40h-120l-40 -40v-170z" />
    <glyph glyph-name="uni2153" unicode="&#x2153;" horiz-adv-x="790" 
d="M70 370v40h80v250h-75v40h120v-290h75v-40h-200zM120 0v15l460 685h45v-15l-460 -685h-45zM460 0v40h220l25 25v55l-30 30h-135v40h130l25 25v50l-25 25h-205v40h225l50 -50v-75l-30 -32l40 -40v-83l-50 -50h-240z" />
    <glyph glyph-name="uni2154" unicode="&#x2154;" horiz-adv-x="825" 
d="M40 370v125l60 60h155l30 30v45l-30 30h-205v40h225l55 -55v-75l-55 -55h-155l-35 -35v-70h240v-40h-285zM155 0v15l460 685h45v-15l-460 -685h-45zM495 0v40h220l25 25v55l-30 30h-135v40h130l25 25v50l-25 25h-205v40h225l50 -50v-75l-30 -32l40 -40v-83l-50 -50h-240z
" />
    <glyph glyph-name="uni2155" unicode="&#x2155;" horiz-adv-x="770" 
d="M70 370v40h80v250h-75v40h120v-290h75v-40h-200zM120 0v15l460 685h45v-15l-460 -685h-45zM455 0v40h200l30 30v60l-30 30h-195v170h250v-40h-205v-90h170l55 -55v-90l-55 -55h-220z" />
    <glyph glyph-name="uni2156" unicode="&#x2156;" horiz-adv-x="805" 
d="M40 370v125l60 60h155l30 30v45l-30 30h-205v40h225l55 -55v-75l-55 -55h-155l-35 -35v-70h240v-40h-285zM155 0v15l460 685h45v-15l-460 -685h-45zM490 0v40h200l30 30v60l-30 30h-195v170h250v-40h-205v-90h170l55 -55v-90l-55 -55h-220z" />
    <glyph glyph-name="uni2157" unicode="&#x2157;" horiz-adv-x="815" 
d="M45 370v40h220l25 25v55l-30 30h-135v40h130l25 25v50l-25 25h-205v40h225l50 -50v-75l-30 -32l40 -40v-83l-50 -50h-240zM165 0v15l460 685h45v-15l-460 -685h-45zM500 0v40h200l30 30v60l-30 30h-195v170h250v-40h-205v-90h170l55 -55v-90l-55 -55h-220z" />
    <glyph glyph-name="uni2158" unicode="&#x2158;" horiz-adv-x="775" 
d="M200 370v65h-210v50l197 215h58v-225h45v-40h-45v-65h-45zM125 0v15l460 685h45v-15l-460 -685h-45zM40 475h160v175h-5l-155 -170v-5zM460 0v40h200l30 30v60l-30 30h-195v170h250v-40h-205v-90h170l55 -55v-90l-55 -55h-220z" />
    <glyph glyph-name="uni2159" unicode="&#x2159;" horiz-adv-x="785" 
d="M70 370v40h80v250h-75v40h120v-290h75v-40h-200zM120 0v15l460 685h45v-15l-460 -685h-45zM515 0l-55 55v220l55 55h210v-40h-190l-30 -30v-55h185l55 -55v-95l-55 -55h-175zM535 40h135l30 30v65l-30 30h-165v-95z" />
    <glyph glyph-name="uni215A" unicode="&#x215a;" horiz-adv-x="810" 
d="M40 370v40h200l30 30v60l-30 30h-195v170h250v-40h-205v-90h170l55 -55v-90l-55 -55h-220zM145 0v15l460 685h45v-15l-460 -685h-45zM540 0l-55 55v220l55 55h210v-40h-190l-30 -30v-55h185l55 -55v-95l-55 -55h-175zM560 40h135l30 30v65l-30 30h-165v-95z" />
    <glyph glyph-name="oneeighth" unicode="&#x215b;" horiz-adv-x="795" 
d="M70 370v40h80v250h-75v40h120v-290h75v-40h-200zM120 0v15l460 685h45v-15l-460 -685h-45zM510 0l-50 50v80l42 42l-32 33v75l50 50h170l50 -50v-75l-32 -33l42 -42v-80l-50 -50h-190zM543 187h124l28 28v50l-25 25h-130l-25 -25v-50zM530 40h150l25 25v55l-27 27h-146
l-27 -27v-55z" />
    <glyph glyph-name="threeeighths" unicode="&#x215c;" horiz-adv-x="840" 
d="M45 370v40h220l25 25v55l-30 30h-135v40h130l25 25v50l-25 25h-205v40h225l50 -50v-75l-30 -32l40 -40v-83l-50 -50h-240zM165 0v15l460 685h45v-15l-460 -685h-45zM555 0l-50 50v80l42 42l-32 33v75l50 50h170l50 -50v-75l-32 -33l42 -42v-80l-50 -50h-190zM588 187h124
l28 28v50l-25 25h-130l-25 -25v-50zM575 40h150l25 25v55l-27 27h-146l-27 -27v-55z" />
    <glyph glyph-name="fiveeighths" unicode="&#x215d;" horiz-adv-x="820" 
d="M40 370v40h200l30 30v60l-30 30h-195v170h250v-40h-205v-90h170l55 -55v-90l-55 -55h-220zM145 0v15l460 685h45v-15l-460 -685h-45zM535 0l-50 50v80l42 42l-32 33v75l50 50h170l50 -50v-75l-32 -33l42 -42v-80l-50 -50h-190zM568 187h124l28 28v50l-25 25h-130l-25 -25
v-50zM555 40h150l25 25v55l-27 27h-146l-27 -27v-55z" />
    <glyph glyph-name="seveneighths" unicode="&#x215e;" horiz-adv-x="785" 
d="M113 370v15l157 270v5h-220v40h265v-50l-160 -280h-42zM110 0v15l460 685h45v-15l-460 -685h-45zM500 0l-50 50v80l42 42l-32 33v75l50 50h170l50 -50v-75l-32 -33l42 -42v-80l-50 -50h-190zM533 187h124l28 28v50l-25 25h-130l-25 -25v-50zM520 40h150l25 25v55l-27 27
h-146l-27 -27v-55z" />
    <glyph glyph-name="uni215F" unicode="&#x215f;" horiz-adv-x="415" 
d="M70 370v40h80v250h-75v40h120v-290h75v-40h-200zM120 0v15l460 685h45v-15l-460 -685h-45z" />
    <glyph glyph-name="arrowleft" unicode="&#x2190;" horiz-adv-x="1040" 
d="M405 60l-290 290l290 290l29 -29l-229 -229v-10h720v-45h-720v-9l229 -229z" />
    <glyph glyph-name="arrowup" unicode="&#x2191;" horiz-adv-x="1040" 
d="M497 -50v720h-9l-229 -229l-29 29l290 290l290 -290l-29 -29l-229 229h-10v-720h-45z" />
    <glyph glyph-name="arrowright" unicode="&#x2192;" horiz-adv-x="1040" 
d="M635 60l-29 29l229 229v9h-720v45h720v10l-229 229l29 29l290 -290z" />
    <glyph glyph-name="arrowdown" unicode="&#x2193;" horiz-adv-x="1040" 
d="M520 -60l-290 290l29 29l229 -229h9v720h45v-720h10l229 229l29 -29z" />
    <glyph glyph-name="arrowboth" unicode="&#x2194;" horiz-adv-x="1040" 
d="M350 60l-290 290l290 290l29 -29l-229 -229v-10h740v10l-229 229l29 29l290 -290l-290 -290l-29 29l229 229v9h-740v-9l229 -229z" />
    <glyph glyph-name="uni2196" unicode="&#x2196;" horiz-adv-x="1040" 
d="M812 51l-509 510l-7 -6v-325h-41v410h410v-41h-324l-7 -6l510 -510z" />
    <glyph glyph-name="uni2197" unicode="&#x2197;" horiz-adv-x="1040" 
d="M228 51l-32 32l510 510l-7 6h-324v41h410v-410h-41v325l-7 6z" />
    <glyph glyph-name="uni2198" unicode="&#x2198;" horiz-adv-x="1040" 
d="M375 60v41h324l7 6l-510 510l32 32l509 -510l7 6v325h41v-410h-410z" />
    <glyph glyph-name="uni2199" unicode="&#x2199;" horiz-adv-x="1040" 
d="M255 60v410h41v-325l7 -6l509 510l32 -32l-510 -510l7 -6h324v-41h-410z" />
    <glyph glyph-name="partialdiff" unicode="&#x2202;" horiz-adv-x="590" 
d="M170 0l-105 105v245l105 105h290v95l-105 105h-240v45h265l130 -130v-455l-115 -115h-225zM195 45h175l90 90v275h-265l-80 -80v-205z" />
    <glyph glyph-name="emptyset" unicode="&#x2205;" horiz-adv-x="852" 
d="M757 707v-21l-63 -69l47 -47v-440l-130 -130h-370l-51 51l-52 -59h-43v19l63 72l-47 47v440l130 130h370l51 -51l52 58h43zM161 550v-400l30 -30l438 492l-43 43h-320zM691 150v400l-30 30l-439 -491l44 -44h320z" />
    <glyph glyph-name="uni2206" unicode="&#x2206;" horiz-adv-x="711" 
d="M60 0v45l262 655h72l257 -655v-45h-591zM117 45h477v15l-230 590h-12l-235 -590v-15z" />
    <glyph glyph-name="product" unicode="&#x220f;" horiz-adv-x="780" 
d="M195 -100v755h-90v45h570v-45h-90v-755h-50v755h-290v-755h-50z" />
    <glyph glyph-name="summation" unicode="&#x2211;" horiz-adv-x="580" 
d="M65 -100v60l275 343v12l-275 325v60h465v-45h-405v-10l270 -321v-30l-270 -339v-10h410v-45h-470z" />
    <glyph glyph-name="minus" unicode="&#x2212;" horiz-adv-x="580" 
d="M45 327v45h490v-45h-490z" />
    <glyph glyph-name="radical" unicode="&#x221a;" horiz-adv-x="690" 
d="M275 -110l-120 300h-130v45h165l119 -295h14l302 870h45v-15l-315 -905h-80z" />
    <glyph glyph-name="infinity" unicode="&#x221e;" horiz-adv-x="846" 
d="M150 168l-80 80v155l80 80h150l123 -123l123 123h150l80 -80v-155l-80 -80h-150l-123 123l-123 -123h-150zM175 213h101l113 112l-113 113h-101l-55 -55v-115zM570 213h101l55 55v115l-55 55h-101l-113 -113z" />
    <glyph glyph-name="integral" unicode="&#x222b;" horiz-adv-x="350" 
d="M40 -100v45h90l20 20v790l45 45h115v-45h-90l-20 -20v-790l-45 -45h-115z" />
    <glyph glyph-name="approxequal" unicode="&#x2248;" horiz-adv-x="580" 
d="M63 376v65l60 60h144l80 -80h91l30 30v50h50v-65l-60 -60h-134l-80 80h-101l-30 -30v-50h-50zM63 206v65l60 60h144l80 -80h91l30 30v50h50v-65l-60 -60h-134l-80 80h-101l-30 -30v-50h-50z" />
    <glyph glyph-name="notequal" unicode="&#x2260;" horiz-adv-x="580" 
d="M525 425h-174l-70 -150h244v-45h-265l-60 -130h-45v15l53 115h-153v45h174l70 150h-244v45h265l60 130h45v-15l-53 -115h153v-45z" />
    <glyph glyph-name="lessequal" unicode="&#x2264;" horiz-adv-x="445" 
d="M330 120l-290 290l290 290l35 -35l-255 -255l256 -254zM40 0v45h375v-45h-375z" />
    <glyph glyph-name="greaterequal" unicode="&#x2265;" horiz-adv-x="445" 
d="M115 120l-36 36l256 254l-255 255l35 35l290 -290zM405 0h-375v45h375v-45z" />
    <glyph glyph-name="uni2460" unicode="&#x2460;" horiz-adv-x="1050" 
d="M285 -60l-180 180v450l180 180h480l180 -180v-450l-180 -180h-480zM310 -15h430l155 155v410l-155 155h-430l-155 -155v-410zM438 180v40h80v250h-75v40h120v-290h75v-40h-200z" />
    <glyph glyph-name="uni2461" unicode="&#x2461;" horiz-adv-x="1050" 
d="M285 -60l-180 180v450l180 180h480l180 -180v-450l-180 -180h-480zM310 -15h430l155 155v410l-155 155h-430l-155 -155v-410zM390 180v125l60 60h155l30 30v45l-30 30h-205v40h225l55 -55v-75l-55 -55h-155l-35 -35v-70h240v-40h-285z" />
    <glyph glyph-name="uni2462" unicode="&#x2462;" horiz-adv-x="1050" 
d="M285 -60l-180 180v450l180 180h480l180 -180v-450l-180 -180h-480zM310 -15h430l155 155v410l-155 155h-430l-155 -155v-410zM389 180v40h220l25 25v55l-30 30h-135v40h130l25 25v50l-25 25h-205v40h225l50 -50v-75l-30 -32l40 -40v-83l-50 -50h-240z" />
    <glyph glyph-name="uni2463" unicode="&#x2463;" horiz-adv-x="1050" 
d="M285 -60l-180 180v450l180 180h480l180 -180v-450l-180 -180h-480zM310 -15h430l155 155v410l-155 155h-430l-155 -155v-410zM570 180v65h-210v50l197 215h58v-225h45v-40h-45v-65h-45zM410 285h160v175h-5l-155 -170v-5z" />
    <glyph glyph-name="uni2464" unicode="&#x2464;" horiz-adv-x="1050" 
d="M285 -60l-180 180v450l180 180h480l180 -180v-450l-180 -180h-480zM310 -15h430l155 155v410l-155 155h-430l-155 -155v-410zM400 180v40h200l30 30v60l-30 30h-195v170h250v-40h-205v-90h170l55 -55v-90l-55 -55h-220z" />
    <glyph glyph-name="uni2465" unicode="&#x2465;" horiz-adv-x="1050" 
d="M285 -60l-180 180v450l180 180h480l180 -180v-450l-180 -180h-480zM310 -15h430l155 155v410l-155 155h-430l-155 -155v-410zM440 180l-55 55v220l55 55h210v-40h-190l-30 -30v-55h185l55 -55v-95l-55 -55h-175zM460 220h135l30 30v65l-30 30h-165v-95z" />
    <glyph glyph-name="uni2466" unicode="&#x2466;" horiz-adv-x="1050" 
d="M285 -60l-180 180v450l180 180h480l180 -180v-450l-180 -180h-480zM310 -15h430l155 155v410l-155 155h-430l-155 -155v-410zM462 180v15l157 270v5h-220v40h265v-50l-160 -280h-42z" />
    <glyph glyph-name="uni2467" unicode="&#x2467;" horiz-adv-x="1050" 
d="M285 -60l-180 180v450l180 180h480l180 -180v-450l-180 -180h-480zM310 -15h430l155 155v410l-155 155h-430l-155 -155v-410zM430 180l-50 50v80l42 42l-32 33v75l50 50h170l50 -50v-75l-32 -33l42 -42v-80l-50 -50h-190zM463 367h124l28 28v50l-25 25h-130l-25 -25v-50z
M450 220h150l25 25v55l-27 27h-146l-27 -27v-55z" />
    <glyph glyph-name="uni2468" unicode="&#x2468;" horiz-adv-x="1050" 
d="M285 -60l-180 180v450l180 180h480l180 -180v-450l-180 -180h-480zM310 -15h430l155 155v410l-155 155h-430l-155 -155v-410zM400 180v40h190l30 30v55h-185l-55 55v95l55 55h175l55 -55v-220l-55 -55h-210zM455 345h165v95l-30 30h-135l-30 -30v-65z" />
    <glyph glyph-name="uni2469" unicode="&#x2469;" horiz-adv-x="1050" 
d="M285 -60l-180 180v450l180 180h480l180 -180v-450l-180 -180h-480zM310 -15h430l155 155v410l-155 155h-430l-155 -155v-410zM557 182l-65 65v200l65 65h160l65 -65v-200l-65 -65h-160zM278 180v40h80v250h-75v40h120v-290h75v-40h-200zM577 222h120l40 40v170l-40 40
h-120l-40 -40v-170z" />
    <glyph glyph-name="uni24EA" unicode="&#x24ea;" horiz-adv-x="1050" 
d="M285 -60l-180 180v450l180 180h480l180 -180v-450l-180 -180h-480zM310 -15h430l155 155v410l-155 155h-430l-155 -155v-410zM445 180l-65 65v200l65 65h160l65 -65v-200l-65 -65h-160zM465 220h120l40 40v170l-40 40h-120l-40 -40v-170z" />
    <glyph glyph-name="uni24FF" unicode="&#x24ff;" horiz-adv-x="1050" 
d="M285 -60l-180 180v450l180 180h480l180 -180v-450l-180 -180h-480zM445 180h160l65 65v200l-65 65h-160l-65 -65v-200zM465 220l-40 40v170l40 40h120l40 -40v-170l-40 -40h-120z" />
    <glyph glyph-name="lozenge" unicode="&#x25ca;" horiz-adv-x="580" 
d="M257 0l-212 350l212 350h66l212 -350l-212 -350h-66zM285 45h10l185 305l-185 305h-10l-185 -305z" />
    <glyph glyph-name="uni2776" unicode="&#x2776;" horiz-adv-x="1050" 
d="M285 -60l-180 180v450l180 180h480l180 -180v-450l-180 -180h-480zM438 180h200v40h-75v290h-120v-40h75v-250h-80v-40z" />
    <glyph glyph-name="uni2777" unicode="&#x2777;" horiz-adv-x="1050" 
d="M285 -60l-180 180v450l180 180h480l180 -180v-450l-180 -180h-480zM390 180h285v40h-240v70l35 35h155l55 55v75l-55 55h-225v-40h205l30 -30v-45l-30 -30h-155l-60 -60v-125z" />
    <glyph glyph-name="uni2778" unicode="&#x2778;" horiz-adv-x="1050" 
d="M285 -60l-180 180v450l180 180h480l180 -180v-450l-180 -180h-480zM389 180h240l50 50v83l-40 40l30 32v75l-50 50h-225v-40h205l25 -25v-50l-25 -25h-130v-40h135l30 -30v-55l-25 -25h-220v-40z" />
    <glyph glyph-name="uni2779" unicode="&#x2779;" horiz-adv-x="1050" 
d="M285 -60l-180 180v450l180 180h480l180 -180v-450l-180 -180h-480zM570 180h45v65h45v40h-45v225h-58l-197 -215v-50h210v-65zM410 285v5l155 170h5v-175h-160z" />
    <glyph glyph-name="uni277A" unicode="&#x277a;" horiz-adv-x="1050" 
d="M285 -60l-180 180v450l180 180h480l180 -180v-450l-180 -180h-480zM400 180h220l55 55v90l-55 55h-170v90h205v40h-250v-170h195l30 -30v-60l-30 -30h-200v-40z" />
    <glyph glyph-name="uni277B" unicode="&#x277b;" horiz-adv-x="1050" 
d="M285 -60l-180 180v450l180 180h480l180 -180v-450l-180 -180h-480zM440 180h175l55 55v95l-55 55h-185v55l30 30h190v40h-210l-55 -55v-220zM460 220l-30 30v95h165l30 -30v-65l-30 -30h-135z" />
    <glyph glyph-name="uni277C" unicode="&#x277c;" horiz-adv-x="1050" 
d="M285 -60l-180 180v450l180 180h480l180 -180v-450l-180 -180h-480zM462 180h42l160 280v50h-265v-40h220v-5l-157 -270v-15z" />
    <glyph glyph-name="uni277D" unicode="&#x277d;" horiz-adv-x="1050" 
d="M285 -60l-180 180v450l180 180h480l180 -180v-450l-180 -180h-480zM430 180h190l50 50v80l-42 42l32 33v75l-50 50h-170l-50 -50v-75l32 -33l-42 -42v-80zM463 367l-28 28v50l25 25h130l25 -25v-50l-28 -28h-124zM450 220l-25 25v55l27 27h146l27 -27v-55l-25 -25h-150z
" />
    <glyph glyph-name="uni277E" unicode="&#x277e;" horiz-adv-x="1050" 
d="M285 -60l-180 180v450l180 180h480l180 -180v-450l-180 -180h-480zM400 180h210l55 55v220l-55 55h-175l-55 -55v-95l55 -55h185v-55l-30 -30h-190v-40zM455 345l-30 30v65l30 30h135l30 -30v-95h-165z" />
    <glyph glyph-name="uni277F" unicode="&#x277f;" horiz-adv-x="1050" 
d="M285 -60l-180 180v450l180 180h480l180 -180v-450l-180 -180h-480zM557 182h160l65 65v200l-65 65h-160l-65 -65v-200zM278 180h200v40h-75v290h-120v-40h75v-250h-80v-40zM577 222l-40 40v170l40 40h120l40 -40v-170l-40 -40h-120z" />
    <glyph glyph-name="uni2B6E" unicode="&#x2b6e;" horiz-adv-x="1040" 
d="M330 0l-115 115v370l110 110h261v10l-102 102l28 28l163 -162l-163 -163l-28 28l102 102v10h-242l-84 -84v-332l89 -89h352l89 89v338h45v-357l-115 -115h-390z" />
    <glyph glyph-name="uni2B80" unicode="&#x2b80;" horiz-adv-x="1040" 
d="M299 383l-152 152l152 152l25 -25l-97 -97v-10h588v10l-97 97l25 25l151 -152l-151 -151l-25 24l97 97v10h-588v-10l97 -97zM299 13l-152 152l152 152l25 -25l-97 -97v-10h588v10l-97 97l25 25l151 -152l-151 -151l-25 24l97 97v10h-588v-10l97 -97z" />
    <glyph glyph-name="uni2B81" unicode="&#x2b81;" horiz-adv-x="1040" 
d="M298 0v647h-10l-180 -180l-28 28l240 240l240 -240l-28 -28l-180 180h-9v-647h-45zM720 -35l-240 240l28 28l180 -180h9v647h45v-647h10l180 180l28 -28z" />
    <glyph glyph-name="uni2B82" unicode="&#x2b82;" horiz-adv-x="1040" 
d="M665 310l-28 28l180 180v9h-647v45h647v10l-180 180l28 28l240 -240zM375 -90l-240 240l240 240l28 -28l-180 -180v-9h647v-45h-647v-10l180 -180z" />
    <glyph glyph-name="uni2B83" unicode="&#x2b83;" horiz-adv-x="1040" 
d="M697 0v647h-9l-180 -180l-28 28l240 240l240 -240l-28 -28l-180 180h-10v-647h-45zM320 -35l-240 240l28 28l180 -180h10v647h45v-647h9l180 180l28 -28z" />
    <glyph glyph-name="brevecombcy.case" unicode="&#xf6d1;" 
d="M-225 760l-55 55v55h45v-35l30 -30h100l30 30v35h45v-55l-55 -55h-140z" />
    <glyph glyph-name="brevecomb-cy" unicode="&#xf6d4;" 
d="M-245 570l-55 55v80h45v-60l30 -30h120l30 30v60h45v-80l-55 -55h-160z" />
    <glyph glyph-name="zero.osf" unicode="&#xf730;" horiz-adv-x="615" 
d="M175 0l-105 105v290l105 105h265l105 -105v-290l-105 -105h-265zM200 45h215l80 80v250l-80 80h-215l-80 -80v-250z" />
    <glyph glyph-name="one.osf" unicode="&#xf731;" horiz-adv-x="455" 
d="M20 0v45h205v410h-170v45h220v-455h190v-45h-445z" />
    <glyph glyph-name="two.osf" unicode="&#xf732;" horiz-adv-x="555" 
d="M55 0v175l95 95h245l55 55v75l-55 55h-320v45h345l80 -80v-115l-80 -80h-245l-70 -70v-110h390v-45h-440z" />
    <glyph glyph-name="three.osf" unicode="&#xf733;" horiz-adv-x="540" 
d="M35 -140v45h310l85 85v105l-75 75h-225v45h205l75 75v90l-75 75h-290v45h315l100 -100v-125l-73 -72l93 -93v-140l-110 -110h-335z" />
    <glyph glyph-name="four.osf" unicode="&#xf734;" horiz-adv-x="595" 
d="M425 -140v165h-385v60l355 415h80v-430h90v-45h-90v-165h-50zM95 70h330v380h-10l-320 -370v-10z" />
    <glyph glyph-name="five.osf" unicode="&#xf735;" horiz-adv-x="565" 
d="M65 -140v45h305l85 85v125l-85 85h-285v300h390v-45h-340v-210h255l115 -115v-155l-115 -115h-325z" />
    <glyph glyph-name="six.osf" unicode="&#xf736;" horiz-adv-x="590" 
d="M425 415l110 -110v-195l-110 -110h-255l-110 110v190l260 340h50v-15l-150 -196v-14h205zM485 130v155l-85 85h-225l-65 -85v-155l85 -85h205z" />
    <glyph glyph-name="seven.osf" unicode="&#xf737;" horiz-adv-x="540" 
d="M165 -140v195l275 280v115h-420v50h470v-182l-275 -280v-178h-50z" />
    <glyph glyph-name="eight.osf" unicode="&#xf738;" horiz-adv-x="620" 
d="M170 0l-100 100v155l87 88l-67 67v140l90 90h260l90 -90v-140l-67 -67l87 -88v-155l-100 -100h-280zM210 355h200l70 70v105l-65 65h-210l-65 -65v-105zM195 45h230l75 75v120l-70 70h-240l-70 -70v-120z" />
    <glyph glyph-name="nine.osf" unicode="&#xf739;" horiz-adv-x="590" 
d="M420 500l110 -110v-190l-260 -340h-50v15l150 196v18h-205l-110 110v191l110 110h255zM480 215v155l-85 85h-205l-85 -85v-151l85 -85h228z" />
    <glyph glyph-name="A_A" horiz-adv-x="1493" 
d="M1142 700l321 -680v-20h-47l-98 210h-427l-98 -210h-95l-98 210h-427l-98 -210h-45v20l321 680h73l313 -664h19l313 664h73zM194 255h386l-184 395h-17zM912 255h386l-184 395h-17z" />
    <glyph glyph-name="Adieresis_Adieresis" horiz-adv-x="1493" 
d="M333 850v-70h-70v70h70zM513 850v-70h-70v70h70zM1050 850v-70h-70v70h70zM1230 850v-70h-70v70h70zM1142 700l321 -680v-20h-47l-98 210h-427l-98 -210h-95l-98 210h-427l-98 -210h-45v20l321 680h73l313 -664h19l313 664h73zM194 255h386l-184 395h-17zM912 255h386
l-184 395h-17z" />
    <glyph glyph-name="E_E" horiz-adv-x="1395" 
d="M105 0v700h545v-45h-495v-280h392v-45h-392v-288h630v658h555v-45h-505v-280h400v-45h-400v-288h515v-42h-1245z" />
    <glyph glyph-name="F_l" horiz-adv-x="870" 
d="M105 0v700h680v-700h-50v655h-580v-305h390v-45h-390v-305h-50z" />
    <glyph glyph-name="M_M" horiz-adv-x="1670" 
d="M105 0v700h93l277 -495h15l277 495h136l277 -495h15l277 495h93v-700h-50v650h-15l-277 -495h-71l-277 495h-15v-650h-50v650h-15l-277 -495h-71l-277 495h-15v-650h-50z" />
    <glyph glyph-name="N_N" horiz-adv-x="1354" 
d="M105 0v700h88l445 -650h15v650h88l445 -650h15v650h48v-700h-88l-445 650h-15v-650h-88l-445 650h-15v-650h-48z" />
    <glyph glyph-name="T_T" horiz-adv-x="1190" 
d="M290 0v655h-275v45h1160v-45h-275v-655h-50v655h-510v-655h-50z" />
    <glyph glyph-name="_ijdotless" horiz-adv-x="420" 
d="M80 -200v45h187l23 25v630h50v-650l-50 -50h-210zM80 0v500h50v-500h-50z" />
    <glyph glyph-name="snglring" horiz-adv-x="1050" 
d="M285 -60l-180 180v450l180 180h480l180 -180v-450l-180 -180h-480zM310 -15h430l155 155v410l-155 155h-430l-155 -155v-410z" />
    <glyph glyph-name="i.loclTRK" horiz-adv-x="210" 
d="M70 630v70h70v-70h-70zM80 0v500h50v-500h-50z" />
    <glyph glyph-name="j.alt" horiz-adv-x="210" 
d="M70 630v70h70v-70h-70zM80 -200v700h50v-700h-50z" />
    <glyph glyph-name="jcircumflex.alt" horiz-adv-x="210" 
d="M-35 570v15l113 130h54l113 -130v-15h-50l-86 105h-7l-88 -105h-49zM80 -200v700h50v-700h-50z" />
    <glyph glyph-name="uni0237.alt" horiz-adv-x="210" 
d="M80 -200v700h50v-700h-50z" />
    <glyph glyph-name="uni0308.alt" 
d="M-230 620v70h70v-70h-70zM-100 620v70h70v-70h-70z" />
    <glyph glyph-name="uni0308.alt.case" 
d="M-230 785v70h70v-70h-70zM-100 785v70h70v-70h-70z" />
    <glyph glyph-name="uni030C.alt" 
d="M-91 550v5l7 160h54v-5l-22 -160h-39z" />
    <glyph glyph-name="uni0328.alt" 
d="M-129 -200l-45 45v77l114 113l30 -35l-94 -93v-42l20 -20h65v-45h-90z" />
    <glyph glyph-name="uni0492.balt" horiz-adv-x="640" 
d="M615 655h-460v-288h340v-45h-340v-322h-50v700h510v-45z" />
    <glyph glyph-name="uni0493.balt" horiz-adv-x="450" 
d="M430 455h-300v-193h215v-45h-215v-217h-50v500h350v-45z" />
    <glyph glyph-name="uni04AA.balt" horiz-adv-x="695" 
d="M240 655l-105 -105v-400l105 -105h405v-45h-220l-13 -41v-4h43l45 -45v-65l-45 -45h-120v45h97l18 18v29l-18 18h-77v25l20 65h-160l-130 130v440l130 130h430v-45h-405z" />
    <glyph glyph-name="uni04AB.balt" horiz-adv-x="535" 
d="M200 455l-80 -80v-250l80 -80h285v-45h-150l-13 -41v-4h43l45 -45v-65l-45 -45h-120v45h97l18 18v29l-18 18h-77v25l20 65h-110l-105 105v290l105 105h310v-45h-285z" />
    <glyph glyph-name="colon.calt" horiz-adv-x="250" 
d="M90 510v70h70v-70h-70zM90 80v70h70v-70h-70z" />
    <glyph glyph-name="parenleft.case" horiz-adv-x="375" 
d="M190 -145l-80 80v800l80 80h120v-45h-95l-55 -55v-760l55 -55h95v-45h-120z" />
    <glyph glyph-name="parenright.case" horiz-adv-x="375" 
d="M65 -145v45h95l55 55v760l-55 55h-95v45h120l80 -80v-800l-80 -80h-120z" />
    <glyph glyph-name="hyphen.case" horiz-adv-x="450" 
d="M75 317v50h300v-50h-300z" />
    <glyph glyph-name="at.case" horiz-adv-x="960" 
d="M230 -50l-145 145v480l145 145h510l145 -145v-340l-95 -95h-110l-65 65l-65 -65h-160l-90 90v210l90 90h250v-285l60 -60h65l70 70v300l-120 120h-460l-120 -120v-440l120 -120h540v-45h-565zM415 185h115l60 60v240h-175l-65 -65v-170z" />
    <glyph glyph-name="bracketleft.case" horiz-adv-x="355" 
d="M110 -145v960h180v-45h-130v-870h130v-45h-180z" />
    <glyph glyph-name="bracketright.case" horiz-adv-x="355" 
d="M65 -145v45h130v870h-130v45h180v-960h-180z" />
    <glyph glyph-name="braceleft.case" horiz-adv-x="390" 
d="M220 -145l-90 90v367h-65v46h65v367l90 90h105v-45h-80l-65 -65v-740l65 -65h80v-45h-105z" />
    <glyph glyph-name="braceright.case" horiz-adv-x="390" 
d="M65 -145v45h80l65 65v740l-65 65h-80v45h105l90 -90v-367h65v-46h-65v-367l-90 -90h-105z" />
    <glyph glyph-name="exclamdown.case" horiz-adv-x="300" 
d="M115 630v70h70v-70h-70zM125 0v360l10 160h30l10 -160v-360h-50z" />
    <glyph glyph-name="guillemotleft.case" horiz-adv-x="575" 
d="M260 80l-215 250l215 250l35 -29l-190 -221l190 -221zM485 80l-215 250l215 250l35 -29l-190 -221l190 -221z" />
    <glyph glyph-name="periodcentered.case" horiz-adv-x="340" 
d="M135 317v70h70v-70h-70z" />
    <glyph glyph-name="guillemotright.case" horiz-adv-x="575" 
d="M90 80l-35 29l190 221l-190 221l35 29l215 -250zM315 80l-35 29l190 221l-190 221l35 29l215 -250z" />
    <glyph glyph-name="questiondown.case" horiz-adv-x="640" 
d="M355 630v70h70v-70h-70zM190 0l-105 105v180l105 105h154l24 24v106h50v-125l-50 -50h-153l-80 -80v-140l80 -80h350v-45h-375z" />
    <glyph glyph-name="gravecomb.case" 
d="M-78 760l-58 115v5h54l52 -115v-5h-48z" />
    <glyph glyph-name="acutecomb.case" 
d="M-136 760v5l52 115h54v-5l-58 -115h-48z" />
    <glyph glyph-name="uni0302.case" 
d="M-290 760v19l103 91h55l102 -91v-19h-51l-73 70h-11l-76 -70h-49z" />
    <glyph glyph-name="tildecomb.case" 
d="M-315 760v60l45 45h78l57 -60h40l20 20v40h45v-60l-45 -45h-78l-57 60h-40l-20 -20v-40h-45z" />
    <glyph glyph-name="uni0304.case" 
d="M-290 795v45h260v-45h-260z" />
    <glyph glyph-name="uni0306.case" 
d="M-225 760l-55 55v55h45v-35l30 -30h100l30 30v35h45v-55l-55 -55h-140z" />
    <glyph glyph-name="uni0307.case" 
d="M-100 780v70h70v-70h-70z" />
    <glyph glyph-name="uni0308.case" 
d="M-280 780v70h70v-70h-70zM-100 780v70h70v-70h-70z" />
    <glyph glyph-name="uni030A.case" 
d="M-190 735l-50 50v85l50 50h110l50 -50v-85l-50 -50h-110zM-170 775h70l25 25v55l-25 25h-70l-25 -25v-55z" />
    <glyph glyph-name="uni030B.case" 
d="M-264 760v5l45 115h54v-5l-51 -115h-48zM-129 760v5l45 115h54v-5l-51 -115h-48z" />
    <glyph glyph-name="uni030C.case" 
d="M-188 760l-102 91v19h51l73 -70h11l76 70h49v-19l-103 -91h-55z" />
    <glyph glyph-name="endash.case" horiz-adv-x="610" 
d="M55 317v45h500v-45h-500z" />
    <glyph glyph-name="emdash.case" horiz-adv-x="960" 
d="M55 317v45h850v-45h-850z" />
    <glyph glyph-name="bullet.case" horiz-adv-x="365" 
d="M130 305v100h105v-100h-105z" />
    <glyph glyph-name="guilsinglleft.case" horiz-adv-x="386" 
d="M298 80l-253 250l253 250l33 -33l-222 -217l222 -217z" />
    <glyph glyph-name="guilsinglright.case" horiz-adv-x="386" 
d="M88 80l-33 33l222 217l-222 217l33 33l253 -250z" />
    <glyph glyph-name="dollar.dnom" horiz-adv-x="285" 
d="M130 -50v50h-110v40h180l30 30v45l-30 30h-135l-55 55v75l55 55h65v50h40v-50h95v-40h-180l-30 -30v-45l30 -30h135l55 -55v-75l-55 -55h-50v-50h-40z" />
    <glyph glyph-name="zero.dnom" horiz-adv-x="380" 
d="M110 0l-65 65v200l65 65h160l65 -65v-200l-65 -65h-160zM130 40h120l40 40v170l-40 40h-120l-40 -40v-170z" />
    <glyph glyph-name="one.dnom" horiz-adv-x="330" 
d="M70 0v40h80v250h-75v40h120v-290h75v-40h-200z" />
    <glyph glyph-name="two.dnom" horiz-adv-x="365" 
d="M40 0v125l60 60h155l30 30v45l-30 30h-205v40h225l55 -55v-75l-55 -55h-155l-35 -35v-70h240v-40h-285z" />
    <glyph glyph-name="three.dnom" horiz-adv-x="375" 
d="M45 0v40h220l25 25v55l-30 30h-135v40h130l25 25v50l-25 25h-205v40h225l50 -50v-75l-30 -32l40 -40v-83l-50 -50h-240z" />
    <glyph glyph-name="four.dnom" horiz-adv-x="335" 
d="M200 0v65h-210v50l197 215h58v-225h45v-40h-45v-65h-45zM40 105h160v175h-5l-155 -170v-5z" />
    <glyph glyph-name="five.dnom" horiz-adv-x="355" 
d="M40 0v40h200l30 30v60l-30 30h-195v170h250v-40h-205v-90h170l55 -55v-90l-55 -55h-220z" />
    <glyph glyph-name="six.dnom" horiz-adv-x="370" 
d="M100 0l-55 55v220l55 55h210v-40h-190l-30 -30v-55h185l55 -55v-95l-55 -55h-175zM120 40h135l30 30v65l-30 30h-165v-95z" />
    <glyph glyph-name="seven.dnom" horiz-adv-x="320" 
d="M113 0v15l157 270v5h-220v40h265v-50l-160 -280h-42z" />
    <glyph glyph-name="eight.dnom" horiz-adv-x="380" 
d="M95 0l-50 50v80l42 42l-32 33v75l50 50h170l50 -50v-75l-32 -33l42 -42v-80l-50 -50h-190zM128 187h124l28 28v50l-25 25h-130l-25 -25v-50zM115 40h150l25 25v55l-27 27h-146l-27 -27v-55z" />
    <glyph glyph-name="nine.dnom" horiz-adv-x="370" 
d="M60 0v40h190l30 30v55h-185l-55 55v95l55 55h175l55 -55v-220l-55 -55h-210zM115 165h165v95l-30 30h-135l-30 -30v-65z" />
    <glyph glyph-name="cent.dnom" horiz-adv-x="270" 
d="M140 -25v50h-60l-70 70v150l70 70h60v50h40v-50h90v-40h-90v-210h90v-40h-90v-50h-40zM100 65h40v210h-40l-45 -45v-120z" />
    <glyph glyph-name="sterling.dnom" horiz-adv-x="290" 
d="M10 0v40h50v105h-45v40h45v90l55 55h150v-40h-130l-30 -30v-75h140v-40h-140v-105h180v-40h-275z" />
    <glyph glyph-name="yen.dnom" horiz-adv-x="297" 
d="M292 330v-10l-101 -170h62v-35h-82v-35h82v-35h-82v-45h-45v45h-83v35h83v35h-83v35h63l-101 170v10h47l93 -160h8l94 160h45z" />
    <glyph glyph-name="florin.dnom" horiz-adv-x="245" 
d="M185 290l-17 -17l-13 -83h70v-40h-77l-29 -182l-40 -40h-74v40h55l19 19l26 163h-58v40h64l16 100l40 40h73v-40h-55z" />
    <glyph glyph-name="uni20A9.dnom" horiz-adv-x="410" 
d="M405 190h-55l-13 -55h68v-35h-76l-24 -100h-70l-29 150h-5l-32 -150h-67l-23 100h-74v35h66l-12 55h-54v35h46l-22 95v10h41l62 -280h10l44 207l-12 63v10h40l51 -280h10l65 280h41v-10l-23 -95h47v-35z" />
    <glyph glyph-name="Euro.dnom" horiz-adv-x="315" 
d="M115 0l-65 65v45h-45v35h45v40h-45v35h45v45l65 65h195v-40h-175l-40 -40v-30h145v-35h-145v-40h145v-35h-145v-30l40 -40h175v-40h-195z" />
    <glyph glyph-name="uni20B4.dnom" horiz-adv-x="330" 
d="M10 185v35h235v50l-20 20h-180v40h200l45 -45v-65h30v-35h-310zM85 0l-45 45v65h-30v35h310v-35h-235v-50l20 -20h180v-40h-200z" />
    <glyph glyph-name="uni20B8.dnom" horiz-adv-x="255" 
d="M0 290v40h255v-40h-255zM105 0v215h-105v40h255v-40h-105v-215h-45z" />
    <glyph glyph-name="uni20B9.dnom" horiz-adv-x="305" 
d="M190 0l-180 120v55h170l25 25v15h-195v35h195v13l-27 27h-168v40h285v-40h-57l12 -12v-28h45v-35h-45v-30l-50 -50h-125v-5l175 -115v-15h-60z" />
    <glyph glyph-name="uni20BA.dnom" horiz-adv-x="310" 
d="M260 130h45v-75l-55 -55h-185v120l-45 -15h-10v33l55 19v41l-45 -15h-10v33l55 19v95h45v-80l125 43h10v-33l-135 -46v-42l125 43h10v-33l-135 -46v-96h120l30 30v60z" />
    <glyph glyph-name="uni20BD.dnom" horiz-adv-x="315" 
d="M55 0v50h-45v35h45v35h-45v35h45v175h200l55 -55v-100l-55 -55h-155v-35h155v-35h-155v-50h-45zM100 160h135l30 30v70l-30 30h-135v-130z" />
    <glyph glyph-name="uni20BF.dnom" horiz-adv-x="305" 
d="M80 -50v50h-65v330h65v50h40v-50h40v50h40v-50h35l50 -50v-75l-25 -25l40 -40v-90l-50 -50h-50v-50h-40v50h-40v-50h-40zM60 190h155l25 25v50l-25 25h-155v-100zM60 40h170l25 25v60l-25 25h-170v-110z" />
    <glyph glyph-name="Iacute_J.loclNLD" horiz-adv-x="940" 
d="M192 760v5l52 115h54v-5l-58 -115h-48zM652 760v5l52 115h54v-5l-58 -115h-48zM65 0v45h120v610h-120v45h290v-45h-120v-610h120v-45h-290zM455 0v45h260l80 80v530h-300v45h350v-595l-105 -105h-285z" />
    <glyph glyph-name="iacute_j.loclNLD" horiz-adv-x="420" 
d="M88 570v5l61 150h52v-5l-70 -150h-43zM298 570v5l61 150h52v-5l-70 -150h-43zM80 -200v45h187l23 25v630h50v-650l-50 -50h-210zM80 0v500h50v-500h-50z" />
    <glyph glyph-name="dollar.numr" horiz-adv-x="285" 
d="M130 320v50h-110v40h180l30 30v45l-30 30h-135l-55 55v75l55 55h65v50h40v-50h95v-40h-180l-30 -30v-45l30 -30h135l55 -55v-75l-55 -55h-50v-50h-40z" />
    <glyph glyph-name="zero.numr" horiz-adv-x="380" 
d="M110 370l-65 65v200l65 65h160l65 -65v-200l-65 -65h-160zM130 410h120l40 40v170l-40 40h-120l-40 -40v-170z" />
    <glyph glyph-name="one.numr" horiz-adv-x="330" 
d="M70 370v40h80v250h-75v40h120v-290h75v-40h-200z" />
    <glyph glyph-name="two.numr" horiz-adv-x="365" 
d="M40 370v125l60 60h155l30 30v45l-30 30h-205v40h225l55 -55v-75l-55 -55h-155l-35 -35v-70h240v-40h-285z" />
    <glyph glyph-name="three.numr" horiz-adv-x="375" 
d="M45 370v40h220l25 25v55l-30 30h-135v40h130l25 25v50l-25 25h-205v40h225l50 -50v-75l-30 -32l40 -40v-83l-50 -50h-240z" />
    <glyph glyph-name="four.numr" horiz-adv-x="335" 
d="M200 370v65h-210v50l197 215h58v-225h45v-40h-45v-65h-45zM40 475h160v175h-5l-155 -170v-5z" />
    <glyph glyph-name="five.numr" horiz-adv-x="355" 
d="M40 370v40h200l30 30v60l-30 30h-195v170h250v-40h-205v-90h170l55 -55v-90l-55 -55h-220z" />
    <glyph glyph-name="six.numr" horiz-adv-x="370" 
d="M100 370l-55 55v220l55 55h210v-40h-190l-30 -30v-55h185l55 -55v-95l-55 -55h-175zM120 410h135l30 30v65l-30 30h-165v-95z" />
    <glyph glyph-name="seven.numr" horiz-adv-x="320" 
d="M113 370v15l157 270v5h-220v40h265v-50l-160 -280h-42z" />
    <glyph glyph-name="eight.numr" horiz-adv-x="380" 
d="M95 370l-50 50v80l42 42l-32 33v75l50 50h170l50 -50v-75l-32 -33l42 -42v-80l-50 -50h-190zM128 557h124l28 28v50l-25 25h-130l-25 -25v-50zM115 410h150l25 25v55l-27 27h-146l-27 -27v-55z" />
    <glyph glyph-name="nine.numr" horiz-adv-x="370" 
d="M60 370v40h190l30 30v55h-185l-55 55v95l55 55h175l55 -55v-220l-55 -55h-210zM115 535h165v95l-30 30h-135l-30 -30v-65z" />
    <glyph glyph-name="cent.numr" horiz-adv-x="270" 
d="M140 335v50h-60l-70 70v150l70 70h60v50h40v-50h90v-40h-90v-210h90v-40h-90v-50h-40zM100 425h40v210h-40l-45 -45v-120z" />
    <glyph glyph-name="sterling.numr" horiz-adv-x="290" 
d="M10 370v40h50v105h-45v40h45v90l55 55h150v-40h-130l-30 -30v-75h140v-40h-140v-105h180v-40h-275z" />
    <glyph glyph-name="yen.numr" horiz-adv-x="297" 
d="M292 700v-10l-101 -170h62v-35h-82v-35h82v-35h-82v-45h-45v45h-83v35h83v35h-83v35h63l-101 170v10h47l93 -160h8l94 160h45z" />
    <glyph glyph-name="florin.numr" horiz-adv-x="245" 
d="M185 660l-17 -17l-13 -83h70v-40h-77l-29 -182l-40 -40h-74v40h55l19 19l26 163h-58v40h64l16 100l40 40h73v-40h-55z" />
    <glyph glyph-name="uni20A9.numr" horiz-adv-x="410" 
d="M405 560h-55l-13 -55h68v-35h-76l-24 -100h-70l-29 150h-5l-32 -150h-67l-23 100h-74v35h66l-12 55h-54v35h46l-22 95v10h41l62 -280h10l44 207l-12 63v10h40l51 -280h10l65 280h41v-10l-23 -95h47v-35z" />
    <glyph glyph-name="Euro.numr" horiz-adv-x="315" 
d="M115 370l-65 65v45h-45v35h45v40h-45v35h45v45l65 65h195v-40h-175l-40 -40v-30h145v-35h-145v-40h145v-35h-145v-30l40 -40h175v-40h-195z" />
    <glyph glyph-name="uni20B4.numr" horiz-adv-x="330" 
d="M10 555v35h235v50l-20 20h-180v40h200l45 -45v-65h30v-35h-310zM85 370l-45 45v65h-30v35h310v-35h-235v-50l20 -20h180v-40h-200z" />
    <glyph glyph-name="uni20B8.numr" horiz-adv-x="255" 
d="M0 660v40h255v-40h-255zM105 370v215h-105v40h255v-40h-105v-215h-45z" />
    <glyph glyph-name="uni20B9.numr" horiz-adv-x="305" 
d="M190 370l-180 120v55h170l25 25v15h-195v35h195v13l-27 27h-168v40h285v-40h-57l12 -12v-28h45v-35h-45v-30l-50 -50h-125v-5l175 -115v-15h-60z" />
    <glyph glyph-name="uni20BA.numr" horiz-adv-x="310" 
d="M260 500h45v-75l-55 -55h-185v120l-45 -15h-10v33l55 19v41l-45 -15h-10v33l55 19v95h45v-80l125 43h10v-33l-135 -46v-42l125 43h10v-33l-135 -46v-96h120l30 30v60z" />
    <glyph glyph-name="uni20BD.numr" horiz-adv-x="315" 
d="M55 370v50h-45v35h45v35h-45v35h45v175h200l55 -55v-100l-55 -55h-155v-35h155v-35h-155v-50h-45zM100 530h135l30 30v70l-30 30h-135v-130z" />
    <glyph glyph-name="uni20BF.numr" horiz-adv-x="305" 
d="M80 320v50h-65v330h65v50h40v-50h40v50h40v-50h35l50 -50v-75l-25 -25l40 -40v-90l-50 -50h-50v-50h-40v50h-40v-50h-40zM60 560h155l25 25v50l-25 25h-155v-100zM60 410h170l25 25v60l-25 25h-170v-110z" />
    <glyph glyph-name="plus.osf" horiz-adv-x="580" 
d="M268 0v227h-228v45h228v228h45v-228h227v-45h-227v-227h-45z" />
    <glyph glyph-name="zero.osf.zero" horiz-adv-x="615" 
d="M440 500l105 -105v-290l-105 -105h-265l-105 105v290l105 105h265zM200 455l-80 -80v-234l358 251l-63 63h-215zM415 45l80 80v233l-357 -251l62 -62h215z" />
    <glyph glyph-name="less.osf" horiz-adv-x="385" 
d="M290 0l-250 250l250 250l35 -35l-215 -215l215 -215z" />
    <glyph glyph-name="equal.osf" horiz-adv-x="580" 
d="M55 325v45h470v-45h-470zM55 130v45h470v-45h-470z" />
    <glyph glyph-name="greater.osf" horiz-adv-x="385" 
d="M95 0l-35 35l215 215l-215 215l35 35l250 -250z" />
    <glyph glyph-name="asciitilde.osf" horiz-adv-x="580" 
d="M63 185v65l60 60h144l80 -80h91l30 30v50h50v-65l-60 -60h-134l-80 80h-101l-30 -30v-50h-50z" />
    <glyph glyph-name="logicalnot.osf" horiz-adv-x="580" 
d="M475 155v115h-420v45h470v-160h-50z" />
    <glyph glyph-name="plusminus.osf" horiz-adv-x="580" 
d="M55 0v45h212v200h-212v45h212v210h45v-210h213v-45h-213v-200h213v-45h-470z" />
    <glyph glyph-name="multiply.osf" horiz-adv-x="581" 
d="M99 27l-32 33l191 191l-191 191l33 33l191 -191l191 191l32 -33l-191 -191l191 -191l-34 -33l-190 191z" />
    <glyph glyph-name="divide.osf" horiz-adv-x="580" 
d="M255 425v75h70v-75h-70zM45 227v45h490v-45h-490zM255 0v75h70v-75h-70z" />
    <glyph glyph-name="minus.osf" horiz-adv-x="580" 
d="M45 227v45h490v-45h-490z" />
    <glyph glyph-name="approxequal.osf" horiz-adv-x="580" 
d="M63 276v65l60 60h144l80 -80h91l30 30v50h50v-65l-60 -60h-134l-80 80h-101l-30 -30v-50h-50zM63 106v65l60 60h144l80 -80h91l30 30v50h50v-65l-60 -60h-134l-80 80h-101l-30 -30v-50h-50z" />
    <glyph glyph-name="notequal.osf" horiz-adv-x="580" 
d="M525 325h-174l-70 -150h244v-45h-265l-60 -130h-45v15l53 115h-153v45h174l70 150h-244v45h265l60 130h45v-15l-53 -115h153v-45z" />
    <glyph glyph-name="lessequal.osf" horiz-adv-x="401" 
d="M265 95l-202 202l202 203l35 -35l-167 -168l168 -167zM341 0h-281v45h281v-45z" />
    <glyph glyph-name="greaterequal.osf" horiz-adv-x="401" 
d="M136 95l-36 35l168 167l-167 168l35 35l202 -203zM60 0v45h281v-45h-281z" />
    <glyph glyph-name="I.ss01" horiz-adv-x="260" 
d="M105 0v700h50v-700h-50z" />
    <glyph glyph-name="Igrave.ss01" horiz-adv-x="260" 
d="M104 760l-58 115v5h54l52 -115v-5h-48zM105 0v700h50v-700h-50z" />
    <glyph glyph-name="Iacute.ss01" horiz-adv-x="260" 
d="M112 760v5l52 115h54v-5l-58 -115h-48zM105 0v700h50v-700h-50z" />
    <glyph glyph-name="Icircumflex.ss01" horiz-adv-x="260" 
d="M0 760v19l103 91h55l102 -91v-19h-51l-73 70h-11l-76 -70h-49zM105 0v700h50v-700h-50z" />
    <glyph glyph-name="Idieresis.ss01" horiz-adv-x="260" 
d="M30 785v70h70v-70h-70zM160 785v70h70v-70h-70zM105 0v700h50v-700h-50z" />
    <glyph glyph-name="Imacron.ss01" horiz-adv-x="260" 
d="M0 795v45h260v-45h-260zM105 0v700h50v-700h-50z" />
    <glyph glyph-name="Ibreve.ss01" horiz-adv-x="260" 
d="M60 760l-55 55v55h45v-35l30 -30h100l30 30v35h45v-55l-55 -55h-140zM105 0v700h50v-700h-50z" />
    <glyph glyph-name="Iogonek.ss01" horiz-adv-x="260" 
d="M155 0l-94 -79v-56l20 -20h65v-45h-90l-45 45v90l94 78v687h50v-700z" />
    <glyph glyph-name="Idotaccent.ss01" horiz-adv-x="260" 
d="M95 780v70h70v-70h-70zM105 0v700h50v-700h-50z" />
    <glyph glyph-name="IJ.ss01" horiz-adv-x="710" 
d="M105 0v45h380l80 80v530h-310v45h360v-595l-105 -105h-405zM105 135v565h50v-565h-50z" />
    <glyph glyph-name="uni0406.ss01" horiz-adv-x="260" 
d="M105 0v700h50v-700h-50z" />
    <glyph glyph-name="uni0407.ss01" horiz-adv-x="260" 
d="M30 785v70h70v-70h-70zM160 785v70h70v-70h-70zM105 0v700h50v-700h-50z" />
    <glyph glyph-name="Iacute_J_loclNLD.ss01" horiz-adv-x="710" 
d="M112 760v5l52 115h54v-5l-58 -115h-48zM417 760v5l52 115h54v-5l-58 -115h-48zM105 0v45h380l80 80v530h-310v45h360v-595l-105 -105h-405zM105 135v565h50v-565h-50z" />
    <glyph glyph-name="a.ss02" horiz-adv-x="600" 
d="M175 0l-105 105v290l105 105h345v-500h-45v60h-12l-68 -60h-220zM200 45h179l91 80v330h-270l-80 -80v-250z" />
    <glyph glyph-name="agrave.ss02" horiz-adv-x="600" 
d="M294 570l-70 150v5h52l61 -150v-5h-43zM175 0l-105 105v290l105 105h345v-500h-45v60h-12l-68 -60h-220zM200 45h179l91 80v330h-270l-80 -80v-250z" />
    <glyph glyph-name="aacute.ss02" horiz-adv-x="600" 
d="M303 570v5l61 150h52v-5l-70 -150h-43zM175 0l-105 105v290l105 105h345v-500h-45v60h-12l-68 -60h-220zM200 45h179l91 80v330h-270l-80 -80v-250z" />
    <glyph glyph-name="acircumflex.ss02" horiz-adv-x="600" 
d="M180 570v15l113 130h54l113 -130v-15h-50l-86 105h-7l-88 -105h-49zM175 0l-105 105v290l105 105h345v-500h-45v60h-12l-68 -60h-220zM200 45h179l91 80v330h-270l-80 -80v-250z" />
    <glyph glyph-name="atilde.ss02" horiz-adv-x="600" 
d="M172 575v80l45 45h80l65 -80h40l20 20v60h45v-80l-45 -45h-80l-65 80h-40l-20 -20v-60h-45zM175 0l-105 105v290l105 105h345v-500h-45v60h-12l-68 -60h-220zM200 45h179l91 80v330h-270l-80 -80v-250z" />
    <glyph glyph-name="adieresis.ss02" horiz-adv-x="600" 
d="M195 615v70h70v-70h-70zM375 615v70h70v-70h-70zM175 0l-105 105v290l105 105h345v-500h-45v60h-12l-68 -60h-220zM200 45h179l91 80v330h-270l-80 -80v-250z" />
    <glyph glyph-name="aring.ss02" horiz-adv-x="600" 
d="M265 560l-50 50v105l50 50h110l50 -50v-105l-50 -50h-110zM285 600h70l25 25v75l-25 25h-70l-25 -25v-75zM175 0l-105 105v290l105 105h345v-500h-45v60h-12l-68 -60h-220zM200 45h179l91 80v330h-270l-80 -80v-250z" />
    <glyph glyph-name="amacron.ss02" horiz-adv-x="600" 
d="M190 630v45h260v-45h-260zM175 0l-105 105v290l105 105h345v-500h-45v60h-12l-68 -60h-220zM200 45h179l91 80v330h-270l-80 -80v-250z" />
    <glyph glyph-name="abreve.ss02" horiz-adv-x="600" 
d="M240 570l-55 55v80h45v-60l30 -30h120l30 30v60h45v-80l-55 -55h-160zM175 0l-105 105v290l105 105h345v-500h-45v60h-12l-68 -60h-220zM200 45h179l91 80v330h-270l-80 -80v-250z" />
    <glyph glyph-name="aogonek.ss02" horiz-adv-x="600" 
d="M520 0l-94 -79v-56l20 -20h65v-45h-90l-45 45v90l99 83v42h-12l-68 -60h-220l-105 105v290l105 105h345v-500zM470 125v330h-270l-80 -80v-250l80 -80h179z" />
    <glyph glyph-name="uni0430.ss02" horiz-adv-x="600" 
d="M175 0l-105 105v290l105 105h345v-500h-45v60h-12l-68 -60h-220zM200 45h179l91 80v330h-270l-80 -80v-250z" />
    <glyph glyph-name="uni04D3.ss02" horiz-adv-x="600" 
d="M195 615v70h70v-70h-70zM375 615v70h70v-70h-70zM175 0l-105 105v290l105 105h345v-500h-45v60h-12l-68 -60h-220zM200 45h179l91 80v330h-270l-80 -80v-250z" />
    <glyph glyph-name="l.ss03" horiz-adv-x="220" 
d="M85 0v700h50v-700h-50z" />
    <glyph glyph-name="lacute.ss03" horiz-adv-x="220" 
d="M92 760v5l52 115h54v-5l-58 -115h-48zM85 0v700h50v-700h-50z" />
    <glyph glyph-name="uni013C.ss03" horiz-adv-x="220" 
d="M85 0v700h50v-700h-50zM85 -210l17 86h-27v74h70v-65l-31 -95h-29z" />
    <glyph glyph-name="lcaron.ss03" horiz-adv-x="220" 
d="M213 550v5l7 160h54v-5l-22 -160h-39zM85 0v700h50v-700h-50z" />
    <glyph glyph-name="ldot.ss03" horiz-adv-x="290" 
d="M85 0v700h50v-700h-50zM220 315v70h70v-70h-70z" />
    <glyph glyph-name="lslash.ss03" horiz-adv-x="240" 
d="M245 453v-43l-100 -69v-341h-50v307l-85 -59h-15v43l100 69v340h50v-306l85 59h15z" />
    <glyph glyph-name="uni0438.ss04" horiz-adv-x="575" 
d="M175 0l-100 100v400h50v-380l75 -75h160l85 75v380h50v-500h-45v56h-12l-63 -56h-200z" />
    <glyph glyph-name="uni0439.ss04" horiz-adv-x="575" 
d="M205 570l-55 55v80h45v-60l30 -30h120l30 30v60h45v-80l-55 -55h-160zM175 0l-100 100v400h50v-380l75 -75h160l85 75v380h50v-500h-45v56h-12l-63 -56h-200z" />
    <glyph glyph-name="uni045D.ss04" horiz-adv-x="575" 
d="M259 570l-70 150v5h52l61 -150v-5h-43zM175 0l-100 100v400h50v-380l75 -75h160l85 75v380h50v-500h-45v56h-12l-63 -56h-200z" />
    <glyph glyph-name="uni04E3.ss04" horiz-adv-x="575" 
d="M155 630v45h260v-45h-260zM175 0l-100 100v400h50v-380l75 -75h160l85 75v380h50v-500h-45v56h-12l-63 -56h-200z" />
    <glyph glyph-name="dollar.tf" horiz-adv-x="685" 
d="M323 -100v100h-240v45h410l75 75v145l-75 75h-325l-100 100v160l100 100h155v100h45v-100h215v-45h-390l-75 -75v-120l75 -75h325l100 -100v-185l-100 -100h-150v-100h-45z" />
    <glyph glyph-name="zero.tf" horiz-adv-x="685" 
d="M178 0l-130 130v440l130 130h330l130 -130v-440l-130 -130h-330zM203 45h280l105 105v400l-105 105h-280l-105 -105v-400z" />
    <glyph glyph-name="zero.tf.zero" horiz-adv-x="685" 
d="M508 700l130 -130v-440l-130 -130h-330l-130 130v440l130 130h330zM203 655l-105 -105v-349l490 344v5l-105 105h-280zM483 45l105 105v349l-490 -344v-5l105 -105h280z" />
    <glyph glyph-name="one.tf" horiz-adv-x="685" 
d="M80 0v45h255v610h-230v45h280v-655h245v-45h-550z" />
    <glyph glyph-name="two.tf" horiz-adv-x="685" 
d="M70 0v240l120 120h300l75 75v145l-75 75h-395v45h420l100 -100v-185l-100 -100h-300l-95 -95v-175h495v-45h-545z" />
    <glyph glyph-name="three.tf" horiz-adv-x="685" 
d="M60 0v45h410l85 85v125l-85 85h-270v45h255l80 80v115l-75 75h-390v45h415l100 -100v-150l-77 -77l97 -98v-165l-110 -110h-435z" />
    <glyph glyph-name="four.tf" horiz-adv-x="685" 
d="M490 0v160h-450v65l420 475h80v-495h95v-45h-95v-160h-50zM95 205h395v445h-15l-380 -430v-15z" />
    <glyph glyph-name="five.tf" horiz-adv-x="685" 
d="M65 0v45h410l85 85v150l-85 85h-385v335h490v-45h-440v-245h360l110 -110v-190l-110 -110h-435z" />
    <glyph glyph-name="six.tf" horiz-adv-x="685" 
d="M175 0l-110 110v460l130 130h405v-45h-380l-105 -105v-130h415l110 -110v-200l-110 -110h-355zM200 45h305l85 85v160l-85 85h-390v-245z" />
    <glyph glyph-name="seven.tf" horiz-adv-x="685" 
d="M230 0v235l320 290v130h-500v45h550v-195l-320 -290v-215h-50z" />
    <glyph glyph-name="eight.tf" horiz-adv-x="685" 
d="M160 0l-110 110v165l95 95l-75 75v155l100 100h345l100 -100v-155l-75 -75l95 -95v-165l-110 -110h-365zM195 385h295l75 75v120l-75 75h-295l-75 -75v-120zM185 45h315l85 85v125l-85 85h-315l-85 -85v-125z" />
    <glyph glyph-name="nine.tf" horiz-adv-x="685" 
d="M85 0v45h380l105 105v130h-415l-110 110v200l110 110h355l110 -110v-460l-130 -130h-405zM180 325h390v245l-85 85h-305l-85 -85v-160z" />
    <glyph glyph-name="cent.tf" horiz-adv-x="685" 
d="M355 -90v90h-110l-105 105v290l105 105h110v90h45v-90h150v-45h-150v-410h150v-45h-150v-90h-45zM270 45h85v410h-85l-80 -80v-250z" />
    <glyph glyph-name="sterling.tf" horiz-adv-x="685" 
d="M65 0v45h125v290h-85v45h85v220l100 100h300v-45h-275l-75 -75v-200h290v-45h-290v-290h390v-45h-565z" />
    <glyph glyph-name="yen.tf" horiz-adv-x="685" 
d="M650 700v-20l-249 -375h187v-45h-217l-3 -5v-100h220v-45h-220v-110h-50v110h-220v45h220v100l-3 5h-217v45h187l-250 375v20h47l253 -385h17l254 385h44z" />
    <glyph glyph-name="florin.tf" horiz-adv-x="685" 
d="M450 655l-20 -20l-36 -185h156v-45h-165l-109 -565l-40 -40h-161v45h135l20 20l105 540h-110v45h118l41 210l40 40h161v-45h-135z" />
    <glyph glyph-name="uni20A9.tf" horiz-adv-x="685" 
d="M614 420h-68l-20 -135h88v-45h-95l-35 -240h-91l-44 353h-10l-43 -353h-92l-36 240h-96v45h89l-20 135h-69v45h62l-32 215v20h45l96 -650h16l61 489l-18 141v20h44l84 -650h16l94 650h44v-20l-32 -215h62v-45z" />
    <glyph glyph-name="Euro.tf" horiz-adv-x="685" 
d="M240 0l-130 130v115h-85v45h85v120h-85v45h85v115l130 130h410v-45h-385l-105 -105v-95h319v-45h-319v-120h319v-45h-319v-95l105 -105h385v-45h-410z" />
    <glyph glyph-name="uni20B4.tf" horiz-adv-x="685" 
d="M33 390v45h440l60 60v100l-60 60h-355v45h380l85 -85v-135l-45 -45h115v-45h-620zM168 0l-85 85v140l40 40h-90v45h620v-45h-460l-60 -60v-100l60 -60h395v-45h-420z" />
    <glyph glyph-name="uni20B8.tf" horiz-adv-x="685" 
d="M53 655v45h580v-45h-580zM318 0v530h-265v45h580v-45h-265v-530h-50z" />
    <glyph glyph-name="uni20B9.tf" horiz-adv-x="685" 
d="M506 0l-431 275v75h330l80 80v50h-410v45h410v50l-80 80h-330v45h545v-45h-145l60 -60v-70h85v-45h-85v-70l-105 -105h-295v-10l433 -275v-20h-62z" />
    <glyph glyph-name="uni20BA.tf" horiz-adv-x="685" 
d="M575 305h50v-180l-125 -125h-343v276l-87 -31h-10v43l97 34v111l-87 -31h-10v43l97 34v221h50v-203l273 97h8v-44l-281 -99v-111l273 96h8v-43l-281 -99v-249h268l100 100v160z" />
    <glyph glyph-name="uni20BD.tf" horiz-adv-x="685" 
d="M100 0v120h-85v45h85v105h-85v45h85v385h455l115 -115v-200l-115 -115h-405v-105h405v-45h-405v-120h-50zM150 315h380l90 90v160l-90 90h-380v-340z" />
    <glyph glyph-name="uni20BF.tf" horiz-adv-x="685" 
d="M215 -100v100h-160v700h160v100h45v-100h105v100h45v-100h100l100 -100v-155l-65 -65l100 -100v-175l-105 -105h-130v-100h-45v100h-105v-100h-45zM105 390h380l75 75v115l-75 75h-380v-265zM105 45h410l80 80v135l-85 85h-405v-300z" />
    <glyph glyph-name="zero.tosf" horiz-adv-x="565" 
d="M150 0l-105 105v290l105 105h265l105 -105v-290l-105 -105h-265zM175 45h215l80 80v250l-80 80h-215l-80 -80v-250z" />
    <glyph glyph-name="zero.tosf.zero" horiz-adv-x="565" 
d="M415 500l105 -105v-290l-105 -105h-265l-105 105v290l105 105h265zM175 455l-80 -80v-234l358 251l-63 63h-215zM390 45l80 80v233l-357 -251l62 -62h215z" />
    <glyph glyph-name="one.tosf" horiz-adv-x="565" 
d="M75 0v45h205v410h-170v45h220v-455h190v-45h-445z" />
    <glyph glyph-name="two.tosf" horiz-adv-x="565" 
d="M65 0v175l95 95h245l55 55v75l-55 55h-320v45h345l80 -80v-115l-80 -80h-245l-70 -70v-110h390v-45h-440z" />
    <glyph glyph-name="three.tosf" horiz-adv-x="565" 
d="M50 -140v45h310l85 85v105l-75 75h-225v45h205l75 75v90l-75 75h-290v45h315l100 -100v-125l-73 -72l93 -93v-140l-110 -110h-335z" />
    <glyph glyph-name="four.tosf" horiz-adv-x="565" 
d="M405 -140v165h-385v60l355 415h80v-430h90v-45h-90v-165h-50zM75 70h330v380h-10l-320 -370v-10z" />
    <glyph glyph-name="five.tosf" horiz-adv-x="565" 
d="M65 -140v45h305l85 85v125l-85 85h-285v300h390v-45h-340v-210h255l115 -115v-155l-115 -115h-325z" />
    <glyph glyph-name="six.tosf" horiz-adv-x="565" 
d="M415 415l110 -110v-195l-110 -110h-255l-110 110v190l260 340h50v-15l-150 -196v-14h205zM475 130v155l-85 85h-225l-65 -85v-155l85 -85h205z" />
    <glyph glyph-name="seven.tosf" horiz-adv-x="565" 
d="M185 -140v195l275 280v115h-420v50h470v-182l-275 -280v-178h-50z" />
    <glyph glyph-name="eight.tosf" horiz-adv-x="565" 
d="M143 0l-100 100v155l87 88l-67 67v140l90 90h260l90 -90v-140l-67 -67l87 -88v-155l-100 -100h-280zM183 355h200l70 70v105l-65 65h-210l-65 -65v-105zM168 45h230l75 75v120l-70 70h-240l-70 -70v-120z" />
    <glyph glyph-name="nine.tosf" horiz-adv-x="565" 
d="M405 500l110 -110v-190l-260 -340h-50v15l150 196v18h-205l-110 110v191l110 110h255zM465 215v155l-85 85h-205l-85 -85v-151l85 -85h228z" />
    <glyph glyph-name="zero.zero" horiz-adv-x="760" 
d="M545 700l130 -130v-440l-130 -130h-330l-130 130v440l130 130h330zM240 655l-105 -105v-349l490 344v5l-105 105h-280zM520 45l105 105v349l-490 -344v-5l105 -105h280z" />
    <glyph glyph-name="foundryicon" horiz-adv-x="1538" 
d="M171 230v199h-71v31h178v-31h-72v-199h-35zM832 230v199h-71v31h178v-31h-72v-199h-35zM438 169v224h24l9 -19q19 22 48 22q32 0 54.5 -25t22.5 -59q0 -36 -22.5 -60.5t-54.5 -24.5q-29 0 -47 21v-79h-34zM701 227q-32 0 -55 24.5t-23 60.5q0 35 23 59.5t55 24.5
t54 -24.5t22 -58.5l-1 -15h-119q2 -17 14.5 -29t29.5 -12q27 0 37 17h35q-9 -22 -28.5 -34.5t-43.5 -12.5zM1099 169v224h24l9 -19q19 22 48 22q32 0 54.5 -25t22.5 -59q0 -36 -22.5 -60.5t-54.5 -24.5q-29 0 -47 21v-79h-34zM1362 227q-32 0 -55 24.5t-23 60.5
q0 35 23 59.5t55 24.5t54 -24.5t22 -58.5l-1 -15h-119q2 -17 14.5 -29t29.5 -12q27 0 37 17h35q-9 -22 -28.5 -34.5t-43.5 -12.5zM288 169q-7 0 -10 1v28q23 0 31 20l6 16l-63 159h37l44 -116l44 116h37l-77 -190q-16 -34 -49 -34zM949 169q-7 0 -10 1v28q23 0 31 20l6 16
l-63 159h37l44 -116l44 116h37l-77 -190q-16 -34 -49 -34zM657 325h88q-1 17 -14.5 28.5t-29.5 11.5t-29 -11t-15 -29zM1318 325h88q-1 17 -14.5 28.5t-29.5 11.5t-29 -11t-15 -29zM516 258q19 0 33 16t14 38q0 21 -14 36.5t-33 15.5t-33 -15.5t-14 -36.5q0 -22 13.5 -38
t33.5 -16zM1177 258q19 0 33 16t14 38q0 21 -14 36.5t-33 15.5t-33 -15.5t-14 -36.5q0 -22 13.5 -38t33.5 -16z" />
    </font>
</defs>
</svg>
