<?xml version="1.0" standalone="no"?>
<!DOCTYPE svg PUBLIC "-//W3C//DTD SVG 1.1//EN" "http://www.w3.org/Graphics/SVG/1.1/DTD/svg11.dtd" >
<svg xmlns="http://www.w3.org/2000/svg" xmlns:xlink="http://www.w3.org/1999/xlink" version="1.1">
<metadata>
Created by FontForge 20170731 at Thu Mar 26 16:30:16 2020
 By Aleksey,,,
Copyright (c) 2020 by TypeType. Designers Yulia Gonina, Ksenia Ushakova, Antonina Zhulkova. Technical designers Ivan Gladkikh, Marina Khodak, Yuri Nako, Viktor Rubenko. All rights reserved.
</metadata>
<defs>
<font id="TTOctosquares-Bold" horiz-adv-x="0" >
  <font-face 
    font-family="TTOctosquares-Bold"
    font-weight="700"
    font-stretch="normal"
    units-per-em="1000"
    panose-1="2 1 0 1 4 0 0 8 3 7"
    ascent="800"
    descent="-200"
    x-height="503"
    cap-height="700"
    bbox="-407 -254 1726 950"
    underline-thickness="50"
    underline-position="-250"
    unicode-range="U+000D-FB04"
  />
<missing-glyph horiz-adv-x="900" 
d="M100 0v284h45v-139h33v139h50v31h-128v126l19 -61h23l34 106l33 -106h23l54 170h-32l-34 -110l-35 110h-19l-35 -110l-31 103v157h700v-150h-110v-170h110v-91q-13 27 -50 27q-27 0 -43.5 -14.5t-16.5 -34.5t14 -32t30 -15t30 -9.5t14 -16.5q0 -21 -28 -21t-28 25h-33
q0 -24 17 -39.5t44 -15.5q33 0 50 20v-163h-700zM311 380h33v62h24l35 -62h37l-40 67q36 17 36 50q0 22 -16 37.5t-41 15.5h-68v-170zM469 380h33v170h-33v-170zM580 380h32v139h50v31h-132v-31h50v-139zM344 473v46h35q10 0 17 -6.5t7 -16.5q0 -23 -24 -23h-35zM722 483v36
h78v-36h-78zM722 411v41h78v-41h-78zM328 143q37 0 59.5 24.5t22.5 61.5t-23 62t-59 25t-59 -25t-23 -62t22.5 -61.5t59.5 -24.5zM585 143q29 0 48 19t19 47v106h-32v-106q0 -15 -9.5 -25t-25.5 -10q-17 0 -26.5 10.5t-9.5 24.5v106h-32v-106q0 -28 19.5 -47t48.5 -19z
M800 224q-9 9 -23.5 15t-25.5 8.5t-19 7.5t-8 12q0 9 7.5 14.5t18.5 5.5q10 0 18 -7t8 -18h24v-38zM328 174q-22 0 -36.5 16t-14.5 39q0 25 13.5 40.5t37.5 15.5t37.5 -15.5t13.5 -40.5q0 -23 -14.5 -39t-36.5 -16z" />
    <glyph glyph-name="f_f" unicode="ff" horiz-adv-x="813" 
d="M115 0v380h-100v123h100v111l86 86h228v-120h-151l-10 -10v-67h217v111l86 86h252v-120h-175l-10 -10v-67h177v-123h-171v-380h-159v380h-211v-380h-159z" />
    <glyph glyph-name="fi" unicode="fi" horiz-adv-x="690" 
d="M115 0v380h-100v123h100v111l86 86h298v-120h-221l-10 -10v-67h356v-503h-159v380h-191v-380h-159z" />
    <glyph glyph-name="fl" unicode="fl" horiz-adv-x="725" 
d="M115 0v380h-100v123h100v111l86 86h453v-700h-159v580h-217l-10 -10v-67h153v-123h-147v-380h-159z" />
    <glyph glyph-name="f_f_i" unicode="ffi" horiz-adv-x="1060" 
d="M115 0v380h-100v123h100v111l86 86h231v-120h-154l-10 -10v-67h217v111l86 86h298v-120h-221l-10 -10v-67h356v-503h-159v380h-191v-380h-159v380h-211v-380h-159z" />
    <glyph glyph-name="f_f_l" unicode="ffl" horiz-adv-x="1095" 
d="M115 0v380h-100v123h100v111l86 86h231v-120h-154l-10 -10v-67h217v111l86 86h453v-700h-159v580h-217l-10 -10v-67h153v-123h-147v-380h-159v380h-211v-380h-159z" />
    <glyph glyph-name="f_j" unicode="fj" horiz-adv-x="690" 
d="M240 -200v128h212l13 13v439h-191v-380h-159v380h-100v123h100v111l86 86h298v-120h-221l-10 -10v-67h356v-611l-92 -92h-292z" />
    <glyph glyph-name="f_t" unicode="ft" horiz-adv-x="868" 
d="M115 0v380h-100v123h100v111l86 86h238v-120h-161l-10 -10v-67h237v134h159v-134h171v-123h-171v-237l13 -13h166v-130h-246l-92 92v288h-231v-380h-159z" />
    <glyph glyph-name="f_f_j" unicode="ffj" horiz-adv-x="1060" 
d="M610 -200v128h212l13 13v439h-191v-380h-159v380h-211v-380h-159v380h-100v123h100v111l86 86h231v-120h-154l-10 -10v-67h217v111l86 86h298v-120h-221l-10 -10v-67h356v-611l-92 -92h-292z" />
    <glyph glyph-name="r_t" unicode="rt" horiz-adv-x="861" 
d="M66 0v503h127v-40h19l47 40h239v134h159v-134h171v-123h-171v-237l13 -13h166v-130h-246l-92 92v288h-226l-47 -38v-342h-159z" />
    <glyph glyph-name=".notdef" horiz-adv-x="900" 
d="M100 0v284h45v-139h33v139h50v31h-128v126l19 -61h23l34 106l33 -106h23l54 170h-32l-34 -110l-35 110h-19l-35 -110l-31 103v157h700v-150h-110v-170h110v-91q-13 27 -50 27q-27 0 -43.5 -14.5t-16.5 -34.5t14 -32t30 -15t30 -9.5t14 -16.5q0 -21 -28 -21t-28 25h-33
q0 -24 17 -39.5t44 -15.5q33 0 50 20v-163h-700zM311 380h33v62h24l35 -62h37l-40 67q36 17 36 50q0 22 -16 37.5t-41 15.5h-68v-170zM469 380h33v170h-33v-170zM580 380h32v139h50v31h-132v-31h50v-139zM344 473v46h35q10 0 17 -6.5t7 -16.5q0 -23 -24 -23h-35zM722 483v36
h78v-36h-78zM722 411v41h78v-41h-78zM328 143q37 0 59.5 24.5t22.5 61.5t-23 62t-59 25t-59 -25t-23 -62t22.5 -61.5t59.5 -24.5zM585 143q29 0 48 19t19 47v106h-32v-106q0 -15 -9.5 -25t-25.5 -10q-17 0 -26.5 10.5t-9.5 24.5v106h-32v-106q0 -28 19.5 -47t48.5 -19z
M800 224q-9 9 -23.5 15t-25.5 8.5t-19 7.5t-8 12q0 9 7.5 14.5t18.5 5.5q10 0 18 -7t8 -18h24v-38zM328 174q-22 0 -36.5 16t-14.5 39q0 25 13.5 40.5t37.5 15.5t37.5 -15.5t13.5 -40.5q0 -23 -14.5 -39t-36.5 -16z" />
    <glyph glyph-name=".null" 
 />
    <glyph glyph-name=".null" 
 />
    <glyph glyph-name="nonmarkingreturn" horiz-adv-x="333" 
 />
    <glyph glyph-name="CR" unicode="&#xd;" horiz-adv-x="340" 
 />
    <glyph glyph-name="space" unicode=" " horiz-adv-x="340" 
 />
    <glyph glyph-name="exclam" unicode="!" horiz-adv-x="371" 
d="M125 209l-21 160v331h164v-331l-21 -160h-122zM103 0v148h166v-148h-166z" />
    <glyph glyph-name="quotedbl" unicode="&#x22;" horiz-adv-x="429" 
d="M73 386l-26 158v156h130v-156l-26 -158h-78zM277 386l-26 158v156h130v-156l-26 -158h-78z" />
    <glyph glyph-name="numbersign" unicode="#" horiz-adv-x="876" 
d="M832 412h-165l-32 -124h147v-116h-177l-44 -172h-127v45l33 127h-150l-44 -172h-127v45l33 127h-135v116h165l32 124h-147v116h177l44 172h127v-45l-33 -127h150l44 172h127v-45l-33 -127h135v-116zM497 288l32 124h-150l-32 -124h150z" />
    <glyph glyph-name="dollar" unicode="$" horiz-adv-x="746" 
d="M332 -100v100h-263v145h433l33 33v67l-35 35h-320l-124 124v177l119 119h157v100h98v-100h240v-145h-411l-33 -33v-63l35 -34h320l124 -124v-182l-119 -119h-156v-100h-98z" />
    <glyph glyph-name="percent" unicode="%" horiz-adv-x="1005" 
d="M130 364l-75 75v186l75 75h209l75 -75v-186l-75 -75h-209zM245 0v42l410 658h105v-42l-410 -658h-105zM192 461h85l23 23v96l-23 23h-85l-23 -23v-96zM666 0l-75 75v186l75 75h209l75 -75v-186l-75 -75h-209zM728 97h85l23 23v96l-23 23h-85l-23 -23v-96z" />
    <glyph glyph-name="ampersand" unicode="&#x26;" horiz-adv-x="875" 
d="M176 0l-120 120v154l98 98l-78 77v141l110 110h367v-141h-274l-33 -34v-58l42 -42h200v-131h-219l-43 -42v-67l43 -44h263l47 47v367h161v-130h124v-131h-124v-174l-120 -120h-444z" />
    <glyph glyph-name="quotesingle" unicode="'" horiz-adv-x="225" 
d="M73 386l-26 158v156h130v-156l-26 -158h-78z" />
    <glyph glyph-name="parenleft" unicode="(" horiz-adv-x="421" 
d="M199 -200l-108 108v744l108 108h168v-142h-90l-34 -34v-608l34 -34h90v-142h-168z" />
    <glyph glyph-name="parenright" unicode=")" horiz-adv-x="421" 
d="M54 -200v142h90l34 34v608l-34 34h-90v142h168l108 -108v-744l-108 -108h-168z" />
    <glyph glyph-name="asterisk" unicode="*" horiz-adv-x="513" 
d="M207 329l4 116l-98 -63l-49 86l105 54l-105 54l49 86l98 -63l-4 117h99l-3 -116l96 62l50 -86l-104 -54l104 -54l-50 -86l-97 62l4 -115h-99z" />
    <glyph glyph-name="plus" unicode="+" horiz-adv-x="580" 
d="M232 100v194h-195v116h195v193h116v-193h195v-116h-195v-194h-116z" />
    <glyph glyph-name="comma" unicode="," horiz-adv-x="320" 
d="M95 -166l34 156h-53v158h168v-135l-64 -179h-85z" />
    <glyph glyph-name="hyphen" unicode="-" horiz-adv-x="452" 
d="M64 211v132h324v-132h-324z" />
    <glyph glyph-name="period" unicode="." horiz-adv-x="318" 
d="M76 0v148h166v-148h-166z" />
    <glyph glyph-name="slash" unicode="/" horiz-adv-x="432" 
d="M10 -200v44l293 886h120v-44l-294 -886h-119z" />
    <glyph glyph-name="zero" unicode="0" horiz-adv-x="818" 
d="M217 0l-146 146v408l146 146h384l146 -146v-408l-146 -146h-384zM301 145h216l60 60v290l-60 60h-216l-60 -60v-290z" />
    <glyph glyph-name="one" unicode="1" horiz-adv-x="602" 
d="M40 0v145h199v410h-179v145h349v-555h179v-145h-548z" />
    <glyph glyph-name="two" unicode="2" horiz-adv-x="750" 
d="M54 0v280l131 131h308l33 32v79l-33 33h-411v145h504l110 -110v-206l-111 -111h-312l-49 -49v-79h467v-145h-637z" />
    <glyph glyph-name="three" unicode="3" horiz-adv-x="735" 
d="M42 0v145h429l43 43v59l-42 42h-282v138h265l39 39v56l-33 33h-406v145h499l110 -110v-140l-77 -76l97 -97v-163l-114 -114h-528z" />
    <glyph glyph-name="four" unicode="4" horiz-adv-x="775" 
d="M487 0v118h-451v178l392 404h220v-446h95v-136h-95v-118h-161zM214 254h273v285h-23l-250 -260v-25z" />
    <glyph glyph-name="five" unicode="5" horiz-adv-x="763" 
d="M63 0v145h429l43 43v72l-43 44h-404v396h590v-145h-423v-114h330l120 -120v-201l-120 -120h-522z" />
    <glyph glyph-name="six" unicode="6" horiz-adv-x="790" 
d="M200 0l-129 129v432l139 139h472v-145h-389l-54 -53v-54h364l129 -129v-190l-129 -129h-403zM283 145h236l43 43v80l-43 43h-280v-123z" />
    <glyph glyph-name="seven" unicode="7" horiz-adv-x="692" 
d="M199 0v262l289 241v52h-463v145h636v-245l-292 -244v-211h-170z" />
    <glyph glyph-name="eight" unicode="8" horiz-adv-x="789" 
d="M179 0l-120 120v156l94 93l-74 74v147l110 110h411l110 -110v-147l-74 -74l94 -93v-156l-120 -120h-431zM288 425h213l39 39v65l-34 34h-223l-34 -34v-65zM273 137h243l44 44v72l-42 41h-247l-42 -41v-72z" />
    <glyph glyph-name="nine" unicode="9" horiz-adv-x="790" 
d="M108 0v145h389l54 53v54h-364l-129 129v190l129 129h403l129 -129v-432l-139 -139h-472zM271 389h280v123l-44 43h-236l-43 -43v-80z" />
    <glyph glyph-name="colon" unicode=":" horiz-adv-x="318" 
d="M76 355v148h166v-148h-166zM76 0v148h166v-148h-166z" />
    <glyph glyph-name="semicolon" unicode=";" horiz-adv-x="319" 
d="M77 355v148h166v-148h-166zM95 -166l34 156h-53v158h168v-135l-64 -179h-85z" />
    <glyph glyph-name="less" unicode="&#x3c;" horiz-adv-x="472" 
d="M332 41l-295 294l295 295l83 -84l-212 -211l212 -211z" />
    <glyph glyph-name="equal" unicode="=" horiz-adv-x="580" 
d="M55 393v116h470v-116h-470zM55 191v116h470v-116h-470z" />
    <glyph glyph-name="greater" unicode="&#x3e;" horiz-adv-x="472" 
d="M140 41l-83 83l212 211l-212 211l83 84l295 -295z" />
    <glyph glyph-name="question" unicode="?" horiz-adv-x="727" 
d="M210 209v127l76 76h155l41 41v72l-41 41h-371v134h457l123 -123v-176l-123 -123h-151l-12 -12v-57h-154zM204 0v148h166v-148h-166z" />
    <glyph glyph-name="at" unicode="@" horiz-adv-x="988" 
d="M234 -151l-160 160v492l160 160h530l160 -160v-338l-103 -103h-158l-49 49l-49 -49h-171l-86 86v218l86 86h274v-265l30 -30h75l36 36v268l-97 97h-426l-97 -97v-408l97 -97h540v-105h-592zM445 155h88l30 30v170h-118l-32 -32v-136z" />
    <glyph glyph-name="A" unicode="A" horiz-adv-x="827" 
d="M533 700l275 -650v-50h-165l-56 142h-351l-57 -142h-160v50l276 650h238zM294 287h235l-105 265h-23z" />
    <glyph glyph-name="B" unicode="B" horiz-adv-x="836" 
d="M91 0v700h544l110 -110v-142l-65 -65l100 -100v-163l-120 -120h-569zM261 425h278l36 36v68l-34 34h-280v-138zM261 137h305l44 44v72l-41 41h-308v-157z" />
    <glyph glyph-name="C" unicode="C" horiz-adv-x="728" 
d="M217 0l-146 146v408l146 146h467v-145h-383l-60 -60v-290l60 -60h383v-145h-467z" />
    <glyph glyph-name="D" unicode="D" horiz-adv-x="848" 
d="M91 0v700h540l146 -146v-408l-146 -146h-540zM261 145h286l60 60v290l-60 60h-286v-410z" />
    <glyph glyph-name="E" unicode="E" horiz-adv-x="757" 
d="M91 0v700h616v-145h-446v-135h336v-134h-336v-141h456v-145h-626z" />
    <glyph glyph-name="F" unicode="F" horiz-adv-x="704" 
d="M91 0v700h596v-145h-426v-175h320v-138h-320v-242h-170z" />
    <glyph glyph-name="G" unicode="G" horiz-adv-x="842" 
d="M217 0l-146 146v408l146 146h508v-145h-424l-60 -60v-290l60 -60h259l61 60v88h-225v128h393v-275l-146 -146h-426z" />
    <glyph glyph-name="H" unicode="H" horiz-adv-x="858" 
d="M91 0v700h170v-275h336v275h170v-700h-170v277h-336v-277h-170z" />
    <glyph glyph-name="I" unicode="I" horiz-adv-x="552" 
d="M51 0v133h140v434h-140v133h450v-133h-140v-434h140v-133h-450z" />
    <glyph glyph-name="J" unicode="J" horiz-adv-x="597" 
d="M33 0v148h259l54 54v353h-274v145h444v-557l-143 -143h-340z" />
    <glyph glyph-name="K" unicode="K" horiz-adv-x="789" 
d="M91 0v700h170v-272h124l195 272h168v-52l-219 -290l239 -306v-52h-174l-206 280h-127v-280h-170z" />
    <glyph glyph-name="L" unicode="L" horiz-adv-x="660" 
d="M91 0v700h170v-552h382v-148h-552z" />
    <glyph glyph-name="M" unicode="M" horiz-adv-x="1042" 
d="M91 0v700h258l162 -405h22l162 405h256v-700h-167v506h-16l-163 -405h-168l-163 405h-16v-506h-167z" />
    <glyph glyph-name="N" unicode="N" horiz-adv-x="888" 
d="M91 0v700h260l267 -518h17v518h162v-700h-260l-267 518h-17v-518h-162z" />
    <glyph glyph-name="O" unicode="O" horiz-adv-x="860" 
d="M217 0l-146 146v408l146 146h426l146 -146v-408l-146 -146h-426zM301 145h258l60 60v290l-60 60h-258l-60 -60v-290z" />
    <glyph glyph-name="P" unicode="P" horiz-adv-x="791" 
d="M91 0v700h521l130 -130v-245l-130 -130h-351v-195h-170zM261 340h264l47 46v123l-47 46h-264v-215z" />
    <glyph glyph-name="Q" unicode="Q" horiz-adv-x="860" 
d="M643 700l146 -146v-408l-146 -146h-150v-145h-126v145h-150l-146 146v408l146 146h426zM619 205v290l-60 60h-258l-60 -60v-290l60 -60h66v135h126v-135h66z" />
    <glyph glyph-name="R" unicode="R" horiz-adv-x="828" 
d="M91 0v700h529l130 -130v-214l-116 -116l137 -190v-50h-166l-155 220h-189v-220h-170zM261 359h269l50 50v102l-50 50h-269v-202z" />
    <glyph glyph-name="S" unicode="S" horiz-adv-x="750" 
d="M69 0v145h437l33 33v67l-35 35h-324l-124 124v177l119 119h499v-145h-415l-33 -33v-63l35 -34h324l124 -124v-182l-119 -119h-521z" />
    <glyph glyph-name="T" unicode="T" horiz-adv-x="716" 
d="M273 0v555h-263v145h696v-145h-263v-555h-170z" />
    <glyph glyph-name="U" unicode="U" horiz-adv-x="818" 
d="M233 0l-152 152v548h170v-489l63 -63h190l63 63v489h170v-548l-152 -152h-352z" />
    <glyph glyph-name="V" unicode="V" horiz-adv-x="784" 
d="M263 0l-244 650v50h160l200 -544h30l201 544h155v-50l-242 -650h-260z" />
    <glyph glyph-name="W" unicode="W" horiz-adv-x="1109" 
d="M217 0l-193 650v50h159l159 -543h26l114 351l-42 142v50h156l152 -543h26l155 543h156v-50l-190 -650h-246l-84 279h-18l-87 -279h-243z" />
    <glyph glyph-name="X" unicode="X" horiz-adv-x="757" 
d="M26 0v50l238 313l-218 287v50h168l158 -220h17l159 220h162v-50l-218 -287l238 -313v-50h-167l-179 248h-17l-178 -248h-163z" />
    <glyph glyph-name="Y" unicode="Y" horiz-adv-x="746" 
d="M288 0v221l-277 429v50h162l193 -308h23l194 308h152v-50l-277 -429v-221h-170z" />
    <glyph glyph-name="Z" unicode="Z" horiz-adv-x="718" 
d="M42 0v195l421 332v28h-409v145h619v-195l-421 -332v-28h424v-145h-634z" />
    <glyph glyph-name="bracketleft" unicode="[" horiz-adv-x="423" 
d="M91 -200v960h278v-142h-126v-676h126v-142h-278z" />
    <glyph glyph-name="backslash" unicode="\" horiz-adv-x="432" 
d="M303 -200l-293 886v44h119l294 -886v-44h-120z" />
    <glyph glyph-name="bracketright" unicode="]" horiz-adv-x="423" 
d="M54 -200v142h126v676h-126v142h278v-960h-278z" />
    <glyph glyph-name="asciicircum" unicode="^" horiz-adv-x="530" 
d="M118 459l-71 71l170 170h96l171 -170l-71 -71l-141 140h-14z" />
    <glyph glyph-name="underscore" unicode="_" horiz-adv-x="460" 
d="M-20 -200v116h500v-116h-500z" />
    <glyph glyph-name="grave" unicode="`" horiz-adv-x="254" 
d="M123 560l-93 165v13h130l64 -165v-13h-101z" />
    <glyph glyph-name="a" unicode="a" horiz-adv-x="634" 
d="M133 0l-92 92v128l95 95h278v32l-29 30h-276v126h361l103 -103v-400h-127v41h-16l-49 -41h-248zM218 120h150l46 37v56h-189l-25 -25v-50z" />
    <glyph glyph-name="b" unicode="b" horiz-adv-x="660" 
d="M71 0v700h159v-229h11l37 32h208l118 -118v-267l-118 -118h-415zM230 130h174l41 41v161l-41 41h-122l-52 -43v-200z" />
    <glyph glyph-name="c" unicode="c" horiz-adv-x="567" 
d="M174 0l-118 118v267l118 118h346v-130h-264l-41 -41v-161l41 -41h264v-130h-346z" />
    <glyph glyph-name="d" unicode="d" horiz-adv-x="660" 
d="M174 0l-118 118v267l118 118h256v197h159v-700h-127v44h-21l-53 -44h-214zM256 130h119l55 43v200h-174l-41 -41v-161z" />
    <glyph glyph-name="e" unicode="e" horiz-adv-x="648" 
d="M174 0l-118 118v267l118 118h307l118 -118v-185h-384v-32l41 -41h305v-127h-387zM215 302h225v40l-41 41h-143l-41 -41v-40z" />
    <glyph glyph-name="f" unicode="f" horiz-adv-x="443" 
d="M115 0v380h-100v123h100v111l86 86h252v-120h-175l-10 -10v-67h177v-123h-171v-380h-159z" />
    <glyph glyph-name="g" unicode="g" horiz-adv-x="655" 
d="M100 -200v128h308l22 23v81h-11l-37 -32h-208l-118 118v267l118 118h415v-603l-100 -100h-389zM256 130h122l52 43v200h-174l-41 -41v-161z" />
    <glyph glyph-name="h" unicode="h" horiz-adv-x="661" 
d="M71 0v700h159v-227h10l37 30h212l111 -111v-392h-159v339l-34 34h-126l-51 -41v-332h-159z" />
    <glyph glyph-name="i" unicode="i" horiz-adv-x="291" 
d="M64 582v118h163v-118h-163zM66 0v503h159v-503h-159z" />
    <glyph glyph-name="j" unicode="j" horiz-adv-x="291" 
d="M64 582v118h163v-118h-163zM-86 -200v130h139l13 13v560h159v-611l-92 -92h-219z" />
    <glyph glyph-name="k" unicode="k" horiz-adv-x="638" 
d="M71 0v700h159v-377h86l133 180h153v-42l-150 -196l170 -223v-42h-161l-145 193h-86v-193h-159z" />
    <glyph glyph-name="l" unicode="l" horiz-adv-x="319" 
d="M89 0v578h-100v122h259v-700h-159z" />
    <glyph glyph-name="m" unicode="m" horiz-adv-x="950" 
d="M66 0v503h127v-40h19l47 40h187l56 -56h23l66 56h187l111 -111v-392h-159v339l-34 34h-92l-47 -38v-335h-159v339l-34 34h-92l-47 -38v-335h-159z" />
    <glyph glyph-name="n" unicode="n" horiz-adv-x="656" 
d="M66 0v503h127v-40h19l47 40h225l111 -111v-392h-159v339l-34 34h-130l-47 -38v-335h-159z" />
    <glyph glyph-name="o" unicode="o" horiz-adv-x="659" 
d="M174 0l-118 118v267l118 118h311l118 -118v-267l-118 -118h-311zM256 130h147l41 41v161l-41 41h-147l-41 -41v-161z" />
    <glyph glyph-name="p" unicode="p" horiz-adv-x="655" 
d="M66 -200v703h127v-44h21l53 44h214l118 -118v-267l-118 -118h-256v-200h-159zM225 130h174l41 41v161l-41 41h-119l-55 -43v-200z" />
    <glyph glyph-name="q" unicode="q" horiz-adv-x="655" 
d="M430 -200v232h-11l-37 -32h-208l-118 118v267l118 118h415v-703h-159zM256 130h122l52 43v200h-174l-41 -41v-161z" />
    <glyph glyph-name="r" unicode="r" horiz-adv-x="439" 
d="M66 0v503h127v-40h19l47 40h184v-130h-171l-47 -38v-335h-159z" />
    <glyph glyph-name="s" unicode="s" horiz-adv-x="598" 
d="M59 0v120h321l18 18v35l-18 19h-237l-92 91v129l92 91h386v-120h-301l-18 -18v-35l18 -18h237l92 -92v-128l-92 -92h-406z" />
    <glyph glyph-name="t" unicode="t" horiz-adv-x="478" 
d="M207 0l-92 92v288h-100v123h100v134h159v-134h171v-123h-171v-237l13 -13h166v-130h-246z" />
    <glyph glyph-name="u" unicode="u" horiz-adv-x="641" 
d="M172 0l-111 111v392h159v-339l34 -34h115l47 38v335h159v-503h-127v40h-19l-47 -40h-210z" />
    <glyph glyph-name="v" unicode="v" horiz-adv-x="593" 
d="M185 0l-175 461v42h150l129 -361h18l131 361h145v-42l-176 -461h-222z" />
    <glyph glyph-name="w" unicode="w" horiz-adv-x="860" 
d="M163 0l-148 461v42h147l107 -360h18l78 234l-23 84v42h144l89 -360h18l108 360h144v-42l-147 -461h-204l-54 190h-18l-60 -190h-199z" />
    <glyph glyph-name="x" unicode="x" horiz-adv-x="613" 
d="M22 0v42l174 216l-162 203v42h164l101 -139h22l102 139h155v-42l-162 -200l175 -219v-42h-164l-113 159h-22l-115 -159h-155z" />
    <glyph glyph-name="y" unicode="y" horiz-adv-x="638" 
d="M92 -200v125h295l26 26v77h-10l-33 -28h-198l-111 111v392h159v-339l34 -34h112l47 38v335h159v-603l-100 -100h-380z" />
    <glyph glyph-name="z" unicode="z" horiz-adv-x="561" 
d="M39 0v167l288 194v19h-278v123h470v-167l-288 -194v-19h298v-123h-490z" />
    <glyph glyph-name="braceleft" unicode="{" horiz-adv-x="463" 
d="M243 -200l-108 108v300h-89v142h89v302l108 108h166v-142h-88l-34 -34v-608l34 -34h88v-142h-166z" />
    <glyph glyph-name="bar" unicode="|" horiz-adv-x="361" 
d="M108 -200v960h145v-960h-145z" />
    <glyph glyph-name="braceright" unicode="}" horiz-adv-x="463" 
d="M54 -200v142h88l34 34v608l-34 34h-88v142h166l108 -108v-302h89v-142h-89v-300l-108 -108h-166z" />
    <glyph glyph-name="asciitilde" unicode="~" horiz-adv-x="580" 
d="M57 270v96l68 68h154l64 -70h66l16 16v54h99v-96l-68 -68h-149l-64 70h-71l-16 -16v-54h-99z" />
    <glyph glyph-name="uni00A0" unicode="&#xa0;" horiz-adv-x="340" 
 />
    <glyph glyph-name="exclamdown" unicode="&#xa1;" horiz-adv-x="371" 
d="M103 355v148h166v-148h-166zM104 -200v334l21 160h122l21 -160v-334h-164z" />
    <glyph glyph-name="cent" unicode="&#xa2;" horiz-adv-x="595" 
d="M302 -90v90h-128l-118 118v267l118 118h128v90h98v-90h148v-130h-148v-243h148v-130h-148v-90h-98zM247 130h55v243h-55l-41 -41v-161z" />
    <glyph glyph-name="sterling" unicode="&#xa3;" horiz-adv-x="704" 
d="M31 0v145h135v161h-95v98h95v184l112 112h365v-145h-276l-31 -31v-120h247v-98h-247v-161h347v-145h-652z" />
    <glyph glyph-name="currency" unicode="&#xa4;" horiz-adv-x="627" 
d="M138 97l-64 63l69 70l-18 18v164l18 18l-69 69l64 64l68 -70l19 19h176l18 -18l70 69l64 -64l-69 -70l17 -17v-164l-18 -18l70 -70l-64 -63l-70 69l-18 -18h-176l-18 18zM266 250h94l31 31v98l-31 31h-94l-31 -31v-98z" />
    <glyph glyph-name="yen" unicode="&#xa5;" horiz-adv-x="740" 
d="M729 700v-50l-208 -325h141v-85h-195l-12 -19v-46h207v-85h-207v-90h-170v90h-207v85h207v46l-12 19h-195v85h141l-208 325v50h161l190 -308h25l189 308h153z" />
    <glyph glyph-name="brokenbar" unicode="&#xa6;" horiz-adv-x="361" 
d="M108 360v400h145v-400h-145zM108 -200v400h145v-400h-145z" />
    <glyph glyph-name="section" unicode="&#xa7;" horiz-adv-x="655" 
d="M116 -200v123h278l33 33v36l-54 54h-193l-110 110v188l75 75l-60 59v121l101 101h332v-123h-259l-31 -31v-38l54 -54h193l110 -110v-188l-74 -74l59 -60v-119l-103 -103h-351zM251 159h153l36 36v110l-36 36h-153l-36 -36v-110z" />
    <glyph glyph-name="dieresis" unicode="&#xa8;" horiz-adv-x="406" 
d="M30 592v118h142v-118h-142zM234 592v118h142v-118h-142z" />
    <glyph glyph-name="copyright" unicode="&#xa9;" horiz-adv-x="1056" 
d="M270 -40l-160 160v450l160 160h516l160 -160v-450l-160 -160h-516zM324 61h408l100 100v368l-100 100h-408l-100 -100v-368zM429 150l-86 86v218l86 86h261v-92h-215l-32 -32v-142l32 -32h215v-92h-261z" />
    <glyph glyph-name="ordfeminine" unicode="&#xaa;" horiz-adv-x="461" 
d="M110 330l-71 71v101l71 71h202v26l-21 21h-211v80h268l64 -64v-306h-79v31h-10l-31 -31h-182zM166 412h118l28 28v55h-144l-29 -29v-27z" />
    <glyph glyph-name="guillemotleft" unicode="&#xab;" horiz-adv-x="655" 
d="M254 -10l-223 262l223 262l98 -80l-158 -182l159 -182zM516 -10l-223 262l223 262l98 -80l-158 -182l159 -182z" />
    <glyph glyph-name="logicalnot" unicode="&#xac;" horiz-adv-x="580" 
d="M412 218v93h-357v113h470v-206h-113z" />
    <glyph glyph-name="uni00AD" unicode="&#xad;" horiz-adv-x="452" 
d="M64 211v132h324v-132h-324z" />
    <glyph glyph-name="registered" unicode="&#xae;" horiz-adv-x="1056" 
d="M270 -40l-160 160v450l160 160h516l160 -160v-450l-160 -160h-516zM324 61h408l100 100v368l-100 100h-408l-100 -100v-368zM358 150v390h281l75 -75v-119l-66 -67l82 -109v-20h-99l-89 121h-84v-121h-100zM458 363h135l21 21v43l-21 21h-135v-85z" />
    <glyph glyph-name="macron" unicode="&#xaf;" horiz-adv-x="380" 
d="M30 602v96h320v-96h-320z" />
    <glyph glyph-name="degree" unicode="&#xb0;" horiz-adv-x="456" 
d="M120 367l-72 72v189l72 72h216l72 -72v-189l-72 -72h-216zM182 458h92l20 20v111l-20 20h-92l-20 -20v-111z" />
    <glyph glyph-name="plusminus" unicode="&#xb1;" horiz-adv-x="580" 
d="M232 174v186h-195v113h195v186h116v-186h195v-113h-195v-186h-116zM40 0v113h500v-113h-500z" />
    <glyph glyph-name="uni00B2" unicode="&#xb2;" horiz-adv-x="418" 
d="M39 464v143l65 65h150l15 15v14l-15 15h-202v84h269l60 -60v-88l-60 -60h-152l-18 -18v-24h220v-86h-332z" />
    <glyph glyph-name="uni00B3" unicode="&#xb3;" horiz-adv-x="404" 
d="M39 464v84h208l13 13v16l-16 16h-125v80h115l16 16v14l-13 13h-190v84h260l55 -55v-70l-31 -32l41 -42v-82l-55 -55h-278z" />
    <glyph glyph-name="acute" unicode="&#xb4;" horiz-adv-x="254" 
d="M30 560v13l64 165h130v-13l-93 -165h-101z" />
    <glyph glyph-name="uni00B5" unicode="&#xb5;" horiz-adv-x="664" 
d="M66 -200v703h159v-337l36 -36h136l42 39v334h159v-503h-127v40h-16l-43 -40h-160l-18 18h-9v-218h-159z" />
    <glyph glyph-name="paragraph" unicode="&#xb6;" horiz-adv-x="690" 
d="M254 -200v452h-88l-118 118v212l118 118h208v-900h-120zM472 -200v900h120v-900h-120z" />
    <glyph glyph-name="periodcentered" unicode="&#xb7;" horiz-adv-x="340" 
d="M87 213v148h166v-148h-166z" />
    <glyph glyph-name="cedilla" unicode="&#xb8;" horiz-adv-x="283" 
d="M23 -218v78h132l10 10v16l-10 10h-102v36l21 71l88 6v-6l-8 -26v-9h49l56 -56v-74l-56 -56h-180z" />
    <glyph glyph-name="uni00B9" unicode="&#xb9;" horiz-adv-x="392" 
d="M64 464v89h87v158h-79v89h191v-247h79v-89h-278z" />
    <glyph glyph-name="ordmasculine" unicode="&#xba;" horiz-adv-x="465" 
d="M134 330l-79 79v212l79 79h197l79 -79v-212l-79 -79h-197zM178 419h109l29 29v134l-29 29h-109l-29 -29v-134z" />
    <glyph glyph-name="guillemotright" unicode="&#xbb;" horiz-adv-x="655" 
d="M139 -10l-99 80l159 182l-158 182l98 80l223 -262zM401 -10l-99 80l159 182l-158 182l98 80l223 -262z" />
    <glyph glyph-name="onequarter" unicode="&#xbc;" horiz-adv-x="880" 
d="M64 364v89h87v158h-79v89h191v-247h79v-89h-278zM188 0v42l410 658h105v-42l-410 -658h-105zM690 0v54h-204v90l168 192h142v-200h45v-82h-45v-54h-106zM600 136h90v101h-8l-82 -94v-7z" />
    <glyph glyph-name="onehalf" unicode="&#xbd;" horiz-adv-x="917" 
d="M64 364v89h87v158h-79v89h191v-247h79v-89h-278zM188 0v42l410 658h105v-42l-410 -658h-105zM538 0v143l65 65h150l15 15v14l-15 15h-202v84h269l60 -60v-88l-60 -60h-152l-18 -18v-24h220v-86h-332z" />
    <glyph glyph-name="threequarters" unicode="&#xbe;" horiz-adv-x="892" 
d="M39 364v84h208l13 13v16l-16 16h-125v80h115l16 16v14l-13 13h-190v84h260l55 -55v-70l-31 -32l41 -42v-82l-55 -55h-278zM200 0v42l410 658h105v-42l-410 -658h-105zM702 0v54h-204v90l168 192h142v-200h45v-82h-45v-54h-106zM612 136h90v101h-8l-82 -94v-7z" />
    <glyph glyph-name="questiondown" unicode="&#xbf;" horiz-adv-x="727" 
d="M357 355v148h166v-148h-166zM200 -200l-123 123v176l123 123h151l12 12v60h154v-130l-76 -76h-155l-41 -41v-72l41 -41h371v-134h-457z" />
    <glyph glyph-name="Agrave" unicode="&#xc0;" horiz-adv-x="827" 
d="M471 746h-111l-79 137v13h134l56 -137v-13zM533 700l275 -650v-50h-165l-56 142h-351l-57 -142h-160v50l276 650h238zM294 287h235l-105 265h-23z" />
    <glyph glyph-name="Aacute" unicode="&#xc1;" horiz-adv-x="827" 
d="M546 883l-79 -137h-111v13l56 137h134v-13zM533 700l275 -650v-50h-165l-56 142h-351l-57 -142h-160v50l276 650h238zM294 287h235l-105 265h-23z" />
    <glyph glyph-name="Acircumflex" unicode="&#xc2;" horiz-adv-x="827" 
d="M406 810l-64 -64h-115v30l115 112h145l113 -110v-32h-115l-63 64h-16zM533 700l275 -650v-50h-165l-56 142h-351l-57 -142h-160v50l276 650h238zM294 287h235l-105 265h-23z" />
    <glyph glyph-name="Atilde" unicode="&#xc3;" horiz-adv-x="827" 
d="M328 786v-40h-102v83l55 55h121l48 -49h38l9 9v40h102v-83l-55 -55h-125l-48 49h-34zM533 700l275 -650v-50h-165l-56 142h-351l-57 -142h-160v50l276 650h238zM294 287h235l-105 265h-23z" />
    <glyph glyph-name="Adieresis" unicode="&#xc4;" horiz-adv-x="827" 
d="M382 880v-118h-142v118h142zM586 880v-118h-142v118h142zM533 700l275 -650v-50h-165l-56 142h-351l-57 -142h-160v50l276 650h238zM294 287h235l-105 265h-23z" />
    <glyph glyph-name="Aring" unicode="&#xc5;" horiz-adv-x="827" 
d="M493 725h-160l-61 61v103l61 61h160l61 -61v-103zM361 858v-41l14 -14h76l14 14v41l-14 14h-76zM533 700l275 -650v-50h-165l-56 142h-351l-57 -142h-160v50l276 650h238zM294 287h235l-105 265h-23z" />
    <glyph glyph-name="AE" unicode="&#xc6;" horiz-adv-x="1176" 
d="M708 145h428v-145h-592v166h-285l-82 -166h-163v50l332 650h780v-145h-418v-135h310v-134h-310v-141zM544 310v245h-93l-121 -245h214z" />
    <glyph glyph-name="Ccedilla" unicode="&#xc7;" horiz-adv-x="728" 
d="M301 555l-60 -60v-290l60 -60h383v-145h-224l-7 -23v-9h49l56 -56v-74l-56 -56h-180v78h132l10 10v16l-10 10h-102v36l20 68h-155l-146 146v408l146 146h467v-145h-383z" />
    <glyph glyph-name="Egrave" unicode="&#xc8;" horiz-adv-x="757" 
d="M345 746l-79 137v13h134l56 -137v-13h-111zM91 0v700h616v-145h-446v-135h336v-134h-336v-141h456v-145h-626z" />
    <glyph glyph-name="Eacute" unicode="&#xc9;" horiz-adv-x="757" 
d="M342 746v13l56 137h134v-13l-79 -137h-111zM91 0v700h616v-145h-446v-135h336v-134h-336v-141h456v-145h-626z" />
    <glyph glyph-name="Ecircumflex" unicode="&#xca;" horiz-adv-x="757" 
d="M212 746v30l115 112h145l113 -110v-32h-115l-63 64h-16l-64 -64h-115zM91 0v700h616v-145h-446v-135h336v-134h-336v-141h456v-145h-626z" />
    <glyph glyph-name="Edieresis" unicode="&#xcb;" horiz-adv-x="757" 
d="M226 762v118h142v-118h-142zM430 762v118h142v-118h-142zM91 0v700h616v-145h-446v-135h336v-134h-336v-141h456v-145h-626z" />
    <glyph glyph-name="Igrave" unicode="&#xcc;" horiz-adv-x="552" 
d="M223 746l-79 137v13h134l56 -137v-13h-111zM51 0v133h140v434h-140v133h450v-133h-140v-434h140v-133h-450z" />
    <glyph glyph-name="Iacute" unicode="&#xcd;" horiz-adv-x="552" 
d="M219 746v13l56 137h134v-13l-79 -137h-111zM51 0v133h140v434h-140v133h450v-133h-140v-434h140v-133h-450z" />
    <glyph glyph-name="Icircumflex" unicode="&#xce;" horiz-adv-x="552" 
d="M90 746v30l115 112h145l113 -110v-32h-115l-63 64h-16l-64 -64h-115zM51 0v133h140v434h-140v133h450v-133h-140v-434h140v-133h-450z" />
    <glyph glyph-name="Idieresis" unicode="&#xcf;" horiz-adv-x="552" 
d="M103 762v118h142v-118h-142zM307 762v118h142v-118h-142zM51 0v133h140v434h-140v133h450v-133h-140v-434h140v-133h-450z" />
    <glyph glyph-name="Eth" unicode="&#xd0;" horiz-adv-x="861" 
d="M644 700l146 -146v-408l-146 -146h-540v302h-88v95h88v303h540zM620 205v290l-60 60h-286v-158h214v-95h-214v-157h286z" />
    <glyph glyph-name="Ntilde" unicode="&#xd1;" horiz-adv-x="888" 
d="M257 746v83l55 55h121l48 -49h38l9 9v40h102v-83l-55 -55h-125l-48 49h-34l-9 -9v-40h-102zM91 0v700h260l267 -518h17v518h162v-700h-260l-267 518h-17v-518h-162z" />
    <glyph glyph-name="Ograve" unicode="&#xd2;" horiz-adv-x="860" 
d="M376 746l-79 137v13h134l56 -137v-13h-111zM217 0l-146 146v408l146 146h426l146 -146v-408l-146 -146h-426zM301 145h258l60 60v290l-60 60h-258l-60 -60v-290z" />
    <glyph glyph-name="Oacute" unicode="&#xd3;" horiz-adv-x="860" 
d="M373 746v13l56 137h134v-13l-79 -137h-111zM217 0l-146 146v408l146 146h426l146 -146v-408l-146 -146h-426zM301 145h258l60 60v290l-60 60h-258l-60 -60v-290z" />
    <glyph glyph-name="Ocircumflex" unicode="&#xd4;" horiz-adv-x="860" 
d="M243 746v30l115 112h145l113 -110v-32h-115l-63 64h-16l-64 -64h-115zM217 0l-146 146v408l146 146h426l146 -146v-408l-146 -146h-426zM301 145h258l60 60v290l-60 60h-258l-60 -60v-290z" />
    <glyph glyph-name="Otilde" unicode="&#xd5;" horiz-adv-x="860" 
d="M243 746v83l55 55h121l48 -49h38l9 9v40h102v-83l-55 -55h-125l-48 49h-34l-9 -9v-40h-102zM217 0l-146 146v408l146 146h426l146 -146v-408l-146 -146h-426zM301 145h258l60 60v290l-60 60h-258l-60 -60v-290z" />
    <glyph glyph-name="Odieresis" unicode="&#xd6;" horiz-adv-x="860" 
d="M257 762v118h142v-118h-142zM461 762v118h142v-118h-142zM217 0l-146 146v408l146 146h426l146 -146v-408l-146 -146h-426zM301 145h258l60 60v290l-60 60h-258l-60 -60v-290z" />
    <glyph glyph-name="multiply" unicode="&#xd7;" horiz-adv-x="580" 
d="M122 105l-78 79l166 167l-166 168l78 79l168 -166l168 167l78 -80l-166 -168l166 -167l-78 -79l-168 166z" />
    <glyph glyph-name="Oslash" unicode="&#xd8;" horiz-adv-x="879" 
d="M811 651l-56 -54l43 -43v-408l-146 -146h-426l-35 35l-57 -55l-66 69l55 54l-43 43v408l146 146h426l35 -35l57 54zM307 555l-64 -63v-271l331 331l-3 3h-264zM571 145l64 63v270l-331 -330l3 -3h264z" />
    <glyph glyph-name="Ugrave" unicode="&#xd9;" horiz-adv-x="818" 
d="M356 746l-79 137v13h134l56 -137v-13h-111zM233 0l-152 152v548h170v-489l63 -63h190l63 63v489h170v-548l-152 -152h-352z" />
    <glyph glyph-name="Uacute" unicode="&#xda;" horiz-adv-x="818" 
d="M352 746v13l56 137h134v-13l-79 -137h-111zM233 0l-152 152v548h170v-489l63 -63h190l63 63v489h170v-548l-152 -152h-352z" />
    <glyph glyph-name="Ucircumflex" unicode="&#xdb;" horiz-adv-x="818" 
d="M223 746v30l115 112h145l113 -110v-32h-115l-63 64h-16l-64 -64h-115zM233 0l-152 152v548h170v-489l63 -63h190l63 63v489h170v-548l-152 -152h-352z" />
    <glyph glyph-name="Udieresis" unicode="&#xdc;" horiz-adv-x="818" 
d="M236 762v118h142v-118h-142zM440 762v118h142v-118h-142zM233 0l-152 152v548h170v-489l63 -63h190l63 63v489h170v-548l-152 -152h-352z" />
    <glyph glyph-name="Yacute" unicode="&#xdd;" horiz-adv-x="746" 
d="M319 746v13l56 137h134v-13l-79 -137h-111zM288 0v221l-277 429v50h162l193 -308h23l194 308h152v-50l-277 -429v-221h-170z" />
    <glyph glyph-name="Thorn" unicode="&#xde;" horiz-adv-x="804" 
d="M91 0v700h170v-108h359l130 -130v-212l-130 -130h-359v-120h-170zM261 265h272l47 46v90l-47 46h-272v-182z" />
    <glyph glyph-name="germandbls" unicode="&#xdf;" horiz-adv-x="662" 
d="M71 0v582l118 118h276l116 -116v-142l-50 -50l90 -90v-184l-118 -118h-212v130h130l41 41v96l-41 41h-104v123h66l39 39v61l-39 39h-112l-41 -41v-529h-159z" />
    <glyph glyph-name="agrave" unicode="&#xe0;" horiz-adv-x="634" 
d="M281 560l-93 165v13h130l64 -165v-13h-101zM133 0l-92 92v128l95 95h278v32l-29 30h-276v126h361l103 -103v-400h-127v41h-16l-49 -41h-248zM218 120h150l46 37v56h-189l-25 -25v-50z" />
    <glyph glyph-name="aacute" unicode="&#xe1;" horiz-adv-x="634" 
d="M278 560v13l64 165h130v-13l-93 -165h-101zM133 0l-92 92v128l95 95h278v32l-29 30h-276v126h361l103 -103v-400h-127v41h-16l-49 -41h-248zM218 120h150l46 37v56h-189l-25 -25v-50z" />
    <glyph glyph-name="acircumflex" unicode="&#xe2;" horiz-adv-x="634" 
d="M147 560v33l112 137h145l110 -136v-34h-109l-65 87h-19l-65 -87h-109zM133 0l-92 92v128l95 95h278v32l-29 30h-276v126h361l103 -103v-400h-127v41h-16l-49 -41h-248zM218 120h150l46 37v56h-189l-25 -25v-50z" />
    <glyph glyph-name="atilde" unicode="&#xe3;" horiz-adv-x="634" 
d="M142 565v95l55 55h125l53 -61h33l9 9v52h102v-95l-55 -55h-125l-53 61h-33l-9 -9v-52h-102zM133 0l-92 92v128l95 95h278v32l-29 30h-276v126h361l103 -103v-400h-127v41h-16l-49 -41h-248zM218 120h150l46 37v56h-189l-25 -25v-50z" />
    <glyph glyph-name="adieresis" unicode="&#xe4;" horiz-adv-x="634" 
d="M158 592v118h142v-118h-142zM362 592v118h142v-118h-142zM133 0l-92 92v128l95 95h278v32l-29 30h-276v126h361l103 -103v-400h-127v41h-16l-49 -41h-248zM218 120h150l46 37v56h-189l-25 -25v-50z" />
    <glyph glyph-name="aring" unicode="&#xe5;" horiz-adv-x="634" 
d="M254 547l-61 61v114l61 61h154l61 -61v-114l-61 -61h-154zM296 625h70l14 14v52l-14 14h-70l-14 -14v-52zM133 0l-92 92v128l95 95h278v32l-29 30h-276v126h361l103 -103v-400h-127v41h-16l-49 -41h-248zM218 120h150l46 37v56h-189l-25 -25v-50z" />
    <glyph glyph-name="ae" unicode="&#xe6;" horiz-adv-x="959" 
d="M132 0l-91 91v131l93 93h263v25l-40 40h-250v123h310l57 -56l56 56h262l118 -118v-185h-360v-35l38 -38h282v-127h-339l-67 68l-81 -68h-251zM550 302h201v42l-39 39h-125l-37 -37v-44zM222 120h129l46 36v57h-174l-23 -23v-48z" />
    <glyph glyph-name="ccedilla" unicode="&#xe7;" horiz-adv-x="567" 
d="M256 373l-41 -41v-161l41 -41h264v-130h-154l-7 -23v-9h49l56 -56v-74l-56 -56h-180v78h132l10 10v16l-10 10h-102v36l20 68h-104l-118 118v267l118 118h346v-130h-264z" />
    <glyph glyph-name="egrave" unicode="&#xe8;" horiz-adv-x="648" 
d="M277 560l-93 165v13h130l64 -165v-13h-101zM174 0l-118 118v267l118 118h307l118 -118v-185h-384v-32l41 -41h305v-127h-387zM215 302h225v40l-41 41h-143l-41 -41v-40z" />
    <glyph glyph-name="eacute" unicode="&#xe9;" horiz-adv-x="648" 
d="M274 560v13l64 165h130v-13l-93 -165h-101zM174 0l-118 118v267l118 118h307l118 -118v-185h-384v-32l41 -41h305v-127h-387zM215 302h225v40l-41 41h-143l-41 -41v-40z" />
    <glyph glyph-name="ecircumflex" unicode="&#xea;" horiz-adv-x="648" 
d="M143 560v33l112 137h145l110 -136v-34h-109l-65 87h-19l-65 -87h-109zM174 0l-118 118v267l118 118h307l118 -118v-185h-384v-32l41 -41h305v-127h-387zM215 302h225v40l-41 41h-143l-41 -41v-40z" />
    <glyph glyph-name="edieresis" unicode="&#xeb;" horiz-adv-x="648" 
d="M154 592v118h142v-118h-142zM358 592v118h142v-118h-142zM174 0l-118 118v267l118 118h307l118 -118v-185h-384v-32l41 -41h305v-127h-387zM215 302h225v40l-41 41h-143l-41 -41v-40z" />
    <glyph glyph-name="igrave" unicode="&#xec;" horiz-adv-x="291" 
d="M95 560l-93 165v13h130l64 -165v-13h-101zM66 0v503h159v-503h-159z" />
    <glyph glyph-name="iacute" unicode="&#xed;" horiz-adv-x="291" 
d="M93 560v13l64 165h130v-13l-93 -165h-101zM66 0v503h159v-503h-159z" />
    <glyph glyph-name="icircumflex" unicode="&#xee;" horiz-adv-x="291" 
d="M-38 560v33l112 137h145l110 -136v-34h-109l-65 87h-19l-65 -87h-109zM66 0v503h159v-503h-159z" />
    <glyph glyph-name="idieresis" unicode="&#xef;" horiz-adv-x="291" 
d="M-11 591v121h133v-121h-133zM168 591v121h133v-121h-133zM66 0v503h159v-503h-159z" />
    <glyph glyph-name="eth" unicode="&#xf0;" horiz-adv-x="637" 
d="M422 567l179 -236v-213l-118 -118h-319l-118 118v231l118 118h149v11l-39 53l-139 -34h-17v88l99 24l-38 52v39h143l41 -55l151 37h17v-88zM442 171v131l-26 35h-170l-41 -41v-125l41 -41h155z" />
    <glyph glyph-name="ntilde" unicode="&#xf1;" horiz-adv-x="656" 
d="M143 565v95l55 55h125l53 -61h33l9 9v52h102v-95l-55 -55h-125l-53 61h-33l-9 -9v-52h-102zM66 0v503h127v-40h19l47 40h225l111 -111v-392h-159v339l-34 34h-130l-47 -38v-335h-159z" />
    <glyph glyph-name="ograve" unicode="&#xf2;" horiz-adv-x="659" 
d="M279 560l-93 165v13h130l64 -165v-13h-101zM174 0l-118 118v267l118 118h311l118 -118v-267l-118 -118h-311zM256 130h147l41 41v161l-41 41h-147l-41 -41v-161z" />
    <glyph glyph-name="oacute" unicode="&#xf3;" horiz-adv-x="659" 
d="M277 560v13l64 165h130v-13l-93 -165h-101zM174 0l-118 118v267l118 118h311l118 -118v-267l-118 -118h-311zM256 130h147l41 41v161l-41 41h-147l-41 -41v-161z" />
    <glyph glyph-name="ocircumflex" unicode="&#xf4;" horiz-adv-x="659" 
d="M146 560v33l112 137h145l110 -136v-34h-109l-65 87h-19l-65 -87h-109zM174 0l-118 118v267l118 118h311l118 -118v-267l-118 -118h-311zM256 130h147l41 41v161l-41 41h-147l-41 -41v-161z" />
    <glyph glyph-name="otilde" unicode="&#xf5;" horiz-adv-x="659" 
d="M141 565v95l55 55h125l53 -61h33l9 9v52h102v-95l-55 -55h-125l-53 61h-33l-9 -9v-52h-102zM174 0l-118 118v267l118 118h311l118 -118v-267l-118 -118h-311zM256 130h147l41 41v161l-41 41h-147l-41 -41v-161z" />
    <glyph glyph-name="odieresis" unicode="&#xf6;" horiz-adv-x="659" 
d="M156 592v118h142v-118h-142zM360 592v118h142v-118h-142zM174 0l-118 118v267l118 118h311l118 -118v-267l-118 -118h-311zM256 130h147l41 41v161l-41 41h-147l-41 -41v-161z" />
    <glyph glyph-name="divide" unicode="&#xf7;" horiz-adv-x="580" 
d="M228 477v126h124v-126h-124zM45 294v116h490v-116h-490zM228 100v126h124v-126h-124z" />
    <glyph glyph-name="oslash" unicode="&#xf8;" horiz-adv-x="665" 
d="M620 467l-50 -46l36 -36v-267l-118 -118h-311l-29 29l-52 -47l-51 54l50 46l-36 36v267l118 118h311l29 -29l52 47zM252 380l-41 -42v-148l203 189l-1 1h-161zM413 123l41 42v149l-204 -189l2 -2h161z" />
    <glyph glyph-name="ugrave" unicode="&#xf9;" horiz-adv-x="641" 
d="M268 560l-93 165v13h130l64 -165v-13h-101zM172 0l-111 111v392h159v-339l34 -34h115l47 38v335h159v-503h-127v40h-19l-47 -40h-210z" />
    <glyph glyph-name="uacute" unicode="&#xfa;" horiz-adv-x="641" 
d="M265 560v13l64 165h130v-13l-93 -165h-101zM172 0l-111 111v392h159v-339l34 -34h115l47 38v335h159v-503h-127v40h-19l-47 -40h-210z" />
    <glyph glyph-name="ucircumflex" unicode="&#xfb;" horiz-adv-x="641" 
d="M134 560v33l112 137h145l110 -136v-34h-109l-65 87h-19l-65 -87h-109zM172 0l-111 111v392h159v-339l34 -34h115l47 38v335h159v-503h-127v40h-19l-47 -40h-210z" />
    <glyph glyph-name="udieresis" unicode="&#xfc;" horiz-adv-x="641" 
d="M145 592v118h142v-118h-142zM349 592v118h142v-118h-142zM172 0l-111 111v392h159v-339l34 -34h115l47 38v335h159v-503h-127v40h-19l-47 -40h-210z" />
    <glyph glyph-name="yacute" unicode="&#xfd;" horiz-adv-x="638" 
d="M265 560v13l64 165h130v-13l-93 -165h-101zM92 -200v125h295l26 26v77h-10l-33 -28h-198l-111 111v392h159v-339l34 -34h112l47 38v335h159v-603l-100 -100h-380z" />
    <glyph glyph-name="thorn" unicode="&#xfe;" horiz-adv-x="660" 
d="M71 -200v900h159v-229h11l37 32h208l118 -118v-267l-118 -118h-256v-200h-159zM230 130h174l41 41v161l-41 41h-122l-52 -43v-200z" />
    <glyph glyph-name="ydieresis" unicode="&#xff;" horiz-adv-x="638" 
d="M144 592v118h142v-118h-142zM348 592v118h142v-118h-142zM92 -200v125h295l26 26v77h-10l-33 -28h-198l-111 111v392h159v-339l34 -34h112l47 38v335h159v-603l-100 -100h-380z" />
    <glyph glyph-name="Amacron" unicode="&#x100;" horiz-adv-x="827" 
d="M573 868v-96h-320v96h320zM533 700l275 -650v-50h-165l-56 142h-351l-57 -142h-160v50l276 650h238zM294 287h235l-105 265h-23z" />
    <glyph glyph-name="amacron" unicode="&#x101;" horiz-adv-x="634" 
d="M171 602v96h320v-96h-320zM133 0l-92 92v128l95 95h278v32l-29 30h-276v126h361l103 -103v-400h-127v41h-16l-49 -41h-248zM218 120h150l46 37v56h-189l-25 -25v-50z" />
    <glyph glyph-name="Abreve" unicode="&#x102;" horiz-adv-x="827" 
d="M528 746h-229l-61 61v81h104v-39l12 -12h119l12 12v39h104v-81zM533 700l275 -650v-50h-165l-56 142h-351l-57 -142h-160v50l276 650h238zM294 287h235l-105 265h-23z" />
    <glyph glyph-name="abreve" unicode="&#x103;" horiz-adv-x="634" 
d="M224 560l-61 61v99h102v-57l14 -14h104l14 14v57h102v-99l-61 -61h-214zM133 0l-92 92v128l95 95h278v32l-29 30h-276v126h361l103 -103v-400h-127v41h-16l-49 -41h-248zM218 120h150l46 37v56h-189l-25 -25v-50z" />
    <glyph glyph-name="Aogonek" unicode="&#x104;" horiz-adv-x="827" 
d="M808 0l-101 -82v-38l11 -11h77v-87h-128l-54 54v105l73 59h-43l-56 142h-351l-57 -142h-160v50l276 650h238l275 -650v-50zM294 287h235l-105 265h-23z" />
    <glyph glyph-name="aogonek" unicode="&#x105;" horiz-adv-x="634" 
d="M573 0l-101 -82v-38l11 -11h77v-87h-128l-54 54v105l73 59h-5v41h-16l-49 -41h-248l-92 92v128l95 95h278v32l-29 30h-276v126h361l103 -103v-400zM414 157v56h-189l-25 -25v-50l18 -18h150z" />
    <glyph glyph-name="Cacute" unicode="&#x106;" horiz-adv-x="728" 
d="M374 746v13l56 137h134v-13l-79 -137h-111zM217 0l-146 146v408l146 146h467v-145h-383l-60 -60v-290l60 -60h383v-145h-467z" />
    <glyph glyph-name="cacute" unicode="&#x107;" horiz-adv-x="567" 
d="M276 560v13l64 165h130v-13l-93 -165h-101zM174 0l-118 118v267l118 118h346v-130h-264l-41 -41v-161l41 -41h264v-130h-346z" />
    <glyph glyph-name="Ccircumflex" unicode="&#x108;" horiz-adv-x="728" 
d="M244 746v30l115 112h145l113 -110v-32h-115l-63 64h-16l-64 -64h-115zM217 0l-146 146v408l146 146h467v-145h-383l-60 -60v-290l60 -60h383v-145h-467z" />
    <glyph glyph-name="ccircumflex" unicode="&#x109;" horiz-adv-x="567" 
d="M145 560v33l112 137h145l110 -136v-34h-109l-65 87h-19l-65 -87h-109zM174 0l-118 118v267l118 118h346v-130h-264l-41 -41v-161l41 -41h264v-130h-346z" />
    <glyph glyph-name="Cdotaccent" unicode="&#x10a;" horiz-adv-x="728" 
d="M350 762v118h163v-118h-163zM217 0l-146 146v408l146 146h467v-145h-383l-60 -60v-290l60 -60h383v-145h-467z" />
    <glyph glyph-name="cdotaccent" unicode="&#x10b;" horiz-adv-x="567" 
d="M247 582v118h163v-118h-163zM174 0l-118 118v267l118 118h346v-130h-264l-41 -41v-161l41 -41h264v-130h-346z" />
    <glyph glyph-name="Ccaron" unicode="&#x10c;" horiz-adv-x="728" 
d="M358 746l-114 112v30h116l63 -64h16l64 64h114v-32l-113 -110h-146zM217 0l-146 146v408l146 146h467v-145h-383l-60 -60v-290l60 -60h383v-145h-467z" />
    <glyph glyph-name="ccaron" unicode="&#x10d;" horiz-adv-x="567" 
d="M255 560l-110 136v34h109l65 -87h19l65 87h109v-33l-112 -137h-145zM174 0l-118 118v267l118 118h346v-130h-264l-41 -41v-161l41 -41h264v-130h-346z" />
    <glyph glyph-name="Dcaron" unicode="&#x10e;" horiz-adv-x="848" 
d="M353 746l-114 112v30h116l63 -64h16l64 64h114v-32l-113 -110h-146zM91 0v700h540l146 -146v-408l-146 -146h-540zM261 145h286l60 60v290l-60 60h-286v-410z" />
    <glyph glyph-name="dcaron" unicode="&#x10f;" horiz-adv-x="660" 
d="M625 550v13l9 167h124v-13l-36 -167h-97zM174 0l-118 118v267l118 118h256v197h159v-700h-127v44h-21l-53 -44h-214zM256 130h119l55 43v200h-174l-41 -41v-161z" />
    <glyph glyph-name="Dcroat" unicode="&#x110;" horiz-adv-x="861" 
d="M644 700l146 -146v-408l-146 -146h-540v302h-88v95h88v303h540zM620 205v290l-60 60h-286v-158h214v-95h-214v-157h286z" />
    <glyph glyph-name="dcroat" unicode="&#x111;" horiz-adv-x="669" 
d="M174 0l-118 118v255l118 118h256v60h-211v90h211v59h159v-59h85v-90h-85v-551h-127v44h-21l-53 -44h-214zM256 130h119l55 43v188h-174l-41 -41v-149z" />
    <glyph glyph-name="Emacron" unicode="&#x112;" horiz-adv-x="757" 
d="M239 772v96h320v-96h-320zM91 0v700h616v-145h-446v-135h336v-134h-336v-141h456v-145h-626z" />
    <glyph glyph-name="emacron" unicode="&#x113;" horiz-adv-x="648" 
d="M167 602v96h320v-96h-320zM174 0l-118 118v267l118 118h307l118 -118v-185h-384v-32l41 -41h305v-127h-387zM215 302h225v40l-41 41h-143l-41 -41v-40z" />
    <glyph glyph-name="Ebreve" unicode="&#x114;" horiz-adv-x="757" 
d="M284 746l-61 61v81h104v-39l12 -12h119l12 12v39h104v-81l-61 -61h-229zM91 0v700h616v-145h-446v-135h336v-134h-336v-141h456v-145h-626z" />
    <glyph glyph-name="ebreve" unicode="&#x115;" horiz-adv-x="648" 
d="M220 560l-61 61v99h102v-57l14 -14h104l14 14v57h102v-99l-61 -61h-214zM174 0l-118 118v267l118 118h307l118 -118v-185h-384v-32l41 -41h305v-127h-387zM215 302h225v40l-41 41h-143l-41 -41v-40z" />
    <glyph glyph-name="Edotaccent" unicode="&#x116;" horiz-adv-x="757" 
d="M318 762v118h163v-118h-163zM91 0v700h616v-145h-446v-135h336v-134h-336v-141h456v-145h-626z" />
    <glyph glyph-name="edotaccent" unicode="&#x117;" horiz-adv-x="648" 
d="M245 582v118h163v-118h-163zM174 0l-118 118v267l118 118h307l118 -118v-185h-384v-32l41 -41h305v-127h-387zM215 302h225v40l-41 41h-143l-41 -41v-40z" />
    <glyph glyph-name="Eogonek" unicode="&#x118;" horiz-adv-x="757" 
d="M717 0l-101 -82v-38l11 -11h77v-87h-128l-54 54v105l73 59h-504v700h616v-145h-446v-135h336v-134h-336v-141h456v-145z" />
    <glyph glyph-name="eogonek" unicode="&#x119;" horiz-adv-x="648" 
d="M599 200h-384v-32l41 -41h305v-127l-101 -82v-38l11 -11h77v-87h-128l-54 54v105l73 59h-265l-118 118v267l118 118h307l118 -118v-185zM215 342v-40h225v40l-41 41h-143z" />
    <glyph glyph-name="Ecaron" unicode="&#x11a;" horiz-adv-x="757" 
d="M326 746l-114 112v30h116l63 -64h16l64 64h114v-32l-113 -110h-146zM91 0v700h616v-145h-446v-135h336v-134h-336v-141h456v-145h-626z" />
    <glyph glyph-name="ecaron" unicode="&#x11b;" horiz-adv-x="648" 
d="M253 560l-110 136v34h109l65 -87h19l65 87h109v-33l-112 -137h-145zM174 0l-118 118v267l118 118h307l118 -118v-185h-384v-32l41 -41h305v-127h-387zM215 302h225v40l-41 41h-143l-41 -41v-40z" />
    <glyph glyph-name="Gcircumflex" unicode="&#x11c;" horiz-adv-x="842" 
d="M250 746v30l115 112h145l113 -110v-32h-115l-63 64h-16l-64 -64h-115zM217 0l-146 146v408l146 146h508v-145h-424l-60 -60v-290l60 -60h259l61 60v88h-225v128h393v-275l-146 -146h-426z" />
    <glyph glyph-name="gcircumflex" unicode="&#x11d;" horiz-adv-x="655" 
d="M163 560v33l112 137h145l110 -136v-34h-109l-65 87h-19l-65 -87h-109zM100 -200v128h308l22 23v81h-11l-37 -32h-208l-118 118v267l118 118h415v-603l-100 -100h-389zM256 130h122l52 43v200h-174l-41 -41v-161z" />
    <glyph glyph-name="Gbreve" unicode="&#x11e;" horiz-adv-x="842" 
d="M322 746l-61 61v81h104v-39l12 -12h119l12 12v39h104v-81l-61 -61h-229zM217 0l-146 146v408l146 146h508v-145h-424l-60 -60v-290l60 -60h259l61 60v88h-225v128h393v-275l-146 -146h-426z" />
    <glyph glyph-name="gbreve" unicode="&#x11f;" horiz-adv-x="655" 
d="M240 560l-61 61v99h102v-57l14 -14h104l14 14v57h102v-99l-61 -61h-214zM100 -200v128h308l22 23v81h-11l-37 -32h-208l-118 118v267l118 118h415v-603l-100 -100h-389zM256 130h122l52 43v200h-174l-41 -41v-161z" />
    <glyph glyph-name="Gdotaccent" unicode="&#x120;" horiz-adv-x="842" 
d="M356 762v118h163v-118h-163zM217 0l-146 146v408l146 146h508v-145h-424l-60 -60v-290l60 -60h259l61 60v88h-225v128h393v-275l-146 -146h-426z" />
    <glyph glyph-name="gdotaccent" unicode="&#x121;" horiz-adv-x="655" 
d="M265 582v118h163v-118h-163zM100 -200v128h308l22 23v81h-11l-37 -32h-208l-118 118v267l118 118h415v-603l-100 -100h-389zM256 130h122l52 43v200h-174l-41 -41v-161z" />
    <glyph glyph-name="uni0122" unicode="&#x122;" horiz-adv-x="842" 
d="M217 0l-146 146v408l146 146h508v-145h-424l-60 -60v-290l60 -60h259l61 60v88h-225v128h393v-275l-146 -146h-426zM387 -254l24 103h-47v119h137v-106l-46 -116h-68z" />
    <glyph glyph-name="uni0123" unicode="&#x123;" horiz-adv-x="655" 
d="M278 554v106l40 122h68l-19 -109h48v-119h-137zM100 -200v128h308l22 23v81h-11l-37 -32h-208l-118 118v267l118 118h415v-603l-100 -100h-389zM256 130h122l52 43v200h-174l-41 -41v-161z" />
    <glyph glyph-name="Hcircumflex" unicode="&#x124;" horiz-adv-x="858" 
d="M243 746v30l115 112h145l113 -110v-32h-115l-63 64h-16l-64 -64h-115zM91 0v700h170v-275h336v275h170v-700h-170v277h-336v-277h-170z" />
    <glyph glyph-name="hcircumflex" unicode="&#x125;" horiz-adv-x="661" 
d="M-36 746v30l115 112h145l113 -110v-32h-115l-63 64h-16l-64 -64h-115zM71 0v700h159v-227h10l37 30h212l111 -111v-392h-159v339l-34 34h-126l-51 -41v-332h-159z" />
    <glyph glyph-name="Hbar" unicode="&#x126;" horiz-adv-x="888" 
d="M854 610v-95h-72v-515h-170v277h-336v-277h-170v515h-72v95h72v90h170v-90h336v90h170v-90h72zM612 425v90h-336v-90h336z" />
    <glyph glyph-name="hbar" unicode="&#x127;" horiz-adv-x="670" 
d="M80 0v551h-85v90h85v59h159v-59h211v-90h-211v-91h10l37 31h212l111 -111v-380h-159v327l-34 34h-126l-51 -42v-319h-159z" />
    <glyph glyph-name="Imacron" unicode="&#x12a;" horiz-adv-x="552" 
d="M116 772v96h320v-96h-320zM51 0v133h140v434h-140v133h450v-133h-140v-434h140v-133h-450z" />
    <glyph glyph-name="imacron" unicode="&#x12b;" horiz-adv-x="291" 
d="M-15 602v96h320v-96h-320zM66 0v503h159v-503h-159z" />
    <glyph glyph-name="Ibreve" unicode="&#x12c;" horiz-adv-x="552" 
d="M162 746l-61 61v81h104v-39l12 -12h119l12 12v39h104v-81l-61 -61h-229zM51 0v133h140v434h-140v133h450v-133h-140v-434h140v-133h-450z" />
    <glyph glyph-name="ibreve" unicode="&#x12d;" horiz-adv-x="291" 
d="M39 560l-61 61v99h102v-57l14 -14h104l14 14v57h102v-99l-61 -61h-214zM66 0v503h159v-503h-159z" />
    <glyph glyph-name="Iogonek" unicode="&#x12e;" horiz-adv-x="552" 
d="M501 567h-140v-434h140v-133h-161l-101 -82v-38l11 -11h77v-87h-128l-54 54v105l73 59h-167v133h140v434h-140v133h450v-133z" />
    <glyph glyph-name="iogonek" unicode="&#x12f;" horiz-adv-x="291" 
d="M64 700h163v-118h-163v118zM66 0v503h159v-503l-101 -82v-38l11 -11h77v-87h-128l-54 54v105l73 59h-37z" />
    <glyph glyph-name="Idotaccent" unicode="&#x130;" horiz-adv-x="552" 
d="M195 762v118h163v-118h-163zM51 0v133h140v434h-140v133h450v-133h-140v-434h140v-133h-450z" />
    <glyph glyph-name="dotlessi" unicode="&#x131;" horiz-adv-x="291" 
d="M66 0v503h159v-503h-159z" />
    <glyph glyph-name="IJ" unicode="&#x132;" horiz-adv-x="1149" 
d="M51 0v133h140v434h-140v133h450v-133h-140v-434h140v-133h-450zM585 0v148h259l54 54v353h-274v145h444v-557l-143 -143h-340z" />
    <glyph glyph-name="ij" unicode="&#x133;" horiz-adv-x="582" 
d="M64 582v118h163v-118h-163zM355 582v118h163v-118h-163zM66 -200v128h274l17 17v558h159v-611l-92 -92h-358zM66 0v503h159v-503h-159z" />
    <glyph glyph-name="Jcircumflex" unicode="&#x134;" horiz-adv-x="597" 
d="M108 746v30l115 112h145l113 -110v-32h-115l-63 64h-16l-64 -64h-115zM33 0v148h259l54 54v353h-274v145h444v-557l-143 -143h-340z" />
    <glyph glyph-name="jcircumflex" unicode="&#x135;" horiz-adv-x="291" 
d="M-38 560v33l112 137h145l110 -136v-34h-109l-65 87h-19l-65 -87h-109zM-86 -200v130h139l13 13v560h159v-611l-92 -92h-219z" />
    <glyph glyph-name="uni0136" unicode="&#x136;" horiz-adv-x="789" 
d="M91 0v700h170v-272h124l195 272h168v-52l-219 -290l239 -306v-52h-174l-206 280h-127v-280h-170zM381 -254l24 103h-47v119h137v-106l-46 -116h-68z" />
    <glyph glyph-name="uni0137" unicode="&#x137;" horiz-adv-x="638" 
d="M71 0v700h159v-377h86l133 180h153v-42l-150 -196l170 -223v-42h-161l-145 193h-86v-193h-159zM299 -254l24 103h-47v119h137v-106l-46 -116h-68z" />
    <glyph glyph-name="Lacute" unicode="&#x139;" horiz-adv-x="660" 
d="M120 746v13l56 137h134v-13l-79 -137h-111zM91 0v700h170v-552h382v-148h-552z" />
    <glyph glyph-name="lacute" unicode="&#x13a;" horiz-adv-x="319" 
d="M61 746v13l56 137h134v-13l-79 -137h-111zM89 0v578h-100v122h259v-700h-159z" />
    <glyph glyph-name="uni013B" unicode="&#x13b;" horiz-adv-x="660" 
d="M91 0v700h170v-552h382v-148h-552zM321 -254l24 103h-47v119h137v-106l-46 -116h-68z" />
    <glyph glyph-name="uni013C" unicode="&#x13c;" horiz-adv-x="319" 
d="M89 0v578h-100v122h259v-700h-159zM123 -254l24 103h-47v119h137v-106l-46 -116h-68z" />
    <glyph glyph-name="Lcaron" unicode="&#x13d;" horiz-adv-x="660" 
d="M297 550v13l9 167h124v-13l-36 -167h-97zM91 0v700h170v-552h382v-148h-552z" />
    <glyph glyph-name="lcaron" unicode="&#x13e;" horiz-adv-x="319" 
d="M284 550v13l9 167h124v-13l-36 -167h-97zM89 0v578h-100v122h259v-700h-159z" />
    <glyph glyph-name="Ldot" unicode="&#x13f;" horiz-adv-x="660" 
d="M91 0v700h170v-552h382v-148h-552zM423 343v148h166v-148h-166z" />
    <glyph glyph-name="ldot" unicode="&#x140;" horiz-adv-x="491" 
d="M89 0v578h-100v122h259v-700h-159zM331 271v148h166v-148h-166z" />
    <glyph glyph-name="Lslash" unicode="&#x141;" horiz-adv-x="679" 
d="M280 148h382v-148h-552v230l-59 -33h-37v113l96 54v336h170v-240l190 107h37v-113l-227 -128v-178z" />
    <glyph glyph-name="lslash" unicode="&#x142;" horiz-adv-x="358" 
d="M373 501v-87l-110 -69v-345h-159v246l-81 -51h-29v87l110 69v227h-100v122h259v-250l81 51h29z" />
    <glyph glyph-name="Nacute" unicode="&#x143;" horiz-adv-x="888" 
d="M387 746v13l56 137h134v-13l-79 -137h-111zM91 0v700h260l267 -518h17v518h162v-700h-260l-267 518h-17v-518h-162z" />
    <glyph glyph-name="nacute" unicode="&#x144;" horiz-adv-x="656" 
d="M279 560v13l64 165h130v-13l-93 -165h-101zM66 0v503h127v-40h19l47 40h225l111 -111v-392h-159v339l-34 34h-130l-47 -38v-335h-159z" />
    <glyph glyph-name="uni0145" unicode="&#x145;" horiz-adv-x="888" 
d="M91 0v700h260l267 -518h17v518h162v-700h-260l-267 518h-17v-518h-162zM399 -254l24 103h-47v119h137v-106l-46 -116h-68z" />
    <glyph glyph-name="uni0146" unicode="&#x146;" horiz-adv-x="656" 
d="M66 0v503h127v-40h19l47 40h225l111 -111v-392h-159v339l-34 34h-130l-47 -38v-335h-159zM285 -254l24 103h-47v119h137v-106l-46 -116h-68z" />
    <glyph glyph-name="Ncaron" unicode="&#x147;" horiz-adv-x="888" 
d="M372 746l-114 112v30h116l63 -64h16l64 64h114v-32l-113 -110h-146zM91 0v700h260l267 -518h17v518h162v-700h-260l-267 518h-17v-518h-162z" />
    <glyph glyph-name="ncaron" unicode="&#x148;" horiz-adv-x="656" 
d="M258 560l-110 136v34h109l65 -87h19l65 87h109v-33l-112 -137h-145zM66 0v503h127v-40h19l47 40h225l111 -111v-392h-159v339l-34 34h-130l-47 -38v-335h-159z" />
    <glyph glyph-name="Eng" unicode="&#x14a;" horiz-adv-x="888" 
d="M389 -200v128h220l26 26v46h-98l-267 518h-17v-518h-162v700h260l267 -518h17v518h162v-789l-111 -111h-297z" />
    <glyph glyph-name="eng" unicode="&#x14b;" horiz-adv-x="656" 
d="M484 503l111 -111v-500l-92 -92h-201v130h121l13 13v396l-34 34h-130l-47 -38v-335h-159v503h127v-40h19l47 40h225z" />
    <glyph glyph-name="Omacron" unicode="&#x14c;" horiz-adv-x="860" 
d="M270 772v96h320v-96h-320zM217 0l-146 146v408l146 146h426l146 -146v-408l-146 -146h-426zM301 145h258l60 60v290l-60 60h-258l-60 -60v-290z" />
    <glyph glyph-name="omacron" unicode="&#x14d;" horiz-adv-x="659" 
d="M169 602v96h320v-96h-320zM174 0l-118 118v267l118 118h311l118 -118v-267l-118 -118h-311zM256 130h147l41 41v161l-41 41h-147l-41 -41v-161z" />
    <glyph glyph-name="Obreve" unicode="&#x14e;" horiz-adv-x="860" 
d="M315 746l-61 61v81h104v-39l12 -12h119l12 12v39h104v-81l-61 -61h-229zM217 0l-146 146v408l146 146h426l146 -146v-408l-146 -146h-426zM301 145h258l60 60v290l-60 60h-258l-60 -60v-290z" />
    <glyph glyph-name="obreve" unicode="&#x14f;" horiz-adv-x="659" 
d="M223 560l-61 61v99h102v-57l14 -14h104l14 14v57h102v-99l-61 -61h-214zM174 0l-118 118v267l118 118h311l118 -118v-267l-118 -118h-311zM256 130h147l41 41v161l-41 41h-147l-41 -41v-161z" />
    <glyph glyph-name="Ohungarumlaut" unicode="&#x150;" horiz-adv-x="860" 
d="M287 746v13l43 137h128v-13l-64 -137h-107zM460 746v13l50 137h127v-13l-70 -137h-107zM217 0l-146 146v408l146 146h426l146 -146v-408l-146 -146h-426zM301 145h258l60 60v290l-60 60h-258l-60 -60v-290z" />
    <glyph glyph-name="ohungarumlaut" unicode="&#x151;" horiz-adv-x="659" 
d="M190 560v13l52 165h123v-13l-76 -165h-99zM366 560v13l56 165h123v-13l-80 -165h-99zM174 0l-118 118v267l118 118h311l118 -118v-267l-118 -118h-311zM256 130h147l41 41v161l-41 41h-147l-41 -41v-161z" />
    <glyph glyph-name="OE" unicode="&#x152;" horiz-adv-x="1190" 
d="M217 0l-146 146v408l146 146h923v-145h-418v-137h305v-130h-305v-143h428v-145h-933zM301 145h257v410h-257l-60 -60v-290z" />
    <glyph glyph-name="oe" unicode="&#x153;" horiz-adv-x="998" 
d="M174 0l-118 118v267l118 118h281l52 -51l51 51h273l118 -118v-185h-366v-35l38 -38h288v-127h-350l-52 52l-52 -52h-281zM583 302h207v42l-39 39h-129l-39 -39v-42zM256 130h133l41 41v161l-41 41h-133l-41 -41v-161z" />
    <glyph glyph-name="Racute" unicode="&#x154;" horiz-adv-x="828" 
d="M357 746v13l56 137h134v-13l-79 -137h-111zM91 0v700h529l130 -130v-214l-116 -116l137 -190v-50h-166l-155 220h-189v-220h-170zM261 359h269l50 50v102l-50 50h-269v-202z" />
    <glyph glyph-name="racute" unicode="&#x155;" horiz-adv-x="439" 
d="M202 560v13l64 165h130v-13l-93 -165h-101zM66 0v503h127v-40h19l47 40h184v-130h-171l-47 -38v-335h-159z" />
    <glyph glyph-name="uni0156" unicode="&#x156;" horiz-adv-x="828" 
d="M91 0v700h529l130 -130v-214l-116 -116l137 -190v-50h-166l-155 220h-189v-220h-170zM261 359h269l50 50v102l-50 50h-269v-202zM386 -254l24 103h-47v119h137v-106l-46 -116h-68z" />
    <glyph glyph-name="uni0157" unicode="&#x157;" horiz-adv-x="439" 
d="M66 0v503h127v-40h19l47 40h184v-130h-171l-47 -38v-335h-159zM100 -254l24 103h-47v119h137v-106l-46 -116h-68z" />
    <glyph glyph-name="Rcaron" unicode="&#x158;" horiz-adv-x="828" 
d="M342 746l-114 112v30h116l63 -64h16l64 64h114v-32l-113 -110h-146zM91 0v700h529l130 -130v-214l-116 -116l137 -190v-50h-166l-155 220h-189v-220h-170zM261 359h269l50 50v102l-50 50h-269v-202z" />
    <glyph glyph-name="rcaron" unicode="&#x159;" horiz-adv-x="439" 
d="M181 560l-110 136v34h109l65 -87h19l65 87h109v-33l-112 -137h-145zM66 0v503h127v-40h19l47 40h184v-130h-171l-47 -38v-335h-159z" />
    <glyph glyph-name="Sacute" unicode="&#x15a;" horiz-adv-x="750" 
d="M330 746v13l56 137h134v-13l-79 -137h-111zM69 0v145h437l33 33v67l-35 35h-324l-124 124v177l119 119h499v-145h-415l-33 -33v-63l35 -34h324l124 -124v-182l-119 -119h-521z" />
    <glyph glyph-name="sacute" unicode="&#x15b;" horiz-adv-x="598" 
d="M253 560v13l64 165h130v-13l-93 -165h-101zM59 0v120h321l18 18v35l-18 19h-237l-92 91v129l92 91h386v-120h-301l-18 -18v-35l18 -18h237l92 -92v-128l-92 -92h-406z" />
    <glyph glyph-name="Scircumflex" unicode="&#x15c;" horiz-adv-x="750" 
d="M200 746v30l115 112h145l113 -110v-32h-115l-63 64h-16l-64 -64h-115zM69 0v145h437l33 33v67l-35 35h-324l-124 124v177l119 119h499v-145h-415l-33 -33v-63l35 -34h324l124 -124v-182l-119 -119h-521z" />
    <glyph glyph-name="scircumflex" unicode="&#x15d;" horiz-adv-x="598" 
d="M122 560v33l112 137h145l110 -136v-34h-109l-65 87h-19l-65 -87h-109zM59 0v120h321l18 18v35l-18 19h-237l-92 91v129l92 91h386v-120h-301l-18 -18v-35l18 -18h237l92 -92v-128l-92 -92h-406z" />
    <glyph glyph-name="Scedilla" unicode="&#x15e;" horiz-adv-x="750" 
d="M585 425l124 -124v-182l-119 -119h-181l-7 -23v-9h49l56 -56v-74l-56 -56h-180v78h132l10 10v16l-10 10h-102v36l20 68h-252v145h437l33 33v67l-35 35h-324l-124 124v177l119 119h499v-145h-415l-33 -33v-63l35 -34h324z" />
    <glyph glyph-name="scedilla" unicode="&#x15f;" horiz-adv-x="598" 
d="M465 312l92 -92v-128l-92 -92h-126l-7 -23v-9h49l56 -56v-74l-56 -56h-180v78h132l10 10v16l-10 10h-102v36l20 68h-192v120h321l18 18v35l-18 19h-237l-92 91v129l92 91h386v-120h-301l-18 -18v-35l18 -18h237z" />
    <glyph glyph-name="Scaron" unicode="&#x160;" horiz-adv-x="750" 
d="M314 746l-114 112v30h116l63 -64h16l64 64h114v-32l-113 -110h-146zM69 0v145h437l33 33v67l-35 35h-324l-124 124v177l119 119h499v-145h-415l-33 -33v-63l35 -34h324l124 -124v-182l-119 -119h-521z" />
    <glyph glyph-name="scaron" unicode="&#x161;" horiz-adv-x="598" 
d="M232 560l-110 136v34h109l65 -87h19l65 87h109v-33l-112 -137h-145zM59 0v120h321l18 18v35l-18 19h-237l-92 91v129l92 91h386v-120h-301l-18 -18v-35l18 -18h237l92 -92v-128l-92 -92h-406z" />
    <glyph glyph-name="uni0162" unicode="&#x162;" horiz-adv-x="716" 
d="M402 0l-7 -23v-9h49l56 -56v-74l-56 -56h-180v78h132l10 10v16l-10 10h-102v36l20 68h-41v555h-263v145h696v-145h-263v-555h-41z" />
    <glyph glyph-name="uni0163" unicode="&#x163;" horiz-adv-x="478" 
d="M331 0l-7 -23v-9h49l56 -56v-74l-56 -56h-180v78h132l10 10v16l-10 10h-102v36l20 68h-36l-92 92v288h-100v123h100v134h159v-134h171v-123h-171v-237l13 -13h166v-130h-122z" />
    <glyph glyph-name="Tcaron" unicode="&#x164;" horiz-adv-x="716" 
d="M286 746l-114 112v30h116l63 -64h16l64 64h114v-32l-113 -110h-146zM273 0v555h-263v145h696v-145h-263v-555h-170z" />
    <glyph glyph-name="tcaron" unicode="&#x165;" horiz-adv-x="478" 
d="M310 550v13l9 167h124v-13l-36 -167h-97zM207 0l-92 92v288h-100v123h100v134h159v-134h171v-123h-171v-237l13 -13h166v-130h-246z" />
    <glyph glyph-name="Tbar" unicode="&#x166;" horiz-adv-x="716" 
d="M706 555h-263v-187h168v-94h-168v-274h-170v274h-168v94h168v187h-263v145h696v-145z" />
    <glyph glyph-name="tbar" unicode="&#x167;" horiz-adv-x="478" 
d="M287 130h166v-130h-246l-92 92v126h-72v87h72v75h-100v123h100v134h159v-134h171v-123h-171v-75h146v-87h-146v-75z" />
    <glyph glyph-name="Umacron" unicode="&#x16a;" horiz-adv-x="818" 
d="M249 772v96h320v-96h-320zM233 0l-152 152v548h170v-489l63 -63h190l63 63v489h170v-548l-152 -152h-352z" />
    <glyph glyph-name="umacron" unicode="&#x16b;" horiz-adv-x="641" 
d="M158 602v96h320v-96h-320zM172 0l-111 111v392h159v-339l34 -34h115l47 38v335h159v-503h-127v40h-19l-47 -40h-210z" />
    <glyph glyph-name="Ubreve" unicode="&#x16c;" horiz-adv-x="818" 
d="M295 746l-61 61v81h104v-39l12 -12h119l12 12v39h104v-81l-61 -61h-229zM233 0l-152 152v548h170v-489l63 -63h190l63 63v489h170v-548l-152 -152h-352z" />
    <glyph glyph-name="ubreve" unicode="&#x16d;" horiz-adv-x="641" 
d="M211 560l-61 61v99h102v-57l14 -14h104l14 14v57h102v-99l-61 -61h-214zM172 0l-111 111v392h159v-339l34 -34h115l47 38v335h159v-503h-127v40h-19l-47 -40h-210z" />
    <glyph glyph-name="Uring" unicode="&#x16e;" horiz-adv-x="818" 
d="M329 725l-61 61v103l61 61h160l61 -61v-103l-61 -61h-160zM371 803h76l14 14v41l-14 14h-76l-14 -14v-41zM233 0l-152 152v548h170v-489l63 -63h190l63 63v489h170v-548l-152 -152h-352z" />
    <glyph glyph-name="uring" unicode="&#x16f;" horiz-adv-x="641" 
d="M241 547l-61 61v114l61 61h154l61 -61v-114l-61 -61h-154zM283 625h70l14 14v52l-14 14h-70l-14 -14v-52zM172 0l-111 111v392h159v-339l34 -34h115l47 38v335h159v-503h-127v40h-19l-47 -40h-210z" />
    <glyph glyph-name="Uhungarumlaut" unicode="&#x170;" horiz-adv-x="818" 
d="M267 746v13l43 137h128v-13l-64 -137h-107zM440 746v13l50 137h127v-13l-70 -137h-107zM233 0l-152 152v548h170v-489l63 -63h190l63 63v489h170v-548l-152 -152h-352z" />
    <glyph glyph-name="uhungarumlaut" unicode="&#x171;" horiz-adv-x="641" 
d="M178 560v13l52 165h123v-13l-76 -165h-99zM354 560v13l56 165h123v-13l-80 -165h-99zM172 0l-111 111v392h159v-339l34 -34h115l47 38v335h159v-503h-127v40h-19l-47 -40h-210z" />
    <glyph glyph-name="Uogonek" unicode="&#x172;" horiz-adv-x="818" 
d="M513 -72v-48l11 -11h68v-87h-119l-54 54v104l60 60h-246l-152 152v548h170v-489l63 -63h190l63 63v489h170v-548z" />
    <glyph glyph-name="uogonek" unicode="&#x173;" horiz-adv-x="641" 
d="M575 0l-101 -82v-38l11 -11h77v-87h-128l-54 54v105l73 59h-5v40h-19l-47 -40h-210l-111 111v392h159v-339l34 -34h115l47 38v335h159v-503z" />
    <glyph glyph-name="Wcircumflex" unicode="&#x174;" horiz-adv-x="1109" 
d="M358 746v30l115 112h145l113 -110v-32h-115l-63 64h-16l-64 -64h-115zM217 0l-193 650v50h159l159 -543h26l114 351l-42 142v50h156l152 -543h26l155 543h156v-50l-190 -650h-246l-84 279h-18l-87 -279h-243z" />
    <glyph glyph-name="wcircumflex" unicode="&#x175;" horiz-adv-x="860" 
d="M235 560v33l112 137h145l110 -136v-34h-109l-65 87h-19l-65 -87h-109zM163 0l-148 461v42h147l107 -360h18l78 234l-23 84v42h144l89 -360h18l108 360h144v-42l-147 -461h-204l-54 190h-18l-60 -190h-199z" />
    <glyph glyph-name="Ycircumflex" unicode="&#x176;" horiz-adv-x="746" 
d="M190 746v30l115 112h145l113 -110v-32h-115l-63 64h-16l-64 -64h-115zM288 0v221l-277 429v50h162l193 -308h23l194 308h152v-50l-277 -429v-221h-170z" />
    <glyph glyph-name="ycircumflex" unicode="&#x177;" horiz-adv-x="638" 
d="M134 560v33l112 137h145l110 -136v-34h-109l-65 87h-19l-65 -87h-109zM92 -200v125h295l26 26v77h-10l-33 -28h-198l-111 111v392h159v-339l34 -34h112l47 38v335h159v-603l-100 -100h-380z" />
    <glyph glyph-name="Ydieresis" unicode="&#x178;" horiz-adv-x="746" 
d="M203 762v118h142v-118h-142zM407 762v118h142v-118h-142zM288 0v221l-277 429v50h162l193 -308h23l194 308h152v-50l-277 -429v-221h-170z" />
    <glyph glyph-name="Zacute" unicode="&#x179;" horiz-adv-x="718" 
d="M308 746v13l56 137h134v-13l-79 -137h-111zM42 0v195l421 332v28h-409v145h619v-195l-421 -332v-28h424v-145h-634z" />
    <glyph glyph-name="zacute" unicode="&#x17a;" horiz-adv-x="561" 
d="M239 560v13l64 165h130v-13l-93 -165h-101zM39 0v167l288 194v19h-278v123h470v-167l-288 -194v-19h298v-123h-490z" />
    <glyph glyph-name="Zdotaccent" unicode="&#x17b;" horiz-adv-x="718" 
d="M284 762v118h163v-118h-163zM42 0v195l421 332v28h-409v145h619v-195l-421 -332v-28h424v-145h-634z" />
    <glyph glyph-name="zdotaccent" unicode="&#x17c;" horiz-adv-x="561" 
d="M210 582v118h163v-118h-163zM39 0v167l288 194v19h-278v123h470v-167l-288 -194v-19h298v-123h-490z" />
    <glyph glyph-name="Zcaron" unicode="&#x17d;" horiz-adv-x="718" 
d="M293 746l-114 112v30h116l63 -64h16l64 64h114v-32l-113 -110h-146zM42 0v195l421 332v28h-409v145h619v-195l-421 -332v-28h424v-145h-634z" />
    <glyph glyph-name="zcaron" unicode="&#x17e;" horiz-adv-x="561" 
d="M218 560l-110 136v34h109l65 -87h19l65 87h109v-33l-112 -137h-145zM39 0v167l288 194v19h-278v123h470v-167l-288 -194v-19h298v-123h-490z" />
    <glyph glyph-name="uni018F" unicode="&#x18f;" horiz-adv-x="858" 
d="M215 0l-146 146v280h548v69l-60 60h-424v145h508l146 -146v-408l-146 -146h-426zM299 145h258l60 60v91h-378v-91z" />
    <glyph glyph-name="florin" unicode="&#x192;" horiz-adv-x="537" 
d="M401 564l-12 -12l-19 -102h136v-100h-156l-88 -463l-87 -87h-221v136h139l12 12l76 402h-95v100h114l31 163l88 87h221v-136h-139z" />
    <glyph glyph-name="uni01F4" unicode="&#x1f4;" horiz-adv-x="842" 
d="M380 746v13l56 137h134v-13l-79 -137h-111zM217 0l-146 146v408l146 146h508v-145h-424l-60 -60v-290l60 -60h259l61 60v88h-225v128h393v-275l-146 -146h-426z" />
    <glyph glyph-name="uni01F5" unicode="&#x1f5;" horiz-adv-x="655" 
d="M294 560v13l64 165h130v-13l-93 -165h-101zM100 -200v128h308l22 23v81h-11l-37 -32h-208l-118 118v267l118 118h415v-603l-100 -100h-389zM256 130h122l52 43v200h-174l-41 -41v-161z" />
    <glyph glyph-name="uni0218" unicode="&#x218;" horiz-adv-x="750" 
d="M69 0v145h437l33 33v67l-35 35h-324l-124 124v177l119 119h499v-145h-415l-33 -33v-63l35 -34h324l124 -124v-182l-119 -119h-521zM320 -254l24 103h-47v119h137v-106l-46 -116h-68z" />
    <glyph glyph-name="uni0219" unicode="&#x219;" horiz-adv-x="598" 
d="M59 0v120h321l18 18v35l-18 19h-237l-92 91v129l92 91h386v-120h-301l-18 -18v-35l18 -18h237l92 -92v-128l-92 -92h-406zM249 -254l24 103h-47v119h137v-106l-46 -116h-68z" />
    <glyph glyph-name="uni021A" unicode="&#x21a;" horiz-adv-x="716" 
d="M273 0v555h-263v145h696v-145h-263v-555h-170zM313 -254l24 103h-47v119h137v-106l-46 -116h-68z" />
    <glyph glyph-name="uni021B" unicode="&#x21b;" horiz-adv-x="478" 
d="M207 0l-92 92v288h-100v123h100v134h159v-134h171v-123h-171v-237l13 -13h166v-130h-246zM242 -254l24 103h-47v119h137v-106l-46 -116h-68z" />
    <glyph glyph-name="uni0232" unicode="&#x232;" horiz-adv-x="746" 
d="M216 772v96h320v-96h-320zM288 0v221l-277 429v50h162l193 -308h23l194 308h152v-50l-277 -429v-221h-170z" />
    <glyph glyph-name="uni0233" unicode="&#x233;" horiz-adv-x="638" 
d="M157 602v96h320v-96h-320zM92 -200v125h295l26 26v77h-10l-33 -28h-198l-111 111v392h159v-339l34 -34h112l47 38v335h159v-603l-100 -100h-380z" />
    <glyph glyph-name="uni0237" unicode="&#x237;" horiz-adv-x="291" 
d="M-86 -200v130h139l13 13v560h159v-611l-92 -92h-219z" />
    <glyph glyph-name="uni0244" unicode="&#x244;" horiz-adv-x="848" 
d="M824 470v-95h-72v-223l-152 -152h-352l-152 152v223h-72v95h72v230h170v-230h316v230h170v-230h72zM582 211v164h-316v-164l63 -63h190z" />
    <glyph glyph-name="uni0259" unicode="&#x259;" horiz-adv-x="648" 
d="M167 0l-118 118v187h384v31l-40 41h-306v126h387l118 -118v-267l-118 -118h-307zM249 120h143l41 41v39h-225v-39z" />
    <glyph glyph-name="uni0289" unicode="&#x289;" horiz-adv-x="683" 
d="M671 359v-87h-75v-272h-127v40h-19l-47 -40h-210l-111 111v161h-75v87h75v144h159v-144h196v144h159v-144h75zM437 168v104h-196v-108l34 -34h115z" />
    <glyph glyph-name="uni02BC" unicode="&#x2bc;" horiz-adv-x="282" 
d="M76 386l34 156h-53v158h168v-135l-64 -179h-85z" />
    <glyph glyph-name="circumflex" unicode="&#x2c6;" horiz-adv-x="428" 
d="M30 560v33l112 137h145l110 -136v-34h-109l-65 87h-19l-65 -87h-109z" />
    <glyph glyph-name="caron" unicode="&#x2c7;" horiz-adv-x="428" 
d="M140 560l-110 136v34h109l65 -87h19l65 87h109v-33l-112 -137h-145z" />
    <glyph glyph-name="breve" unicode="&#x2d8;" horiz-adv-x="396" 
d="M91 560l-61 61v99h102v-57l14 -14h104l14 14v57h102v-99l-61 -61h-214z" />
    <glyph glyph-name="dotaccent" unicode="&#x2d9;" horiz-adv-x="223" 
d="M30 582v118h163v-118h-163z" />
    <glyph glyph-name="ring" unicode="&#x2da;" horiz-adv-x="336" 
d="M91 547l-61 61v114l61 61h154l61 -61v-114l-61 -61h-154zM133 625h70l14 14v52l-14 14h-70l-14 -14v-52z" />
    <glyph glyph-name="ogonek" unicode="&#x2db;" horiz-adv-x="255" 
d="M84 -218l-54 54v105l130 105l65 -46l-101 -82v-38l11 -11h77v-87h-128z" />
    <glyph glyph-name="tilde" unicode="&#x2dc;" horiz-adv-x="437" 
d="M30 565v95l55 55h125l53 -61h33l9 9v52h102v-95l-55 -55h-125l-53 61h-33l-9 -9v-52h-102z" />
    <glyph glyph-name="hungarumlaut" unicode="&#x2dd;" horiz-adv-x="415" 
d="M30 560v13l52 165h123v-13l-76 -165h-99zM206 560v13l56 165h123v-13l-80 -165h-99z" />
    <glyph glyph-name="gravecomb" unicode="&#x300;" 
d="M-131 560l-93 165v13h130l64 -165v-13h-101z" />
    <glyph glyph-name="acutecomb" unicode="&#x301;" 
d="M-224 560v13l64 165h130v-13l-93 -165h-101z" />
    <glyph glyph-name="uni0302" unicode="&#x302;" 
d="M-398 560v33l112 137h145l110 -136v-34h-109l-65 87h-19l-65 -87h-109z" />
    <glyph glyph-name="tildecomb" unicode="&#x303;" 
d="M-407 565v95l55 55h125l53 -61h33l9 9v52h102v-95l-55 -55h-125l-53 61h-33l-9 -9v-52h-102z" />
    <glyph glyph-name="uni0304" unicode="&#x304;" 
d="M-350 602v96h320v-96h-320z" />
    <glyph glyph-name="uni0306" unicode="&#x306;" 
d="M-305 560l-61 61v99h102v-57l14 -14h104l14 14v57h102v-99l-61 -61h-214z" />
    <glyph glyph-name="uni0307" unicode="&#x307;" 
d="M-193 582v118h163v-118h-163z" />
    <glyph glyph-name="uni0308" unicode="&#x308;" 
d="M-376 592v118h142v-118h-142zM-172 592v118h142v-118h-142z" />
    <glyph glyph-name="uni030A" unicode="&#x30a;" 
d="M-245 547l-61 61v114l61 61h154l61 -61v-114l-61 -61h-154zM-203 625h70l14 14v52l-14 14h-70l-14 -14v-52z" />
    <glyph glyph-name="uni030B" unicode="&#x30b;" 
d="M-385 560v13l52 165h123v-13l-76 -165h-99zM-209 560v13l56 165h123v-13l-80 -165h-99z" />
    <glyph glyph-name="uni030C" unicode="&#x30c;" 
d="M-288 560l-110 136v34h109l65 -87h19l65 87h109v-33l-112 -137h-145z" />
    <glyph glyph-name="uni0312" unicode="&#x312;" 
d="M-167 554v106l40 122h68l-19 -109h48v-119h-137z" />
    <glyph glyph-name="uni0326" unicode="&#x326;" 
d="M-144 -254l24 103h-47v119h137v-106l-46 -116h-68z" />
    <glyph glyph-name="uni0327" unicode="&#x327;" 
d="M-260 -218v78h132l10 10v16l-10 10h-102v36l21 71l88 6v-6l-8 -26v-9h49l56 -56v-74l-56 -56h-180z" />
    <glyph glyph-name="uni0328" unicode="&#x328;" 
d="M-171 -218l-54 54v105l130 105l65 -46l-101 -82v-38l11 -11h77v-87h-128z" />
    <glyph glyph-name="uni03A9" unicode="&#x3a9;" horiz-adv-x="908" 
d="M101 0v116h108v13l-108 98v327l146 146h414l146 -146v-327l-108 -98v-13h108v-116h-292v141l128 124v236l-63 63h-252l-63 -63v-236l128 -124v-141h-292z" />
    <glyph glyph-name="uni0400" unicode="&#x400;" horiz-adv-x="757" 
d="M345 746l-79 137v13h134l56 -137v-13h-111zM91 0v700h616v-145h-446v-135h336v-134h-336v-141h456v-145h-626z" />
    <glyph glyph-name="uni0401" unicode="&#x401;" horiz-adv-x="757" 
d="M226 762v118h142v-118h-142zM430 762v118h142v-118h-142zM91 0v700h616v-145h-446v-135h336v-134h-336v-141h456v-145h-626z" />
    <glyph glyph-name="uni0402" unicode="&#x402;" horiz-adv-x="954" 
d="M573 -10v136h110l43 43v95l-41 41h-276v-305h-170v555h-229v145h696v-145h-297v-105h369l118 -118v-224l-118 -118h-205z" />
    <glyph glyph-name="uni0403" unicode="&#x403;" horiz-adv-x="669" 
d="M318 746v13l56 137h134v-13l-79 -137h-111zM91 0v700h568v-145h-398v-555h-170z" />
    <glyph glyph-name="uni0404" unicode="&#x404;" horiz-adv-x="761" 
d="M217 0l-146 146v408l146 146h495v-145h-411l-60 -60v-77h367v-134h-367v-79l60 -60h421v-145h-505z" />
    <glyph glyph-name="uni0405" unicode="&#x405;" horiz-adv-x="750" 
d="M69 0v145h437l33 33v67l-35 35h-324l-124 124v177l119 119h499v-145h-415l-33 -33v-63l35 -34h324l124 -124v-182l-119 -119h-521z" />
    <glyph glyph-name="uni0406" unicode="&#x406;" horiz-adv-x="552" 
d="M51 0v133h140v434h-140v133h450v-133h-140v-434h140v-133h-450z" />
    <glyph glyph-name="uni0407" unicode="&#x407;" horiz-adv-x="552" 
d="M103 762v118h142v-118h-142zM307 762v118h142v-118h-142zM51 0v133h140v434h-140v133h450v-133h-140v-434h140v-133h-450z" />
    <glyph glyph-name="uni0408" unicode="&#x408;" horiz-adv-x="597" 
d="M33 0v148h259l54 54v353h-274v145h444v-557l-143 -143h-340z" />
    <glyph glyph-name="uni0409" unicode="&#x409;" horiz-adv-x="1254" 
d="M19 -10v161h105l28 28l42 521h553v-243h343l120 -120v-217l-120 -120h-509v555h-229l-36 -449l-116 -116h-181zM745 145h252l43 43v81l-43 43h-252v-167z" />
    <glyph glyph-name="uni040A" unicode="&#x40a;" horiz-adv-x="1239" 
d="M91 0v700h170v-243h305v243h166v-243h343l120 -120v-217l-120 -120h-509v309h-305v-309h-170zM730 145h252l43 43v81l-43 43h-252v-167z" />
    <glyph glyph-name="uni040B" unicode="&#x40b;" horiz-adv-x="959" 
d="M239 0v555h-229v145h696v-145h-297v-105h369l118 -118v-332h-170v264l-41 41h-276v-305h-170z" />
    <glyph glyph-name="uni040C" unicode="&#x40c;" horiz-adv-x="789" 
d="M365 746v13l56 137h134v-13l-79 -137h-111zM91 0v700h170v-272h124l195 272h168v-52l-219 -290l239 -306v-52h-174l-206 280h-127v-280h-170z" />
    <glyph glyph-name="uni040D" unicode="&#x40d;" horiz-adv-x="882" 
d="M388 746l-79 137v13h134l56 -137v-13h-111zM91 0v700h167v-517h17l266 517h250v-700h-167v517h-17l-266 -517h-250z" />
    <glyph glyph-name="uni040E" unicode="&#x40e;" horiz-adv-x="721" 
d="M255 746l-61 61v81h104v-39l12 -12h119l12 12v39h104v-81l-61 -61h-229zM120 0v145h155l20 40l-276 465v50h160l185 -334h26l170 334h151v-50l-339 -650h-252z" />
    <glyph glyph-name="uni040F" unicode="&#x40f;" horiz-adv-x="838" 
d="M747 700v-700h-246v-160h-164v160h-246v700h170v-555h316v555h170z" />
    <glyph glyph-name="uni0410" unicode="&#x410;" horiz-adv-x="827" 
d="M533 700l275 -650v-50h-165l-56 142h-351l-57 -142h-160v50l276 650h238zM294 287h235l-105 265h-23z" />
    <glyph glyph-name="uni0411" unicode="&#x411;" horiz-adv-x="823" 
d="M91 0v700h620v-145h-450v-113h391l120 -120v-202l-120 -120h-561zM261 137h297l44 44v83l-44 44h-297v-171z" />
    <glyph glyph-name="uni0412" unicode="&#x412;" horiz-adv-x="836" 
d="M91 0v700h544l110 -110v-142l-65 -65l100 -100v-163l-120 -120h-569zM261 425h278l36 36v68l-34 34h-280v-138zM261 137h305l44 44v72l-41 41h-308v-157z" />
    <glyph glyph-name="uni0413" unicode="&#x413;" horiz-adv-x="669" 
d="M91 0v700h568v-145h-398v-555h-170z" />
    <glyph glyph-name="uni0414" unicode="&#x414;" horiz-adv-x="898" 
d="M16 -160v305h81l59 80l38 475h561v-555h114v-305h-164v160h-525v-160h-164zM290 145h295v410h-234l-29 -365z" />
    <glyph glyph-name="uni0415" unicode="&#x415;" horiz-adv-x="757" 
d="M91 0v700h616v-145h-446v-135h336v-134h-336v-141h456v-145h-626z" />
    <glyph glyph-name="uni0416" unicode="&#x416;" horiz-adv-x="1144" 
d="M21 0v52l222 309l-199 287v52h155l184 -272h107v272h164v-272h107l184 272h155v-52l-199 -287l222 -309v-52h-168l-193 280h-108v-280h-164v280h-108l-193 -280h-168z" />
    <glyph glyph-name="uni0417" unicode="&#x417;" horiz-adv-x="754" 
d="M53 0v145h431l44 43v63l-42 42h-282v134h265l40 39v56l-34 33h-406v145h500l110 -110v-143l-73 -72l92 -92v-163l-120 -120h-525z" />
    <glyph glyph-name="uni0418" unicode="&#x418;" horiz-adv-x="882" 
d="M91 0v700h167v-517h17l266 517h250v-700h-167v517h-17l-266 -517h-250z" />
    <glyph glyph-name="uni0419" unicode="&#x419;" horiz-adv-x="882" 
d="M327 746l-61 61v81h104v-39l12 -12h119l12 12v39h104v-81l-61 -61h-229zM91 0v700h167v-517h17l266 517h250v-700h-167v517h-17l-266 -517h-250z" />
    <glyph glyph-name="uni041A" unicode="&#x41a;" horiz-adv-x="789" 
d="M91 0v700h170v-272h124l195 272h168v-52l-219 -290l239 -306v-52h-174l-206 280h-127v-280h-170z" />
    <glyph glyph-name="uni041B" unicode="&#x41b;" horiz-adv-x="853" 
d="M19 -10v161h105l28 28l42 521h568v-700h-170v555h-240l-36 -449l-116 -116h-181z" />
    <glyph glyph-name="uni041C" unicode="&#x41c;" horiz-adv-x="1042" 
d="M91 0v700h258l162 -405h22l162 405h256v-700h-167v506h-16l-163 -405h-168l-163 405h-16v-506h-167z" />
    <glyph glyph-name="uni041D" unicode="&#x41d;" horiz-adv-x="858" 
d="M91 0v700h170v-275h336v275h170v-700h-170v277h-336v-277h-170z" />
    <glyph glyph-name="uni041E" unicode="&#x41e;" horiz-adv-x="860" 
d="M217 0l-146 146v408l146 146h426l146 -146v-408l-146 -146h-426zM301 145h258l60 60v290l-60 60h-258l-60 -60v-290z" />
    <glyph glyph-name="uni041F" unicode="&#x41f;" horiz-adv-x="848" 
d="M91 0v700h666v-700h-170v555h-326v-555h-170z" />
    <glyph glyph-name="uni0420" unicode="&#x420;" horiz-adv-x="791" 
d="M91 0v700h521l130 -130v-245l-130 -130h-351v-195h-170zM261 340h264l47 46v123l-47 46h-264v-215z" />
    <glyph glyph-name="uni0421" unicode="&#x421;" horiz-adv-x="728" 
d="M217 0l-146 146v408l146 146h467v-145h-383l-60 -60v-290l60 -60h383v-145h-467z" />
    <glyph glyph-name="uni0422" unicode="&#x422;" horiz-adv-x="716" 
d="M273 0v555h-263v145h696v-145h-263v-555h-170z" />
    <glyph glyph-name="uni0423" unicode="&#x423;" horiz-adv-x="721" 
d="M120 0v145h155l20 40l-276 465v50h160l185 -334h26l170 334h151v-50l-339 -650h-252z" />
    <glyph glyph-name="uni0424" unicode="&#x424;" horiz-adv-x="1058" 
d="M447 -30v81h-240l-146 146v326l146 146h240v81h164v-81h240l146 -146v-326l-146 -146h-240v-81h-164zM291 196h156v328h-156l-60 -60v-208zM611 196h156l60 60v208l-60 60h-156v-328z" />
    <glyph glyph-name="uni0425" unicode="&#x425;" horiz-adv-x="757" 
d="M26 0v50l238 313l-218 287v50h168l158 -220h17l159 220h162v-50l-218 -287l238 -313v-50h-167l-179 248h-17l-178 -248h-163z" />
    <glyph glyph-name="uni0426" unicode="&#x426;" horiz-adv-x="862" 
d="M737 145h104v-305h-164v160h-586v700h170v-555h306v555h170v-555z" />
    <glyph glyph-name="uni0427" unicode="&#x427;" horiz-adv-x="784" 
d="M523 0v197h-330l-132 132v371h170v-310l45 -45h247v355h170v-700h-170z" />
    <glyph glyph-name="uni0428" unicode="&#x428;" horiz-adv-x="1176" 
d="M91 0v700h170v-555h242v555h170v-555h242v555h170v-700h-994z" />
    <glyph glyph-name="uni0429" unicode="&#x429;" horiz-adv-x="1210" 
d="M1085 145h104v-305h-164v160h-934v700h170v-555h242v555h170v-555h242v555h170v-555z" />
    <glyph glyph-name="uni042A" unicode="&#x42a;" horiz-adv-x="875" 
d="M711 485l120 -120v-245l-120 -120h-542v555h-170v145h340v-215h372zM661 188v109l-43 43h-279v-195h279z" />
    <glyph glyph-name="uni042B" unicode="&#x42b;" horiz-adv-x="1112" 
d="M91 0v700h170v-215h356l120 -120v-245l-120 -120h-526zM851 0v700h170v-700h-170zM261 145h263l43 43v109l-43 43h-263v-195z" />
    <glyph glyph-name="uni042C" unicode="&#x42c;" horiz-adv-x="797" 
d="M91 0v700h170v-215h372l120 -120v-245l-120 -120h-542zM261 145h279l43 43v109l-43 43h-279v-195z" />
    <glyph glyph-name="uni042D" unicode="&#x42d;" horiz-adv-x="746" 
d="M34 0v145h411l60 60v79h-342v134h342v77l-60 60h-401v145h485l146 -146v-408l-146 -146h-495z" />
    <glyph glyph-name="uni042E" unicode="&#x42e;" horiz-adv-x="1125" 
d="M91 0v700h170v-275h126v129l146 146h375l146 -146v-408l-146 -146h-375l-146 146v131h-126v-277h-170zM617 145h207l60 60v290l-60 60h-207l-60 -60v-290z" />
    <glyph glyph-name="uni042F" unicode="&#x42f;" horiz-adv-x="830" 
d="M66 0v50l125 198l-109 108v214l130 130h527v-700h-170v220h-201l-137 -220h-165zM305 359h264v202h-264l-53 -52v-98z" />
    <glyph glyph-name="uni0430" unicode="&#x430;" horiz-adv-x="634" 
d="M133 0l-92 92v128l95 95h278v32l-29 30h-276v126h361l103 -103v-400h-127v41h-16l-49 -41h-248zM218 120h150l46 37v56h-189l-25 -25v-50z" />
    <glyph glyph-name="uni0431" unicode="&#x431;" horiz-adv-x="664" 
d="M179 0l-118 118v454l109 109l390 24h10v-129l-312 -17l-38 -38v-71h11l37 32h227l118 -118v-246l-118 -118h-316zM261 130h152l41 41v140l-41 41h-141l-52 -43v-138z" />
    <glyph glyph-name="uni0432" unicode="&#x432;" horiz-adv-x="644" 
d="M66 0v503h421l91 -91v-94l-44 -42l69 -69v-116l-91 -91h-446zM219 310h177l23 23v29l-25 25h-175v-77zM219 117h200l25 25v38l-25 25h-200v-88z" />
    <glyph glyph-name="uni0433" unicode="&#x433;" horiz-adv-x="493" 
d="M66 0v503h422v-130h-263v-373h-159z" />
    <glyph glyph-name="uni0434" unicode="&#x434;" horiz-adv-x="712" 
d="M12 -140v270h64l49 63l27 310h451v-373h95v-270h-150v140h-386v-140h-150zM248 130h200v245h-155l-18 -210z" />
    <glyph glyph-name="uni0435" unicode="&#x435;" horiz-adv-x="648" 
d="M174 0l-118 118v267l118 118h307l118 -118v-185h-384v-32l41 -41h305v-127h-387zM215 302h225v40l-41 41h-143l-41 -41v-40z" />
    <glyph glyph-name="uni0436" unicode="&#x436;" horiz-adv-x="897" 
d="M16 0v42l154 218l-134 201v42h150l120 -185h65v185h155v-185h65l120 185h150v-42l-135 -201l155 -218v-42h-158l-132 188h-65v-188h-155v188h-66l-131 -188h-158z" />
    <glyph glyph-name="uni0437" unicode="&#x437;" horiz-adv-x="587" 
d="M38 0v128h328l21 21v28l-22 22h-203v107h193l22 22v26l-21 21h-303v128h390l93 -93v-92l-51 -52l61 -61v-112l-93 -93h-415z" />
    <glyph glyph-name="uni0438" unicode="&#x438;" horiz-adv-x="688" 
d="M66 0v503h157v-322h15l176 322h208v-503h-157v322h-15l-165 -322h-219z" />
    <glyph glyph-name="uni0439" unicode="&#x439;" horiz-adv-x="688" 
d="M238 560l-61 61v99h102v-57l14 -14h104l14 14v57h102v-99l-61 -61h-214zM66 0v503h157v-322h15l176 322h208v-503h-157v322h-15l-165 -322h-219z" />
    <glyph glyph-name="uni043A" unicode="&#x43a;" horiz-adv-x="634" 
d="M66 0v503h159v-185h87l134 185h152v-42l-151 -201l171 -218v-42h-161l-146 188h-86v-188h-159z" />
    <glyph glyph-name="uni043B" unicode="&#x43b;" horiz-adv-x="657" 
d="M10 -8v147h85l13 13l25 351h458v-503h-159v373h-152l-19 -286l-95 -95h-156z" />
    <glyph glyph-name="uni043C" unicode="&#x43c;" horiz-adv-x="782" 
d="M66 0v503h219l100 -261h16l99 261h216v-503h-157v303h-14l-90 -216h-127l-91 216h-14v-303h-157z" />
    <glyph glyph-name="uni043D" unicode="&#x43d;" horiz-adv-x="662" 
d="M66 0v503h159v-183h212v183h159v-503h-159v190h-212v-190h-159z" />
    <glyph glyph-name="uni043E" unicode="&#x43e;" horiz-adv-x="659" 
d="M174 0l-118 118v267l118 118h311l118 -118v-267l-118 -118h-311zM256 130h147l41 41v161l-41 41h-147l-41 -41v-161z" />
    <glyph glyph-name="uni043F" unicode="&#x43f;" horiz-adv-x="647" 
d="M66 0v503h515v-503h-159v373h-197v-373h-159z" />
    <glyph glyph-name="uni0440" unicode="&#x440;" horiz-adv-x="655" 
d="M66 -200v703h127v-44h21l53 44h214l118 -118v-267l-118 -118h-256v-200h-159zM225 130h174l41 41v161l-41 41h-119l-55 -43v-200z" />
    <glyph glyph-name="uni0441" unicode="&#x441;" horiz-adv-x="567" 
d="M174 0l-118 118v267l118 118h346v-130h-264l-41 -41v-161l41 -41h264v-130h-346z" />
    <glyph glyph-name="uni0442" unicode="&#x442;" horiz-adv-x="545" 
d="M193 0v373h-178v130h515v-130h-178v-373h-159z" />
    <glyph glyph-name="uni0443" unicode="&#x443;" horiz-adv-x="638" 
d="M92 -200v125h295l26 26v77h-10l-33 -28h-198l-111 111v392h159v-339l34 -34h112l47 38v335h159v-603l-100 -100h-380z" />
    <glyph glyph-name="uni0444" unicode="&#x444;" horiz-adv-x="864" 
d="M355 -200v200h-181l-118 118v267l118 118h181v197h154v-197h181l118 -118v-267l-118 -118h-181v-200h-154zM256 130h99v243h-99l-41 -41v-161zM509 130h99l41 41v161l-41 41h-99v-243z" />
    <glyph glyph-name="uni0445" unicode="&#x445;" horiz-adv-x="613" 
d="M22 0v42l174 216l-162 203v42h164l101 -139h22l102 139h155v-42l-162 -200l175 -219v-42h-164l-113 159h-22l-115 -159h-155z" />
    <glyph glyph-name="uni0446" unicode="&#x446;" horiz-adv-x="677" 
d="M571 130h87v-270h-150v140h-442v503h159v-373h187v373h159v-373z" />
    <glyph glyph-name="uni0447" unicode="&#x447;" horiz-adv-x="602" 
d="M377 0v142h-227l-111 111v250h159v-197l34 -34h145v231h159v-503h-159z" />
    <glyph glyph-name="uni0448" unicode="&#x448;" horiz-adv-x="919" 
d="M66 0v503h159v-373h155v373h159v-373h155v373h159v-503h-787z" />
    <glyph glyph-name="uni0449" unicode="&#x449;" horiz-adv-x="959" 
d="M853 130h87v-270h-150v140h-724v503h159v-373h155v373h159v-373h155v373h159v-373z" />
    <glyph glyph-name="uni044A" unicode="&#x44a;" horiz-adv-x="678" 
d="M541 366l101 -101v-164l-101 -101h-408v373h-134v130h293v-137h249zM483 148v70l-28 28h-163v-126h163z" />
    <glyph glyph-name="uni044B" unicode="&#x44b;" horiz-adv-x="863" 
d="M66 0v503h159v-137h239l101 -101v-164l-101 -101h-398zM638 0v503h159v-503h-159zM225 120h153l28 28v70l-28 28h-153v-126z" />
    <glyph glyph-name="uni044C" unicode="&#x44c;" horiz-adv-x="611" 
d="M66 0v503h159v-137h249l101 -101v-164l-101 -101h-408zM225 120h163l28 28v70l-28 28h-163v-126z" />
    <glyph glyph-name="uni044D" unicode="&#x44d;" horiz-adv-x="591" 
d="M45 0v128h291l40 41v29h-205v107h205v30l-40 40h-283v128h364l118 -118v-267l-118 -118h-372z" />
    <glyph glyph-name="uni044E" unicode="&#x44e;" horiz-adv-x="880" 
d="M66 0v503h159v-185h77v67l118 118h286l118 -118v-267l-118 -118h-286l-118 118v70h-77v-188h-159zM502 130h122l41 41v161l-41 41h-122l-41 -41v-161z" />
    <glyph glyph-name="uni044F" unicode="&#x44f;" horiz-adv-x="643" 
d="M41 0v42l91 132l-76 76v152l101 101h420v-503h-159v149h-123l-101 -149h-153zM243 269h175v114h-175l-28 -28v-58z" />
    <glyph glyph-name="uni0450" unicode="&#x450;" horiz-adv-x="648" 
d="M277 560l-93 165v13h130l64 -165v-13h-101zM174 0l-118 118v267l118 118h307l118 -118v-185h-384v-32l41 -41h305v-127h-387zM215 302h225v40l-41 41h-143l-41 -41v-40z" />
    <glyph glyph-name="uni0451" unicode="&#x451;" horiz-adv-x="648" 
d="M154 592v118h142v-118h-142zM358 592v118h142v-118h-142zM174 0l-118 118v267l118 118h307l118 -118v-185h-384v-32l41 -41h305v-127h-387zM215 302h225v40l-41 41h-143l-41 -41v-40z" />
    <glyph glyph-name="uni0452" unicode="&#x452;" horiz-adv-x="670" 
d="M498 491l111 -111v-488l-92 -92h-201v130h121l13 13v384l-34 34h-126l-51 -42v-319h-159v551h-85v90h85v59h159v-59h211v-90h-211v-91h10l37 31h212z" />
    <glyph glyph-name="uni0453" unicode="&#x453;" horiz-adv-x="493" 
d="M224 560v13l64 165h130v-13l-93 -165h-101zM66 0v503h422v-130h-263v-373h-159z" />
    <glyph glyph-name="uni0454" unicode="&#x454;" horiz-adv-x="593" 
d="M174 0l-118 118v267l118 118h364v-128h-283l-40 -40v-30h221v-107h-221v-29l40 -41h291v-128h-372z" />
    <glyph glyph-name="uni0455" unicode="&#x455;" horiz-adv-x="598" 
d="M59 0v120h321l18 18v35l-18 19h-237l-92 91v129l92 91h386v-120h-301l-18 -18v-35l18 -18h237l92 -92v-128l-92 -92h-406z" />
    <glyph glyph-name="uni0456" unicode="&#x456;" horiz-adv-x="291" 
d="M64 582v118h163v-118h-163zM66 0v503h159v-503h-159z" />
    <glyph glyph-name="uni0457" unicode="&#x457;" horiz-adv-x="291" 
d="M-11 591v121h133v-121h-133zM168 591v121h133v-121h-133zM66 0v503h159v-503h-159z" />
    <glyph glyph-name="uni0458" unicode="&#x458;" horiz-adv-x="291" 
d="M64 582v118h163v-118h-163zM-86 -200v130h139l13 13v560h159v-611l-92 -92h-219z" />
    <glyph glyph-name="uni0459" unicode="&#x459;" horiz-adv-x="949" 
d="M10 -8v147h85l13 13l25 351h444v-163h235l101 -101v-138l-101 -101h-390v373h-142l-19 -286l-95 -95h-156zM577 120h149l28 28v44l-28 28h-149v-100z" />
    <glyph glyph-name="uni045A" unicode="&#x45a;" horiz-adv-x="944" 
d="M66 0v503h159v-163h192v163h155v-163h235l101 -101v-138l-101 -101h-390v210h-192v-210h-159zM572 120h149l28 28v44l-28 28h-149v-100z" />
    <glyph glyph-name="uni045B" unicode="&#x45b;" horiz-adv-x="670" 
d="M80 0v551h-85v90h85v59h159v-59h211v-90h-211v-91h10l37 31h212l111 -111v-380h-159v327l-34 34h-126l-51 -42v-319h-159z" />
    <glyph glyph-name="uni045C" unicode="&#x45c;" horiz-adv-x="634" 
d="M279 560v13l64 165h130v-13l-93 -165h-101zM66 0v503h159v-185h87l134 185h152v-42l-151 -201l171 -218v-42h-161l-146 188h-86v-188h-159z" />
    <glyph glyph-name="uni045D" unicode="&#x45d;" horiz-adv-x="688" 
d="M294 560l-93 165v13h130l64 -165v-13h-101zM66 0v503h157v-322h15l176 322h208v-503h-157v322h-15l-165 -322h-219z" />
    <glyph glyph-name="uni045E" unicode="&#x45e;" horiz-adv-x="638" 
d="M211 560l-61 61v99h102v-57l14 -14h104l14 14v57h102v-99l-61 -61h-214zM92 -200v125h295l26 26v77h-10l-33 -28h-198l-111 111v392h159v-339l34 -34h112l47 38v335h159v-603l-100 -100h-380z" />
    <glyph glyph-name="uni045F" unicode="&#x45f;" horiz-adv-x="642" 
d="M576 503v-503h-180v-140h-150v140h-180v503h159v-373h192v373h159z" />
    <glyph glyph-name="uni0490" unicode="&#x490;" horiz-adv-x="669" 
d="M495 815h164v-260h-398v-555h-170v700h404v115z" />
    <glyph glyph-name="uni0491" unicode="&#x491;" horiz-adv-x="493" 
d="M334 593h154v-220h-263v-373h-159v503h268v90z" />
    <glyph glyph-name="uni0492" unicode="&#x492;" horiz-adv-x="682" 
d="M672 555h-398v-188h214v-95h-214v-272h-170v272h-88v95h88v333h568v-145z" />
    <glyph glyph-name="uni0493" unicode="&#x493;" horiz-adv-x="497" 
d="M492 373h-263v-111h146v-87h-146v-175h-159v175h-72v87h72v241h422v-130z" />
    <glyph glyph-name="uni0494" unicode="&#x494;" horiz-adv-x="796" 
d="M428 -140v145h109l41 41v180l-41 41h-197l-79 -65v-202h-170v700h568v-145h-398v-179h9l43 36h317l118 -118v-316l-118 -118h-202z" />
    <glyph glyph-name="uni0495" unicode="&#x495;" horiz-adv-x="591" 
d="M306 -200v130h77l23 23v163l-36 36h-93l-52 -43v-109h-159v503h420v-130h-261v-125h8l40 34h179l113 -113v-269l-100 -100h-159z" />
    <glyph glyph-name="uni0496" unicode="&#x496;" horiz-adv-x="1165" 
d="M1056 145h104v-305h-164v160h-41l-193 280h-108v-280h-164v280h-108l-193 -280h-168v52l222 309l-199 287v52h155l184 -272h107v272h164v-272h107l184 272h155v-52l-199 -287z" />
    <glyph glyph-name="uni0497" unicode="&#x497;" horiz-adv-x="908" 
d="M818 130h86v-270h-150v140h-31l-132 188h-65v-188h-155v188h-66l-131 -188h-158v42l154 218l-134 201v42h150l120 -185h65v185h155v-185h65l120 185h150v-42l-135 -201z" />
    <glyph glyph-name="uni049A" unicode="&#x49a;" horiz-adv-x="810" 
d="M695 145h110v-305h-164v160h-47l-206 280h-127v-280h-170v700h170v-272h124l195 272h168v-52l-219 -290z" />
    <glyph glyph-name="uni049B" unicode="&#x49b;" horiz-adv-x="645" 
d="M549 130h92v-270h-150v140h-34l-146 188h-86v-188h-159v503h159v-185h87l134 185h152v-42l-151 -201z" />
    <glyph glyph-name="uni049C" unicode="&#x49c;" horiz-adv-x="820" 
d="M91 0v700h170v-272h45v129h83v-129h30l193 272h167v-52l-216 -290l236 -306v-52h-175l-203 280h-32v-129h-83v129h-45v-280h-170z" />
    <glyph glyph-name="uni049D" unicode="&#x49d;" horiz-adv-x="664" 
d="M66 0v503h159v-185h29v102h73v-102h19l131 185h151v-42l-148 -201l168 -218v-42h-160l-142 188h-19v-103h-73v103h-29v-188h-159z" />
    <glyph glyph-name="uni04A2" unicode="&#x4a2;" horiz-adv-x="892" 
d="M767 145h104v-305h-164v160h-110v277h-336v-277h-170v700h170v-275h336v275h170v-555z" />
    <glyph glyph-name="uni04A3" unicode="&#x4a3;" horiz-adv-x="702" 
d="M596 130h87v-270h-150v140h-96v190h-212v-190h-159v503h159v-183h212v183h159v-373z" />
    <glyph glyph-name="uni04AA" unicode="&#x4aa;" horiz-adv-x="728" 
d="M301 555l-60 -60v-290l60 -60h383v-145h-186v-160h-164v160h-117l-146 146v408l146 146h467v-145h-383z" />
    <glyph glyph-name="uni04AB" unicode="&#x4ab;" horiz-adv-x="567" 
d="M256 373l-41 -41v-161l41 -41h264v-130h-123v-140h-150v140h-73l-118 118v267l118 118h346v-130h-264z" />
    <glyph glyph-name="uni04AE" unicode="&#x4ae;" horiz-adv-x="746" 
d="M288 0v221l-277 429v50h162l193 -308h23l194 308h152v-50l-277 -429v-221h-170z" />
    <glyph glyph-name="uni04AF" unicode="&#x4af;" horiz-adv-x="591" 
d="M214 -200v197l-204 462v44h150l126 -316h18l133 316h144v-44l-208 -462v-197h-159z" />
    <glyph glyph-name="uni04B0" unicode="&#x4b0;" horiz-adv-x="746" 
d="M735 650l-277 -429v-6h168v-94h-168v-121h-170v121h-168v94h168v6l-277 429v50h162l193 -308h23l194 308h152v-50z" />
    <glyph glyph-name="uni04B1" unicode="&#x4b1;" horiz-adv-x="601" 
d="M586 459l-208 -462v-12h143v-87h-143v-98h-159v98h-143v87h143v12l-204 462v44h150l126 -316h18l133 316h144v-44z" />
    <glyph glyph-name="uni04B2" unicode="&#x4b2;" horiz-adv-x="772" 
d="M658 145h110v-305h-164v160h-41l-179 248h-17l-178 -248h-163v50l238 313l-218 287v50h168l158 -220h17l159 220h162v-50l-218 -287z" />
    <glyph glyph-name="uni04B3" unicode="&#x4b3;" horiz-adv-x="619" 
d="M521 130h94v-270h-150v140h-38l-113 159h-22l-115 -159h-155v42l174 216l-162 203v42h164l101 -139h22l102 139h155v-42l-162 -200z" />
    <glyph glyph-name="uni04B6" unicode="&#x4b6;" horiz-adv-x="818" 
d="M693 145h104v-305h-164v160h-110v197h-330l-132 132v371h170v-310l45 -45h247v355h170v-555z" />
    <glyph glyph-name="uni04B7" unicode="&#x4b7;" horiz-adv-x="642" 
d="M536 130h87v-270h-150v140h-96v142h-227l-111 111v250h159v-197l34 -34h145v231h159v-373z" />
    <glyph glyph-name="uni04B8" unicode="&#x4b8;" horiz-adv-x="784" 
d="M523 0v197h-102v-129h-83v129h-145l-132 132v371h170v-310l45 -45h62v129h83v-129h102v355h170v-700h-170z" />
    <glyph glyph-name="uni04B9" unicode="&#x4b9;" horiz-adv-x="602" 
d="M377 0v142h-51v-104h-73v104h-103l-111 111v250h159v-197l34 -34h21v104h73v-104h51v231h159v-503h-159z" />
    <glyph glyph-name="uni04BA" unicode="&#x4ba;" horiz-adv-x="787" 
d="M91 0v700h170v-197h330l132 -132v-371h-170v310l-45 45h-247v-355h-170z" />
    <glyph glyph-name="uni04BB" unicode="&#x4bb;" horiz-adv-x="661" 
d="M71 0v700h159v-227h10l37 30h212l111 -111v-392h-159v339l-34 34h-126l-51 -41v-332h-159z" />
    <glyph glyph-name="uni04C1" unicode="&#x4c1;" horiz-adv-x="1144" 
d="M458 746l-61 61v81h104v-39l12 -12h119l12 12v39h104v-81l-61 -61h-229zM21 0v52l222 309l-199 287v52h155l184 -272h107v272h164v-272h107l184 272h155v-52l-199 -287l222 -309v-52h-168l-193 280h-108v-280h-164v280h-108l-193 -280h-168z" />
    <glyph glyph-name="uni04C2" unicode="&#x4c2;" horiz-adv-x="897" 
d="M342 560l-61 61v99h102v-57l14 -14h104l14 14v57h102v-99l-61 -61h-214zM16 0v42l154 218l-134 201v42h150l120 -185h65v185h155v-185h65l120 185h150v-42l-135 -201l155 -218v-42h-158l-132 188h-65v-188h-155v188h-66l-131 -188h-158z" />
    <glyph glyph-name="uni04D2" unicode="&#x4d2;" horiz-adv-x="827" 
d="M382 880v-118h-142v118h142zM586 880v-118h-142v118h142zM533 700l275 -650v-50h-165l-56 142h-351l-57 -142h-160v50l276 650h238zM294 287h235l-105 265h-23z" />
    <glyph glyph-name="uni04D3" unicode="&#x4d3;" horiz-adv-x="634" 
d="M158 592v118h142v-118h-142zM362 592v118h142v-118h-142zM133 0l-92 92v128l95 95h278v32l-29 30h-276v126h361l103 -103v-400h-127v41h-16l-49 -41h-248zM218 120h150l46 37v56h-189l-25 -25v-50z" />
    <glyph glyph-name="uni04D8" unicode="&#x4d8;" horiz-adv-x="858" 
d="M215 0l-146 146v280h548v69l-60 60h-424v145h508l146 -146v-408l-146 -146h-426zM299 145h258l60 60v91h-378v-91z" />
    <glyph glyph-name="uni04D9" unicode="&#x4d9;" horiz-adv-x="648" 
d="M167 0l-118 118v187h384v31l-40 41h-306v126h387l118 -118v-267l-118 -118h-307zM249 120h143l41 41v39h-225v-39z" />
    <glyph glyph-name="uni04E0" unicode="&#x4e0;" horiz-adv-x="723" 
d="M53 0v145h407l44 43v60l-44 44h-262v115l181 137v11h-316v145h580v-101l-226 -174v-11h140l117 -117v-177l-120 -120h-501z" />
    <glyph glyph-name="uni04E1" unicode="&#x4e1;" horiz-adv-x="548" 
d="M16 -200v130h301l41 41v83l-41 41h-202v109l176 162v14h-270v123h476v-104l-184 -170v-14h86l118 -118v-179l-118 -118h-383z" />
    <glyph glyph-name="uni04E2" unicode="&#x4e2;" horiz-adv-x="882" 
d="M281 772v96h320v-96h-320zM91 0v700h167v-517h17l266 517h250v-700h-167v517h-17l-266 -517h-250z" />
    <glyph glyph-name="uni04E3" unicode="&#x4e3;" horiz-adv-x="688" 
d="M184 602v96h320v-96h-320zM66 0v503h157v-322h15l176 322h208v-503h-157v322h-15l-165 -322h-219z" />
    <glyph glyph-name="uni04E6" unicode="&#x4e6;" horiz-adv-x="860" 
d="M257 762v118h142v-118h-142zM461 762v118h142v-118h-142zM217 0l-146 146v408l146 146h426l146 -146v-408l-146 -146h-426zM301 145h258l60 60v290l-60 60h-258l-60 -60v-290z" />
    <glyph glyph-name="uni04E7" unicode="&#x4e7;" horiz-adv-x="659" 
d="M156 592v118h142v-118h-142zM360 592v118h142v-118h-142zM174 0l-118 118v267l118 118h311l118 -118v-267l-118 -118h-311zM256 130h147l41 41v161l-41 41h-147l-41 -41v-161z" />
    <glyph glyph-name="uni04E8" unicode="&#x4e8;" horiz-adv-x="860" 
d="M643 700l146 -146v-408l-146 -146h-426l-146 146v408l146 146h426zM301 555l-60 -60v-95h378v95l-60 60h-258zM559 145l60 60v100h-378v-100l60 -60h258z" />
    <glyph glyph-name="uni04E9" unicode="&#x4e9;" horiz-adv-x="659" 
d="M485 503l118 -118v-267l-118 -118h-311l-118 118v267l118 118h311zM256 373l-41 -41v-41h229v41l-41 41h-147zM403 130l41 41v45h-229v-45l41 -41h147z" />
    <glyph glyph-name="uni04EE" unicode="&#x4ee;" horiz-adv-x="721" 
d="M210 772v96h320v-96h-320zM120 0v145h155l20 40l-276 465v50h160l185 -334h26l170 334h151v-50l-339 -650h-252z" />
    <glyph glyph-name="uni04EF" unicode="&#x4ef;" horiz-adv-x="638" 
d="M157 602v96h320v-96h-320zM92 -200v125h295l26 26v77h-10l-33 -28h-198l-111 111v392h159v-339l34 -34h112l47 38v335h159v-603l-100 -100h-380z" />
    <glyph glyph-name="uni04F0" unicode="&#x4f0;" horiz-adv-x="721" 
d="M197 762v118h142v-118h-142zM401 762v118h142v-118h-142zM120 0v145h155l20 40l-276 465v50h160l185 -334h26l170 334h151v-50l-339 -650h-252z" />
    <glyph glyph-name="uni04F1" unicode="&#x4f1;" horiz-adv-x="638" 
d="M144 592v118h142v-118h-142zM348 592v118h142v-118h-142zM92 -200v125h295l26 26v77h-10l-33 -28h-198l-111 111v392h159v-339l34 -34h112l47 38v335h159v-603l-100 -100h-380z" />
    <glyph glyph-name="Wgrave" unicode="&#x1e80;" horiz-adv-x="1109" 
d="M491 746l-79 137v13h134l56 -137v-13h-111zM217 0l-193 650v50h159l159 -543h26l114 351l-42 142v50h156l152 -543h26l155 543h156v-50l-190 -650h-246l-84 279h-18l-87 -279h-243z" />
    <glyph glyph-name="wgrave" unicode="&#x1e81;" horiz-adv-x="860" 
d="M368 560l-93 165v13h130l64 -165v-13h-101zM163 0l-148 461v42h147l107 -360h18l78 234l-23 84v42h144l89 -360h18l108 360h144v-42l-147 -461h-204l-54 190h-18l-60 -190h-199z" />
    <glyph glyph-name="Wacute" unicode="&#x1e82;" horiz-adv-x="1109" 
d="M487 746v13l56 137h134v-13l-79 -137h-111zM217 0l-193 650v50h159l159 -543h26l114 351l-42 142v50h156l152 -543h26l155 543h156v-50l-190 -650h-246l-84 279h-18l-87 -279h-243z" />
    <glyph glyph-name="wacute" unicode="&#x1e83;" horiz-adv-x="860" 
d="M366 560v13l64 165h130v-13l-93 -165h-101zM163 0l-148 461v42h147l107 -360h18l78 234l-23 84v42h144l89 -360h18l108 360h144v-42l-147 -461h-204l-54 190h-18l-60 -190h-199z" />
    <glyph glyph-name="Wdieresis" unicode="&#x1e84;" horiz-adv-x="1109" 
d="M371 762v118h142v-118h-142zM575 762v118h142v-118h-142zM217 0l-193 650v50h159l159 -543h26l114 351l-42 142v50h156l152 -543h26l155 543h156v-50l-190 -650h-246l-84 279h-18l-87 -279h-243z" />
    <glyph glyph-name="wdieresis" unicode="&#x1e85;" horiz-adv-x="860" 
d="M245 592v118h142v-118h-142zM449 592v118h142v-118h-142zM163 0l-148 461v42h147l107 -360h18l78 234l-23 84v42h144l89 -360h18l108 360h144v-42l-147 -461h-204l-54 190h-18l-60 -190h-199z" />
    <glyph glyph-name="uni1E9E" unicode="&#x1e9e;" horiz-adv-x="816" 
d="M89 0v580l120 120h490v-151l-114 -117v-13h73l117 -117v-182l-120 -120h-324v136h231l43 43v76l-43 43h-159v121l130 131v14h-228l-46 -45v-519h-170z" />
    <glyph glyph-name="Ygrave" unicode="&#x1ef2;" horiz-adv-x="746" 
d="M323 746l-79 137v13h134l56 -137v-13h-111zM288 0v221l-277 429v50h162l193 -308h23l194 308h152v-50l-277 -429v-221h-170z" />
    <glyph glyph-name="ygrave" unicode="&#x1ef3;" horiz-adv-x="638" 
d="M267 560l-93 165v13h130l64 -165v-13h-101zM92 -200v125h295l26 26v77h-10l-33 -28h-198l-111 111v392h159v-339l34 -34h112l47 38v335h159v-603l-100 -100h-380z" />
    <glyph glyph-name="endash" unicode="&#x2013;" horiz-adv-x="600" 
d="M44 217v116h512v-116h-512z" />
    <glyph glyph-name="emdash" unicode="&#x2014;" horiz-adv-x="950" 
d="M44 217v116h862v-116h-862z" />
    <glyph glyph-name="quoteleft" unicode="&#x2018;" horiz-adv-x="282" 
d="M206 700l-34 -156h53v-158h-168v135l64 179h85z" />
    <glyph glyph-name="quoteright" unicode="&#x2019;" horiz-adv-x="282" 
d="M76 386l34 156h-53v158h168v-135l-64 -179h-85z" />
    <glyph glyph-name="quotesinglbase" unicode="&#x201a;" horiz-adv-x="282" 
d="M76 -166l34 156h-53v158h168v-135l-64 -179h-85z" />
    <glyph glyph-name="quotedblleft" unicode="&#x201c;" horiz-adv-x="504" 
d="M206 700l-34 -156h53v-158h-168v135l64 179h85zM428 700l-34 -156h53v-158h-168v135l64 179h85z" />
    <glyph glyph-name="quotedblright" unicode="&#x201d;" horiz-adv-x="504" 
d="M76 386l34 156h-53v158h168v-135l-64 -179h-85zM298 386l34 156h-53v158h168v-135l-64 -179h-85z" />
    <glyph glyph-name="quotedblbase" unicode="&#x201e;" horiz-adv-x="504" 
d="M76 -166l34 156h-53v158h168v-135l-64 -179h-85zM298 -166l34 156h-53v158h168v-135l-64 -179h-85z" />
    <glyph glyph-name="dagger" unicode="&#x2020;" horiz-adv-x="693" 
d="M275 -50v501h-201v132h201v167h143v-167h201v-132h-201v-501h-143z" />
    <glyph glyph-name="daggerdbl" unicode="&#x2021;" horiz-adv-x="693" 
d="M275 -50v168h-201v131h201v202h-201v132h201v167h143v-167h201v-132h-201v-202h201v-131h-201v-168h-143z" />
    <glyph glyph-name="bullet" unicode="&#x2022;" horiz-adv-x="411" 
d="M114 201v178h183v-178h-183z" />
    <glyph glyph-name="ellipsis" unicode="&#x2026;" horiz-adv-x="1034" 
d="M96 0v148h166v-148h-166zM434 0v148h166v-148h-166zM772 0v148h166v-148h-166z" />
    <glyph glyph-name="perthousand" unicode="&#x2030;" horiz-adv-x="1430" 
d="M130 364l-75 75v186l75 75h209l75 -75v-186l-75 -75h-209zM245 0v42l410 658h105v-42l-410 -658h-105zM192 461h85l23 23v96l-23 23h-85l-23 -23v-96zM666 0l-75 75v186l75 75h209l75 -75v-186l-75 -75h-209zM1091 0l-75 75v186l75 75h209l75 -75v-186l-75 -75h-209z
M728 97h85l23 23v96l-23 23h-85l-23 -23v-96zM1153 97h85l23 23v96l-23 23h-85l-23 -23v-96z" />
    <glyph glyph-name="guilsinglleft" unicode="&#x2039;" horiz-adv-x="434" 
d="M303 -16l-272 268l270 264l90 -89l-183 -175l185 -178z" />
    <glyph glyph-name="guilsinglright" unicode="&#x203a;" horiz-adv-x="434" 
d="M130 -16l-90 90l185 178l-182 175l90 89l270 -264z" />
    <glyph glyph-name="fraction" unicode="&#x2044;" horiz-adv-x="107" 
d="M-204 0v42l410 658h105v-42l-410 -658h-105z" />
    <glyph glyph-name="uni2070" unicode="&#x2070;" horiz-adv-x="411" 
d="M109 464l-70 70v196l70 70h193l70 -70v-196l-70 -70h-193zM171 553h69l20 20v118l-20 20h-69l-20 -20v-118z" />
    <glyph glyph-name="uni2074" unicode="&#x2074;" horiz-adv-x="381" 
d="M191 464v54h-204v90l168 192h142v-200h45v-82h-45v-54h-106zM101 600h90v101h-8l-82 -94v-7z" />
    <glyph glyph-name="uni2075" unicode="&#x2075;" horiz-adv-x="402" 
d="M48 464v86h190l16 16v18l-16 16h-185v200h293v-84h-181v-36h144l57 -57v-102l-57 -57h-261z" />
    <glyph glyph-name="uni2076" unicode="&#x2076;" horiz-adv-x="400" 
d="M99 464l-60 60v216l60 60h254v-86h-186l-16 -16v-19h167l55 -55v-103l-57 -57h-217zM166 548h80l15 15v28l-16 16h-94v-44z" />
    <glyph glyph-name="uni2077" unicode="&#x2077;" horiz-adv-x="341" 
d="M93 464v31l131 206v8h-183v91h305v-99l-145 -237h-108z" />
    <glyph glyph-name="uni2078" unicode="&#x2078;" horiz-adv-x="422" 
d="M94 464l-55 55v78l42 42l-32 33v73l55 55h214l55 -55v-73l-32 -33l42 -42v-78l-55 -55h-234zM173 671h76l14 14v19l-12 12h-80l-12 -12v-19zM164 548h94l13 13v22l-16 16h-88l-16 -16v-22z" />
    <glyph glyph-name="uni2079" unicode="&#x2079;" horiz-adv-x="400" 
d="M47 464v86h186l16 16v19h-167l-55 55v103l57 57h217l60 -60v-216l-60 -60h-254zM155 657h94v44l-15 15h-81l-14 -15v-28z" />
    <glyph glyph-name="uni2080" unicode="&#x2080;" horiz-adv-x="411" 
d="M109 -100l-70 70v196l70 70h193l70 -70v-196l-70 -70h-193zM171 -11h69l20 20v118l-20 20h-69l-20 -20v-118z" />
    <glyph glyph-name="uni2081" unicode="&#x2081;" horiz-adv-x="392" 
d="M64 -100v89h87v158h-79v89h191v-247h79v-89h-278z" />
    <glyph glyph-name="uni2082" unicode="&#x2082;" horiz-adv-x="418" 
d="M39 -100v143l65 65h150l15 15v14l-15 15h-202v84h269l60 -60v-88l-60 -60h-152l-18 -18v-24h220v-86h-332z" />
    <glyph glyph-name="uni2083" unicode="&#x2083;" horiz-adv-x="404" 
d="M39 -100v84h208l13 13v16l-16 16h-125v80h115l16 16v14l-13 13h-190v84h260l55 -55v-70l-31 -32l41 -42v-82l-55 -55h-278z" />
    <glyph glyph-name="uni2084" unicode="&#x2084;" horiz-adv-x="381" 
d="M191 -100v54h-204v90l168 192h142v-200h45v-82h-45v-54h-106zM101 36h90v101h-8l-82 -94v-7z" />
    <glyph glyph-name="uni2085" unicode="&#x2085;" horiz-adv-x="402" 
d="M48 -100v86h190l16 16v18l-16 16h-185v200h293v-84h-181v-36h144l57 -57v-102l-57 -57h-261z" />
    <glyph glyph-name="uni2086" unicode="&#x2086;" horiz-adv-x="400" 
d="M99 -100l-60 60v216l60 60h254v-86h-186l-16 -16v-19h167l55 -55v-103l-57 -57h-217zM166 -16h80l15 15v28l-16 16h-94v-44z" />
    <glyph glyph-name="uni2087" unicode="&#x2087;" horiz-adv-x="341" 
d="M93 -100v31l131 206v8h-183v91h305v-99l-145 -237h-108z" />
    <glyph glyph-name="uni2088" unicode="&#x2088;" horiz-adv-x="422" 
d="M94 -100l-55 55v78l42 42l-32 33v73l55 55h214l55 -55v-73l-32 -33l42 -42v-78l-55 -55h-234zM173 107h76l14 14v19l-12 12h-80l-12 -12v-19zM164 -16h94l13 13v22l-16 16h-88l-16 -16v-22z" />
    <glyph glyph-name="uni2089" unicode="&#x2089;" horiz-adv-x="400" 
d="M47 -100v86h186l16 16v19h-167l-55 55v103l57 57h217l60 -60v-216l-60 -60h-254zM155 93h94v44l-15 15h-81l-14 -15v-28z" />
    <glyph glyph-name="uni20A9" unicode="&#x20a9;" horiz-adv-x="1016" 
d="M997 395h-95l-19 -85h114v-85h-133l-51 -225h-242l-55 231h-14l-59 -231h-233l-53 225h-138v85h118l-20 85h-98v85h78l-40 170v50h156l118 -543h19l95 353l-30 140v50h147l113 -543h19l116 543h149v-50l-38 -170h76v-85z" />
    <glyph glyph-name="Euro" unicode="&#x20ac;" horiz-adv-x="796" 
d="M279 0l-146 146v89h-96v85h96v60h-96v85h96v89l146 146h473v-145h-389l-60 -60v-30h266v-85h-266v-60h266v-85h-266v-30l60 -60h389v-145h-473z" />
    <glyph glyph-name="uni20B4" unicode="&#x20b4;" horiz-adv-x="783" 
d="M41 375v85h435l29 29v41l-25 25h-341v145h431l105 -105v-122l-10 -13h77v-85h-701zM212 0l-105 105v122l10 13h-76v85h701v-85h-436l-29 -29v-41l25 -25h363v-145h-453z" />
    <glyph glyph-name="uni20B8" unicode="&#x20b8;" horiz-adv-x="684" 
d="M10 615v85h664v-85h-664zM257 0v415h-247v145h664v-145h-247v-415h-170z" />
    <glyph glyph-name="uni20B9" unicode="&#x20b9;" horiz-adv-x="739" 
d="M424 0l-378 189v187h345l41 41v19h-386v86h386v19l-41 41h-345v118h647v-85h-134l43 -43v-50h91v-86h-91v-50l-128 -128h-219v-18l394 -185v-55h-225z" />
    <glyph glyph-name="uni20BA" unicode="&#x20ba;" horiz-adv-x="733" 
d="M552 314h170v-162l-152 -152h-462v237l-75 -25h-22v84l97 32v66l-75 -25h-22v84l97 32v215h170v-158l260 86h22v-84l-282 -94v-65l260 86h22v-84l-282 -94v-148h217l57 57v112z" />
    <glyph glyph-name="uni20BD" unicode="&#x20bd;" horiz-adv-x="847" 
d="M145 0v75h-94v85h94v60h-94v85h94v395h523l130 -130v-220l-130 -130h-353v-60h353v-85h-353v-75h-170zM315 365h265l48 48v94l-48 48h-265v-190z" />
    <glyph glyph-name="uni20BF" unicode="&#x20bf;" horiz-adv-x="819" 
d="M262 -100v100h-171v700h171v100h98v-100h59v100h98v-100h101l110 -110v-142l-65 -65l100 -100v-163l-120 -120h-126v-100h-98v100h-59v-100h-98zM261 424h260l37 37v68l-34 34h-263v-139zM261 137h288l44 44v72l-41 41h-291v-157z" />
    <glyph glyph-name="uni2113" unicode="&#x2113;" horiz-adv-x="533" 
d="M200 0l-85 85v99h-78v127h78v300l89 89h188l89 -89v-225l-226 -187v-61l11 -11h181v-127h-247zM255 364h13l73 63v128l-18 18h-50l-18 -18v-191z" />
    <glyph glyph-name="uni2116" unicode="&#x2116;" horiz-adv-x="1316" 
d="M972 365l-72 72v192l72 72h215l72 -72v-192l-72 -72h-215zM91 0v700h260l267 -518h17v518h162v-700h-260l-267 518h-17v-518h-162zM1034 462h91l20 20v102l-20 20h-91l-20 -20v-102zM900 197v102h359v-102h-359z" />
    <glyph glyph-name="uni2117" unicode="&#x2117;" horiz-adv-x="1056" 
d="M270 -40l-160 160v450l160 160h516l160 -160v-450l-160 -160h-516zM324 61h408l100 100v368l-100 100h-408l-100 -100v-368zM365 150v390h276l75 -75v-124l-75 -75h-176v-116h-100zM465 358h130l21 21v48l-21 21h-130v-90z" />
    <glyph glyph-name="trademark" unicode="&#x2122;" horiz-adv-x="1011" 
d="M153 304v297h-136v99h388v-99h-136v-297h-116zM453 304v396h178l64 -215h11l64 215h178v-396h-116v276h-11l-66 -219h-109l-66 219h-11v-276h-116z" />
    <glyph glyph-name="uni2126" unicode="&#x2126;" horiz-adv-x="908" 
d="M101 0v116h108v13l-108 98v327l146 146h414l146 -146v-327l-108 -98v-13h108v-116h-292v141l128 124v236l-63 63h-252l-63 -63v-236l128 -124v-141h-292z" />
    <glyph glyph-name="estimated" unicode="&#x212e;" horiz-adv-x="850" 
d="M440 -20q-163 0 -271.5 104.5t-108.5 255.5t106.5 255.5t263.5 104.5t263.5 -105t106.5 -260h-576q-14 0 -14 -15v-202q0 -48 75 -80.5t155 -32.5q46 0 89.5 13t73 31t53 38.5t34.5 34t13 18.5h57q-5 -8 -17.5 -23t-42 -40t-64 -45.5t-87.5 -36t-109 -15.5zM224 360h412
q14 0 14 15v190q0 34 -39.5 60t-88.5 38t-92 12q-73 0 -146.5 -30.5t-73.5 -79.5v-190q0 -15 14 -15z" />
    <glyph glyph-name="uni2150" unicode="&#x2150;" horiz-adv-x="840" 
d="M64 364v89h87v158h-79v89h191v-247h79v-89h-278zM188 0v42l410 658h105v-42l-410 -658h-105zM592 0v31l131 206v8h-183v91h305v-99l-145 -237h-108z" />
    <glyph glyph-name="uni2151" unicode="&#x2151;" horiz-adv-x="899" 
d="M64 364v89h87v158h-79v89h191v-247h79v-89h-278zM188 0v42l410 658h105v-42l-410 -658h-105zM546 0v86h186l16 16v19h-167l-55 55v103l57 57h217l60 -60v-216l-60 -60h-254zM654 193h94v44l-15 15h-81l-14 -15v-28z" />
    <glyph glyph-name="uni2152" unicode="&#x2152;" horiz-adv-x="1242" 
d="M64 364v89h87v158h-79v89h191v-247h79v-89h-278zM188 0v42l410 658h105v-42l-410 -658h-105zM563 0v89h87v158h-79v89h191v-247h79v-89h-278zM940 0l-70 70v196l70 70h193l70 -70v-196l-70 -70h-193zM1002 89h69l20 20v118l-20 20h-69l-20 -20v-118z" />
    <glyph glyph-name="uni2153" unicode="&#x2153;" horiz-adv-x="903" 
d="M64 364v89h87v158h-79v89h191v-247h79v-89h-278zM188 0v42l410 658h105v-42l-410 -658h-105zM538 0v84h208l13 13v16l-16 16h-125v80h115l16 16v14l-13 13h-190v84h260l55 -55v-70l-31 -32l41 -42v-82l-55 -55h-278z" />
    <glyph glyph-name="uni2154" unicode="&#x2154;" horiz-adv-x="929" 
d="M39 364v143l65 65h150l15 15v14l-15 15h-202v84h269l60 -60v-88l-60 -60h-152l-18 -18v-24h220v-86h-332zM214 0v42l410 658h105v-42l-410 -658h-105zM564 0v84h208l13 13v16l-16 16h-125v80h115l16 16v14l-13 13h-190v84h260l55 -55v-70l-31 -32l41 -42v-82l-55 -55
h-278z" />
    <glyph glyph-name="uni2155" unicode="&#x2155;" horiz-adv-x="901" 
d="M64 364v89h87v158h-79v89h191v-247h79v-89h-278zM188 0v42l410 658h105v-42l-410 -658h-105zM547 0v86h190l16 16v18l-16 16h-185v200h293v-84h-181v-36h144l57 -57v-102l-57 -57h-261z" />
    <glyph glyph-name="uni2156" unicode="&#x2156;" horiz-adv-x="927" 
d="M39 364v143l65 65h150l15 15v14l-15 15h-202v84h269l60 -60v-88l-60 -60h-152l-18 -18v-24h220v-86h-332zM214 0v42l410 658h105v-42l-410 -658h-105zM573 0v86h190l16 16v18l-16 16h-185v200h293v-84h-181v-36h144l57 -57v-102l-57 -57h-261z" />
    <glyph glyph-name="uni2157" unicode="&#x2157;" horiz-adv-x="913" 
d="M39 364v84h208l13 13v16l-16 16h-125v80h115l16 16v14l-13 13h-190v84h260l55 -55v-70l-31 -32l41 -42v-82l-55 -55h-278zM200 0v42l410 658h105v-42l-410 -658h-105zM559 0v86h190l16 16v18l-16 16h-185v200h293v-84h-181v-36h144l57 -57v-102l-57 -57h-261z" />
    <glyph glyph-name="uni2158" unicode="&#x2158;" horiz-adv-x="890" 
d="M191 364v54h-204v90l168 192h142v-200h45v-82h-45v-54h-106zM177 0v42l410 658h105v-42l-410 -658h-105zM101 500h90v101h-8l-82 -94v-7zM536 0v86h190l16 16v18l-16 16h-185v200h293v-84h-181v-36h144l57 -57v-102l-57 -57h-261z" />
    <glyph glyph-name="uni2159" unicode="&#x2159;" horiz-adv-x="899" 
d="M64 364v89h87v158h-79v89h191v-247h79v-89h-278zM188 0v42l410 658h105v-42l-410 -658h-105zM598 0l-60 60v216l60 60h254v-86h-186l-16 -16v-19h167l55 -55v-103l-57 -57h-217zM665 84h80l15 15v28l-16 16h-94v-44z" />
    <glyph glyph-name="uni215A" unicode="&#x215a;" horiz-adv-x="909" 
d="M48 364v86h190l16 16v18l-16 16h-185v200h293v-84h-181v-36h144l57 -57v-102l-57 -57h-261zM198 0v42l410 658h105v-42l-410 -658h-105zM608 0l-60 60v216l60 60h254v-86h-186l-16 -16v-19h167l55 -55v-103l-57 -57h-217zM675 84h80l15 15v28l-16 16h-94v-44z" />
    <glyph glyph-name="oneeighth" unicode="&#x215b;" horiz-adv-x="921" 
d="M64 364v89h87v158h-79v89h191v-247h79v-89h-278zM188 0v42l410 658h105v-42l-410 -658h-105zM593 0l-55 55v78l42 42l-32 33v73l55 55h214l55 -55v-73l-32 -33l42 -42v-78l-55 -55h-234zM672 207h76l14 14v19l-12 12h-80l-12 -12v-19zM663 84h94l13 13v22l-16 16h-88
l-16 -16v-22z" />
    <glyph glyph-name="threeeighths" unicode="&#x215c;" horiz-adv-x="933" 
d="M39 364v84h208l13 13v16l-16 16h-125v80h115l16 16v14l-13 13h-190v84h260l55 -55v-70l-31 -32l41 -42v-82l-55 -55h-278zM200 0v42l410 658h105v-42l-410 -658h-105zM605 0l-55 55v78l42 42l-32 33v73l55 55h214l55 -55v-73l-32 -33l42 -42v-78l-55 -55h-234zM684 207
h76l14 14v19l-12 12h-80l-12 -12v-19zM675 84h94l13 13v22l-16 16h-88l-16 -16v-22z" />
    <glyph glyph-name="fiveeighths" unicode="&#x215d;" horiz-adv-x="931" 
d="M48 364v86h190l16 16v18l-16 16h-185v200h293v-84h-181v-36h144l57 -57v-102l-57 -57h-261zM198 0v42l410 658h105v-42l-410 -658h-105zM603 0l-55 55v78l42 42l-32 33v73l55 55h214l55 -55v-73l-32 -33l42 -42v-78l-55 -55h-234zM682 207h76l14 14v19l-12 12h-80
l-12 -12v-19zM673 84h94l13 13v22l-16 16h-88l-16 -16v-22z" />
    <glyph glyph-name="seveneighths" unicode="&#x215e;" horiz-adv-x="870" 
d="M93 364v31l131 206v8h-183v91h305v-99l-145 -237h-108zM137 0v42l410 658h105v-42l-410 -658h-105zM542 0l-55 55v78l42 42l-32 33v73l55 55h214l55 -55v-73l-32 -33l42 -42v-78l-55 -55h-234zM621 207h76l14 14v19l-12 12h-80l-12 -12v-19zM612 84h94l13 13v22l-16 16
h-88l-16 -16v-22z" />
    <glyph glyph-name="uni215F" unicode="&#x215f;" horiz-adv-x="499" 
d="M64 364v89h87v158h-79v89h191v-247h79v-89h-278zM188 0v42l410 658h105v-42l-410 -658h-105z" />
    <glyph glyph-name="arrowleft" unicode="&#x2190;" horiz-adv-x="1040" 
d="M438 27l-323 323l323 323l79 -79l-170 -170v-10h578v-128h-578v-10l170 -170z" />
    <glyph glyph-name="arrowup" unicode="&#x2191;" horiz-adv-x="1040" 
d="M456 -50v578h-10l-170 -170l-79 79l323 323l323 -323l-79 -79l-170 170h-10v-578h-128z" />
    <glyph glyph-name="arrowright" unicode="&#x2192;" horiz-adv-x="1040" 
d="M602 27l-79 79l170 170v10h-578v128h578v10l-170 170l79 79l323 -323z" />
    <glyph glyph-name="arrowdown" unicode="&#x2193;" horiz-adv-x="1040" 
d="M520 -60l-323 323l79 79l170 -170h10v578h128v-578h10l170 170l79 -79z" />
    <glyph glyph-name="arrowboth" unicode="&#x2194;" horiz-adv-x="1040" 
d="M381 29l-321 321l321 321l79 -79l-168 -168v-10h456v10l-168 168l79 79l321 -321l-321 -321l-79 79l168 168v10h-456v-10l168 -168z" />
    <glyph glyph-name="uni2196" unicode="&#x2196;" horiz-adv-x="1040" 
d="M781 21l-409 409l-7 -7v-240h-112v457h457v-112h-240l-7 -7l408 -408z" />
    <glyph glyph-name="uni2197" unicode="&#x2197;" horiz-adv-x="1040" 
d="M259 21l-90 92l408 408l-7 7h-240v112h457v-457h-112v240l-7 7z" />
    <glyph glyph-name="uni2198" unicode="&#x2198;" horiz-adv-x="1040" 
d="M330 60v112h240l7 7l-408 408l90 92l409 -409l7 7v240h112v-457h-457z" />
    <glyph glyph-name="uni2199" unicode="&#x2199;" horiz-adv-x="1040" 
d="M253 60v457h112v-240l7 -7l409 409l90 -92l-408 -408l7 -7h240v-112h-457z" />
    <glyph glyph-name="partialdiff" unicode="&#x2202;" horiz-adv-x="649" 
d="M169 0l-118 118v222l118 118h255v39l-73 73h-237v130h319l150 -150v-422l-128 -128h-286zM251 130h122l51 51v147h-173l-41 -41v-116z" />
    <glyph glyph-name="emptyset" unicode="&#x2205;" horiz-adv-x="909" 
d="M841 720v-53l-71 -70l43 -43v-408l-146 -146h-426l-35 35l-56 -55h-82v54l70 69l-43 43v408l146 146h426l35 -35l57 55h82zM322 555l-63 -63v-270l330 330l-3 3h-264zM586 145l64 63v270l-330 -330l2 -3h264z" />
    <glyph glyph-name="uni2206" unicode="&#x2206;" horiz-adv-x="777" 
d="M54 0v133l235 567h199l235 -567v-133h-669zM226 141h326v14l-155 392h-16l-155 -392v-14z" />
    <glyph glyph-name="product" unicode="&#x220f;" horiz-adv-x="863" 
d="M182 -100v655h-91v145h681v-145h-91v-655h-159v655h-181v-655h-159z" />
    <glyph glyph-name="summation" unicode="&#x2211;" horiz-adv-x="657" 
d="M57 -100v188l255 208v16l-255 200v188h568v-130l-389 -1v-18l244 -189v-112l-247 -202v-18h397v-130h-573z" />
    <glyph glyph-name="minus" unicode="&#x2212;" horiz-adv-x="580" 
d="M45 294v116h490v-116h-490z" />
    <glyph glyph-name="radical" unicode="&#x221a;" horiz-adv-x="775" 
d="M242 -110l-96 242h-121v133h219l93 -238h19l268 783h132v-42l-304 -878h-210z" />
    <glyph glyph-name="infinity" unicode="&#x221e;" horiz-adv-x="936" 
d="M164 132l-100 100v186l100 100h193l111 -111l111 111h193l100 -100v-186l-100 -100h-193l-111 111l-111 -111h-193zM230 244h81l81 81l-81 81h-81l-33 -33v-96zM625 244h81l33 33v96l-33 33h-81l-81 -81z" />
    <glyph glyph-name="integral" unicode="&#x222b;" horiz-adv-x="450" 
d="M40 -100v130h100l10 10v676l84 84h176v-130h-100l-10 -10v-676l-84 -84h-176z" />
    <glyph glyph-name="approxequal" unicode="&#x2248;" horiz-adv-x="580" 
d="M57 364v96l68 68h154l64 -70h66l16 16v54h99v-96l-68 -68h-149l-64 70h-71l-16 -16v-54h-99zM57 174v96l68 68h154l64 -70h66l16 16v54h99v-96l-68 -68h-149l-64 70h-71l-16 -16v-54h-99z" />
    <glyph glyph-name="notequal" unicode="&#x2260;" horiz-adv-x="580" 
d="M525 393h-165l-36 -86h201v-116h-249l-45 -106h-93v28l33 78h-116v116h165l36 86h-201v116h249l45 106h93v-28l-33 -78h116v-116z" />
    <glyph glyph-name="lessequal" unicode="&#x2264;" horiz-adv-x="477" 
d="M315 144l-278 278l278 278l83 -83l-195 -195l195 -195zM37 0v113h408v-113h-408z" />
    <glyph glyph-name="greaterequal" unicode="&#x2265;" horiz-adv-x="477" 
d="M162 144l-83 83l195 195l-195 195l83 83l278 -278zM440 0h-408v113h408v-113z" />
    <glyph glyph-name="uni2460" unicode="&#x2460;" horiz-adv-x="1012" 
d="M266 -60l-180 180v450l180 180h480l180 -180v-450l-180 -180h-480zM317 39h378l122 122v368l-122 122h-378l-122 -122v-368zM381 177v89h87v158h-79v89h191v-247h79v-89h-278z" />
    <glyph glyph-name="uni2461" unicode="&#x2461;" horiz-adv-x="1012" 
d="M266 -60l-180 180v450l180 180h480l180 -180v-450l-180 -180h-480zM317 39h378l122 122v368l-122 122h-378l-122 -122v-368zM342 177v143l65 65h150l15 15v14l-15 15h-202v84h269l60 -60v-88l-60 -60h-152l-18 -18v-24h220v-86h-332z" />
    <glyph glyph-name="uni2462" unicode="&#x2462;" horiz-adv-x="1012" 
d="M266 -60l-180 180v450l180 180h480l180 -180v-450l-180 -180h-480zM317 39h378l122 122v368l-122 122h-378l-122 -122v-368zM349 177v84h208l13 13v16l-16 16h-125v80h115l16 16v14l-13 13h-190v84h260l55 -55v-70l-32 -32l42 -42v-82l-55 -55h-278z" />
    <glyph glyph-name="uni2463" unicode="&#x2463;" horiz-adv-x="1012" 
d="M266 -60l-180 180v450l180 180h480l180 -180v-450l-180 -180h-480zM317 39h378l122 122v368l-122 122h-378l-122 -122v-368zM526 177v54h-204v90l168 192h142v-200h45v-82h-45v-54h-106zM436 313h90v101h-8l-82 -94v-7z" />
    <glyph glyph-name="uni2464" unicode="&#x2464;" horiz-adv-x="1012" 
d="M266 -60l-180 180v450l180 180h480l180 -180v-450l-180 -180h-480zM317 39h378l122 122v368l-122 122h-378l-122 -122v-368zM357 177v86h190l16 16v18l-16 16h-185v200h293v-84h-181v-36h144l57 -57v-102l-57 -57h-261z" />
    <glyph glyph-name="uni2465" unicode="&#x2465;" horiz-adv-x="1012" 
d="M266 -60l-180 180v450l180 180h480l180 -180v-450l-180 -180h-480zM317 39h378l122 122v368l-122 122h-378l-122 -122v-368zM399 177l-60 60v216l60 60h254v-86h-186l-16 -16v-19h167l55 -55v-103l-57 -57h-217zM466 261h80l15 15v28l-16 16h-94v-44z" />
    <glyph glyph-name="uni2466" unicode="&#x2466;" horiz-adv-x="1012" 
d="M266 -60l-180 180v450l180 180h480l180 -180v-450l-180 -180h-480zM317 39h378l122 122v368l-122 122h-378l-122 -122v-368zM409 177v31l130 206v8h-182v91h305v-99l-146 -237h-107z" />
    <glyph glyph-name="uni2467" unicode="&#x2467;" horiz-adv-x="1012" 
d="M266 -60l-180 180v450l180 180h480l180 -180v-450l-180 -180h-480zM317 39h378l122 122v368l-122 122h-378l-122 -122v-368zM389 177l-55 55v78l42 42l-32 33v73l55 55h214l55 -55v-73l-32 -33l42 -42v-78l-55 -55h-234zM468 384h76l14 14v19l-12 12h-80l-12 -12v-19z
M459 261h94l13 13v22l-16 16h-88l-16 -16v-22z" />
    <glyph glyph-name="uni2468" unicode="&#x2468;" horiz-adv-x="1012" 
d="M266 -60l-180 180v450l180 180h480l180 -180v-450l-180 -180h-480zM317 39h378l122 122v368l-122 122h-378l-122 -122v-368zM359 177v86h186l16 16v19h-167l-55 55v103l57 57h217l60 -60v-216l-60 -60h-254zM467 370h94v44l-15 15h-80l-15 -15v-28z" />
    <glyph glyph-name="uni2469" unicode="&#x2469;" horiz-adv-x="1012" 
d="M266 -60l-180 180v450l180 180h480l180 -180v-450l-180 -180h-480zM317 39h378l122 122v368l-122 122h-378l-122 -122v-368zM267 177v78h52v180h-44v78h138v-258h48v-78h-194zM548 177l-70 70v196l70 70h132l70 -70v-196l-70 -70h-132zM590 261h47l19 19v130l-19 19h-47
l-18 -19v-130z" />
    <glyph glyph-name="uni24EA" unicode="&#x24ea;" horiz-adv-x="1012" 
d="M266 -60l-180 180v450l180 180h480l180 -180v-450l-180 -180h-480zM317 39h378l122 122v368l-122 122h-378l-122 -122v-368zM409 177l-70 70v196l70 70h193l70 -70v-196l-70 -70h-193zM471 266h69l20 20v118l-20 20h-69l-20 -20v-118z" />
    <glyph glyph-name="uni24FF" unicode="&#x24ff;" horiz-adv-x="1012" 
d="M266 -60l-180 180v450l180 180h480l180 -180v-450l-180 -180h-480zM407 177h197l70 70v196l-70 70h-197l-70 -70v-196zM469 266l-20 20v118l20 20h73l20 -20v-118l-20 -20h-73z" />
    <glyph glyph-name="lozenge" unicode="&#x25ca;" horiz-adv-x="636" 
d="M243 0l-212 350l212 350h150l212 -350l-212 -350h-150zM305 107h25l148 243l-148 243h-25l-147 -243z" />
    <glyph glyph-name="uni2776" unicode="&#x2776;" horiz-adv-x="1012" 
d="M266 -60l-180 180v450l180 180h480l180 -180v-450l-180 -180h-480zM381 177h278v89h-79v247h-191v-89h79v-158h-87v-89z" />
    <glyph glyph-name="uni2777" unicode="&#x2777;" horiz-adv-x="1012" 
d="M266 -60l-180 180v450l180 180h480l180 -180v-450l-180 -180h-480zM342 177h332v86h-220v23l18 18h152l60 60v89l-60 60h-269v-84h202l15 -15v-15l-15 -15h-150l-65 -65v-142z" />
    <glyph glyph-name="uni2778" unicode="&#x2778;" horiz-adv-x="1012" 
d="M266 -60l-180 180v450l180 180h480l180 -180v-450l-180 -180h-480zM349 177h278l55 55v82l-42 42l32 32v70l-55 55h-260v-84h190l13 -13v-14l-16 -16h-115v-80h125l16 -16v-16l-13 -13h-208v-84z" />
    <glyph glyph-name="uni2779" unicode="&#x2779;" horiz-adv-x="1012" 
d="M266 -60l-180 180v450l180 180h480l180 -180v-450l-180 -180h-480zM526 177h106v54h45v84h-45v198h-142l-172 -192v-90h208v-54zM435 315v7l83 93h8v-100h-91z" />
    <glyph glyph-name="uni277A" unicode="&#x277a;" horiz-adv-x="1012" 
d="M266 -60l-180 180v450l180 180h480l180 -180v-450l-180 -180h-480zM357 177h261l57 57v102l-57 57h-144v36h181v84h-293v-200h185l16 -16v-18l-16 -16h-190v-86z" />
    <glyph glyph-name="uni277B" unicode="&#x277b;" horiz-adv-x="1012" 
d="M266 -60l-180 180v450l180 180h480l180 -180v-450l-180 -180h-480zM399 177h217l57 57v103l-55 55h-167v19l16 16h186v86h-254l-60 -60v-216zM466 261l-15 15v44h94l16 -16v-28l-15 -15h-80z" />
    <glyph glyph-name="uni277C" unicode="&#x277c;" horiz-adv-x="1012" 
d="M266 -60l-180 180v450l180 180h480l180 -180v-450l-180 -180h-480zM409 177h107l146 237v99h-305v-91h182v-8l-130 -206v-31z" />
    <glyph glyph-name="uni277D" unicode="&#x277d;" horiz-adv-x="1012" 
d="M266 -60l-180 180v450l180 180h480l180 -180v-450l-180 -180h-480zM389 177h234l55 55v78l-42 42l32 33v73l-55 55h-214l-55 -55v-73l32 -33l-42 -42v-78zM468 384l-14 14v19l12 12h80l12 -12v-19l-14 -14h-76zM459 261l-13 13v22l16 16h88l16 -16v-22l-13 -13h-94z" />
    <glyph glyph-name="uni277E" unicode="&#x277e;" horiz-adv-x="1012" 
d="M266 -60l-180 180v450l180 180h480l180 -180v-450l-180 -180h-480zM359 177h254l60 60v216l-60 60h-217l-57 -57v-103l55 -55h167v-19l-16 -16h-186v-86zM467 370l-16 16v28l15 15h80l15 -15v-44h-94z" />
    <glyph glyph-name="uni277F" unicode="&#x277f;" horiz-adv-x="1012" 
d="M266 -60l-180 180v450l180 180h480l180 -180v-450l-180 -180h-480zM265 177h194v78h-48v258h-138v-78h44v-180h-52v-78zM550 177h131l70 70v196l-70 70h-131l-70 -70v-196zM592 261l-18 19v130l18 19h46l19 -19v-130l-19 -19h-46z" />
    <glyph glyph-name="uni2B6E" unicode="&#x2b6e;" horiz-adv-x="1040" 
d="M316 0l-110 110v396l110 110h193v10l-69 67l65 64l198 -199l-200 -200l-64 65l70 67v10h-145l-42 -42v-300l42 -42h322l42 42v314h116v-362l-110 -110h-418z" />
    <glyph glyph-name="uni2B80" unicode="&#x2b80;" horiz-adv-x="1040" 
d="M311 367l-202 201l201 201l69 -69l-66 -64v-11h414v12l-66 63l70 69l200 -200l-202 -202l-68 69l66 65v10h-414v-11l66 -64zM311 -42l-202 201l201 201l69 -69l-66 -64v-11h414v12l-66 63l70 69l200 -200l-202 -202l-68 69l66 65v10h-414v-11l66 -64z" />
    <glyph glyph-name="uni2B81" unicode="&#x2b81;" horiz-adv-x="1040" 
d="M246 0v503h-10l-107 -108l-79 79l260 261l263 -262l-79 -79l-110 109h-10v-503h-128zM728 -35l-261 261l79 79l108 -108h10v503h128v-503h10l109 109l79 -79z" />
    <glyph glyph-name="uni2B82" unicode="&#x2b82;" horiz-adv-x="1040" 
d="M643 297l-79 79l109 110v10h-503v128h503v10l-108 107l79 79l261 -260zM397 -120l-262 262l261 261l79 -79l-108 -108v-10h503v-128h-503v-10l109 -109z" />
    <glyph glyph-name="uni2B83" unicode="&#x2b83;" horiz-adv-x="1040" 
d="M666 0v503h-10l-110 -109l-79 79l263 262l260 -261l-79 -79l-107 108h-10v-503h-128zM312 -35l-262 262l79 79l109 -109h10v503h128v-503h10l108 108l79 -79z" />
    <glyph glyph-name="brevecombcy.case" unicode="&#xf6d1;" 
d="M-320 746l-61 61v81h104v-39l12 -12h119l12 12v39h104v-81l-61 -61h-229z" />
    <glyph glyph-name="brevecomb-cy" unicode="&#xf6d4;" 
d="M-305 560l-61 61v99h102v-57l14 -14h104l14 14v57h102v-99l-61 -61h-214z" />
    <glyph glyph-name="zero.osf" unicode="&#xf730;" horiz-adv-x="659" 
d="M174 0l-118 118v267l118 118h311l118 -118v-267l-118 -118h-311zM256 130h147l41 41v161l-41 41h-147l-41 -41v-161z" />
    <glyph glyph-name="one.osf" unicode="&#xf731;" horiz-adv-x="527" 
d="M22 0v130h188v243h-160v130h319v-373h173v-130h-520z" />
    <glyph glyph-name="two.osf" unicode="&#xf732;" horiz-adv-x="629" 
d="M45 0v209l98 98h262l18 19v39l-18 18h-334v120h419l92 -91v-128l-92 -92h-261l-25 -25v-42h370v-125h-529z" />
    <glyph glyph-name="three.osf" unicode="&#xf733;" horiz-adv-x="596" 
d="M21 -140v130h332l44 44v45l-45 45h-236v130h218l43 43v39l-37 37h-306v130h388l114 -114v-120l-69 -69l89 -90v-129l-121 -121h-414z" />
    <glyph glyph-name="four.osf" unicode="&#xf734;" horiz-adv-x="682" 
d="M422 -140v148h-381v164l309 331h217v-365h90v-130h-90v-148h-145zM202 138h220v232h-19l-201 -216v-16z" />
    <glyph glyph-name="five.osf" unicode="&#xf735;" horiz-adv-x="627" 
d="M51 -140v130h327l44 44v62l-44 44h-307v363h477v-130h-320v-103h232l121 -121v-168l-121 -121h-409z" />
    <glyph glyph-name="six.osf" unicode="&#xf736;" horiz-adv-x="669" 
d="M504 440l118 -118v-204l-118 -118h-337l-118 118v190l242 335h154v-41l-105 -146v-16h164zM463 171v98l-41 41h-187l-27 -38v-101l41 -41h173z" />
    <glyph glyph-name="seven.osf" unicode="&#xf737;" horiz-adv-x="618" 
d="M157 -140v198l257 263v46h-396v136h555v-228l-257 -263v-152h-159z" />
    <glyph glyph-name="eight.osf" unicode="&#xf738;" horiz-adv-x="670" 
d="M168 0l-112 112v138l89 89l-69 68v129l107 107h304l107 -107v-129l-69 -68l89 -89v-138l-112 -112h-334zM271 387h128l36 36v60l-30 30h-140l-30 -30v-60zM250 130h170l35 35v63l-42 42h-156l-42 -42v-63z" />
    <glyph glyph-name="nine.osf" unicode="&#xf739;" horiz-adv-x="669" 
d="M502 503l118 -118v-189l-242 -336h-154v41l105 146v16h-164l-118 118v204l118 118h337zM247 193h187l27 38v101l-41 41h-173l-41 -41v-98z" />
    <glyph glyph-name="A_A" horiz-adv-x="1689" 
d="M1364 700l306 -650v-50h-166l-63 142h-383l-63 -142h-302l-63 142h-383l-63 -142h-165v50l305 650h229l272 -577h40l270 577h229zM311 287h255l-115 259h-25zM1122 287h255l-115 259h-25z" />
    <glyph glyph-name="Adieresis_Adieresis" horiz-adv-x="1689" 
d="M407 880v-118h-142v118h142zM611 880v-118h-142v118h142zM1218 880v-118h-142v118h142zM1422 880v-118h-142v118h142zM1364 700l306 -650v-50h-166l-63 142h-383l-63 -142h-302l-63 142h-383l-63 -142h-165v50l305 650h229l272 -577h40l270 577h229zM311 287h255
l-115 259h-25zM1122 287h255l-115 259h-25z" />
    <glyph glyph-name="E_E" horiz-adv-x="1475" 
d="M91 0v700h607v-145h-437v-135h327v-134h-327v-146h548v560h616v-145h-446v-135h336v-134h-336v-146h456v-140h-1344z" />
    <glyph glyph-name="F_l" horiz-adv-x="999" 
d="M91 0v700h837v-700h-159v555h-508v-175h332v-138h-332v-242h-170z" />
    <glyph glyph-name="M_M" horiz-adv-x="1817" 
d="M91 0v700h255l187 -412h22l185 412h339l187 -412h22l184 412h254v-700h-167v511h-15l-187 -410h-167l-184 410h-17v-511h-161v511h-17l-188 -410h-166l-183 410h-16v-511h-167z" />
    <glyph glyph-name="N_N" horiz-adv-x="1492" 
d="M91 0v700h252l307 -518h18v518h247l307 -518h17v518h162v-700h-252l-307 518h-18v-518h-247l-307 518h-17v-518h-162z" />
    <glyph glyph-name="T_T" horiz-adv-x="1344" 
d="M273 0v555h-263v145h1324v-145h-263v-555h-170v555h-458v-555h-170z" />
    <glyph glyph-name="_ijdotless" horiz-adv-x="582" 
d="M66 -200v128h274l17 17v558h159v-611l-92 -92h-358zM66 0v503h159v-503h-159z" />
    <glyph glyph-name="snglring" horiz-adv-x="1012" 
d="M266 -60l-180 180v450l180 180h480l180 -180v-450l-180 -180h-480zM317 39h378l122 122v368l-122 122h-378l-122 -122v-368z" />
    <glyph glyph-name="i.loclTRK" horiz-adv-x="291" 
d="M64 582v118h163v-118h-163zM66 0v503h159v-503h-159z" />
    <glyph glyph-name="j.alt" horiz-adv-x="291" 
d="M64 582v118h163v-118h-163zM66 -200v703h159v-703h-159z" />
    <glyph glyph-name="jcircumflex.alt" horiz-adv-x="291" 
d="M-38 560v33l112 137h145l110 -136v-34h-109l-65 87h-19l-65 -87h-109zM66 -200v703h159v-703h-159z" />
    <glyph glyph-name="uni0237.alt" horiz-adv-x="291" 
d="M66 -200v703h159v-703h-159z" />
    <glyph glyph-name="uni0308.alt" 
d="M-342 591v121h133v-121h-133zM-163 591v121h133v-121h-133z" />
    <glyph glyph-name="uni0308.alt.case" 
d="M-342 761v121h133v-121h-133zM-163 761v121h133v-121h-133z" />
    <glyph glyph-name="uni030C.alt" 
d="M-163 550v13l9 167h124v-13l-36 -167h-97z" />
    <glyph glyph-name="uni0328.alt" 
d="M-149 -218l-54 54v104l106 106l60 -46l-72 -72v-48l11 -11h68v-87h-119z" />
    <glyph glyph-name="uni0492.balt" horiz-adv-x="676" 
d="M659 555h-398v-188h286v-95h-286v-272h-170v700h568v-145z" />
    <glyph glyph-name="uni0493.balt" horiz-adv-x="503" 
d="M488 373h-263v-111h197v-87h-197v-175h-159v503h422v-130z" />
    <glyph glyph-name="uni04AA.balt" horiz-adv-x="728" 
d="M301 555l-60 -60v-290l60 -60h383v-145h-224l-7 -23v-9h49l56 -56v-74l-56 -56h-180v78h132l10 10v16l-10 10h-102v36l20 68h-155l-146 146v408l146 146h467v-145h-383z" />
    <glyph glyph-name="uni04AB.balt" horiz-adv-x="567" 
d="M256 373l-41 -41v-161l41 -41h264v-130h-154l-7 -23v-9h49l56 -56v-74l-56 -56h-180v78h132l10 10v16l-10 10h-102v36l20 68h-104l-118 118v267l118 118h346v-130h-264z" />
    <glyph glyph-name="colon.calt" horiz-adv-x="318" 
d="M76 435v148h166v-148h-166zM76 80v148h166v-148h-166z" />
    <glyph glyph-name="parenleft.case" horiz-adv-x="421" 
d="M199 -145l-108 108v744l108 108h168v-142h-90l-34 -34v-608l34 -34h90v-142h-168z" />
    <glyph glyph-name="parenright.case" horiz-adv-x="421" 
d="M54 -145v142h90l34 34v608l-34 34h-90v142h168l108 -108v-744l-108 -108h-168z" />
    <glyph glyph-name="hyphen.case" horiz-adv-x="452" 
d="M64 274v132h324v-132h-324z" />
    <glyph glyph-name="at.case" horiz-adv-x="988" 
d="M234 -71l-160 160v492l160 160h530l160 -160v-338l-103 -103h-158l-49 49l-49 -49h-171l-86 86v218l86 86h274v-265l30 -30h75l36 36v268l-97 97h-426l-97 -97v-408l97 -97h540v-105h-592zM445 235h88l30 30v170h-118l-32 -32v-136z" />
    <glyph glyph-name="bracketleft.case" horiz-adv-x="423" 
d="M91 -145v960h278v-142h-126v-676h126v-142h-278z" />
    <glyph glyph-name="bracketright.case" horiz-adv-x="423" 
d="M54 -145v142h126v676h-126v142h278v-960h-278z" />
    <glyph glyph-name="braceleft.case" horiz-adv-x="463" 
d="M243 -145l-108 108v300h-89v142h89v302l108 108h166v-142h-88l-34 -34v-608l34 -34h88v-142h-166z" />
    <glyph glyph-name="braceright.case" horiz-adv-x="463" 
d="M54 -145v142h88l34 34v608l-34 34h-88v142h166l108 -108v-302h89v-142h-89v-300l-108 -108h-166z" />
    <glyph glyph-name="exclamdown.case" horiz-adv-x="371" 
d="M103 552v148h166v-148h-166zM104 0v331l21 160h122l21 -160v-331h-164z" />
    <glyph glyph-name="guillemotleft.case" horiz-adv-x="655" 
d="M254 69l-223 261l223 262l98 -80l-158 -182l159 -182zM516 69l-223 261l223 262l98 -80l-158 -182l159 -182z" />
    <glyph glyph-name="periodcentered.case" horiz-adv-x="340" 
d="M87 278v148h166v-148h-166z" />
    <glyph glyph-name="guillemotright.case" horiz-adv-x="655" 
d="M139 69l-99 79l159 182l-158 182l98 80l223 -262zM401 69l-99 79l159 182l-158 182l98 80l223 -262z" />
    <glyph glyph-name="questiondown.case" horiz-adv-x="727" 
d="M357 552v148h166v-148h-166zM200 0l-123 123v176l123 123h151l12 12v57h154v-127l-76 -76h-155l-41 -41v-72l41 -41h371v-134h-457z" />
    <glyph glyph-name="gravecomb.case" 
d="M-141 746l-79 137v13h134l56 -137v-13h-111z" />
    <glyph glyph-name="acutecomb.case" 
d="M-220 746v13l56 137h134v-13l-79 -137h-111z" />
    <glyph glyph-name="uni0302.case" 
d="M-404 746v30l115 112h145l113 -110v-32h-115l-63 64h-16l-64 -64h-115z" />
    <glyph glyph-name="tildecomb.case" 
d="M-403 746v83l55 55h121l48 -49h38l9 9v40h102v-83l-55 -55h-125l-48 49h-34l-9 -9v-40h-102z" />
    <glyph glyph-name="uni0304.case" 
d="M-350 772v96h320v-96h-320z" />
    <glyph glyph-name="uni0306.case" 
d="M-320 746l-61 61v81h104v-39l12 -12h119l12 12v39h104v-81l-61 -61h-229z" />
    <glyph glyph-name="uni0307.case" 
d="M-193 762v118h163v-118h-163z" />
    <glyph glyph-name="uni0308.case" 
d="M-376 762v118h142v-118h-142zM-172 762v118h142v-118h-142z" />
    <glyph glyph-name="uni030A.case" 
d="M-251 725l-61 61v103l61 61h160l61 -61v-103l-61 -61h-160zM-209 803h76l14 14v41l-14 14h-76l-14 -14v-41z" />
    <glyph glyph-name="uni030B.case" 
d="M-380 746v13l43 137h128v-13l-64 -137h-107zM-207 746v13l50 137h127v-13l-70 -137h-107z" />
    <glyph glyph-name="uni030C.case" 
d="M-290 746l-114 112v30h116l63 -64h16l64 64h114v-32l-113 -110h-146z" />
    <glyph glyph-name="endash.case" horiz-adv-x="600" 
d="M44 282v116h512v-116h-512z" />
    <glyph glyph-name="emdash.case" horiz-adv-x="950" 
d="M44 282v116h862v-116h-862z" />
    <glyph glyph-name="bullet.case" horiz-adv-x="411" 
d="M114 266v178h183v-178h-183z" />
    <glyph glyph-name="guilsinglleft.case" horiz-adv-x="434" 
d="M303 63l-272 267l270 265l90 -90l-183 -175l185 -178z" />
    <glyph glyph-name="guilsinglright.case" horiz-adv-x="434" 
d="M130 63l-90 89l185 178l-182 175l90 90l270 -265z" />
    <glyph glyph-name="dollar.dnom" horiz-adv-x="339" 
d="M147 -50v50h-130v86h189l11 11v20l-10 10h-136l-61 61v88l60 60h77v50h60v-50h112v-84h-187l-10 -10v-20l11 -11h136l60 -60v-91l-60 -60h-62v-50h-60z" />
    <glyph glyph-name="zero.dnom" horiz-adv-x="411" 
d="M109 0l-70 70v196l70 70h193l70 -70v-196l-70 -70h-193zM171 89h69l20 20v118l-20 20h-69l-20 -20v-118z" />
    <glyph glyph-name="one.dnom" horiz-adv-x="392" 
d="M64 0v89h87v158h-79v89h191v-247h79v-89h-278z" />
    <glyph glyph-name="two.dnom" horiz-adv-x="418" 
d="M39 0v143l65 65h150l15 15v14l-15 15h-202v84h269l60 -60v-88l-60 -60h-152l-18 -18v-24h220v-86h-332z" />
    <glyph glyph-name="three.dnom" horiz-adv-x="404" 
d="M39 0v84h208l13 13v16l-16 16h-125v80h115l16 16v14l-13 13h-190v84h260l55 -55v-70l-31 -32l41 -42v-82l-55 -55h-278z" />
    <glyph glyph-name="four.dnom" horiz-adv-x="381" 
d="M191 0v54h-204v90l168 192h142v-200h45v-82h-45v-54h-106zM101 136h90v101h-8l-82 -94v-7z" />
    <glyph glyph-name="five.dnom" horiz-adv-x="402" 
d="M48 0v86h190l16 16v18l-16 16h-185v200h293v-84h-181v-36h144l57 -57v-102l-57 -57h-261z" />
    <glyph glyph-name="six.dnom" horiz-adv-x="400" 
d="M99 0l-60 60v216l60 60h254v-86h-186l-16 -16v-19h167l55 -55v-103l-57 -57h-217zM166 84h80l15 15v28l-16 16h-94v-44z" />
    <glyph glyph-name="seven.dnom" horiz-adv-x="341" 
d="M93 0v31l131 206v8h-183v91h305v-99l-145 -237h-108z" />
    <glyph glyph-name="eight.dnom" horiz-adv-x="422" 
d="M94 0l-55 55v78l42 42l-32 33v73l55 55h214l55 -55v-73l-32 -33l42 -42v-78l-55 -55h-234zM173 207h76l14 14v19l-12 12h-80l-12 -12v-19zM164 84h94l13 13v22l-16 16h-88l-16 -16v-22z" />
    <glyph glyph-name="nine.dnom" horiz-adv-x="400" 
d="M47 0v86h186l16 16v19h-167l-55 55v103l57 57h217l60 -60v-216l-60 -60h-254zM155 193h94v44l-15 15h-81l-14 -15v-28z" />
    <glyph glyph-name="cent.dnom" horiz-adv-x="311" 
d="M166 -31v50h-84l-72 72v161l72 72h84v50h60v-50h85v-89h-85v-127h85v-89h-85v-50h-60zM139 108h27v127h-27l-23 -23v-81z" />
    <glyph glyph-name="sterling.dnom" horiz-adv-x="329" 
d="M10 0v89h50v50h-45v60h45v77l60 60h190v-89h-121l-17 -17v-31h112v-60h-112v-50h152v-89h-314z" />
    <glyph glyph-name="yen.dnom" horiz-adv-x="372" 
d="M368 336v-22l-90 -153h58v-45h-85l-10 -17v-13h95v-45h-95v-41h-112v41h-95v45h95v15l-9 15h-86v45h60l-90 153v22h97l81 -148h11l81 148h94z" />
    <glyph glyph-name="florin.dnom" horiz-adv-x="294" 
d="M228 247l-12 -12l-8 -51h66v-60h-76l-22 -141l-53 -54h-119v90h61l12 12l15 93h-49v60h58l16 100l52 52h120v-89h-61z" />
    <glyph glyph-name="uni20A9.dnom" horiz-adv-x="466" 
d="M462 191h-51l-10 -45h61v-45h-70l-21 -101h-124l-15 104h-5l-20 -104h-118l-19 101h-66v45h57l-8 45h-49v45h40l-15 82v18h95l38 -241h7l30 132l-11 91v18h79l26 -241h7l46 241h91v-18l-17 -82h42v-45z" />
    <glyph glyph-name="Euro.dnom" horiz-adv-x="363" 
d="M119 0l-70 70v45h-45v45h45v19h-45v45h45v42l70 70h236v-84h-176l-18 -19v-9h129v-45h-129v-19h129v-45h-129v-12l18 -19h176v-84h-236z" />
    <glyph glyph-name="uni20B4.dnom" horiz-adv-x="373" 
d="M10 180v45h222v21l-6 6h-181v84h246l47 -47v-64h25v-45h-353zM82 0l-47 47v64h-25v45h353v-45h-222v-21l6 -6h187v-84h-252z" />
    <glyph glyph-name="uni20B8.dnom" horiz-adv-x="320" 
d="M0 291v45h320v-45h-320zM104 0v178h-104v85h320v-85h-104v-178h-112z" />
    <glyph glyph-name="uni20B9.dnom" horiz-adv-x="355" 
d="M185 0l-175 80v101h178l12 12v12h-190v45h190v12l-12 12h-178v62h338v-45h-45v-41h45v-45h-45v-30l-56 -56h-122v-9l184 -76v-34h-124z" />
    <glyph glyph-name="uni20BA.dnom" horiz-adv-x="378" 
d="M262 142h112v-76l-66 -66h-246v107l-34 -12h-18v41l52 18v32l-34 -12h-18v41l52 18v103h112v-63l111 39h18v-41l-129 -46v-31l111 39h18v-41l-129 -46v-57h73l15 16v37z" />
    <glyph glyph-name="uni20BD.dnom" horiz-adv-x="383" 
d="M52 0v39h-45v45h45v24h-45v45h45v183h267l60 -60v-108l-60 -60h-155v-24h155v-45h-155v-39h-112zM164 189h90l13 14v36l-12 13h-91v-63z" />
    <glyph glyph-name="uni20BF.dnom" horiz-adv-x="365" 
d="M92 -50v50h-77v330h77v50h60v-50h30v50h60v-50h51l55 -55v-69l-26 -26l38 -39v-86l-55 -55h-63v-50h-60v50h-30v-50h-60zM127 205h98l11 11v22l-12 12h-97v-45zM127 80h109l12 12v31l-11 12h-110v-55z" />
    <glyph glyph-name="Iacute_J.loclNLD" horiz-adv-x="1149" 
d="M219 746v13l56 137h134v-13l-79 -137h-111zM789 746v13l56 137h134v-13l-79 -137h-111zM51 0v133h140v434h-140v133h450v-133h-140v-434h140v-133h-450zM585 0v148h259l54 54v353h-274v145h444v-557l-143 -143h-340z" />
    <glyph glyph-name="iacute_j.loclNLD" horiz-adv-x="582" 
d="M93 560v13l64 165h130v-13l-93 -165h-101zM384 560v13l64 165h130v-13l-93 -165h-101zM66 -200v128h274l17 17v558h159v-611l-92 -92h-358zM66 0v503h159v-503h-159z" />
    <glyph glyph-name="dollar.numr" horiz-adv-x="339" 
d="M147 314v50h-130v86h189l11 11v20l-10 10h-136l-61 61v88l60 60h77v50h60v-50h112v-84h-187l-10 -10v-20l11 -11h136l60 -60v-91l-60 -60h-62v-50h-60z" />
    <glyph glyph-name="zero.numr" horiz-adv-x="411" 
d="M109 364l-70 70v196l70 70h193l70 -70v-196l-70 -70h-193zM171 453h69l20 20v118l-20 20h-69l-20 -20v-118z" />
    <glyph glyph-name="one.numr" horiz-adv-x="392" 
d="M64 364v89h87v158h-79v89h191v-247h79v-89h-278z" />
    <glyph glyph-name="two.numr" horiz-adv-x="418" 
d="M39 364v143l65 65h150l15 15v14l-15 15h-202v84h269l60 -60v-88l-60 -60h-152l-18 -18v-24h220v-86h-332z" />
    <glyph glyph-name="three.numr" horiz-adv-x="404" 
d="M39 364v84h208l13 13v16l-16 16h-125v80h115l16 16v14l-13 13h-190v84h260l55 -55v-70l-31 -32l41 -42v-82l-55 -55h-278z" />
    <glyph glyph-name="four.numr" horiz-adv-x="381" 
d="M191 364v54h-204v90l168 192h142v-200h45v-82h-45v-54h-106zM101 500h90v101h-8l-82 -94v-7z" />
    <glyph glyph-name="five.numr" horiz-adv-x="402" 
d="M48 364v86h190l16 16v18l-16 16h-185v200h293v-84h-181v-36h144l57 -57v-102l-57 -57h-261z" />
    <glyph glyph-name="six.numr" horiz-adv-x="400" 
d="M99 364l-60 60v216l60 60h254v-86h-186l-16 -16v-19h167l55 -55v-103l-57 -57h-217zM166 448h80l15 15v28l-16 16h-94v-44z" />
    <glyph glyph-name="seven.numr" horiz-adv-x="341" 
d="M93 364v31l131 206v8h-183v91h305v-99l-145 -237h-108z" />
    <glyph glyph-name="eight.numr" horiz-adv-x="422" 
d="M94 364l-55 55v78l42 42l-32 33v73l55 55h214l55 -55v-73l-32 -33l42 -42v-78l-55 -55h-234zM173 571h76l14 14v19l-12 12h-80l-12 -12v-19zM164 448h94l13 13v22l-16 16h-88l-16 -16v-22z" />
    <glyph glyph-name="nine.numr" horiz-adv-x="400" 
d="M47 364v86h186l16 16v19h-167l-55 55v103l57 57h217l60 -60v-216l-60 -60h-254zM155 557h94v44l-15 15h-81l-14 -15v-28z" />
    <glyph glyph-name="cent.numr" horiz-adv-x="311" 
d="M166 326v50h-84l-72 72v161l72 72h84v50h60v-50h85v-89h-85v-127h85v-89h-85v-50h-60zM139 465h27v127h-27l-23 -23v-81z" />
    <glyph glyph-name="sterling.numr" horiz-adv-x="329" 
d="M10 364v89h50v50h-45v60h45v77l60 60h190v-89h-121l-17 -17v-31h112v-60h-112v-50h152v-89h-314z" />
    <glyph glyph-name="yen.numr" horiz-adv-x="372" 
d="M368 700v-22l-90 -153h58v-45h-85l-10 -17v-13h95v-45h-95v-41h-112v41h-95v45h95v15l-9 15h-86v45h60l-90 153v22h97l81 -148h11l81 148h94z" />
    <glyph glyph-name="florin.numr" horiz-adv-x="294" 
d="M228 611l-12 -12l-8 -51h66v-60h-76l-22 -141l-53 -54h-119v90h61l12 12l15 93h-49v60h58l16 100l52 52h120v-89h-61z" />
    <glyph glyph-name="uni20A9.numr" horiz-adv-x="466" 
d="M462 555h-51l-10 -45h61v-45h-70l-21 -101h-124l-15 104h-5l-20 -104h-118l-19 101h-66v45h57l-8 45h-49v45h40l-15 82v18h95l38 -241h7l30 132l-11 91v18h79l26 -241h7l46 241h91v-18l-17 -82h42v-45z" />
    <glyph glyph-name="Euro.numr" horiz-adv-x="363" 
d="M119 364l-70 70v45h-45v45h45v19h-45v45h45v42l70 70h236v-84h-176l-18 -19v-9h129v-45h-129v-19h129v-45h-129v-12l18 -19h176v-84h-236z" />
    <glyph glyph-name="uni20B4.numr" horiz-adv-x="373" 
d="M10 544v45h222v21l-6 6h-181v84h246l47 -47v-64h25v-45h-353zM82 364l-47 47v64h-25v45h353v-45h-222v-21l6 -6h187v-84h-252z" />
    <glyph glyph-name="uni20B8.numr" horiz-adv-x="320" 
d="M0 655v45h320v-45h-320zM104 364v178h-104v85h320v-85h-104v-178h-112z" />
    <glyph glyph-name="uni20B9.numr" horiz-adv-x="355" 
d="M185 364l-175 80v101h178l12 12v12h-190v45h190v12l-12 12h-178v62h338v-45h-45v-41h45v-45h-45v-30l-56 -56h-122v-9l184 -76v-34h-124z" />
    <glyph glyph-name="uni20BA.numr" horiz-adv-x="378" 
d="M262 506h112v-76l-66 -66h-246v107l-34 -12h-18v41l52 18v32l-34 -12h-18v41l52 18v103h112v-63l111 39h18v-41l-129 -46v-31l111 39h18v-41l-129 -46v-57h73l15 16v37z" />
    <glyph glyph-name="uni20BD.numr" horiz-adv-x="383" 
d="M52 364v39h-45v45h45v24h-45v45h45v183h267l60 -60v-108l-60 -60h-155v-24h155v-45h-155v-39h-112zM164 553h90l13 14v36l-12 13h-91v-63z" />
    <glyph glyph-name="uni20BF.numr" horiz-adv-x="365" 
d="M92 320v50h-77v330h77v50h60v-50h30v50h60v-50h51l55 -55v-69l-26 -26l38 -39v-86l-55 -55h-63v-50h-60v50h-30v-50h-60zM127 575h98l11 11v22l-12 12h-97v-45zM127 450h109l12 12v31l-11 12h-110v-55z" />
    <glyph glyph-name="plus.osf" horiz-adv-x="580" 
d="M232 0v194h-195v116h195v193h116v-193h195v-116h-195v-194h-116z" />
    <glyph glyph-name="zero.osf.zero" horiz-adv-x="659" 
d="M485 503l118 -118v-267l-118 -118h-311l-118 118v267l118 118h311zM256 373l-41 -41v-133l213 149l-25 25h-147zM403 130l41 41v134l-213 -150l25 -25h147z" />
    <glyph glyph-name="less.osf" horiz-adv-x="437" 
d="M298 -10l-261 260l261 261l82 -83l-177 -178l177 -178z" />
    <glyph glyph-name="equal.osf" horiz-adv-x="580" 
d="M55 293v116h470v-116h-470zM55 91v116h470v-116h-470z" />
    <glyph glyph-name="greater.osf" horiz-adv-x="437" 
d="M140 -10l-83 82l177 178l-177 178l83 83l260 -261z" />
    <glyph glyph-name="asciitilde.osf" horiz-adv-x="580" 
d="M57 170v96l68 68h154l64 -70h66l16 16v54h99v-96l-68 -68h-149l-64 70h-71l-16 -16v-54h-99z" />
    <glyph glyph-name="logicalnot.osf" horiz-adv-x="580" 
d="M412 120v93h-357v113h470v-206h-113z" />
    <glyph glyph-name="plusminus.osf" horiz-adv-x="580" 
d="M55 0v113h177v127h-177v113h177v150h116v-150h177v-113h-177v-127h177v-113h-470z" />
    <glyph glyph-name="multiply.osf" horiz-adv-x="580" 
d="M122 5l-78 79l166 167l-166 168l78 79l168 -166l168 167l78 -80l-166 -168l166 -167l-78 -79l-168 166z" />
    <glyph glyph-name="divide.osf" horiz-adv-x="580" 
d="M228 377v126h124v-126h-124zM45 194v116h490v-116h-490zM228 0v126h124v-126h-124z" />
    <glyph glyph-name="minus.osf" horiz-adv-x="580" 
d="M45 194v116h490v-116h-490z" />
    <glyph glyph-name="approxequal.osf" horiz-adv-x="580" 
d="M57 264v96l68 68h154l64 -70h66l16 16v54h99v-96l-68 -68h-149l-64 70h-71l-16 -16v-54h-99zM57 74v96l68 68h154l64 -70h66l16 16v54h99v-96l-68 -68h-149l-64 70h-71l-16 -16v-54h-99z" />
    <glyph glyph-name="notequal.osf" horiz-adv-x="580" 
d="M525 293h-165l-36 -86h201v-116h-249l-45 -106h-93v28l33 78h-116v116h165l36 86h-201v116h249l45 106h93v-28l-33 -78h116v-116z" />
    <glyph glyph-name="lessequal.osf" horiz-adv-x="388" 
d="M240 124l-193 195l193 192l75 -75l-120 -119l119 -120zM342 0h-295v95h295v-95z" />
    <glyph glyph-name="greaterequal.osf" horiz-adv-x="388" 
d="M148 124l-74 73l120 120l-121 119l75 75l194 -192zM47 0v95h295v-95h-295z" />
    <glyph glyph-name="I.ss01" horiz-adv-x="352" 
d="M91 0v700h170v-700h-170z" />
    <glyph glyph-name="Igrave.ss01" horiz-adv-x="352" 
d="M123 746l-79 137v13h134l56 -137v-13h-111zM91 0v700h170v-700h-170z" />
    <glyph glyph-name="Iacute.ss01" horiz-adv-x="352" 
d="M119 746v13l56 137h134v-13l-79 -137h-111zM91 0v700h170v-700h-170z" />
    <glyph glyph-name="Icircumflex.ss01" horiz-adv-x="352" 
d="M-10 746v30l115 112h145l113 -110v-32h-115l-63 64h-16l-64 -64h-115zM91 0v700h170v-700h-170z" />
    <glyph glyph-name="Idieresis.ss01" horiz-adv-x="352" 
d="M20 761v121h133v-121h-133zM199 761v121h133v-121h-133zM91 0v700h170v-700h-170z" />
    <glyph glyph-name="Imacron.ss01" horiz-adv-x="352" 
d="M16 772v96h320v-96h-320zM91 0v700h170v-700h-170z" />
    <glyph glyph-name="Ibreve.ss01" horiz-adv-x="352" 
d="M62 746l-61 61v81h104v-39l12 -12h119l12 12v39h104v-81l-61 -61h-229zM91 0v700h170v-700h-170z" />
    <glyph glyph-name="Iogonek.ss01" horiz-adv-x="352" 
d="M261 0l-101 -82v-38l11 -11h77v-87h-128l-54 54v105l73 59h-48v700h170v-700z" />
    <glyph glyph-name="Idotaccent.ss01" horiz-adv-x="352" 
d="M95 762v118h163v-118h-163zM91 0v700h170v-700h-170z" />
    <glyph glyph-name="IJ.ss01" horiz-adv-x="805" 
d="M91 0v148h409l54 54v353h-214v145h384v-557l-143 -143h-490zM91 220v480h170v-480h-170z" />
    <glyph glyph-name="uni0406.ss01" horiz-adv-x="352" 
d="M91 0v700h170v-700h-170z" />
    <glyph glyph-name="uni0407.ss01" horiz-adv-x="352" 
d="M20 761v121h133v-121h-133zM199 761v121h133v-121h-133zM91 0v700h170v-700h-170z" />
    <glyph glyph-name="Iacute_J_loclNLD.ss01" horiz-adv-x="805" 
d="M119 746v13l56 137h134v-13l-79 -137h-111zM475 746v13l56 137h134v-13l-79 -137h-111zM91 0v148h409l54 54v353h-214v145h384v-557l-143 -143h-490zM91 220v480h170v-480h-170z" />
    <glyph glyph-name="a.ss02" horiz-adv-x="655" 
d="M174 0l-118 118v267l118 118h415v-503h-132v45h-22l-54 -45h-207zM256 130h119l55 43v200h-174l-41 -41v-161z" />
    <glyph glyph-name="agrave.ss02" horiz-adv-x="655" 
d="M297 560l-93 165v13h130l64 -165v-13h-101zM174 0l-118 118v267l118 118h415v-503h-132v45h-22l-54 -45h-207zM256 130h119l55 43v200h-174l-41 -41v-161z" />
    <glyph glyph-name="aacute.ss02" horiz-adv-x="655" 
d="M294 560v13l64 165h130v-13l-93 -165h-101zM174 0l-118 118v267l118 118h415v-503h-132v45h-22l-54 -45h-207zM256 130h119l55 43v200h-174l-41 -41v-161z" />
    <glyph glyph-name="acircumflex.ss02" horiz-adv-x="655" 
d="M163 560v33l112 137h145l110 -136v-34h-109l-65 87h-19l-65 -87h-109zM174 0l-118 118v267l118 118h415v-503h-132v45h-22l-54 -45h-207zM256 130h119l55 43v200h-174l-41 -41v-161z" />
    <glyph glyph-name="atilde.ss02" horiz-adv-x="655" 
d="M158 565v95l55 55h125l53 -61h33l9 9v52h102v-95l-55 -55h-125l-53 61h-33l-9 -9v-52h-102zM174 0l-118 118v267l118 118h415v-503h-132v45h-22l-54 -45h-207zM256 130h119l55 43v200h-174l-41 -41v-161z" />
    <glyph glyph-name="adieresis.ss02" horiz-adv-x="655" 
d="M174 592v118h142v-118h-142zM378 592v118h142v-118h-142zM174 0l-118 118v267l118 118h415v-503h-132v45h-22l-54 -45h-207zM256 130h119l55 43v200h-174l-41 -41v-161z" />
    <glyph glyph-name="aring.ss02" horiz-adv-x="655" 
d="M270 547l-61 61v114l61 61h154l61 -61v-114l-61 -61h-154zM312 625h70l14 14v52l-14 14h-70l-14 -14v-52zM174 0l-118 118v267l118 118h415v-503h-132v45h-22l-54 -45h-207zM256 130h119l55 43v200h-174l-41 -41v-161z" />
    <glyph glyph-name="amacron.ss02" horiz-adv-x="655" 
d="M187 602v96h320v-96h-320zM174 0l-118 118v267l118 118h415v-503h-132v45h-22l-54 -45h-207zM256 130h119l55 43v200h-174l-41 -41v-161z" />
    <glyph glyph-name="abreve.ss02" horiz-adv-x="655" 
d="M240 560l-61 61v99h102v-57l14 -14h104l14 14v57h102v-99l-61 -61h-214zM174 0l-118 118v267l118 118h415v-503h-132v45h-22l-54 -45h-207zM256 130h119l55 43v200h-174l-41 -41v-161z" />
    <glyph glyph-name="aogonek.ss02" horiz-adv-x="655" 
d="M589 0l-101 -82v-38l11 -11h77v-87h-128l-54 54v105l73 59h-10v45h-22l-54 -45h-207l-118 118v267l118 118h415v-503zM430 173v200h-174l-41 -41v-161l41 -41h119z" />
    <glyph glyph-name="uni0430.ss02" horiz-adv-x="655" 
d="M174 0l-118 118v267l118 118h415v-503h-132v45h-22l-54 -45h-207zM256 130h119l55 43v200h-174l-41 -41v-161z" />
    <glyph glyph-name="uni04D3.ss02" horiz-adv-x="655" 
d="M174 592v118h142v-118h-142zM378 592v118h142v-118h-142zM174 0l-118 118v267l118 118h415v-503h-132v45h-22l-54 -45h-207zM256 130h119l55 43v200h-174l-41 -41v-161z" />
    <glyph glyph-name="l.ss03" horiz-adv-x="301" 
d="M71 0v700h159v-700h-159z" />
    <glyph glyph-name="lacute.ss03" horiz-adv-x="301" 
d="M93 746v13l56 137h134v-13l-79 -137h-111zM71 0v700h159v-700h-159z" />
    <glyph glyph-name="uni013C.ss03" horiz-adv-x="301" 
d="M71 0v700h159v-700h-159zM105 -254l24 103h-47v119h137v-106l-46 -116h-68z" />
    <glyph glyph-name="lcaron.ss03" horiz-adv-x="301" 
d="M266 550v13l9 167h124v-13l-36 -167h-97zM71 0v700h159v-700h-159z" />
    <glyph glyph-name="ldot.ss03" horiz-adv-x="464" 
d="M71 0v700h159v-700h-159zM300 275v148h166v-148h-166z" />
    <glyph glyph-name="lslash.ss03" horiz-adv-x="348" 
d="M364 501v-87l-110 -69v-345h-159v246l-81 -51h-29v87l110 69v349h159v-250l81 51h29z" />
    <glyph glyph-name="uni0438.ss04" horiz-adv-x="641" 
d="M172 0l-111 111v392h159v-339l34 -34h115l47 38v335h159v-503h-127v40h-19l-47 -40h-210z" />
    <glyph glyph-name="uni0439.ss04" horiz-adv-x="641" 
d="M211 560l-61 61v99h102v-57l14 -14h104l14 14v57h102v-99l-61 -61h-214zM172 0l-111 111v392h159v-339l34 -34h115l47 38v335h159v-503h-127v40h-19l-47 -40h-210z" />
    <glyph glyph-name="uni045D.ss04" horiz-adv-x="641" 
d="M268 560l-93 165v13h130l64 -165v-13h-101zM172 0l-111 111v392h159v-339l34 -34h115l47 38v335h159v-503h-127v40h-19l-47 -40h-210z" />
    <glyph glyph-name="uni04E3.ss04" horiz-adv-x="641" 
d="M158 602v96h320v-96h-320zM172 0l-111 111v392h159v-339l34 -34h115l47 38v335h159v-503h-127v40h-19l-47 -40h-210z" />
    <glyph glyph-name="dollar.tf" horiz-adv-x="760" 
d="M332 -100v100h-263v145h432l34 33v67l-35 35h-321l-123 124v177l119 119h157v100h98v-100h240v-145h-411l-33 -33v-63l34 -34h321l124 -124v-182l-119 -119h-156v-100h-98z" />
    <glyph glyph-name="zero.tf" horiz-adv-x="760" 
d="M188 0l-146 146v408l146 146h384l146 -146v-408l-146 -146h-384zM272 145h216l60 60v290l-60 60h-216l-60 -60v-290z" />
    <glyph glyph-name="zero.tf.zero" horiz-adv-x="760" 
d="M572 700l146 -146v-408l-146 -146h-384l-146 146v408l146 146h384zM272 555l-60 -60v-233l334 235l-58 58h-216zM488 145l60 60v233l-334 -235l58 -58h216z" />
    <glyph glyph-name="one.tf" horiz-adv-x="760" 
d="M78 0v145h233v410h-202v145h372v-555h223v-145h-626z" />
    <glyph glyph-name="two.tf" horiz-adv-x="760" 
d="M58 0v280l131 131h309l32 32v79l-33 33h-411v145h504l110 -110v-206l-110 -111h-312l-50 -49v-79h467v-145h-637z" />
    <glyph glyph-name="three.tf" horiz-adv-x="760" 
d="M53 0v145h429l43 43v59l-42 42h-282v138h265l39 39v56l-33 33h-406v145h499l110 -110v-140l-76 -76l96 -97v-163l-114 -114h-528z" />
    <glyph glyph-name="four.tf" horiz-adv-x="760" 
d="M476 0v118h-451v178l392 404h220v-446h95v-136h-95v-118h-161zM203 254h273v285h-23l-250 -260v-25z" />
    <glyph glyph-name="five.tf" horiz-adv-x="760" 
d="M58 0v145h429l43 43v72l-43 44h-404v396h590v-145h-423v-114h330l120 -120v-201l-120 -120h-522z" />
    <glyph glyph-name="six.tf" horiz-adv-x="760" 
d="M185 0l-129 129v432l139 139h472v-145h-390l-53 -53v-54h364l129 -129v-190l-129 -129h-403zM267 145h236l44 43v80l-44 43h-279v-123z" />
    <glyph glyph-name="seven.tf" horiz-adv-x="760" 
d="M227 0v262l289 241v52h-463v145h636v-245l-292 -244v-211h-170z" />
    <glyph glyph-name="eight.tf" horiz-adv-x="760" 
d="M165 0l-120 120v156l93 93l-73 74v147l110 110h411l110 -110v-147l-74 -74l94 -93v-156l-120 -120h-431zM274 425h213l39 39v65l-34 34h-223l-34 -34v-65zM259 137h243l44 44v72l-42 41h-248l-41 -41v-72z" />
    <glyph glyph-name="nine.tf" horiz-adv-x="760" 
d="M93 0v145h390l53 53v54h-364l-129 129v190l129 129h403l129 -129v-432l-139 -139h-472zM257 389h279v123l-43 43h-236l-44 -43v-80z" />
    <glyph glyph-name="cent.tf" horiz-adv-x="760" 
d="M381 -90v90h-128l-118 118v267l118 118h128v90h98v-90h148v-130h-148v-243h148v-130h-148v-90h-98zM326 130h55v243h-55l-41 -41v-161z" />
    <glyph glyph-name="sterling.tf" horiz-adv-x="760" 
d="M55 0v145h135v161h-95v98h95v184l112 112h365v-145h-276l-31 -31v-120h247v-98h-247v-161h347v-145h-652z" />
    <glyph glyph-name="yen.tf" horiz-adv-x="760" 
d="M739 700v-50l-207 -325h141v-85h-195l-12 -19v-46h207v-85h-207v-90h-170v90h-207v85h207v46l-12 19h-195v85h140l-208 325v50h161l190 -308h25l189 308h153z" />
    <glyph glyph-name="florin.tf" horiz-adv-x="760" 
d="M520 564l-12 -12l-19 -102h136v-100h-155l-88 -463l-87 -87h-221v136h139l12 12l76 402h-95v100h114l31 163l87 87h221v-136h-139z" />
    <glyph glyph-name="uni20A9.tf" horiz-adv-x="760" 
d="M758 395h-85l-13 -85h98v-85h-111l-34 -225h-195l-31 211h-12l-36 -211h-188l-35 225h-113v85h99l-13 85h-86v85h73l-27 170v50h135l66 -543h17l60 345l-19 148v50h128l64 -543h17l65 543h130v-50l-26 -170h72v-85z" />
    <glyph glyph-name="Euro.tf" horiz-adv-x="760" 
d="M250 0l-146 146v89h-96v85h96v60h-96v85h96v89l146 146h473v-145h-388l-61 -60v-30h266v-85h-266v-60h266v-85h-266v-30l61 -60h388v-145h-473z" />
    <glyph glyph-name="uni20B4.tf" horiz-adv-x="760" 
d="M30 375v85h435l29 29v41l-25 25h-341v145h431l105 -105v-122l-10 -13h77v-85h-701zM201 0l-105 105v122l10 13h-76v85h701v-85h-436l-29 -29v-41l25 -25h363v-145h-453z" />
    <glyph glyph-name="uni20B8.tf" horiz-adv-x="760" 
d="M48 615v85h664v-85h-664zM295 0v415h-247v145h664v-145h-247v-415h-170z" />
    <glyph glyph-name="uni20B9.tf" horiz-adv-x="760" 
d="M433 0l-378 189v187h345l41 41v19h-386v86h386v19l-41 41h-345v118h647v-85h-134l43 -43v-50h91v-86h-91v-50l-128 -128h-219v-18l394 -185v-55h-225z" />
    <glyph glyph-name="uni20BA.tf" horiz-adv-x="760" 
d="M568 314h170v-162l-152 -152h-462v237l-75 -25h-22v84l97 32v66l-75 -25h-22v84l97 32v215h170v-158l260 86h22v-84l-282 -94v-65l260 86h22v-84l-282 -94v-148h217l57 57v112z" />
    <glyph glyph-name="uni20BD.tf" horiz-adv-x="760" 
d="M102 0v75h-94v85h94v60h-94v85h94v395h523l130 -130v-220l-130 -130h-353v-60h353v-85h-353v-75h-170zM272 365h265l48 48v94l-48 48h-265v-190z" />
    <glyph glyph-name="uni20BF.tf" horiz-adv-x="760" 
d="M224 -100v100h-171v700h171v100h98v-100h59v100h98v-100h101l110 -110v-142l-65 -65l100 -100v-163l-120 -120h-126v-100h-98v100h-59v-100h-98zM223 424h261l36 37v68l-34 34h-263v-139zM223 137h288l44 44v72l-41 41h-291v-157z" />
    <glyph glyph-name="zero.tosf" horiz-adv-x="637" 
d="M163 0l-118 118v267l118 118h311l118 -118v-267l-118 -118h-311zM245 130h147l41 41v161l-41 41h-147l-41 -41v-161z" />
    <glyph glyph-name="zero.tosf.zero" horiz-adv-x="637" 
d="M474 503l118 -118v-267l-118 -118h-311l-118 118v267l118 118h311zM245 373l-41 -41v-133l213 149l-25 25h-147zM392 130l41 41v134l-213 -150l25 -25h147z" />
    <glyph glyph-name="one.tosf" horiz-adv-x="637" 
d="M62 0v130h188v243h-160v130h319v-373h173v-130h-520z" />
    <glyph glyph-name="two.tosf" horiz-adv-x="637" 
d="M57 0v209l98 98h262l18 19v39l-18 18h-334v120h419l92 -91v-128l-92 -92h-261l-25 -25v-42h370v-125h-529z" />
    <glyph glyph-name="three.tosf" horiz-adv-x="637" 
d="M46 -140v130h332l44 44v45l-46 45h-235v130h218l43 43v39l-37 37h-306v130h388l114 -114v-120l-70 -69l90 -90v-129l-121 -121h-414z" />
    <glyph glyph-name="four.tosf" horiz-adv-x="637" 
d="M392 -140v148h-381v164l309 331h217v-365h90v-130h-90v-148h-145zM172 138h220v232h-19l-201 -216v-16z" />
    <glyph glyph-name="five.tosf" horiz-adv-x="637" 
d="M51 -140v130h327l44 44v62l-44 44h-307v363h477v-130h-320v-103h232l121 -121v-168l-121 -121h-409z" />
    <glyph glyph-name="six.tosf" horiz-adv-x="637" 
d="M485 440l118 -118v-204l-118 -118h-337l-118 118v190l242 335h154v-41l-105 -146v-16h164zM444 171v98l-41 41h-187l-27 -38v-101l41 -41h173z" />
    <glyph glyph-name="seven.tosf" horiz-adv-x="637" 
d="M176 -140v198l257 263v46h-396v136h555v-228l-257 -263v-152h-159z" />
    <glyph glyph-name="eight.tosf" horiz-adv-x="637" 
d="M151 0l-112 112v138l89 89l-69 68v129l107 107h304l107 -107v-129l-69 -68l89 -89v-138l-112 -112h-334zM255 387h127l36 36v60l-30 30h-140l-30 -30v-60zM233 130h170l35 35v63l-42 42h-156l-42 -42v-63z" />
    <glyph glyph-name="nine.tosf" horiz-adv-x="637" 
d="M489 503l118 -118v-189l-242 -336h-154v41l105 146v16h-164l-118 118v204l118 118h337zM234 193h187l27 38v101l-41 41h-173l-41 -41v-98z" />
    <glyph glyph-name="zero.zero" horiz-adv-x="818" 
d="M601 700l146 -146v-408l-146 -146h-384l-146 146v408l146 146h384zM301 555l-60 -60v-233l334 235l-58 58h-216zM517 145l60 60v233l-334 -235l58 -58h216z" />
    <glyph glyph-name="foundryicon" horiz-adv-x="1538" 
d="M171 230v199h-71v31h178v-31h-72v-199h-35zM832 230v199h-71v31h178v-31h-72v-199h-35zM438 169v224h24l9 -19q19 22 48 22q32 0 54.5 -25t22.5 -59q0 -36 -22.5 -60.5t-54.5 -24.5q-29 0 -47 21v-79h-34zM701 227q-32 0 -55 24.5t-23 60.5q0 35 23 59.5t55 24.5
t54 -24.5t22 -58.5v-15h-120q2 -17 14.5 -29t29.5 -12q27 0 37 17h35q-9 -22 -28.5 -34.5t-43.5 -12.5zM1099 169v224h24l9 -19q19 22 48 22q32 0 54.5 -25t22.5 -59q0 -36 -22.5 -60.5t-54.5 -24.5q-29 0 -47 21v-79h-34zM1362 227q-32 0 -55 24.5t-23 60.5q0 35 23 59.5
t55 24.5t54 -24.5t22 -58.5v-15h-120q2 -17 14.5 -29t29.5 -12q27 0 37 17h35q-9 -22 -28.5 -34.5t-43.5 -12.5zM288 169q-7 0 -10 1v28q23 0 31 20l6 16l-63 159h37l44 -116l44 116h37l-77 -190q-16 -34 -49 -34zM949 169q-7 0 -10 1v28q23 0 31 20l6 16l-63 159h37
l44 -116l44 116h37l-77 -190q-16 -34 -49 -34zM657 325h88q-1 17 -14.5 28.5t-29.5 11.5t-29 -11t-15 -29zM1318 325h88q-1 17 -14.5 28.5t-29.5 11.5t-29 -11t-15 -29zM516 258q19 0 33 16t14 38q0 21 -14 36.5t-33 15.5t-33 -15.5t-14 -36.5q0 -22 13.5 -38t33.5 -16z
M1177 258q19 0 33 16t14 38q0 21 -14 36.5t-33 15.5t-33 -15.5t-14 -36.5q0 -22 13.5 -38t33.5 -16z" />
    </font>
</defs>
</svg>
