<svg width="22" height="22" viewBox="0 0 22 22" fill="none" xmlns="http://www.w3.org/2000/svg">

<path d="M18.3333 13.2916V16.0416C18.3333 17.3073 17.3073 18.3333 16.0417 18.3333H5.04167C3.77601 18.3333 2.75 17.3073 2.75 16.0416V5.95829C2.75 4.69264 3.77601 3.66663 5.04167 3.66663H16.0417C17.3073 3.66663 18.3333 4.69264 18.3333 5.95829V8.70829" stroke="currentColor" stroke-width="1.2" stroke-linecap="round" stroke-linejoin="round"/>
<path fill-rule="evenodd" clip-rule="evenodd" d="M16.9582 8.70837H18.3332C18.8394 8.70837 19.2498 9.11878 19.2498 9.62504V12.375C19.2498 12.8813 18.8394 13.2917 18.3332 13.2917H16.9582C15.6925 13.2917 14.6665 12.2657 14.6665 11V11C14.6665 9.73439 15.6925 8.70837 16.9582 8.70837V8.70837Z" stroke="currentColor" stroke-width="1.2" stroke-linecap="round" stroke-linejoin="round"/>
<path d="M6.41683 7.33337V14.6667" stroke="currentColor" stroke-width="1.2" stroke-linecap="round" stroke-linejoin="round"/>

</svg>
